<svg width="128" height="128" xmlns="http://www.w3.org/2000/svg" xmlns:xlink="http://www.w3.org/1999/xlink">
  <defs>
    <linearGradient gradientUnits="userSpaceOnUse" x1="-819.2" x2="819.2" spreadMethod="pad" gradientTransform="matrix(0 0.078125 -0.078125 0 64 64)" id="gradient0">
      <stop offset="0" stop-color="#FFFFFF"/>
      <stop offset="1" stop-color="#D8E6E9"/>
    </linearGradient>
  </defs>
  <g>
    <path stroke="none" fill="url(#gradient0)" d="M128 64 Q128 90.5 109.25 109.25 90.5 128 64 128 37.5 128 18.75 109.25 7.45 97.95 2.95 83.8 0 74.5 0 64 0 53.5 2.95 44.2 7.45 30.05 18.75 18.75 37.5 0 64 0 90.5 0 109.25 18.75 128 37.5 128 64 M105 23 Q88 6 64 6 40 6 23 23 6 40 6 64 6 88 23 105 40 122 64 122 88 122 105 105 122 88 122 64 122 40 105 23"/>
    <path stroke="none" fill="#E5EEF0" d="M105 23 Q122 40 122 64 122 88 105 105 88 122 64 122 40 122 23 105 6 88 6 64 6 40 23 23 40 6 64 6 88 6 105 23"/>
    <path fill="none" stroke="#CEDDE0" stroke-width="1" stroke-linecap="round" stroke-linejoin="round" d="M105 23 Q122 40 122 64 122 88 105 105 88 122 64 122 40 122 23 105 6 88 6 64 6 40 23 23 40 6 64 6 88 6 105 23"/>
    <path stroke="none" fill="#FFFFFF" d="M59.15 106.35 L59 105.7 59.3 105.25 Q59.55 105 59.95 105 L68.05 105 Q68.4 105 68.7 105.25 L69 105.7 68.9 106.35 64.8 112.55 64.3 112.95 63.7 112.95 63.15 112.55 59.15 106.35"/>
    <path stroke="none" fill="#FFFFFF" d="M59.15 21.65 L63.15 15.45 Q63.35 15.1 63.7 15.05 L64.3 15.05 Q64.6 15.1 64.8 15.45 L68.9 21.65 69 22.3 68.7 22.75 68.05 23 59.95 23 59.3 22.75 59 22.3 59.15 21.65"/>
    <path stroke="none" fill="#FFFFFF" d="M21.65 59.15 L22.3 59 22.75 59.3 23 59.95 23 68.05 22.75 68.7 22.3 69 21.65 68.9 15.45 64.8 15.05 64.3 15.05 63.7 Q15.1 63.35 15.45 63.15 L21.65 59.15"/>
    <path stroke="none" fill="#FFFFFF" d="M106.35 59.15 L112.55 63.15 112.95 63.7 112.95 64.3 112.55 64.8 106.35 68.9 105.7 69 105.25 68.7 105 68.05 105 59.95 Q105 59.55 105.25 59.3 L105.7 59 106.35 59.15"/>
  </g>
</svg>