<svg width="64" height="64" xmlns="http://www.w3.org/2000/svg" xmlns:xlink="http://www.w3.org/1999/xlink">
  <defs>
    <linearGradient gradientUnits="userSpaceOnUse" x1="-819.2" x2="819.2" spreadMethod="pad" gradientTransform="matrix(0 0.0390625 -0.0390625 0 32 32)" id="gradient0">
      <stop offset="0" stop-color="#FFFFFF"/>
      <stop offset="1" stop-color="#D8E6E9"/>
    </linearGradient>
    <linearGradient gradientUnits="userSpaceOnUse" x1="-819.2" x2="819.2" spreadMethod="pad" gradientTransform="matrix(0 -0.0927734375 0.035400390625 0 32 32)" id="gradient1">
      <stop offset="0" stop-color="#FFFFFF"/>
      <stop offset="1" stop-color="#D8E6E9"/>
    </linearGradient>
  </defs>
  <g>
    <path stroke="none" fill="url(#gradient0)" d="M60 3 L4 3 Q3 3 3 4 L3 60 Q3 61 4 61 L60 61 Q61 61 61 60 L61 4 Q61 3 60 3 M4 0 L60 0 Q64 0 64 4 L64 60 Q64 64 60 64 L4 64 Q0 64 0 60 L0 4 Q0 0 4 0"/>
    <path stroke="none" fill="url(#gradient1)" d="M60 3 Q61 3 61 4 L61 60 Q61 61 60 61 L4 61 Q3 61 3 60 L3 4 Q3 3 4 3 L60 3"/>
    <path stroke="none" fill="#FFFFFF" d="M53 32 Q53 33.25 52.1 34.1 51.25 35 50 35 48.75 35 47.85 34.1 47 33.25 47 32 47 30.75 47.85 29.85 48.75 29 50 29 51.25 29 52.1 29.85 53 30.75 53 32 M35 14 Q35 15.25 34.1 16.1 33.25 17 32 17 30.75 17 29.85 16.1 29 15.25 29 14 29 12.75 29.85 11.85 30.75 11 32 11 33.25 11 34.1 11.85 35 12.75 35 14 M35 50 Q35 51.25 34.1 52.1 33.25 53 32 53 30.75 53 29.85 52.1 29 51.25 29 50 29 48.75 29.85 47.85 30.75 47 32 47 33.25 47 34.1 47.85 35 48.75 35 50 M17 32 Q17 33.25 16.1 34.1 15.25 35 14 35 12.75 35 11.85 34.1 11 33.25 11 32 11 30.75 11.85 29.85 12.75 29 14 29 15.25 29 16.1 29.85 17 30.75 17 32"/>
    <path fill="none" stroke="#FFFFFF" stroke-width="1" stroke-linecap="round" stroke-linejoin="round" d="M60 3 Q61 3 61 4 L61 60 Q61 61 60 61 L4 61 Q3 61 3 60 L3 4 Q3 3 4 3 L60 3"/>
  </g>
</svg>