<svg width="64" height="64" xmlns="http://www.w3.org/2000/svg" xmlns:xlink="http://www.w3.org/1999/xlink">
  <defs/>
  <g>
    <path stroke="none" fill="#FFFFFF" d="M56 0 Q59.3 0 61.65 2.35 64 4.7 64 8 L64 56 Q64 59.3 61.65 61.65 59.3 64 56 64 L32 64 Q28.7 64 26.35 61.65 L2.35 37.65 Q0 35.3 0 32 0 28.7 2.35 26.35 L26.35 2.35 Q28.7 0 32 0 L56 0 M57.4 6.6 Q56.8 6 56 6 L32 6 Q31.2 6 30.6 6.6 L6.6 30.6 Q6 31.2 6 32 6 32.8 6.6 33.4 L30.6 57.4 Q31.2 58 32 58 L56 58 Q56.8 58 57.4 57.45 L57.4 57.4 Q58 56.8 58 56 L58 8 Q58 7.2 57.4 6.6"/>
  </g>
</svg>