<svg width="128" height="128" xmlns="http://www.w3.org/2000/svg" xmlns:xlink="http://www.w3.org/1999/xlink">
  <defs/>
  <g>
    <path stroke="none" fill="#FFFFFF" d="M89 6 L89 39 122 39 Q124.5 39 126.25 40.75 128 42.5 128 45 L128 83 Q128 85.5 126.25 87.25 124.5 89 122 89 L89 89 89 122 Q89 124.5 87.25 126.25 85.5 128 83 128 L45 128 Q42.5 128 40.75 126.25 39 124.5 39 122 L39 89 6 89 Q3.5 89 1.75 87.25 0 85.5 0 83 L0 45 Q0 42.5 1.75 40.75 3.5 39 6 39 L39 39 39 6 Q39 3.5 40.75 1.75 42.5 0 45 0 L83 0 Q85.5 0 87.25 1.75 89 3.5 89 6 M6 45 L6 83 45 83 45 122 83 122 83 83 122 83 122 45 83 45 83 6 45 6 45 45 6 45 M102.35 59.15 L108.55 63.15 108.95 63.7 108.95 64.3 108.55 64.8 102.35 68.9 101.7 69 101.25 68.7 101 68.05 101 59.95 Q101 59.55 101.25 59.3 L101.7 59 102.35 59.15 M59.15 25.65 L63.15 19.45 Q63.35 19.1 63.7 19.05 L64.3 19.05 Q64.6 19.1 64.8 19.45 L68.9 25.65 69 26.3 68.7 26.75 68.05 27 59.95 27 59.3 26.75 59 26.3 59.15 25.65 M25.65 59.15 L26.3 59 26.75 59.3 27 59.95 27 68.05 26.75 68.7 26.3 69 25.65 68.9 19.45 64.8 19.05 64.3 19.05 63.7 Q19.1 63.35 19.45 63.15 L25.65 59.15 M67 64 Q67 65.25 66.1 66.1 65.25 67 64 67 62.75 67 61.85 66.1 61 65.25 61 64 61 62.75 61.85 61.85 62.75 61 64 61 65.25 61 66.1 61.85 67 62.75 67 64 M59.15 102.35 L59 101.7 59.3 101.25 Q59.55 101 59.95 101 L68.05 101 Q68.4 101 68.7 101.25 L69 101.7 68.9 102.35 64.8 108.55 64.3 108.95 63.7 108.95 63.15 108.55 59.15 102.35"/>
  </g>
</svg>