<svg width="64" height="64" xmlns="http://www.w3.org/2000/svg" xmlns:xlink="http://www.w3.org/1999/xlink">
  <defs/>
  <g>
    <path stroke="none" fill="#FFFFFF" d="M30.1 4.4 L30.05 4.4 Q18.9 8.25 7.1 16.75 5.55 17.85 5.2 19.7 4.05 25.95 4 32 L4 32.05 Q4.05 38.15 5.2 44.4 5.55 46.2 7.1 47.3 18.9 55.8 30.1 59.7 32 60.35 34 59.7 45.15 55.8 57 47.3 58.55 46.2 58.85 44.4 L58.9 44.4 Q60 38.15 60 32 60 25.95 58.9 19.65 L58.95 19.7 Q58.55 17.9 57 16.8 L56.95 16.75 Q45.15 8.25 34 4.4 32 3.7 30.1 4.4 M62.85 18.95 Q64 25.6 64 32 64 38.5 62.8 45.1 62.2 48.5 59.3 50.55 46.95 59.4 35.3 63.45 32 64.6 28.75 63.45 17.1 59.4 4.75 50.55 1.9 48.5 1.25 45.1 0.05 38.5 0 32.05 L0 32 Q0.05 25.55 1.25 18.95 1.9 15.55 4.75 13.5 17.1 4.6 28.75 0.6 32 -0.55 35.3 0.6 46.95 4.6 59.3 13.5 62.2 15.55 62.85 18.95"/>
  </g>
</svg>