<svg width="128" height="128" xmlns="http://www.w3.org/2000/svg" xmlns:xlink="http://www.w3.org/1999/xlink">
  <defs/>
  <g>
    <path stroke="none" fill="#FFFFFF" d="M64 6.05 L57 8.25 Q38.9 14.2 23.05 23 L22 24.75 Q10.6 43.7 6.05 64 10.8 85.2 23.05 105 41.9 115.5 64 122 86.15 115.45 105.05 104.95 109.5 97.75 112.95 90.35 119 77.45 122 64.05 118.95 50.6 112.95 37.7 109.5 30.3 105.05 23.05 86.15 12.55 64 6.05 M65.55 0.25 Q88.5 6.95 108.05 17.85 109.3 18.55 110.05 19.75 L112.95 24.65 Q123.45 43.15 127.85 62.8 128.15 64 127.85 65.2 123.5 84.85 112.95 103.35 L110.05 108.25 Q109.3 109.45 108.05 110.15 88.5 121.05 65.55 127.8 64 128.25 62.45 127.8 39.5 121.05 19.95 110.15 18.75 109.45 18 108.25 5.15 87.45 0.15 65.2 -0.15 64 0.15 62.8 5.15 40.55 18 19.75 18.75 18.55 19.95 17.85 L22 16.75 Q36.9 8.65 53.7 3 58 1.55 62.45 0.25 64 -0.25 65.55 0.25 M105 22.95 L104.95 22.9 104.95 22.95 105 22.95"/>
  </g>
</svg>