<svg width="128" height="128" xmlns="http://www.w3.org/2000/svg" xmlns:xlink="http://www.w3.org/1999/xlink">
  <defs/>
  <g>
    <path stroke="none" fill="#F2F6F7" d="M40.75 90.05 L59.75 71.05 Q61.5 69.3 64 69.3 66.5 69.3 68.25 71.05 L87.25 90.05 Q89 91.8 89 94.3 L89 122 Q89 124.5 87.25 126.25 85.5 128 83 128 L45 128 Q42.5 128 40.75 126.25 39 124.5 39 122 L39 94.3 Q39 91.8 40.75 90.05 M83 122 L83 94.3 64 75.3 45 94.3 45 122 83 122"/>
    <path stroke="none" fill="#DCE2E4" d="M83 122 L45 122 45 94.3 64 75.3 83 94.3 83 122"/>
    <path fill="none" stroke="#CEDDE0" stroke-width="1" stroke-linecap="round" stroke-linejoin="round" d="M83 122 L45 122 45 94.3 64 75.3 83 94.3 83 122"/>
    <path stroke="none" fill="#FFFFFF" d="M59.15 104.35 L59 103.7 59.3 103.25 Q59.55 103 59.95 103 L68.05 103 Q68.4 103 68.7 103.25 L69 103.7 68.9 104.35 64.8 110.55 64.3 110.95 63.7 110.95 63.15 110.55 59.15 104.35"/>
    <path stroke="none" fill="#F2F6F7" d="M94.3 39 L122 39 Q124.5 39 126.25 40.75 128 42.5 128 45 L128 83 Q128 85.5 126.25 87.25 124.5 89 122 89 L94.3 89 Q91.8 89 90.05 87.25 L71.05 68.25 Q69.3 66.5 69.3 64 69.3 61.5 71.05 59.75 L90.05 40.75 Q91.8 39 94.3 39 M122 45 L94.3 45 75.3 64 94.3 83 122 83 122 45"/>
    <path stroke="none" fill="#DCE2E4" d="M122 45 L122 83 94.3 83 75.3 64 94.3 45 122 45"/>
    <path fill="none" stroke="#CEDDE0" stroke-width="1" stroke-linecap="round" stroke-linejoin="round" d="M122 45 L122 83 94.3 83 75.3 64 94.3 45 122 45"/>
    <path stroke="none" fill="#FFFFFF" d="M104.35 59.15 L110.55 63.15 110.95 63.7 110.95 64.3 110.55 64.8 104.35 68.9 103.7 69 103.25 68.7 103 68.05 103 59.95 Q103 59.55 103.25 59.3 103.45 59.05 103.7 59 L104.35 59.15"/>
    <path stroke="none" fill="#F2F6F7" d="M45 6 L45 33.7 64 52.7 83 33.7 83 6 45 6 M89 6 L89 33.7 Q89 36.2 87.25 37.95 L68.25 56.95 Q66.5 58.7 64 58.7 61.5 58.7 59.75 56.95 L40.75 37.95 Q39 36.2 39 33.7 L39 6 Q39 3.5 40.75 1.75 42.5 0 45 0 L83 0 Q85.5 0 87.25 1.75 89 3.5 89 6"/>
    <path stroke="none" fill="#DCE2E4" d="M45 6 L83 6 83 33.7 64 52.7 45 33.7 45 6"/>
    <path fill="none" stroke="#CEDDE0" stroke-width="1" stroke-linecap="round" stroke-linejoin="round" d="M45 6 L83 6 83 33.7 64 52.7 45 33.7 45 6"/>
    <path stroke="none" fill="#FFFFFF" d="M59.15 23.65 L63.15 17.45 Q63.35 17.1 63.7 17.05 L64.3 17.05 Q64.6 17.1 64.8 17.45 L68.9 23.65 69 24.3 68.7 24.75 68.05 25 59.95 25 59.3 24.75 59 24.3 59.15 23.65"/>
    <path stroke="none" fill="#F2F6F7" d="M6 39 L33.7 39 Q36.2 39 37.95 40.75 L56.95 59.75 Q58.7 61.5 58.7 64 58.7 66.5 56.95 68.25 L37.95 87.25 Q36.2 89 33.7 89 L6 89 Q3.5 89 1.75 87.25 0 85.5 0 83 L0 45 Q0 42.5 1.75 40.75 3.5 39 6 39 M6 45 L6 83 33.7 83 52.7 64 33.7 45 6 45"/>
    <path stroke="none" fill="#DCE2E4" d="M6 45 L33.7 45 52.7 64 33.7 83 6 83 6 45"/>
    <path fill="none" stroke="#CEDDE0" stroke-width="1" stroke-linecap="round" stroke-linejoin="round" d="M6 45 L33.7 45 52.7 64 33.7 83 6 83 6 45"/>
    <path stroke="none" fill="#FFFFFF" d="M23.65 59.15 L24.3 59 24.75 59.3 25 59.95 25 68.05 24.75 68.7 24.3 69 23.65 68.9 17.45 64.8 17.05 64.3 17.05 63.7 Q17.1 63.35 17.45 63.15 L23.65 59.15"/>
  </g>
</svg>