<svg width="64" height="64" xmlns="http://www.w3.org/2000/svg" xmlns:xlink="http://www.w3.org/1999/xlink">
  <defs/>
  <g>
    <path stroke="none" fill="#F2F6F7" d="M4 0 L60 0 Q64 0 64 4 L64 60 Q64 64 60 64 L4 64 Q0 64 0 60 L0 4 Q0 0 4 0"/>
    <path stroke="none" fill="#FFFFFF" d="M53 32 Q53 33.25 52.1 34.1 51.25 35 50 35 48.75 35 47.85 34.1 47 33.25 47 32 47 30.75 47.85 29.85 48.75 29 50 29 51.25 29 52.1 29.85 53 30.75 53 32 M35 14 Q35 15.25 34.1 16.1 33.25 17 32 17 30.75 17 29.85 16.1 29 15.25 29 14 29 12.75 29.85 11.85 30.75 11 32 11 33.25 11 34.1 11.85 35 12.75 35 14 M35 50 Q35 51.25 34.1 52.1 33.25 53 32 53 30.75 53 29.85 52.1 29 51.25 29 50 29 48.75 29.85 47.85 30.75 47 32 47 33.25 47 34.1 47.85 35 48.75 35 50 M17 32 Q17 33.25 16.1 34.1 15.25 35 14 35 12.75 35 11.85 34.1 11 33.25 11 32 11 30.75 11.85 29.85 12.75 29 14 29 15.25 29 16.1 29.85 17 30.75 17 32"/>
    <path fill="none" stroke="#FFFFFF" stroke-width="1" stroke-linecap="round" stroke-linejoin="round" d="M60 3 Q61 3 61 4 L61 60 Q61 61 60 61 L4 61 Q3 61 3 60 L3 4 Q3 3 4 3 L60 3"/>
  </g>
</svg>