<svg width="128" height="128" xmlns="http://www.w3.org/2000/svg" xmlns:xlink="http://www.w3.org/1999/xlink">
  <defs/>
  <g>
    <path stroke="none" fill="#F2F6F7" d="M65.55 0.25 Q88.5 6.95 108.05 17.85 109.3 18.55 110.05 19.75 122.85 40.55 127.85 62.8 128.15 64 127.85 65.2 122.9 87.45 110.05 108.25 109.3 109.45 108.05 110.15 88.5 121.05 65.55 127.8 64 128.25 62.45 127.8 39.5 121.05 19.95 110.15 18.75 109.45 18 108.25 5.15 87.45 0.15 65.2 -0.15 64 0.15 62.8 5.15 40.55 18 19.75 18.75 18.55 19.95 17.85 39.5 6.95 62.45 0.25 64 -0.25 65.55 0.25 M105 22.95 L104.95 22.9 104.95 22.95 105 22.95 M64 6.05 Q41.9 12.5 23.05 23 10.8 42.8 6.05 64 10.8 85.2 23.05 105 41.9 115.5 64 122 86.15 115.45 105.05 104.95 117.25 85.15 122 64.05 117.2 42.85 105.05 23.05 86.15 12.55 64 6.05"/>
    <path stroke="none" fill="#33CC99" d="M105 22.95 L104.95 22.95 104.95 22.9 105 22.95"/>
    <path stroke="none" fill="#DCE2E4" d="M64 6.05 Q86.15 12.55 105.05 23.05 117.2 42.85 122 64.05 117.25 85.15 105.05 104.95 86.15 115.45 64 122 41.9 115.5 23.05 105 10.8 85.2 6.05 64 10.8 42.8 23.05 23 41.9 12.5 64 6.05"/>
    <path fill="none" stroke="#CEDDE0" stroke-width="1" stroke-linecap="round" stroke-linejoin="round" d="M64 6.05 Q86.15 12.55 105.05 23.05 117.2 42.85 122 64.05 117.25 85.15 105.05 104.95 86.15 115.45 64 122 41.9 115.5 23.05 105 10.8 85.2 6.05 64 10.8 42.8 23.05 23 41.9 12.5 64 6.05"/>
    <path stroke="none" fill="#FFFFFF" d="M37.5 30.6 L38.05 30.95 38.15 31.55 37.85 32.15 32.15 37.85 Q31.9 38.1 31.55 38.15 L30.95 38.05 30.6 37.5 29.1 30.2 Q29 29.8 29.2 29.6 L29.6 29.2 Q29.85 28.95 30.25 29.05 L37.5 30.6"/>
    <path stroke="none" fill="#FFFFFF" d="M97.4 90.5 L98.95 97.75 98.8 98.4 98.4 98.8 97.8 98.9 90.5 97.4 89.95 97.05 89.85 96.45 90.15 95.85 95.85 90.15 Q96.15 89.85 96.45 89.85 L97.05 89.95 97.4 90.5"/>
    <path stroke="none" fill="#FFFFFF" d="M97.4 37.5 L97.05 38.05 96.45 38.15 Q96.15 38.15 95.85 37.85 L90.15 32.15 89.85 31.55 89.95 30.95 90.5 30.6 97.8 29.1 98.4 29.2 98.8 29.6 Q99.05 29.85 98.95 30.25 L97.4 37.5"/>
    <path stroke="none" fill="#FFFFFF" d="M37.5 97.4 L30.25 98.95 29.6 98.8 29.2 98.4 Q29 98.2 29.1 97.8 L30.6 90.5 Q30.7 90.2 30.95 89.95 L31.55 89.85 32.15 90.15 37.85 95.85 38.15 96.45 38.05 97.05 37.5 97.4"/>
  </g>
</svg>