<svg width="64" height="64" xmlns="http://www.w3.org/2000/svg" xmlns:xlink="http://www.w3.org/1999/xlink">
  <defs/>
  <g>
    <path stroke="none" fill="#F2F6F7" d="M62.85 18.95 Q64 25.6 64 32 64 38.5 62.8 45.1 62.2 48.5 59.3 50.55 46.95 59.4 35.3 63.45 32 64.6 28.75 63.45 17.1 59.4 4.75 50.55 1.9 48.5 1.25 45.1 0.05 38.5 0 32.05 L0 32 Q0.05 25.55 1.25 18.95 1.9 15.55 4.75 13.5 17.1 4.6 28.75 0.6 32 -0.55 35.3 0.6 46.95 4.6 59.3 13.5 62.2 15.55 62.85 18.95"/>
    <path fill="none" stroke="#FFFFFF" stroke-width="1" stroke-linecap="round" stroke-linejoin="round" d="M30.1 4.4 Q32 3.7 34 4.4 45.15 8.25 56.95 16.75 L57 16.8 Q58.55 17.9 58.95 19.7 L58.9 19.65 Q60 25.95 60 32 60 38.15 58.9 44.4 L58.85 44.4 Q58.55 46.2 57 47.3 45.15 55.8 34 59.7 32 60.35 30.1 59.7 18.9 55.8 7.1 47.3 5.55 46.2 5.2 44.4 4.05 38.15 4 32.05 L4 32 Q4.05 25.95 5.2 19.7 5.55 17.85 7.1 16.75 18.9 8.25 30.05 4.4 L30.1 4.4"/>
    <path stroke="none" fill="#FFFFFF" d="M53 32 Q53 33.25 52.1 34.1 51.25 35 50 35 48.75 35 47.85 34.1 47 33.25 47 32 47 30.75 47.85 29.85 48.75 29 50 29 51.25 29 52.1 29.85 53 30.75 53 32 M35 14 Q35 15.25 34.1 16.1 33.25 17 32 17 30.75 17 29.85 16.1 29 15.25 29 14 29 12.75 29.85 11.85 30.75 11 32 11 33.25 11 34.1 11.85 35 12.75 35 14 M35 50 Q35 51.25 34.1 52.1 33.25 53 32 53 30.75 53 29.85 52.1 29 51.25 29 50 29 48.75 29.85 47.85 30.75 47 32 47 33.25 47 34.1 47.85 35 48.75 35 50 M17 32 Q17 33.25 16.1 34.1 15.25 35 14 35 12.75 35 11.85 34.1 11 33.25 11 32 11 30.75 11.85 29.85 12.75 29 14 29 15.25 29 16.1 29.85 17 30.75 17 32"/>
  </g>
</svg>