<svg width="64" height="64" xmlns="http://www.w3.org/2000/svg" xmlns:xlink="http://www.w3.org/1999/xlink">
  <defs/>
  <g>
    <path stroke="none" fill="#F2F6F7" d="M32.8 0.15 Q44.25 3.5 54.05 8.95 L55.05 9.9 Q61.45 20.3 63.95 31.4 L63.95 32.6 Q61.45 43.75 55.05 54.15 L54.05 55.1 Q44.25 60.55 32.8 63.9 32 64.15 31.25 63.9 19.75 60.55 10 55.1 L9 54.15 Q2.6 43.75 0.1 32.6 -0.05 32 0.1 31.4 2.6 20.3 9 9.9 L10 8.95 Q19.75 3.5 31.25 0.15 32 -0.1 32.8 0.15"/>
    <path fill="none" stroke="#FFFFFF" stroke-width="1" stroke-linecap="round" stroke-linejoin="round" d="M12.25 12.3 Q21.35 7.25 32.05 4.1 42.65 7.25 51.85 12.3 57.65 21.85 60 32 57.65 42.2 51.85 51.75 42.65 56.8 32.05 59.95 21.35 56.8 12.25 51.75 6.4 42.2 4.1 32 6.4 21.85 12.25 12.3"/>
  </g>
</svg>