<svg width="128" height="128" xmlns="http://www.w3.org/2000/svg" xmlns:xlink="http://www.w3.org/1999/xlink">
  <defs/>
  <g>
    <path stroke="none" fill="#F2F6F7" d="M125.65 37.85 Q128 51.15 128 64 128 76.95 125.6 90.2 124.35 96.95 118.6 101.1 93.85 118.8 70.6 126.9 64 129.15 57.45 126.85 34.2 118.8 9.5 101.1 3.75 96.95 2.5 90.2 0.05 77 0 64.1 L0 63.95 Q0.05 51.1 2.5 37.85 3.75 31.1 9.5 26.95 34.2 9.2 57.45 1.15 64 -1.15 70.6 1.15 93.85 9.2 118.6 26.95 124.35 31.1 125.65 37.85 M8.4 38.95 Q6.05 51.65 6 63.95 L6 64.1 Q6.05 76.45 8.4 89.1 9.25 93.5 13 96.25 36.9 113.35 59.45 121.2 64.05 122.8 68.7 121.25 L68.65 121.25 Q91.15 113.35 115.1 96.25 118.85 93.5 119.7 89.1 122 76.4 122 64 122 51.65 119.75 38.9 L119.75 39 Q118.9 34.55 115.1 31.85 91.15 14.65 68.65 6.85 64 5.2 59.45 6.8 L59.45 6.85 Q36.9 14.65 13 31.85 9.25 34.55 8.4 38.95"/>
    <path stroke="none" fill="#DCE2E4" d="M8.4 38.95 Q9.25 34.55 13 31.85 36.9 14.65 59.45 6.85 L59.45 6.8 Q64 5.2 68.65 6.85 91.15 14.65 115.1 31.85 118.9 34.55 119.75 39 L119.75 38.9 Q122 51.65 122 64 122 76.4 119.7 89.1 118.85 93.5 115.1 96.25 91.15 113.35 68.65 121.25 L68.7 121.25 Q64.05 122.8 59.45 121.2 36.9 113.35 13 96.25 9.25 93.5 8.4 89.1 6.05 76.45 6 64.1 L6 63.95 Q6.05 51.65 8.4 38.95"/>
    <path fill="none" stroke="#CEDDE0" stroke-width="1" stroke-linecap="round" stroke-linejoin="round" d="M8.4 38.95 Q9.25 34.55 13 31.85 36.9 14.65 59.45 6.85 L59.45 6.8 Q64 5.2 68.65 6.85 91.15 14.65 115.1 31.85 118.9 34.55 119.75 39 L119.75 38.9 Q122 51.65 122 64 122 76.4 119.7 89.1 118.85 93.5 115.1 96.25 91.15 113.35 68.65 121.25 L68.7 121.25 Q64.05 122.8 59.45 121.2 36.9 113.35 13 96.25 9.25 93.5 8.4 89.1 6.05 76.45 6 64.1 L6 63.95 Q6.05 51.65 8.4 38.95"/>
  </g>
</svg>