{
  "asset": {
    "generator": "Khronos glTF Blender I/O v1.6.8",
    "version": "2.0"
  },
  "scene": 0,
  "scenes": [
    {
      "name": "Scene",
      "nodes": [
        0
      ]
    }
  ],
  "nodes": [
    {
      "mesh": 0,
      "name": "sphere_gltf"
    }
  ],
  "materials": [
    {
      "doubleSided": true,
      "name": "rocks_ground_02",
      "normalTexture": {
        "index": 0
      },
      "pbrMetallicRoughness": {
        "baseColorTexture": {
          "index": 1
        },
        "metallicFactor": 0,
        "metallicRoughnessTexture": {
          "index": 2
        }
      }
    }
  ],
  "meshes": [
    {
      "name": "Sphere.001",
      "primitives": [
        {
          "attributes": {
            "POSITION": 0,
            "NORMAL": 1,
            "TEXCOORD_0": 2
          },
          "indices": 3,
          "material": 0
        }
      ]
    }
  ],
  "textures": [
    {
      "sampler": 0,
      "source": 0
    },
    {
      "sampler": 0,
      "source": 1
    },
    {
      "sampler": 0,
      "source": 2
    }
  ],
  "images": [
    {
      "mimeType": "image/jpeg",
      "name": "rocks_ground_02_nor_gl_4k",
      "uri": "textures/rocks_ground_02_nor_gl_1k.jpg"
    },
    {
      "mimeType": "image/jpeg",
      "name": "rocks_ground_02_col_4k",
      "uri": "textures/rocks_ground_02_col_1k.jpg"
    },
    {
      "mimeType": "image/jpeg",
      "name": "rocks_ground_02_rough_4k",
      "uri": "textures/rocks_ground_02_rough_1k.jpg"
    }
  ],
  "accessors": [
    {
      "bufferView": 0,
      "componentType": 5126,
      "count": 53920,
      "max": [
        0.9899231791496277,
        1.101817011833191,
        1.0236525535583496
      ],
      "min": [
        -0.9899227023124695,
        -1.0633184909820557,
        -1.0236551761627197
      ],
      "type": "VEC3"
    },
    {
      "bufferView": 1,
      "componentType": 5126,
      "count": 53920,
      "type": "VEC3"
    },
    {
      "bufferView": 2,
      "componentType": 5126,
      "count": 53920,
      "type": "VEC2"
    },
    {
      "bufferView": 3,
      "componentType": 5123,
      "count": 322170,
      "type": "SCALAR"
    }
  ],
  "bufferViews": [
    {
      "buffer": 0,
      "byteLength": 647040,
      "byteOffset": 0
    },
    {
      "buffer": 0,
      "byteLength": 647040,
      "byteOffset": 647040
    },
    {
      "buffer": 0,
      "byteLength": 431360,
      "byteOffset": 1294080
    },
    {
      "buffer": 0,
      "byteLength": 644340,
      "byteOffset": 1725440
    }
  ],
  "samplers": [
    {
      "magFilter": 9729,
      "minFilter": 9987
    }
  ],
  "buffers": [
    {
      "byteLength": 2369780,
      "uri": "rocks_ground_02.bin"
    }
  ]
}