<svg width="128" height="64" xmlns="http://www.w3.org/2000/svg" xmlns:xlink="http://www.w3.org/1999/xlink">
  <defs>
    <linearGradient gradientUnits="userSpaceOnUse" x1="-819.2" x2="819.2" spreadMethod="pad" gradientTransform="matrix(0 0.0390625 -0.03912353515625 0 64 32)" id="gradient0">
      <stop offset="0" stop-color="#FFCC33"/>
      <stop offset="1" stop-color="#FF9900"/>
    </linearGradient>
  </defs>
  <g>
    <path stroke="none" fill="url(#gradient0)" d="M32 6 L32 6.35 6.4 31.95 32.05 57.55 32.2 58 95.85 58 96 57.7 121.65 32 121.65 31.95 96.05 6.35 95.9 6 32 6 M100.3 2.1 L125.9 27.7 Q130.15 32 125.9 36.25 L100.3 61.9 Q98.5 63.7 96.7 64 L96.05 64.05 96.05 64 32.05 64 Q29.95 63.95 27.8 61.8 L2.15 36.2 Q0.25 34.3 0.05 32.4 L0.05 31.5 Q0.25 29.55 2.15 27.65 L27.8 2.05 Q29.85 0.05 31.85 0 L32.05 0 96.05 0 96.5 0 Q98.4 0.2 100.3 2.1"/>
    <path fill="none" stroke="#FFE272" stroke-width="2" stroke-linecap="round" stroke-linejoin="round" d="M32 6 L95.9 6 96.05 6.35 121.65 31.95 121.65 32 96 57.7 95.85 58 32.2 58 32.05 57.55 6.4 31.95 32 6.35 32 6"/>
  </g>
</svg>