<svg width="58" height="64" xmlns="http://www.w3.org/2000/svg" xmlns:xlink="http://www.w3.org/1999/xlink">
  <defs>
    <linearGradient gradientUnits="userSpaceOnUse" x1="-819.2" x2="819.2" spreadMethod="pad" gradientTransform="matrix(0 0.0390625 -0.0390625 0 29 32)" id="gradient0">
      <stop offset="0" stop-color="#FFCC33"/>
      <stop offset="1" stop-color="#FF9900"/>
    </linearGradient>
  </defs>
  <g>
    <path stroke="none" fill="url(#gradient0)" d="M51.95 19.05 L29.2 6.1 29.1 6 28.95 6.1 6.1 19.05 6.05 19.05 6 19.15 6 44.95 6.05 45.05 6.1 45.1 6.2 45.15 28.95 58 29.05 58 29.2 58 29.25 57.95 51.75 45.2 51.8 45.2 51.95 45.05 52 44.95 52 19.15 52.05 19.2 51.95 19.05 M58 19.15 L58 44.95 Q58 46.6 57.15 48 56.35 49.4 54.9 50.3 L32.15 63.2 Q30.7 64 29.05 64 27.4 64 26 63.2 L3.15 50.3 Q1.65 49.4 0.85 48 0 46.6 0 44.95 L0 19.15 Q0 17.45 0.85 16.05 1.65 14.65 3.15 13.8 L26 0.85 Q27.4 0 29.05 0 30.7 0 32.15 0.85 L54.9 13.8 Q56.35 14.65 57.15 16.05 58 17.45 58 19.15"/>
    <path fill="none" stroke="#FFE272" stroke-width="2" stroke-linecap="round" stroke-linejoin="round" d="M51.95 19.05 L52.05 19.2 52 19.15 52 44.95 51.95 45.05 51.8 45.2 51.75 45.2 29.25 57.95 29.2 58 29.05 58 28.95 58 6.2 45.15 6.1 45.1 6.05 45.05 6 44.95 6 19.15 6.05 19.05 6.1 19.05 28.95 6.1 29.1 6 29.2 6.1 51.95 19.05"/>
  </g>
</svg>