<svg width="128" height="128" xmlns="http://www.w3.org/2000/svg" xmlns:xlink="http://www.w3.org/1999/xlink">
  <defs>
    <linearGradient gradientUnits="userSpaceOnUse" x1="-819.2" x2="819.2" spreadMethod="pad" gradientTransform="matrix(0 0.078125 -0.078125 0 64 64)" id="gradient0">
      <stop offset="0" stop-color="#FFCC33"/>
      <stop offset="1" stop-color="#FF9900"/>
    </linearGradient>
  </defs>
  <g>
    <path stroke="none" fill="url(#gradient0)" d="M89 6 L89 39 122 39 Q124.5 39 126.25 40.75 128 42.5 128 45 L128 83 Q128 85.5 126.25 87.25 124.5 89 122 89 L89 89 89 122 Q89 124.5 87.25 126.25 85.5 128 83 128 L45 128 Q42.5 128 40.75 126.25 39 124.5 39 122 L39 89 6 89 Q3.5 89 1.75 87.25 0 85.5 0 83 L0 45 Q0 42.5 1.75 40.75 3.5 39 6 39 L39 39 39 6 Q39 3.5 40.75 1.75 42.5 0 45 0 L83 0 Q85.5 0 87.25 1.75 89 3.5 89 6 M6 45 L6 83 45 83 45 122 83 122 83 83 122 83 122 45 83 45 83 6 45 6 45 45 6 45"/>
    <path fill="none" stroke="#FFE272" stroke-width="2" stroke-linecap="round" stroke-linejoin="round" d="M6 45 L45 45 45 6 83 6 83 45 122 45 122 83 83 83 83 122 45 122 45 83 6 83 6 45"/>
  </g>
</svg>