<svg width="128" height="128" xmlns="http://www.w3.org/2000/svg" xmlns:xlink="http://www.w3.org/1999/xlink">
  <defs>
    <linearGradient gradientUnits="userSpaceOnUse" x1="-819.2" x2="819.2" spreadMethod="pad" gradientTransform="matrix(0 0.078125 -0.078125 0 64 64)" id="gradient0">
      <stop offset="0" stop-color="#FFCC33"/>
      <stop offset="1" stop-color="#FF9900"/>
    </linearGradient>
    <linearGradient gradientUnits="userSpaceOnUse" x1="-819.2" x2="819.2" spreadMethod="pad" gradientTransform="matrix(0.000030517578125 0 0 0.000030517578125 104.95 22.9)" id="gradient1">
      <stop offset="0" stop-color="#FFCC33"/>
      <stop offset="1" stop-color="#FF9900"/>
    </linearGradient>
  </defs>
  <g>
    <path stroke="none" fill="url(#gradient0)" d="M65.55 0.25 Q88.5 6.95 108.05 17.85 109.3 18.55 110.05 19.75 122.85 40.55 127.85 62.8 128.15 64 127.85 65.2 122.9 87.45 110.05 108.25 109.3 109.45 108.05 110.15 88.5 121.05 65.55 127.8 64 128.25 62.45 127.8 39.5 121.05 19.95 110.15 18.75 109.45 18 108.25 5.15 87.45 0.15 65.2 -0.15 64 0.15 62.8 5.15 40.55 18 19.75 18.75 18.55 19.95 17.85 39.5 6.95 62.45 0.25 64 -0.25 65.55 0.25 M105 22.95 L104.95 22.9 104.95 22.95 105 22.95 M64 6.05 Q41.9 12.5 23.05 23 10.8 42.8 6.05 64 10.8 85.2 23.05 105 41.9 115.5 64 122 86.15 115.45 105.05 104.95 117.25 85.15 122 64.05 117.2 42.85 105.05 23.05 86.15 12.55 64 6.05"/>
    <path stroke="none" fill="url(#gradient1)" d="M105 22.95 L104.95 22.95 104.95 22.9 105 22.95"/>
    <path fill="none" stroke="#FFE272" stroke-width="2" stroke-linecap="round" stroke-linejoin="round" d="M64 6.05 Q86.15 12.55 105.05 23.05 117.2 42.85 122 64.05 117.25 85.15 105.05 104.95 86.15 115.45 64 122 41.9 115.5 23.05 105 10.8 85.2 6.05 64 10.8 42.8 23.05 23 41.9 12.5 64 6.05"/>
  </g>
</svg>