<svg width="64" height="64" xmlns="http://www.w3.org/2000/svg" xmlns:xlink="http://www.w3.org/1999/xlink">
  <defs>
    <linearGradient gradientUnits="userSpaceOnUse" x1="-819.2" x2="819.2" spreadMethod="pad" gradientTransform="matrix(-0.00244140625 -0.0042266845703125 0.005279541015625 -0.0030517578125 36 36)" id="gradient0">
      <stop offset="0" stop-color="#FFFFFF"/>
      <stop offset="1" stop-color="#DAE2E9"/>
    </linearGradient>
  </defs>
  <g>
    <path stroke="none" fill="#FFFFFF" d="M35.35 41.05 Q35.7 48.15 34.7 51.85 33.55 56.1 30.5 56 26.55 55.9 24.45 50.75 22.45 45.75 22 35.75 21.75 30.65 19.9 27.6 18 24.7 18 21 18 15.65 22.1 11.8 26.2 8 32 8 37.8 8 41.9 11.8 46 15.65 46 21 46 26.4 41.9 30.2 L38.45 32.65 37.75 32.95 37.7 32.95 Q34.95 34.15 35.2 38.75 L35.35 41.05 M38 20.5 Q38 19.45 37.25 18.7 36.5 18 35.5 18 34.45 18 33.7 18.7 33 19.45 33 20.5 33 21.55 33.7 22.25 34.45 23 35.5 23 36.5 23 37.25 22.25 38 21.55 38 20.5 M34 26.5 Q34 25.45 33.25 24.7 32.5 24 31.5 24 30.45 24 29.7 24.7 29 25.45 29 26.5 29 27.55 29.7 28.25 30.45 29 31.5 29 32.5 29 33.25 28.25 34 27.55 34 26.5 M30 20 Q30 18.35 28.8 17.2 27.65 16 26 16 24.35 16 23.15 17.2 22 18.35 22 20 22 21.65 23.15 22.85 24.35 24 26 24 27.65 24 28.8 22.85 30 21.65 30 20"/>
    <path stroke="none" fill="url(#gradient0)" d="M35.35 41.05 L35.2 38.75 Q34.95 34.15 37.7 32.95 L37.75 32.95 38.45 32.65 39.85 37.75 Q40.45 39.8 38.3 40.35 L36.2 40.9 35.35 41.05"/>
  </g>
</svg>