<svg width="64" height="64" xmlns="http://www.w3.org/2000/svg" xmlns:xlink="http://www.w3.org/1999/xlink">
  <defs>
    <linearGradient gradientUnits="userSpaceOnUse" x1="-819.2" x2="819.2" spreadMethod="pad" gradientTransform="matrix(0 0.009765625 0.009765625 0 34 20)" id="gradient0">
      <stop offset="0" stop-color="#FFFFFF"/>
      <stop offset="1" stop-color="#DAE2E9"/>
    </linearGradient>
    <linearGradient gradientUnits="userSpaceOnUse" x1="-819.2" x2="819.2" spreadMethod="pad" gradientTransform="matrix(0.00244140625 -0.0042266845703125 -0.005279541015625 -0.0030517578125 28 36)" id="gradient1">
      <stop offset="0" stop-color="#FFFFFF"/>
      <stop offset="1" stop-color="#DAE2E9"/>
    </linearGradient>
  </defs>
  <g>
    <path stroke="none" fill="#FFFFFF" d="M21.9 12 L22.1 11.8 Q26.2 8 32 8 37.8 8 41.9 11.8 L42.1 12 Q46 15.8 46 21 46 24.7 44.1 27.6 L43.9 28 Q42.25 31 42 35.75 41.55 45.75 39.55 50.75 37.45 55.9 33.5 56 30.45 56.1 29.3 51.85 28.3 48.15 28.65 41.05 L28.8 38.75 Q29.05 34.15 26.3 32.95 L26.25 32.95 25.55 32.65 Q23.7 31.7 22.1 30.2 L20.2 28 Q18 24.9 18 21 18 15.8 21.9 12 M34 20 Q34 21.65 35.2 22.85 36.35 24 38 24 39.65 24 40.85 22.85 42 21.65 42 20 42 18.35 40.85 17.2 39.65 16 38 16 36.35 16 35.2 17.2 34 18.35 34 20 M26 20.5 Q26 21.55 26.75 22.25 27.5 23 28.5 23 29.55 23 30.3 22.25 31 21.55 31 20.5 31 19.45 30.3 18.7 29.55 18 28.5 18 27.5 18 26.75 18.7 26 19.45 26 20.5 M30 26.5 Q30 27.55 30.75 28.25 31.5 29 32.5 29 33.55 29 34.3 28.25 35 27.55 35 26.5 35 25.45 34.3 24.7 33.55 24 32.5 24 31.5 24 30.75 24.7 30 25.45 30 26.5"/>
    <path stroke="none" fill="url(#gradient0)" d="M42.1 12 L48 12 Q51.3 12 53.65 14.35 56 16.7 56 20 L56 24 Q56 28 52 28 L43.9 28 44.1 27.6 Q46 24.7 46 21 46 15.8 42.1 12 M20.2 28 L16 28 Q12 28 12 24 L12 20 Q12 16.7 14.35 14.35 16.7 12 20 12 L21.9 12 Q18 15.8 18 21 18 24.9 20.2 28"/>
    <path stroke="none" fill="url(#gradient1)" d="M28.65 41.05 L27.8 40.9 25.7 40.35 Q23.55 39.8 24.15 37.75 L25.55 32.65 26.25 32.95 26.3 32.95 Q29.05 34.15 28.8 38.75 L28.65 41.05"/>
  </g>
</svg>