<svg width="64" height="64" xmlns="http://www.w3.org/2000/svg" xmlns:xlink="http://www.w3.org/1999/xlink">
  <defs>
    <linearGradient gradientUnits="userSpaceOnUse" x1="-819.2" x2="819.2" spreadMethod="pad" gradientTransform="matrix(0.00244140625 -0.0042266845703125 -0.005279541015625 -0.0030517578125 28 36)" id="gradient0">
      <stop offset="0" stop-color="#FFFFFF"/>
      <stop offset="1" stop-color="#DAE2E9"/>
    </linearGradient>
  </defs>
  <g>
    <path stroke="none" fill="url(#gradient0)" d="M30.4 31.7 Q32.5 32.25 31.85 34.3 L30.45 39.4 Q29.9 41.45 27.8 40.9 L25.7 40.35 Q23.55 39.8 24.15 37.75 L25.55 32.65 Q26.15 30.6 28.3 31.1 L30.4 31.7"/>
    <path stroke="none" fill="#FFFFFF" d="M46 21 Q46 24.7 44.1 27.6 42.25 30.65 42 35.75 41.55 45.75 39.55 50.75 37.45 55.9 33.5 56 30.45 56.1 29.3 51.85 28.15 47.6 28.8 38.75 29.05 34.15 26.3 32.95 L26.25 32.95 Q24 32 22.1 30.2 18 26.4 18 21 18 15.65 22.1 11.8 26.2 8 32 8 37.8 8 41.9 11.8 46 15.65 46 21 M30 22 L30 18 33 18 Q33.85 18 34.4 18.55 35 19.15 35 20 35 20.85 34.4 21.4 33.85 22 33.05 22 L30 22 M33 25 L34 24.9 34 25 35 28 38 28 36.5 23.5 Q38 22.05 38 20 38 17.95 36.5 16.45 35.05 15 33 15 L27 15 27 28 30 28 30 25 33 25"/>
  </g>
</svg>