<svg width="64" height="64" xmlns="http://www.w3.org/2000/svg" xmlns:xlink="http://www.w3.org/1999/xlink">
  <defs>
    <linearGradient gradientUnits="userSpaceOnUse" x1="-819.2" x2="819.2" spreadMethod="pad" gradientTransform="matrix(0 0.009765625 0.009765625 0 34 20)" id="gradient0">
      <stop offset="0" stop-color="#FFFFFF"/>
      <stop offset="1" stop-color="#DAE2E9"/>
    </linearGradient>
    <linearGradient gradientUnits="userSpaceOnUse" x1="-819.2" x2="819.2" spreadMethod="pad" gradientTransform="matrix(0.00244140625 -0.0042266845703125 -0.005279541015625 -0.0030517578125 28 36)" id="gradient1">
      <stop offset="0" stop-color="#FFFFFF"/>
      <stop offset="1" stop-color="#DAE2E9"/>
    </linearGradient>
  </defs>
  <g>
    <path stroke="none" fill="#FFFFFF" d="M21.9 12 L22.1 11.8 Q26.2 8 32 8 37.8 8 41.9 11.8 L42.1 12 Q46 15.8 46 21 46 24.7 44.1 27.6 L43.9 28 Q42.25 31 42 35.75 41.55 45.75 39.55 50.75 37.45 55.9 33.5 56 30.45 56.1 29.3 51.85 28.3 48.15 28.65 41.05 L28.8 38.75 Q29.05 34.15 26.3 32.95 L26.25 32.95 25.55 32.65 Q23.7 31.7 22.1 30.2 L20.2 28 Q18 24.9 18 21 18 15.8 21.9 12 M33 25 L34 24.9 34 25 35 28 38 28 36.5 23.5 Q38 22.05 38 20 38 17.95 36.5 16.45 35.05 15 33 15 L27 15 27 28 30 28 30 25 33 25 M30 22 L30 18 33 18 Q33.85 18 34.4 18.55 35 19.15 35 20 35 20.85 34.4 21.4 33.85 22 33.05 22 L30 22"/>
    <path stroke="none" fill="url(#gradient0)" d="M42.1 12 L48 12 Q51.3 12 53.65 14.35 56 16.7 56 20 L56 24 Q56 28 52 28 L43.9 28 44.1 27.6 Q46 24.7 46 21 46 15.8 42.1 12 M20.2 28 L16 28 Q12 28 12 24 L12 20 Q12 16.7 14.35 14.35 16.7 12 20 12 L21.9 12 Q18 15.8 18 21 18 24.9 20.2 28"/>
    <path stroke="none" fill="url(#gradient1)" d="M28.65 41.05 L27.8 40.9 25.7 40.35 Q23.55 39.8 24.15 37.75 L25.55 32.65 26.25 32.95 26.3 32.95 Q29.05 34.15 28.8 38.75 L28.65 41.05"/>
  </g>
</svg>