<svg width="64" height="64" xmlns="http://www.w3.org/2000/svg" xmlns:xlink="http://www.w3.org/1999/xlink">
  <defs/>
  <g>
    <path stroke="none" fill="#FFFFFF" d="M37.2 23.5 Q35.5 23.5 33.85 24.95 L32.35 26.55 30.7 24.95 Q29.8 24.15 28.8 23.85 L28.85 23.85 26.9 23.5 Q25.35 23.5 23.95 24.45 22.65 25.3 21.65 26.85 20.6 28.45 20.1 30.5 L20.1 30.45 Q19.5 32.4 19.5 34.45 19.5 36.8 20.45 38.3 21.7 40.5 24.45 40.5 25.75 40.5 26.8 39.85 L26.75 39.85 28.8 37.85 29.9 36.25 29.9 36.3 31.5 33.45 32.05 32.55 33.95 35.7 35.15 37.55 36.45 39.1 36.45 39.15 38.2 40.25 39.9 40.5 Q41.2 40.5 42.25 39.85 L42.2 39.85 Q43.05 39.3 43.6 38.4 44.5 36.8 44.5 34.4 44.5 32.25 44 30.35 43.4 28.3 42.35 26.7 41.3 25.1 40.05 24.35 38.7 23.5 37.2 23.5 M35.65 27.15 L35.7 27.15 Q36.35 26.55 37.1 26.55 37.75 26.55 38.45 27 L38.45 27.05 39.65 28.35 Q40.4 29.5 40.8 31.2 L40.85 31.25 Q41.2 32.8 41.2 34.5 L40.9 36.3 Q40.6 36.9 39.9 36.9 L39.35 36.75 39.3 36.75 38.6 36.1 35.85 31.75 35.2 30.75 34.1 29 34.1 28.95 Q34.95 27.7 35.65 27.15 M56 32 Q56 42 48.95 48.95 42 56 32 56 22.05 56 15 48.95 8 42 8 32 8 22.05 15 15 22.05 8 32 8 42 8 48.95 15 56 22.05 56 32 M26.9 27.1 Q27.55 27.1 28.2 27.55 L29.2 28.4 30.2 29.65 29.35 30.95 28 33.1 26.55 35.3 26.55 35.25 25.25 36.7 24.45 36.9 23.95 36.8 23.95 36.75 23.5 36.35 23.25 35.65 23.1 34.55 Q23.1 32.9 23.55 31.4 23.95 29.8 24.7 28.75 25.7 27.15 26.9 27.1"/>
  </g>
</svg>