<svg width="64" height="64" xmlns="http://www.w3.org/2000/svg" xmlns:xlink="http://www.w3.org/1999/xlink">
  <defs/>
  <g>
    <path stroke="none" fill="#FFFFFF" d="M32 8 Q40.3 8 46.15 13.85 52 19.7 52 28 L52 36 Q52 44.3 46.15 50.15 40.3 56 32 56 23.7 56 17.85 50.15 12 44.3 12 36 L12 28 Q12 19.7 17.85 13.85 23.7 8 32 8 M49 28 Q49 20.95 44.05 16 39.05 11 32 11 24.95 11 20 16 15 20.95 15 28 L15 36 Q15 43.05 20 48.05 24.95 53 32 53 39.05 53 44.05 48.05 49 43.05 49 36 L49 28 M46 31 L46 34 Q45.45 35.75 44.1 37.1 42.2 39 39.5 39 36.8 39 34.9 37.1 33 35.2 33 32.5 33 29.8 34.9 27.9 36.8 26 39.5 26 41.85 26 43.6 27.45 L41.45 29.6 Q40.6 29 39.5 29 38.05 29 37.05 30.05 36 31.05 36 32.5 36 33.95 37.05 35 38.05 36 39.5 36 40.95 36 42 35 L42.7 34 40 34 40 31 46 31 M26 36 L23 36 23 39 20 39 20 26 26 26 Q28.05 26 29.5 27.45 31 28.95 31 31 31 33.05 29.5 34.5 L31 39 28 39 27 36 27 35.9 26 36 M23 33 L26.05 33 Q26.85 33 27.4 32.4 28 31.85 28 31 28 30.15 27.4 29.55 26.85 29 26 29 L23 29 23 33"/>
  </g>
</svg>