<svg width="64" height="64" xmlns="http://www.w3.org/2000/svg" xmlns:xlink="http://www.w3.org/1999/xlink">
  <defs/>
  <g>
    <path stroke="none" fill="#FFFFFF" d="M56 32 Q56 42 48.95 48.95 42 56 32 56 22.05 56 15 48.95 8 42 8 32 8 22.05 15 15 22.05 8 32 8 42 8 48.95 15 56 22.05 56 32 M42.1 25.8 Q40.75 24.7 38.95 24.25 L37 24 35.5 24 28.45 24 26.95 24 25 24.25 Q23.25 24.7 21.9 25.8 20.5 26.9 19.8 28.55 19 30.2 19 32 19 33.8 19.8 35.45 20.5 37.05 21.9 38.2 23.25 39.3 25.05 39.75 L27 40 28.45 40 35.55 40 37 40 38.95 39.75 Q40.7 39.3 42.1 38.2 43.45 37.05 44.2 35.45 45 33.8 45 32 45 30.2 44.2 28.55 43.45 26.9 42.1 25.8 M38.65 34.15 Q38.15 34.5 37.5 34.6 L36.9 34.65 36.25 34.65 27.75 34.65 27.1 34.65 26.5 34.6 25.35 34.15 24.5 33.2 24.25 32 Q24.25 31.35 24.5 30.8 24.8 30.2 25.35 29.85 25.85 29.45 26.5 29.4 L27.1 29.35 27.75 29.35 36.25 29.35 36.9 29.35 37.5 29.4 Q38.15 29.45 38.65 29.85 L39.45 30.8 39.75 32 39.45 33.2 38.65 34.15"/>
  </g>
</svg>