<svg width="64" height="64" xmlns="http://www.w3.org/2000/svg" xmlns:xlink="http://www.w3.org/1999/xlink">
  <defs/>
  <g>
    <path stroke="none" fill="#FFFFFF" d="M45 31 L39 31 39 34 41.7 34 41 35 Q39.95 36 38.5 36 37.05 36 36.05 35 35 33.95 35 32.5 35 31.05 36.05 30.05 37.05 29 38.5 29 39.6 29 40.45 29.6 L42.6 27.45 Q40.85 26 38.5 26 35.8 26 33.9 27.9 32 29.8 32 32.5 32 35.2 33.9 37.1 35.8 39 38.5 39 41.2 39 43.1 37.1 44.45 35.75 45 34 L45 31 M32 8 Q40.3 8 46.15 13.85 52 19.7 52 28 L52 36 Q52 44.3 46.15 50.15 40.3 56 32 56 23.7 56 17.85 50.15 12 44.3 12 36 L12 28 Q12 19.7 17.85 13.85 23.7 8 32 8 M24 36 L24 26 21 26 21 39 30 39 30 36 24 36"/>
  </g>
</svg>