<svg width="64" height="64" xmlns="http://www.w3.org/2000/svg" xmlns:xlink="http://www.w3.org/1999/xlink">
  <defs/>
  <g>
    <path stroke="none" fill="#FFFFFF" d="M53 32 Q53 26.65 49.2 22.85 45.35 19 40 19 L24 19 Q18.65 19 14.85 22.85 11 26.65 11 32 11 37.35 14.85 41.2 18.65 45 24 45 L40 45 Q45.35 45 49.2 41.2 53 37.35 53 32 M24 16 L40 16 Q46.6 16 51.3 20.7 56 25.4 56 32 56 38.6 51.3 43.3 46.6 48 40 48 L24 48 Q17.4 48 12.7 43.3 8 38.6 8 32 8 25.4 12.7 20.7 17.4 16 24 16 M44 26 L44 29 40 29 40 39 37 39 37 29 33 29 33 26 44 26 M26 36 L23 36 23 39 20 39 20 26 26 26 Q28.05 26 29.5 27.45 31 28.95 31 31 31 33.05 29.5 34.5 L31 39 28 39 27 36 27 35.9 26 36 M23 33 L26.05 33 Q26.85 33 27.4 32.4 28 31.85 28 31 28 30.15 27.4 29.55 26.85 29 26 29 L23 29 23 33"/>
  </g>
</svg>