<svg width="64" height="64" xmlns="http://www.w3.org/2000/svg" xmlns:xlink="http://www.w3.org/1999/xlink">
  <defs/>
  <g>
    <path stroke="none" fill="#FFFFFF" d="M24 16 L40 16 Q46.6 16 51.3 20.7 56 25.4 56 32 56 38.6 51.3 43.3 46.6 48 40 48 L24 48 Q17.4 48 12.7 43.3 8 38.6 8 32 8 25.4 12.7 20.7 17.4 16 24 16 M44 26 L33 26 33 29 37 29 37 39 40 39 40 29 44 29 44 26 M23 33 L23 29 26 29 Q26.85 29 27.4 29.55 28 30.15 28 31 28 31.85 27.4 32.4 26.85 33 26.05 33 L23 33 M26 36 L27 35.9 27 36 28 39 31 39 29.5 34.5 Q31 33.05 31 31 31 28.95 29.5 27.45 28.05 26 26 26 L20 26 20 39 23 39 23 36 26 36"/>
  </g>
</svg>