<svg width="64" height="64" xmlns="http://www.w3.org/2000/svg" xmlns:xlink="http://www.w3.org/1999/xlink">
  <defs/>
  <g>
    <path stroke="none" fill="#FFFFFF" d="M46 31 L40 31 40 34 42.7 34 42 35 Q40.95 36 39.5 36 38.05 36 37.05 35 36 33.95 36 32.5 36 31.05 37.05 30.05 38.05 29 39.5 29 40.6 29 41.45 29.6 L43.6 27.45 Q41.85 26 39.5 26 36.8 26 34.9 27.9 33 29.8 33 32.5 33 35.2 34.9 37.1 36.8 39 39.5 39 42.2 39 44.1 37.1 45.45 35.75 46 34 L46 31 M32 8 Q40.3 8 46.15 13.85 52 19.7 52 28 L52 36 Q52 44.3 46.15 50.15 40.3 56 32 56 23.7 56 17.85 50.15 12 44.3 12 36 L12 28 Q12 19.7 17.85 13.85 23.7 8 32 8 M23 33 L23 29 26 29 Q26.85 29 27.4 29.55 28 30.15 28 31 28 31.85 27.4 32.4 26.85 33 26.05 33 L23 33 M26 36 L27 35.9 27 36 28 39 31 39 29.5 34.5 Q31 33.05 31 31 31 28.95 29.5 27.45 28.05 26 26 26 L20 26 20 39 23 39 23 36 26 36"/>
  </g>
</svg>