<svg width="64" height="64" xmlns="http://www.w3.org/2000/svg" xmlns:xlink="http://www.w3.org/1999/xlink">
  <defs/>
  <g>
    <path stroke="none" fill="#FFFFFF" d="M56 32 Q56 42 48.95 48.95 42 56 32 56 22.05 56 15 48.95 8 42 8 32 8 22.05 15 15 22.05 8 32 8 42 8 48.95 15 56 22.05 56 32 M38.65 34.15 L39.45 33.2 39.75 32 39.45 30.8 38.65 29.85 Q38.15 29.45 37.5 29.4 L36.9 29.35 36.25 29.35 27.75 29.35 27.1 29.35 26.5 29.4 Q25.85 29.45 25.35 29.85 24.8 30.2 24.5 30.8 24.25 31.35 24.25 32 L24.5 33.2 25.35 34.15 26.5 34.6 27.1 34.65 27.75 34.65 36.25 34.65 36.9 34.65 37.5 34.6 Q38.15 34.5 38.65 34.15 M42.1 25.8 Q43.45 26.9 44.2 28.55 45 30.2 45 32 45 33.8 44.2 35.45 43.45 37.05 42.1 38.2 40.7 39.3 38.95 39.75 L37 40 35.55 40 28.45 40 27 40 25.05 39.75 Q23.25 39.3 21.9 38.2 20.5 37.05 19.8 35.45 19 33.8 19 32 19 30.2 19.8 28.55 20.5 26.9 21.9 25.8 23.25 24.7 25 24.25 L26.95 24 28.45 24 35.5 24 37 24 38.95 24.25 Q40.75 24.7 42.1 25.8 M46.85 17.15 Q40.75 11 32 11 23.3 11 17.15 17.15 11 23.3 11 32 11 40.75 17.15 46.85 23.3 53 32 53 40.75 53 46.85 46.85 53 40.75 53 32 53 23.3 46.85 17.15"/>
  </g>
</svg>