<svg width="64" height="64" xmlns="http://www.w3.org/2000/svg" xmlns:xlink="http://www.w3.org/1999/xlink">
  <defs/>
  <g>
    <path stroke="none" fill="#FFFFFF" d="M32 8 Q40.3 8 46.15 13.85 52 19.7 52 28 L52 36 Q52 44.3 46.15 50.15 40.3 56 32 56 23.7 56 17.85 50.15 12 44.3 12 36 L12 28 Q12 19.7 17.85 13.85 23.7 8 32 8 M20 16 Q15 20.95 15 28 L15 36 Q15 43.05 20 48.05 24.95 53 32 53 39.05 53 44.05 48.05 49 43.05 49 36 L49 28 Q49 20.95 44.05 16 39.05 11 32 11 24.95 11 20 16 M45 31 L45 34 Q44.45 35.75 43.1 37.1 41.2 39 38.5 39 35.8 39 33.9 37.1 32 35.2 32 32.5 32 29.8 33.9 27.9 35.8 26 38.5 26 40.85 26 42.6 27.45 L40.45 29.6 Q39.6 29 38.5 29 37.05 29 36.05 30.05 35 31.05 35 32.5 35 33.95 36.05 35 37.05 36 38.5 36 39.95 36 41 35 L41.7 34 39 34 39 31 45 31 M24 36 L30 36 30 39 21 39 21 26 24 26 24 36"/>
  </g>
</svg>