<svg width="48" height="48" xmlns="http://www.w3.org/2000/svg" xmlns:xlink="http://www.w3.org/1999/xlink">
  <defs/>
  <g>
    <path stroke="none" fill="#FFFFFF" d="M10.55 34.45 L10.3 34.2 Q5 28.7 5 21 5 19.75 5.9 18.9 6.75 18 8 18 9.25 18 10.15 18.9 11 19.75 11 21 11 26.4 14.8 30.2 L16.85 31.9 Q19.95 33.95 23.95 34 L24.1 34 Q28.1 34 31.2 31.9 32.25 31.2 33.2 30.2 37 26.4 37 21 37 19.75 37.9 18.9 38.75 18 40 18 41.25 18 42.15 18.9 43 19.75 43 21 43 27.2 39.6 31.9 L37.45 34.4 37.4 34.45 Q33.7 38.15 29 39.4 L29 42 31.8 42 Q33.05 42 33.95 42.9 34.8 43.75 34.8 45 34.8 46.25 33.95 47.15 33.05 48 31.8 48 L15.8 48 Q14.55 48 13.7 47.15 12.8 46.25 12.8 45 12.8 43.75 13.7 42.9 14.55 42 15.8 42 L19 42 19 39.4 Q14.25 38.15 10.55 34.45 M15 21 L15 8.95 Q15 5.35 17.4 2.85 L17.6 2.65 Q20.25 0 24 0 27.8 0 30.4 2.6 33 5.2 33 8.95 L33 21 Q33 24.75 30.4 27.4 27.75 30 24 30 20.25 30 17.6 27.4 L17.45 27.25 Q15 24.65 15 21"/>
  </g>
</svg>