<svg width="48" height="48" xmlns="http://www.w3.org/2000/svg" xmlns:xlink="http://www.w3.org/1999/xlink">
  <defs/>
  <g>
    <path stroke="none" fill="#FFFFFF" d="M33.7 17.45 L33.75 17.5 33.75 17.55 34.6 20.1 34.65 20.1 34.65 20.05 Q35.25 19.15 35.7 16.95 L35.75 16.6 Q36 15.85 36.7 15.35 L36.8 15.25 37 15.15 Q37.5 14.85 38.1 14.9 L38.75 15 39.15 15.1 40 15.7 40.2 15.9 Q46.95 24.25 45.85 32.55 45.1 38.75 40.1 43.85 L35.55 47.65 Q33.15 48.85 33.6 46.15 34.15 42.6 30.9 38.85 27.3 34.65 27.8 29.55 L27.8 29.05 27.6 28.65 27.5 28.5 27.05 28.2 26.45 28.1 Q26.25 28.15 26.1 28.3 L25.95 28.3 Q20.6 31.55 17.8 36.2 14.65 41.25 15.4 46.15 15.85 48.55 12.85 47.8 4.05 44.5 2.25 35.65 L2.2 35.45 2.2 35.4 Q1.2 27.65 8.2 20.65 16.05 12.75 15.75 2.6 15.65 2.1 15.8 1.65 L16.25 0.85 16.5 0.6 Q16.95 0.2 17.55 0.1 L17.65 0.05 18.55 0.05 Q19 0.1 19.4 0.4 L19.5 0.45 19.6 0.5 Q29.65 7.65 33.7 17.45"/>
  </g>
</svg>