<svg width="48" height="48" xmlns="http://www.w3.org/2000/svg" xmlns:xlink="http://www.w3.org/1999/xlink">
  <defs/>
  <g>
    <path stroke="none" fill="#FFFFFF" d="M14.35 2.7 L24 14.05 33.8 2.7 34.5 2.2 35.3 2 37.5 2 Q38.25 2 38.85 2.5 L43.35 6.5 43.85 7.2 44 8 44 10 Q44 10.75 43.55 11.3 L32.65 24 43.55 36.7 Q44 37.25 44 38 L44 40 43.85 40.85 43.35 41.5 38.85 45.5 Q38.25 46 37.5 46 L35.3 46 34.5 45.85 33.8 45.3 24.05 34.05 14.35 45.3 13.65 45.85 12.8 46 10.5 46 Q9.75 46 9.2 45.5 L4.7 41.5 4.2 40.85 4 40 4 38 Q4 37.25 4.5 36.7 L15.35 24 4.5 11.3 Q4 10.75 4 10 L4 8 4.2 7.2 4.7 6.5 9.2 2.5 Q9.75 2 10.5 2 L12.8 2 13.65 2.2 14.35 2.7"/>
  </g>
</svg>