<svg width="48" height="48" xmlns="http://www.w3.org/2000/svg" xmlns:xlink="http://www.w3.org/1999/xlink">
  <defs/>
  <g>
    <path stroke="none" fill="#FFFFFF" d="M46.8 9.9 L32.6 24 46.8 38.2 Q48 39.4 48 41.2 48 43 46.8 44.3 L44.3 46.8 Q43 48 41.2 48 39.4 48 38.2 46.8 L24 32.6 9.9 46.8 Q8.6 48 6.8 48 4.9 48 3.7 46.8 L1.3 44.3 Q0 43 0 41.2 0 39.4 1.3 38.2 L15.4 24 1.3 9.9 Q0 8.6 0 6.8 0 4.9 1.3 3.7 L3.7 1.3 Q4.9 0 6.8 0 8.6 0 9.9 1.3 L24 15.4 38.2 1.3 Q39.4 0 41.2 0 43 0 44.3 1.3 L46.8 3.7 Q48 4.9 48 6.8 48 8.6 46.8 9.9"/>
  </g>
</svg>