<svg width="48" height="48" xmlns="http://www.w3.org/2000/svg" xmlns:xlink="http://www.w3.org/1999/xlink">
  <defs/>
  <g>
    <path stroke="none" fill="#FFFFFF" d="M40 20 Q40 23.9 38.7 27.3 L45.7 34.3 Q48.1 36.7 48 40 48.1 43.3 45.7 45.7 43.4 48 40 48 36.8 48.1 34.4 45.7 L27.4 38.7 Q24 40 20 40 11.7 40 5.8 34.1 0 28.3 0 20 0 11.7 5.8 5.8 11.7 0 20 0 28.3 0 34.1 5.8 40 11.7 40 20 M28.5 11.5 Q25 8 20 8 15 8 11.5 11.4 L11.4 11.5 Q8 15 8 20 8 25 11.5 28.5 15 32 20 32 L20.8 32 Q25.2 31.7 28.4 28.5 L28.5 28.4 Q31.8 25.1 32 20.5 L32 20 Q32 15 28.5 11.5"/>
  </g>
</svg>