<svg width="48" height="48" xmlns="http://www.w3.org/2000/svg" xmlns:xlink="http://www.w3.org/1999/xlink">
  <defs/>
  <g>
    <path stroke="none" fill="#FFFFFF" d="M39.75 25.05 L24 14.55 8.3 25.05 Q7.6 25.5 6.8 25.35 L5.55 24.5 1.1 17.8 Q0.65 17.1 0.85 16.3 1 15.5 1.7 15.05 L22.9 0.9 Q23.4 0.55 24 0.55 24.6 0.55 25.1 0.9 L46.35 15.05 Q47 15.5 47.2 16.3 47.35 17.1 46.9 17.8 L42.5 24.5 Q42.05 25.15 41.25 25.35 40.4 25.5 39.75 25.05 M39.75 47.05 L24 36.55 8.3 47.05 Q7.6 47.5 6.8 47.35 L5.55 46.5 1.1 39.8 Q0.65 39.1 0.85 38.3 1 37.5 1.7 37.05 L22.9 22.9 Q23.4 22.55 24 22.55 24.6 22.55 25.1 22.9 L46.35 37.05 Q47 37.5 47.2 38.3 47.35 39.1 46.9 39.8 L42.5 46.5 Q42.05 47.15 41.25 47.35 40.4 47.5 39.75 47.05"/>
  </g>
</svg>