<svg width="48" height="48" xmlns="http://www.w3.org/2000/svg" xmlns:xlink="http://www.w3.org/1999/xlink">
  <defs/>
  <g>
    <path stroke="none" fill="#FFFFFF" d="M24.5 12.8 Q22.3 12.8 21.2 13.6 L21.1 13.8 Q20.2 14.6 20.2 16.2 20.2 17.5 21.1 18.3 L21.3 18.4 Q22.6 19.5 26.1 20.6 30.6 22 32.7 23.3 L33 23.5 Q35.2 24.9 36.4 26.9 L36.7 27.2 Q38 29.5 38 32.5 38 37.3 34.7 40.3 32.2 42.5 27.9 43.3 L27.9 44 Q27.9 48 23.9 48 21.9 48 21 47 20 46 20 44 L20 43.3 Q15.6 42.5 13.1 40.1 L13 40 Q11.5 38.6 10.5 36.1 L10.4 36 Q10 35.1 10 33.7 10 32 11 30.9 L11.2 30.6 11.5 30.4 Q12.5 29.3 14.3 29.3 16.8 29.3 18.1 31.5 L18.2 31.7 18.3 31.8 18.6 32.6 18.6 32.7 18.7 33 Q18.8 34 19.6 34.8 21.1 36 23.9 36 26.5 36 27.9 34.9 L27.9 35 28.2 34.8 Q29.2 33.9 29.2 32.6 29.2 31.3 28.3 30.6 L28.1 30.4 Q26.8 29.2 23.7 28.3 L23.4 28.3 Q17.6 26.6 14.8 24 L14.5 23.9 Q11.4 20.9 11.4 16.2 11.4 11.5 14.5 8.6 16.7 6.3 20.5 5.5 L20.5 4 Q20.5 0 24.5 0 26.1 0 27.3 1.2 28.5 2.4 28.5 4 L28.5 5.4 Q32.4 6.4 34.7 9.1 L34.7 9 Q36.8 11.2 37.3 14.6 L37.3 14.7 37.4 15.5 37.4 15.7 Q37.4 20 33.1 20 30 20.1 28.9 16.7 L28.5 15.4 27.9 14.3 Q27.5 14.2 27.4 13.8 26.3 12.8 24.5 12.8"/>
  </g>
</svg>