<svg width="48" height="48" xmlns="http://www.w3.org/2000/svg" xmlns:xlink="http://www.w3.org/1999/xlink">
  <defs/>
  <g>
    <path stroke="none" fill="#FFFFFF" d="M34.3 8.15 Q39.4 8.85 43.3 12.7 L43.3 12.75 Q45.7 15.1 46.9 18 48 20.75 48 24 48 30.6 43.3 35.3 39.45 39.15 34.3 39.85 L33.15 39.7 32.35 38.95 Q32 38.45 32 37.9 L32 33.85 Q32 33.1 32.45 32.55 32.9 32 33.65 31.85 35.9 31.4 37.7 29.75 L37.75 29.7 Q40 27.3 40 24 40 20.7 37.75 18.4 L37.7 18.4 37.3 18 Q35.65 16.55 33.65 16.15 32.9 16 32.45 15.45 32 14.9 32 14.2 L32 10.15 Q32 9.55 32.35 9.05 32.65 8.55 33.15 8.3 L34.3 8.15 M2.6 18 Q4.3 16.6 6.2 16.3 L6.4 16.1 14.9 2 Q15.4 1 16.4 0.5 17.3 0 18.3 0 L20 0 Q21.7 0 22.9 1.2 24 2.3 24 4 L24 18.3 24.4 18.5 26.3 19.9 26.2 19.7 Q28 21.4 28 23.9 L28 24 Q28 26.5 26.2 28.2 L25.9 28.5 24.2 29.7 24.1 29.7 24 29.8 24 44 Q24 45.7 22.9 46.9 21.7 48 20 48 L18.3 48 Q17.3 48 16.4 47.5 15.4 47 14.9 46.1 L6.4 31.9 6.2 31.9 Q4.1 31.3 2.4 29.6 L2.3 29.6 Q0 27.3 0 24 0 20.9 2.1 18.6 L2.3 18.3 2.6 18"/>
  </g>
</svg>