<svg width="48" height="48" xmlns="http://www.w3.org/2000/svg" xmlns:xlink="http://www.w3.org/1999/xlink">
  <defs/>
  <g>
    <path stroke="none" fill="#FFFFFF" d="M31.3 33.6 Q33.4 33.6 34.7 32.2 36.2 30.8 36.2 28.8 36.2 26.8 34.7 25.4 33.4 24 31.3 24 29.2 24 27.7 25.4 26.4 26.7 26.4 28.8 26.4 30.8 27.7 32.2 29.2 33.6 31.3 33.6 M16.6 33.6 Q18.7 33.6 20 32.2 21.5 30.8 21.5 28.8 21.5 26.8 20 25.4 18.7 24 16.6 24 14.5 24 13.1 25.4 11.7 26.7 11.7 28.8 11.7 30.8 13.1 32.2 14.5 33.6 16.6 33.6 M24 0 Q33 0 39.5 6 46 12 46 20.4 46 25.2 43.5 29.7 L43.5 33.6 Q43.5 35.6 42 37 40.7 38.4 38.6 38.4 L33.7 38.4 33.7 43.2 Q33.7 45.2 32.3 46.6 30.9 48 28.8 48 L19.1 48 Q17 48 15.5 46.6 14.2 45.2 14.2 43.2 L14.2 38.4 9.3 38.4 Q7.2 38.4 5.7 37 4.4 35.6 4.4 33.6 L4.4 29.7 Q2 25.5 2 20.4 2 12 8.4 6 14.8 0 24 0"/>
  </g>
</svg>