<svg width="48" height="48" xmlns="http://www.w3.org/2000/svg" xmlns:xlink="http://www.w3.org/1999/xlink">
  <defs/>
  <g>
    <path stroke="none" fill="#FFFFFF" d="M34.15 44.75 L31.45 38 16.55 38 13.85 44.75 13.15 45.65 12 46 4 46 Q3.35 46 2.8 45.6 L2.1 44.55 Q1.9 43.9 2.15 43.25 L18.15 3.25 Q18.35 2.7 18.9 2.35 19.4 2 20 2 L28 2 Q28.6 2 29.15 2.35 L29.85 3.25 45.85 43.25 Q46.1 43.9 45.95 44.55 L45.2 45.6 Q44.65 46 44 46 L36 46 34.9 45.65 Q34.35 45.3 34.15 44.75 M24 16.7 L19.9 27 28.15 27 24 16.7"/>
  </g>
</svg>