<svg width="48" height="48" xmlns="http://www.w3.org/2000/svg" xmlns:xlink="http://www.w3.org/1999/xlink">
  <defs/>
  <g>
    <path stroke="none" fill="#FFFFFF" d="M14.05 0.3 Q17.45 -0.4 20.95 0.25 L21.15 0.25 Q26.2 1.2 30.05 5.1 L30.1 5.15 30.2 5.25 Q33.7 8.45 35.05 12.8 L35.05 12.85 35.1 12.95 Q36.2 17.85 33.8 21.55 L33.55 21.85 45.45 33.55 45.55 33.65 45.65 33.75 Q47.6 35.6 47.9 38.3 L48 39.55 Q48 43.1 45.55 45.5 L45.5 45.55 45.45 45.6 45.4 45.65 Q43.05 48 39.35 48 35.95 48 33.4 45.65 L33.3 45.55 21.55 33.7 21.5 33.7 Q16.95 36.15 11.9 34.3 L11.8 34.25 Q8.3 33 5.55 30.45 L5.25 30.2 Q-0.6 24 0.05 16.35 L0.25 14.8 Q0.35 14.1 0.9 13.6 1.45 13.15 2.15 13.2 2.85 13.25 3.4 13.75 L11.4 21.85 Q12.85 23.25 14.25 23.3 L14.35 23.3 Q15.75 23.25 17.05 21.85 L21.5 17.3 Q23.45 15.3 22.6 13.1 L22.5 12.9 Q22.15 12.2 21.45 11.45 L13.15 3.5 Q12.6 2.95 12.55 2.25 12.5 1.55 12.95 1 13.35 0.4 14.05 0.3 M43 38.95 Q43 37.3 41.8 36.1 40.7 34.95 39 34.95 37.35 34.95 36.15 36.1 35 37.3 35 38.95 35 40.65 36.15 41.75 37.35 42.95 39 42.95 40.7 42.95 41.8 41.75 43 40.65 43 38.95"/>
  </g>
</svg>