<svg width="48" height="48" xmlns="http://www.w3.org/2000/svg" xmlns:xlink="http://www.w3.org/1999/xlink">
  <defs/>
  <g>
    <path stroke="none" fill="#FFFFFF" d="M48 24 Q48 27.3 47.2 30.3 L47.1 30.9 Q45.4 36.5 41 41 L37.5 43.9 Q34.2 46.2 30.3 47.2 27.3 48 24 48 20.7 48 17.7 47.2 11.8 45.7 7.1 41 2.4 36.3 0.8 30.3 0 27.3 0 24 L0.1 22 0.3 20 Q1.4 13.2 6.3 7.9 L7.1 7.1 Q14.1 0 24 0 33.9 0 41 7.1 L41.8 7.9 Q46.6 13.2 47.7 20 L48 22 48 24 M35.4 35.3 Q37.4 33.3 38.5 30.9 39.6 28.7 39.9 26.2 L38 26 Q33 26 29.5 29.5 26 33 26 38 L26.2 39.9 Q30 39.4 33.2 37.2 L35.3 35.4 35.4 35.3 M12.8 35.4 Q16.6 39.2 21.9 39.9 L22 38 Q22 33 18.5 29.5 15 26 10 26 L8.2 26.2 Q8.8 31.4 12.8 35.4 M26 26 Q26 25.1 25.4 24.5 24.8 24 24 24 23.1 24 22.5 24.5 22 25.1 22 26 22 26.8 22.5 27.4 23.1 28 24 28 24.8 28 25.4 27.4 26 26.8 26 26 M35.4 12.8 Q30.6 8 24 8 17.4 8 12.8 12.7 L12.7 12.8 Q9.5 16 8.5 20 L39.6 20 Q38.5 15.9 35.4 12.8"/>
  </g>
</svg>