<svg width="48" height="48" xmlns="http://www.w3.org/2000/svg" xmlns:xlink="http://www.w3.org/1999/xlink">
  <defs>
    <linearGradient gradientUnits="userSpaceOnUse" x1="-819.2" x2="819.2" spreadMethod="pad" gradientTransform="matrix(0.00885009765625 0.005096435546875 -0.0124664306640625 0.02166748046875 45.15 -2.25)" id="gradient0">
      <stop offset="0" stop-color="#FFFFFF"/>
      <stop offset="1" stop-color="#D8E6E9"/>
    </linearGradient>
  </defs>
  <g>
    <path stroke="none" fill="url(#gradient0)" d="M42.55 22.85 L30.65 21.9 Q30.05 19.4 28 17.4 25.15 14.55 21.2 14.55 19.2 14.55 17.45 15.25 L17.45 3.35 21.2 3 Q30 3 36.2 9.2 41.25 14.25 42.2 21 L42.25 21.25 42.55 22.85"/>
    <path stroke="none" fill="#FFFFFF" d="M42.55 22.85 L47.1 23.2 47.75 23.55 48 24.15 47.8 26.65 47.45 27.3 36.35 36.8 35.65 36.95 35 36.7 25.45 25.5 Q25.15 25.3 25.25 24.9 L25.4 22.45 Q25.45 22.05 25.75 21.75 L26.4 21.6 30.65 21.9 42.55 22.85 M17.45 15.25 Q15.8 15.95 14.45 17.35 L14.4 17.35 14.3 17.45 14.05 17.75 Q11.55 20.45 11.55 24.25 11.55 28.2 14.35 31.05 L14.4 31.1 Q15.45 32.15 16.65 32.85 17.5 33.3 17.9 34.25 18.3 35.15 18.05 36.1 L16.55 41.85 Q16.35 42.65 15.75 43.25 15.05 43.8 14.25 43.95 L12.6 43.75 Q9.1 42.15 6.2 39.3 L6.15 39.25 Q0 33 0 24.25 0 15.5 6.15 9.3 L6.2 9.2 Q11.05 4.4 17.45 3.35 L17.45 15.25"/>
  </g>
</svg>