<svg width="48" height="48" xmlns="http://www.w3.org/2000/svg" xmlns:xlink="http://www.w3.org/1999/xlink">
  <defs>
    <linearGradient gradientUnits="userSpaceOnUse" x1="-819.2" x2="819.2" spreadMethod="pad" gradientTransform="matrix(0.01446533203125 0.01446533203125 0.01446533203125 -0.01446533203125 16.7 16.9)" id="gradient0">
      <stop offset="0" stop-color="#FFFFFF"/>
      <stop offset="1" stop-color="#D8E6E9"/>
    </linearGradient>
  </defs>
  <g>
    <path stroke="none" fill="#FFFFFF" d="M33.5 22.1 L35.1 20.5 34.8 20.1 Q34.4 19.7 34.4 19.2 L34.4 18.5 Q34.4 17.7 34.8 17.1 L35 16.9 Q35.7 16.2 36.6 16.2 L42 16.2 Q44.4 16.2 44.4 18.5 L44.4 24 Q44.4 26.3 42 26.3 L41.6 26.3 Q41 26.3 40.6 26 L40.1 25.5 36.8 28.9 40.4 32.5 45.6 32.5 Q48 32.5 48 34.8 L48 45.7 Q48 48 45.6 48 L34.8 48 Q33.9 48 33.2 47.3 32.5 46.6 32.5 45.7 L32.5 40.4 28.9 36.8 25.8 39.8 25.4 40.1 25.8 40.5 Q26.3 40.9 26.3 41.6 L26.3 42.1 Q26.4 44.4 24 44.4 L18.5 44.4 Q17.7 44.4 17 43.8 L16.8 43.6 Q16.2 42.9 16.2 42.1 L16.2 36.6 Q16.2 35.8 16.8 35.2 L16.9 35 Q17.6 34.4 18.5 34.4 L19.2 34.4 19.7 34.5 Q20 34.5 20.2 34.8 L20.4 35.1 22 33.5 33.5 22.1"/>
    <path stroke="none" fill="url(#gradient0)" d="M33.5 22.1 L22 33.5 0.6 12.1 Q0 11.3 0 10.5 L0 2.3 Q0 1.3 0.6 0.6 L0.8 0.5 Q1.4 0 2.3 0 L10.4 0 Q11.3 0 12 0.5 L33.5 22.1"/>
  </g>
</svg>