<svg width="48" height="48" xmlns="http://www.w3.org/2000/svg" xmlns:xlink="http://www.w3.org/1999/xlink">
  <defs/>
  <g>
    <path stroke="none" fill="#FFFFFF" d="M33.85 6.45 L32.25 8.9 Q31.3 10.65 31.55 11.85 L31.8 12.6 Q32.25 13.6 34 14.25 L34.2 14.3 Q39.85 16.45 46.1 20.45 47.3 21.25 47.8 22.65 48.25 24 47.8 25.35 47.3 26.75 46.1 27.5 39.85 31.5 34.2 33.7 L34 33.8 Q32.25 34.4 31.8 35.45 L31.55 36.15 Q31.3 37.35 32.25 39.1 L33.85 41.6 Q34.85 43 34.45 44.7 34.1 46.35 32.6 47.3 31.1 48.25 29.45 47.95 20.15 46.05 12.8 42.35 L12.75 42.35 Q9.35 40.65 5.3 36.7 L5.25 36.65 5.15 36.5 Q0 31.3 0 24 0 16.7 5.15 11.55 L5.25 11.4 5.3 11.3 Q9.35 7.35 12.75 5.7 L12.8 5.65 Q20.15 1.95 29.45 0.1 31.1 -0.25 32.6 0.7 34.1 1.65 34.45 3.3 34.85 5 33.85 6.45"/>
  </g>
</svg>