<svg width="48" height="48" xmlns="http://www.w3.org/2000/svg" xmlns:xlink="http://www.w3.org/1999/xlink">
  <defs/>
  <g>
    <path stroke="none" fill="#FFFFFF" d="M47.4 36 L36.2 47.3 Q35.5 48 34.6 48 33.5 48 32.8 47.3 32 46.6 32 45.6 L32 34.5 Q32 33.3 32.8 32.8 33.5 32 34.6 32 L45.6 32 Q46.7 32 47.4 32.8 48 33.3 48 34.5 48 35.4 47.4 36 M47.4 12 Q48 12.6 48 13.5 48 14.7 47.4 15.2 46.7 16 45.6 16 L34.6 16 Q33.5 16 32.8 15.2 32 14.7 32 13.5 L32 2.4 Q32 1.4 32.8 0.7 33.5 0 34.6 0 35.5 0 36.2 0.7 L47.4 12 M0.6 12 L11.8 0.7 Q12.5 0 13.4 0 14.5 0 15.2 0.7 16 1.4 16 2.4 L16 13.5 Q16 14.7 15.2 15.2 14.5 16 13.4 16 L2.4 16 Q1.3 16 0.6 15.2 0 14.7 0 13.5 0 12.6 0.6 12 M0.6 36 Q0 35.4 0 34.5 0 33.3 0.6 32.8 1.3 32 2.4 32 L13.4 32 Q14.5 32 15.2 32.8 16 33.3 16 34.5 L16 45.6 Q16 46.6 15.2 47.3 14.5 48 13.4 48 12.5 48 11.8 47.3 L0.6 36"/>
  </g>
</svg>