<svg width="48" height="48" xmlns="http://www.w3.org/2000/svg" xmlns:xlink="http://www.w3.org/1999/xlink">
  <defs/>
  <g>
    <path stroke="none" fill="#FFFFFF" d="M21.45 14.65 L21.45 35.35 Q21.45 40.55 17.65 44.05 L17.55 44.25 Q14.45 47.45 10.25 47.95 L10.15 47.95 Q5.45 48.3 2.55 45.25 -0.45 42.35 0.05 37.65 0.35 33.15 3.55 29.85 L3.65 29.75 Q6.55 26.85 10.15 26.15 L10.25 26.15 13.45 26.05 13.45 5.25 Q13.45 0 18.55 0 L42.7 0 Q48 0 48 5.25 L48 28.85 48 29.15 Q47.5 34.15 44.5 37.35 L44.4 37.35 Q41.1 40.85 36.75 41.25 L36.65 41.25 Q32.05 41.65 29.05 38.45 26.15 35.55 26.55 30.65 27.05 26.35 30.15 23.05 33.05 19.95 36.75 19.45 L36.65 19.45 39.8 19.15 39.8 14.65 21.45 14.65"/>
  </g>
</svg>