<svg width="48" height="48" xmlns="http://www.w3.org/2000/svg" xmlns:xlink="http://www.w3.org/1999/xlink">
  <defs/>
  <g>
    <path stroke="none" fill="#FFFFFF" d="M18.6 0 L42.7 0 Q48 0 48 5.25 L48 28.85 48 29.15 Q47.6 32.75 46 35.35 L32.1 21.45 Q34.2 19.75 36.8 19.45 L36.7 19.45 39.8 19.15 39.8 14.65 25.3 14.65 13.8 3.15 Q14.7 0 18.6 0 M47.1 42.15 Q48 43.15 48 44.55 48 46.05 47.1 47.05 46.1 47.95 44.6 47.95 43.2 47.95 42.2 47.05 L1.1 5.95 Q0 4.85 0 3.45 0 1.95 1.1 1.05 2 0 3.5 0 4.9 0 6 1.05 L47.1 42.15 M21.5 35.35 Q21.5 40.55 17.7 44.05 L17.6 44.25 Q14.5 47.45 10.3 47.95 L10.2 47.95 Q5.5 48.3 2.6 45.25 -0.4 42.35 0.1 37.65 0.4 33.15 3.6 29.85 L3.7 29.75 Q6.6 26.85 10.2 26.15 L10.3 26.15 13.5 26.05 13.5 24.05 21.5 32.05 21.5 35.35"/>
  </g>
</svg>