<svg width="48" height="48" xmlns="http://www.w3.org/2000/svg" xmlns:xlink="http://www.w3.org/1999/xlink">
  <defs/>
  <g>
    <path stroke="none" fill="#FFFFFF" d="M7.45 0 L40.55 0 Q44.3 0 45.8 2.55 47.35 4.55 46.9 8.6 L43.3 42.1 Q42.65 48 36.95 48 L11.1 48 Q5.3 48 4.65 42.1 L1.05 8.6 Q0.7 4.55 2.2 2.55 3.7 0 7.45 0 M27 39 Q27 37.75 26.1 36.85 25.25 36 24 36 22.75 36 21.85 36.85 21 37.75 21 39 21 40.25 21.85 41.1 22.75 42 24 42 25.25 42 26.1 41.1 27 40.25 27 39 M27 29 Q27 27.75 26.1 26.85 25.25 26 24 26 22.75 26 21.85 26.85 21 27.75 21 29 21 30.25 21.85 31.1 22.75 32 24 32 25.25 32 26.1 31.1 27 30.25 27 29 M37 39 Q37 37.75 36.1 36.85 35.25 36 34 36 32.75 36 31.85 36.85 31 37.75 31 39 31 40.25 31.85 41.1 32.75 42 34 42 35.25 42 36.1 41.1 37 40.25 37 39 M37 29 Q37 27.75 36.1 26.85 35.25 26 34 26 32.75 26 31.85 26.85 31 27.75 31 29 31 30.25 31.85 31.1 32.75 32 34 32 35.25 32 36.1 31.1 37 30.25 37 29 M17 39 Q17 37.75 16.1 36.85 15.25 36 14 36 12.75 36 11.85 36.85 11 37.75 11 39 11 40.25 11.85 41.1 12.75 42 14 42 15.25 42 16.1 41.1 17 40.25 17 39 M17 29 Q17 27.75 16.1 26.85 15.25 26 14 26 12.75 26 11.85 26.85 11 27.75 11 29 11 30.25 11.85 31.1 12.75 32 14 32 15.25 32 16.1 31.1 17 30.25 17 29 M17 19 Q17 17.75 16.1 16.85 15.25 16 14 16 12.75 16 11.85 16.85 11 17.75 11 19 11 20.25 11.85 21.1 12.75 22 14 22 15.25 22 16.1 21.1 17 20.25 17 19 M37 19 Q37 17.75 36.1 16.85 35.25 16 34 16 32.75 16 31.85 16.85 31 17.75 31 19 31 20.25 31.85 21.1 32.75 22 34 22 35.25 22 36.1 21.1 37 20.25 37 19 M27 19 Q27 17.75 26.1 16.85 25.25 16 24 16 22.75 16 21.85 16.85 21 17.75 21 19 21 20.25 21.85 21.1 22.75 22 24 22 25.25 22 26.1 21.1 27 20.25 27 19"/>
  </g>
</svg>