<svg width="48" height="48" xmlns="http://www.w3.org/2000/svg" xmlns:xlink="http://www.w3.org/1999/xlink">
  <defs>
    <linearGradient gradientUnits="userSpaceOnUse" x1="-819.2" x2="819.2" spreadMethod="pad" gradientTransform="matrix(0.0093231201171875 -0.0093231201171875 0.0093231201171875 0.0093231201171875 24 24)" id="gradient0">
      <stop offset="0" stop-color="#FFFFFF"/>
      <stop offset="1" stop-color="#D8E6E9"/>
    </linearGradient>
  </defs>
  <g>
    <path stroke="none" fill="#FFFFFF" d="M36.8 36.8 Q32.6 40.95 27 41.8 L27 46 Q27 48 25 48 L22.95 48 Q21 47.95 21 46 L21 41.8 Q15.45 40.95 11.3 36.8 7.1 32.6 6.25 27 L2 27 Q0 27 0 25 L0 22.95 Q0.05 21 2 21 L6.25 21 Q7.1 15.45 11.3 11.3 15.45 7.1 21 6.25 L21 2 Q21 0.05 22.95 0 L25 0 Q27 0 27 2 L27 6.25 Q32.6 7.1 36.8 11.3 40.95 15.45 41.8 21 L46 21 Q47.95 21 48 22.95 L48 25 Q48 27 46 27 L41.8 27 Q40.95 32.6 36.8 36.8 M27 13.6 L24 13.2 21 13.6 Q18.45 14.35 16.4 16.4 14.35 18.45 13.6 21 13.2 22.4 13.2 24 13.2 25.6 13.6 27 14.35 29.55 16.4 31.6 18.45 33.65 21 34.4 L24 34.8 27 34.4 Q29.55 33.65 31.6 31.6 33.65 29.55 34.4 27 34.8 25.6 34.8 24 34.8 22.4 34.4 21 33.65 18.45 31.6 16.4 29.55 14.35 27 13.6"/>
    <path stroke="none" fill="url(#gradient0)" d="M27 13.6 L27 16.15 Q26.95 17.95 25.15 18 L22.95 18 Q21.05 17.95 21 16.15 L21 13.6 24 13.2 27 13.6 M13.6 21 L16.1 21 Q17.95 21.05 18 22.95 L18 25.15 Q17.95 26.95 16.15 27 L13.6 27 Q13.2 25.6 13.2 24 13.2 22.4 13.6 21 M21 34.4 L21 31.9 Q21.05 30.05 22.95 30 L25.15 30 Q26.95 30.05 27 31.9 L27 34.4 24 34.8 21 34.4 M34.4 27 L31.9 27 Q30.05 26.95 30 25.15 L30 22.95 Q30.05 21.05 31.9 21 L34.4 21 Q34.8 22.4 34.8 24 34.8 25.6 34.4 27"/>
  </g>
</svg>