<svg width="48" height="48" xmlns="http://www.w3.org/2000/svg" xmlns:xlink="http://www.w3.org/1999/xlink">
  <defs>
    <linearGradient gradientUnits="userSpaceOnUse" x1="-819.2" x2="819.2" spreadMethod="pad" gradientTransform="matrix(0 0.013427734375 -0.010986328125 0 24 9)" id="gradient0">
      <stop offset="0" stop-color="#FFFFFF"/>
      <stop offset="1" stop-color="#D8E6E9"/>
    </linearGradient>
  </defs>
  <g>
    <path stroke="none" fill="#FFFFFF" d="M42 18 L42.6 18 Q46 18.1 46 21.75 L46 44.25 Q46 46.1 45.1 47 44.2 48 42.4 48 L5.6 48 Q3.8 48 2.9 47 2 46.1 2 44.25 L2 21.75 Q2 18 5.6 18 L6 18 14 18 34 18 42 18 M24 24 Q21.6 24 19.7 26 18 27.8 18 30.3 18 33 19.7 34.9 L21 35.9 21.4 36.5 21.6 37 21.6 39.5 Q21.6 40.6 22.2 41.4 23 42 24 42 24.9 42 25.7 41.4 26.4 40.6 26.4 39.5 L26.4 37 26.5 36.5 26.9 35.9 28.1 34.9 28.2 34.9 Q30 33 30 30.3 30 27.8 28.1 25.8 26.4 24 24 24"/>
    <path stroke="none" fill="url(#gradient0)" d="M6 18 Q6 10.55 11.25 5.25 16.55 0 24 0 31.45 0 36.7 5.25 42 10.55 42 18 L34 18 Q34 13.85 31.05 10.9 28.15 8 24 8 19.85 8 16.95 10.9 L16.9 10.95 Q14 13.85 14 18 L6 18"/>
  </g>
</svg>