<svg width="48" height="48" xmlns="http://www.w3.org/2000/svg" xmlns:xlink="http://www.w3.org/1999/xlink">
  <defs/>
  <g>
    <path stroke="none" fill="#FFFFFF" d="M48 24 Q48 34 41 41 34 48 24 48 14 48 7 41 0 34 0 24 0 14 7 7 14 0 24 0 34 0 41 7 48 14 48 24 M15.5 15.5 Q19 12 24 12 29 12 32.5 15.5 36 19 36 24 36 29 32.5 32.5 29 36 24 36 19 36 15.5 32.5 12 29 12 24 12 19 15.5 15.5 M42 24 Q42 16.5 36.8 11.3 31.5 6 24 6 16.5 6 11.3 11.3 6 16.5 6 24 6 31.5 11.3 36.8 16.5 42 24 42 31.5 42 36.8 36.8 42 31.5 42 24 M18 24 Q18 26.5 19.8 28.3 21.5 30 24 30 26.5 30 28.3 28.3 30 26.5 30 24 30 21.5 28.3 19.8 26.5 18 24 18 21.5 18 19.8 19.8 18 21.5 18 24"/>
  </g>
</svg>