<svg width="48" height="48" xmlns="http://www.w3.org/2000/svg" xmlns:xlink="http://www.w3.org/1999/xlink">
  <defs/>
  <g>
    <path stroke="none" fill="#FFFFFF" d="M37.4 7.55 Q38.1 7.8 38.35 8.5 42 12.45 42 18 42 23.35 38.45 27.3 L41.95 41.55 41.9 42.7 41.15 43.65 40 44 32 44 Q31.3 44 30.8 43.6 30.25 43.15 30.05 42.5 L27.45 32 18 32 18 42 Q18 42.85 17.45 43.45 16.85 44 16 44 L8 44 Q7.15 44 6.6 43.45 6 42.85 6 42 L6 8 Q6 7.15 6.6 6.6 L8.6 4.6 Q9.15 4 10 4 L28.4 4 28.5 4 Q32.1 4.1 35.05 5.9 36.3 6.6 37.4 7.55 M30 20.2 L30.2 20 Q31 19.2 31 18 31 16.9 30.4 16.1 L30.1 15.9 Q29.2 15 28 15 L17 15 17 21 28 21 Q29.2 21 30 20.2"/>
  </g>
</svg>