<svg width="48" height="48" xmlns="http://www.w3.org/2000/svg" xmlns:xlink="http://www.w3.org/1999/xlink">
  <defs>
    <linearGradient gradientUnits="userSpaceOnUse" x1="-819.2" x2="819.2" spreadMethod="pad" gradientTransform="matrix(0.0074462890625 -0.0074615478515625 -0.007904052734375 -0.007904052734375 8.8 18.85)" id="gradient0">
      <stop offset="0" stop-color="#FFFFFF"/>
      <stop offset="1" stop-color="#D8E6E9"/>
    </linearGradient>
  </defs>
  <g>
    <path stroke="none" fill="#FFFFFF" d="M6.85 9.75 Q6.2 8.7 6.3 7.25 6.7 5.7 7.15 5.05 L7.8 4.4 Q8.9 3.2 10.3 3.05 12.05 2.75 13.1 3.85 L28.8 20.55 Q31.55 19 35 19 40.35 19 44.2 22.8 48 26.65 48 32 48 37.35 44.2 41.15 40.35 45 35 45 29.6 45 25.85 41.15 22 37.35 22 32 22 29.2 23.05 26.85 L17.35 20.8 6.85 9.75 M29.55 32.05 Q29.55 34.3 31.2 35.85 32.75 37.4 34.95 37.4 37.15 37.4 38.75 35.85 40.3 34.3 40.3 32.05 40.3 29.85 38.75 28.25 37.15 26.7 34.95 26.7 32.75 26.7 31.2 28.25 29.55 29.85 29.55 32.05"/>
    <path stroke="none" fill="url(#gradient0)" d="M17.35 20.8 L11.45 27.1 Q9.75 28.95 7.95 27.1 L6.7 25.65 6.5 25.1 Q6.3 24.8 6.6 24.45 L7.5 23.55 4.3 20.15 3.35 21.15 2.8 21.4 2.25 21.05 0.85 19.6 Q-0.85 17.85 0.85 15.9 L6.85 9.75 17.35 20.8"/>
  </g>
</svg>