<svg width="48" height="48" xmlns="http://www.w3.org/2000/svg" xmlns:xlink="http://www.w3.org/1999/xlink">
  <defs/>
  <g>
    <path stroke="none" fill="#FFFFFF" d="M28 2 Q33.75 2 37.85 6.1 L37.95 6.2 Q42 10.25 42 16 42 20.5 39.55 24 42 27.5 42 32 42 37.75 37.95 41.85 L37.9 41.9 37.85 41.95 Q33.75 46 28 46 L8 46 Q7.15 46 6.6 45.45 6 44.85 6 44 L6 4 Q6 3.15 6.6 2.6 7.15 2 8 2 L28 2 M28 29 L17 29 17 35 28 35 Q29.2 35 30 34.2 L30.2 34 Q31 33.2 31 32 31 30.9 30.4 30.1 L30.1 29.9 Q29.2 29 28 29 M31 16 Q31 14.8 30.2 14 L30 13.8 Q29.2 13 28 13 L17 13 17 19 28 19 Q29.2 19 30.1 18.1 L30.4 17.9 Q31 17.1 31 16"/>
  </g>
</svg>