<svg width="48" height="48" xmlns="http://www.w3.org/2000/svg" xmlns:xlink="http://www.w3.org/1999/xlink">
  <defs/>
  <g>
    <path stroke="none" fill="#FFFFFF" d="M48 24 Q48 29.7 44.6 34 L38.9 28.3 Q40 26.3 40 24 40 20.7 37.7 18.4 L37.3 18 Q35.65 16.55 33.65 16.15 32.9 16 32.45 15.45 32 14.9 32 14.2 L32 10.15 Q32 9.55 32.35 9.05 32.65 8.55 33.15 8.3 L34.3 8.15 Q39.4 8.85 43.3 12.7 L43.3 12.75 Q45.7 15.1 46.9 18 48 20.75 48 24 M47.1 42.2 Q48 43.2 48 44.6 48 46.1 47.1 47.1 46.1 48 44.6 48 43.2 48 42.2 47.1 L1.1 6 Q0 4.9 0 3.5 0 2 1.1 1.1 2 0 3.5 0 4.9 0 6 1.1 L47.1 42.2 M14.9 2 Q15.4 1 16.4 0.5 17.3 0 18.3 0 L20 0 Q21.7 0 22.9 1.2 24 2.3 24 4 L24 13.4 14.1 3.5 14.9 2 M2.6 18 Q4.1 16.8 5.8 16.4 L24 34.6 24 44 Q24 45.7 22.9 46.9 21.7 48 20 48 L18.3 48 Q17.3 48 16.4 47.5 15.4 47 14.9 46.1 L6.4 31.9 6.2 31.9 Q4.1 31.3 2.4 29.6 L2.3 29.6 Q0 27.3 0 24 0 20.9 2.1 18.6 L2.3 18.3 2.6 18"/>
  </g>
</svg>