<svg width="48" height="48" xmlns="http://www.w3.org/2000/svg" xmlns:xlink="http://www.w3.org/1999/xlink">
  <defs/>
  <g>
    <path stroke="none" fill="#FFFFFF" d="M26.9 2.6 L33.3 13.1 45.3 15.9 Q46.5 16.3 47.2 17.3 48 18.2 48 19.4 47.9 20.6 47.1 21.6 L39.1 31 40.1 43.2 Q40.2 44.5 39.5 45.4 38.8 46.5 37.6 46.8 L35.3 46.7 24 42 12.6 46.7 10.3 46.8 Q9.1 46.5 8.4 45.4 7.7 44.5 7.8 43.2 L8.8 31 0.8 21.6 Q0 20.6 0 19.4 -0.1 18.2 0.7 17.3 1.4 16.3 2.6 15.9 L14.6 13.1 21 2.6 Q21.7 1.6 22.8 1.2 24 0.8 25.1 1.2 26.3 1.6 26.9 2.6"/>
  </g>
</svg>