<svg width="48" height="48" xmlns="http://www.w3.org/2000/svg" xmlns:xlink="http://www.w3.org/1999/xlink">
  <defs/>
  <g>
    <path stroke="none" fill="#FFFFFF" d="M32.6 4 Q32 3.4 32 2.5 32 1.3 32.6 0.8 33.3 0 34.4 0 L45.4 0 Q46.5 0 47.2 0.8 48 1.3 48 2.5 L48 13.6 Q48 14.6 47.2 15.3 46.5 16 45.4 16 44.5 16 43.8 15.3 L32.6 4 M32.6 44 L43.8 32.7 Q44.5 32 45.4 32 46.5 32 47.2 32.7 48 33.4 48 34.4 L48 45.5 Q48 46.7 47.2 47.2 46.5 48 45.4 48 L34.4 48 Q33.3 48 32.6 47.2 32 46.7 32 45.5 32 44.6 32.6 44 M15.4 4 L4.2 15.3 Q3.5 16 2.6 16 1.5 16 0.8 15.3 0 14.6 0 13.6 L0 2.5 Q0 1.3 0.8 0.8 1.5 0 2.6 0 L13.6 0 Q14.7 0 15.4 0.8 16 1.3 16 2.5 16 3.4 15.4 4 M15.4 44 Q16 44.6 16 45.5 16 46.7 15.4 47.2 14.7 48 13.6 48 L2.6 48 Q1.5 48 0.8 47.2 0 46.7 0 45.5 L0 34.4 Q0 33.4 0.8 32.7 1.5 32 2.6 32 3.5 32 4.2 32.7 L15.4 44"/>
  </g>
</svg>