<svg width="48" height="48" xmlns="http://www.w3.org/2000/svg" xmlns:xlink="http://www.w3.org/1999/xlink">
  <defs/>
  <g>
    <path stroke="none" fill="#FFFFFF" d="M22.5 14.05 L36.4 13.45 Q39.7 13.25 41.8 14.45 43.1 15.35 43.9 16.75 44.6 17.75 45 19.25 L47.5 28.15 Q48.7 32.65 47.1 36.95 L45.6 39.85 Q42.2 45.65 35.4 47.45 28.7 49.15 22.5 45.75 L20.6 44.55 Q17 41.65 12.3 40.35 L7.2 39.85 Q4.4 40.05 2.4 38.15 0.2 36.25 0 33.55 -0.1 30.75 1.8 28.75 3.6 26.75 6.3 26.65 L12.2 27.05 6.8 8.05 Q6 5.45 7.4 3.15 L8.2 2.35 Q9.4 0.85 11.4 0.25 L11.8 0.15 15.7 0.45 Q16.2 0.45 16.7 0.85 19.1 2.15 19.9 4.75 L22.5 14.05"/>
  </g>
</svg>