<svg width="48" height="48" xmlns="http://www.w3.org/2000/svg" xmlns:xlink="http://www.w3.org/1999/xlink">
  <defs/>
  <g>
    <path stroke="none" fill="#FFFFFF" d="M5.2 17.2 L12 10.35 12 4 Q12 2.35 13.2 1.2 14.35 0 16 0 L40 0 Q41.65 0 42.85 1.2 44 2.35 44 4 L44 44 Q44 45.65 42.85 46.85 41.65 48 40 48 L8 48 Q6.35 48 5.2 46.85 4 45.65 4 44 L4 20 Q4 18.35 5.2 17.2 M27 39 Q27 37.75 26.1 36.85 25.25 36 24 36 22.75 36 21.85 36.85 21 37.75 21 39 21 40.25 21.85 41.1 22.75 42 24 42 25.25 42 26.1 41.1 27 40.25 27 39 M27 29 Q27 27.75 26.1 26.85 25.25 26 24 26 22.75 26 21.85 26.85 21 27.75 21 29 21 30.25 21.85 31.1 22.75 32 24 32 25.25 32 26.1 31.1 27 30.25 27 29 M37 39 Q37 37.75 36.1 36.85 35.25 36 34 36 32.75 36 31.85 36.85 31 37.75 31 39 31 40.25 31.85 41.1 32.75 42 34 42 35.25 42 36.1 41.1 37 40.25 37 39 M37 29 Q37 27.75 36.1 26.85 35.25 26 34 26 32.75 26 31.85 26.85 31 27.75 31 29 31 30.25 31.85 31.1 32.75 32 34 32 35.25 32 36.1 31.1 37 30.25 37 29 M37 19 Q37 17.75 36.1 16.85 35.25 16 34 16 32.75 16 31.85 16.85 31 17.75 31 19 31 20.25 31.85 21.1 32.75 22 34 22 35.25 22 36.1 21.1 37 20.25 37 19 M27 19 Q27 17.75 26.1 16.85 25.25 16 24 16 22.75 16 21.85 16.85 21 17.75 21 19 21 20.25 21.85 21.1 22.75 22 24 22 25.25 22 26.1 21.1 27 20.25 27 19"/>
  </g>
</svg>