<svg width="48" height="48" xmlns="http://www.w3.org/2000/svg" xmlns:xlink="http://www.w3.org/1999/xlink">
  <defs/>
  <g>
    <path stroke="none" fill="#FFFFFF" d="M14.35 2.7 L24 14.05 33.8 2.7 34.5 2.2 35.3 2 37.5 2 Q38.25 2 38.85 2.5 L43.35 6.5 43.85 7.2 44 8 44 10 Q44 10.75 43.5 11.35 L30 26.55 30 44 Q30 44.85 29.45 45.45 28.85 46 28 46 L20 46 Q19.15 46 18.6 45.45 18 44.85 18 44 L18 26.55 4.5 11.35 Q4 10.75 4 10 L4 8 4.2 7.2 4.7 6.5 9.2 2.5 Q9.75 2 10.5 2 L12.8 2 13.65 2.2 14.35 2.7"/>
  </g>
</svg>