{
  "asset": {
    "generator": "Khronos glTF Blender I/O v4.4.55",
    "version": "2.0"
  },
  "scene": 0,
  "scenes": [
    {
      "name": "Scene",
      "nodes": [
        0
      ]
    }
  ],
  "nodes": [
    {
      "mesh": 0,
      "name": "moon_rock_03_LOD0"
    }
  ],
  "materials": [
    {
      "doubleSided": true,
      "name": "moon_rock_03",
      "normalTexture": {
        "index": 0
      },
      "pbrMetallicRoughness": {
        "baseColorTexture": {
          "index": 1
        },
        "metallicFactor": 0,
        "metallicRoughnessTexture": {
          "index": 2
        }
      }
    }
  ],
  "meshes": [
    {
      "name": "realCap_Model_2",
      "primitives": [
        {
          "attributes": {
            "POSITION": 0,
            "NORMAL": 1,
            "TEXCOORD_0": 2
          },
          "indices": 3,
          "material": 0
        }
      ]
    }
  ],
  "textures": [
    {
      "sampler": 0,
      "source": 0
    },
    {
      "sampler": 0,
      "source": 1
    },
    {
      "sampler": 0,
      "source": 2
    }
  ],
  "images": [
    {
      "mimeType": "image/jpeg",
      "name": "moon_rock_03_nor_gl",
      "uri": "textures/moon_rock_03_nor_gl_1k.jpg"
    },
    {
      "mimeType": "image/jpeg",
      "name": "moon_rock_03_diff",
      "uri": "textures/moon_rock_03_diff_1k.jpg"
    },
    {
      "mimeType": "image/jpeg",
      "name": "moon_rock_03_rough",
      "uri": "textures/moon_rock_03_arm_1k.jpg"
    }
  ],
  "accessors": [
    {
      "bufferView": 0,
      "componentType": 5126,
      "count": 3046,
      "max": [
        0.058653734624385834,
        0.05654335767030716,
        0.041067589074373245
      ],
      "min": [
        -0.05336993560194969,
        -0.0016210168832913041,
        -0.04499820992350578
      ],
      "type": "VEC3"
    },
    {
      "bufferView": 1,
      "componentType": 5126,
      "count": 3046,
      "type": "VEC3"
    },
    {
      "bufferView": 2,
      "componentType": 5126,
      "count": 3046,
      "type": "VEC2"
    },
    {
      "bufferView": 3,
      "componentType": 5123,
      "count": 16794,
      "type": "SCALAR"
    }
  ],
  "bufferViews": [
    {
      "buffer": 0,
      "byteLength": 36552,
      "byteOffset": 0,
      "target": 34962
    },
    {
      "buffer": 0,
      "byteLength": 36552,
      "byteOffset": 36552,
      "target": 34962
    },
    {
      "buffer": 0,
      "byteLength": 24368,
      "byteOffset": 73104,
      "target": 34962
    },
    {
      "buffer": 0,
      "byteLength": 33588,
      "byteOffset": 97472,
      "target": 34963
    }
  ],
  "samplers": [
    {
      "magFilter": 9729,
      "minFilter": 9987
    }
  ],
  "buffers": [
    {
      "byteLength": 131060,
      "uri": "moon_rock_03.bin"
    }
  ]
}