{
  "asset": {
    "generator": "Khronos glTF Blender I/O v4.4.55",
    "version": "2.0"
  },
  "scene": 0,
  "scenes": [
    {
      "name": "Scene",
      "nodes": [
        0
      ]
    }
  ],
  "nodes": [
    {
      "mesh": 0,
      "name": "moon_rock_04_LOD0"
    }
  ],
  "materials": [
    {
      "doubleSided": true,
      "name": "moon_rock_04",
      "normalTexture": {
        "index": 0
      },
      "pbrMetallicRoughness": {
        "baseColorTexture": {
          "index": 1
        },
        "metallicFactor": 0,
        "metallicRoughnessTexture": {
          "index": 2
        }
      }
    }
  ],
  "meshes": [
    {
      "name": "realCap_Model_2",
      "primitives": [
        {
          "attributes": {
            "POSITION": 0,
            "NORMAL": 1,
            "TEXCOORD_0": 2
          },
          "indices": 3,
          "material": 0
        }
      ]
    }
  ],
  "textures": [
    {
      "sampler": 0,
      "source": 0
    },
    {
      "sampler": 0,
      "source": 1
    },
    {
      "sampler": 0,
      "source": 2
    }
  ],
  "images": [
    {
      "mimeType": "image/jpeg",
      "name": "moon_rock_04_nor_gl",
      "uri": "textures/moon_rock_04_nor_gl_1k.jpg"
    },
    {
      "mimeType": "image/jpeg",
      "name": "moon_rock_04_diff",
      "uri": "textures/moon_rock_04_diff_1k.jpg"
    },
    {
      "mimeType": "image/jpeg",
      "name": "moon_rock_04_rough",
      "uri": "textures/moon_rock_04_arm_1k.jpg"
    }
  ],
  "accessors": [
    {
      "bufferView": 0,
      "componentType": 5126,
      "count": 4067,
      "max": [
        0.06768252700567245,
        0.04974259063601494,
        0.0867583155632019
      ],
      "min": [
        -0.05209441855549812,
        -0.004078187979757786,
        -0.08701632171869278
      ],
      "type": "VEC3"
    },
    {
      "bufferView": 1,
      "componentType": 5126,
      "count": 4067,
      "type": "VEC3"
    },
    {
      "bufferView": 2,
      "componentType": 5126,
      "count": 4067,
      "type": "VEC2"
    },
    {
      "bufferView": 3,
      "componentType": 5123,
      "count": 22908,
      "type": "SCALAR"
    }
  ],
  "bufferViews": [
    {
      "buffer": 0,
      "byteLength": 48804,
      "byteOffset": 0,
      "target": 34962
    },
    {
      "buffer": 0,
      "byteLength": 48804,
      "byteOffset": 48804,
      "target": 34962
    },
    {
      "buffer": 0,
      "byteLength": 32536,
      "byteOffset": 97608,
      "target": 34962
    },
    {
      "buffer": 0,
      "byteLength": 45816,
      "byteOffset": 130144,
      "target": 34963
    }
  ],
  "samplers": [
    {
      "magFilter": 9729,
      "minFilter": 9987
    }
  ],
  "buffers": [
    {
      "byteLength": 175960,
      "uri": "moon_rock_04.bin"
    }
  ]
}