<svg width="64" height="64" xmlns="http://www.w3.org/2000/svg" xmlns:xlink="http://www.w3.org/1999/xlink">
  <defs/>
  <g>
    <path stroke="none" fill="#FFFFFF" d="M48 8 Q56 8 56 16 L56 48 Q56 56 48 56 L16 56 Q8 56 8 48 L8 16 Q8 8 16 8 L48 8 M48.05 20 Q48.45 20 48.75 20.3 L49.05 21 48.75 21.7 48.05 22 45.05 22 45.05 24 48.05 24 Q48.45 24 48.75 24.3 L49.05 25 48.75 25.7 48.05 26 45.05 26 45.05 28 48.05 28 Q48.45 28 48.75 28.3 L49.05 29 48.75 29.7 48.05 30 44.05 30 Q43.65 30 43.35 29.7 43.05 29.4 43.05 29 L43.05 21 Q43.05 20.6 43.35 20.3 43.65 20 44.05 20 L48.05 20 M39.05 22 Q38.65 22 38.35 22.3 38.05 22.6 38.05 23 38.05 23.4 38.35 23.7 38.65 24 39 24 L39.1 24 Q40.25 24 41.15 24.9 42.05 25.8 42.05 27 42.05 28.2 41.15 29.1 40.25 30 39.05 30 L37.05 30 Q36.65 30 36.35 29.7 L36.05 29 Q36.05 28.6 36.35 28.3 36.65 28 37.05 28 L39.05 28 39.75 27.7 40.05 27 39.75 26.3 Q39.45 26 39.1 26 L39 26 Q37.85 26 36.95 25.1 36.05 24.2 36.05 23 36.05 21.8 36.95 20.9 37.85 20 39.05 20 L41.05 20 Q41.45 20 41.75 20.3 L42.05 21 41.75 21.7 41.05 22 39.05 22 M53 16 Q53 11 48 11 L16 11 Q11 11 11 16 L11 48 Q11 53 16 53 L48 53 Q53 53 53 48 L53 16 M27.15 38.1 L27.15 38.15 26.5 38.65 27.95 41.55 28 42.35 27.5 42.9 26.75 42.95 26.15 42.45 24.45 39 24.05 39 24.05 42 23.75 42.7 23.05 43 Q22.65 43 22.35 42.7 22.05 42.4 22.05 42 L22.05 34 Q22.05 33.6 22.35 33.3 22.65 33 23.05 33 L25.1 33 Q26.3 33 27.15 33.85 28.05 34.75 28.05 36 28.05 37.25 27.15 38.1 M25.15 37 L25.5 36.9 25.75 36.7 25.8 36.7 26.05 36 25.75 35.25 Q25.5 35 25.1 35 L24.05 35 24.05 37 25.15 37 M38.05 35.8 L38.05 38 40.05 38 40.05 35.8 39.8 35.25 39.8 35.3 Q39.5 35 39.05 35 38.6 35 38.25 35.3 L38.3 35.2 Q38.05 35.45 38.05 35.8 M34.05 33 Q34.45 33 34.75 33.3 L35.05 34 34.75 34.7 34.05 35 31.05 35 31.05 37 34.05 37 Q34.45 37 34.75 37.3 L35.05 38 34.75 38.7 34.05 39 31.05 39 31.05 41 34.05 41 Q34.45 41 34.75 41.3 L35.05 42 34.75 42.7 34.05 43 30.05 43 Q29.65 43 29.35 42.7 29.05 42.4 29.05 42 L29.05 34 Q29.05 33.6 29.35 33.3 29.65 33 30.05 33 L34.05 33 M17 41 L18.1 41 18.45 40.9 18.7 40.7 18.75 40.7 19 40 18.7 39.25 Q18.5 39.05 18.25 39 L17 39 17 41 M18.45 36.9 L18.7 36.7 18.75 36.7 19 36 18.7 35.25 18.05 35 17 35 17 37 18.25 37 18.45 36.9 M21 36 Q21 37.2 20.25 38 21 38.85 21 40 21 41.25 20.1 42.1 L20.1 42.15 19.45 42.65 19.35 42.7 18.1 43 16 43 15.3 42.7 Q15 42.4 15 42 L15 34 Q15 33.6 15.3 33.3 15.6 33 16 33 L18.05 33 Q19.25 33 20.1 33.85 21 34.75 21 36 M18.1 24 L18.45 23.9 18.7 23.7 18.75 23.7 19 23 18.7 22.25 18.05 22 17 22 17 24 18.1 24 M18.1 26 L17 26 17 29 16.7 29.7 16 30 15.3 29.7 Q15 29.4 15 29 L15 21 Q15 20.6 15.3 20.3 15.6 20 16 20 L18.05 20 Q19.25 20 20.1 20.85 21 21.75 21 23 21 24.25 20.1 25.1 L20.1 25.15 19.45 25.65 19.35 25.7 18.1 26 M31.05 27.2 L31.25 27.75 32.05 28 32.8 27.75 32.8 27.8 33.05 27.2 33.05 21 Q33.05 20.6 33.35 20.3 33.65 20 34.05 20 34.45 20 34.75 20.3 L35.05 21 35.05 27.2 Q35.05 28.35 34.15 29.25 L34.1 29.3 Q33.2 30 32.05 30 30.8 30 29.95 29.3 L29.9 29.2 Q29.05 28.35 29.05 27.2 L29.05 21 Q29.05 20.6 29.35 20.3 29.65 20 30.05 20 L30.75 20.3 31.05 21 31.05 27.2 M24.05 22.8 L24.05 25 26.05 25 26.05 22.8 25.8 22.25 25.8 22.3 Q25.5 22 25.05 22 24.6 22 24.25 22.3 L24.3 22.2 Q24.05 22.45 24.05 22.8 M22.05 22.8 Q22.05 21.65 22.9 20.8 L22.95 20.75 Q23.8 20 25.05 20 26.2 20 27.1 20.75 L27.15 20.8 Q28.05 21.65 28.05 22.8 L28.05 29 27.75 29.7 27.05 30 Q26.65 30 26.35 29.7 26.05 29.4 26.05 29 L26.05 27 24.05 27 24.05 29 23.75 29.7 23.05 30 Q22.65 30 22.35 29.7 22.05 29.4 22.05 29 L22.05 22.8 M36.05 35.8 Q36.05 34.65 36.9 33.8 L36.95 33.75 Q37.8 33 39.05 33 40.2 33 41.1 33.75 L41.15 33.8 Q42.05 34.65 42.05 35.8 L42.05 42 41.75 42.7 41.05 43 Q40.65 43 40.35 42.7 40.05 42.4 40.05 42 L40.05 40 38.05 40 38.05 42 37.75 42.7 37.05 43 Q36.65 43 36.35 42.7 L36.05 42 36.05 35.8 M43.05 34 Q43.05 33.6 43.35 33.3 43.65 33 44.05 33 44.45 33 44.75 33.3 L45.05 34 45.05 37 45.45 37 47.15 33.55 47.75 33.05 48.5 33.1 49 33.7 48.95 34.45 47.2 38 48.95 41.55 Q49.15 41.95 49 42.35 L48.5 42.9 47.75 42.95 47.15 42.45 45.45 39 45.05 39 45.05 42 44.75 42.7 44.05 43 Q43.65 43 43.35 42.7 43.05 42.4 43.05 42 L43.05 34"/>
  </g>
</svg>