<svg width="64" height="64" xmlns="http://www.w3.org/2000/svg" xmlns:xlink="http://www.w3.org/1999/xlink">
  <defs/>
  <g>
    <path stroke="none" fill="#FFFFFF" d="M53 16 Q53 11 48 11 L16 11 Q11 11 11 16 L11 48 Q11 53 16 53 L48 53 Q53 53 53 48 L53 16 M22.05 29.8 Q22.05 28.65 22.9 27.8 L22.95 27.75 Q23.8 27 25.05 27 26.2 27 27.1 27.75 L27.15 27.8 Q28.05 28.65 28.05 29.8 L28.05 36 27.75 36.7 27.05 37 Q26.65 37 26.35 36.7 26.05 36.4 26.05 36 L26.05 34 24.05 34 24.05 36 23.75 36.7 23.05 37 Q22.65 37 22.35 36.7 22.05 36.4 22.05 36 L22.05 29.8 M24.05 29.8 L24.05 32 26.05 32 26.05 29.8 25.8 29.25 25.8 29.3 Q25.5 29 25.05 29 24.6 29 24.25 29.3 L24.3 29.2 Q24.05 29.45 24.05 29.8 M31.05 34.2 L31.25 34.75 32.05 35 32.8 34.75 32.8 34.8 33.05 34.2 33.05 28 Q33.05 27.6 33.35 27.3 33.65 27 34.05 27 34.45 27 34.75 27.3 L35.05 28 35.05 34.2 Q35.05 35.35 34.15 36.25 L34.1 36.3 Q33.2 37 32.05 37 30.8 37 29.95 36.3 L29.9 36.2 Q29.05 35.35 29.05 34.2 L29.05 28 Q29.05 27.6 29.35 27.3 29.65 27 30.05 27 L30.75 27.3 31.05 28 31.05 34.2 M18.1 31 L18.45 30.9 18.7 30.7 18.75 30.7 19 30 18.7 29.25 18.05 29 17 29 17 31 18.1 31 M18.1 33 L17 33 17 36 16.7 36.7 16 37 15.3 36.7 Q15 36.4 15 36 L15 28 Q15 27.6 15.3 27.3 15.6 27 16 27 L18.05 27 Q19.25 27 20.1 27.85 21 28.75 21 30 21 31.25 20.1 32.1 L20.1 32.15 19.45 32.65 19.35 32.7 18.1 33 M39.05 29 Q38.65 29 38.35 29.3 38.05 29.6 38.05 30 38.05 30.4 38.35 30.7 38.65 31 39 31 L39.1 31 Q40.25 31 41.15 31.9 42.05 32.8 42.05 34 42.05 35.2 41.15 36.1 40.25 37 39.05 37 L37.05 37 Q36.65 37 36.35 36.7 L36.05 36 Q36.05 35.6 36.35 35.3 36.65 35 37.05 35 L39.05 35 39.75 34.7 40.05 34 39.75 33.3 Q39.45 33 39.1 33 L39 33 Q37.85 33 36.95 32.1 36.05 31.2 36.05 30 36.05 28.8 36.95 27.9 37.85 27 39.05 27 L41.05 27 Q41.45 27 41.75 27.3 L42.05 28 41.75 28.7 41.05 29 39.05 29 M48.05 27 Q48.45 27 48.75 27.3 L49.05 28 48.75 28.7 48.05 29 45.05 29 45.05 31 48.05 31 Q48.45 31 48.75 31.3 L49.05 32 48.75 32.7 48.05 33 45.05 33 45.05 35 48.05 35 Q48.45 35 48.75 35.3 L49.05 36 48.75 36.7 48.05 37 44.05 37 Q43.65 37 43.35 36.7 43.05 36.4 43.05 36 L43.05 28 Q43.05 27.6 43.35 27.3 43.65 27 44.05 27 L48.05 27 M48 8 Q56 8 56 16 L56 48 Q56 56 48 56 L16 56 Q8 56 8 48 L8 16 Q8 8 16 8 L48 8"/>
  </g>
</svg>