<svg width="64" height="64" xmlns="http://www.w3.org/2000/svg" xmlns:xlink="http://www.w3.org/1999/xlink">
  <defs/>
  <g>
    <path stroke="none" fill="#FFFFFF" d="M42 23 Q42 22.6 42.3 22.3 42.6 22 43 22 43.4 22 43.7 22.3 L44 23 44 30 45 30 Q45.4 30 45.7 30.3 L46 31 45.7 31.7 45 32 43 32 Q42.6 32 42.3 31.7 42 31.4 42 31 L42 23 M47 23 Q47 22.6 47.3 22.3 47.6 22 48 22 48.4 22 48.7 22.3 L49 23 49 30 50 30 50.7 30.3 51 31 50.7 31.7 50 32 48 32 47.3 31.7 47 31 47 23 M53 16 Q53 11 48 11 L16 11 Q11 11 11 16 L11 48 Q11 53 16 53 L48 53 Q53 53 53 48 L53 16 M23 35.8 L23 40.25 23.2 40.75 24 41 24.75 40.75 24.75 40.8 25 40.25 25 35.8 24.75 35.25 24.75 35.3 Q24.45 35 24 35 23.55 35 23.2 35.3 L23.25 35.2 Q23 35.45 23 35.8 M21.85 33.8 L21.9 33.75 Q22.75 33 24 33 25.15 33 26.05 33.75 L26.1 33.8 Q27 34.65 27 35.8 L27 40.25 Q27 41.35 26.1 42.25 L26.05 42.3 Q25.15 43 24 43 22.75 43 21.9 42.3 L21.85 42.2 Q21 41.35 21 40.25 L21 35.8 Q21 34.65 21.85 33.8 M33.1 42.25 L33.05 42.3 Q32.15 43 31 43 29.75 43 28.9 42.3 L28.85 42.2 Q28 41.35 28 40.25 L28 35.8 Q28 34.65 28.85 33.8 L28.9 33.75 Q29.75 33 31 33 32.15 33 33.05 33.75 L33.1 33.8 Q34 34.65 34 35.8 L33.7 36.5 33 36.8 32.3 36.5 Q32 36.2 32 35.8 L31.75 35.25 31.75 35.3 Q31.45 35 31 35 30.55 35 30.2 35.3 L30.25 35.2 30 35.8 30 40.25 30.2 40.75 31 41 31.75 40.75 31.75 40.8 32 40.25 Q32 39.85 32.3 39.55 32.6 39.25 33 39.25 33.4 39.25 33.7 39.55 L34 40.25 Q34 41.35 33.1 42.25 M14 34 Q14 33.6 14.3 33.3 14.6 33 15 33 15.4 33 15.7 33.3 L16 34 16 41 19 41 Q19.4 41 19.7 41.3 L20 42 19.7 42.7 19 43 15 43 Q14.6 43 14.3 42.7 L14 42 14 34 M17 24 Q16.6 24 16.3 24.3 16 24.6 16 25 16 25.4 16.3 25.7 L16.95 26 17.05 26 Q18.2 26 19.1 26.9 20 27.8 20 29 20 30.2 19.1 31.1 18.2 32 17 32 L15 32 Q14.6 32 14.3 31.7 L14 31 Q14 30.6 14.3 30.3 14.6 30 15 30 L17 30 17.7 29.7 18 29 17.7 28.3 Q17.4 28 17.05 28 L16.95 28 Q15.8 28 14.9 27.1 14 26.2 14 25 14 23.8 14.9 22.9 15.8 22 17 22 L19 22 Q19.4 22 19.7 22.3 L20 23 19.7 23.7 19 24 17 24 M37 24.8 L37 29.25 37.2 29.75 38 30 38.75 29.75 38.75 29.8 39 29.25 39 24.8 38.75 24.25 38.75 24.3 Q38.45 24 38 24 37.55 24 37.2 24.3 L37.25 24.2 Q37 24.45 37 24.8 M31.1 26 L31.45 25.9 31.7 25.7 31.75 25.7 32 25 31.7 24.25 31.05 24 30 24 30 26 31.1 26 M33.1 27.1 L33.1 27.15 32.45 27.65 33.9 30.55 33.95 31.35 33.45 31.9 32.7 31.95 Q32.3 31.8 32.1 31.45 L30.4 28 30 28 30 31 29.7 31.7 29 32 Q28.6 32 28.3 31.7 28 31.4 28 31 L28 23 Q28 22.6 28.3 22.3 28.6 22 29 22 L31.05 22 Q32.25 22 33.1 22.85 34 23.75 34 25 34 26.25 33.1 27.1 M26.1 31.25 L26.05 31.3 Q25.15 32 24 32 22.75 32 21.9 31.3 L21.85 31.2 Q21 30.35 21 29.25 L21 24.8 Q21 23.65 21.85 22.8 L21.9 22.75 Q22.75 22 24 22 25.15 22 26.05 22.75 L26.1 22.8 Q27 23.65 27 24.8 L26.7 25.5 26 25.8 Q25.6 25.8 25.3 25.5 25 25.2 25 24.8 L24.75 24.25 24.75 24.3 Q24.45 24 24 24 23.55 24 23.2 24.3 L23.25 24.2 Q23 24.45 23 24.8 L23 29.25 23.2 29.75 24 30 24.75 29.75 24.75 29.8 25 29.25 Q25 28.85 25.3 28.55 25.6 28.25 26 28.25 26.4 28.25 26.7 28.55 L27 29.25 Q27 30.35 26.1 31.25 M40.9 41.55 Q41.1 41.95 40.95 42.35 L40.45 42.9 39.7 42.95 Q39.3 42.8 39.1 42.45 L37.4 39 37 39 37 42 36.7 42.7 36 43 Q35.6 43 35.3 42.7 L35 42 35 34 Q35 33.6 35.3 33.3 35.6 33 36 33 36.4 33 36.7 33.3 L37 34 37 37 37.4 37 39.1 33.55 Q39.3 33.2 39.7 33.05 L40.45 33.1 40.95 33.7 40.9 34.45 39.15 38 40.9 41.55 M35.85 22.8 L35.9 22.75 Q36.75 22 38 22 39.15 22 40.05 22.75 L40.1 22.8 Q41 23.65 41 24.8 L41 29.25 Q41 30.35 40.1 31.25 L40.05 31.3 Q39.15 32 38 32 36.75 32 35.9 31.3 L35.85 31.2 Q35 30.35 35 29.25 L35 24.8 Q35 23.65 35.85 22.8 M48 8 Q56 8 56 16 L56 48 Q56 56 48 56 L16 56 Q8 56 8 48 L8 16 Q8 8 16 8 L48 8"/>
  </g>
</svg>