<svg width="64" height="64" xmlns="http://www.w3.org/2000/svg" xmlns:xlink="http://www.w3.org/1999/xlink">
  <defs/>
  <g>
    <path stroke="none" fill="#FFFFFF" d="M48 13 L40 13 40 16.35 Q41.25 16.75 42.25 17.75 44 19.5 44 22 L44 28 53 28 53 18 Q53 13 48 13 M27.5 10 L48.5 10 Q56 10.25 56 18 L56 38 Q56 44.6 51.3 49.3 46.6 54 40 54 L36 54 Q29.4 54 24.7 49.3 20 44.6 20 38 L20 18 Q20 10.25 27.5 10 M23 18 L23 28 32 28 32 22 Q32 19.5 33.75 17.75 34.75 16.75 36 16.35 L36 13 28 13 Q23 13 23 18 M35.9 19.9 Q35 20.75 35 22 L35 30 Q35 31.25 35.9 32.15 36.75 33 38 33 39.25 33 40.15 32.15 41 31.25 41 30 L41 22 Q41 20.75 40.15 19.9 39.25 19 38 19 36.75 19 35.9 19.9 M53 38 L53 31 43.95 31 Q43.65 32.85 42.25 34.25 40.5 36 38 36 35.5 36 33.75 34.25 32.35 32.85 32.1 31 L23 31 23 38 Q23 43.35 26.85 47.2 30.65 51 36 51 L40 51 Q45.35 51 49.2 47.2 53 43.35 53 38 M11 10 L15 10 Q17 10 17 12 L17 23 Q17 25 15 25 L11 25 Q9 25 9 23 L9 12 Q9 10 11 10 M11 23 L15 23 15 12 11 12 11 23 M11 28 L15 28 Q17 28 17 30 L17 41 Q17 43 15 43 L11 43 Q9 43 9 41 L9 30 Q9 28 11 28"/>
  </g>
</svg>