<svg width="64" height="64" xmlns="http://www.w3.org/2000/svg" xmlns:xlink="http://www.w3.org/1999/xlink">
  <defs/>
  <g>
    <path stroke="none" fill="#FFFFFF" d="M40 19 L46 13 48 13 48 17 52 17 52 21 48 21 48 25 46 25 40 19 M54 36 L53.75 35.3 Q53.45 35 53 35 52.6 35 52.3 35.3 52 35.6 52 36 52 36.45 52.3 36.7 52.6 37 53 37 L53.75 36.7 54 36 M52 34 L51.75 33.3 Q51.45 33 51 33 50.6 33 50.3 33.3 50 33.6 50 34 50 34.45 50.3 34.7 L51 35 51.75 34.7 52 34 M47 29 L52 29 Q56 29 56 33 L56 47 Q56 51 52 51 L47 51 Q46.6 51 46.3 50.7 46 50.4 46 50 L46 30 Q46 29.6 46.3 29.3 46.6 29 47 29 M44 30 L44 50 43.7 50.7 43 51 21 51 20.3 50.7 Q20 50.4 20 50 L20 30 Q20 29.6 20.3 29.3 20.6 29 21 29 L43 29 Q43.4 29 43.7 29.3 L44 30 M24 19 L18 25 16 25 16 21 12 21 12 17 16 17 16 13 18 13 24 19 M22 31 L22 49 42 49 42 31 22 31 M52 38 L51.75 37.3 Q51.45 37 51 37 50.6 37 50.3 37.3 50 37.6 50 38 50 38.45 50.3 38.7 L51 39 51.75 38.7 52 38 M53 43 Q53 42.2 52.45 41.6 51.85 41 51 41 50.2 41 49.6 41.6 49 42.2 49 43 49 43.85 49.6 44.4 50.2 45 51 45 51.85 45 52.45 44.4 53 43.85 53 43 M50 36 L49.75 35.3 Q49.45 35 49 35 48.6 35 48.3 35.3 48 35.6 48 36 48 36.45 48.3 36.7 48.6 37 49 37 L49.75 36.7 50 36 M8 33 Q8 29 12 29 L17 29 17.7 29.3 18 30 18 50 17.7 50.7 17 51 12 51 Q8 51 8 47 L8 33 M14 45 L13.75 44.3 Q13.45 44 13 44 12.6 44 12.3 44.3 12 44.6 12 45 12 45.45 12.3 45.7 L13 46 13.75 45.7 14 45 M12 43 L11.75 42.3 Q11.45 42 11 42 10.6 42 10.3 42.3 10 42.6 10 43 10 43.45 10.3 43.7 10.6 44 11 44 L11.75 43.7 12 43 M14 41 L13.75 40.3 Q13.45 40 13 40 12.6 40 12.3 40.3 12 40.6 12 41 12 41.45 12.3 41.7 L13 42 13.75 41.7 14 41 M16 43 L15.75 42.3 Q15.45 42 15 42 14.6 42 14.3 42.3 14 42.6 14 43 14 43.45 14.3 43.7 14.6 44 15 44 L15.75 43.7 16 43 M15 36 Q15 35.2 14.45 34.6 13.85 34 13 34 12.2 34 11.6 34.6 11 35.2 11 36 11 36.85 11.6 37.4 12.2 38 13 38 13.85 38 14.45 37.4 15 36.85 15 36"/>
  </g>
</svg>