<svg width="64" height="64" xmlns="http://www.w3.org/2000/svg" xmlns:xlink="http://www.w3.org/1999/xlink">
  <defs/>
  <g>
    <path stroke="none" fill="#FFFFFF" d="M50 19 L44 25 42 25 42 21 38 21 38 17 42 17 42 13 44 13 50 19 M52 27.3 L56.8 28.6 Q60.7 29.6 59.7 33.5 L56.05 47 Q55.05 50.85 51.15 49.85 L46.35 48.55 Q45.95 48.45 45.7 48.1 45.5 47.7 45.6 47.3 L50.75 28 Q50.85 27.6 51.25 27.4 L52 27.3 M56.95 35.9 L56.9 35.15 Q56.65 34.75 56.25 34.65 L55.5 34.75 Q55.1 35 55 35.4 54.9 35.8 55.15 36.1 L55.75 36.6 56.55 36.5 Q56.85 36.3 56.95 35.9 M54.5 37.3 L54.45 36.55 53.8 36.05 53.05 36.2 Q52.7 36.4 52.6 36.75 52.45 37.2 52.7 37.55 L53.3 38 54.1 37.9 54.5 37.3 M53.1 34.85 L53.05 34.1 52.35 33.6 51.65 33.7 Q51.25 33.95 51.15 34.35 51.05 34.75 51.3 35.05 L51.85 35.55 52.7 35.45 53.1 34.85 M55.55 33.45 L55.5 32.7 54.85 32.2 54.1 32.35 53.65 32.9 Q53.5 33.35 53.75 33.7 L54.3 34.1 55.15 34.05 55.55 33.45 M44 29 L44 49 43.7 49.7 43 50 21 50 20.3 49.7 Q20 49.4 20 49 L20 29 Q20 28.6 20.3 28.3 20.6 28 21 28 L43 28 Q43.4 28 43.7 28.3 L44 29 M22 30 L22 48 42 48 42 30 22 30 M54.2 42.4 Q54.4 41.6 54 40.9 53.55 40.15 52.75 39.9 52 39.7 51.25 40.15 50.5 40.55 50.3 41.35 50.1 42.15 50.55 42.85 51 43.6 51.75 43.8 L53.3 43.6 Q54 43.2 54.2 42.4 M14 19 L20 13 22 13 22 17 26 17 26 21 22 21 22 25 20 25 14 19 M11.9 34.6 Q11.7 33.8 11 33.4 10.2 32.95 9.4 33.15 8.6 33.35 8.25 34.15 7.8 34.85 8 35.65 8.2 36.45 8.95 36.85 L10.45 37 Q11.25 36.8 11.7 36.1 12.1 35.4 11.9 34.6 M4.3 33.5 Q3.3 29.6 7.2 28.6 L12 27.3 12.75 27.4 13.25 28 18.4 47.3 18.3 48.1 17.65 48.55 12.85 49.85 Q8.95 50.85 7.95 47 L4.3 33.5 M14.65 41.1 L14.2 40.45 13.45 40.4 12.8 40.85 Q12.6 41.2 12.7 41.6 12.8 42.05 13.2 42.2 L13.95 42.3 14.6 41.8 14.65 41.1 M13.2 43.55 L12.8 42.9 12 42.8 Q11.6 42.9 11.4 43.3 11.2 43.7 11.3 44.1 L11.75 44.65 12.55 44.75 Q13 44.65 13.15 44.25 L13.2 43.55 M12.2 39.65 L11.75 39.05 11 38.95 Q10.6 39.05 10.35 39.45 10.2 39.85 10.3 40.2 L10.7 40.8 11.5 40.9 12.1 40.4 12.2 39.65 M10.8 42.15 L10.35 41.5 9.55 41.45 Q9.2 41.55 8.95 41.85 8.75 42.25 8.85 42.65 8.95 43.1 9.35 43.2 L10.05 43.35 10.75 42.85 10.8 42.15"/>
  </g>
</svg>