<svg width="64" height="64" xmlns="http://www.w3.org/2000/svg" xmlns:xlink="http://www.w3.org/1999/xlink">
  <defs/>
  <g>
    <path stroke="none" fill="#FFFFFF" d="M56 14 L50 20 48 20 48 16 40 16 40 12 48 12 48 8 50 8 56 14 M40 43 Q39.15 43 38.55 42.4 38 41.85 38 41 38 40.15 38.55 39.55 39.15 39 40 39 40.85 39 41.4 39.55 42 40.15 42 41 42 41.85 41.4 42.4 40.85 43 40 43 M40 35 Q39.15 35 38.55 34.4 38 33.85 38 33 38 32.15 38.55 31.55 39.15 31 40 31 40.85 31 41.4 31.55 42 32.15 42 33 42 33.85 41.4 34.4 40.85 35 40 35 M44 39 Q43.15 39 42.55 38.4 42 37.85 42 37 42 36.15 42.55 35.55 43.15 35 44 35 44.85 35 45.4 35.55 46 36.15 46 37 46 37.85 45.4 38.4 44.85 39 44 39 M10 33 Q10 25 18 25 L46 25 Q52.45 25 53.7 30.2 L54 33 54 49 10 49 10 33 M18 28 Q13 28 13 33 L13 46 51 46 51 33 Q51 28 46 28 L18 28 M24 42 Q21.95 42 20.45 40.5 19 39.05 19 37 19 34.95 20.45 33.45 21.95 32 24 32 26.1 32 27.55 33.45 29 34.95 29 37 29 39.05 27.55 40.5 26.1 42 24 42 M36 39 Q35.15 39 34.55 38.4 34 37.85 34 37 34 36.15 34.55 35.55 35.15 35 36 35 36.85 35 37.4 35.55 38 36.15 38 37 38 37.85 37.4 38.4 36.85 39 36 39 M8 14 L14 8 16 8 16 12 24 12 24 16 16 16 16 20 14 20 8 14 M56 56 L8 56 8 51.95 56 51.95 56 56"/>
  </g>
</svg>