<svg width="64" height="64" xmlns="http://www.w3.org/2000/svg" xmlns:xlink="http://www.w3.org/1999/xlink">
  <defs/>
  <g>
    <path stroke="none" fill="#FFFFFF" d="M56 14 L50 20 48 20 48 16 40 16 40 12 48 12 48 8 50 8 56 14 M40 36 Q40.85 36 41.4 35.4 42 34.85 42 34 42 33.15 41.4 32.55 40.85 32 40 32 39.15 32 38.55 32.55 38 33.15 38 34 38 34.85 38.55 35.4 39.15 36 40 36 M44 40 Q44.85 40 45.4 39.4 46 38.85 46 38 46 37.15 45.4 36.55 44.85 36 44 36 43.15 36 42.55 36.55 42 37.15 42 38 42 38.85 42.55 39.4 43.15 40 44 40 M40 44 Q40.85 44 41.4 43.4 42 42.85 42 42 42 41.15 41.4 40.55 40.85 40 40 40 39.15 40 38.55 40.55 38 41.15 38 42 38 42.85 38.55 43.4 39.15 44 40 44 M8 14 L14 8 16 8 16 12 24 12 24 16 16 16 16 20 14 20 8 14 M10 49 L10 34.5 Q10.25 27 18 27 L46 27 Q53.75 27 54 34.5 L54 49 10 49 M24 44 Q26.5 44 28.25 42.25 30 40.5 30 38 30 35.55 28.25 33.75 26.5 32 24 32 21.55 32 19.75 33.75 18 35.55 18 38 18 40.5 19.75 42.25 21.55 44 24 44 M36 40 Q36.85 40 37.4 39.4 38 38.85 38 38 38 37.15 37.4 36.55 36.85 36 36 36 35.15 36 34.55 36.55 34 37.15 34 38 34 38.85 34.55 39.4 35.15 40 36 40 M56 56 L8 56 8 51.95 56 51.95 56 56"/>
  </g>
</svg>