<svg width="64" height="64" xmlns="http://www.w3.org/2000/svg" xmlns:xlink="http://www.w3.org/1999/xlink">
  <defs/>
  <g>
    <path stroke="none" fill="#FFFFFF" d="M56.05 12.15 L56.05 44.95 Q56.05 46.45 55.1 47.65 54.15 48.8 52.7 49.05 L12.7 55.95 10.45 55.65 Q9.35 55.15 8.7 54.1 8.05 53.05 8.05 51.9 L8.05 28 Q7.35 15.45 20.05 13.45 L51.4 8.05 Q52.55 7.85 53.65 8.35 54.75 8.85 55.4 9.85 56.05 10.9 56.05 12.15 M29.95 26.05 L30.8 27.1 27.15 28.95 27.1 28.9 26.55 28.45 Q25.85 28 25 28 23.8 28 22.9 28.85 L22.85 28.9 Q22 29.8 22 31 L22 33.1 Q22.05 34.25 22.9 35.1 23.75 36 25 36 26.2 36 27.05 35.1 L27.1 35.05 27.85 34 25 34 25 31 32 31 32 34 31.95 34 Q31.6 36.25 29.95 37.9 L29.9 37.95 Q27.85 40 25 40 22.15 40 20.05 37.95 18.05 35.95 18 33.1 L18 33 18 31 Q18 28.15 20 26.05 L20.05 26 Q22.15 24 25 24 27.55 24 29.45 25.6 L29.95 26.05 M35 24 L39 24 39 36 47 36 47 40 35 40 35 24 M52.4 11.1 L51.95 11 51.9 11 20.55 16.4 Q10.5 17.95 11.05 27.85 L11.05 28 11.05 51.9 11.25 52.55 11.7 52.95 12.2 53 52.2 46.1 Q52.5 46.05 52.75 45.8 L53.05 44.95 53.05 12.15 52.9 11.5 52.4 11.1"/>
  </g>
</svg>