<svg width="64" height="64" xmlns="http://www.w3.org/2000/svg" xmlns:xlink="http://www.w3.org/1999/xlink">
  <defs/>
  <g>
    <path stroke="none" fill="#FFFFFF" d="M48.3 10 Q56 10.15 56 18 L56 46 Q56 54 48 54 L16 54 Q8 54 8 46 L8 32.95 Q8.35 23.7 15.05 17 21.85 10.2 31.35 10 L48.3 10 M31.4 13 Q23.1 13.2 17.15 19.15 11.35 24.95 11 32.95 L11 46 Q11 51 16 51 L48 51 Q53 51 53 46 L53 18 Q53 13.15 48.3 13 L31.4 13 M38 41 L44 41 44 44 35 44 35 31 38 31 38 41 M19 30 L19 27 32 27 32 31 23 41 32 41 32 44 19 44 19 40 28 30 19 30"/>
  </g>
</svg>