<svg width="64" height="64" xmlns="http://www.w3.org/2000/svg" xmlns:xlink="http://www.w3.org/1999/xlink">
  <defs/>
  <g>
    <path stroke="none" fill="#FFFFFF" d="M11.65 11.1 L11.15 11.5 Q11 11.8 11 12.15 L11 44.95 Q11 45.4 11.3 45.8 L11.85 46.1 51.85 53 52.35 52.95 52.8 52.55 53 51.9 53 28 53 27.85 Q53.55 17.95 43.5 16.4 L12.15 11 12.1 11 11.65 11.1 M34.05 24 L41.25 24 Q42.8 24.05 44.05 24.8 L45.25 25.7 45.3 25.75 Q47.05 27.5 47.05 30 47.05 32.45 45.3 34.2 L45.25 34.25 45.15 34.35 48.05 40 43.05 40 41.05 36 38.05 36 38.05 40 34.05 40 34.05 24 M28.95 26.05 L29.8 27.1 26.15 28.95 26.1 28.9 25.55 28.45 Q24.85 28 24 28 22.8 28 21.9 28.85 L21.85 28.9 Q21 29.8 21 31 L21 33.1 Q21.05 34.25 21.9 35.1 22.75 36 24 36 25.2 36 26.05 35.1 L26.1 35.05 26.85 34 24 34 24 31 31 31 31 34 30.95 34 Q30.6 36.25 28.95 37.9 L28.9 37.95 Q26.85 40 24 40 21.15 40 19.05 37.95 17.05 35.95 17 33.1 L17 33 17 31 Q17 28.15 19 26.05 L19.05 26 Q21.15 24 24 24 26.55 24 28.45 25.6 L28.95 26.05 M8 12.15 Q8 10.9 8.65 9.85 9.3 8.85 10.4 8.35 11.5 7.85 12.65 8.05 L44 13.45 Q56.7 15.45 56 28 L56 51.9 Q56 53.05 55.35 54.1 54.7 55.15 53.6 55.65 L51.35 55.95 11.35 49.05 Q9.9 48.8 8.95 47.65 8 46.45 8 44.95 L8 12.15 M41.05 28 L38.05 28 38.05 32 41.05 32 Q41.85 32 42.4 31.45 L42.5 31.35 Q43.05 30.8 43.05 30 43.05 29.15 42.5 28.6 L42.45 28.6 Q41.85 28 41.05 28"/>
  </g>
</svg>