<svg width="64" height="64" xmlns="http://www.w3.org/2000/svg" xmlns:xlink="http://www.w3.org/1999/xlink">
  <defs/>
  <g>
    <path stroke="none" fill="#FFFFFF" d="M56 14 L50 20 48 20 48 16 40 16 40 12 48 12 48 8 50 8 56 14 M40 44 Q42.45 44 44.25 42.25 46 40.5 46 38 46 35.55 44.25 33.75 42.45 32 40 32 37.5 32 35.75 33.75 34 35.55 34 38 34 40.5 35.75 42.25 37.5 44 40 44 M54 49 L10 49 10 34.5 Q10.25 27 18 27 L46 27 Q53.75 27 54 34.5 L54 49 M24 44 Q24.85 44 25.45 43.4 26 42.85 26 42 26 41.15 25.45 40.55 24.85 40 24 40 23.15 40 22.6 40.55 22 41.15 22 42 22 42.85 22.6 43.4 23.15 44 24 44 M28 40 Q28.85 40 29.45 39.4 30 38.85 30 38 30 37.15 29.45 36.55 28.85 36 28 36 27.15 36 26.6 36.55 26 37.15 26 38 26 38.85 26.6 39.4 27.15 40 28 40 M24 36 Q24.85 36 25.45 35.4 26 34.85 26 34 26 33.15 25.45 32.55 24.85 32 24 32 23.15 32 22.6 32.55 22 33.15 22 34 22 34.85 22.6 35.4 23.15 36 24 36 M20 40 Q20.85 40 21.45 39.4 22 38.85 22 38 22 37.15 21.45 36.55 20.85 36 20 36 19.15 36 18.6 36.55 18 37.15 18 38 18 38.85 18.6 39.4 19.15 40 20 40 M8 14 L14 8 16 8 16 12 24 12 24 16 16 16 16 20 14 20 8 14 M56 56 L8 56 8 51.95 56 51.95 56 56"/>
  </g>
</svg>