<svg width="64" height="64" xmlns="http://www.w3.org/2000/svg" xmlns:xlink="http://www.w3.org/1999/xlink">
  <defs/>
  <g>
    <path stroke="none" fill="#FFFFFF" d="M56.05 12.15 L56.05 44.95 Q56.05 46.45 55.1 47.65 54.15 48.8 52.7 49.05 L12.7 55.95 10.45 55.65 Q9.35 55.15 8.7 54.1 8.05 53.05 8.05 51.9 L8.05 28 Q7.35 15.45 20.05 13.45 L51.4 8.05 Q52.55 7.85 53.65 8.35 54.75 8.85 55.4 9.85 56.05 10.9 56.05 12.15 M35 24 L35 40 47 40 47 36 39 36 39 24 35 24 M29.95 26.05 L29.45 25.6 Q27.55 24 25 24 22.15 24 20.05 26 L20 26.05 Q18 28.15 18 31 L18 33 18 33.1 Q18.05 35.95 20.05 37.95 22.15 40 25 40 27.85 40 29.9 37.95 L29.95 37.9 Q31.6 36.25 31.95 34 L32 34 32 31 25 31 25 34 27.85 34 27.1 35.05 27.05 35.1 Q26.2 36 25 36 23.75 36 22.9 35.1 22.05 34.25 22 33.1 L22 31 Q22 29.8 22.85 28.9 L22.9 28.85 Q23.8 28 25 28 25.85 28 26.55 28.45 L27.1 28.9 27.15 28.95 30.8 27.1 29.95 26.05"/>
  </g>
</svg>