<svg width="64" height="64" xmlns="http://www.w3.org/2000/svg" xmlns:xlink="http://www.w3.org/1999/xlink">
  <defs/>
  <g>
    <path stroke="none" fill="#FFFFFF" d="M56 14 L50 20 48 20 48 16 40 16 40 12 48 12 48 8 50 8 56 14 M40 42 Q37.9 42 36.45 40.5 35 39.05 35 37 35 34.95 36.45 33.45 37.9 32 40 32 42.05 32 43.55 33.45 45 34.95 45 37 45 39.05 43.55 40.5 42.05 42 40 42 M54 33 L54 49 10 49 10 33 Q10 31.45 10.3 30.2 11.55 25 18 25 L46 25 Q54 25 54 33 M8 14 L14 8 16 8 16 12 24 12 24 16 16 16 16 20 14 20 8 14 M46 28 L18 28 Q13 28 13 33 L13 46 51 46 51 33 Q51 28 46 28 M20 39 Q19.15 39 18.6 38.4 18 37.85 18 37 18 36.15 18.6 35.55 19.15 35 20 35 20.85 35 21.45 35.55 22 36.15 22 37 22 37.85 21.45 38.4 20.85 39 20 39 M24 35 Q23.15 35 22.6 34.4 22 33.85 22 33 22 32.15 22.6 31.55 23.15 31 24 31 24.85 31 25.45 31.55 26 32.15 26 33 26 33.85 25.45 34.4 24.85 35 24 35 M28 39 Q27.15 39 26.6 38.4 26 37.85 26 37 26 36.15 26.6 35.55 27.15 35 28 35 28.85 35 29.45 35.55 30 36.15 30 37 30 37.85 29.45 38.4 28.85 39 28 39 M24 43 Q23.15 43 22.6 42.4 22 41.85 22 41 22 40.15 22.6 39.55 23.15 39 24 39 24.85 39 25.45 39.55 26 40.15 26 41 26 41.85 25.45 42.4 24.85 43 24 43 M56 56 L8 56 8 51.95 56 51.95 56 56"/>
  </g>
</svg>