<svg width="64" height="64" xmlns="http://www.w3.org/2000/svg" xmlns:xlink="http://www.w3.org/1999/xlink">
  <defs/>
  <g>
    <path stroke="none" fill="#FFFFFF" d="M34.05 24 L34.05 40 38.05 40 38.05 36 41.05 36 43.05 40 48.05 40 45.15 34.35 45.25 34.25 45.3 34.2 Q47.05 32.45 47.05 30 47.05 27.5 45.3 25.75 L45.25 25.7 44.05 24.8 Q42.8 24.05 41.25 24 L34.05 24 M41.05 28 Q41.85 28 42.45 28.6 L42.5 28.6 Q43.05 29.15 43.05 30 43.05 30.8 42.5 31.35 L42.4 31.45 Q41.85 32 41.05 32 L38.05 32 38.05 28 41.05 28 M8 12.15 Q8 10.9 8.65 9.85 9.3 8.85 10.4 8.35 11.5 7.85 12.65 8.05 L44 13.45 Q56.7 15.45 56 28 L56 51.9 Q56 53.05 55.35 54.1 54.7 55.15 53.6 55.65 L51.35 55.95 11.35 49.05 Q9.9 48.8 8.95 47.65 8 46.45 8 44.95 L8 12.15 M28.95 26.05 L28.45 25.6 Q26.55 24 24 24 21.15 24 19.05 26 L19 26.05 Q17 28.15 17 31 L17 33 17 33.1 Q17.05 35.95 19.05 37.95 21.15 40 24 40 26.85 40 28.9 37.95 L28.95 37.9 Q30.6 36.25 30.95 34 L31 34 31 31 24 31 24 34 26.85 34 26.1 35.05 26.05 35.1 Q25.2 36 24 36 22.75 36 21.9 35.1 21.05 34.25 21 33.1 L21 31 Q21 29.8 21.85 28.9 L21.9 28.85 Q22.8 28 24 28 24.85 28 25.55 28.45 L26.1 28.9 26.15 28.95 29.8 27.1 28.95 26.05"/>
  </g>
</svg>