<svg width="128" height="128" xmlns="http://www.w3.org/2000/svg" xmlns:xlink="http://www.w3.org/1999/xlink">
  <defs/>
  <g>
    <path stroke="none" fill="#878798" fill-opacity="0.2" d="M128 64 Q128 90.5 109.25 109.25 90.5 128 64 128 37.5 128 18.75 109.25 7.45 97.95 2.95 83.8 0 74.5 0 64 0 53.5 2.95 44.2 7.45 30.05 18.75 18.75 37.5 0 64 0 90.5 0 109.25 18.75 128 37.5 128 64 M105 23 Q88 6 64 6 40 6 23 23 6 40 6 64 6 88 23 105 40 122 64 122 88 122 105 105 122 88 122 64 122 40 105 23"/>
    <path stroke="none" fill="#878798" fill-opacity="0.09803921568627451" d="M105 23 Q122 40 122 64 122 88 105 105 88 122 64 122 40 122 23 105 6 88 6 64 6 40 23 23 40 6 64 6 88 6 105 23"/>
    <path fill="none" stroke="#878798" stroke-width="1" stroke-opacity="0.2" stroke-linecap="round" stroke-linejoin="round" d="M105 23 Q122 40 122 64 122 88 105 105 88 122 64 122 40 122 23 105 6 88 6 64 6 40 23 23 40 6 64 6 88 6 105 23"/>
    <path stroke="none" fill="#878798" fill-opacity="0.4" d="M37.5 30.6 L38.05 30.95 38.15 31.55 37.85 32.15 32.15 37.85 Q31.9 38.1 31.55 38.15 L30.95 38.05 30.6 37.5 29.1 30.2 Q29 29.8 29.2 29.6 L29.6 29.2 Q29.85 28.95 30.25 29.05 L37.5 30.6"/>
    <path stroke="none" fill="#878798" fill-opacity="0.4" d="M97.4 90.5 L98.95 97.75 98.8 98.4 98.4 98.8 97.8 98.9 90.5 97.4 89.95 97.05 89.85 96.45 90.15 95.85 95.85 90.15 Q96.15 89.85 96.45 89.85 L97.05 89.95 97.4 90.5"/>
    <path stroke="none" fill="#878798" fill-opacity="0.4" d="M97.4 37.5 L97.05 38.05 96.45 38.15 Q96.15 38.15 95.85 37.85 L90.15 32.15 89.85 31.55 89.95 30.95 90.5 30.6 97.8 29.1 98.4 29.2 98.8 29.6 Q99.05 29.85 98.95 30.25 L97.4 37.5"/>
    <path stroke="none" fill="#878798" fill-opacity="0.4" d="M37.5 97.4 L30.25 98.95 29.6 98.8 29.2 98.4 Q29 98.2 29.1 97.8 L30.6 90.5 Q30.7 90.2 30.95 89.95 L31.55 89.85 32.15 90.15 37.85 95.85 38.15 96.45 38.05 97.05 37.5 97.4"/>
  </g>
</svg>