<svg width="64" height="64" xmlns="http://www.w3.org/2000/svg" xmlns:xlink="http://www.w3.org/1999/xlink">
  <defs>
    <linearGradient gradientUnits="userSpaceOnUse" x1="-819.2" x2="819.2" spreadMethod="pad" gradientTransform="matrix(0 0.0390625 -0.0390625 0 112 32)" id="gradient0">
      <stop offset="0" stop-color="#333341"/>
      <stop offset="1" stop-color="#1E1E23"/>
    </linearGradient>
    <linearGradient gradientUnits="userSpaceOnUse" x1="-819.2" x2="819.2" spreadMethod="pad" gradientTransform="matrix(0 -0.0390625 -0.0390625 0 112 32)" id="gradient1">
      <stop offset="0" stop-color="#333341"/>
      <stop offset="1" stop-color="#1E1E23"/>
    </linearGradient>
  </defs>
  <g>
    <path stroke="none" fill="url(#gradient0)" d="M30.1 4.4 L30.05 4.4 Q18.9 8.25 7.1 16.75 5.55 17.85 5.2 19.7 4.05 25.95 4 32 L4 32.05 Q4.05 38.15 5.2 44.4 5.55 46.2 7.1 47.3 18.9 55.8 30.1 59.7 32 60.35 34 59.7 45.15 55.8 57 47.3 58.55 46.2 58.85 44.4 L58.9 44.4 Q60 38.15 60 32 60 25.95 58.9 19.65 L58.95 19.7 Q58.55 17.9 57 16.8 L56.95 16.75 Q45.15 8.25 34 4.4 32 3.7 30.1 4.4 M62.85 18.95 Q64 25.6 64 32 64 38.5 62.8 45.1 62.2 48.5 59.3 50.55 46.95 59.4 35.3 63.45 32 64.6 28.75 63.45 17.1 59.4 4.75 50.55 1.9 48.5 1.25 45.1 0.05 38.5 0 32.05 L0 32 Q0.05 25.55 1.25 18.95 1.9 15.55 4.75 13.5 17.1 4.6 28.75 0.6 32 -0.55 35.3 0.6 46.95 4.6 59.3 13.5 62.2 15.55 62.85 18.95"/>
    <path stroke="none" fill="url(#gradient1)" d="M30.1 4.4 Q32 3.7 34 4.4 45.15 8.25 56.95 16.75 L57 16.8 Q58.55 17.9 58.95 19.7 L58.9 19.65 Q60 25.95 60 32 60 38.15 58.9 44.4 L58.85 44.4 Q58.55 46.2 57 47.3 45.15 55.8 34 59.7 32 60.35 30.1 59.7 18.9 55.8 7.1 47.3 5.55 46.2 5.2 44.4 4.05 38.15 4 32.05 L4 32 Q4.05 25.95 5.2 19.7 5.55 17.85 7.1 16.75 18.9 8.25 30.05 4.4 L30.1 4.4"/>
    <path fill="none" stroke="#323240" stroke-width="1" stroke-linecap="round" stroke-linejoin="round" d="M30.1 4.4 Q32 3.7 34 4.4 45.15 8.25 56.95 16.75 L57 16.8 Q58.55 17.9 58.95 19.7 L58.9 19.65 Q60 25.95 60 32 60 38.15 58.9 44.4 L58.85 44.4 Q58.55 46.2 57 47.3 45.15 55.8 34 59.7 32 60.35 30.1 59.7 18.9 55.8 7.1 47.3 5.55 46.2 5.2 44.4 4.05 38.15 4 32.05 L4 32 Q4.05 25.95 5.2 19.7 5.55 17.85 7.1 16.75 18.9 8.25 30.05 4.4 L30.1 4.4"/>
    <path stroke="none" fill="#3F3F4D" d="M35 32 Q35 33.25 34.1 34.1 33.25 35 32 35 30.75 35 29.85 34.1 29 33.25 29 32 29 30.75 29.85 29.85 30.75 29 32 29 33.25 29 34.1 29.85 35 30.75 35 32"/>
  </g>
</svg>