<svg width="64" height="64" xmlns="http://www.w3.org/2000/svg" xmlns:xlink="http://www.w3.org/1999/xlink">
  <defs/>
  <g>
    <path stroke="none" fill="#FFFFFF" d="M41.15 22.8 L41.15 22.75 Q37.4 19 32 19 26.6 19 22.85 22.8 L22.8 22.85 Q19 26.6 19 32 19 37.4 22.75 41.15 L22.8 41.15 23.3 41.7 Q26.95 45 32 45 37.4 45 41.15 41.25 L41.25 41.15 Q45 37.4 45 32 45 26.95 41.7 23.3 L41.15 22.8 M32 12 Q23.7 12 17.85 17.85 12 23.7 12 32 12 40.3 17.85 46.1 L17.85 46.15 Q23.7 52 32 52 40.3 52 46.1 46.15 L46.15 46.1 Q52 40.3 52 32 52 23.7 46.15 17.85 L46.1 17.85 Q40.3 12 32 12 M20.7 20.7 L20.65 20.7 20.7 20.65 20.7 20.7 Q25.35 16 32 16 38.65 16 43.25 20.65 L43.65 21 Q48 25.6 48 32 48 38.65 43.35 43.25 L43.25 43.35 Q38.65 48 32 48 25.6 48 21 43.65 L20.65 43.25 Q16 38.65 16 32 16 25.35 20.7 20.7 M56 32 Q56 42 48.95 48.95 42 56 32 56 22.05 56 15 48.95 8 42 8 32 8 22.05 15 15 22.05 8 32 8 42 8 48.95 15 56 22.05 56 32 M32 22 Q36 22 38.8 24.65 L39.05 24.9 39.45 25.3 39.5 25.35 Q42 28.15 42 32 42 35.95 39.45 38.75 L39.1 39 39 39.1 38.75 39.45 Q35.95 42 32 42 28.15 42 25.35 39.5 L25.3 39.45 24.9 39.05 24.65 38.8 Q22 36 22 32 22 27.85 24.9 24.95 L24.95 24.95 24.95 24.9 Q27.85 22 32 22"/>
  </g>
</svg>