<svg width="64" height="64" xmlns="http://www.w3.org/2000/svg" xmlns:xlink="http://www.w3.org/1999/xlink">
  <defs/>
  <g>
    <path stroke="none" fill="#FFFFFF" d="M32 12 Q23.7 12 17.85 17.85 12 23.7 12 32 12 40.3 17.85 46.1 L17.85 46.15 Q23.7 52 32 52 40.3 52 46.1 46.15 L46.15 46.1 Q52 40.3 52 32 52 23.7 46.15 17.85 L46.1 17.85 Q40.3 12 32 12 M20.7 20.7 Q25.35 16 32 16 38.65 16 43.25 20.65 L43.65 21 Q48 25.6 48 32 48 38.65 43.35 43.25 L43.25 43.35 Q38.65 48 32 48 25.6 48 21 43.65 L20.65 43.25 Q16 38.65 16 32 16 25.35 20.7 20.7 L20.65 20.7 20.7 20.65 20.7 20.7 M56 32 Q56 42 48.95 48.95 42 56 32 56 22.05 56 15 48.95 8 42 8 32 8 22.05 15 15 22.05 8 32 8 42 8 48.95 15 56 22.05 56 32 M24 30 L24 34.2 Q24.05 37.35 26.35 39.65 L28 40.95 Q29.8 42 32 42 34.2 42 36 40.95 L37.65 39.65 Q38.95 38.35 39.55 36.8 L35.8 35.35 34.85 36.85 Q33.65 38 32 38 30.35 38 29.2 36.85 28.05 35.7 28 34.1 L28 30 Q28 28.35 29.2 27.2 30.35 26 32 26 33.65 26 34.85 27.2 L35.8 28.7 39.55 27.2 Q38.95 25.65 37.65 24.35 35.3 22 32 22 28.7 22 26.35 24.35 24 26.7 24 30"/>
  </g>
</svg>