<svg width="64" height="64" xmlns="http://www.w3.org/2000/svg" xmlns:xlink="http://www.w3.org/1999/xlink">
  <defs/>
  <g>
    <path stroke="none" fill="#FFFFFF" d="M27.8 24 L32 28.2 36.2 24 39 26.8 34.3 31.5 39 36.2 36.2 39 32 34.8 27.8 39 25 36.2 29.7 31.5 25 26.8 27.8 24 M23.45 47.35 Q22.35 42.95 20.1 39.1 17.85 35.25 14.65 32.05 11.1 28.45 11.2 23.45 11.3 18.35 14.8 14.85 L16.8 13.35 22.3 10.15 Q24.75 8.9 27.85 8.85 32.8 8.8 36.45 12.4 41.85 17.9 45.6 24.4 49.4 30.85 51.4 38.35 52.7 43.2 50.15 47.55 48.6 50.15 46.25 51.7 L40.75 54.9 38.45 55.8 Q33.65 57.1 29.25 54.7 24.85 52.2 23.45 47.35 M43.05 25.95 L43 25.9 Q39.45 19.75 34.3 14.5 31.55 11.9 27.85 11.85 25.5 11.8 23.65 12.8 L18.45 15.8 16.95 17.1 16.95 17 Q14.25 19.7 14.15 23.55 14.15 27.25 16.75 29.95 20.3 33.35 22.65 37.65 L22.7 37.7 Q25.15 41.8 26.35 46.55 27.35 50.15 30.65 52.05 34 53.85 37.7 52.85 L37.6 52.9 39.5 52.15 44.7 49.15 Q46.4 48.1 47.55 46.05 49.4 42.75 48.55 39.15 46.55 32.05 43.05 25.95"/>
  </g>
</svg>