<svg width="64" height="64" xmlns="http://www.w3.org/2000/svg" xmlns:xlink="http://www.w3.org/1999/xlink">
  <defs/>
  <g>
    <path stroke="none" fill="#FFFFFF" d="M30 39 L30 31.8 25 26.8 27.8 24 32 28.2 36.2 24 39 26.8 34 31.8 34 39 30 39 M32.05 19.5 L32 19.5 Q24.9 19.45 17.8 21.35 14.15 22.35 12.25 25.6 11.1 27.6 11 29.7 L11 35.65 11.35 37.65 11.3 37.6 Q12.25 41.25 15.55 43.25 18.75 45.15 22.4 44.2 L22.35 44.2 Q27.15 42.9 32 42.95 L32.05 42.95 Q36.85 42.9 41.65 44.2 L41.6 44.2 Q45.25 45.15 48.5 43.25 L48.45 43.25 Q51.75 41.25 52.7 37.6 L52.7 37.65 53 35.65 53 29.7 Q52.9 27.6 51.75 25.6 49.85 22.35 46.25 21.35 39.1 19.45 32.05 19.5 M40.85 47.1 Q36.45 45.9 32 45.95 27.55 45.9 23.15 47.1 18.3 48.35 14 45.8 9.65 43.2 8.4 38.35 L8 35.9 8 29.55 Q8.15 26.75 9.65 24.1 12.15 19.75 17 18.45 24.5 16.45 32 16.5 39.5 16.45 47 18.45 51.85 19.75 54.35 24.1 55.85 26.75 56 29.55 L56 35.9 55.6 38.35 Q54.35 43.2 50 45.8 45.7 48.35 40.85 47.1"/>
  </g>
</svg>