<svg width="64" height="64" xmlns="http://www.w3.org/2000/svg" xmlns:xlink="http://www.w3.org/1999/xlink">
  <defs/>
  <g>
    <path stroke="none" fill="#FFFFFF" d="M33 29 L30 29 30 33 33 33 Q33.8 33 34.35 32.45 L34.45 32.35 Q35 31.8 35 31 35 30.2 34.4 29.6 33.8 29 33 29 M26 25 L33 25 Q34.9 25 36.35 26 L37.25 26.75 Q39 28.5 39 31 39 32.65 38.2 34 L37.25 35.2 37.2 35.25 36.45 35.9 39.5 42 35.5 42 33 37 30 37 30 42 26 42 26 25 M31.35 10 L32.65 10 Q42.15 10.2 48.95 17 55.65 23.7 56 32.95 L56 46 Q56 54 48 54 L16 54 Q8 54 8 46 L8 32.95 Q8.35 23.7 15.05 17 21.85 10.2 31.35 10 M32.6 13 L31.35 13 Q23.1 13.2 17.2 19.15 11.3 25 11 33.1 L11 46 Q11 51 16 51 L48 51 Q53 51 53 46 L53 32.95 Q52.65 24.95 46.85 19.15 40.9 13.2 32.6 13"/>
  </g>
</svg>