<svg width="64" height="64" xmlns="http://www.w3.org/2000/svg" xmlns:xlink="http://www.w3.org/1999/xlink">
  <defs/>
  <g>
    <path stroke="none" fill="#FFFFFF" d="M32.05 48.85 Q21.55 48.35 20.05 44.5 L17.2 36.75 Q16.55 37.05 16.15 39.75 15.35 46.45 14.55 48.5 13.95 50 12.05 50 9.45 49.55 9.05 46.5 7.3 37.15 8.65 27.45 8.3 22 13.05 18.65 12.9 16.45 15.6 15.7 18.25 14.95 19.55 16.3 25.15 14 32.05 14 38.95 14 44.5 16.3 45.8 14.95 48.45 15.7 51.15 16.45 51.05 18.65 55.75 22 55.4 27.45 56.8 37.15 55 46.5 54.6 49.55 52.05 50 50.1 50 49.5 48.5 48.7 46.45 47.9 39.75 47.55 37.05 46.85 36.75 L44 44.5 Q42.5 48.35 32.05 48.85 M23 34 L23 36 21 36 21 38 23 38 23 40 25 40 25 38 27 38 27 36 25 36 25 34 23 34 M22 25 Q22 23.4 20.8 22.2 19.65 21 18 21 16.4 21 15.2 22.2 14 23.4 14 25 14 26.65 15.2 27.8 16.4 29 18 29 19.65 29 20.8 27.8 22 26.65 22 25 M41 26.5 Q41 25.85 40.55 25.4 40.15 25 39.5 25 38.85 25 38.4 25.4 38 25.85 38 26.5 38 27.15 38.4 27.55 38.85 28 39.5 28 L40.55 27.55 Q41 27.15 41 26.5 M43 37 Q43 35.8 42.1 34.9 41.25 34 40 34 38.8 34 37.9 34.9 37 35.8 37 37 37 38.25 37.9 39.1 38.8 40 40 40 41.25 40 42.1 39.1 43 38.25 43 37 M49 24 Q49 22.8 48.1 21.9 47.25 21 46 21 44.8 21 43.9 21.9 43 22.8 43 24 43 25.25 43.9 26.1 44.8 27 46 27 47.25 27 48.1 26.1 49 25.25 49 24"/>
  </g>
</svg>