<svg width="64" height="64" xmlns="http://www.w3.org/2000/svg" xmlns:xlink="http://www.w3.org/1999/xlink">
  <defs/>
  <g>
    <path stroke="none" fill="#FFFFFF" d="M40.85 47.1 Q36.45 45.9 32 45.95 27.55 45.9 23.15 47.1 18.3 48.35 14 45.8 9.65 43.2 8.4 38.35 L8 35.9 8 29.55 Q8.15 26.75 9.65 24.1 12.15 19.75 17 18.45 24.5 16.45 32 16.5 39.5 16.45 47 18.45 51.85 19.75 54.35 24.1 55.85 26.75 56 29.55 L56 35.9 55.6 38.35 Q54.35 43.2 50 45.8 45.7 48.35 40.85 47.1 M27.8 24 L25 26.8 29.7 31.5 25 36.2 27.8 39 32 34.8 36.2 39 39 36.2 34.3 31.5 39 26.8 36.2 24 32 28.2 27.8 24"/>
  </g>
</svg>