<svg width="64" height="64" xmlns="http://www.w3.org/2000/svg" xmlns:xlink="http://www.w3.org/1999/xlink">
  <defs/>
  <g>
    <path stroke="none" fill="#FFFFFF" d="M31 39 L31 31.8 26 26.8 28.8 24 33 28.2 37.2 24 40 26.8 35 31.8 35 39 31 39 M29.15 19.7 L29.05 19.75 Q22.2 21.55 15.8 25.15 12.6 27.1 11.6 30.7 10.95 33 11.4 35 L13 40.8 13.8 42.6 13.75 42.55 Q15.65 45.85 19.3 46.9 22.95 47.95 26.2 46.1 30.45 43.55 35.15 42.35 L35.2 42.35 Q39.85 41.05 44.8 41.1 48.45 41.05 51.1 38.4 53.75 35.65 53.75 31.9 L53.75 31.85 53.5 29.9 52 24.1 Q51.4 22.15 49.7 20.5 47 17.9 43.3 17.75 35.85 17.9 29.15 19.7 M44.8 44.1 Q40.2 44.1 35.95 45.25 31.6 46.4 27.7 48.7 23.3 51.1 18.45 49.8 13.6 48.35 11.15 44.05 L10.15 41.75 8.5 35.6 Q7.95 32.95 8.65 29.95 9.95 25.15 14.3 22.55 21.05 18.7 28.25 16.85 35.5 14.85 43.25 14.8 48.35 14.85 51.85 18.35 53.95 20.55 54.8 23.2 L56.45 29.35 56.75 31.85 Q56.75 36.8 53.3 40.45 49.8 44 44.8 44.1"/>
  </g>
</svg>