<svg width="64" height="64" xmlns="http://www.w3.org/2000/svg" xmlns:xlink="http://www.w3.org/1999/xlink">
  <defs/>
  <g>
    <path stroke="none" fill="#FFFFFF" d="M44.15 19 Q47.7 22 48 25.95 L48 26.05 Q47.7 30 44.2 32.9 L44 33.05 Q39.05 37 32 37 24.85 37 19.8 32.95 L19.7 32.9 Q16.3 30 16 26.1 L16 26.05 Q16.25 22 19.85 19 L19.95 18.9 Q25 15 32 15 39.15 15 44.2 19 L44.15 19 M32 19 Q36.6 19 39.95 21.3 L40.5 21.75 Q41.6 22.75 41.95 24 41.6 25.15 40.65 26.1 L40.1 26.55 Q36.7 29 32 29 27.05 29 23.6 26.25 L23.4 26.1 23.3 26.05 Q22.35 25.1 22.1 24.05 22.4 22.7 23.7 21.65 L23.8 21.6 23.85 21.55 Q27.25 18.95 32 19 M32 17 Q26.2 16.95 22 20.15 L21.8 20.3 Q19.3 22.35 19.05 25.05 19.3 27.5 21.45 29.45 L21.7 29.6 Q25.95 33 32 33 37.95 33 42.15 29.7 L42.3 29.6 42.35 29.6 Q44.65 27.6 45 25 44.65 22.35 42.25 20.3 L42 20.05 Q37.8 17 32 17 M43 50 Q43 52.5 39.75 54.25 36.55 56 32 56 27.5 56 24.25 54.25 21 52.5 21 50 L21 47.9 Q17.8 46.55 15 44.3 8 38.7 8 30.65 L8 30.1 8 29.55 8 29 8 28.5 8 28.1 8 27.95 8 27.4 Q8 19.4 15 13.65 22.05 8 32 8 42 8 48.95 13.65 56 19.4 56 27.4 L56 27.95 56 28.1 56 28.5 56 29 56 29.55 56 30.1 56 30.65 Q56 38.7 48.95 44.3 46.2 46.55 43 47.9 L43 50 M12 27.4 Q12.1 33.45 17.4 37.65 23.45 42.5 32 42.5 40.55 42.5 46.55 37.7 L46.6 37.65 Q51.9 33.4 52 27.4 51.85 21.4 46.55 17.1 40.55 12.3 32 12.3 23.45 12.3 17.4 17.1 L17.45 17.1 Q12.15 21.4 12 27.4"/>
  </g>
</svg>