<svg width="64" height="64" xmlns="http://www.w3.org/2000/svg" xmlns:xlink="http://www.w3.org/1999/xlink">
  <defs/>
  <g>
    <path stroke="none" fill="#000000" d="M1.75 27.75 L27.75 1.75 Q29.5 0 32 0 34.5 0 36.25 1.75 L62.25 27.75 Q64 29.5 64 32 L64 58 Q64 60.5 62.25 62.25 60.5 64 58 64 L6 64 Q3.5 64 1.75 62.25 0 60.5 0 58 L0 32 Q0 29.5 1.75 27.75 M6 58 L58 58 58 32 32 6 6 32 6 58 M27.15 36.35 L27 35.7 27.3 35.25 Q27.55 35 27.95 35 L36.05 35 Q36.4 35 36.7 35.25 L37 35.7 36.9 36.35 32.8 42.55 32.3 42.95 31.7 42.95 31.15 42.55 27.15 36.35"/>
  </g>
</svg>