<svg width="128" height="128" xmlns="http://www.w3.org/2000/svg" xmlns:xlink="http://www.w3.org/1999/xlink">
  <defs/>
  <g>
    <path stroke="none" fill="#000000" d="M8.4 38.95 Q6.05 51.65 6 63.95 L6 64.1 Q6.05 76.45 8.4 89.1 9.25 93.5 13 96.25 36.9 113.35 59.45 121.2 64.05 122.8 68.7 121.25 L68.65 121.25 Q91.15 113.35 115.1 96.25 118.85 93.5 119.7 89.1 122 76.4 122 64 122 51.65 119.75 38.9 L119.75 39 Q118.9 34.55 115.1 31.85 91.15 14.65 68.65 6.85 64 5.2 59.45 6.8 L59.45 6.85 Q36.9 14.65 13 31.85 9.25 34.55 8.4 38.95 M97.4 37.5 L97.05 38.05 96.45 38.15 Q96.15 38.15 95.85 37.85 L90.15 32.15 89.85 31.55 89.95 30.95 90.5 30.6 97.8 29.1 98.4 29.2 98.8 29.6 Q99.05 29.85 98.95 30.25 L97.4 37.5 M125.65 37.85 Q128 51.15 128 64 128 76.95 125.6 90.2 124.35 96.95 118.6 101.1 93.85 118.8 70.6 126.9 64 129.15 57.45 126.85 34.2 118.8 9.5 101.1 3.75 96.95 2.5 90.2 0.05 77 0 64.1 L0 63.95 Q0.05 51.1 2.5 37.85 3.75 31.1 9.5 26.95 34.2 9.2 57.45 1.15 64 -1.15 70.6 1.15 93.85 9.2 118.6 26.95 124.35 31.1 125.65 37.85 M97.4 90.5 L98.95 97.75 98.8 98.4 98.4 98.8 97.8 98.9 90.5 97.4 89.95 97.05 89.85 96.45 90.15 95.85 95.85 90.15 Q96.15 89.85 96.45 89.85 L97.05 89.95 97.4 90.5 M37.5 30.6 L38.05 30.95 38.15 31.55 37.85 32.15 32.15 37.85 Q31.9 38.1 31.55 38.15 L30.95 38.05 30.6 37.5 29.1 30.2 Q29 29.8 29.2 29.6 L29.6 29.2 Q29.85 28.95 30.25 29.05 L37.5 30.6 M37.5 97.4 L30.25 98.95 29.6 98.8 29.2 98.4 Q29 98.2 29.1 97.8 L30.6 90.5 Q30.7 90.2 30.95 89.95 L31.55 89.85 32.15 90.15 37.85 95.85 38.15 96.45 38.05 97.05 37.5 97.4"/>
  </g>
</svg>