<svg width="128" height="128" xmlns="http://www.w3.org/2000/svg" xmlns:xlink="http://www.w3.org/1999/xlink">
  <defs/>
  <g>
    <path stroke="none" fill="#000000" d="M90.5 30.6 L97.7 29.05 98.4 29.2 98.8 29.6 98.85 30.2 97.4 37.5 97.05 38.05 96.45 38.15 Q96.1 38.1 95.85 37.85 L90.15 32.15 Q89.85 31.85 89.85 31.55 L89.95 30.95 90.5 30.6 M59.15 21.65 L63.15 15.45 Q63.35 15.1 63.7 15.05 L64.3 15.05 Q64.6 15.1 64.8 15.45 L68.9 21.65 69 22.3 68.7 22.75 68.05 23 59.95 23 59.3 22.75 59 22.3 59.15 21.65 M106.35 59.15 L112.55 63.15 112.95 63.7 112.95 64.3 112.55 64.8 106.35 68.9 105.7 69 105.25 68.7 105 68.05 105 59.95 Q105 59.55 105.25 59.3 L105.7 59 106.35 59.15 M125.65 37.85 Q128 51.15 128 64 128 76.95 125.6 90.2 124.35 96.95 118.6 101.1 93.85 118.8 70.6 126.9 64 129.15 57.45 126.85 34.2 118.8 9.5 101.1 3.75 96.95 2.5 90.2 0.05 77 0 64.1 L0 63.95 Q0.05 51.1 2.5 37.85 3.75 31.1 9.5 26.95 34.2 9.2 57.45 1.15 64 -1.15 70.6 1.15 93.85 9.2 118.6 26.95 124.35 31.1 125.65 37.85 M59.15 106.35 L59 105.7 59.3 105.25 Q59.55 105 59.95 105 L68.05 105 Q68.4 105 68.7 105.25 L69 105.7 68.9 106.35 64.8 112.55 64.3 112.95 63.7 112.95 63.15 112.55 59.15 106.35 M8.4 38.95 Q6.05 51.65 6 63.95 L6 64.1 Q6.05 76.45 8.4 89.1 9.25 93.5 13 96.25 36.9 113.35 59.45 121.2 64.05 122.8 68.7 121.25 L68.65 121.25 Q91.15 113.35 115.1 96.25 118.85 93.5 119.7 89.1 122 76.4 122 64 122 51.65 119.75 38.9 L119.75 39 Q118.9 34.55 115.1 31.85 91.15 14.65 68.65 6.85 64 5.2 59.45 6.8 L59.45 6.85 Q36.9 14.65 13 31.85 9.25 34.55 8.4 38.95 M97.4 90.5 L98.95 97.7 98.8 98.4 98.4 98.8 97.8 98.85 90.5 97.4 89.95 97.05 89.85 96.45 90.15 95.85 95.85 90.15 Q96.15 89.85 96.45 89.85 L97.05 89.95 97.4 90.5 M30.6 90.5 Q30.7 90.2 30.95 89.95 L31.55 89.85 Q31.85 89.85 32.15 90.15 L37.85 95.85 38.15 96.45 38.05 97.05 37.5 97.4 30.25 98.9 29.6 98.8 29.2 98.4 Q29 98.1 29.1 97.75 L30.6 90.5 M37.5 30.6 L38.05 30.95 38.15 31.55 37.85 32.15 32.15 37.85 Q31.9 38.1 31.55 38.15 L30.95 38.05 30.6 37.5 29.1 30.25 29.2 29.6 29.6 29.2 30.25 29.1 37.5 30.6 M21.65 59.15 L22.3 59 22.75 59.3 23 59.95 23 68.05 22.75 68.7 22.3 69 21.65 68.9 15.45 64.8 15.05 64.3 15.05 63.7 Q15.1 63.35 15.45 63.15 L21.65 59.15"/>
  </g>
</svg>