<svg width="128" height="128" xmlns="http://www.w3.org/2000/svg" xmlns:xlink="http://www.w3.org/1999/xlink">
  <defs/>
  <g>
    <path stroke="none" fill="#000000" d="M90.5 30.6 L97.75 29.05 Q98.15 28.95 98.4 29.2 L98.8 29.6 98.9 30.2 97.4 37.5 97.05 38.05 96.45 38.15 Q96.1 38.1 95.85 37.85 L90.15 32.15 Q89.85 31.85 89.85 31.55 L89.95 30.95 90.5 30.6 M106.35 59.15 L112.55 63.15 112.95 63.7 112.95 64.3 112.55 64.8 106.35 68.9 105.7 69 105.25 68.7 105 68.05 105 59.95 Q105 59.55 105.25 59.3 L105.7 59 106.35 59.15 M97.4 90.5 L98.95 97.75 98.8 98.4 98.4 98.8 97.8 98.9 90.5 97.4 89.95 97.05 89.85 96.45 90.15 95.85 95.85 90.15 Q96.15 89.85 96.45 89.85 L97.05 89.95 97.4 90.5 M128 64 Q128 90.5 109.25 109.25 90.5 128 64 128 37.5 128 18.75 109.25 7.45 97.95 2.95 83.8 0 74.5 0 64 0 53.5 2.95 44.2 7.45 30.05 18.75 18.75 37.5 0 64 0 90.5 0 109.25 18.75 128 37.5 128 64 M105 23 Q88 6 64 6 40 6 23 23 6 40 6 64 6 88 23 105 40 122 64 122 88 122 105 105 122 88 122 64 122 40 105 23 M59.15 21.65 L63.15 15.45 Q63.35 15.1 63.7 15.05 L64.3 15.05 Q64.6 15.1 64.8 15.45 L68.9 21.65 69 22.3 68.7 22.75 68.05 23 59.95 23 59.3 22.75 59 22.3 59.15 21.65 M59.15 106.35 L59 105.7 59.3 105.25 Q59.55 105 59.95 105 L68.05 105 Q68.4 105 68.7 105.25 L69 105.7 68.9 106.35 64.8 112.55 64.3 112.95 63.7 112.95 63.15 112.55 59.15 106.35 M30.6 90.5 Q30.7 90.2 30.95 89.95 L31.55 89.85 Q31.85 89.85 32.15 90.15 L37.85 95.85 38.15 96.45 38.05 97.05 37.5 97.4 30.2 98.9 29.6 98.8 29.2 98.4 Q28.95 98.15 29.05 97.75 L30.6 90.5 M21.65 59.15 L22.3 59 22.75 59.3 23 59.95 23 68.05 22.75 68.7 22.3 69 21.65 68.9 15.45 64.8 15.05 64.3 15.05 63.7 Q15.1 63.35 15.45 63.15 L21.65 59.15 M37.5 30.6 L38.05 30.95 38.15 31.55 37.85 32.15 32.15 37.85 Q31.9 38.1 31.55 38.15 L30.95 38.05 30.6 37.5 29.1 30.2 Q29 29.8 29.2 29.6 L29.6 29.2 Q29.85 28.95 30.25 29.05 L37.5 30.6"/>
  </g>
</svg>