<svg width="64" height="42" xmlns="http://www.w3.org/2000/svg" xmlns:xlink="http://www.w3.org/1999/xlink">
  <defs>
    <linearGradient gradientUnits="userSpaceOnUse" x1="-819.2" x2="819.2" spreadMethod="pad" gradientTransform="matrix(0 0.025634765625 -0.025634765625 0 32 21)" id="gradient0">
      <stop offset="0" stop-color="#333341"/>
      <stop offset="1" stop-color="#1E1E23"/>
    </linearGradient>
  </defs>
  <g>
    <path stroke="none" fill="url(#gradient0)" d="M43.8 41.45 Q37.95 39.85 32 39.9 26.1 39.85 20.2 41.45 13.75 43.15 8 39.7 2.2 36.15 0.55 29.6 L0 26.3 0 17.7 Q0.2 13.9 2.2 10.3 5.55 4.4 12 2.65 22 -0.05 32 0 42 -0.05 52 2.65 58.5 4.4 61.8 10.3 63.8 13.9 64 17.7 L64 26.3 63.5 29.6 Q61.8 36.15 56 39.7 50.3 43.15 43.8 41.45 M32.05 6 L32 6 Q22.8 5.95 13.6 8.45 9.55 9.55 7.45 13.25 L7.45 13.3 Q6.15 15.6 6 18.05 L6 26 6.4 28.15 6.4 28.25 Q7.45 32.3 11.1 34.55 L11.15 34.6 Q14.7 36.7 18.7 35.65 L18.65 35.65 Q25.3 33.85 31.95 33.9 L32.05 33.9 Q38.75 33.85 45.4 35.7 L45.35 35.65 Q49.35 36.7 52.9 34.6 56.6 32.3 57.7 28.1 L57.65 28.25 58 25.95 58 18.05 Q57.85 15.55 56.55 13.25 L56.6 13.25 Q54.5 9.55 50.45 8.45 41.2 5.95 32.05 6"/>
    <path stroke="none" fill="#222229" d="M32.05 6 Q41.2 5.95 50.45 8.45 54.5 9.55 56.6 13.25 L56.55 13.25 Q57.85 15.55 58 18.05 L58 25.95 57.65 28.25 57.7 28.1 Q56.6 32.3 52.9 34.6 49.35 36.7 45.35 35.65 L45.4 35.7 Q38.75 33.85 32.05 33.9 L31.95 33.9 Q25.3 33.85 18.65 35.65 L18.7 35.65 Q14.7 36.7 11.15 34.6 L11.1 34.55 Q7.45 32.3 6.4 28.25 L6.4 28.15 6 26 6 18.05 Q6.15 15.6 7.45 13.3 L7.45 13.25 Q9.55 9.55 13.6 8.45 22.8 5.95 32 6 L32.05 6"/>
    <path fill="none" stroke="#323240" stroke-width="1" stroke-linecap="round" stroke-linejoin="round" d="M32.05 6 Q41.2 5.95 50.45 8.45 54.5 9.55 56.6 13.25 L56.55 13.25 Q57.85 15.55 58 18.05 L58 25.95 57.65 28.25 57.7 28.1 Q56.6 32.3 52.9 34.6 49.35 36.7 45.35 35.65 L45.4 35.7 Q38.75 33.85 32.05 33.9 L31.95 33.9 Q25.3 33.85 18.65 35.65 L18.7 35.65 Q14.7 36.7 11.15 34.6 L11.1 34.55 Q7.45 32.3 6.4 28.25 L6.4 28.15 6 26 6 18.05 Q6.15 15.6 7.45 13.3 L7.45 13.25 Q9.55 9.55 13.6 8.45 22.8 5.95 32 6 L32.05 6"/>
  </g>
</svg>