<svg width="64" height="64" xmlns="http://www.w3.org/2000/svg" xmlns:xlink="http://www.w3.org/1999/xlink">
  <defs>
    <linearGradient gradientUnits="userSpaceOnUse" x1="-819.2" x2="819.2" spreadMethod="pad" gradientTransform="matrix(0 -0.0390625 -0.0390625 0 32 32)" id="gradient0">
      <stop offset="0" stop-color="#333341"/>
      <stop offset="1" stop-color="#1E1E23"/>
    </linearGradient>
    <linearGradient gradientUnits="userSpaceOnUse" x1="-819.2" x2="819.2" spreadMethod="pad" gradientTransform="matrix(0 0.0390625 -0.0390625 0 32 32)" id="gradient1">
      <stop offset="0" stop-color="#333341"/>
      <stop offset="1" stop-color="#1E1E23"/>
    </linearGradient>
  </defs>
  <g>
    <path stroke="none" fill="url(#gradient0)" d="M32 61 Q20 61 11.5 52.5 3 44 3 32 3 20 11.5 11.5 20 3 32 3 44 3 52.5 11.5 61 20 61 32 61 44 52.5 52.5 44 61 32 61"/>
    <path stroke="none" fill="url(#gradient1)" d="M32 61 Q44 61 52.5 52.5 61 44 61 32 61 20 52.5 11.5 44 3 32 3 20 3 11.5 11.5 3 20 3 32 3 44 11.5 52.5 20 61 32 61 M64 32 Q64 45.25 54.6 54.6 45.25 64 32 64 18.75 64 9.35 54.6 0 45.25 0 32 0 18.75 9.35 9.35 18.75 0 32 0 45.25 0 54.6 9.35 64 18.75 64 32"/>
    <path stroke="none" fill="#3F3F4D" d="M35 14 Q35 15.25 34.1 16.1 33.25 17 32 17 30.75 17 29.85 16.1 29 15.25 29 14 29 12.75 29.85 11.85 30.75 11 32 11 33.25 11 34.1 11.85 35 12.75 35 14 M53 32 Q53 33.25 52.1 34.1 51.25 35 50 35 48.75 35 47.85 34.1 47 33.25 47 32 47 30.75 47.85 29.85 48.75 29 50 29 51.25 29 52.1 29.85 53 30.75 53 32 M35 50 Q35 51.25 34.1 52.1 33.25 53 32 53 30.75 53 29.85 52.1 29 51.25 29 50 29 48.75 29.85 47.85 30.75 47 32 47 33.25 47 34.1 47.85 35 48.75 35 50 M17 32 Q17 33.25 16.1 34.1 15.25 35 14 35 12.75 35 11.85 34.1 11 33.25 11 32 11 30.75 11.85 29.85 12.75 29 14 29 15.25 29 16.1 29.85 17 30.75 17 32"/>
    <path fill="none" stroke="#323240" stroke-width="1" stroke-linecap="round" stroke-linejoin="round" d="M32 61 Q44 61 52.5 52.5 61 44 61 32 61 20 52.5 11.5 44 3 32 3 20 3 11.5 11.5 3 20 3 32 3 44 11.5 52.5 20 61 32 61"/>
  </g>
</svg>