<svg width="64" height="64" xmlns="http://www.w3.org/2000/svg" xmlns:xlink="http://www.w3.org/1999/xlink">
  <defs>
    <linearGradient gradientUnits="userSpaceOnUse" x1="-819.2" x2="819.2" spreadMethod="pad" gradientTransform="matrix(0 0.0390625 -0.0390625 0 32 32)" id="gradient0">
      <stop offset="0" stop-color="#333341"/>
      <stop offset="1" stop-color="#1E1E23"/>
    </linearGradient>
    <linearGradient gradientUnits="userSpaceOnUse" x1="-819.2" x2="819.2" spreadMethod="pad" gradientTransform="matrix(0 -0.0927734375 0.035400390625 0 32 32)" id="gradient1">
      <stop offset="0" stop-color="#333341"/>
      <stop offset="1" stop-color="#1E1E23"/>
    </linearGradient>
  </defs>
  <g>
    <path stroke="none" fill="url(#gradient0)" d="M60 3 L4 3 Q3 3 3 4 L3 60 Q3 61 4 61 L60 61 Q61 61 61 60 L61 4 Q61 3 60 3 M4 0 L60 0 Q64 0 64 4 L64 60 Q64 64 60 64 L4 64 Q0 64 0 60 L0 4 Q0 0 4 0"/>
    <path stroke="none" fill="url(#gradient1)" d="M60 3 Q61 3 61 4 L61 60 Q61 61 60 61 L4 61 Q3 61 3 60 L3 4 Q3 3 4 3 L60 3"/>
    <path fill="none" stroke="#323240" stroke-width="1" stroke-linecap="round" stroke-linejoin="round" d="M60 3 Q61 3 61 4 L61 60 Q61 61 60 61 L4 61 Q3 61 3 60 L3 4 Q3 3 4 3 L60 3"/>
  </g>
</svg>