<svg width="64" height="64" xmlns="http://www.w3.org/2000/svg" xmlns:xlink="http://www.w3.org/1999/xlink">
  <defs/>
  <g>
    <path stroke="none" fill="#FFFFFF" d="M33 42.45 L33.2 41.45 Q33.5 40.5 34.3 39.95 35.4 39 37 39 38.55 39 39.7 39.95 L39.65 39.9 Q41.05 40.95 41 42.45 L41 47.5 Q41 48.1 40.55 48.55 L39.5 49 Q38.9 49 38.45 48.55 38 48.1 38 47.5 L38 42.45 37.9 42.3 37.85 42.3 Q37.45 42 37 42 36.5 42 36.15 42.3 L36.05 42.4 36 42.55 36 47.5 Q36 48.1 35.55 48.55 L34.5 49 Q33.9 49 33.45 48.55 33 48.1 33 47.5 L33 42.45 M18.7 50.15 L18.75 50.15 20.95 51.15 21.35 51.35 Q26.1 53 32 53 37.65 53 42.25 51.45 L42.7 51.3 42.8 51.25 45.6 49.85 45.65 49.8 Q47.9 44.35 53 41.85 L53 34.85 52.95 34.8 Q30.65 35.15 11 28.05 L11 34.45 11.05 34.5 Q16.45 39.85 18.65 50.05 L18.7 50.15 M8.9 36.6 Q8 35.7 8 34.45 L8 28.05 Q8 27.05 8.6 26.25 9.2 25.45 10.1 25.15 L12 25.2 Q31.15 32.15 52.95 31.8 54.2 31.8 55.1 32.7 56 33.55 56 34.85 L56 41.8 55.55 43.45 54.3 44.55 Q50.2 46.55 48.4 50.95 47.95 52 46.95 52.5 L44.15 53.9 43.95 54 43.8 54.05 43.7 54.1 Q38.45 56 32 56 25.3 56 19.95 54 L19.9 53.95 Q18.3 53.35 17.25 52.75 16.7 52.45 16.3 51.95 L15.75 50.75 Q13.75 41.5 8.9 36.6 M30 18 L36 18 36 21 27 21 27 8 30 8 30 18 M27 47.5 L26.55 48.55 25.5 49 Q24.9 49 24.45 48.55 24 48.1 24 47.5 L24 37.5 Q24 36.9 24.45 36.45 24.9 36 25.5 36 L30.5 36 Q31.1 36 31.55 36.45 32 36.9 32 37.5 32 38.1 31.55 38.55 31.1 39 30.5 39 L27 39 27 41 29.5 41 Q30.1 41 30.55 41.45 31 41.9 31 42.5 L30.55 43.55 Q30.1 44 29.5 44 L27 44 27 47.5"/>
  </g>
</svg>