<svg width="64" height="64" xmlns="http://www.w3.org/2000/svg" xmlns:xlink="http://www.w3.org/1999/xlink">
  <defs/>
  <g>
    <path stroke="none" fill="#FFFFFF" d="M21.2 8.9 Q22.1 8 23.35 8 L53 8 Q54.25 8 55.1 8.9 56 9.75 56 11 L56 40.65 Q56 41.9 55.1 42.8 L48.95 49 Q41.95 56 32 56 22.05 56 15.05 48.95 8 41.95 8 32 8 22.05 15 15.05 L21.2 8.9 M42.5 21 Q46 21 46 24.5 L46 38.5 Q46 42 42.5 42 L33.5 42 Q30 42 30 38.5 L30 24.5 Q30 21 33.5 21 L42.5 21 M42 29 Q42 27.35 40.8 26.15 39.65 25 38.05 25 L35.5 25 Q34.9 25 34.45 25.45 34 25.9 34 26.5 L34 36.5 Q34 37.1 34.45 37.55 34.9 38 35.5 38 L38.15 38 39.85 37.6 40 37.5 40.8 36.8 40.8 36.85 Q42 35.7 42 34 42 32.55 41.15 31.5 42 30.45 42 29 M23.35 11 L17.1 17.2 Q11 23.3 11 32 11 40.7 17.15 46.85 23.3 53 32 53 40.7 53 46.8 46.9 L53 40.65 53 11 23.35 11 M25.8 31.85 L25.8 31.8 25.35 32.25 27.15 35.85 Q27.4 36.4 27.25 37 L26.5 37.85 25.35 37.95 24.45 37.2 22.4 33 22 33 22 36.5 21.55 37.55 Q21.1 38 20.5 38 19.9 38 19.45 37.55 19 37.1 19 36.5 L19 26.5 Q19 25.9 19.45 25.45 19.9 25 20.5 25 L23.05 25 Q24.65 25 25.8 26.15 27 27.35 27 29 27 30.7 25.8 31.85 M38.5 29.9 L38.3 30 37 30 37 28 38.05 28 38.7 28.25 39 29 38.75 29.65 38.7 29.7 38.5 29.9 M38.3 33 Q38.5 33.05 38.7 33.25 L39 34 38.75 34.65 38.7 34.7 38.5 34.9 38.15 35 37 35 37 33 38.3 33 M23.35 30 L23.5 29.9 23.7 29.7 23.75 29.65 24 29 23.7 28.25 Q23.45 28 23.05 28 L22 28 22 30 23.35 30"/>
  </g>
</svg>