<svg width="64" height="64" xmlns="http://www.w3.org/2000/svg" xmlns:xlink="http://www.w3.org/1999/xlink">
  <defs/>
  <g>
    <path stroke="none" fill="#FFFFFF" d="M42.8 8.9 L49 15.05 Q56 22.05 56 32 56 41.95 48.95 48.95 41.95 56 32 56 22.05 56 15.05 49 L8.9 42.8 Q8 41.9 8 40.65 L8 11 Q8 9.75 8.9 8.9 9.75 8 11 8 L40.65 8 Q41.9 8 42.8 8.9 M18 26.5 Q18 25.9 18.45 25.45 18.9 25 19.5 25 20.1 25 20.55 25.45 21 25.9 21 26.5 L21 35 24.5 35 Q25.1 35 25.55 35.45 26 35.9 26 36.5 L25.55 37.55 Q25.1 38 24.5 38 L19.5 38 Q18.9 38 18.45 37.55 18 37.1 18 36.5 L18 26.5 M41.5 21 Q45 21 45 24.5 L45 38.5 Q45 42 41.5 42 L32.5 42 Q29 42 29 38.5 L29 24.5 Q29 21 32.5 21 L41.5 21 M40.65 11 L11 11 11 40.65 17.2 46.9 Q23.3 53 32 53 40.7 53 46.85 46.85 53 40.7 53 32 53 23.3 46.9 17.2 L40.65 11 M37.5 29.9 L37.3 30 36 30 36 28 37.05 28 Q37.45 28 37.7 28.25 L38 29 37.75 29.65 37.7 29.7 37.5 29.9 M41 29 Q41 27.35 39.8 26.15 38.65 25 37.05 25 L34.5 25 Q33.9 25 33.45 25.45 33 25.9 33 26.5 L33 36.5 Q33 37.1 33.45 37.55 33.9 38 34.5 38 L37.15 38 38.85 37.6 39 37.5 39.8 36.8 39.8 36.85 Q41 35.7 41 34 41 32.55 40.15 31.5 41 30.45 41 29 M37.3 33 Q37.5 33.05 37.7 33.25 L38 34 37.75 34.65 37.7 34.7 37.5 34.9 37.15 35 36 35 36 33 37.3 33"/>
  </g>
</svg>