<svg width="64" height="64" xmlns="http://www.w3.org/2000/svg" xmlns:xlink="http://www.w3.org/1999/xlink">
  <defs/>
  <g>
    <path stroke="none" fill="#FFFFFF" d="M33 42.45 L33.2 41.45 Q33.5 40.5 34.3 39.95 35.4 39 37 39 38.55 39 39.7 39.95 L39.65 39.9 Q41.05 40.95 41 42.45 L41 47.5 Q41 48.1 40.55 48.55 L39.5 49 Q38.9 49 38.45 48.55 38 48.1 38 47.5 L38 42.45 37.9 42.3 37.85 42.3 Q37.45 42 37 42 36.5 42 36.15 42.3 L36.05 42.4 36 42.55 36 47.5 Q36 48.1 35.55 48.55 L34.5 49 Q33.9 49 33.45 48.55 33 48.1 33 47.5 L33 42.45 M55.1 36.6 Q50.25 41.5 48.25 50.75 L47.7 51.95 46.75 52.75 44.1 53.95 44.05 54 Q38.7 56 32 56 25.55 56 20.3 54.1 L20.2 54.05 20.05 54 19.85 53.9 17.05 52.5 Q16.05 52 15.6 50.95 13.8 46.55 9.7 44.55 8.9 44.2 8.45 43.45 8 42.7 8 41.8 L8 34.85 Q8 33.55 8.9 32.7 9.8 31.8 11.05 31.8 32.85 32.15 52 25.2 L53.9 25.15 Q54.8 25.45 55.4 26.25 56 27.05 56 28.05 L56 34.45 Q56 35.7 55.1 36.6 M11.05 34.85 L11 34.9 11 41.85 11.05 41.85 Q16.1 44.35 18.35 49.8 L18.4 49.85 21.2 51.25 21.4 51.35 21.35 51.3 21.75 51.45 Q26.35 53 32 53 37.9 53 42.7 51.35 42.85 51.2 43.05 51.15 L45.25 50.15 45.35 50.15 45.35 50.05 Q47.55 39.85 53 34.5 L53 28.05 Q33.35 35.15 11.05 34.8 L11.05 34.85 M33 18 L30 18 30 21 27 21 27 8 33 8 Q35.05 8 36.5 9.45 38 10.95 38 13 38 15.05 36.5 16.5 L38 21 35 21 34 18 34 17.9 33 18 M30 15 L33.05 15 Q33.85 15 34.4 14.4 35 13.85 35 13 35 12.15 34.4 11.55 33.85 11 33 11 L30 11 30 15 M27 47.5 L26.55 48.55 25.5 49 Q24.9 49 24.45 48.55 24 48.1 24 47.5 L24 37.5 Q24 36.9 24.45 36.45 24.9 36 25.5 36 L30.5 36 Q31.1 36 31.55 36.45 32 36.9 32 37.5 32 38.1 31.55 38.55 31.1 39 30.5 39 L27 39 27 41 29.5 41 Q30.1 41 30.55 41.45 31 41.9 31 42.5 L30.55 43.55 Q30.1 44 29.5 44 L27 44 27 47.5"/>
  </g>
</svg>