<svg width="96" height="96" xmlns="http://www.w3.org/2000/svg" xmlns:xlink="http://www.w3.org/1999/xlink">
  <defs/>
  <g>
    <path stroke="none" fill="#2C2C37" d="M36 0 L60 0 Q62.5 0 64.25 1.75 66 3.5 66 6 L66 30 90 30 Q92.5 30 94.25 31.75 96 33.5 96 36 L96 60 Q96 62.5 94.25 64.25 92.5 66 90 66 L66 66 66 90 Q66 92.5 64.25 94.25 62.5 96 60 96 L36 96 Q33.5 96 31.75 94.25 30 92.5 30 90 L30 66 6 66 Q3.5 66 1.75 64.25 0 62.5 0 60 L0 36 Q0 33.5 1.75 31.75 3.5 30 6 30 L30 30 30 6 Q30 3.5 31.75 1.75 33.5 0 36 0 M60 6 L36 6 36 36 6 36 6 60 36 60 36 90 60 90 60 60 90 60 90 36 60 36 60 6"/>
    <path stroke="none" fill="#1E1E23" d="M60 6 L60 36 90 36 90 60 60 60 60 90 36 90 36 60 6 60 6 36 36 36 36 6 60 6"/>
    <path fill="none" stroke="#151519" stroke-width="1" stroke-linecap="round" stroke-linejoin="round" d="M60 6 L60 36 90 36 90 60 60 60 60 90 36 90 36 60 6 60 6 36 36 36 36 6 60 6"/>
    <path stroke="none" fill="#3F3F4D" d="M51 48 Q51 49.25 50.1 50.1 49.25 51 48 51 46.75 51 45.85 50.1 45 49.25 45 48 45 46.75 45.85 45.85 46.75 45 48 45 49.25 45 50.1 45.85 51 46.75 51 48"/>
    <path stroke="none" fill="#323240" d="M43.15 20.65 L47.15 14.45 Q47.35 14.1 47.7 14.05 L48.3 14.05 Q48.6 14.1 48.8 14.45 L52.9 20.65 53 21.3 52.7 21.75 52.05 22 43.95 22 43.3 21.75 43 21.3 Q42.95 20.95 43.15 20.65"/>
    <path stroke="none" fill="#323240" d="M43.15 75.35 L43 74.7 43.3 74.25 Q43.55 74 43.95 74 L52.05 74 Q52.4 74 52.7 74.25 L53 74.7 52.9 75.35 48.8 81.55 48.3 81.95 47.7 81.95 47.15 81.55 43.15 75.35"/>
    <path stroke="none" fill="#323240" d="M75.35 43.15 L81.55 47.15 81.95 47.7 81.95 48.3 81.55 48.8 75.35 52.9 74.7 53 74.25 52.7 74 52.05 74 43.95 Q74 43.55 74.25 43.3 L74.7 43 75.35 43.15"/>
    <path stroke="none" fill="#323240" d="M20.65 43.15 L21.3 43 21.75 43.3 22 43.95 22 52.05 21.75 52.7 21.3 53 20.65 52.9 14.45 48.8 14.05 48.3 14.05 47.7 Q14.1 47.35 14.45 47.15 L20.65 43.15"/>
  </g>
</svg>