<svg width="64" height="64" xmlns="http://www.w3.org/2000/svg" xmlns:xlink="http://www.w3.org/1999/xlink">
  <defs/>
  <g>
    <path stroke="none" fill="#2C2C37" d="M6 6 L6 32 32 58 58 32 58 6 6 6 M1.75 36.25 Q0 34.5 0 32 L0 6 Q0 3.5 1.75 1.75 3.5 0 6 0 L58 0 Q60.5 0 62.25 1.75 64 3.5 64 6 L64 32 Q64 34.5 62.25 36.25 L36.25 62.25 Q34.5 64 32 64 29.5 64 27.75 62.25 L1.75 36.25"/>
    <path stroke="none" fill="#1E1E23" d="M6 6 L58 6 58 32 32 58 6 32 6 6"/>
    <path fill="none" stroke="#151519" stroke-width="1" stroke-linecap="round" stroke-linejoin="round" d="M6 6 L6 32 32 58 58 32 58 6 6 6"/>
    <path stroke="none" fill="#323240" d="M27.15 27.65 L31.15 21.45 Q31.35 21.1 31.7 21.05 L32.3 21.05 Q32.6 21.1 32.8 21.45 L36.9 27.65 37 28.3 36.7 28.75 36.05 29 27.95 29 27.3 28.75 27 28.3 Q26.95 27.95 27.15 27.65"/>
  </g>
</svg>