<svg width="64" height="64" xmlns="http://www.w3.org/2000/svg" xmlns:xlink="http://www.w3.org/1999/xlink">
  <defs>
    <linearGradient gradientUnits="userSpaceOnUse" x1="-819.2" x2="819.2" spreadMethod="pad" gradientTransform="matrix(-0.00244140625 -0.0042266845703125 0.005279541015625 -0.0030517578125 36 36)" id="gradient0">
      <stop offset="0" stop-color="#FFFFFF"/>
      <stop offset="1" stop-color="#DAE2E9"/>
    </linearGradient>
  </defs>
  <g>
    <path stroke="none" fill="url(#gradient0)" d="M33.6 31.7 L35.7 31.1 Q37.85 30.6 38.45 32.65 L39.85 37.75 Q40.45 39.8 38.3 40.35 L36.2 40.9 Q34.1 41.45 33.55 39.4 L32.15 34.3 Q31.5 32.25 33.6 31.7"/>
    <path stroke="none" fill="#FFFFFF" d="M31 25 L31 15 28 15 28 28 37 28 37 25 31 25 M18 21 Q18 15.65 22.1 11.8 26.2 8 32 8 37.8 8 41.9 11.8 46 15.65 46 21 46 26.4 41.9 30.2 40 32 37.75 32.95 L37.7 32.95 Q34.95 34.15 35.2 38.75 35.85 47.6 34.7 51.85 33.55 56.1 30.5 56 26.55 55.9 24.45 50.75 22.45 45.75 22 35.75 21.75 30.65 19.9 27.6 18 24.7 18 21"/>
  </g>
</svg>