<svg width="64" height="64" xmlns="http://www.w3.org/2000/svg" xmlns:xlink="http://www.w3.org/1999/xlink">
  <defs>
    <linearGradient gradientUnits="userSpaceOnUse" x1="-819.2" x2="819.2" spreadMethod="pad" gradientTransform="matrix(0.00244140625 -0.0042266845703125 -0.005279541015625 -0.0030517578125 28 36)" id="gradient0">
      <stop offset="0" stop-color="#FFFFFF"/>
      <stop offset="1" stop-color="#DAE2E9"/>
    </linearGradient>
  </defs>
  <g>
    <path stroke="none" fill="#FFFFFF" d="M25.55 32.65 Q23.7 31.7 22.1 30.2 18 26.4 18 21 18 15.65 22.1 11.8 26.2 8 32 8 37.8 8 41.9 11.8 46 15.65 46 21 46 24.7 44.1 27.6 42.25 30.65 42 35.75 41.55 45.75 39.55 50.75 37.45 55.9 33.5 56 30.45 56.1 29.3 51.85 28.3 48.15 28.65 41.05 L28.8 38.75 Q29.05 34.15 26.3 32.95 L26.25 32.95 25.55 32.65 M39 20.5 Q39 21.55 39.75 22.25 40.5 23 41.5 23 42.55 23 43.3 22.25 44 21.55 44 20.5 44 19.45 43.3 18.7 42.55 18 41.5 18 40.5 18 39.75 18.7 39 19.45 39 20.5 M23 25.5 Q23 26.95 24.05 27.95 25.1 29 26.5 29 27.95 29 29 27.95 30 26.95 30 25.5 30 24.05 29 23 27.95 22 26.5 22 25.1 22 24.05 23 23 24.05 23 25.5 M35 16.5 Q35 17.55 35.75 18.25 36.5 19 37.5 19 38.55 19 39.3 18.25 40 17.55 40 16.5 40 15.45 39.3 14.7 38.55 14 37.5 14 36.5 14 35.75 14.7 35 15.45 35 16.5 M31 20.5 Q31 21.55 31.75 22.25 32.5 23 33.5 23 34.55 23 35.3 22.25 36 21.55 36 20.5 36 19.45 35.3 18.7 34.55 18 33.5 18 32.5 18 31.75 18.7 31 19.45 31 20.5 M35 24.5 Q35 25.55 35.75 26.25 36.5 27 37.5 27 38.55 27 39.3 26.25 40 25.55 40 24.5 40 23.45 39.3 22.7 38.55 22 37.5 22 36.5 22 35.75 22.7 35 23.45 35 24.5"/>
    <path stroke="none" fill="url(#gradient0)" d="M28.65 41.05 L27.8 40.9 25.7 40.35 Q23.55 39.8 24.15 37.75 L25.55 32.65 26.25 32.95 26.3 32.95 Q29.05 34.15 28.8 38.75 L28.65 41.05"/>
  </g>
</svg>