<svg width="64" height="64" xmlns="http://www.w3.org/2000/svg" xmlns:xlink="http://www.w3.org/1999/xlink">
  <defs>
    <linearGradient gradientUnits="userSpaceOnUse" x1="-819.2" x2="819.2" spreadMethod="pad" gradientTransform="matrix(-0.00244140625 -0.0042266845703125 0.005279541015625 -0.0030517578125 36 36)" id="gradient0">
      <stop offset="0" stop-color="#FFFFFF"/>
      <stop offset="1" stop-color="#DAE2E9"/>
    </linearGradient>
  </defs>
  <g>
    <path stroke="none" fill="#FFFFFF" d="M35.35 41.05 Q35.7 48.15 34.7 51.85 33.55 56.1 30.5 56 26.55 55.9 24.45 50.75 22.45 45.75 22 35.75 21.75 30.65 19.9 27.6 18 24.7 18 21 18 15.65 22.1 11.8 26.2 8 32 8 37.8 8 41.9 11.8 46 15.65 46 21 46 26.4 41.9 30.2 L38.45 32.65 37.75 32.95 37.7 32.95 Q34.95 34.15 35.2 38.75 L35.35 41.05 M33 27.5 Q33 26.45 32.25 25.7 31.5 25 30.5 25 29.45 25 28.7 25.7 28 26.45 28 27.5 28 28.55 28.7 29.25 29.45 30 30.5 30 31.5 30 32.25 29.25 33 28.55 33 27.5 M40 21.5 Q40 20.05 38.95 19 37.9 18 36.5 18 35.05 18 34 19 33 20.05 33 21.5 33 22.95 34 23.95 35.05 25 36.5 25 37.9 25 38.95 23.95 40 22.95 40 21.5 M25.6 14 Q24.95 14 24.5 14.55 24 15.1 24 15.85 L24 17 22.85 17 Q22.15 17 21.55 17.5 21 17.95 21 18.6 L21 19.4 Q21 20.05 21.55 20.5 22.15 21 22.85 21 L24 21 24 22.15 Q24 22.85 24.5 23.45 24.95 24 25.6 24 L26.4 24 Q27.05 24 27.5 23.45 28 22.85 28 22.15 L28 21 29.15 21 Q29.9 21 30.45 20.5 31 20.05 31 19.4 L31 18.6 Q31 17.95 30.45 17.5 29.9 17 29.15 17 L28 17 28 15.85 Q28 15.1 27.5 14.55 27.05 14 26.4 14 L25.6 14"/>
    <path stroke="none" fill="url(#gradient0)" d="M35.35 41.05 L35.2 38.75 Q34.95 34.15 37.7 32.95 L37.75 32.95 38.45 32.65 39.85 37.75 Q40.45 39.8 38.3 40.35 L36.2 40.9 35.35 41.05"/>
  </g>
</svg>