<svg width="64" height="64" xmlns="http://www.w3.org/2000/svg" xmlns:xlink="http://www.w3.org/1999/xlink">
  <defs>
    <linearGradient gradientUnits="userSpaceOnUse" x1="-819.2" x2="819.2" spreadMethod="pad" gradientTransform="matrix(0.0027923583984375 0.0234222412109375 -0.029083251953125 0.0034637451171875 25.75 40.1)" id="gradient0">
      <stop offset="0" stop-color="#FFFFFF"/>
      <stop offset="1" stop-color="#DAE2E9"/>
    </linearGradient>
  </defs>
  <g>
    <path stroke="none" fill="#FFFFFF" d="M32.8 13.55 L38.15 15.4 Q43.1 14 46 15.3 L46.05 15.3 Q50 17 48.7 20.85 L47.9 24 47.65 24.65 46.9 25.6 46.6 27.55 Q46.3 30.25 43.95 30.2 43.05 30.85 41.15 30.9 37.25 33.25 31 49.9 L28 49.85 Q24.1 49.5 24.25 44 L24.45 38 Q27.6 26.35 31.3 22.65 31.75 22.2 32.25 21.9 L31.9 21.65 31.4 21.3 30.8 20.9 28.35 19.6 32.8 13.55 M43 22 Q43 20.35 41.8 19.2 40.65 18 39 18 37.35 18 36.15 19.2 35 20.35 35 22 35 23.65 36.15 24.85 37.35 26 39 26 40.65 26 41.8 24.85 43 23.65 43 22"/>
    <path stroke="none" fill="url(#gradient0)" d="M31 49.9 Q32.5 51 32.45 52.2 32.8 53.6 31 54.85 L30.95 54.9 29.05 55.85 28.1 56 Q16.3 54.5 15 35 L15 34.9 Q15.25 19.9 24.55 10.1 27.55 6.85 30.75 8.6 32.55 9.55 32.95 10.75 33.55 12 32.8 13.55 L28.35 19.6 Q23.45 28.95 24.45 38 L24.25 44 Q24.1 49.5 28 49.85 L31 49.9"/>
  </g>
</svg>