<svg width="64" height="64" xmlns="http://www.w3.org/2000/svg" xmlns:xlink="http://www.w3.org/1999/xlink">
  <defs>
    <linearGradient gradientUnits="userSpaceOnUse" x1="-819.2" x2="819.2" spreadMethod="pad" gradientTransform="matrix(-0.0027923583984375 0.0234222412109375 0.029083251953125 0.0034637451171875 38.25 40.1)" id="gradient0">
      <stop offset="0" stop-color="#FFFFFF"/>
      <stop offset="1" stop-color="#DAE2E9"/>
    </linearGradient>
  </defs>
  <g>
    <path stroke="none" fill="url(#gradient0)" d="M31.2 13.55 Q30.45 12 31.05 10.75 31.45 9.55 33.25 8.6 36.45 6.85 39.45 10.1 48.75 19.9 49 34.9 L49 35 Q47.7 54.5 35.9 56 L34.95 55.85 33.05 54.9 33 54.85 Q31.2 53.6 31.55 52.2 31.5 51 33 49.9 L36 49.85 Q39.9 49.5 39.75 44 L39.55 38 Q40.55 28.95 35.65 19.6 L31.2 13.55"/>
    <path stroke="none" fill="#FFFFFF" d="M31.2 13.55 L35.65 19.6 33.2 20.9 32.6 21.3 32.1 21.65 31.75 21.9 Q32.25 22.2 32.7 22.65 36.4 26.35 39.55 38 L39.75 44 Q39.9 49.5 36 49.85 L33 49.9 Q26.75 33.25 22.85 30.9 20.95 30.85 20.05 30.2 17.7 30.25 17.4 27.55 L17.1 25.6 16.35 24.65 16.1 24 15.3 20.85 Q14 17 17.95 15.3 L18 15.3 Q20.9 14 25.85 15.4 L31.2 13.55 M21 22 Q21 23.65 22.2 24.85 23.35 26 25 26 26.65 26 27.85 24.85 29 23.65 29 22 29 20.35 27.85 19.2 26.65 18 25 18 23.35 18 22.2 19.2 21 20.35 21 22"/>
  </g>
</svg>