<svg width="64" height="64" xmlns="http://www.w3.org/2000/svg" xmlns:xlink="http://www.w3.org/1999/xlink">
  <defs/>
  <g>
    <path stroke="none" fill="#FFFFFF" d="M32 8 Q38.6 8 43.3 12.7 48 17.4 48 24 L48 40 Q48 46.6 43.3 51.3 38.6 56 32 56 25.4 56 20.7 51.3 16 46.6 16 40 L16 24 Q16 17.4 20.7 12.7 25.4 8 32 8"/>
    <path stroke="none" fill="#FFFFFF" d="M30.85 15.5 Q31.3 15 32 15 32.65 15 33.15 15.5 L39.55 22.15 Q40 22.65 40 23.35 40 24.05 39.55 24.5 39.05 25 38.4 25 L25.6 25 Q24.9 25 24.45 24.5 24 24.05 24 23.35 24 22.65 24.45 22.15 L30.85 15.5"/>
    <path stroke="none" fill="#FFFFFF" fill-opacity="0" d="M35.3 13.35 L35.3 13.4 41.7 20.05 41.8 20.15 Q43 21.5 43 23.35 43 25.35 41.7 26.6 40.25 28.05 38.4 28 L25.6 28 Q23.55 28 22.25 26.5 21 25.25 21 23.35 21 21.5 22.25 20.15 L22.3 20.05 28.7 13.4 Q30 12 32 12 33.85 11.95 35.3 13.35 M30.85 15.5 L24.45 22.15 Q24 22.65 24 23.35 24 24.05 24.45 24.5 24.9 25 25.6 25 L38.4 25 Q39.05 25 39.55 24.5 40 24.05 40 23.35 40 22.65 39.55 22.15 L33.15 15.5 Q32.65 15 32 15 31.3 15 30.85 15.5"/>
  </g>
</svg>