<svg width="64" height="64" xmlns="http://www.w3.org/2000/svg" xmlns:xlink="http://www.w3.org/1999/xlink">
  <defs/>
  <g>
    <path stroke="none" fill="#FFFFFF" d="M11 16 L11 44 Q11.35 47.25 16.4 49.85 22.85 53 32 53 41.15 53 47.7 49.85 L47.65 49.85 Q52.7 47.25 53 44 L53 16 Q53 11 48 11 L16 11 Q11 11 11 16 M56 44 Q56 48.95 49 52.5 41.95 56 32 56 22.05 56 15.05 52.5 8 48.95 8 44 L8 16 Q8 8 16 8 L48 8 Q56 8 56 16 L56 44 M43 25 L43 28 39 28 39 38 36 38 36 28 32 28 32 25 43 25 M25 35 L31 35 31 38 22 38 22 25 25 25 25 35"/>
  </g>
</svg>