<svg width="64" height="64" xmlns="http://www.w3.org/2000/svg" xmlns:xlink="http://www.w3.org/1999/xlink">
  <defs/>
  <g>
    <path stroke="none" fill="#FFFFFF" d="M37.85 54.95 Q35.15 56 32 56 25.4 56 20.7 51.3 16 46.6 16 40 L16 24 Q16 17.4 20.7 12.7 25.4 8 32 8 38.6 8 43.3 12.7 48 17.4 48 24 L48 30.8 47.3 30.95 Q45.7 29.95 43.3 30 L43.25 30 Q41.8 30 40.55 30.55 L39.5 27.95 39.35 27.55 Q38.5 26 37.45 25.15 L37.35 25.1 Q35.6 23.45 32.3 24.25 L32.25 24.25 Q28.85 25.05 28.25 26.75 L28.15 26.95 Q27.05 29.1 28.05 31.75 L28.05 31.7 31.7 41.6 30.15 41.75 30.05 41.75 Q28 42.1 26.65 43.4 L26.4 43.7 Q25 45.4 25 47.6 L25 47.65 Q25 51.15 27.9 52.75 29.7 53.85 33.3 53.65 L33.55 53.65 Q35.65 53.9 37.85 54.95 M39 34.75 L39.8 34.8 Q41.3 33 43.3 33 45.65 32.95 46.65 34.65 L48 33.95 49.25 33.75 Q50.75 33.75 51.65 34.95 53.7 37.75 55.4 41.8 57 47.75 54.1 51.55 52.45 53.45 49.95 54.35 47.45 55.3 44.7 54.75 42.75 54.25 41.05 53.25 L40.8 53.1 Q37.1 50.85 33.45 50.65 27.95 51 28 47.65 28 46.5 28.7 45.65 29.45 44.95 30.55 44.7 32.05 44.5 33.75 44.7 35.85 44.6 35.4 43 L30.85 30.65 Q30.35 29.35 30.85 28.3 31.25 27.55 32.95 27.15 34.6 26.75 35.5 27.45 L36.7 29.05 39 34.75"/>
    <path stroke="none" fill="#FFFFFF" fill-opacity="0" d="M39 34.75 L36.7 29.05 35.5 27.45 Q34.6 26.75 32.95 27.15 31.25 27.55 30.85 28.3 30.35 29.35 30.85 30.65 L35.4 43 Q35.85 44.6 33.75 44.7 32.05 44.5 30.55 44.7 29.45 44.95 28.7 45.65 28 46.5 28 47.65 27.95 51 33.45 50.65 37.1 50.85 40.8 53.1 L41.05 53.25 Q42.75 54.25 44.7 54.75 47.45 55.3 49.95 54.35 52.45 53.45 54.1 51.55 57 47.75 55.4 41.8 53.7 37.75 51.65 34.95 50.75 33.75 49.25 33.75 L48 33.95 46.65 34.65 Q45.65 32.95 43.3 33 41.3 33 39.8 34.8 L39 34.75 M48 30.8 L49.25 30.7 Q52.25 30.7 54.05 33.1 L54.1 33.15 Q56.3 36.2 58.15 40.65 L58.3 41.05 Q60.35 48.6 56.5 53.4 L56.4 53.55 Q54.25 56 51.05 57.2 L51 57.25 Q47.7 58.45 44.1 57.75 L43.95 57.7 Q41.5 57.05 39.3 55.7 L39.25 55.7 37.85 54.95 Q35.65 53.9 33.55 53.65 L33.3 53.65 Q29.7 53.85 27.9 52.75 25 51.15 25 47.65 L25 47.6 Q25 45.4 26.4 43.7 L26.65 43.4 Q28 42.1 30.05 41.75 L30.15 41.75 31.7 41.6 28.05 31.7 28.05 31.75 Q27.05 29.1 28.15 26.95 L28.25 26.75 Q28.85 25.05 32.25 24.25 L32.3 24.25 Q35.6 23.45 37.35 25.1 L37.45 25.15 Q38.5 26 39.35 27.55 L39.5 27.95 40.55 30.55 Q41.8 30 43.25 30 L43.3 30 Q45.7 29.95 47.3 30.95 L48 30.8"/>
  </g>
</svg>