<svg width="64" height="64" xmlns="http://www.w3.org/2000/svg" xmlns:xlink="http://www.w3.org/1999/xlink">
  <defs/>
  <g>
    <path stroke="none" fill="#FFFFFF" d="M11 44 Q11.35 47.25 16.4 49.85 22.85 53 32 53 41.15 53 47.7 49.85 L47.65 49.85 Q52.7 47.25 53 44 L53 16 Q53 11 48 11 L16 11 Q11 11 11 16 L11 44 M56 44 Q56 48.95 49 52.5 41.95 56 32 56 22.05 56 15.05 52.5 8 48.95 8 44 L8 16 Q8 8 16 8 L48 8 Q56 8 56 16 L56 44 M44 25 L44 28 40 28 40 38 37 38 37 28 33 28 33 25 44 25 M26 35 L23 35 23 38 20 38 20 25 26 25 Q28.05 25 29.5 26.45 31 27.95 31 30 31 32.05 29.5 33.5 L31 38 28 38 27 35 27 34.9 26 35 M23 32 L26.05 32 Q26.85 32 27.4 31.4 28 30.85 28 30 28 29.15 27.4 28.55 26.85 28 26 28 L23 28 23 32"/>
  </g>
</svg>