<svg width="64" height="64" xmlns="http://www.w3.org/2000/svg" xmlns:xlink="http://www.w3.org/1999/xlink">
  <defs/>
  <g>
    <path stroke="none" fill="#FFFFFF" d="M56 44 Q56 48.95 49 52.5 41.95 56 32 56 22.05 56 15.05 52.5 8 48.95 8 44 L8 16 Q8 8 16 8 L48 8 Q56 8 56 16 L56 44 M44 25 L33 25 33 28 37 28 37 38 40 38 40 28 44 28 44 25 M23 32 L23 28 26 28 Q26.85 28 27.4 28.55 28 29.15 28 30 28 30.85 27.4 31.4 26.85 32 26.05 32 L23 32 M26 35 L27 34.9 27 35 28 38 31 38 29.5 33.5 Q31 32.05 31 30 31 27.95 29.5 26.45 28.05 25 26 25 L20 25 20 38 23 38 23 35 26 35"/>
  </g>
</svg>