<svg width="64" height="64" xmlns="http://www.w3.org/2000/svg" xmlns:xlink="http://www.w3.org/1999/xlink">
  <defs/>
  <g>
    <path stroke="none" fill="#000000" fill-opacity="0.4" d="M56 6 L8 6 6.25 6.3 Q6 6.9 6 8 L6 56 Q6 57.1 6.25 57.75 L8 58 56 58 Q58 58 58 56 L58 8 Q58 6 56 6 M8 0 L56 0 Q64 0 64 8 L64 56 Q64 64 56 64 L8 64 Q4.45 64 2.45 62.4 0 60.45 0 56 L0 8 Q0 3.55 2.45 1.6 4.45 0 8 0"/>
    <path stroke="none" fill="#000000" fill-opacity="0.2" d="M56 6 Q58 6 58 8 L58 56 Q58 58 56 58 L8 58 6.25 57.75 Q6 57.1 6 56 L6 8 Q6 6.9 6.25 6.3 L8 6 56 6"/>
    <path fill="none" stroke="#000000" stroke-width="1" stroke-opacity="0.4" stroke-linecap="round" stroke-linejoin="round" d="M56 6 Q58 6 58 8 L58 56 Q58 58 56 58 L8 58 6.25 57.75 Q6 57.1 6 56 L6 8 Q6 6.9 6.25 6.3 L8 6 56 6"/>
  </g>
</svg>