<svg width="128" height="64" xmlns="http://www.w3.org/2000/svg" xmlns:xlink="http://www.w3.org/1999/xlink">
  <defs/>
  <g>
    <path stroke="none" fill="#000000" fill-opacity="0.4" d="M96.7 6 L31.2 6 Q20.95 6.3 13.6 13.6 6.25 21 6 31.35 L6 32.85 Q6.3 43.05 13.6 50.35 21 57.75 31.35 58 L96.85 58 Q102.3 57.85 106.9 55.7 110.95 53.8 114.35 50.4 L114.4 50.35 Q121.75 43 122 32.7 L122 31.2 Q121.7 20.95 114.35 13.6 110.95 10.2 106.95 8.3 102.25 6.1 96.7 6 M128 32.85 Q127.7 45.55 118.6 54.6 114.4 58.8 109.45 61.15 103.65 63.85 96.85 64 L31.2 64 Q18.45 63.7 9.35 54.6 0.3 45.55 0 32.85 L0 31.2 Q0.3 18.45 9.35 9.35 18.45 0.3 31.2 0 L96.85 0 Q103.65 0.15 109.45 2.85 114.4 5.15 118.6 9.35 127.7 18.45 128 31.2 L128 32.85"/>
    <path stroke="none" fill="#000000" fill-opacity="0.2" d="M96.7 6 Q102.25 6.1 106.95 8.3 110.95 10.2 114.35 13.6 121.7 20.95 122 31.2 L122 32.7 Q121.75 43 114.4 50.35 L114.35 50.4 Q110.95 53.8 106.9 55.7 102.3 57.85 96.85 58 L31.35 58 Q21 57.75 13.6 50.35 6.3 43.05 6 32.85 L6 31.35 Q6.25 21 13.6 13.6 20.95 6.3 31.2 6 L96.7 6"/>
    <path fill="none" stroke="#000000" stroke-width="1" stroke-opacity="0.4" stroke-linecap="round" stroke-linejoin="round" d="M96.7 6 Q102.25 6.1 106.95 8.3 110.95 10.2 114.35 13.6 121.7 20.95 122 31.2 L122 32.7 Q121.75 43 114.4 50.35 L114.35 50.4 Q110.95 53.8 106.9 55.7 102.3 57.85 96.85 58 L31.35 58 Q21 57.75 13.6 50.35 6.3 43.05 6 32.85 L6 31.35 Q6.25 21 13.6 13.6 20.95 6.3 31.2 6 L96.7 6"/>
  </g>
</svg>