<svg width="128" height="128" xmlns="http://www.w3.org/2000/svg" xmlns:xlink="http://www.w3.org/1999/xlink">
  <defs/>
  <g>
    <path stroke="none" fill="#000000" fill-opacity="0.4" d="M65.55 0.25 Q88.5 6.95 108.05 17.85 109.3 18.55 110.05 19.75 122.85 40.55 127.85 62.8 128.15 64 127.85 65.2 122.9 87.45 110.05 108.25 109.3 109.45 108.05 110.15 88.5 121.05 65.55 127.8 64 128.25 62.45 127.8 39.5 121.05 19.95 110.15 18.75 109.45 18 108.25 5.15 87.45 0.15 65.2 -0.15 64 0.15 62.8 5.15 40.55 18 19.75 18.75 18.55 19.95 17.85 39.5 6.95 62.45 0.25 64 -0.25 65.55 0.25 M105 22.95 L104.95 22.9 104.95 22.95 105 22.95 M64 6.05 Q41.9 12.5 23.05 23 10.8 42.8 6.05 64 10.8 85.2 23.05 105 41.9 115.5 64 122 86.15 115.45 105.05 104.95 117.25 85.15 122 64.05 117.2 42.85 105.05 23.05 86.15 12.55 64 6.05"/>
    <path stroke="none" fill="#33CC99" d="M105 22.95 L104.95 22.95 104.95 22.9 105 22.95"/>
    <path stroke="none" fill="#000000" fill-opacity="0.2" d="M64 6.05 Q86.15 12.55 105.05 23.05 117.2 42.85 122 64.05 117.25 85.15 105.05 104.95 86.15 115.45 64 122 41.9 115.5 23.05 105 10.8 85.2 6.05 64 10.8 42.8 23.05 23 41.9 12.5 64 6.05"/>
    <path fill="none" stroke="#000000" stroke-width="1" stroke-opacity="0.4" stroke-linecap="round" stroke-linejoin="round" d="M64 6.05 Q86.15 12.55 105.05 23.05 117.2 42.85 122 64.05 117.25 85.15 105.05 104.95 86.15 115.45 64 122 41.9 115.5 23.05 105 10.8 85.2 6.05 64 10.8 42.8 23.05 23 41.9 12.5 64 6.05"/>
    <path stroke="none" fill="#000000" fill-opacity="0.4" d="M59.15 106.35 L59 105.7 59.3 105.25 Q59.55 105 59.95 105 L68.05 105 Q68.4 105 68.7 105.25 L69 105.7 68.9 106.35 64.8 112.55 64.3 112.95 63.7 112.95 63.15 112.55 59.15 106.35"/>
    <path stroke="none" fill="#000000" fill-opacity="0.4" d="M59.15 21.65 L63.15 15.45 Q63.35 15.1 63.7 15.05 L64.3 15.05 Q64.6 15.1 64.8 15.45 L68.9 21.65 69 22.3 68.7 22.75 68.05 23 59.95 23 59.3 22.75 59 22.3 59.15 21.65"/>
    <path stroke="none" fill="#000000" fill-opacity="0.4" d="M21.65 59.15 L22.3 59 22.75 59.3 23 59.95 23 68.05 22.75 68.7 22.3 69 21.65 68.9 15.45 64.8 15.05 64.3 15.05 63.7 Q15.1 63.35 15.45 63.15 L21.65 59.15"/>
    <path stroke="none" fill="#000000" fill-opacity="0.4" d="M106.35 59.15 L112.55 63.15 112.95 63.7 112.95 64.3 112.55 64.8 106.35 68.9 105.7 69 105.25 68.7 105 68.05 105 59.95 Q105 59.55 105.25 59.3 L105.7 59 106.35 59.15"/>
    <path stroke="none" fill="#000000" fill-opacity="0.4" d="M30.6 90.5 Q30.7 90.2 30.95 89.95 L31.55 89.85 Q31.85 89.85 32.15 90.15 L37.85 95.85 38.15 96.45 38.05 97.05 37.5 97.4 30.2 98.9 29.6 98.8 29.2 98.4 Q28.95 98.15 29.05 97.75 L30.6 90.5"/>
    <path stroke="none" fill="#000000" fill-opacity="0.4" d="M90.5 30.6 L97.75 29.05 Q98.15 28.95 98.4 29.2 L98.8 29.6 98.9 30.2 97.4 37.5 97.05 38.05 96.45 38.15 Q96.1 38.1 95.85 37.85 L90.15 32.15 Q89.85 31.85 89.85 31.55 L89.95 30.95 90.5 30.6"/>
    <path stroke="none" fill="#000000" fill-opacity="0.4" d="M37.5 30.6 L38.05 30.95 38.15 31.55 37.85 32.15 32.15 37.85 Q31.9 38.1 31.55 38.15 L30.95 38.05 30.6 37.5 29.1 30.2 Q29 29.8 29.2 29.6 L29.6 29.2 Q29.85 28.95 30.25 29.05 L37.5 30.6"/>
    <path stroke="none" fill="#000000" fill-opacity="0.4" d="M97.4 90.5 L98.95 97.75 98.8 98.4 98.4 98.8 97.8 98.9 90.5 97.4 89.95 97.05 89.85 96.45 90.15 95.85 95.85 90.15 Q96.15 89.85 96.45 89.85 L97.05 89.95 97.4 90.5"/>
  </g>
</svg>