<svg width="128" height="128" xmlns="http://www.w3.org/2000/svg" xmlns:xlink="http://www.w3.org/1999/xlink">
  <defs/>
  <g>
    <path stroke="none" fill="#000000" fill-opacity="0.4" d="M120 6 L8 6 Q6 6 6 8 L6 120 Q6 122 8 122 L120 122 Q122 122 122 120 L122 8 Q122 6 120 6 M8 0 L120 0 Q128 0 128 8 L128 120 Q128 128 120 128 L8 128 Q0 128 0 120 L0 8 Q0 0 8 0"/>
    <path stroke="none" fill="#000000" fill-opacity="0.2" d="M120 6 Q122 6 122 8 L122 120 Q122 122 120 122 L8 122 Q6 122 6 120 L6 8 Q6 6 8 6 L120 6"/>
    <path fill="none" stroke="#000000" stroke-width="1" stroke-opacity="0.4" stroke-linecap="round" stroke-linejoin="round" d="M120 6 Q122 6 122 8 L122 120 Q122 122 120 122 L8 122 Q6 122 6 120 L6 8 Q6 6 8 6 L120 6"/>
    <path stroke="none" fill="#000000" fill-opacity="0.4" d="M24.6 96.5 L24.95 95.95 25.55 95.85 Q25.85 95.85 26.15 96.15 L31.85 101.85 32.15 102.45 32.05 103.05 31.5 103.4 24.25 104.9 23.6 104.8 23.2 104.4 Q23 104.1 23.1 103.75 L24.6 96.5"/>
    <path stroke="none" fill="#000000" fill-opacity="0.4" d="M96.5 24.6 L103.7 23.05 104.4 23.2 104.8 23.6 104.85 24.2 103.4 31.5 103.05 32.05 102.45 32.15 Q102.1 32.1 101.85 31.85 L96.15 26.15 Q95.85 25.85 95.85 25.55 L95.95 24.95 Q96.2 24.7 96.5 24.6"/>
    <path stroke="none" fill="#000000" fill-opacity="0.4" d="M31.5 24.6 L32.05 24.95 32.15 25.55 31.85 26.15 26.15 31.85 Q25.9 32.1 25.55 32.15 L24.95 32.05 24.6 31.5 23.1 24.25 23.2 23.6 23.6 23.2 24.25 23.1 31.5 24.6"/>
    <path stroke="none" fill="#000000" fill-opacity="0.4" d="M103.4 96.5 L104.95 103.7 104.8 104.4 104.4 104.8 103.8 104.85 96.5 103.4 95.95 103.05 95.85 102.45 96.15 101.85 101.85 96.15 Q102.15 95.85 102.45 95.85 L103.05 95.95 103.4 96.5"/>
  </g>
</svg>