<svg width="64" height="64" xmlns="http://www.w3.org/2000/svg" xmlns:xlink="http://www.w3.org/1999/xlink">
  <defs/>
  <g>
    <path stroke="none" fill="#FFFFFF" d="M43.95 21.5 L38.95 21.5 38.95 24.5 41.8 24.5 41.4 24.95 Q40.35 26 38.95 26 L37.95 25.85 Q37.1 25.6 36.45 24.95 35.45 23.95 35.45 22.55 L35.45 22.5 Q35.5 21.05 36.45 20.05 L36.5 20 Q37.5 19 38.95 19 40.4 19 41.4 20 41.85 20.45 42.45 20.45 L43.5 20 Q43.95 19.55 43.95 18.95 43.95 18.35 43.5 17.9 41.6 16 38.95 16 36.3 16 34.35 17.9 32.5 19.75 32.45 22.5 32.45 25.15 34.35 27.05 36.3 29 38.95 29 41.6 29 43.5 27.1 L43.55 27.05 Q45.2 25.45 45.45 23.2 L45.3 22.35 44.75 21.75 43.95 21.5 M43.15 8 Q50.1 7.85 51.4 16 L53.9 35 15.35 35 10.05 12 Q9.5 10.5 8.3 9.6 6.25 7.85 9.65 8 L43.15 8 M54.15 37 L54.4 39 16.3 39 15.8 37 54.15 37 M17.65 45 L17.2 43 54.95 43 55.2 45 17.65 45 M23.45 23 L23.45 19 26.45 19 Q27.3 19 27.85 19.55 28.45 20.15 28.45 21 28.45 21.85 27.85 22.4 27.3 23 26.5 23 L23.45 23 M26.45 26 L27.45 25.9 27.45 26 28.45 29 31.45 29 29.95 24.5 Q31.45 23.05 31.45 21 31.45 18.95 29.95 17.45 28.5 16 26.45 16 L20.45 16 20.45 29 23.45 29 23.45 26 26.45 26 M39 55.95 Q24.25 56.45 19.85 51 L55.05 51 Q52.65 56.45 39 55.95"/>
  </g>
</svg>