<svg width="64" height="64" xmlns="http://www.w3.org/2000/svg" xmlns:xlink="http://www.w3.org/1999/xlink">
  <defs/>
  <g>
    <path stroke="none" fill="#FFFFFF" d="M12.5 52.1 Q13.7 53.15 15.85 53 L16 53 46.05 53 Q48.85 52.95 50.75 50.7 53 47.7 53 42.85 L51.95 33.1 51.5 28.05 51.5 27.9 Q51.35 24.05 51.85 19.05 L51.85 18.9 53 11 15.95 11 Q11.25 11.05 11 16.15 L11 47.75 Q11.25 50.65 12.5 52.1 M40.5 27.4 Q40.1 27 39.5 27 L37.95 27 37.85 27 Q37.55 27.05 37.3 27.3 37 27.6 37 28 L33 28 33.1 27 Q33.35 25.6 34.4 24.5 L34.5 24.4 Q35.9 23.05 37.85 23 L39.5 23 Q41.75 23 43.35 24.6 L43.4 24.65 44.4 26 Q45.65 29.35 43.45 31.55 L39 36 45 36 45 40 37.95 40 37.85 40 33 40 33 36 40 29.45 Q41.25 28.15 40.5 27.4 M17 23 L24 23 Q26.5 23 28.25 24.75 30 26.5 30 29 30 31.45 28.25 33.2 L28.2 33.25 27.45 33.9 30.5 40 26.5 40 24 35 21 35 21 40 17 40 17 23 M24 27 L21 27 21 31 24 31 Q24.8 31 25.35 30.45 L25.45 30.35 Q26 29.8 26 29 26 28.2 25.4 27.6 24.8 27 24 27 M46.05 56 L16 56 Q8.75 56.45 8 48 L8 16 Q8.4 7.9 16 8 L54.05 8 Q54.9 8 55.5 8.95 56 9.8 56 11.05 L54.8 19.3 Q54.35 24.2 54.5 27.9 L54.9 32.75 56 42.75 Q56 48.85 53.1 52.55 50.3 56 46.05 56"/>
  </g>
</svg>