<svg width="64" height="64" xmlns="http://www.w3.org/2000/svg" xmlns:xlink="http://www.w3.org/1999/xlink">
  <defs/>
  <g>
    <path stroke="none" fill="#FFFFFF" d="M16 8 L48 8 Q56 8 56 16 L56 48 Q56 56 48 56 L16 56 Q8 56 8 48 L8 16 Q8 8 16 8 M11 16 L11 48 Q11 53 16 53 L48 53 Q53 53 53 48 L53 16 Q53 11 48 11 L16 11 Q11 11 11 16 M45 40 L41 40 41 38 33 38 33 32 39 24 45 24 45 34 47 34 47 38 45 38 45 40 M41 34 L41 28 37 34 41 34 M17 24 L24 24 Q26.5 24 28.25 25.75 30 27.5 30 30 30 32.45 28.25 34.2 L28.2 34.25 27.45 34.9 30 40 26 40 24 36 21 36 21 40 17 40 17 24 M24 28 L21 28 21 32 24 32 Q24.8 32 25.35 31.45 L25.45 31.35 Q26 30.8 26 30 26 29.2 25.4 28.6 24.8 28 24 28"/>
  </g>
</svg>