<svg width="64" height="64" xmlns="http://www.w3.org/2000/svg" xmlns:xlink="http://www.w3.org/1999/xlink">
  <defs/>
  <g>
    <path stroke="none" fill="#FFFFFF" d="M16 8 L48 8 Q56 8 56 16 L56 48 Q56 56 48 56 L16 56 Q8 56 8 48 L8 16 Q8 8 16 8 M45 40 L45 38 47 38 47 34 45 34 45 24 39 24 33 32 33 38 41 38 41 40 45 40 M41 34 L37 34 41 28 41 34 M24 28 Q24.8 28 25.4 28.6 26 29.2 26 30 26 30.8 25.45 31.35 L25.35 31.45 Q24.8 32 24 32 L21 32 21 28 24 28 M17 24 L17 40 21 40 21 36 24 36 26 40 30 40 27.45 34.9 28.2 34.25 28.25 34.2 Q30 32.45 30 30 30 27.5 28.25 25.75 26.5 24 24 24 L17 24"/>
  </g>
</svg>