<svg width="64" height="64" xmlns="http://www.w3.org/2000/svg" xmlns:xlink="http://www.w3.org/1999/xlink">
  <defs/>
  <g>
    <path stroke="none" fill="#FFFFFF" d="M43.6 8 Q50.55 7.85 51.85 16 L56 47.95 Q56.5 56.55 39.45 55.95 21.1 56.6 18.8 48 L10.5 12 Q9.95 10.5 8.75 9.6 6.7 7.85 10.1 8 L43.6 8 M44.5 21.5 L39.5 21.5 39.5 24.5 42.35 24.5 41.95 24.95 Q40.9 26 39.5 26 L38.5 25.85 37 24.95 Q36 23.95 36 22.55 L36 22.5 Q36.05 21.05 37 20.05 L37.05 20 Q38.05 19 39.5 19 40.95 19 41.95 20 42.4 20.45 43 20.45 43.6 20.45 44.05 20 L44.5 18.95 Q44.5 18.35 44.05 17.9 42.15 16 39.5 16 36.85 16 34.9 17.9 33.05 19.75 33 22.5 33 25.15 34.9 27.05 36.85 29 39.5 29 42.15 29 44.05 27.1 L44.1 27.05 Q45.75 25.45 46 23.2 L45.85 22.35 45.3 21.75 44.5 21.5 M27 26 L28 25.9 28 26 29 29 32 29 30.5 24.5 Q32 23.05 32 21 32 18.95 30.5 17.45 29.05 16 27 16 L21 16 21 29 24 29 24 26 27 26 M24 23 L24 19 27 19 Q27.85 19 28.4 19.55 29 20.15 29 21 29 21.85 28.4 22.4 27.85 23 27.05 23 L24 23"/>
  </g>
</svg>