<svg width="64" height="64" xmlns="http://www.w3.org/2000/svg" xmlns:xlink="http://www.w3.org/1999/xlink">
  <defs/>
  <g>
    <path stroke="none" fill="#FFFFFF" d="M41.5 21.5 L36.5 21.5 36.5 24.5 39.35 24.5 38.95 24.95 Q37.9 26 36.5 26 L35.5 25.85 34 24.95 Q33 23.95 33 22.55 L33 22.5 Q33.05 21.05 34 20.05 L34.05 20 Q35.05 19 36.5 19 37.95 19 38.95 20 39.4 20.45 40 20.45 40.6 20.45 41.05 20 L41.5 18.95 Q41.5 18.35 41.05 17.9 39.15 16 36.5 16 33.85 16 31.9 17.9 30.05 19.75 30 22.5 30 25.15 31.9 27.05 33.85 29 36.5 29 39.15 29 41.05 27.1 L41.1 27.05 Q42.75 25.45 43 23.2 L42.85 22.35 42.3 21.75 41.5 21.5 M24.55 55.95 Q10.9 56.45 8.5 51 L43.7 51 Q39.3 56.45 24.55 55.95 M23 26 L23 16 20 16 20 29 29 29 29 26 23 26 M46.35 43 L45.9 45 8.4 45 8.65 43 46.35 43 M9.2 39 L9.45 37 47.75 37 47.3 39 9.2 39 M20.4 8 L53.9 8 Q57.3 7.85 55.25 9.6 54.05 10.5 53.5 12 L48.2 35 9.7 35 12.15 16 Q13.45 7.85 20.4 8"/>
  </g>
</svg>