<svg width="64" height="64" xmlns="http://www.w3.org/2000/svg" xmlns:xlink="http://www.w3.org/1999/xlink">
  <defs/>
  <g>
    <path stroke="none" fill="#FFFFFF" d="M31.95 14 Q39.45 14 44.7 19.3 50 24.6 50 32.05 50 39.45 44.7 44.75 39.45 50 31.95 50 25.85 50 21 46.35 16.25 42.7 14.6 36.9 L21.55 39.75 Q21.9 41.55 23.3 42.75 24.7 43.9 26.55 43.9 28.65 43.9 30.15 42.4 31.65 40.9 31.65 38.8 L31.65 38.55 37.8 34.2 37.95 34.2 Q40.75 34.2 42.75 32.2 44.7 30.2 44.7 27.4 44.7 24.6 42.75 22.6 40.75 20.6 37.95 20.6 35.1 20.6 33.15 22.6 31.1 24.6 31.1 27.4 L31.1 27.45 26.85 33.7 26.55 33.7 Q24.95 33.7 23.7 34.6 L14 30.6 Q14.55 23.6 19.7 18.85 24.9 14 31.95 14 M56 32 Q56 42 48.95 48.95 42 56 32 56 22.05 56 15 48.95 8 42 8 32 8 22.05 15 15 21.4 8.6 30.25 8.05 L32 8 33 8.05 Q42.35 8.35 48.95 15 56 22.05 56 32 M25.3 41.35 Q26.4 41.8 27.45 41.35 28.55 40.9 29 39.85 29.45 38.75 29 37.65 28.55 36.6 27.45 36.15 L25.2 35.2 28.05 35.25 Q29.5 35.85 30.1 37.35 30.7 38.8 30.1 40.2 29.45 41.7 28 42.3 26.55 42.9 25.05 42.3 23.7 41.75 23.1 40.45 L25.3 41.35 M34.5 27.35 Q34.5 28.8 35.55 29.75 36.5 30.75 37.95 30.75 39.35 30.75 40.35 29.75 41.35 28.8 41.35 27.35 41.35 25.95 40.35 24.95 39.35 24 37.95 24 36.5 24 35.55 24.95 34.5 25.95 34.5 27.35 M42.45 27.4 Q42.45 29.25 41.1 30.6 39.8 31.9 37.95 31.9 36.05 31.9 34.7 30.6 33.4 29.25 33.4 27.4 33.4 25.5 34.7 24.15 36.05 22.85 37.95 22.85 39.8 22.85 41.1 24.15 42.45 25.5 42.45 27.4 M32 11 L30.25 11.1 Q22.65 11.65 17.15 17.15 11 23.3 11 32 11 40.75 17.15 46.85 23.3 53 32 53 40.75 53 46.85 46.85 53 40.75 53 32 53 23.3 46.85 17.15 41.1 11.35 33 11.05 L32 11"/>
  </g>
</svg>