<svg width="64" height="64" xmlns="http://www.w3.org/2000/svg" xmlns:xlink="http://www.w3.org/1999/xlink">
  <defs/>
  <g>
    <path stroke="none" fill="#FFFFFF" d="M17.95 56 Q13.7 56 10.9 52.55 8 48.85 8 42.75 L9.1 32.75 9.5 27.9 Q9.65 24.2 9.2 19.3 L8 11.05 Q8 9.8 8.5 8.95 9.1 8 9.95 8 L48 8 Q55.6 7.9 56 16 L56 48 Q55.25 56.45 48 56 L17.95 56 M48.05 11 L11.05 11 12.2 18.9 12.2 19.05 Q12.65 24.05 12.5 27.9 L12.5 28.05 12.1 33.1 11 42.85 Q11 47.7 13.25 50.7 L13.25 50.65 Q15.1 52.95 17.95 53 L48 53 48.2 53 Q50.3 53.15 51.5 52.1 52.75 50.65 53 47.75 L53 16.15 Q52.75 11.05 48.05 11 M41.5 27.4 Q41.1 27 40.5 27 L38.95 27 38.85 27 38.3 27.3 Q38 27.6 38 28 L34 28 34.1 27 Q34.35 25.6 35.4 24.5 L35.5 24.4 Q36.9 23.05 38.85 23 L40.5 23 Q42.75 23 44.35 24.6 L44.4 24.65 45.4 26 Q46.65 29.35 44.45 31.55 L40 36 46 36 46 40 38.95 40 38.85 40 34 40 34 36 41 29.45 Q42.25 28.15 41.5 27.4 M19 23 L23 23 23 36 31 36 31 40 19 40 19 23"/>
  </g>
</svg>