<svg width="64" height="64" xmlns="http://www.w3.org/2000/svg" xmlns:xlink="http://www.w3.org/1999/xlink">
  <defs/>
  <g>
    <path stroke="none" fill="#FFFFFF" d="M44.5 21.5 L45.3 21.75 45.85 22.35 46 23.2 Q45.75 25.45 44.1 27.05 L44.05 27.1 Q42.15 29 39.5 29 36.85 29 34.9 27.05 33 25.15 33 22.5 33.05 19.75 34.9 17.9 36.85 16 39.5 16 42.15 16 44.05 17.9 44.5 18.35 44.5 18.95 L44.05 20 Q43.6 20.45 43 20.45 42.4 20.45 41.95 20 40.95 19 39.5 19 38.05 19 37.05 20 L37 20.05 Q36.05 21.05 36 22.5 L36 22.55 Q36 23.95 37 24.95 L38.5 25.85 39.5 26 Q40.9 26 41.95 24.95 L42.35 24.5 39.5 24.5 39.5 21.5 44.5 21.5 M13.45 11.35 L21.7 47.25 Q23.95 53.5 39.35 52.95 L39.55 52.95 Q47.1 53.2 50.8 51.55 53.1 50.45 53 48.15 L48.9 16.4 48.9 16.5 Q48.05 11.1 43.7 11 L43.6 11 13.35 11 13.45 11.35 M43.6 8 Q50.55 7.85 51.85 16 L56 47.95 Q56.5 56.55 39.45 55.95 21.1 56.6 18.8 48 L10.5 12 Q9.95 10.5 8.75 9.6 6.7 7.85 10.1 8 L43.6 8 M24 23 L27.05 23 Q27.85 23 28.4 22.4 29 21.85 29 21 29 20.15 28.4 19.55 27.85 19 27 19 L24 19 24 23 M27 26 L24 26 24 29 21 29 21 16 27 16 Q29.05 16 30.5 17.45 32 18.95 32 21 32 23.05 30.5 24.5 L32 29 29 29 28 26 28 25.9 27 26"/>
    <path stroke="none" fill="#FFFFFF" d="M19.15 36 L18.7 34 51.2 34 51.45 36 19.15 36 M53 48.15 Q53.1 50.45 50.8 51.55 47.1 53.2 39.55 52.95 L39.35 52.95 Q23.95 53.5 21.7 47.25 L20.95 44 52.45 44 53 48.15 M20.5 42 L19.6 38 51.7 38 52.2 42 20.5 42"/>
  </g>
</svg>