<svg width="64" height="64" xmlns="http://www.w3.org/2000/svg" xmlns:xlink="http://www.w3.org/1999/xlink">
  <defs/>
  <g>
    <path stroke="none" fill="#FFFFFF" d="M17.95 56 Q13.7 56 10.9 52.55 8 48.85 8 42.75 L9.1 32.75 9.5 27.9 Q9.65 24.2 9.2 19.3 L8 11.05 Q8 9.8 8.5 8.95 9.1 8 9.95 8 L48 8 Q55.6 7.9 56 16 L56 48 Q55.25 56.45 48 56 L17.95 56 M19 23 L19 40 31 40 31 36 23 36 23 23 19 23 M41.5 27.4 Q42.25 28.15 41 29.45 L34 36 34 40 38.85 40 38.95 40 46 40 46 36 40 36 44.45 31.55 Q46.65 29.35 45.4 26 L44.4 24.65 44.35 24.6 Q42.75 23 40.5 23 L38.85 23 Q36.9 23.05 35.5 24.4 L35.4 24.5 Q34.35 25.6 34.1 27 L34 28 38 28 Q38 27.6 38.3 27.3 L38.85 27 38.95 27 40.5 27 Q41.1 27 41.5 27.4"/>
  </g>
</svg>