<svg width="64" height="64" xmlns="http://www.w3.org/2000/svg" xmlns:xlink="http://www.w3.org/1999/xlink">
  <defs/>
  <g>
    <path stroke="none" fill="#FFFFFF" d="M20.4 8 L53.9 8 Q57.3 7.85 55.25 9.6 54.05 10.5 53.5 12 L45.2 48 Q42.9 56.6 24.55 55.95 7.5 56.55 8 47.95 L12.15 16 Q13.45 7.85 20.4 8 M41.5 21.5 L42.3 21.75 42.85 22.35 43 23.2 Q42.75 25.45 41.1 27.05 L41.05 27.1 Q39.15 29 36.5 29 33.85 29 31.9 27.05 30 25.15 30 22.5 30.05 19.75 31.9 17.9 33.85 16 36.5 16 39.15 16 41.05 17.9 41.5 18.35 41.5 18.95 L41.05 20 Q40.6 20.45 40 20.45 39.4 20.45 38.95 20 37.95 19 36.5 19 35.05 19 34.05 20 L34 20.05 Q33.05 21.05 33 22.5 L33 22.55 Q33 23.95 34 24.95 L35.5 25.85 36.5 26 Q37.9 26 38.95 24.95 L39.35 24.5 36.5 24.5 36.5 21.5 41.5 21.5 M13.2 51.55 Q16.9 53.2 24.45 52.95 L24.65 52.95 Q40.05 53.5 42.3 47.25 L50.6 11.35 50.7 11 20.35 11 Q15.95 11.1 15.15 16.5 L15.15 16.4 11 48.15 Q10.9 50.45 13.2 51.55 M23 26 L29 26 29 29 20 29 20 16 23 16 23 26"/>
    <path stroke="none" fill="#FFFFFF" d="M44.45 38 L43.55 42 11.8 42 12.35 38 44.45 38 M13.2 51.55 Q10.9 50.45 11 48.15 L11.55 44 43.05 44 42.3 47.25 Q40.05 53.5 24.65 52.95 L24.45 52.95 Q16.9 53.2 13.2 51.55 M45.4 34 L44.95 36 12.6 36 12.85 34 45.4 34"/>
  </g>
</svg>