<svg width="64" height="64" xmlns="http://www.w3.org/2000/svg" xmlns:xlink="http://www.w3.org/1999/xlink">
  <defs/>
  <g>
    <path stroke="none" fill="#FFFFFF" d="M46.05 56 L16 56 Q8.75 56.45 8 48 L8 16 Q8.4 7.9 16 8 L54.05 8 Q54.9 8 55.5 8.95 56 9.8 56 11.05 L54.8 19.3 Q54.35 24.2 54.5 27.9 L54.9 32.75 56 42.75 Q56 48.85 53.1 52.55 50.3 56 46.05 56 M40.5 27.4 Q41.25 28.15 40 29.45 L33 36 33 40 37.85 40 37.95 40 45 40 45 36 39 36 43.45 31.55 Q45.65 29.35 44.4 26 L43.4 24.65 43.35 24.6 Q41.75 23 39.5 23 L37.85 23 Q35.9 23.05 34.5 24.4 L34.4 24.5 Q33.35 25.6 33.1 27 L33 28 37 28 Q37 27.6 37.3 27.3 37.55 27.05 37.85 27 L37.95 27 39.5 27 Q40.1 27 40.5 27.4 M24 27 Q24.8 27 25.4 27.6 26 28.2 26 29 26 29.8 25.45 30.35 L25.35 30.45 Q24.8 31 24 31 L21 31 21 27 24 27 M17 23 L17 40 21 40 21 35 24 35 26.5 40 30.5 40 27.45 33.9 28.2 33.25 28.25 33.2 Q30 31.45 30 29 30 26.5 28.25 24.75 26.5 23 24 23 L17 23"/>
  </g>
</svg>