<svg width="64" height="64" xmlns="http://www.w3.org/2000/svg" xmlns:xlink="http://www.w3.org/1999/xlink">
  <defs/>
  <g>
    <path stroke="none" fill="#FFFFFF" d="M10.35 13.75 L45.35 8.05 Q46.1 7.9 46.7 8.3 49.85 10.25 52.2 14.2 56 20.7 56 30.8 56 40.65 52.35 48.05 50.1 52.6 46.9 55.5 46.1 56.2 45.05 55.95 L10.05 48.75 Q8.85 48.5 8.3 47.45 7.8 46.35 8.15 45.25 11.35 36.55 11.35 30.8 11.35 25.3 8.3 17.4 7.95 16.2 8.55 15.05 9.15 13.9 10.35 13.75 M44.5 30.5 L45.3 30.75 45.85 31.35 46 32.2 Q45.75 34.45 44.1 36.05 L44.05 36.1 Q42.15 38 39.5 38 36.85 38 34.9 36.05 33 34.15 33 31.5 33.05 28.75 34.9 26.9 36.85 25 39.5 25 42.15 25 44.05 26.9 44.5 27.35 44.5 27.95 L44.05 29 Q43.6 29.45 43 29.45 42.4 29.45 41.95 29 40.95 28 39.5 28 38.05 28 37.05 29 L37 29.05 Q36.05 30.05 36 31.5 L36 31.55 Q36 32.95 37 33.95 L38.5 34.85 39.5 35 Q40.9 35 41.95 33.95 L42.35 33.5 39.5 33.5 39.5 30.5 44.5 30.5 M49.6 15.75 L49.65 15.75 Q47.8 12.7 45.45 11.05 L11.25 16.65 Q14.4 24.95 14.35 30.8 14.4 36.85 11.1 45.9 L45.25 52.95 Q47.8 50.45 49.65 46.75 53 39.9 53 30.8 53 21.65 49.6 15.75 M11.05 46.2 L11 46.15 11 46.2 11.05 46.2 M27 35 L24 35 24 38 21 38 21 25 27 25 Q29.05 25 30.5 26.45 32 27.95 32 30 32 32.05 30.5 33.5 L32 38 29 38 28 35 28 34.9 27 35 M24 32 L27.05 32 Q27.85 32 28.4 31.4 29 30.85 29 30 29 29.15 28.4 28.55 27.85 28 27 28 L24 28 24 32"/>
    <path stroke="none" fill="#CCFF33" d="M11.05 46.2 L11 46.2 11 46.15 11.05 46.2"/>
  </g>
</svg>