<svg width="64" height="64" xmlns="http://www.w3.org/2000/svg" xmlns:xlink="http://www.w3.org/1999/xlink">
  <defs/>
  <g>
    <path stroke="none" fill="#FFFFFF" d="M12.1 13.25 L52.9 19.1 53.1 19.15 Q54.3 19.35 55.05 20.3 L55.1 20.3 Q56 21.3 56 22.65 L56 48.85 55.65 49.95 54.8 50.7 53.7 50.85 9.7 44.6 Q9 44.5 8.5 43.95 8 43.35 8 42.65 L8 16.8 Q8 15.15 9.2 14.1 L9.3 14.05 9.35 14 Q10.5 13 12.1 13.25 M11.7 16.25 L11.65 16.25 11.35 16.3 11.1 16.5 11 16.8 11 41.75 53 47.75 53 22.65 53 22.45 52.7 22.15 52.6 22.1 52.5 22.1 11.7 16.25 M40 39 L33 39 33 26 40 26 Q41.6 26 42.8 27.2 44 28.4 44 30 44 31.45 43.1 32.5 44 33.6 44 35 44 36.65 42.8 37.8 41.6 39 40 39 M40 31 Q40.45 31 40.7 30.7 L41 30 40.7 29.3 Q40.45 29 40 29 L36 29 36 31 40 31 M40 36 Q40.45 36 40.7 35.7 L41 35 40.7 34.3 Q40.45 34 40 34 L36 34 36 36 40 36 M25 36 L22 36 22 39 19 39 19 26 25 26 Q27.05 26 28.5 27.45 30 28.95 30 31 30 33.05 28.5 34.5 L30 39 27 39 26 36 26 35.9 25 36 M22 33 L25.05 33 Q25.85 33 26.4 32.4 27 31.85 27 31 27 30.15 26.4 29.55 25.85 29 25 29 L22 29 22 33"/>
  </g>
</svg>