<svg width="64" height="64" xmlns="http://www.w3.org/2000/svg" xmlns:xlink="http://www.w3.org/1999/xlink">
  <defs/>
  <g>
    <path stroke="none" fill="#FFFFFF" d="M33 28 L33 25 44 25 44 28 40 28 40 38 37 38 37 28 33 28 M49.5 49.5 Q43 56 33.8 56 25.5 56 19.15 50.6 L19.05 50.5 Q12.85 45 11.75 36.8 L8 10.3 Q7.95 9.65 8.2 9.1 8.5 8.5 9.05 8.25 L10.3 8.05 54.25 14.15 Q55 14.25 55.5 14.8 56 15.35 56 16.15 L56 33.75 Q56 43 49.5 49.5 M14.75 36.4 Q15.6 42.95 20.25 47.5 L21.5 48.65 Q26.85 53 33.8 53 41.75 53 47.4 47.4 53 41.75 53 33.75 L53 17 11.15 11.2 14.75 36.4 M27 35 L33 35 33 38 24 38 24 25 27 25 27 35"/>
  </g>
</svg>