<svg width="64" height="64" xmlns="http://www.w3.org/2000/svg" xmlns:xlink="http://www.w3.org/1999/xlink">
  <defs/>
  <g>
    <path stroke="none" fill="#FFFFFF" d="M11 33.75 Q11 41.75 16.65 47.4 22.25 53 30.2 53 37.15 53 42.55 48.65 43.1 47.75 43.75 47.5 48.4 42.95 49.3 36.4 L52.85 11.2 11 17 11 33.75 M14.5 49.5 Q8 43 8 33.75 L8 16.15 Q8 15.35 8.5 14.8 9 14.25 9.75 14.15 L53.7 8.05 54.95 8.25 55.8 9.1 56 10.3 52.25 36.8 Q51.15 45 44.95 50.5 L44.85 50.6 Q38.5 56 30.2 56 21 56 14.5 49.5 M32 28 L32 25 43 25 43 28 39 28 39 38 36 38 36 28 32 28 M25 35 L22 35 22 38 19 38 19 25 25 25 Q27.05 25 28.5 26.45 30 27.95 30 30 30 32.05 28.5 33.5 L30 38 27 38 26 35 26 34.9 25 35 M22 32 L25.05 32 Q25.85 32 26.4 31.4 27 30.85 27 30 27 29.15 26.4 28.55 25.85 28 25 28 L22 28 22 32"/>
  </g>
</svg>