<svg width="64" height="64" xmlns="http://www.w3.org/2000/svg" xmlns:xlink="http://www.w3.org/1999/xlink">
  <defs/>
  <g>
    <path stroke="none" fill="#FFFFFF" d="M40.8 53.8 L39.75 53.6 Q30.6 50.95 26.6 39.6 L26.2 38.5 Q25.8 37.3 26.35 36.25 26.9 35.15 28.1 34.75 L30.4 34.95 Q31.45 35.5 31.85 36.65 L32.65 38.5 Q34.8 40.2 35.8 37.85 36.7 33.4 35.35 31.5 33.55 28.95 33.5 27.55 33.4 26.1 34.45 25.05 35.4 24 36.85 24 38.3 23.9 39.35 24.9 42.05 27.1 42.9 31.9 44.4 31.65 45.65 32.35 47.7 33.45 47.7 35.4 49.1 35.2 50.4 35.95 51.7 36.7 51.85 38.15 52.3 41.55 51.75 45.85 50.2 51.7 45.8 53.45 L40.8 53.8 M28.75 13.55 L28.8 13.55 33.35 13.8 Q36.2 14.55 38.2 16.35 L38.45 16.8 38.5 17.35 38.2 17.8 36 20.05 35.3 20.35 Q34.9 20.35 34.6 20.05 33.55 19.1 32 18.7 30.85 18.5 28.9 18.7 L30.6 19.8 Q31.2 20.1 31.35 20.75 L31.2 21.85 31.15 21.9 Q30.8 22.45 30.15 22.55 L30.1 22.55 28.95 22.4 28.9 22.35 22.8 18.6 22.7 18.5 22.2 18 22.1 17.8 Q21.9 17.45 22 17 L22 16.95 22.3 16.25 27.4 10.5 27.4 10.45 27.5 10.35 27.6 10.3 Q27.9 10 28.35 10 L28.45 10 28.5 10 Q29 9.95 29.5 10.3 L29.8 10.55 30.05 11.4 30.1 11.75 29.7 12.5 28.75 13.55 M19.2 20.05 L20 20.15 20.25 20.25 20.7 20.65 20.8 20.75 24.8 27 24.85 27.15 25 28.05 24.95 28.25 Q24.8 28.85 24.25 29.2 L24.2 29.2 23.2 29.45 23.1 29.4 Q22.45 29.25 22.2 28.75 L22.15 28.75 22.1 28.65 20.95 27 Q20.75 28.9 20.95 30.05 21.35 31.6 22.35 32.7 L22.65 33.4 22.35 34.1 20 36.35 19.3 36.6 18.6 36.3 Q16.7 34.3 15.9 31.4 15.4 29.6 15.65 26.85 L15.65 26.8 14.6 27.75 14.5 27.85 13.75 28.15 13.4 28.1 12.6 27.9 12.3 27.6 Q11.95 27.1 12 26.55 L12 26.5 12 26.4 Q12 25.85 12.4 25.5 L12.4 25.55 12.45 25.5 12.5 25.45 18.3 20.5 18.45 20.35 Q18.75 20.15 19.05 20.1 L19.2 20.05"/>
  </g>
</svg>