<svg width="64" height="64" xmlns="http://www.w3.org/2000/svg" xmlns:xlink="http://www.w3.org/1999/xlink">
  <defs/>
  <g>
    <path stroke="none" fill="#FFFFFF" fill-opacity="0" d="M36.5 27.95 L37.55 30.55 Q38.8 30 40.25 30 L40.3 30 Q42.7 29.95 44.3 30.95 L46.25 30.7 Q49.25 30.7 51.05 33.1 L51.1 33.15 Q53.3 36.2 55.15 40.65 L55.3 41.05 Q57.35 48.6 53.5 53.4 L53.4 53.55 Q51.25 56 48.05 57.2 L48 57.25 Q44.7 58.45 41.1 57.75 L40.95 57.7 Q38.5 57.05 36.3 55.7 L36.25 55.7 Q33.35 53.95 30.55 53.65 L30.3 53.65 Q26.7 53.85 24.9 52.75 22 51.15 22 47.65 L22 47.6 Q22 45.4 23.4 43.7 L23.65 43.4 Q25 42.1 27.05 41.75 L27.15 41.75 28.7 41.6 25.05 31.7 25.05 31.75 Q24.05 29.1 25.15 26.95 L25.25 26.75 Q25.85 25.05 29.25 24.25 L29.3 24.25 Q32.6 23.45 34.35 25.1 L34.45 25.15 Q35.5 26 36.35 27.55 L36.5 27.95 M36 34.75 L33.7 29.05 32.5 27.45 Q31.6 26.75 29.95 27.15 28.25 27.55 27.85 28.3 27.35 29.35 27.85 30.65 L32.4 43 Q32.85 44.6 30.75 44.7 29.05 44.5 27.55 44.7 26.45 44.95 25.7 45.65 25 46.5 25 47.65 24.95 51 30.45 50.65 34.1 50.85 37.8 53.1 39.65 54.2 41.7 54.75 L46.95 54.35 Q49.45 53.45 51.1 51.55 54 47.75 52.4 41.8 50.7 37.75 48.65 34.95 47.75 33.75 46.25 33.75 44.75 33.75 43.65 34.65 42.65 32.95 40.3 33 38.3 33 36.8 34.8 L36 34.75"/>
    <path stroke="none" fill="#FFFFFF" d="M36 34.75 L36.8 34.8 Q38.3 33 40.3 33 42.65 32.95 43.65 34.65 44.75 33.75 46.25 33.75 47.75 33.75 48.65 34.95 50.7 37.75 52.4 41.8 54 47.75 51.1 51.55 49.45 53.45 46.95 54.35 L41.7 54.75 Q39.65 54.2 37.8 53.1 34.1 50.85 30.45 50.65 24.95 51 25 47.65 25 46.5 25.7 45.65 26.45 44.95 27.55 44.7 29.05 44.5 30.75 44.7 32.85 44.6 32.4 43 L27.85 30.65 Q27.35 29.35 27.85 28.3 28.25 27.55 29.95 27.15 31.6 26.75 32.5 27.45 L33.7 29.05 36 34.75"/>
  </g>
</svg>