<svg width="64" height="64" xmlns="http://www.w3.org/2000/svg" xmlns:xlink="http://www.w3.org/1999/xlink">
  <defs/>
  <g>
    <path stroke="none" fill="#FFFFFF" d="M44.05 32.45 Q43.95 33.1 44.6 33.05 46.95 32.85 48.35 34.25 50.05 35.85 49.55 37.75 51 37.95 52.05 39 53.15 40.05 52.95 41.55 52.4 44.9 50.7 48.95 47.6 54.3 42.85 54.9 40.3 55.1 37.85 54 35.4 52.85 33.8 50.55 32.75 48.75 32.25 46.65 31.2 42.5 28.75 39.75 24.55 36.15 27 33.75 27.8 32.95 28.9 32.85 29.95 32.9 30.9 33.5 32.15 34.4 33.2 35.75 34.75 37.2 35.6 35.75 L41.15 23.85 Q41.75 22.55 42.85 22.2 43.65 21.9 45.15 22.85 46.6 23.7 46.75 24.85 L46.45 26.8 44.05 32.45 M32.15 13.55 L31.2 12.5 Q30.85 12.1 30.85 11.75 L30.85 11.4 31.15 10.55 31.4 10.3 32.45 10 32.55 10 Q33.05 10 33.4 10.35 L33.5 10.45 33.55 10.5 38.55 16.2 38.6 16.25 38.9 16.95 38.9 17 38.85 17.8 38.7 18 38.25 18.5 38.15 18.6 32.05 22.35 31.95 22.4 30.9 22.6 30.8 22.55 Q30.1 22.4 29.8 21.9 L29.75 21.8 Q29.4 21.35 29.55 20.85 L29.55 20.75 Q29.7 20.1 30.35 19.8 L30.3 19.8 32 18.7 Q30.05 18.5 28.95 18.7 27.35 19.1 26.3 20.05 26 20.35 25.6 20.35 25.2 20.3 24.95 20.05 L22.7 17.8 22.45 17.35 22.45 16.8 22.75 16.35 Q24.7 14.55 27.55 13.8 L32.15 13.55 M24.2 27.8 Q24.8 28.15 24.95 28.8 L25 29.05 24.9 29.8 24.8 30 20.8 36.25 20.7 36.35 20.25 36.75 20 36.9 19.2 37 19 36.95 18.45 36.65 18.4 36.65 12.45 31.6 12.25 31.35 12 30.6 12 30.5 Q11.95 29.95 12.3 29.45 L12.6 29.15 Q12.9 28.95 13.4 28.9 L13.75 28.9 Q14.1 28.9 14.5 29.2 L14.6 29.25 15.65 30.2 Q15.4 27.4 15.9 25.6 L15.9 25.65 Q16.7 22.7 18.6 20.75 18.85 20.4 19.3 20.4 19.7 20.4 20 20.7 L22.35 22.9 22.65 23.6 22.35 24.3 Q21.35 25.35 20.95 26.95 20.75 28.1 20.95 30.05 L22.1 28.35 22.15 28.3 Q22.45 27.75 23.1 27.6 L24.2 27.8 M20.95 30.05 L21 30.1 21 30.05 20.95 30.05"/>
  </g>
</svg>