<svg width="64" height="64" xmlns="http://www.w3.org/2000/svg" xmlns:xlink="http://www.w3.org/1999/xlink">
  <defs/>
  <g>
    <path stroke="none" fill="#FFFFFF" d="M36 32.75 L36.8 32.8 Q38.3 31 40.3 31 42.65 30.95 43.65 32.65 44.75 31.75 46.25 31.75 47.75 31.75 48.65 32.95 50.7 35.75 52.4 39.8 54 45.75 51.1 49.55 49.45 51.45 46.95 52.35 L41.7 52.75 Q39.65 52.2 37.8 51.1 34.1 48.85 30.45 48.65 24.95 49 25 45.65 25 44.5 25.7 43.65 26.45 42.95 27.55 42.7 29.05 42.5 30.75 42.7 32.85 42.6 32.4 41 L27.85 28.65 Q27.35 27.35 27.85 26.3 28.25 25.55 29.95 25.15 31.6 24.75 32.5 25.45 L33.7 27.05 36 32.75 M28.5 12 L31.8 12.3 32.05 11.4 Q32.15 10.8 32.8 10.4 33.2 10.05 33.75 10 L33.95 10.05 Q34.55 10.15 34.85 10.7 L37.8 15.5 38 16.45 37.7 17.5 37.7 17.4 37.05 18.15 Q34.6 19.5 32.1 20.8 L31 20.95 30.85 20.9 Q30.35 20.6 30.2 20 29.85 19.45 30.1 18.75 L30.1 18.8 30.5 17.25 28.5 17.05 Q23.75 17.05 20.4 20.35 L20.35 20.4 Q17.05 23.8 17.05 28.5 17.05 29.55 16.3 30.3 L16.3 30.35 Q15.55 31 14.5 31 13.45 31 12.75 30.3 12 29.55 12 28.5 12 21.75 16.85 16.85 21.7 12 28.5 12"/>
  </g>
</svg>