<svg width="64" height="64" xmlns="http://www.w3.org/2000/svg" xmlns:xlink="http://www.w3.org/1999/xlink">
  <defs/>
  <g>
    <path stroke="none" fill="#FFFFFF" d="M50 20 L44 26 42 26 42 22 34 22 34 18 42 18 42 14 44 14 50 20 M14 20 L20 14 22 14 22 18 30 18 30 22 22 22 22 26 20 26 14 20 M34 35 L35.3 34.55 33.05 28.55 Q32.55 27.3 33.05 26.25 33.45 25.5 35.15 25.1 36.8 24.7 37.7 25.4 L38.9 27 41.8 34.6 Q43 34 44.3 34 45.75 34 46.65 35.2 48.7 37.95 50.4 41.95 52 47.9 49.1 51.65 47.45 53.55 44.95 54.45 42.5 55.35 39.75 54.85 37.65 54.3 35.8 53.2 32.1 50.95 28.45 50.75 22.95 51.1 23 47.8 23 46.65 23.7 45.8 24.45 45.1 25.55 44.85 27.05 44.65 28.75 44.85 30.85 44.75 30.4 43.15 L29.9 41.75 27.75 35.85 26.4 32.35 Q25.9 31.05 26.4 30 26.8 29.25 28.5 28.85 30.15 28.45 31.05 29.15 L32.3 31.1 34 35"/>
  </g>
</svg>