<svg width="64" height="64" xmlns="http://www.w3.org/2000/svg" xmlns:xlink="http://www.w3.org/1999/xlink">
  <defs/>
  <g>
    <path stroke="none" fill="#FFFFFF" fill-opacity="0" d="M36.5 27.95 L37.55 30.55 39.95 30 40.25 30 40.3 30 42.95 30.35 44.3 30.95 45.95 30.7 46.25 30.7 Q49.25 30.7 51.05 33.1 L51.1 33.15 Q53.3 36.2 55.15 40.65 L55.3 41.05 Q57.35 48.6 53.5 53.4 L53.4 53.55 Q51.25 56 48.05 57.2 L48 57.25 Q44.7 58.45 41.1 57.75 L40.95 57.7 Q38.5 57.05 36.3 55.7 L36.25 55.7 Q33.35 53.95 30.55 53.65 L30.3 53.65 Q26.7 53.85 24.9 52.75 22 51.15 22 47.65 L22 47.6 Q22 45.4 23.4 43.7 L23.45 43.65 23.65 43.4 Q25 42.1 27.05 41.75 L27.15 41.75 27.25 41.75 28.7 41.6 25.05 31.7 25.05 31.75 Q24.05 29.1 25.15 26.95 L25.25 26.75 Q25.85 25.05 29.25 24.25 L29.3 24.25 Q32.6 23.45 34.35 25.1 L34.45 25.15 Q35.5 26 36.35 27.55 L36.5 27.95 M36 34.75 L33.7 29.05 32.5 27.45 Q31.6 26.75 29.95 27.15 28.25 27.55 27.85 28.3 27.35 29.35 27.85 30.65 L30.95 38.95 32 41.85 32.4 43 Q32.85 44.6 30.75 44.7 29.05 44.5 27.55 44.7 L27.25 44.8 Q26.35 45.05 25.7 45.65 25 46.5 25 47.65 24.95 51 30.45 50.65 34.1 50.85 37.8 53.1 39.65 54.2 41.7 54.75 L46.95 54.35 Q49.45 53.45 51.1 51.55 54 47.75 52.4 41.8 50.7 37.75 48.65 34.95 47.75 33.75 46.25 33.75 L45.3 33.85 Q44.4 34.05 43.65 34.65 43.15 33.8 42.3 33.4 L40.3 33 39.15 33.15 Q37.85 33.55 36.8 34.8 L36 34.75"/>
    <path stroke="none" fill="#FFFFFF" d="M45.95 30.7 L44.3 30.95 42.95 30.35 43 29 Q43 23.6 39.2 19.85 35.35 16 30 16 24.6 16 20.8 19.85 17 23.6 17 29 17 34.4 20.8 38.2 23.6 41 27.25 41.75 L27.15 41.75 27.05 41.75 Q25 42.1 23.65 43.4 L23.45 43.65 Q20.85 42.5 18.65 40.3 14 35.65 14 29 14 22.35 18.65 17.7 23.35 13 30 13 36.6 13 41.3 17.7 46 22.35 46 29 L45.95 30.7 M36.5 27.95 L36.35 27.55 Q35.5 26 34.45 25.15 L34.35 25.1 Q32.6 23.45 29.3 24.25 L29.25 24.25 Q25.85 25.05 25.25 26.75 L25.15 26.95 Q24.05 29.1 25.05 31.75 L25.05 31.7 27.65 38.75 Q25 38.15 22.9 36.05 20 33.15 20 29 20 24.85 22.9 21.95 25.85 19 30 19 34.1 19 37.05 21.95 L37.4 22.25 Q40 25.05 40 29 L39.95 30 37.55 30.55 36.5 27.95 M36 34.75 L36.8 34.8 Q37.85 33.55 39.15 33.15 L40.3 33 42.3 33.4 Q43.15 33.8 43.65 34.65 44.4 34.05 45.3 33.85 L46.25 33.75 Q47.75 33.75 48.65 34.95 50.7 37.75 52.4 41.8 54 47.75 51.1 51.55 49.45 53.45 46.95 54.35 L41.7 54.75 Q39.65 54.2 37.8 53.1 34.1 50.85 30.45 50.65 24.95 51 25 47.65 25 46.5 25.7 45.65 26.35 45.05 27.25 44.8 L27.55 44.7 Q29.05 44.5 30.75 44.7 32.85 44.6 32.4 43 L32 41.85 30.95 38.95 27.85 30.65 Q27.35 29.35 27.85 28.3 28.25 27.55 29.95 27.15 31.6 26.75 32.5 27.45 L33.7 29.05 36 34.75"/>
  </g>
</svg>