<svg width="64" height="64" xmlns="http://www.w3.org/2000/svg" xmlns:xlink="http://www.w3.org/1999/xlink">
  <defs/>
  <g>
    <path stroke="none" fill="#FFFFFF" d="M36 32.75 L36.8 32.8 Q38.3 31 40.3 31 42.65 30.95 43.65 32.65 44.75 31.75 46.25 31.75 47.75 31.75 48.65 32.95 50.7 35.75 52.4 39.8 54 45.75 51.1 49.55 49.45 51.45 46.95 52.35 L41.7 52.75 Q39.65 52.2 37.8 51.1 34.1 48.85 30.45 48.65 24.95 49 25 45.65 25 44.5 25.7 43.65 26.45 42.95 27.55 42.7 29.05 42.5 30.75 42.7 32.85 42.6 32.4 41 L27.85 28.65 Q27.35 27.35 27.85 26.3 28.25 25.55 29.95 25.15 31.6 24.75 32.5 25.45 L33.7 27.05 36 32.75 M39.7 13.25 Q40.6 13.75 40.95 14.8 L40.95 14.85 Q41.1 15.85 40.65 16.7 40.05 17.6 39.15 17.95 L37.2 17.75 37.15 17.75 Q33.05 15.35 28.4 16.5 L28.25 16.5 28.2 16.5 Q23.65 17.8 21.3 21.95 L20.4 23.85 21.55 24.15 21.5 24.1 Q22.3 24.25 22.55 24.9 L23 25.8 23 26.05 22.25 26.9 22.3 26.9 17.55 29.85 Q17.15 30.15 16.6 30.05 L15.65 29.85 15.6 29.85 14.9 29.2 12.2 24.25 Q11.9 23.65 12.1 23.1 L12.15 22.9 12.95 22.25 14.25 22.15 15.5 22.5 Q16 20.9 16.9 19.4 20.35 13.45 27.05 11.65 33.8 9.8 39.7 13.3 L39.7 13.25"/>
  </g>
</svg>