<svg width="64" height="64" xmlns="http://www.w3.org/2000/svg" xmlns:xlink="http://www.w3.org/1999/xlink">
  <defs/>
  <g>
    <path stroke="none" fill="#FFFFFF" fill-opacity="0" d="M23.75 28.6 Q24.35 26.8 27.85 26 L30.05 25.75 30.35 24.95 30.4 24.85 Q31 23.05 34.45 22.25 L34.5 22.25 37.15 22.05 Q38.6 22.2 39.55 23.1 L39.75 23.25 Q40.7 24.05 41.55 25.55 L41.7 25.95 43.65 31.1 44.3 31.05 45.85 31.25 Q47.75 31.7 49.05 33.4 L49.1 33.45 Q51.3 36.5 53.2 40.85 L53.3 41.25 Q55.3 48.75 51.5 53.5 L51.4 53.65 Q49.25 56.05 46.05 57.2 L46 57.25 Q42.75 58.45 39.15 57.75 L39 57.7 Q36.5 57.05 34.3 55.75 L34.25 55.75 Q31.35 54.05 28.55 53.75 L28.3 53.75 Q24.7 53.95 22.9 52.8 20.05 51.2 20 47.8 L20 47.75 Q20 45.65 21.35 43.95 L21.65 43.6 22.3 43.1 Q23.4 42.25 24.9 41.95 L25.15 41.9 26.75 41.75 23.6 33.4 Q22.6 30.8 23.7 28.7 L23.75 28.6 M34 35 L32.3 31.1 31.05 29.15 Q30.15 28.45 28.5 28.85 26.8 29.25 26.4 30 25.9 31.05 26.4 32.35 L27.75 35.85 28.9 38.95 29.9 41.75 30 42 30.4 43.15 Q30.85 44.75 28.75 44.85 L27.05 44.75 25.55 44.85 Q24.45 45.1 23.7 45.8 23 46.65 23 47.8 22.95 51.1 28.45 50.75 32.1 50.95 35.8 53.2 37.65 54.3 39.75 54.85 42.5 55.35 44.95 54.45 47.45 53.55 49.1 51.65 52 47.9 50.4 41.95 48.7 37.95 46.65 35.2 46.05 34.4 45.2 34.15 L44.3 34 Q43 34 41.8 34.6 L38.9 27 37.7 25.4 Q36.8 24.7 35.15 25.1 33.45 25.5 33.05 26.25 32.55 27.3 33.05 28.55 L35.3 34.55 34 35"/>
    <path stroke="none" fill="#FFFFFF" d="M34 35 L35.3 34.55 33.05 28.55 Q32.55 27.3 33.05 26.25 33.45 25.5 35.15 25.1 36.8 24.7 37.7 25.4 L38.9 27 41.8 34.6 Q43 34 44.3 34 L45.2 34.15 Q46.05 34.4 46.65 35.2 48.7 37.95 50.4 41.95 52 47.9 49.1 51.65 47.45 53.55 44.95 54.45 42.5 55.35 39.75 54.85 37.65 54.3 35.8 53.2 32.1 50.95 28.45 50.75 22.95 51.1 23 47.8 23 46.65 23.7 45.8 24.45 45.1 25.55 44.85 L27.05 44.75 28.75 44.85 Q30.85 44.75 30.4 43.15 L30 42 29.9 41.75 28.9 38.95 27.75 35.85 26.4 32.35 Q25.9 31.05 26.4 30 26.8 29.25 28.5 28.85 30.15 28.45 31.05 29.15 L32.3 31.1 34 35 M43.65 31.1 L43 29.4 43 29 Q43 23.6 39.2 19.85 35.35 16 30 16 24.6 16 20.8 19.85 17 23.6 17 29 17 34.4 20.8 38.2 23.4 40.8 26.7 41.6 L26.75 41.75 25.15 41.9 24.9 41.95 Q23.4 42.25 22.3 43.1 20.35 42 18.65 40.3 14 35.65 14 29 14 22.35 18.65 17.7 23.35 13 30 13 36.6 13 41.3 17.7 46 22.35 46 29 L45.85 31.25 44.3 31.05 43.65 31.1 M27.85 26 Q24.35 26.8 23.75 28.6 L23.7 28.7 Q22.6 30.8 23.6 33.4 L25.3 37.85 Q24 37.15 22.9 36.05 20 33.15 20 29 20 24.85 22.9 21.95 25.85 19 30 19 34.1 19 37.05 21.95 L37.15 22.05 34.5 22.25 34.45 22.25 Q31 23.05 30.4 24.85 L30.35 24.95 30.05 25.75 27.85 26"/>
  </g>
</svg>