<svg width="64" height="64" xmlns="http://www.w3.org/2000/svg" xmlns:xlink="http://www.w3.org/1999/xlink">
  <defs/>
  <g>
    <path stroke="none" fill="#FFFFFF" d="M45.5 35.55 Q46.35 38.05 45.7 40.6 L45 42.65 Q43.3 46.15 39.7 47.35 L39.65 47.35 Q37.2 48.25 34.85 47.9 32.5 47.15 30.05 45.65 L29.95 45.65 Q27.75 44.3 25.15 43.85 L21.4 43.7 21.35 43.7 Q20.2 43.9 19.35 43.15 L19.25 43.1 Q18.15 42.2 18 40.9 17.85 39.6 18.7 38.55 19.35 37.65 20.45 37.5 22.25 37.3 24 37.5 L24.8 37.3 25.35 36.7 25.35 35.85 Q23.35 29.65 20.1 24.35 19.35 23.1 19.55 22.15 19.85 21.25 21.1 20.5 23.7 18.95 25.45 21.6 L26.85 23.95 27.6 24.45 Q28.05 24.65 28.5 24.45 L29.05 23.85 29.2 22.95 28.35 19.55 Q27.6 16.8 30.25 16.15 L30.3 16.15 Q33.05 15.4 34.15 18.25 L35.05 21.3 35.55 22.05 36.4 22.2 37.2 21.9 37.55 21.15 Q37.95 18.9 40.35 19.05 43.2 19.2 43.35 22.3 L43.35 22.4 Q43.1 29.4 44.8 33.5 L44.8 33.4 45.5 35.55"/>
  </g>
</svg>