{
  "asset": {
    "generator": "Khronos glTF Blender I/O v4.4.55",
    "version": "2.0"
  },
  "scene": 0,
  "scenes": [
    {
      "name": "Scene",
      "nodes": [
        0
      ]
    }
  ],
  "nodes": [
    {
      "mesh": 0,
      "name": "sphere_gltf"
    }
  ],
  "materials": [
    {
      "doubleSided": true,
      "name": "moon_dusted_05",
      "normalTexture": {
        "index": 0
      },
      "pbrMetallicRoughness": {
        "baseColorTexture": {
          "index": 1
        },
        "metallicFactor": 0,
        "metallicRoughnessTexture": {
          "index": 2
        }
      }
    }
  ],
  "meshes": [
    {
      "name": "Sphere.001",
      "primitives": [
        {
          "attributes": {
            "POSITION": 0,
            "NORMAL": 1,
            "TEXCOORD_0": 2
          },
          "indices": 3,
          "material": 0
        }
      ]
    }
  ],
  "textures": [
    {
      "sampler": 0,
      "source": 0
    },
    {
      "sampler": 0,
      "source": 1
    },
    {
      "sampler": 0,
      "source": 2
    }
  ],
  "images": [
    {
      "mimeType": "image/jpeg",
      "name": "moon_dusted_05_nor_gl",
      "uri": "textures/moon_dusted_05_nor_gl_1k.jpg"
    },
    {
      "mimeType": "image/jpeg",
      "name": "moon_dusted_05_diff",
      "uri": "textures/moon_dusted_05_diff_1k.jpg"
    },
    {
      "mimeType": "image/jpeg",
      "name": "moon_dusted_05_rough",
      "uri": "textures/moon_dusted_05_arm_1k.jpg"
    }
  ],
  "accessors": [
    {
      "bufferView": 0,
      "componentType": 5126,
      "count": 53932,
      "max": [
        0.2504572570323944,
        0.25043830275535583,
        0.25001442432403564
      ],
      "min": [
        -0.2504572868347168,
        -0.2505744397640228,
        -0.25001293420791626
      ],
      "type": "VEC3"
    },
    {
      "bufferView": 1,
      "componentType": 5126,
      "count": 53932,
      "type": "VEC3"
    },
    {
      "bufferView": 2,
      "componentType": 5126,
      "count": 53932,
      "type": "VEC2"
    },
    {
      "bufferView": 3,
      "componentType": 5123,
      "count": 322170,
      "type": "SCALAR"
    }
  ],
  "bufferViews": [
    {
      "buffer": 0,
      "byteLength": 647184,
      "byteOffset": 0,
      "target": 34962
    },
    {
      "buffer": 0,
      "byteLength": 647184,
      "byteOffset": 647184,
      "target": 34962
    },
    {
      "buffer": 0,
      "byteLength": 431456,
      "byteOffset": 1294368,
      "target": 34962
    },
    {
      "buffer": 0,
      "byteLength": 644340,
      "byteOffset": 1725824,
      "target": 34963
    }
  ],
  "samplers": [
    {
      "magFilter": 9729,
      "minFilter": 9987
    }
  ],
  "buffers": [
    {
      "byteLength": 2370164,
      "uri": "moon_dusted_05.bin"
    }
  ]
}