# Created by Kenney (www.kenney.nl)

mtllib gate.mtl

g gate

v -0.3357362 0.9690121 0.15 1 1 1
v -0.3875 1.05867 0.05 1 1 1
v 0 1.058972 0.15 1 1 1
v 0 1.1625 0.05 1 1 1
v 0.567642 9.436365E-15 0.15 1 1 1
v 0.4577044 9.442764E-15 0.15 1 1 1
v 0.6714724 0.3875 0.15 1 1 1
v 0.5615347 0.3875 0.15 1 1 1
v 0.5815122 0.7232362 0.15 1 1 1
v 0.4863033 0.6682674 0.15 1 1 1
v 0.2807674 0.8738033 0.15 1 1 1
v 0.3357362 0.9690121 0.15 1 1 1
v 0 0.9490347 0.15 1 1 1
v -0.2807674 0.8738033 0.15 1 1 1
v -0.5815122 0.7232362 0.15 1 1 1
v -0.4863033 0.6682674 0.15 1 1 1
v -0.6714724 0.3875 0.15 1 1 1
v -0.5615347 0.3875 0.15 1 1 1
v -0.4577044 9.442764E-15 0.15 1 1 1
v -0.567642 9.436365E-15 0.15 1 1 1
v -0.775 0.3875 -0.05 1 1 1
v -0.775 0.3875 0.05 1 1 1
v -0.6711697 3.177667E-15 -0.05 1 1 1
v -0.6711697 6.310215E-15 0.05 1 1 1
v -0.6714724 0.3875 -0.15 1 1 1
v -0.5815122 0.7232362 -0.15 1 1 1
v -0.6711697 0.775 -0.05 1 1 1
v 0.6711697 6.310215E-15 0.05 1 1 1
v 0.775 0.3875 0.05 1 1 1
v 0.567642 0 -0.15 1 1 1
v 0.6711697 3.177667E-15 -0.05 1 1 1
v 0.6714724 0.3875 -0.15 1 1 1
v 0.775 0.3875 -0.05 1 1 1
v -0.3357362 0.9690121 -0.15 1 1 1
v 0 1.058972 -0.15 1 1 1
v -0.3875 1.05867 -0.05 1 1 1
v 0 1.1625 -0.05 1 1 1
v 0.5815122 0.7232362 -0.15 1 1 1
v 0.6711697 0.775 -0.05 1 1 1
v -0.6711697 0.775 0.05 1 1 1
v 0.6711697 0.775 0.05 1 1 1
v 0.3357362 0.9690121 -0.15 1 1 1
v 0.3875 1.05867 -0.05 1 1 1
v 0.3875 1.05867 0.05 1 1 1
v -0.567642 0 -0.15 1 1 1
v -0.4577044 4.511946E-17 -0.15 1 1 1
v -0.5615347 0.3875 -0.15 1 1 1
v -0.4863033 0.6682674 -0.15 1 1 1
v -0.2807674 0.8738033 -0.15 1 1 1
v 0 0.9490347 -0.15 1 1 1
v 0.2807674 0.8738033 -0.15 1 1 1
v 0.4863033 0.6682674 -0.15 1 1 1
v 0.5615347 0.3875 -0.15 1 1 1
v 0.4577044 4.511946E-17 -0.15 1 1 1

vn -0.2128649 0.3686928 0.9048504
vn -0.4646657 0.8048245 0.3692469
vn 0 0.4257298 0.9048504
vn 0 0.9293313 0.3692469
vn 0.3175024 -0.08507451 0.9444335
vn 0 0 1
vn 0.4257298 0 0.9048504
vn 0.3686928 0.2128649 0.9048504
vn 0.2128649 0.3686928 0.9048504
vn -0.3686928 0.2128649 0.9048504
vn -0.4257298 0 0.9048504
vn -0.3175024 -0.08507451 0.9444335
vn -0.9293313 0 -0.3692469
vn -0.9293313 0 0.3692469
vn -0.8835467 -0.2367456 -0.4040999
vn -0.8835467 -0.2367456 0.4040999
vn -0.4257298 0 -0.9048504
vn -0.3686928 0.2128649 -0.9048504
vn -0.8048245 0.4646657 -0.3692469
vn 0.8835467 -0.2367456 0.4040999
vn 0.9293313 0 0.3692469
vn 0.3175024 -0.08507451 -0.9444335
vn 0.8835467 -0.2367456 -0.4040999
vn 0.4257298 0 -0.9048504
vn 0.9293313 0 -0.3692469
vn -0.2128649 0.3686928 -0.9048504
vn 0 0.4257298 -0.9048504
vn -0.4646657 0.8048245 -0.3692469
vn 0 0.9293313 -0.3692469
vn 0.3686928 0.2128649 -0.9048504
vn 0.8048245 0.4646657 -0.3692469
vn -0.8048245 0.4646657 0.3692469
vn 0.8048245 0.4646657 0.3692469
vn 0.2128649 0.3686928 -0.9048504
vn 0.4646657 0.8048245 -0.3692469
vn 0.4646657 0.8048245 0.3692469
vn -0.3175024 -0.08507451 -0.9444335
vn 0 0 -1
vn 0 -1 0
vn -0.9659258 0.258819 0
vn -1 0 0
vn -0.8660254 -0.5 0
vn -0.5 -0.8660254 0
vn 0.5 -0.8660254 0
vn 0.8660254 -0.5 0
vn 1 0 0
vn 0.9659258 0.258819 0

vt 0.34375 0.4417118
vt 0.34375 0.4571368
vt 0.34375 0.4571888
vt 0.34375 0.475
vt 0.34375 0.275
vt 0.34375 0.3416667
vt 0.34375 0.3994277
vt 0.34375 0.3899707
vt 0.34375 0.4253318
vt 0.34375 0.4382748
vt 0.34375 0.4083334
vt 0.59375 0.025
vt 0.59375 0.09166668
vt 0.59375 0.1399707
vt 0.59375 0.1753318
vt 0.59375 0.1882748

usemtl colormap

f 3/3/3 2/2/2 1/1/1
f 2/2/2 3/3/3 4/4/4
f 7/6/7 6/5/6 5/5/5
f 6/5/6 7/6/7 8/6/6
f 8/6/6 7/6/7 9/7/8
f 8/6/6 9/7/8 10/8/6
f 10/8/6 9/7/8 11/9/6
f 11/9/6 9/7/8 12/1/9
f 11/9/6 12/1/9 13/10/6
f 1/1/1 13/10/6 12/1/9
f 1/1/1 12/1/9 3/3/3
f 1/1/1 14/9/6 13/10/6
f 15/7/10 14/9/6 1/1/1
f 15/7/10 16/8/6 14/9/6
f 17/6/11 16/8/6 15/7/10
f 17/6/11 18/6/6 16/8/6
f 17/6/11 19/5/6 18/6/6
f 19/5/6 17/6/11 20/5/12
f 23/5/15 22/6/14 21/6/13
f 22/6/14 23/5/15 24/5/16
f 21/6/13 26/7/18 25/6/17
f 26/7/18 21/6/13 27/11/19
f 20/5/12 22/6/14 24/5/16
f 22/6/14 20/5/12 17/6/11
f 29/6/21 5/5/5 28/5/20
f 5/5/5 29/6/21 7/6/7
f 32/6/24 31/5/23 30/5/22
f 31/5/23 32/6/24 33/6/25
f 36/2/28 35/3/27 34/1/26
f 35/3/27 36/2/28 37/4/29
f 38/7/30 33/6/25 32/6/24
f 33/6/25 38/7/30 39/11/31
f 27/11/19 2/2/2 36/2/28
f 2/2/2 27/11/19 40/11/32
f 1/1/1 40/11/32 15/7/10
f 40/11/32 1/1/1 2/2/2
f 41/11/33 7/6/7 29/6/21
f 7/6/7 41/11/33 9/7/8
f 21/6/13 40/11/32 27/11/19
f 40/11/32 21/6/13 22/6/14
f 35/3/27 43/2/35 42/1/34
f 43/2/35 35/3/27 37/4/29
f 27/11/19 34/1/26 26/7/18
f 34/1/26 27/11/19 36/2/28
f 36/2/28 4/4/4 37/4/29
f 4/4/4 36/2/28 2/2/2
f 44/2/36 3/3/3 12/1/9
f 3/3/3 44/2/36 4/4/4
f 37/4/29 44/2/36 43/2/35
f 44/2/36 37/4/29 4/4/4
f 41/11/33 33/6/25 39/11/31
f 33/6/25 41/11/33 29/6/21
f 23/5/15 25/6/17 45/5/37
f 25/6/17 23/5/15 21/6/13
f 43/2/35 41/11/33 39/11/31
f 41/11/33 43/2/35 44/2/36
f 25/6/17 46/5/38 45/5/37
f 46/5/38 25/6/17 47/6/38
f 47/6/38 25/6/17 26/7/18
f 47/6/38 26/7/18 48/8/38
f 48/8/38 26/7/18 49/9/38
f 49/9/38 26/7/18 34/1/26
f 49/9/38 34/1/26 50/10/38
f 42/1/34 50/10/38 34/1/26
f 42/1/34 34/1/26 35/3/27
f 42/1/34 51/9/38 50/10/38
f 38/7/30 51/9/38 42/1/34
f 38/7/30 52/8/38 51/9/38
f 38/7/30 53/6/38 52/8/38
f 32/6/24 53/6/38 38/7/30
f 32/6/24 54/5/38 53/6/38
f 54/5/38 32/6/24 30/5/22
f 41/11/33 12/1/9 9/7/8
f 12/1/9 41/11/33 44/2/36
f 42/1/34 39/11/31 38/7/30
f 39/11/31 42/1/34 43/2/35
f 17/6/11 40/11/32 22/6/14
f 40/11/32 17/6/11 15/7/10
f 29/6/21 31/5/23 33/6/25
f 31/5/23 29/6/21 28/5/20
f 5/12/39 31/12/39 28/12/39
f 31/12/39 5/12/39 30/12/39
f 30/12/39 5/12/39 6/12/39
f 30/12/39 6/12/39 54/12/39
f 8/13/41 54/12/40 6/12/40
f 54/12/40 8/13/41 53/13/41
f 10/14/42 53/13/41 8/13/41
f 53/13/41 10/14/42 52/14/42
f 11/15/43 52/14/42 10/14/42
f 52/14/42 11/15/43 51/15/43
f 13/16/39 51/15/43 11/15/43
f 51/15/43 13/16/39 50/16/39
f 14/15/44 50/16/39 13/16/39
f 50/16/39 14/15/44 49/15/44
f 16/14/45 49/15/44 14/15/44
f 49/15/44 16/14/45 48/14/45
f 16/14/45 47/13/46 48/14/45
f 47/13/46 16/14/45 18/13/46
f 18/13/46 46/12/47 47/13/46
f 46/12/47 18/13/46 19/12/47
f 20/12/39 46/12/39 19/12/39
f 46/12/39 20/12/39 45/12/39
f 45/12/39 20/12/39 24/12/39
f 45/12/39 24/12/39 23/12/39

g gate




usemtl colormap

f 3/3/3 2/2/2 1/1/1
f 2/2/2 3/3/3 4/4/4
f 7/6/7 6/5/6 5/5/5
f 6/5/6 7/6/7 8/6/6
f 8/6/6 7/6/7 9/7/8
f 8/6/6 9/7/8 10/8/6
f 10/8/6 9/7/8 11/9/6
f 11/9/6 9/7/8 12/1/9
f 11/9/6 12/1/9 13/10/6
f 1/1/1 13/10/6 12/1/9
f 1/1/1 12/1/9 3/3/3
f 1/1/1 14/9/6 13/10/6
f 15/7/10 14/9/6 1/1/1
f 15/7/10 16/8/6 14/9/6
f 17/6/11 16/8/6 15/7/10
f 17/6/11 18/6/6 16/8/6
f 17/6/11 19/5/6 18/6/6
f 19/5/6 17/6/11 20/5/12
f 23/5/15 22/6/14 21/6/13
f 22/6/14 23/5/15 24/5/16
f 21/6/13 26/7/18 25/6/17
f 26/7/18 21/6/13 27/11/19
f 20/5/12 22/6/14 24/5/16
f 22/6/14 20/5/12 17/6/11
f 29/6/21 5/5/5 28/5/20
f 5/5/5 29/6/21 7/6/7
f 32/6/24 31/5/23 30/5/22
f 31/5/23 32/6/24 33/6/25
f 36/2/28 35/3/27 34/1/26
f 35/3/27 36/2/28 37/4/29
f 38/7/30 33/6/25 32/6/24
f 33/6/25 38/7/30 39/11/31
f 27/11/19 2/2/2 36/2/28
f 2/2/2 27/11/19 40/11/32
f 1/1/1 40/11/32 15/7/10
f 40/11/32 1/1/1 2/2/2
f 41/11/33 7/6/7 29/6/21
f 7/6/7 41/11/33 9/7/8
f 21/6/13 40/11/32 27/11/19
f 40/11/32 21/6/13 22/6/14
f 35/3/27 43/2/35 42/1/34
f 43/2/35 35/3/27 37/4/29
f 27/11/19 34/1/26 26/7/18
f 34/1/26 27/11/19 36/2/28
f 36/2/28 4/4/4 37/4/29
f 4/4/4 36/2/28 2/2/2
f 44/2/36 3/3/3 12/1/9
f 3/3/3 44/2/36 4/4/4
f 37/4/29 44/2/36 43/2/35
f 44/2/36 37/4/29 4/4/4
f 41/11/33 33/6/25 39/11/31
f 33/6/25 41/11/33 29/6/21
f 23/5/15 25/6/17 45/5/37
f 25/6/17 23/5/15 21/6/13
f 43/2/35 41/11/33 39/11/31
f 41/11/33 43/2/35 44/2/36
f 25/6/17 46/5/38 45/5/37
f 46/5/38 25/6/17 47/6/38
f 47/6/38 25/6/17 26/7/18
f 47/6/38 26/7/18 48/8/38
f 48/8/38 26/7/18 49/9/38
f 49/9/38 26/7/18 34/1/26
f 49/9/38 34/1/26 50/10/38
f 42/1/34 50/10/38 34/1/26
f 42/1/34 34/1/26 35/3/27
f 42/1/34 51/9/38 50/10/38
f 38/7/30 51/9/38 42/1/34
f 38/7/30 52/8/38 51/9/38
f 38/7/30 53/6/38 52/8/38
f 32/6/24 53/6/38 38/7/30
f 32/6/24 54/5/38 53/6/38
f 54/5/38 32/6/24 30/5/22
f 41/11/33 12/1/9 9/7/8
f 12/1/9 41/11/33 44/2/36
f 42/1/34 39/11/31 38/7/30
f 39/11/31 42/1/34 43/2/35
f 17/6/11 40/11/32 22/6/14
f 40/11/32 17/6/11 15/7/10
f 29/6/21 31/5/23 33/6/25
f 31/5/23 29/6/21 28/5/20
f 5/12/39 31/12/39 28/12/39
f 31/12/39 5/12/39 30/12/39
f 30/12/39 5/12/39 6/12/39
f 30/12/39 6/12/39 54/12/39
f 8/13/41 54/12/40 6/12/40
f 54/12/40 8/13/41 53/13/41
f 10/14/42 53/13/41 8/13/41
f 53/13/41 10/14/42 52/14/42
f 11/15/43 52/14/42 10/14/42
f 52/14/42 11/15/43 51/15/43
f 13/16/39 51/15/43 11/15/43
f 51/15/43 13/16/39 50/16/39
f 14/15/44 50/16/39 13/16/39
f 50/16/39 14/15/44 49/15/44
f 16/14/45 49/15/44 14/15/44
f 49/15/44 16/14/45 48/14/45
f 16/14/45 47/13/46 48/14/45
f 47/13/46 16/14/45 18/13/46
f 18/13/46 46/12/47 47/13/46
f 46/12/47 18/13/46 19/12/47
f 20/12/39 46/12/39 19/12/39
f 46/12/39 20/12/39 45/12/39
f 45/12/39 20/12/39 24/12/39
f 45/12/39 24/12/39 23/12/39

