# Created by Kenney (www.kenney.nl)

mtllib gate-finish.mtl

g gate-finish

v 0.5815122 0.7232362 0.15 1 1 1
v 0.3357362 0.9690121 0.15 1 1 1
v 0.6711697 0.775 0.05 1 1 1
v 0.3875 1.05867 0.05 1 1 1
v 0.3875 1.05867 -0.05 1 1 1
v 0.6711697 0.775 -0.05 1 1 1
v 0.3357362 0.9690121 -0.15 1 1 1
v 0.5815122 0.7232362 -0.15 1 1 1
v -0.3357362 0.9690121 -0.15 1 1 1
v 0 1.058972 -0.15 1 1 1
v -0.3875 1.05867 -0.05 1 1 1
v 0 1.1625 -0.05 1 1 1
v 0 1.1625 0.05 1 1 1
v -0.3875 1.05867 0.05 1 1 1
v 0 1.058972 0.15 1 1 1
v -0.3357362 0.9690121 0.15 1 1 1
v -0.5815122 0.7232362 0.15 1 1 1
v -0.6714724 0.3875 0.15 1 1 1
v -0.6711697 0.775 0.05 1 1 1
v -0.775 0.3875 0.05 1 1 1
v -0.775 0.3875 -0.05 1 1 1
v -0.6711697 0.775 -0.05 1 1 1
v -0.5815122 0.7232362 -0.15 1 1 1
v -0.6714724 0.3875 -0.15 1 1 1
v 0.567642 0 -0.15 1 1 1
v 0.6711697 3.177667E-15 -0.05 1 1 1
v 0.6714724 0.3875 -0.15 1 1 1
v 0.775 0.3875 -0.05 1 1 1
v 0.775 0.3875 0.05 1 1 1
v 0.6711697 6.310215E-15 0.05 1 1 1
v 0.567642 9.436365E-15 0.15 1 1 1
v 0.6714724 0.3875 0.15 1 1 1
v -0.4577044 9.442764E-15 0.15 1 1 1
v -0.5615347 0.3875 0.15 1 1 1
v -0.4577044 4.511946E-17 -0.15 1 1 1
v -0.5615347 0.3875 -0.15 1 1 1
v -0.4863033 0.6682674 0.15 1 1 1
v -0.4863033 0.6682674 -0.15 1 1 1
v -0.2807674 0.8738033 -0.15 1 1 1
v -0.2807674 0.8738033 0.15 1 1 1
v 0 0.9490347 -0.15 1 1 1
v 0 0.9490347 0.15 1 1 1
v 0.2807674 0.8738033 -0.15 1 1 1
v 0.2807674 0.8738033 0.15 1 1 1
v 0.4863033 0.6682674 -0.15 1 1 1
v 0.4863033 0.6682674 0.15 1 1 1
v 0.5615347 0.3875 -0.15 1 1 1
v 0.5615347 0.3875 0.15 1 1 1
v 0.4577044 4.511946E-17 -0.15 1 1 1
v 0.4577044 9.442764E-15 0.15 1 1 1
v -0.567642 9.436365E-15 0.15 1 1 1
v -0.567642 0 -0.15 1 1 1
v -0.6711697 6.310215E-15 0.05 1 1 1
v -0.6711697 3.177667E-15 -0.05 1 1 1

vn 0.3686928 0.2128649 0.9048504
vn 0.2128649 0.3686928 0.9048504
vn 0.8048245 0.4646657 0.3692469
vn 0.4646657 0.8048245 0.3692469
vn 0.4646657 0.8048245 -0.3692469
vn 0.8048245 0.4646657 -0.3692469
vn 0.2128649 0.3686928 -0.9048504
vn 0.3686928 0.2128649 -0.9048504
vn -0.2128649 0.3686928 -0.9048504
vn 0 0.4257298 -0.9048504
vn -0.4646657 0.8048245 -0.3692469
vn 0 0.9293313 -0.3692469
vn 0 0.9293313 0.3692469
vn -0.4646657 0.8048245 0.3692469
vn 0 0.4257298 0.9048504
vn -0.2128649 0.3686928 0.9048504
vn -0.3686928 0.2128649 0.9048504
vn -0.4257298 0 0.9048504
vn -0.8048245 0.4646657 0.3692469
vn -0.9293313 0 0.3692469
vn -0.9293313 0 -0.3692469
vn -0.8048245 0.4646657 -0.3692469
vn -0.3686928 0.2128649 -0.9048504
vn -0.4257298 0 -0.9048504
vn 0.3175024 -0.08507451 -0.9444335
vn 0.8835467 -0.2367456 -0.4040999
vn 0.4257298 0 -0.9048504
vn 0.9293313 0 -0.3692469
vn 0.9293313 0 0.3692469
vn 0.8835467 -0.2367456 0.4040999
vn 0.3175024 -0.08507451 0.9444335
vn 0.4257298 0 0.9048504
vn 0.9659258 0.258819 0
vn 1 0 0
vn 0.8660254 -0.5 0
vn 0.5 -0.8660254 0
vn 0 -1 0
vn -0.5 -0.8660254 0
vn -0.8660254 -0.5 0
vn -1 0 0
vn -0.9659258 0.258819 0
vn -0.8835467 -0.2367456 -0.4040999
vn -0.8835467 -0.2367456 0.4040999
vn -0.3175024 -0.08507451 -0.9444335
vn -0.3175024 -0.08507451 0.9444335
vn 0 0 -1
vn 0 0 1

vt 0.59375 0.1494277
vt 0.59375 0.1917118
vt 0.59375 0.1583333
vt 0.59375 0.2071367
vt 0.59375 0.2071888
vt 0.59375 0.225
vt 0.59375 0.09166668
vt 0.59375 0.025
vt 0.59375 0.1399707
vt 0.59375 0.1753318
vt 0.59375 0.1882748
vt 0.34375 0.09166668
vt 0.34375 0.025
vt 0.34375 0.1494277
vt 0.34375 0.1583333
vt 0.34375 0.2071367
vt 0.34375 0.225
vt 0.34375 0.1917118
vt 0.34375 0.2071888
vt 0.34375 0.275
vt 0.34375 0.3416667
vt 0.34375 0.3994277
vt 0.34375 0.3899707
vt 0.34375 0.4253318
vt 0.34375 0.4417118
vt 0.34375 0.4382748
vt 0.34375 0.4571888

usemtl colormap

f 3/3/3 2/2/2 1/1/1
f 2/2/2 3/3/3 4/4/4
f 3/3/3 5/4/5 4/4/4
f 5/4/5 3/3/3 6/3/6
f 6/3/6 7/2/7 5/4/5
f 7/2/7 6/3/6 8/1/8
f 11/4/11 10/5/10 9/2/9
f 10/5/10 11/4/11 12/6/12
f 11/4/11 13/6/13 12/6/12
f 13/6/13 11/4/11 14/4/14
f 14/4/14 15/5/15 13/6/13
f 15/5/15 14/4/14 16/2/16
f 19/3/19 18/7/18 17/1/17
f 18/7/18 19/3/19 20/7/20
f 19/3/19 21/7/21 20/7/20
f 21/7/21 19/3/19 22/3/22
f 23/1/23 21/7/21 22/3/22
f 21/7/21 23/1/23 24/7/24
f 27/7/27 26/8/26 25/8/25
f 26/8/26 27/7/27 28/7/28
f 29/7/29 26/8/26 28/7/28
f 26/8/26 29/7/29 30/8/30
f 29/7/29 31/8/31 30/8/30
f 31/8/31 29/7/29 32/7/32
f 35/8/33 34/7/34 33/8/33
f 34/7/34 35/8/33 36/7/34
f 36/7/34 37/9/35 34/7/34
f 37/9/35 36/7/34 38/9/35
f 39/10/36 37/9/35 38/9/35
f 37/9/35 39/10/36 40/10/36
f 41/11/37 40/10/36 39/10/36
f 40/10/36 41/11/37 42/11/37
f 43/10/38 42/11/37 41/11/37
f 42/11/37 43/10/38 44/10/38
f 45/9/39 44/10/38 43/10/38
f 44/10/38 45/9/39 46/9/39
f 47/7/40 46/9/39 45/9/39
f 46/9/39 47/7/40 48/7/40
f 49/8/41 48/7/40 47/7/40
f 48/7/40 49/8/41 50/8/41
f 31/8/37 26/8/37 30/8/37
f 26/8/37 31/8/37 25/8/37
f 25/8/37 31/8/37 50/8/37
f 25/8/37 50/8/37 49/8/37
f 51/8/37 35/8/37 33/8/37
f 35/8/37 51/8/37 52/8/37
f 52/8/37 51/8/37 53/8/37
f 52/8/37 53/8/37 54/8/37
f 54/13/42 20/12/20 21/12/21
f 20/12/20 54/13/42 53/13/43
f 8/14/8 28/12/28 27/12/27
f 28/12/28 8/14/8 6/15/6
f 3/15/3 28/12/28 6/15/6
f 28/12/28 3/15/3 29/12/29
f 12/17/12 4/16/4 5/16/5
f 4/16/4 12/17/12 13/17/13
f 4/16/4 15/19/15 2/18/2
f 15/19/15 4/16/4 13/17/13
f 3/15/3 32/12/32 29/12/29
f 32/12/32 3/15/3 1/14/1
f 10/19/10 5/16/5 7/18/7
f 5/16/5 10/19/10 12/17/12
f 16/18/16 19/15/19 17/14/17
f 19/15/19 16/18/16 14/16/14
f 22/15/22 9/18/9 23/14/23
f 9/18/9 22/15/22 11/16/11
f 54/13/42 24/12/24 52/13/44
f 24/12/24 54/13/42 21/12/21
f 51/13/45 20/12/20 53/13/43
f 20/12/20 51/13/45 18/12/18
f 22/15/22 14/16/14 11/16/11
f 14/16/14 22/15/22 19/15/19
f 24/21/24 35/20/46 52/20/44
f 35/20/46 24/21/24 36/21/46
f 36/21/46 24/21/24 23/22/23
f 36/21/46 23/22/23 38/23/46
f 38/23/46 23/22/23 39/24/46
f 39/24/46 23/22/23 9/25/9
f 39/24/46 9/25/9 41/26/46
f 7/25/7 41/26/46 9/25/9
f 7/25/7 9/25/9 10/27/10
f 7/25/7 43/24/46 41/26/46
f 8/22/8 43/24/46 7/25/7
f 8/22/8 45/23/46 43/24/46
f 8/22/8 47/21/46 45/23/46
f 27/21/27 47/21/46 8/22/8
f 27/21/27 49/20/46 47/21/46
f 49/20/46 27/21/27 25/20/25
f 32/21/32 50/20/47 31/20/31
f 50/20/47 32/21/32 48/21/47
f 48/21/47 32/21/32 1/22/1
f 48/21/47 1/22/1 46/23/47
f 46/23/47 1/22/1 44/24/47
f 44/24/47 1/22/1 2/25/2
f 44/24/47 2/25/2 42/26/47
f 16/25/16 42/26/47 2/25/2
f 16/25/16 2/25/2 15/27/15
f 16/25/16 40/24/47 42/26/47
f 17/22/17 40/24/47 16/25/16
f 17/22/17 37/23/47 40/24/47
f 18/21/18 37/23/47 17/22/17
f 18/21/18 34/21/47 37/23/47
f 18/21/18 33/20/47 34/21/47
f 33/20/47 18/21/18 51/20/45

g gate-finish




usemtl colormap

f 3/3/3 2/2/2 1/1/1
f 2/2/2 3/3/3 4/4/4
f 3/3/3 5/4/5 4/4/4
f 5/4/5 3/3/3 6/3/6
f 6/3/6 7/2/7 5/4/5
f 7/2/7 6/3/6 8/1/8
f 11/4/11 10/5/10 9/2/9
f 10/5/10 11/4/11 12/6/12
f 11/4/11 13/6/13 12/6/12
f 13/6/13 11/4/11 14/4/14
f 14/4/14 15/5/15 13/6/13
f 15/5/15 14/4/14 16/2/16
f 19/3/19 18/7/18 17/1/17
f 18/7/18 19/3/19 20/7/20
f 19/3/19 21/7/21 20/7/20
f 21/7/21 19/3/19 22/3/22
f 23/1/23 21/7/21 22/3/22
f 21/7/21 23/1/23 24/7/24
f 27/7/27 26/8/26 25/8/25
f 26/8/26 27/7/27 28/7/28
f 29/7/29 26/8/26 28/7/28
f 26/8/26 29/7/29 30/8/30
f 29/7/29 31/8/31 30/8/30
f 31/8/31 29/7/29 32/7/32
f 35/8/33 34/7/34 33/8/33
f 34/7/34 35/8/33 36/7/34
f 36/7/34 37/9/35 34/7/34
f 37/9/35 36/7/34 38/9/35
f 39/10/36 37/9/35 38/9/35
f 37/9/35 39/10/36 40/10/36
f 41/11/37 40/10/36 39/10/36
f 40/10/36 41/11/37 42/11/37
f 43/10/38 42/11/37 41/11/37
f 42/11/37 43/10/38 44/10/38
f 45/9/39 44/10/38 43/10/38
f 44/10/38 45/9/39 46/9/39
f 47/7/40 46/9/39 45/9/39
f 46/9/39 47/7/40 48/7/40
f 49/8/41 48/7/40 47/7/40
f 48/7/40 49/8/41 50/8/41
f 31/8/37 26/8/37 30/8/37
f 26/8/37 31/8/37 25/8/37
f 25/8/37 31/8/37 50/8/37
f 25/8/37 50/8/37 49/8/37
f 51/8/37 35/8/37 33/8/37
f 35/8/37 51/8/37 52/8/37
f 52/8/37 51/8/37 53/8/37
f 52/8/37 53/8/37 54/8/37
f 54/13/42 20/12/20 21/12/21
f 20/12/20 54/13/42 53/13/43
f 8/14/8 28/12/28 27/12/27
f 28/12/28 8/14/8 6/15/6
f 3/15/3 28/12/28 6/15/6
f 28/12/28 3/15/3 29/12/29
f 12/17/12 4/16/4 5/16/5
f 4/16/4 12/17/12 13/17/13
f 4/16/4 15/19/15 2/18/2
f 15/19/15 4/16/4 13/17/13
f 3/15/3 32/12/32 29/12/29
f 32/12/32 3/15/3 1/14/1
f 10/19/10 5/16/5 7/18/7
f 5/16/5 10/19/10 12/17/12
f 16/18/16 19/15/19 17/14/17
f 19/15/19 16/18/16 14/16/14
f 22/15/22 9/18/9 23/14/23
f 9/18/9 22/15/22 11/16/11
f 54/13/42 24/12/24 52/13/44
f 24/12/24 54/13/42 21/12/21
f 51/13/45 20/12/20 53/13/43
f 20/12/20 51/13/45 18/12/18
f 22/15/22 14/16/14 11/16/11
f 14/16/14 22/15/22 19/15/19
f 24/21/24 35/20/46 52/20/44
f 35/20/46 24/21/24 36/21/46
f 36/21/46 24/21/24 23/22/23
f 36/21/46 23/22/23 38/23/46
f 38/23/46 23/22/23 39/24/46
f 39/24/46 23/22/23 9/25/9
f 39/24/46 9/25/9 41/26/46
f 7/25/7 41/26/46 9/25/9
f 7/25/7 9/25/9 10/27/10
f 7/25/7 43/24/46 41/26/46
f 8/22/8 43/24/46 7/25/7
f 8/22/8 45/23/46 43/24/46
f 8/22/8 47/21/46 45/23/46
f 27/21/27 47/21/46 8/22/8
f 27/21/27 49/20/46 47/21/46
f 49/20/46 27/21/27 25/20/25
f 32/21/32 50/20/47 31/20/31
f 50/20/47 32/21/32 48/21/47
f 48/21/47 32/21/32 1/22/1
f 48/21/47 1/22/1 46/23/47
f 46/23/47 1/22/1 44/24/47
f 44/24/47 1/22/1 2/25/2
f 44/24/47 2/25/2 42/26/47
f 16/25/16 42/26/47 2/25/2
f 16/25/16 2/25/2 15/27/15
f 16/25/16 40/24/47 42/26/47
f 17/22/17 40/24/47 16/25/16
f 17/22/17 37/23/47 40/24/47
f 18/21/18 37/23/47 17/22/17
f 18/21/18 34/21/47 37/23/47
f 18/21/18 33/20/47 34/21/47
f 33/20/47 18/21/18 51/20/45

