# Created by Kenney (www.kenney.nl)

mtllib item-coin-silver.mtl

g item-coin-silver

v -0.132 0 0.1 1 1 1
v -0.2253381 0.0386619 0.1 1 1 1
v -0.0386619 0.0386619 0.1 1 1 1
v -0.132 0.05411961 0.1 1 1 1
v -0.07693025 0.07693025 0.1 1 1 1
v -0.1870697 0.07693025 0.1 1 1 1
v -0.264 0.132 0.1 1 1 1
v -0.2098804 0.132 0.1 1 1 1
v 0 0.132 0.1 1 1 1
v -0.05411961 0.132 0.1 1 1 1
v -0.07693025 0.1870697 0.1 1 1 1
v -0.2253381 0.2253381 0.1 1 1 1
v -0.0386619 0.2253381 0.1 1 1 1
v -0.1870697 0.1870697 0.1 1 1 1
v -0.132 0.2098804 0.1 1 1 1
v -0.132 0.264 0.1 1 1 1
v -0.0386619 0.03866191 1.390841E-09 1 1 1
v -0.132 3.597446E-09 0 1 1 1
v -0.0386619 0.2253381 8.106416E-09 1 1 1
v -0.132 0.264 9.497257E-09 1 1 1
v -0.2253381 0.03866191 1.390841E-09 1 1 1
v -0.132 0.05411961 1.946924E-09 1 1 1
v -0.1870697 0.07693025 2.767524E-09 1 1 1
v -0.07693025 0.07693025 2.767524E-09 1 1 1
v 0 0.132 4.748629E-09 1 1 1
v -0.05411961 0.132 4.748629E-09 1 1 1
v -0.264 0.132 4.748629E-09 1 1 1
v -0.2098804 0.132 4.748629E-09 1 1 1
v -0.1870697 0.1870698 6.729733E-09 1 1 1
v -0.2253381 0.2253381 8.106416E-09 1 1 1
v -0.07693025 0.1870698 6.729733E-09 1 1 1
v -0.132 0.2098804 7.550334E-09 1 1 1
v -0.132 0.06969569 0.075 1 1 1
v -0.1760558 0.0879442 0.075 1 1 1
v -0.08794419 0.0879442 0.075 1 1 1
v -0.06969568 0.132 0.075 1 1 1
v -0.1943043 0.132 0.075 1 1 1
v -0.08794419 0.1760558 0.075 1 1 1
v -0.1760558 0.1760558 0.075 1 1 1
v -0.132 0.1943043 0.075 1 1 1
v -0.132 0.06969569 0.025 1 1 1
v -0.08794419 0.0879442 0.025 1 1 1
v -0.1760558 0.0879442 0.025 1 1 1
v -0.1943043 0.132 0.025 1 1 1
v -0.06969568 0.132 0.025 1 1 1
v -0.1760558 0.1760558 0.02500001 1 1 1
v -0.08794419 0.1760558 0.02500001 1 1 1
v -0.132 0.1943043 0.02500001 1 1 1
v -0.1943043 0.132 0.075 1 1 1
v -0.08794419 0.08794419 0.075 1 1 1
v -0.06969569 0.132 0.075 1 1 1
v -0.07693025 0.07693024 0.1 1 1 1
v -0.05411961 0.132 0.1 1 1 1
v -0.07693025 0.1870697 0.1 1 1 1
v -0.132 0.06969568 0.075 1 1 1
v -0.1760558 0.08794419 0.075 1 1 1
v -0.1870697 0.07693024 0.1 1 1 1
v -0.1760558 0.08794419 0.025 1 1 1
v -0.132 0.05411961 0 1 1 1
v -0.1870697 0.07693025 0 1 1 1
v -0.05411961 0.132 3.72529E-09 1 1 1
v -0.07693025 0.1870697 7.450581E-09 1 1 1
v -0.06969569 0.132 0.025 1 1 1
v -0.2098804 0.132 3.72529E-09 1 1 1
v -0.1943043 0.132 0.025 1 1 1
v -0.132 0.2098804 7.450581E-09 1 1 1
v -0.1870697 0.1870697 7.450581E-09 1 1 1
v -0.07693025 0.07693025 0 1 1 1
v -0.08794419 0.08794419 0.025 1 1 1

vn 0 0 1
vn 0.7071068 -0.7071068 0
vn 0 -1 0
vn 0.7071068 0.7071068 0
vn 0 1 0
vn 0 0 -1
vn -0.7071068 -0.7071068 0
vn -1 0 0
vn -0.7071068 0.7071068 0
vn 1 0 0
vn 0.8487439 0 0.5288041
vn 0.6001526 -0.6001526 0.5288041
vn -0.6001526 0.6001526 0.5288041
vn -0.8487439 0 0.5288041
vn -0.6001526 -0.6001526 0.5288041
vn 0 -0.8487439 0.5288041
vn 0 0.8487439 0.5288041
vn 0.6001526 0.6001526 0.5288041
vn 0 0.8487439 -0.5288041
vn 0.6001526 0.6001526 -0.5288041
vn -0.8487439 0 -0.5288041
vn -0.6001526 -0.6001526 -0.5288041
vn 0.8487439 0 -0.5288041
vn 0 -0.8487439 -0.5288041
vn 0.6001526 -0.6001526 -0.5288041
vn -0.6001526 0.6001526 -0.5288041

vt 0.21875 0.025
vt 0.21875 0.05428932
vt 0.21875 0.0659997
vt 0.21875 0.08328049
vt 0.21875 0.125
vt 0.21875 0.1667195
vt 0.21875 0.1957107
vt 0.21875 0.1840003
vt 0.21875 0.225
vt 0.21875 0.025
vt 0.21875 0.06599971
vt 0.21875 0.1667195
vt 0.21875 0.07779976
vt 0.21875 0.09162439
vt 0.21875 0.1583756
vt 0.21875 0.1722002
vt 0.21875 0.075
vt 0.21875 0.04671573
vt 0.21875 0.03964466
vt 0.21875 0.1032843
vt 0.21875 0.1103553
vt 0.21875 0.035
vt 0.21875 0.115
vt 0.21875 0.1103553

usemtl colormap

f 3/2/1 2/2/1 1/1/1
f 2/2/1 3/2/1 4/3/1
f 4/3/1 3/2/1 5/4/1
f 6/4/1 2/2/1 4/3/1
f 2/2/1 6/4/1 7/5/1
f 7/5/1 6/4/1 8/5/1
f 5/4/1 3/2/1 9/5/1
f 5/4/1 9/5/1 10/5/1
f 10/5/1 9/5/1 11/6/1
f 7/5/1 8/5/1 12/7/1
f 11/6/1 9/5/1 13/7/1
f 12/7/1 8/5/1 14/6/1
f 11/6/1 13/7/1 15/8/1
f 12/7/1 14/6/1 15/8/1
f 12/7/1 15/8/1 13/7/1
f 12/7/1 13/7/1 16/9/1
f 1/1/3 17/2/2 3/2/2
f 17/2/2 1/1/3 18/10/3
f 20/9/5 13/7/4 19/7/4
f 13/7/4 20/9/5 16/9/5
f 21/2/6 17/2/6 18/10/6
f 17/2/6 21/2/6 22/11/6
f 22/11/6 21/2/6 23/4/6
f 24/4/6 17/2/6 22/11/6
f 17/2/6 24/4/6 25/5/6
f 25/5/6 24/4/6 26/5/6
f 23/4/6 21/2/6 27/5/6
f 23/4/6 27/5/6 28/5/6
f 28/5/6 27/5/6 29/12/6
f 25/5/6 26/5/6 19/7/6
f 29/12/6 27/5/6 30/7/6
f 19/7/6 26/5/6 31/12/6
f 29/12/6 30/7/6 32/8/6
f 19/7/6 31/12/6 32/8/6
f 19/7/6 32/8/6 30/7/6
f 19/7/6 30/7/6 20/9/6
f 2/2/7 18/10/3 1/1/3
f 18/10/3 2/2/7 21/2/7
f 2/2/7 27/5/8 21/2/7
f 27/5/8 2/2/7 7/5/8
f 30/7/9 16/9/5 20/9/5
f 16/9/5 30/7/9 12/7/9
f 9/5/10 19/7/4 13/7/4
f 19/7/4 9/5/10 25/5/10
f 3/2/2 25/5/10 9/5/10
f 25/5/10 3/2/2 17/2/2
f 7/5/8 30/7/9 27/5/8
f 30/7/9 7/5/8 12/7/9
f 35/14/1 34/14/1 33/13/1
f 34/14/1 35/14/1 36/5/1
f 34/14/1 36/5/1 37/5/1
f 37/5/1 36/5/1 38/15/1
f 37/5/1 38/15/1 39/15/1
f 39/15/1 38/15/1 40/16/1
f 43/14/6 42/14/6 41/13/6
f 42/14/6 43/14/6 44/5/6
f 42/14/6 44/5/6 45/5/6
f 45/5/6 44/5/6 46/15/6
f 45/5/6 46/15/6 47/15/6
f 47/15/6 46/15/6 48/16/6
f 39/18/12 8/17/11 49/17/11
f 8/17/11 39/18/12 14/19/12
f 52/21/13 51/17/14 50/20/13
f 51/17/14 52/21/13 53/17/14
f 53/17/14 38/18/15 51/17/14
f 38/18/15 53/17/14 54/19/15
f 15/1/16 39/18/12 40/22/16
f 39/18/12 15/1/16 14/19/12
f 50/20/13 4/5/17 52/21/13
f 4/5/17 50/20/13 55/23/17
f 56/20/18 4/5/17 55/23/17
f 4/5/17 56/20/18 57/21/18
f 49/17/11 57/21/18 56/20/18
f 57/21/18 49/17/11 8/17/11
f 15/1/16 38/18/15 54/19/15
f 38/18/15 15/1/16 40/22/16
f 59/5/19 58/20/20 41/23/19
f 58/20/20 59/5/19 60/24/20
f 63/17/21 62/19/22 61/17/21
f 62/19/22 63/17/21 47/18/22
f 64/17/23 58/20/20 60/24/20
f 58/20/20 64/17/23 65/17/23
f 46/18/25 66/1/24 48/22/24
f 66/1/24 46/18/25 67/19/25
f 47/18/22 66/1/24 62/19/22
f 66/1/24 47/18/22 48/22/24
f 67/19/25 65/17/23 64/17/23
f 65/17/23 67/19/25 46/18/25
f 59/5/19 69/20/26 68/24/26
f 69/20/26 59/5/19 41/23/19
f 69/20/26 61/17/21 68/24/26
f 61/17/21 69/20/26 63/17/21

g item-coin-silver




usemtl colormap

f 3/2/1 2/2/1 1/1/1
f 2/2/1 3/2/1 4/3/1
f 4/3/1 3/2/1 5/4/1
f 6/4/1 2/2/1 4/3/1
f 2/2/1 6/4/1 7/5/1
f 7/5/1 6/4/1 8/5/1
f 5/4/1 3/2/1 9/5/1
f 5/4/1 9/5/1 10/5/1
f 10/5/1 9/5/1 11/6/1
f 7/5/1 8/5/1 12/7/1
f 11/6/1 9/5/1 13/7/1
f 12/7/1 8/5/1 14/6/1
f 11/6/1 13/7/1 15/8/1
f 12/7/1 14/6/1 15/8/1
f 12/7/1 15/8/1 13/7/1
f 12/7/1 13/7/1 16/9/1
f 1/1/3 17/2/2 3/2/2
f 17/2/2 1/1/3 18/10/3
f 20/9/5 13/7/4 19/7/4
f 13/7/4 20/9/5 16/9/5
f 21/2/6 17/2/6 18/10/6
f 17/2/6 21/2/6 22/11/6
f 22/11/6 21/2/6 23/4/6
f 24/4/6 17/2/6 22/11/6
f 17/2/6 24/4/6 25/5/6
f 25/5/6 24/4/6 26/5/6
f 23/4/6 21/2/6 27/5/6
f 23/4/6 27/5/6 28/5/6
f 28/5/6 27/5/6 29/12/6
f 25/5/6 26/5/6 19/7/6
f 29/12/6 27/5/6 30/7/6
f 19/7/6 26/5/6 31/12/6
f 29/12/6 30/7/6 32/8/6
f 19/7/6 31/12/6 32/8/6
f 19/7/6 32/8/6 30/7/6
f 19/7/6 30/7/6 20/9/6
f 2/2/7 18/10/3 1/1/3
f 18/10/3 2/2/7 21/2/7
f 2/2/7 27/5/8 21/2/7
f 27/5/8 2/2/7 7/5/8
f 30/7/9 16/9/5 20/9/5
f 16/9/5 30/7/9 12/7/9
f 9/5/10 19/7/4 13/7/4
f 19/7/4 9/5/10 25/5/10
f 3/2/2 25/5/10 9/5/10
f 25/5/10 3/2/2 17/2/2
f 7/5/8 30/7/9 27/5/8
f 30/7/9 7/5/8 12/7/9
f 35/14/1 34/14/1 33/13/1
f 34/14/1 35/14/1 36/5/1
f 34/14/1 36/5/1 37/5/1
f 37/5/1 36/5/1 38/15/1
f 37/5/1 38/15/1 39/15/1
f 39/15/1 38/15/1 40/16/1
f 43/14/6 42/14/6 41/13/6
f 42/14/6 43/14/6 44/5/6
f 42/14/6 44/5/6 45/5/6
f 45/5/6 44/5/6 46/15/6
f 45/5/6 46/15/6 47/15/6
f 47/15/6 46/15/6 48/16/6
f 39/18/12 8/17/11 49/17/11
f 8/17/11 39/18/12 14/19/12
f 52/21/13 51/17/14 50/20/13
f 51/17/14 52/21/13 53/17/14
f 53/17/14 38/18/15 51/17/14
f 38/18/15 53/17/14 54/19/15
f 15/1/16 39/18/12 40/22/16
f 39/18/12 15/1/16 14/19/12
f 50/20/13 4/5/17 52/21/13
f 4/5/17 50/20/13 55/23/17
f 56/20/18 4/5/17 55/23/17
f 4/5/17 56/20/18 57/21/18
f 49/17/11 57/21/18 56/20/18
f 57/21/18 49/17/11 8/17/11
f 15/1/16 38/18/15 54/19/15
f 38/18/15 15/1/16 40/22/16
f 59/5/19 58/20/20 41/23/19
f 58/20/20 59/5/19 60/24/20
f 63/17/21 62/19/22 61/17/21
f 62/19/22 63/17/21 47/18/22
f 64/17/23 58/20/20 60/24/20
f 58/20/20 64/17/23 65/17/23
f 46/18/25 66/1/24 48/22/24
f 66/1/24 46/18/25 67/19/25
f 47/18/22 66/1/24 62/19/22
f 66/1/24 47/18/22 48/22/24
f 67/19/25 65/17/23 64/17/23
f 65/17/23 67/19/25 46/18/25
f 59/5/19 69/20/26 68/24/26
f 69/20/26 59/5/19 41/23/19
f 69/20/26 61/17/21 68/24/26
f 61/17/21 69/20/26 63/17/21

