# Created by Kenney (www.kenney.nl)

mtllib supports-wide.mtl

g supports-wide

v -1 3.779683E-16 0.5 1 1 1
v -0.85 3.779683E-16 0.5 1 1 1
v -1 3.779683E-16 0.35 1 1 1
v -0.85 3.779683E-16 0.35 1 1 1
v -0.85 1 0.5 1 1 1
v -1 1 0.5 1 1 1
v -0.85 1 0.35 1 1 1
v -1 1 0.35 1 1 1
v -1 5.584461E-16 -0.5 1 1 1
v -1 5.584461E-16 -0.35 1 1 1
v -0.85 5.584461E-16 -0.5 1 1 1
v -0.85 5.584461E-16 -0.35 1 1 1
v -1 1 -0.35 1 1 1
v -1 1 -0.5 1 1 1
v -0.85 1 -0.35 1 1 1
v -0.85 1 -0.5 1 1 1
v 0.85 2.651696E-16 -0.5 1 1 1
v 0.85 2.651696E-16 -0.35 1 1 1
v 1 2.651696E-16 -0.5 1 1 1
v 1 2.651696E-16 -0.35 1 1 1
v 0.85 1 -0.35 1 1 1
v 0.85 1 -0.5 1 1 1
v 1 1 -0.35 1 1 1
v 1 1 -0.5 1 1 1
v 0.85 0 0.5 1 1 1
v 1 0 0.5 1 1 1
v 0.85 0 0.35 1 1 1
v 1 0 0.35 1 1 1
v 1 1 0.5 1 1 1
v 0.85 1 0.5 1 1 1
v 1 1 0.35 1 1 1
v 0.85 1 0.35 1 1 1
v -0.8875 0.425 -0.35 1 1 1
v -0.9625 0.425 -0.35 1 1 1
v -0.8875 0.425 0.35 1 1 1
v -0.9625 0.425 0.35 1 1 1
v -0.9625 0.575 -0.35 1 1 1
v -0.9625 0.575 0.35 1 1 1
v -0.8875 0.575 -0.35 1 1 1
v -0.8875 0.575 0.35 1 1 1
v 0.9625 0.425 -0.35 1 1 1
v 0.8875 0.425 -0.35 1 1 1
v 0.9625 0.425 0.35 1 1 1
v 0.8875 0.425 0.35 1 1 1
v 0.8875 0.575 -0.35 1 1 1
v 0.8875 0.575 0.35 1 1 1
v 0.9625 0.575 -0.35 1 1 1
v 0.9625 0.575 0.35 1 1 1

vn 0 -1 0
vn 0 1 0
vn -0.7071068 0 0.7071066
vn -0.7071066 0 -0.7071068
vn 0.7071068 0 -0.7071066
vn 0.7071066 0 0.7071068
vn -0.7071068 0 -0.7071068
vn 0.7071068 0 -0.7071068
vn 0.7071068 0 0.7071068
vn -0.7071068 0 0.7071068
vn 0.7071068 -0.7071068 0
vn -0.7071068 -0.7071068 0
vn -0.7071068 0.7071068 0
vn 0.7071068 0.7071068 0

vt 0.71875 0.275
vt 0.71875 0.475
vt 0.71875 0.325
vt 0.71875 0.425

usemtl colormap

f 3/1/1 2/1/1 1/1/1
f 2/1/1 3/1/1 4/1/1
f 7/2/2 6/2/2 5/2/2
f 6/2/2 7/2/2 8/2/2
f 6/2/3 3/1/4 1/1/3
f 3/1/4 6/2/3 8/2/4
f 3/1/4 7/2/5 4/1/5
f 7/2/5 3/1/4 8/2/4
f 7/2/5 2/1/6 4/1/5
f 2/1/6 7/2/5 5/2/6
f 6/2/3 2/1/6 5/2/6
f 2/1/6 6/2/3 1/1/3
f 11/1/1 10/1/1 9/1/1
f 10/1/1 11/1/1 12/1/1
f 15/2/2 14/2/2 13/2/2
f 14/2/2 15/2/2 16/2/2
f 14/2/7 11/1/8 9/1/7
f 11/1/8 14/2/7 16/2/8
f 11/1/8 15/2/9 12/1/9
f 15/2/9 11/1/8 16/2/8
f 15/2/9 10/1/10 12/1/9
f 10/1/10 15/2/9 13/2/10
f 14/2/7 10/1/10 13/2/10
f 10/1/10 14/2/7 9/1/7
f 19/1/1 18/1/1 17/1/1
f 18/1/1 19/1/1 20/1/1
f 23/2/2 22/2/2 21/2/2
f 22/2/2 23/2/2 24/2/2
f 22/2/7 19/1/8 17/1/7
f 19/1/8 22/2/7 24/2/8
f 19/1/8 23/2/9 20/1/9
f 23/2/9 19/1/8 24/2/8
f 23/2/9 18/1/10 20/1/9
f 18/1/10 23/2/9 21/2/10
f 22/2/7 18/1/10 21/2/10
f 18/1/10 22/2/7 17/1/7
f 27/1/1 26/1/1 25/1/1
f 26/1/1 27/1/1 28/1/1
f 31/2/2 30/2/2 29/2/2
f 30/2/2 31/2/2 32/2/2
f 30/2/3 27/1/4 25/1/3
f 27/1/4 30/2/3 32/2/4
f 27/1/4 31/2/5 28/1/5
f 31/2/5 27/1/4 32/2/4
f 31/2/5 26/1/6 28/1/5
f 26/1/6 31/2/5 29/2/6
f 30/2/3 26/1/6 29/2/6
f 26/1/6 30/2/3 25/1/3
f 35/3/11 34/3/12 33/3/11
f 34/3/12 35/3/11 36/3/12
f 34/3/12 38/4/13 37/4/13
f 38/4/13 34/3/12 36/3/12
f 37/4/13 40/4/14 39/4/14
f 40/4/14 37/4/13 38/4/13
f 40/4/14 33/3/11 39/4/14
f 33/3/11 40/4/14 35/3/11
f 43/3/11 42/3/12 41/3/11
f 42/3/12 43/3/11 44/3/12
f 42/3/12 46/4/13 45/4/13
f 46/4/13 42/3/12 44/3/12
f 45/4/13 48/4/14 47/4/14
f 48/4/14 45/4/13 46/4/13
f 48/4/14 41/3/11 47/4/14
f 41/3/11 48/4/14 43/3/11

g supports-wide




usemtl colormap

f 3/1/1 2/1/1 1/1/1
f 2/1/1 3/1/1 4/1/1
f 7/2/2 6/2/2 5/2/2
f 6/2/2 7/2/2 8/2/2
f 6/2/3 3/1/4 1/1/3
f 3/1/4 6/2/3 8/2/4
f 3/1/4 7/2/5 4/1/5
f 7/2/5 3/1/4 8/2/4
f 7/2/5 2/1/6 4/1/5
f 2/1/6 7/2/5 5/2/6
f 6/2/3 2/1/6 5/2/6
f 2/1/6 6/2/3 1/1/3
f 11/1/1 10/1/1 9/1/1
f 10/1/1 11/1/1 12/1/1
f 15/2/2 14/2/2 13/2/2
f 14/2/2 15/2/2 16/2/2
f 14/2/7 11/1/8 9/1/7
f 11/1/8 14/2/7 16/2/8
f 11/1/8 15/2/9 12/1/9
f 15/2/9 11/1/8 16/2/8
f 15/2/9 10/1/10 12/1/9
f 10/1/10 15/2/9 13/2/10
f 14/2/7 10/1/10 13/2/10
f 10/1/10 14/2/7 9/1/7
f 19/1/1 18/1/1 17/1/1
f 18/1/1 19/1/1 20/1/1
f 23/2/2 22/2/2 21/2/2
f 22/2/2 23/2/2 24/2/2
f 22/2/7 19/1/8 17/1/7
f 19/1/8 22/2/7 24/2/8
f 19/1/8 23/2/9 20/1/9
f 23/2/9 19/1/8 24/2/8
f 23/2/9 18/1/10 20/1/9
f 18/1/10 23/2/9 21/2/10
f 22/2/7 18/1/10 21/2/10
f 18/1/10 22/2/7 17/1/7
f 27/1/1 26/1/1 25/1/1
f 26/1/1 27/1/1 28/1/1
f 31/2/2 30/2/2 29/2/2
f 30/2/2 31/2/2 32/2/2
f 30/2/3 27/1/4 25/1/3
f 27/1/4 30/2/3 32/2/4
f 27/1/4 31/2/5 28/1/5
f 31/2/5 27/1/4 32/2/4
f 31/2/5 26/1/6 28/1/5
f 26/1/6 31/2/5 29/2/6
f 30/2/3 26/1/6 29/2/6
f 26/1/6 30/2/3 25/1/3
f 35/3/11 34/3/12 33/3/11
f 34/3/12 35/3/11 36/3/12
f 34/3/12 38/4/13 37/4/13
f 38/4/13 34/3/12 36/3/12
f 37/4/13 40/4/14 39/4/14
f 40/4/14 37/4/13 38/4/13
f 40/4/14 33/3/11 39/4/14
f 33/3/11 40/4/14 35/3/11
f 43/3/11 42/3/12 41/3/11
f 42/3/12 43/3/11 44/3/12
f 42/3/12 46/4/13 45/4/13
f 46/4/13 42/3/12 44/3/12
f 45/4/13 48/4/14 47/4/14
f 48/4/14 45/4/13 46/4/13
f 48/4/14 41/3/11 47/4/14
f 41/3/11 48/4/14 43/3/11

