# Created by Kenney (www.kenney.nl)

mtllib supports-diagonal.mtl

g supports-diagonal

v -0.5 2.932765E-16 0.5 1 1 1
v -0.35 2.932765E-16 0.5 1 1 1
v -0.5 2.932765E-16 0.35 1 1 1
v -0.35 2.932765E-16 0.35 1 1 1
v -0.35 1 0.5 1 1 1
v -0.5 1 0.5 1 1 1
v -0.35 1 0.35 1 1 1
v -0.5 1 0.35 1 1 1
v -0.5 4.737544E-16 -0.5 1 1 1
v -0.5 4.737544E-16 -0.35 1 1 1
v -0.35 4.737544E-16 -0.5 1 1 1
v -0.35 4.737544E-16 -0.35 1 1 1
v -0.5 1 -0.35 1 1 1
v -0.5 1 -0.5 1 1 1
v -0.35 1 -0.35 1 1 1
v -0.35 1 -0.5 1 1 1
v 0.35 0 0.5 1 1 1
v 0.5 0 0.5 1 1 1
v 0.35 0 0.35 1 1 1
v 0.5 0 0.35 1 1 1
v 0.5 1 0.5 1 1 1
v 0.35 1 0.5 1 1 1
v 0.5 1 0.35 1 1 1
v 0.35 1 0.35 1 1 1
v 0.35 1.804779E-16 -0.5 1 1 1
v 0.35 1.804779E-16 -0.35 1 1 1
v 0.5 1.804779E-16 -0.5 1 1 1
v 0.5 1.804779E-16 -0.35 1 1 1
v 0.35 1 -0.35 1 1 1
v 0.35 1 -0.5 1 1 1
v 0.5 1 -0.35 1 1 1
v 0.5 1 -0.5 1 1 1
v -0.4437499 0.15 0.35 1 1 1
v -0.44375 0.625 -0.35 1 1 1
v -0.4437499 0.375 0.35 1 1 1
v -0.44375 0.85 -0.35 1 1 1
v -0.4062499 0.15 0.35 1 1 1
v -0.4062499 0.375 0.35 1 1 1
v -0.40625 0.625 -0.35 1 1 1
v -0.40625 0.85 -0.35 1 1 1
v -0.4625 0.15 -0.35 1 1 1
v -0.4624999 0.625 0.35 1 1 1
v -0.4625 0.375 -0.35 1 1 1
v -0.4624999 0.85 0.35 1 1 1
v -0.3875 0.15 -0.35 1 1 1
v -0.3875 0.375 -0.35 1 1 1
v -0.3874999 0.625 0.35 1 1 1
v -0.3874999 0.85 0.35 1 1 1
v 0.3874999 0.15 -0.35 1 1 1
v 0.3875 0.625 0.35 1 1 1
v 0.3874999 0.375 -0.35 1 1 1
v 0.3875 0.85 0.35 1 1 1
v 0.4624999 0.15 -0.35 1 1 1
v 0.4624999 0.375 -0.35 1 1 1
v 0.4625 0.625 0.35 1 1 1
v 0.4625 0.85 0.35 1 1 1
v 0.40625 0.15 0.35 1 1 1
v 0.4062499 0.625 -0.35 1 1 1
v 0.40625 0.375 0.35 1 1 1
v 0.4062499 0.85 -0.35 1 1 1
v 0.44375 0.15 0.35 1 1 1
v 0.44375 0.375 0.35 1 1 1
v 0.4437499 0.625 -0.35 1 1 1
v 0.4437499 0.85 -0.35 1 1 1

vn 0 -1 0
vn 0 1 0
vn -0.7071068 0 0.7071066
vn -0.7071066 0 -0.7071068
vn 0.7071068 0 -0.7071066
vn 0.7071066 0 0.7071068
vn -0.7071068 0 -0.7071068
vn 0.7071068 0 -0.7071068
vn 0.7071068 0 0.7071068
vn -0.7071068 0 0.7071068
vn -0.7786345 -0.5192227 -0.3523296
vn -0.9401552 -0.2819595 -0.1913296
vn -0.9401551 0.2819595 0.1913297
vn -0.7786344 0.5192227 0.3523297
vn 0.7786344 -0.5192227 -0.3523297
vn 0.9401552 0.2819595 0.1913296
vn 0.9401551 -0.2819595 -0.1913297
vn 0.7786345 0.5192227 0.3523296
vn -0.5272145 -0.7031329 0.4771259
vn -0.8096594 -0.4856457 0.3295453
vn -0.8096595 0.4856457 -0.3295452
vn -0.5272146 0.7031329 -0.4771258
vn 0.5272146 -0.7031329 0.4771258
vn 0.8096594 0.4856457 -0.3295453
vn 0.8096595 -0.4856457 0.3295452
vn 0.5272145 0.7031329 -0.4771259

vt 0.71875 0.275
vt 0.71875 0.475
vt 0.71875 0.375
vt 0.71875 0.4428571
vt 0.71875 0.4071428

usemtl colormap

f 3/1/1 2/1/1 1/1/1
f 2/1/1 3/1/1 4/1/1
f 7/2/2 6/2/2 5/2/2
f 6/2/2 7/2/2 8/2/2
f 6/2/3 3/1/4 1/1/3
f 3/1/4 6/2/3 8/2/4
f 3/1/4 7/2/5 4/1/5
f 7/2/5 3/1/4 8/2/4
f 7/2/5 2/1/6 4/1/5
f 2/1/6 7/2/5 5/2/6
f 6/2/3 2/1/6 5/2/6
f 2/1/6 6/2/3 1/1/3
f 11/1/1 10/1/1 9/1/1
f 10/1/1 11/1/1 12/1/1
f 15/2/2 14/2/2 13/2/2
f 14/2/2 15/2/2 16/2/2
f 14/2/7 11/1/8 9/1/7
f 11/1/8 14/2/7 16/2/8
f 11/1/8 15/2/9 12/1/9
f 15/2/9 11/1/8 16/2/8
f 15/2/9 10/1/10 12/1/9
f 10/1/10 15/2/9 13/2/10
f 14/2/7 10/1/10 13/2/10
f 10/1/10 14/2/7 9/1/7
f 19/1/1 18/1/1 17/1/1
f 18/1/1 19/1/1 20/1/1
f 23/2/2 22/2/2 21/2/2
f 22/2/2 23/2/2 24/2/2
f 22/2/3 19/1/4 17/1/3
f 19/1/4 22/2/3 24/2/4
f 19/1/4 23/2/5 20/1/5
f 23/2/5 19/1/4 24/2/4
f 23/2/5 18/1/6 20/1/5
f 18/1/6 23/2/5 21/2/6
f 22/2/3 18/1/6 21/2/6
f 18/1/6 22/2/3 17/1/3
f 27/1/1 26/1/1 25/1/1
f 26/1/1 27/1/1 28/1/1
f 31/2/2 30/2/2 29/2/2
f 30/2/2 31/2/2 32/2/2
f 30/2/7 27/1/8 25/1/7
f 27/1/8 30/2/7 32/2/8
f 27/1/8 31/2/9 28/1/9
f 31/2/9 27/1/8 32/2/8
f 31/2/9 26/1/10 28/1/9
f 26/1/10 31/2/9 29/2/10
f 30/2/7 26/1/10 29/2/10
f 26/1/10 30/2/7 25/1/7
f 35/5/13 34/4/12 33/3/11
f 34/4/12 35/5/13 36/2/14
f 39/4/17 38/5/16 37/3/15
f 38/5/16 39/4/17 40/2/18
f 35/5/13 40/2/18 36/2/14
f 40/2/18 35/5/13 38/5/16
f 37/3/15 34/4/12 39/4/17
f 34/4/12 37/3/15 33/3/11
f 41/3/19 45/3/23 42/4/20
f 47/4/25 42/4/20 45/3/23
f 46/5/24 43/5/21 48/2/26
f 44/2/22 48/2/26 43/5/21
f 48/2/26 47/4/25 46/5/24
f 45/3/23 46/5/24 47/4/25
f 44/2/22 43/5/21 42/4/20
f 41/3/19 42/4/20 43/5/21
f 49/3/19 53/3/23 50/4/20
f 55/4/25 50/4/20 53/3/23
f 54/5/24 51/5/21 56/2/26
f 52/2/22 56/2/26 51/5/21
f 56/2/26 55/4/25 54/5/24
f 53/3/23 54/5/24 55/4/25
f 52/2/22 51/5/21 50/4/20
f 49/3/19 50/4/20 51/5/21
f 59/5/13 58/4/12 57/3/11
f 58/4/12 59/5/13 60/2/14
f 63/4/17 62/5/16 61/3/15
f 62/5/16 63/4/17 64/2/18
f 60/2/14 62/5/16 64/2/18
f 62/5/16 60/2/14 59/5/13
f 61/3/15 58/4/12 63/4/17
f 58/4/12 61/3/15 57/3/11

g supports-diagonal




usemtl colormap

f 3/1/1 2/1/1 1/1/1
f 2/1/1 3/1/1 4/1/1
f 7/2/2 6/2/2 5/2/2
f 6/2/2 7/2/2 8/2/2
f 6/2/3 3/1/4 1/1/3
f 3/1/4 6/2/3 8/2/4
f 3/1/4 7/2/5 4/1/5
f 7/2/5 3/1/4 8/2/4
f 7/2/5 2/1/6 4/1/5
f 2/1/6 7/2/5 5/2/6
f 6/2/3 2/1/6 5/2/6
f 2/1/6 6/2/3 1/1/3
f 11/1/1 10/1/1 9/1/1
f 10/1/1 11/1/1 12/1/1
f 15/2/2 14/2/2 13/2/2
f 14/2/2 15/2/2 16/2/2
f 14/2/7 11/1/8 9/1/7
f 11/1/8 14/2/7 16/2/8
f 11/1/8 15/2/9 12/1/9
f 15/2/9 11/1/8 16/2/8
f 15/2/9 10/1/10 12/1/9
f 10/1/10 15/2/9 13/2/10
f 14/2/7 10/1/10 13/2/10
f 10/1/10 14/2/7 9/1/7
f 19/1/1 18/1/1 17/1/1
f 18/1/1 19/1/1 20/1/1
f 23/2/2 22/2/2 21/2/2
f 22/2/2 23/2/2 24/2/2
f 22/2/3 19/1/4 17/1/3
f 19/1/4 22/2/3 24/2/4
f 19/1/4 23/2/5 20/1/5
f 23/2/5 19/1/4 24/2/4
f 23/2/5 18/1/6 20/1/5
f 18/1/6 23/2/5 21/2/6
f 22/2/3 18/1/6 21/2/6
f 18/1/6 22/2/3 17/1/3
f 27/1/1 26/1/1 25/1/1
f 26/1/1 27/1/1 28/1/1
f 31/2/2 30/2/2 29/2/2
f 30/2/2 31/2/2 32/2/2
f 30/2/7 27/1/8 25/1/7
f 27/1/8 30/2/7 32/2/8
f 27/1/8 31/2/9 28/1/9
f 31/2/9 27/1/8 32/2/8
f 31/2/9 26/1/10 28/1/9
f 26/1/10 31/2/9 29/2/10
f 30/2/7 26/1/10 29/2/10
f 26/1/10 30/2/7 25/1/7
f 35/5/13 34/4/12 33/3/11
f 34/4/12 35/5/13 36/2/14
f 39/4/17 38/5/16 37/3/15
f 38/5/16 39/4/17 40/2/18
f 35/5/13 40/2/18 36/2/14
f 40/2/18 35/5/13 38/5/16
f 37/3/15 34/4/12 39/4/17
f 34/4/12 37/3/15 33/3/11
f 41/3/19 45/3/23 42/4/20
f 47/4/25 42/4/20 45/3/23
f 46/5/24 43/5/21 48/2/26
f 44/2/22 48/2/26 43/5/21
f 48/2/26 47/4/25 46/5/24
f 45/3/23 46/5/24 47/4/25
f 44/2/22 43/5/21 42/4/20
f 41/3/19 42/4/20 43/5/21
f 49/3/19 53/3/23 50/4/20
f 55/4/25 50/4/20 53/3/23
f 54/5/24 51/5/21 56/2/26
f 52/2/22 56/2/26 51/5/21
f 56/2/26 55/4/25 54/5/24
f 53/3/23 54/5/24 55/4/25
f 52/2/22 51/5/21 50/4/20
f 49/3/19 50/4/20 51/5/21
f 59/5/13 58/4/12 57/3/11
f 58/4/12 59/5/13 60/2/14
f 63/4/17 62/5/16 61/3/15
f 62/5/16 63/4/17 64/2/18
f 60/2/14 62/5/16 64/2/18
f 62/5/16 60/2/14 59/5/13
f 61/3/15 58/4/12 63/4/17
f 58/4/12 61/3/15 57/3/11

