# Created by Kenney (www.kenney.nl)

mtllib supports-clamp.mtl

g supports-clamp

v 0.5 -0.1 -0.5 1 1 1
v 0.5707107 -0.07071068 -0.5 1 1 1
v 0.5 0.25 -0.5 1 1 1
v 0.6 0 -0.5 1 1 1
v 0.6 0.25 -0.5 1 1 1
v 0.6 0.25 -0.35 1 1 1
v 0.5 0.25 -0.35 1 1 1
v 0.6 0 -0.35 1 1 1
v 0.5707107 -0.07071068 -0.35 1 1 1
v 0.5 -0.1 -0.35 1 1 1
v -0.5 0.25 -0.5 1 1 1
v -0.5 0.25 -0.35 1 1 1
v -0.6 0.25 -0.5 1 1 1
v -0.6 0.25 -0.35 1 1 1
v -0.6 0 -0.5 1 1 1
v -0.6 0 -0.35 1 1 1
v -0.5707107 -0.07071068 -0.5 1 1 1
v -0.5707107 -0.07071068 -0.35 1 1 1
v -0.5 -0.1 -0.5 1 1 1
v -0.5 -0.1 -0.35 1 1 1
v -0.5707107 -0.07071068 0.35 1 1 1
v -0.6 0 0.35 1 1 1
v -0.5707107 -0.07071068 0.5 1 1 1
v -0.6 0 0.5 1 1 1
v -0.6 0.25 0.35 1 1 1
v -0.6 0.25 0.5 1 1 1
v -0.5 0.25 0.35 1 1 1
v -0.5 0.25 0.5 1 1 1
v -0.5 -0.1 0.35 1 1 1
v -0.5 -0.1 0.5 1 1 1
v 0.5 -0.1 0.35 1 1 1
v 0.5 0.25 0.35 1 1 1
v 0.5 -0.1 0.5 1 1 1
v 0.5 0.25 0.5 1 1 1
v 0.6 0 0.35 1 1 1
v 0.5707107 -0.07071068 0.35 1 1 1
v 0.6 0 0.5 1 1 1
v 0.5707107 -0.07071068 0.5 1 1 1
v 0.6 0.25 0.5 1 1 1
v 0.6 0.25 0.35 1 1 1

vn 0 0 -1
vn 0 1 0
vn 1 0 0
vn 0.9807853 -0.1950903 0
vn 0.7071068 -0.7071068 0
vn -0.5555702 -0.8314696 0
vn -1 0 0
vn 0 0 1
vn -0.9807853 -0.1950903 0
vn -0.7071068 -0.7071068 0
vn 0.5555702 -0.8314696 0

vt 0.71875 0.275
vt 0.71875 0.2917368
vt 0.71875 0.475
vt 0.71875 0.3321429

usemtl colormap

f 3/3/1 2/2/1 1/1/1
f 2/2/1 3/3/1 4/4/1
f 4/4/1 3/3/1 5/3/1
f 3/3/2 6/3/2 5/3/2
f 6/3/2 3/3/2 7/3/2
f 6/3/3 4/4/4 5/3/3
f 4/4/4 6/3/3 8/4/4
f 10/1/6 2/2/5 9/2/5
f 2/2/5 10/1/6 1/1/6
f 8/4/4 2/2/5 4/4/4
f 2/2/5 8/4/4 9/2/5
f 10/1/6 3/3/7 1/1/6
f 3/3/7 10/1/6 7/3/7
f 9/2/8 7/3/8 10/1/8
f 7/3/8 9/2/8 8/4/8
f 7/3/8 8/4/8 6/3/8
f 13/3/2 12/3/2 11/3/2
f 12/3/2 13/3/2 14/3/2
f 16/4/9 13/3/7 15/4/9
f 13/3/7 16/4/9 14/3/7
f 18/2/10 15/4/9 17/2/10
f 15/4/9 18/2/10 16/4/9
f 12/3/3 19/1/11 11/3/3
f 19/1/11 12/3/3 20/1/11
f 17/2/1 11/3/1 19/1/1
f 11/3/1 17/2/1 15/4/1
f 11/3/1 15/4/1 13/3/1
f 18/2/10 19/1/11 20/1/11
f 19/1/11 18/2/10 17/2/10
f 12/3/8 18/2/8 20/1/8
f 18/2/8 12/3/8 16/4/8
f 16/4/8 12/3/8 14/3/8
f 23/2/10 22/4/9 21/2/10
f 22/4/9 23/2/10 24/4/9
f 24/4/9 25/3/7 22/4/9
f 25/3/7 24/4/9 26/3/7
f 25/3/2 28/3/2 27/3/2
f 28/3/2 25/3/2 26/3/2
f 28/3/3 29/1/11 27/3/3
f 29/1/11 28/3/3 30/1/11
f 21/2/1 27/3/1 29/1/1
f 27/3/1 21/2/1 22/4/1
f 27/3/1 22/4/1 25/3/1
f 28/3/8 23/2/8 30/1/8
f 23/2/8 28/3/8 24/4/8
f 24/4/8 28/3/8 26/3/8
f 23/2/10 29/1/11 30/1/11
f 29/1/11 23/2/10 21/2/10
f 33/1/6 32/3/7 31/1/6
f 32/3/7 33/1/6 34/3/7
f 37/4/4 36/2/5 35/4/4
f 36/2/5 37/4/4 38/2/5
f 33/1/6 36/2/5 38/2/5
f 36/2/5 33/1/6 31/1/6
f 38/2/8 34/3/8 33/1/8
f 34/3/8 38/2/8 37/4/8
f 34/3/8 37/4/8 39/3/8
f 32/3/2 39/3/2 40/3/2
f 39/3/2 32/3/2 34/3/2
f 39/3/3 35/4/4 40/3/3
f 35/4/4 39/3/3 37/4/4
f 32/3/1 36/2/1 31/1/1
f 36/2/1 32/3/1 35/4/1
f 35/4/1 32/3/1 40/3/1

g supports-clamp




usemtl colormap

f 3/3/1 2/2/1 1/1/1
f 2/2/1 3/3/1 4/4/1
f 4/4/1 3/3/1 5/3/1
f 3/3/2 6/3/2 5/3/2
f 6/3/2 3/3/2 7/3/2
f 6/3/3 4/4/4 5/3/3
f 4/4/4 6/3/3 8/4/4
f 10/1/6 2/2/5 9/2/5
f 2/2/5 10/1/6 1/1/6
f 8/4/4 2/2/5 4/4/4
f 2/2/5 8/4/4 9/2/5
f 10/1/6 3/3/7 1/1/6
f 3/3/7 10/1/6 7/3/7
f 9/2/8 7/3/8 10/1/8
f 7/3/8 9/2/8 8/4/8
f 7/3/8 8/4/8 6/3/8
f 13/3/2 12/3/2 11/3/2
f 12/3/2 13/3/2 14/3/2
f 16/4/9 13/3/7 15/4/9
f 13/3/7 16/4/9 14/3/7
f 18/2/10 15/4/9 17/2/10
f 15/4/9 18/2/10 16/4/9
f 12/3/3 19/1/11 11/3/3
f 19/1/11 12/3/3 20/1/11
f 17/2/1 11/3/1 19/1/1
f 11/3/1 17/2/1 15/4/1
f 11/3/1 15/4/1 13/3/1
f 18/2/10 19/1/11 20/1/11
f 19/1/11 18/2/10 17/2/10
f 12/3/8 18/2/8 20/1/8
f 18/2/8 12/3/8 16/4/8
f 16/4/8 12/3/8 14/3/8
f 23/2/10 22/4/9 21/2/10
f 22/4/9 23/2/10 24/4/9
f 24/4/9 25/3/7 22/4/9
f 25/3/7 24/4/9 26/3/7
f 25/3/2 28/3/2 27/3/2
f 28/3/2 25/3/2 26/3/2
f 28/3/3 29/1/11 27/3/3
f 29/1/11 28/3/3 30/1/11
f 21/2/1 27/3/1 29/1/1
f 27/3/1 21/2/1 22/4/1
f 27/3/1 22/4/1 25/3/1
f 28/3/8 23/2/8 30/1/8
f 23/2/8 28/3/8 24/4/8
f 24/4/8 28/3/8 26/3/8
f 23/2/10 29/1/11 30/1/11
f 29/1/11 23/2/10 21/2/10
f 33/1/6 32/3/7 31/1/6
f 32/3/7 33/1/6 34/3/7
f 37/4/4 36/2/5 35/4/4
f 36/2/5 37/4/4 38/2/5
f 33/1/6 36/2/5 38/2/5
f 36/2/5 33/1/6 31/1/6
f 38/2/8 34/3/8 33/1/8
f 34/3/8 38/2/8 37/4/8
f 34/3/8 37/4/8 39/3/8
f 32/3/2 39/3/2 40/3/2
f 39/3/2 32/3/2 34/3/2
f 39/3/3 35/4/4 40/3/3
f 35/4/4 39/3/3 37/4/4
f 32/3/1 36/2/1 31/1/1
f 36/2/1 32/3/1 35/4/1
f 35/4/1 32/3/1 40/3/1

