# Created by Kenney (www.kenney.nl)

mtllib track-striped-narrow-straight-hill-complete.mtl

g track-striped-narrow-straight-hill-complete

v 0.5 0.07013154 0.8310194 1 1 1
v 0.5 0.0159961 0.417501 1 1 1
v -0.5 0.07013154 0.8310194 1 1 1
v -0.5 0.0159961 0.417501 1 1 1
v -0.5 0.3150299 0.3934422 1 1 1
v -0.5 0.3650624 0.776103 1 1 1
v 0.4000001 0.115674 0.409481 1 1 1
v 0.4000001 0.3150299 0.3934422 1 1 1
v 0.4000001 0.1684418 0.8127136 1 1 1
v 0.4000001 0.3650624 0.776103 1 1 1
v -0.4000001 0.3150299 0.3934422 1 1 1
v -0.4000001 0.3650624 0.776103 1 1 1
v 0.5 0.3150299 0.3934422 1 1 1
v 0.5 0.3650624 0.776103 1 1 1
v -0.4000001 0.115674 0.409481 1 1 1
v -0.4000001 0.1684418 0.8127136 1 1 1
v 0.5 0 4.291534E-06 1 1 1
v -0.5 0 4.291534E-06 1 1 1
v 0.4000001 0.1 4.291534E-06 1 1 1
v 0.4000001 0.3 4.291534E-06 1 1 1
v 0.5 0.3 4.291534E-06 1 1 1
v -0.4000001 0.1 4.291534E-06 1 1 1
v -0.5 0.3 4.291534E-06 1 1 1
v -0.4000001 0.3 4.291534E-06 1 1 1
v 0.5 0.3194773 1.624133 1 1 1
v 0.5 0.1709521 1.235209 1 1 1
v -0.5 0.3194773 1.624133 1 1 1
v -0.5 0.1709521 1.235209 1 1 1
v -0.5 0.4569805 1.144722 1 1 1
v -0.5 0.5937579 1.502601 1 1 1
v 0.4000001 0.266295 1.205046 1 1 1
v 0.4000001 0.4569805 1.144722 1 1 1
v 0.4000001 0.4109042 1.583622 1 1 1
v 0.4000001 0.5937579 1.502601 1 1 1
v -0.4000001 0.4569805 1.144722 1 1 1
v -0.4000001 0.5937579 1.502601 1 1 1
v 0.5 0.4569805 1.144722 1 1 1
v 0.5 0.5937579 1.502601 1 1 1
v -0.4000001 0.266295 1.205046 1 1 1
v -0.4000001 0.4109042 1.583622 1 1 1
v 0.5 0.6805227 2.375867 1 1 1
v 0.5 0.5 2 1 1 1
v -0.5 0.6805227 2.375867 1 1 1
v -0.5 0.5 2 1 1 1
v -0.5 0.7683282 1.865836 1 1 1
v -0.5 0.9548032 2.254334 1 1 1
v 0.4000001 0.5894427 1.955278 1 1 1
v 0.4000001 0.7683282 1.865836 1 1 1
v 0.4000001 0.7719495 2.335356 1 1 1
v 0.4000001 0.9548032 2.254334 1 1 1
v -0.4000001 0.7683282 1.865836 1 1 1
v -0.4000001 0.9548032 2.254334 1 1 1
v 0.5 0.7683282 1.865836 1 1 1
v 0.5 0.9548032 2.254334 1 1 1
v -0.4000001 0.5894427 1.955278 1 1 1
v -0.4000001 0.7719495 2.335356 1 1 1
v 0.5 0.9298685 3.168981 1 1 1
v 0.5 0.8290479 2.764792 1 1 1
v -0.5 0.9298685 3.168981 1 1 1
v -0.5 0.8290479 2.764792 1 1 1
v -0.5 1.115076 2.674305 1 1 1
v -0.5 1.224799 3.114065 1 1 1
v 0.4000001 0.9243908 2.73463 1 1 1
v 0.4000001 1.115076 2.674305 1 1 1
v 0.4000001 1.028179 3.150676 1 1 1
v 0.4000001 1.224799 3.114065 1 1 1
v -0.4000001 1.115076 2.674305 1 1 1
v -0.4000001 1.224799 3.114065 1 1 1
v 0.5 1.115076 2.674305 1 1 1
v 0.5 1.224799 3.114065 1 1 1
v -0.4000001 0.9243908 2.73463 1 1 1
v -0.4000001 1.028179 3.150676 1 1 1
v 0.5 1 3.999996 1 1 1
v 0.5 0.984004 3.582499 1 1 1
v -0.5 1 3.999996 1 1 1
v -0.5 0.984004 3.582499 1 1 1
v -0.5 1.283038 3.558441 1 1 1
v -0.5 1.3 3.999995 1 1 1
v 0.4000001 1.083682 3.57448 1 1 1
v 0.4000001 1.283038 3.558441 1 1 1
v 0.4000001 1.1 3.999996 1 1 1
v 0.4000001 1.3 3.999995 1 1 1
v -0.4000001 1.283038 3.558441 1 1 1
v -0.4000001 1.3 3.999995 1 1 1
v 0.5 1.283038 3.558441 1 1 1
v 0.5 1.3 3.999995 1 1 1
v -0.4000001 1.083682 3.57448 1 1 1
v -0.4000001 1.1 3.999996 1 1 1
v -0.4 0.3 0 1 1 1
v -0.5 0.3 0 1 1 1
v -0.4 0.1 0 1 1 1
v -0.5 0 0 1 1 1
v 0.5 0 0 1 1 1
v 0.4 0.1 0 1 1 1
v 0.5 0.3 0 1 1 1
v 0.4 0.3 0 1 1 1
v -0.1207107 0 -0.1707107 1 1 1
v -0.1207107 0.05000001 -0.1707107 1 1 1
v -0.15 0 -0.1 1 1 1
v -0.15 0.05000001 -0.1 1 1 1
v -0.05 0 -0.2 1 1 1
v -0.05 0.05000001 -0.2 1 1 1
v -0.05 0 7.219114E-16 1 1 1
v -0.05 0 -0.1 1 1 1
v -0.15 0 1.082867E-15 1 1 1
v 0.05 0 -0.2 1 1 1
v 0.05 0 -0.1 1 1 1
v 0.05 0 3.609557E-16 1 1 1
v 0.1207107 0 -0.1707107 1 1 1
v 0.15 0 -0.1 1 1 1
v 0.15 0 0 1 1 1
v 0.1207107 0.05000001 -0.1707107 1 1 1
v 0.15 0.05000001 -0.1 1 1 1
v 0.05 0.05000001 -0.2 1 1 1
v 0.15 0.05000001 0 1 1 1
v -0.15 0.05000001 1.082867E-15 1 1 1
v 0.05 0.05000001 -0.1 1 1 1
v 0.05 0.05000001 3.609557E-16 1 1 1
v -0.05 0.05000001 -0.1 1 1 1
v -0.05 0.05000001 7.219114E-16 1 1 1
v 0.4 1.3 4 1 1 1
v 0.5 1.3 4 1 1 1
v 0.4 1.1 4 1 1 1
v 0.5 1 4 1 1 1
v -0.5 1 4 1 1 1
v -0.4 1.1 4 1 1 1
v -0.5 1.3 4 1 1 1
v -0.4 1.3 4 1 1 1
v 0.1207107 1 4.170711 1 1 1
v 0.1207107 1.05 4.170711 1 1 1
v 0.15 1 4.1 1 1 1
v 0.15 1.05 4.1 1 1 1
v 0.05 1 4.2 1 1 1
v 0.05 1.05 4.2 1 1 1
v 0.05 1 4 1 1 1
v 0.05 1 4.1 1 1 1
v 0.15 1 4 1 1 1
v -0.05 1 4.2 1 1 1
v -0.05 1 4.1 1 1 1
v -0.05 1 4 1 1 1
v -0.1207107 1 4.170711 1 1 1
v -0.15 1 4.1 1 1 1
v -0.15 1 4 1 1 1
v -0.1207107 1.05 4.170711 1 1 1
v -0.15 1.05 4.1 1 1 1
v -0.05 1.05 4.2 1 1 1
v -0.15 1.05 4 1 1 1
v 0.15 1.05 4 1 1 1
v -0.05 1.05 4.1 1 1 1
v -0.05 1.05 4 1 1 1
v 0.05 1.05 4.1 1 1 1
v 0.05 1.05 4 1 1 1

vn 0 -0.9831028 0.1830544
vn 0 -0.9967791 0.08019556
vn -1 0 0
vn -0.7071068 0.7048293 -0.05670682
vn -0.7071068 0.6951586 -0.129439
vn 0.7071068 0.7048293 -0.05670682
vn 0.7071068 0.6951586 -0.129439
vn 1 0 0
vn 0 0.9967791 -0.08019556
vn 0 0.9831028 -0.1830544
vn 0 -1 7.192706E-07
vn -0.7071068 0.7071068 -5.086011E-07
vn 0.7071068 0.7071068 -5.086011E-07
vn 0 1 -7.192706E-07
vn 0 -0.9142686 0.4051086
vn 0 -0.9534276 0.301622
vn -0.7071068 0.6741751 -0.213279
vn -0.7071068 0.6464855 -0.286455
vn 0.7071068 0.6741751 -0.213279
vn 0.7071068 0.6464855 -0.286455
vn 0 0.9534276 -0.301622
vn 0 0.9142686 -0.4051086
vn 0 -0.9142686 0.4051087
vn 0 -0.8944272 0.4472136
vn -0.7071068 0.6324555 -0.3162278
vn -0.7071068 0.6464855 -0.2864551
vn 0.7071068 0.6324555 -0.3162278
vn 0.7071068 0.6464855 -0.2864551
vn 0 0.8944272 -0.4472136
vn 0 0.9142686 -0.4051087
vn 0 -0.9534276 0.301622
vn -0.7071068 0.6741751 -0.2132789
vn 0.7071068 0.6741751 -0.2132789
vn 0 0.9534276 -0.301622
vn 0 -1 7.152568E-07
vn 0 -0.9967791 0.08019554
vn -0.7071068 0.7048293 -0.0567068
vn -0.7071068 0.7071068 -5.057629E-07
vn 0.7071068 0.7048293 -0.0567068
vn 0.7071068 0.7071068 -5.057629E-07
vn 0 0.9967791 -0.08019554
vn 0 1 -7.152568E-07
vn 0 0 -1
vn -0.7071068 0 -0.7071068
vn -0.9807853 0 -0.1950903
vn -0.1950903 0 -0.9807853
vn 0 -1 0
vn 0.7071068 0 -0.7071068
vn 0.9807853 0 -0.1950903
vn 0.1950903 0 -0.9807853
vn 0 0 1
vn 0 1 0
vn 0.7071068 0 0.7071068
vn 0.9807853 0 0.1950903
vn 0.1950903 0 0.9807853
vn -0.7071068 0 0.7071068
vn -0.9807853 0 0.1950903
vn -0.1950903 0 0.9807853
vn -1 0 7.21645E-16
vn 1 0 -7.21645E-16
vn -7.21645E-16 0 -1

vt 0.59375 0.275
vt 0.59375 0.475
vt 0.59375 0.3416667
vt 0.59375 0.025
vt 0.59375 0.09166666
vt 0.59375 0.225
vt 0.34375 0.025
vt 0.34375 0.225

usemtl colormap

f 3/1/1 2/1/2 1/1/1
f 2/1/2 3/1/1 4/1/2
f 3/1/3 5/2/4 4/1/3
f 5/2/4 3/1/3 6/2/5
f 9/3/3 8/2/4 7/3/3
f 8/2/4 9/3/3 10/2/5
f 5/2/4 12/2/7 11/2/6
f 12/2/7 5/2/4 6/2/5
f 8/2/4 14/2/7 13/2/6
f 14/2/7 8/2/4 10/2/5
f 12/2/7 15/3/8 11/2/6
f 15/3/8 12/2/7 16/3/8
f 14/2/7 2/1/8 13/2/6
f 2/1/8 14/2/7 1/1/8
f 15/3/9 9/3/10 7/3/9
f 9/3/10 15/3/9 16/3/10
f 4/4/2 17/4/11 2/4/2
f 17/4/11 4/4/2 18/4/11
f 7/5/3 20/6/12 19/5/3
f 20/6/12 7/5/3 8/6/4
f 13/6/6 20/6/12 8/6/4
f 20/6/12 13/6/6 21/6/13
f 13/6/6 17/4/8 21/6/13
f 17/4/8 13/6/6 2/4/8
f 22/5/14 7/5/9 19/5/14
f 7/5/9 22/5/14 15/5/9
f 4/4/3 23/6/12 18/4/3
f 23/6/12 4/4/3 5/6/4
f 11/6/6 23/6/12 5/6/4
f 23/6/12 11/6/6 24/6/13
f 11/6/6 22/5/8 24/6/13
f 22/5/8 11/6/6 15/5/8
f 27/1/15 26/1/16 25/1/15
f 26/1/16 27/1/15 28/1/16
f 27/1/3 29/2/17 28/1/3
f 29/2/17 27/1/3 30/2/18
f 33/3/3 32/2/17 31/3/3
f 32/2/17 33/3/3 34/2/18
f 29/2/17 36/2/20 35/2/19
f 36/2/20 29/2/17 30/2/18
f 32/2/17 38/2/20 37/2/19
f 38/2/20 32/2/17 34/2/18
f 36/2/20 39/3/8 35/2/19
f 39/3/8 36/2/20 40/3/8
f 38/2/20 26/1/8 37/2/19
f 26/1/8 38/2/20 25/1/8
f 39/3/21 33/3/22 31/3/21
f 33/3/22 39/3/21 40/3/22
f 28/4/16 1/4/1 26/4/16
f 1/4/1 28/4/16 3/4/1
f 31/5/3 10/6/5 9/5/3
f 10/6/5 31/5/3 32/6/17
f 37/6/19 10/6/5 32/6/17
f 10/6/5 37/6/19 14/6/7
f 37/6/19 1/4/8 14/6/7
f 1/4/8 37/6/19 26/4/8
f 16/5/10 31/5/21 9/5/10
f 31/5/21 16/5/10 39/5/21
f 28/4/3 6/6/5 3/4/3
f 6/6/5 28/4/3 29/6/17
f 35/6/19 6/6/5 29/6/17
f 6/6/5 35/6/19 12/6/7
f 35/6/19 16/5/8 12/6/7
f 16/5/8 35/6/19 39/5/8
f 43/1/23 42/1/24 41/1/23
f 42/1/24 43/1/23 44/1/24
f 43/1/3 45/2/25 44/1/3
f 45/2/25 43/1/3 46/2/26
f 49/3/3 48/2/25 47/3/3
f 48/2/25 49/3/3 50/2/26
f 45/2/25 52/2/28 51/2/27
f 52/2/28 45/2/25 46/2/26
f 48/2/25 54/2/28 53/2/27
f 54/2/28 48/2/25 50/2/26
f 52/2/28 55/3/8 51/2/27
f 55/3/8 52/2/28 56/3/8
f 54/2/28 42/1/8 53/2/27
f 42/1/8 54/2/28 41/1/8
f 55/3/29 49/3/30 47/3/29
f 49/3/30 55/3/29 56/3/30
f 44/4/24 25/4/15 42/4/24
f 25/4/15 44/4/24 27/4/15
f 47/5/3 34/6/18 33/5/3
f 34/6/18 47/5/3 48/6/25
f 53/6/27 34/6/18 48/6/25
f 34/6/18 53/6/27 38/6/20
f 53/6/27 25/4/8 38/6/20
f 25/4/8 53/6/27 42/4/8
f 40/5/22 47/5/29 33/5/22
f 47/5/29 40/5/22 55/5/29
f 44/4/3 30/6/18 27/4/3
f 30/6/18 44/4/3 45/6/25
f 51/6/27 30/6/18 45/6/25
f 30/6/18 51/6/27 36/6/20
f 51/6/27 40/5/8 36/6/20
f 40/5/8 51/6/27 55/5/8
f 59/1/1 58/1/31 57/1/1
f 58/1/31 59/1/1 60/1/31
f 59/1/3 61/2/32 60/1/3
f 61/2/32 59/1/3 62/2/5
f 65/3/3 64/2/32 63/3/3
f 64/2/32 65/3/3 66/2/5
f 61/2/32 68/2/7 67/2/33
f 68/2/7 61/2/32 62/2/5
f 64/2/32 70/2/7 69/2/33
f 70/2/7 64/2/32 66/2/5
f 68/2/7 71/3/8 67/2/33
f 71/3/8 68/2/7 72/3/8
f 70/2/7 58/1/8 69/2/33
f 58/1/8 70/2/7 57/1/8
f 71/3/34 65/3/10 63/3/34
f 65/3/10 71/3/34 72/3/10
f 60/4/31 41/4/23 58/4/31
f 41/4/23 60/4/31 43/4/23
f 63/5/3 50/6/26 49/5/3
f 50/6/26 63/5/3 64/6/32
f 69/6/33 50/6/26 64/6/32
f 50/6/26 69/6/33 54/6/28
f 69/6/33 41/4/8 54/6/28
f 41/4/8 69/6/33 58/4/8
f 56/5/30 63/5/34 49/5/30
f 63/5/34 56/5/30 71/5/34
f 60/4/3 46/6/26 43/4/3
f 46/6/26 60/4/3 61/6/32
f 67/6/33 46/6/26 61/6/32
f 46/6/26 67/6/33 52/6/28
f 67/6/33 56/5/8 52/6/28
f 56/5/8 67/6/33 71/5/8
f 75/1/35 74/1/36 73/1/35
f 74/1/36 75/1/35 76/1/36
f 75/1/3 77/2/37 76/1/3
f 77/2/37 75/1/3 78/2/38
f 81/3/3 80/2/37 79/3/3
f 80/2/37 81/3/3 82/2/38
f 77/2/37 84/2/40 83/2/39
f 84/2/40 77/2/37 78/2/38
f 80/2/37 86/2/40 85/2/39
f 86/2/40 80/2/37 82/2/38
f 84/2/40 87/3/8 83/2/39
f 87/3/8 84/2/40 88/3/8
f 86/2/40 74/1/8 85/2/39
f 74/1/8 86/2/40 73/1/8
f 87/3/41 81/3/42 79/3/41
f 81/3/42 87/3/41 88/3/42
f 76/4/36 57/4/1 74/4/36
f 57/4/1 76/4/36 59/4/1
f 79/5/3 66/6/5 65/5/3
f 66/6/5 79/5/3 80/6/37
f 85/6/39 66/6/5 80/6/37
f 66/6/5 85/6/39 70/6/7
f 85/6/39 57/4/8 70/6/7
f 57/4/8 85/6/39 74/4/8
f 72/5/10 79/5/41 65/5/10
f 79/5/41 72/5/10 87/5/41
f 76/4/3 62/6/5 59/4/3
f 62/6/5 76/4/3 77/6/37
f 83/6/39 62/6/5 77/6/37
f 62/6/5 83/6/39 68/6/7
f 83/6/39 72/5/8 68/6/7
f 72/5/8 83/6/39 87/5/8
f 91/5/43 90/6/43 89/6/43
f 91/5/43 92/4/43 90/6/43
f 92/4/43 91/5/43 93/4/43
f 94/5/43 93/4/43 91/5/43
f 93/4/43 94/5/43 95/6/43
f 95/6/43 94/5/43 96/6/43
f 99/7/45 98/8/44 97/7/44
f 98/8/44 99/7/45 100/8/45
f 98/8/44 101/7/46 97/7/44
f 101/7/46 98/8/44 102/8/46
f 105/7/47 104/7/47 103/7/47
f 104/7/47 105/7/47 101/7/47
f 101/7/47 105/7/47 97/7/47
f 97/7/47 105/7/47 99/7/47
f 106/7/47 104/7/47 101/7/47
f 106/7/47 107/7/47 104/7/47
f 106/7/47 108/7/47 107/7/47
f 109/7/47 108/7/47 106/7/47
f 110/7/47 108/7/47 109/7/47
f 108/7/47 110/7/47 111/7/47
f 113/8/49 109/7/48 112/8/48
f 109/7/48 113/8/49 110/7/49
f 114/8/50 109/7/48 106/7/50
f 109/7/48 114/8/50 112/8/48
f 115/8/8 110/7/49 113/8/49
f 110/7/49 115/8/8 111/7/8
f 105/7/3 100/8/45 99/7/45
f 100/8/45 105/7/3 116/8/3
f 102/8/46 106/7/50 101/7/46
f 106/7/50 102/8/46 114/8/50
f 108/7/3 117/8/3 107/7/3
f 117/8/3 108/7/3 118/8/3
f 117/8/51 104/7/51 107/7/51
f 104/7/51 117/8/51 119/8/51
f 120/8/8 104/7/8 119/8/8
f 104/7/8 120/8/8 103/7/8
f 116/8/52 98/8/52 100/8/52
f 120/8/52 98/8/52 116/8/52
f 119/8/52 98/8/52 120/8/52
f 119/8/52 102/8/52 98/8/52
f 117/8/52 102/8/52 119/8/52
f 102/8/52 117/8/52 114/8/52
f 118/8/52 114/8/52 117/8/52
f 118/8/52 112/8/52 114/8/52
f 115/8/52 112/8/52 118/8/52
f 112/8/52 115/8/52 113/8/52
f 123/3/51 122/2/51 121/2/51
f 123/3/51 124/1/51 122/2/51
f 124/1/51 123/3/51 125/1/51
f 126/3/51 125/1/51 123/3/51
f 125/1/51 126/3/51 127/2/51
f 127/2/51 126/3/51 128/2/51
f 131/7/54 130/8/53 129/7/53
f 130/8/53 131/7/54 132/8/54
f 130/8/53 133/7/55 129/7/53
f 133/7/55 130/8/53 134/8/55
f 137/7/47 136/7/47 135/7/47
f 136/7/47 137/7/47 133/7/47
f 133/7/47 137/7/47 129/7/47
f 129/7/47 137/7/47 131/7/47
f 138/7/47 136/7/47 133/7/47
f 138/7/47 139/7/47 136/7/47
f 138/7/47 140/7/47 139/7/47
f 141/7/47 140/7/47 138/7/47
f 142/7/47 140/7/47 141/7/47
f 140/7/47 142/7/47 143/7/47
f 145/8/57 141/7/56 144/8/56
f 141/7/56 145/8/57 142/7/57
f 146/8/58 141/7/56 138/7/58
f 141/7/56 146/8/58 144/8/56
f 147/8/59 142/7/57 145/8/57
f 142/7/57 147/8/59 143/7/59
f 137/7/60 132/8/54 131/7/54
f 132/8/54 137/7/60 148/8/60
f 134/8/55 138/7/58 133/7/55
f 138/7/58 134/8/55 146/8/58
f 140/7/60 149/8/60 139/7/60
f 149/8/60 140/7/60 150/8/60
f 149/8/61 136/7/61 139/7/61
f 136/7/61 149/8/61 151/8/61
f 152/8/59 136/7/59 151/8/59
f 136/7/59 152/8/59 135/7/59
f 148/8/52 130/8/52 132/8/52
f 152/8/52 130/8/52 148/8/52
f 151/8/52 130/8/52 152/8/52
f 151/8/52 134/8/52 130/8/52
f 149/8/52 134/8/52 151/8/52
f 134/8/52 149/8/52 146/8/52
f 150/8/52 146/8/52 149/8/52
f 150/8/52 144/8/52 146/8/52
f 147/8/52 144/8/52 150/8/52
f 144/8/52 147/8/52 145/8/52

g track-striped-narrow-straight-hill-complete




usemtl colormap

f 3/1/1 2/1/2 1/1/1
f 2/1/2 3/1/1 4/1/2
f 3/1/3 5/2/4 4/1/3
f 5/2/4 3/1/3 6/2/5
f 9/3/3 8/2/4 7/3/3
f 8/2/4 9/3/3 10/2/5
f 5/2/4 12/2/7 11/2/6
f 12/2/7 5/2/4 6/2/5
f 8/2/4 14/2/7 13/2/6
f 14/2/7 8/2/4 10/2/5
f 12/2/7 15/3/8 11/2/6
f 15/3/8 12/2/7 16/3/8
f 14/2/7 2/1/8 13/2/6
f 2/1/8 14/2/7 1/1/8
f 15/3/9 9/3/10 7/3/9
f 9/3/10 15/3/9 16/3/10
f 4/4/2 17/4/11 2/4/2
f 17/4/11 4/4/2 18/4/11
f 7/5/3 20/6/12 19/5/3
f 20/6/12 7/5/3 8/6/4
f 13/6/6 20/6/12 8/6/4
f 20/6/12 13/6/6 21/6/13
f 13/6/6 17/4/8 21/6/13
f 17/4/8 13/6/6 2/4/8
f 22/5/14 7/5/9 19/5/14
f 7/5/9 22/5/14 15/5/9
f 4/4/3 23/6/12 18/4/3
f 23/6/12 4/4/3 5/6/4
f 11/6/6 23/6/12 5/6/4
f 23/6/12 11/6/6 24/6/13
f 11/6/6 22/5/8 24/6/13
f 22/5/8 11/6/6 15/5/8
f 27/1/15 26/1/16 25/1/15
f 26/1/16 27/1/15 28/1/16
f 27/1/3 29/2/17 28/1/3
f 29/2/17 27/1/3 30/2/18
f 33/3/3 32/2/17 31/3/3
f 32/2/17 33/3/3 34/2/18
f 29/2/17 36/2/20 35/2/19
f 36/2/20 29/2/17 30/2/18
f 32/2/17 38/2/20 37/2/19
f 38/2/20 32/2/17 34/2/18
f 36/2/20 39/3/8 35/2/19
f 39/3/8 36/2/20 40/3/8
f 38/2/20 26/1/8 37/2/19
f 26/1/8 38/2/20 25/1/8
f 39/3/21 33/3/22 31/3/21
f 33/3/22 39/3/21 40/3/22
f 28/4/16 1/4/1 26/4/16
f 1/4/1 28/4/16 3/4/1
f 31/5/3 10/6/5 9/5/3
f 10/6/5 31/5/3 32/6/17
f 37/6/19 10/6/5 32/6/17
f 10/6/5 37/6/19 14/6/7
f 37/6/19 1/4/8 14/6/7
f 1/4/8 37/6/19 26/4/8
f 16/5/10 31/5/21 9/5/10
f 31/5/21 16/5/10 39/5/21
f 28/4/3 6/6/5 3/4/3
f 6/6/5 28/4/3 29/6/17
f 35/6/19 6/6/5 29/6/17
f 6/6/5 35/6/19 12/6/7
f 35/6/19 16/5/8 12/6/7
f 16/5/8 35/6/19 39/5/8
f 43/1/23 42/1/24 41/1/23
f 42/1/24 43/1/23 44/1/24
f 43/1/3 45/2/25 44/1/3
f 45/2/25 43/1/3 46/2/26
f 49/3/3 48/2/25 47/3/3
f 48/2/25 49/3/3 50/2/26
f 45/2/25 52/2/28 51/2/27
f 52/2/28 45/2/25 46/2/26
f 48/2/25 54/2/28 53/2/27
f 54/2/28 48/2/25 50/2/26
f 52/2/28 55/3/8 51/2/27
f 55/3/8 52/2/28 56/3/8
f 54/2/28 42/1/8 53/2/27
f 42/1/8 54/2/28 41/1/8
f 55/3/29 49/3/30 47/3/29
f 49/3/30 55/3/29 56/3/30
f 44/4/24 25/4/15 42/4/24
f 25/4/15 44/4/24 27/4/15
f 47/5/3 34/6/18 33/5/3
f 34/6/18 47/5/3 48/6/25
f 53/6/27 34/6/18 48/6/25
f 34/6/18 53/6/27 38/6/20
f 53/6/27 25/4/8 38/6/20
f 25/4/8 53/6/27 42/4/8
f 40/5/22 47/5/29 33/5/22
f 47/5/29 40/5/22 55/5/29
f 44/4/3 30/6/18 27/4/3
f 30/6/18 44/4/3 45/6/25
f 51/6/27 30/6/18 45/6/25
f 30/6/18 51/6/27 36/6/20
f 51/6/27 40/5/8 36/6/20
f 40/5/8 51/6/27 55/5/8
f 59/1/1 58/1/31 57/1/1
f 58/1/31 59/1/1 60/1/31
f 59/1/3 61/2/32 60/1/3
f 61/2/32 59/1/3 62/2/5
f 65/3/3 64/2/32 63/3/3
f 64/2/32 65/3/3 66/2/5
f 61/2/32 68/2/7 67/2/33
f 68/2/7 61/2/32 62/2/5
f 64/2/32 70/2/7 69/2/33
f 70/2/7 64/2/32 66/2/5
f 68/2/7 71/3/8 67/2/33
f 71/3/8 68/2/7 72/3/8
f 70/2/7 58/1/8 69/2/33
f 58/1/8 70/2/7 57/1/8
f 71/3/34 65/3/10 63/3/34
f 65/3/10 71/3/34 72/3/10
f 60/4/31 41/4/23 58/4/31
f 41/4/23 60/4/31 43/4/23
f 63/5/3 50/6/26 49/5/3
f 50/6/26 63/5/3 64/6/32
f 69/6/33 50/6/26 64/6/32
f 50/6/26 69/6/33 54/6/28
f 69/6/33 41/4/8 54/6/28
f 41/4/8 69/6/33 58/4/8
f 56/5/30 63/5/34 49/5/30
f 63/5/34 56/5/30 71/5/34
f 60/4/3 46/6/26 43/4/3
f 46/6/26 60/4/3 61/6/32
f 67/6/33 46/6/26 61/6/32
f 46/6/26 67/6/33 52/6/28
f 67/6/33 56/5/8 52/6/28
f 56/5/8 67/6/33 71/5/8
f 75/1/35 74/1/36 73/1/35
f 74/1/36 75/1/35 76/1/36
f 75/1/3 77/2/37 76/1/3
f 77/2/37 75/1/3 78/2/38
f 81/3/3 80/2/37 79/3/3
f 80/2/37 81/3/3 82/2/38
f 77/2/37 84/2/40 83/2/39
f 84/2/40 77/2/37 78/2/38
f 80/2/37 86/2/40 85/2/39
f 86/2/40 80/2/37 82/2/38
f 84/2/40 87/3/8 83/2/39
f 87/3/8 84/2/40 88/3/8
f 86/2/40 74/1/8 85/2/39
f 74/1/8 86/2/40 73/1/8
f 87/3/41 81/3/42 79/3/41
f 81/3/42 87/3/41 88/3/42
f 76/4/36 57/4/1 74/4/36
f 57/4/1 76/4/36 59/4/1
f 79/5/3 66/6/5 65/5/3
f 66/6/5 79/5/3 80/6/37
f 85/6/39 66/6/5 80/6/37
f 66/6/5 85/6/39 70/6/7
f 85/6/39 57/4/8 70/6/7
f 57/4/8 85/6/39 74/4/8
f 72/5/10 79/5/41 65/5/10
f 79/5/41 72/5/10 87/5/41
f 76/4/3 62/6/5 59/4/3
f 62/6/5 76/4/3 77/6/37
f 83/6/39 62/6/5 77/6/37
f 62/6/5 83/6/39 68/6/7
f 83/6/39 72/5/8 68/6/7
f 72/5/8 83/6/39 87/5/8
f 91/5/43 90/6/43 89/6/43
f 91/5/43 92/4/43 90/6/43
f 92/4/43 91/5/43 93/4/43
f 94/5/43 93/4/43 91/5/43
f 93/4/43 94/5/43 95/6/43
f 95/6/43 94/5/43 96/6/43
f 99/7/45 98/8/44 97/7/44
f 98/8/44 99/7/45 100/8/45
f 98/8/44 101/7/46 97/7/44
f 101/7/46 98/8/44 102/8/46
f 105/7/47 104/7/47 103/7/47
f 104/7/47 105/7/47 101/7/47
f 101/7/47 105/7/47 97/7/47
f 97/7/47 105/7/47 99/7/47
f 106/7/47 104/7/47 101/7/47
f 106/7/47 107/7/47 104/7/47
f 106/7/47 108/7/47 107/7/47
f 109/7/47 108/7/47 106/7/47
f 110/7/47 108/7/47 109/7/47
f 108/7/47 110/7/47 111/7/47
f 113/8/49 109/7/48 112/8/48
f 109/7/48 113/8/49 110/7/49
f 114/8/50 109/7/48 106/7/50
f 109/7/48 114/8/50 112/8/48
f 115/8/8 110/7/49 113/8/49
f 110/7/49 115/8/8 111/7/8
f 105/7/3 100/8/45 99/7/45
f 100/8/45 105/7/3 116/8/3
f 102/8/46 106/7/50 101/7/46
f 106/7/50 102/8/46 114/8/50
f 108/7/3 117/8/3 107/7/3
f 117/8/3 108/7/3 118/8/3
f 117/8/51 104/7/51 107/7/51
f 104/7/51 117/8/51 119/8/51
f 120/8/8 104/7/8 119/8/8
f 104/7/8 120/8/8 103/7/8
f 116/8/52 98/8/52 100/8/52
f 120/8/52 98/8/52 116/8/52
f 119/8/52 98/8/52 120/8/52
f 119/8/52 102/8/52 98/8/52
f 117/8/52 102/8/52 119/8/52
f 102/8/52 117/8/52 114/8/52
f 118/8/52 114/8/52 117/8/52
f 118/8/52 112/8/52 114/8/52
f 115/8/52 112/8/52 118/8/52
f 112/8/52 115/8/52 113/8/52
f 123/3/51 122/2/51 121/2/51
f 123/3/51 124/1/51 122/2/51
f 124/1/51 123/3/51 125/1/51
f 126/3/51 125/1/51 123/3/51
f 125/1/51 126/3/51 127/2/51
f 127/2/51 126/3/51 128/2/51
f 131/7/54 130/8/53 129/7/53
f 130/8/53 131/7/54 132/8/54
f 130/8/53 133/7/55 129/7/53
f 133/7/55 130/8/53 134/8/55
f 137/7/47 136/7/47 135/7/47
f 136/7/47 137/7/47 133/7/47
f 133/7/47 137/7/47 129/7/47
f 129/7/47 137/7/47 131/7/47
f 138/7/47 136/7/47 133/7/47
f 138/7/47 139/7/47 136/7/47
f 138/7/47 140/7/47 139/7/47
f 141/7/47 140/7/47 138/7/47
f 142/7/47 140/7/47 141/7/47
f 140/7/47 142/7/47 143/7/47
f 145/8/57 141/7/56 144/8/56
f 141/7/56 145/8/57 142/7/57
f 146/8/58 141/7/56 138/7/58
f 141/7/56 146/8/58 144/8/56
f 147/8/59 142/7/57 145/8/57
f 142/7/57 147/8/59 143/7/59
f 137/7/60 132/8/54 131/7/54
f 132/8/54 137/7/60 148/8/60
f 134/8/55 138/7/58 133/7/55
f 138/7/58 134/8/55 146/8/58
f 140/7/60 149/8/60 139/7/60
f 149/8/60 140/7/60 150/8/60
f 149/8/61 136/7/61 139/7/61
f 136/7/61 149/8/61 151/8/61
f 152/8/59 136/7/59 151/8/59
f 136/7/59 152/8/59 135/7/59
f 148/8/52 130/8/52 132/8/52
f 152/8/52 130/8/52 148/8/52
f 151/8/52 130/8/52 152/8/52
f 151/8/52 134/8/52 130/8/52
f 149/8/52 134/8/52 151/8/52
f 134/8/52 149/8/52 146/8/52
f 150/8/52 146/8/52 149/8/52
f 150/8/52 144/8/52 146/8/52
f 147/8/52 144/8/52 150/8/52
f 144/8/52 147/8/52 145/8/52

