# Created by Kenney (www.kenney.nl)

mtllib track-road-wide-cap-front.mtl

g track-road-wide-cap-front

v -0.9 -4.88196E-20 -7.219114E-16 1 1 1
v -0.9 0.1 0 1 1 1
v -1 0 0 1 1 1
v -1 0.3 0 1 1 1
v -0.9 0.3 0 1 1 1
v 0.9 -9.275722E-20 -7.219114E-16 1 1 1
v 1 0 0 1 1 1
v 0.9 0.1 0 1 1 1
v 1 0.3 0 1 1 1
v 0.9 0.3 0 1 1 1
v -0.7 -7.322939E-20 -7.219114E-16 1 1 1
v -0.7 0.1 -1.443823E-15 1 1 1
v -0.8 -6.102449E-20 -7.219114E-16 1 1 1
v -0.8 0.1 -1.443823E-15 1 1 1
v 0.8 -9.214698E-20 -7.219114E-16 1 1 1
v 0.8 0.1 -1.443823E-15 1 1 1
v 0.7 -9.182152E-20 -7.219114E-16 1 1 1
v 0.7 0.1 -1.443823E-15 1 1 1
v -0.1207107 0 -0.1707107 1 1 1
v -0.1207107 0.05 -0.1707107 1 1 1
v -0.15 0 -0.1 1 1 1
v -0.15 0.05 -0.1 1 1 1
v -0.05 0 -0.2 1 1 1
v -0.05 0.05 -0.2 1 1 1
v -0.05 8.014827E-32 7.219114E-16 1 1 1
v -0.05 0 -0.1 1 1 1
v -0.15 1.602965E-31 1.082867E-15 1 1 1
v 0.05 0 -0.2 1 1 1
v 0.05 0 -0.1 1 1 1
v 0.05 8.014827E-32 3.609557E-16 1 1 1
v 0.1207107 0 -0.1707107 1 1 1
v 0.15 0 -0.1 1 1 1
v 0.15 1.602965E-31 0 1 1 1
v 0.1207107 0.05 -0.1707107 1 1 1
v 0.15 0.05 -0.1 1 1 1
v 0.05 0.05 -0.2 1 1 1
v 0.15 0.05 0 1 1 1
v -0.15 0.05 1.082867E-15 1 1 1
v 0.05 0.05 -0.1 1 1 1
v 0.05 0.05 3.609557E-16 1 1 1
v -0.05 0.05 -0.1 1 1 1
v -0.05 0.05 7.219114E-16 1 1 1
v 0.9 0 0 1 1 1
v 0.9 0.1 7.219114E-16 1 1 1
v 0.8 6.102449E-22 0 1 1 1
v 0.8 0.1 -7.219114E-16 1 1 1
v 0.7 9.357089E-22 0 1 1 1
v 0.7 0.1 -7.219114E-16 1 1 1
v -0.7 1.952784E-20 0 1 1 1
v -0.7 0.1 -7.219114E-16 1 1 1
v -0.8 3.173274E-20 0 1 1 1
v -0.8 0.1 -7.219114E-16 1 1 1
v -0.9 4.393763E-20 0 1 1 1
v -0.9 0.1 7.219114E-16 1 1 1

vn 0 0 -1
vn -0.7071068 0 -0.7071068
vn -0.9807853 0 -0.1950903
vn -0.1950903 0 -0.9807853
vn 0 -1 0
vn 0.7071068 0 -0.7071068
vn 0.9807853 0 -0.1950903
vn 0.1950903 0 -0.9807853
vn 1 0 0
vn -1 0 0
vn 0 0 1
vn 0 1 0

vt 0.59375 0.025
vt 0.59375 0.09166666
vt 0.59375 0.225
vt 0.34375 0.025
vt 0.34375 0.225
vt 0.21875 0.075
vt 0.21875 0.175

usemtl colormap

f 3/1/1 2/2/1 1/1/1
f 2/2/1 3/1/1 4/3/1
f 2/2/1 4/3/1 5/3/1
f 8/2/1 7/1/1 6/1/1
f 7/1/1 8/2/1 9/3/1
f 9/3/1 8/2/1 10/3/1
f 13/1/1 12/2/1 11/1/1
f 12/2/1 13/1/1 14/2/1
f 17/1/1 16/2/1 15/1/1
f 16/2/1 17/1/1 18/2/1
f 21/4/3 20/5/2 19/4/2
f 20/5/2 21/4/3 22/5/3
f 20/5/2 23/4/4 19/4/2
f 23/4/4 20/5/2 24/5/4
f 27/4/5 26/4/5 25/4/5
f 26/4/5 27/4/5 23/4/5
f 23/4/5 27/4/5 19/4/5
f 19/4/5 27/4/5 21/4/5
f 28/4/5 26/4/5 23/4/5
f 28/4/5 29/4/5 26/4/5
f 28/4/5 30/4/5 29/4/5
f 31/4/5 30/4/5 28/4/5
f 32/4/5 30/4/5 31/4/5
f 30/4/5 32/4/5 33/4/5
f 35/5/7 31/4/6 34/5/6
f 31/4/6 35/5/7 32/4/7
f 36/5/8 31/4/6 28/4/8
f 31/4/6 36/5/8 34/5/6
f 37/5/9 32/4/7 35/5/7
f 32/4/7 37/5/9 33/4/9
f 27/4/10 22/5/3 21/4/3
f 22/5/3 27/4/10 38/5/10
f 24/5/4 28/4/8 23/4/4
f 28/4/8 24/5/4 36/5/8
f 30/4/10 39/5/10 29/4/10
f 39/5/10 30/4/10 40/5/10
f 39/5/11 26/4/11 29/4/11
f 26/4/11 39/5/11 41/5/11
f 42/5/9 26/4/9 41/5/9
f 26/4/9 42/5/9 25/4/9
f 38/5/12 20/5/12 22/5/12
f 42/5/12 20/5/12 38/5/12
f 41/5/12 20/5/12 42/5/12
f 41/5/12 24/5/12 20/5/12
f 39/5/12 24/5/12 41/5/12
f 24/5/12 39/5/12 36/5/12
f 40/5/12 36/5/12 39/5/12
f 40/5/12 34/5/12 36/5/12
f 37/5/12 34/5/12 40/5/12
f 34/5/12 37/5/12 35/5/12
f 45/6/1 44/7/1 43/6/1
f 44/7/1 45/6/1 46/7/1
f 49/6/1 48/7/1 47/6/1
f 48/7/1 49/6/1 50/7/1
f 53/6/1 52/7/1 51/6/1
f 52/7/1 53/6/1 54/7/1

g track-road-wide-cap-front




usemtl colormap

f 3/1/1 2/2/1 1/1/1
f 2/2/1 3/1/1 4/3/1
f 2/2/1 4/3/1 5/3/1
f 8/2/1 7/1/1 6/1/1
f 7/1/1 8/2/1 9/3/1
f 9/3/1 8/2/1 10/3/1
f 13/1/1 12/2/1 11/1/1
f 12/2/1 13/1/1 14/2/1
f 17/1/1 16/2/1 15/1/1
f 16/2/1 17/1/1 18/2/1
f 21/4/3 20/5/2 19/4/2
f 20/5/2 21/4/3 22/5/3
f 20/5/2 23/4/4 19/4/2
f 23/4/4 20/5/2 24/5/4
f 27/4/5 26/4/5 25/4/5
f 26/4/5 27/4/5 23/4/5
f 23/4/5 27/4/5 19/4/5
f 19/4/5 27/4/5 21/4/5
f 28/4/5 26/4/5 23/4/5
f 28/4/5 29/4/5 26/4/5
f 28/4/5 30/4/5 29/4/5
f 31/4/5 30/4/5 28/4/5
f 32/4/5 30/4/5 31/4/5
f 30/4/5 32/4/5 33/4/5
f 35/5/7 31/4/6 34/5/6
f 31/4/6 35/5/7 32/4/7
f 36/5/8 31/4/6 28/4/8
f 31/4/6 36/5/8 34/5/6
f 37/5/9 32/4/7 35/5/7
f 32/4/7 37/5/9 33/4/9
f 27/4/10 22/5/3 21/4/3
f 22/5/3 27/4/10 38/5/10
f 24/5/4 28/4/8 23/4/4
f 28/4/8 24/5/4 36/5/8
f 30/4/10 39/5/10 29/4/10
f 39/5/10 30/4/10 40/5/10
f 39/5/11 26/4/11 29/4/11
f 26/4/11 39/5/11 41/5/11
f 42/5/9 26/4/9 41/5/9
f 26/4/9 42/5/9 25/4/9
f 38/5/12 20/5/12 22/5/12
f 42/5/12 20/5/12 38/5/12
f 41/5/12 20/5/12 42/5/12
f 41/5/12 24/5/12 20/5/12
f 39/5/12 24/5/12 41/5/12
f 24/5/12 39/5/12 36/5/12
f 40/5/12 36/5/12 39/5/12
f 40/5/12 34/5/12 36/5/12
f 37/5/12 34/5/12 40/5/12
f 34/5/12 37/5/12 35/5/12
f 45/6/1 44/7/1 43/6/1
f 44/7/1 45/6/1 46/7/1
f 49/6/1 48/7/1 47/6/1
f 48/7/1 49/6/1 50/7/1
f 53/6/1 52/7/1 51/6/1
f 52/7/1 53/6/1 54/7/1

