# Created by Kenney (www.kenney.nl)

mtllib track-narrow-corner-large.mtl

g track-narrow-corner-large

v -0.5 0 5.125999E-06 1 1 1
v -0.5267236 0 0.3704035 1 1 1
v 0.5 0 7.271767E-06 1 1 1
v 0.4632592 0 0.5115917 1 1 1
v -0.6045156 0 0.739867 1 1 1
v 0.3589967 0 1.007532 1 1 1
v -0.5 0.3 5.125999E-06 1 1 1
v -0.5267236 0.3 0.3704035 1 1 1
v -0.6045156 0.3 0.739867 1 1 1
v 0.5 0.3 7.271767E-06 1 1 1
v 0.4632592 0.3 0.5115917 1 1 1
v 0.3589967 0.3 1.007532 1 1 1
v 0.4 0.1 7.033348E-06 1 1 1
v 0.3642609 0.1 0.4974729 1 1 1
v -0.4000001 0.1 5.364418E-06 1 1 1
v -0.4277253 0.1 0.3845223 1 1 1
v 0.2626456 0.1 0.980765 1 1 1
v -0.5081642 0.1 0.7666335 1 1 1
v -0.4000001 0.3 5.364418E-06 1 1 1
v -0.4277253 0.3 0.3845223 1 1 1
v -0.5081642 0.3 0.7666335 1 1 1
v 0.4 0.3 7.033348E-06 1 1 1
v 0.3642609 0.3 0.4974729 1 1 1
v 0.2626456 0.3 0.980765 1 1 1
v -0.7290773 0 1.102565 1 1 1
v 0.1963797 0 1.481417 1 1 1
v -0.8956842 0 1.45348 1 1 1
v -0.01635289 0 1.92969 1 1 1
v -0.7290773 0.3 1.102565 1 1 1
v -0.8956842 0.3 1.45348 1 1 1
v 0.1963797 0.3 1.481417 1 1 1
v -0.01635289 0.3 1.92969 1 1 1
v 0.1038342 0.1 1.443532 1 1 1
v -0.6365318 0.1 1.14045 1 1 1
v -0.1042862 0.1 1.882069 1 1 1
v -0.8077512 0.1 1.501101 1 1 1
v -0.6365318 0.3 1.14045 1 1 1
v -0.8077512 0.3 1.501101 1 1 1
v 0.1038342 0.3 1.443532 1 1 1
v -0.1042862 0.3 1.882069 1 1 1
v -1.099714 0 1.788424 1 1 1
v -0.272543 0 2.350374 1 1 1
v -1.336931 0 2.103828 1 1 1
v -0.5671346 0 2.742117 1 1 1
v -1.099714 0.3 1.788424 1 1 1
v -1.336931 0.3 2.103828 1 1 1
v -0.272543 0.3 2.350374 1 1 1
v -0.5671346 0.3 2.742117 1 1 1
v -0.3552599 0.1 2.294179 1 1 1
v -1.016997 0.1 1.844619 1 1 1
v -0.6441143 0.1 2.678289 1 1 1
v -1.259952 0.1 2.167657 1 1 1
v -1.016997 0.3 1.844619 1 1 1
v -1.259952 0.3 2.167657 1 1 1
v -0.3552599 0.3 2.294179 1 1 1
v -0.6441143 0.3 2.678289 1 1 1
v -1.603554 0 2.396447 1 1 1
v -0.8964472 0 3.103554 1 1 1
v -1.896172 0 2.663069 1 1 1
v -1.257883 0 3.432866 1 1 1
v -1.603554 0.3 2.396447 1 1 1
v -1.896172 0.3 2.663069 1 1 1
v -0.8964472 0.3 3.103554 1 1 1
v -1.257883 0.3 3.432866 1 1 1
v -0.9671578 0.1 3.032843 1 1 1
v -1.532843 0.1 2.467157 1 1 1
v -1.321712 0.1 3.355886 1 1 1
v -1.832343 0.1 2.740049 1 1 1
v -1.532843 0.3 2.467157 1 1 1
v -1.832343 0.3 2.740049 1 1 1
v -0.9671578 0.3 3.032843 1 1 1
v -1.321712 0.3 3.355886 1 1 1
v -2.211576 0 2.900286 1 1 1
v -1.649627 0 3.727458 1 1 1
v -2.546521 0 3.104316 1 1 1
v -2.070311 0 3.983647 1 1 1
v -2.211576 0.3 2.900286 1 1 1
v -2.546521 0.3 3.104316 1 1 1
v -1.649627 0.3 3.727458 1 1 1
v -2.070311 0.3 3.983647 1 1 1
v -1.705822 0.1 3.64474 1 1 1
v -2.155382 0.1 2.983003 1 1 1
v -2.117932 0.1 3.895714 1 1 1
v -2.4989 0.1 3.192249 1 1 1
v -2.155382 0.3 2.983003 1 1 1
v -2.4989 0.3 3.192249 1 1 1
v -1.705822 0.3 3.64474 1 1 1
v -2.117932 0.3 3.895714 1 1 1
v -2.897435 0 3.270922 1 1 1
v -2.518583 0 4.19638 1 1 1
v -3.260133 0 3.395484 1 1 1
v -2.992468 0 4.358996 1 1 1
v -2.897435 0.3 3.270922 1 1 1
v -3.260133 0.3 3.395484 1 1 1
v -2.518583 0.3 4.19638 1 1 1
v -2.992468 0.3 4.358996 1 1 1
v -2.556468 0.1 4.103834 1 1 1
v -2.85955 0.1 3.363468 1 1 1
v -3.019235 0.1 4.262645 1 1 1
v -3.233366 0.1 3.491836 1 1 1
v -2.85955 0.3 3.363468 1 1 1
v -3.233366 0.3 3.491836 1 1 1
v -2.556468 0.3 4.103834 1 1 1
v -3.019235 0.3 4.262645 1 1 1
v -3.629597 0 3.473277 1 1 1
v -3.488409 0 4.463259 1 1 1
v -3.999995 0 3.5 1 1 1
v -3.999993 0 4.5 1 1 1
v -3.629597 0.3 3.473277 1 1 1
v -3.999995 0.3 3.5 1 1 1
v -3.488409 0.3 4.463259 1 1 1
v -3.999993 0.3 4.5 1 1 1
v -3.502527 0.1 4.364261 1 1 1
v -3.615479 0.1 3.572275 1 1 1
v -3.999993 0.1 4.4 1 1 1
v -3.999995 0.1 3.6 1 1 1
v -3.615479 0.3 3.572275 1 1 1
v -3.999995 0.3 3.6 1 1 1
v -3.502527 0.3 4.364261 1 1 1
v -3.999993 0.3 4.4 1 1 1
v -0.4 0.3 0 1 1 1
v -0.5 0.3 0 1 1 1
v -0.4 0.1 0 1 1 1
v -0.5 0 0 1 1 1
v 0.5 0 0 1 1 1
v 0.4 0.1 0 1 1 1
v 0.5 0.3 0 1 1 1
v 0.4 0.3 0 1 1 1
v -0.1207107 0 -0.1707107 1 1 1
v -0.1207107 0.05000001 -0.1707107 1 1 1
v -0.15 0 -0.1 1 1 1
v -0.15 0.05000001 -0.1 1 1 1
v -0.05 0 -0.2 1 1 1
v -0.05 0.05000001 -0.2 1 1 1
v -0.05 0 7.219114E-16 1 1 1
v -0.05 0 -0.1 1 1 1
v -0.15 0 1.082867E-15 1 1 1
v 0.05 0 -0.2 1 1 1
v 0.05 0 -0.1 1 1 1
v 0.05 0 3.609557E-16 1 1 1
v 0.1207107 0 -0.1707107 1 1 1
v 0.15 0 -0.1 1 1 1
v 0.15 0 0 1 1 1
v 0.1207107 0.05000001 -0.1707107 1 1 1
v 0.15 0.05000001 -0.1 1 1 1
v 0.05 0.05000001 -0.2 1 1 1
v 0.15 0.05000001 0 1 1 1
v -0.15 0.05000001 1.082867E-15 1 1 1
v 0.05 0.05000001 -0.1 1 1 1
v 0.05 0.05000001 3.609557E-16 1 1 1
v -0.05 0.05000001 -0.1 1 1 1
v -0.05 0.05000001 7.219114E-16 1 1 1
v -4 0.3 4.4 1 1 1
v -4 0.3 4.5 1 1 1
v -4 0.1 4.4 1 1 1
v -4 0 4.5 1 1 1
v -4 0 3.5 1 1 1
v -4 0.1 3.6 1 1 1
v -4 0.3 3.5 1 1 1
v -4 0.3 3.6 1 1 1
v -4.170711 0 4.120711 1 1 1
v -4.170711 0.05000001 4.120711 1 1 1
v -4.1 0 4.15 1 1 1
v -4.1 0.05000001 4.15 1 1 1
v -4.2 0 4.05 1 1 1
v -4.2 0.05000001 4.05 1 1 1
v -4 0 4.05 1 1 1
v -4.1 0 4.05 1 1 1
v -4 0 4.15 1 1 1
v -4.2 0 3.95 1 1 1
v -4.1 0 3.95 1 1 1
v -4 0 3.95 1 1 1
v -4.170711 0 3.879289 1 1 1
v -4.1 0 3.85 1 1 1
v -4 0 3.85 1 1 1
v -4.170711 0.05000001 3.879289 1 1 1
v -4.1 0.05000001 3.85 1 1 1
v -4.2 0.05000001 3.95 1 1 1
v -4 0.05000001 3.85 1 1 1
v -4 0.05000001 4.15 1 1 1
v -4.1 0.05000001 3.95 1 1 1
v -4 0.05000001 3.95 1 1 1
v -4.1 0.05000001 4.05 1 1 1
v -4 0.05000001 4.05 1 1 1

vn 0 -1 0
vn -1 0 -2.06452E-06
vn -0.7071068 0.7071068 -1.459836E-06
vn -0.9899828 0 -0.1411882
vn -0.7000235 0.7071068 -0.09983514
vn -0.9635122 0 -0.2676645
vn -0.681306 0.7071068 -0.1892674
vn 0.7071068 0.7071068 1.459836E-06
vn 1 0 2.06452E-06
vn 0.7000235 0.7071068 0.09983514
vn 0.9899828 0 0.1411882
vn 0.681306 0.7071068 0.1892674
vn 0.9635122 0 0.2676645
vn 0 1 0
vn -0.9254572 0 -0.378852
vn -0.6543971 0.7071068 -0.2678888
vn -0.8793313 0 -0.4762105
vn -0.6217811 0.7071068 -0.3367316
vn 0.6543971 0.7071068 0.2678888
vn 0.9254572 0 0.378852
vn 0.6217811 0.7071068 0.3367316
vn 0.8793313 0 0.4762105
vn -0.827171 0 -0.5619503
vn -0.5848982 0.7071068 -0.3973588
vn -0.7697966 0 -0.6382892
vn -0.5443284 0.7071068 -0.4513386
vn 0.5848982 0.7071068 0.3973588
vn 0.827171 0 0.5619503
vn 0.5443284 0.7071068 0.4513386
vn 0.7697966 0 0.6382892
vn -0.7071066 0 -0.7071069
vn -0.4999999 0.7071068 -0.5000001
vn -0.638289 0 -0.7697967
vn -0.4513385 0.7071068 -0.5443285
vn 0.4999999 0.7071068 0.5000001
vn 0.7071066 0 0.7071069
vn 0.4513385 0.7071068 0.5443285
vn 0.638289 0 0.7697967
vn -0.56195 0 -0.8271713
vn -0.3973587 0.7071068 -0.5848984
vn -0.4762104 0 -0.8793314
vn -0.3367316 0.7071068 -0.6217812
vn 0.3973587 0.7071068 0.5848984
vn 0.56195 0 0.8271713
vn 0.3367316 0.7071068 0.6217812
vn 0.4762104 0 0.8793314
vn -0.378852 0 -0.9254573
vn -0.2678888 0.7071068 -0.6543971
vn -0.2676646 0 -0.9635121
vn -0.1892675 0.7071068 -0.6813059
vn 0.2678888 0.7071068 0.6543971
vn 0.378852 0 0.9254573
vn 0.1892675 0.7071068 0.6813059
vn 0.2676646 0 0.9635121
vn -0.1411883 0 -0.9899828
vn -0.09983522 0.7071068 -0.7000235
vn -2.205372E-06 0 -0.9999999
vn -1.549721E-06 0.7071068 -0.7071067
vn 0.09983522 0.7071068 0.7000235
vn 0.1411883 0 0.9899828
vn 1.549721E-06 0.7071068 0.7071067
vn 2.205372E-06 0 0.9999999
vn 0 0 -1
vn -0.7071068 0 -0.7071068
vn -0.9807853 0 -0.1950903
vn -0.1950903 0 -0.9807853
vn 0.7071068 0 -0.7071068
vn 0.9807853 0 -0.1950903
vn 0.1950903 0 -0.9807853
vn 1 0 0
vn -1 0 0
vn 0 0 1
vn -0.9999999 0 3.576279E-07
vn -0.7071065 0 0.7071069
vn -0.19509 0 0.9807853
vn -0.9807851 0 0.1950907
vn -0.7071069 0 -0.7071065
vn -0.1950907 0 -0.9807851
vn -0.9807853 0 -0.19509
vn -3.576279E-07 0 -0.9999999
vn 3.576279E-07 0 0.9999999
vn 0.9999999 0 -3.576279E-07

vt 0.46875 0.275
vt 0.46875 0.475
vt 0.46875 0.3416667
vt 0.71875 0.275
vt 0.71875 0.475

usemtl colormap

f 3/1/1 2/1/1 1/1/1
f 2/1/1 3/1/1 4/1/1
f 4/1/1 5/1/1 2/1/1
f 5/1/1 4/1/1 6/1/1
f 2/1/4 7/2/3 1/1/2
f 7/2/3 2/1/4 8/2/5
f 5/1/6 8/2/5 2/1/4
f 8/2/5 5/1/6 9/2/7
f 11/2/10 3/1/9 10/2/8
f 3/1/9 11/2/10 4/1/11
f 12/2/12 4/1/11 11/2/10
f 4/1/11 12/2/12 6/1/13
f 15/3/14 14/3/14 13/3/14
f 14/3/14 15/3/14 16/3/14
f 16/3/14 17/3/14 14/3/14
f 17/3/14 16/3/14 18/3/14
f 7/2/3 20/2/10 19/2/8
f 20/2/10 7/2/3 8/2/5
f 8/2/5 21/2/12 20/2/10
f 21/2/12 8/2/5 9/2/7
f 20/2/10 15/3/9 19/2/8
f 15/3/9 20/2/10 16/3/11
f 21/2/12 16/3/11 20/2/10
f 16/3/11 21/2/12 18/3/13
f 22/2/3 11/2/10 10/2/8
f 11/2/10 22/2/3 23/2/5
f 23/2/5 12/2/12 11/2/10
f 12/2/12 23/2/5 24/2/7
f 14/3/4 22/2/3 13/3/2
f 22/2/3 14/3/4 23/2/5
f 17/3/6 23/2/5 14/3/4
f 23/2/5 17/3/6 24/2/7
f 6/1/1 25/1/1 5/1/1
f 25/1/1 6/1/1 26/1/1
f 26/1/1 27/1/1 25/1/1
f 27/1/1 26/1/1 28/1/1
f 25/1/15 9/2/7 5/1/6
f 9/2/7 25/1/15 29/2/16
f 27/1/17 29/2/16 25/1/15
f 29/2/16 27/1/17 30/2/18
f 31/2/19 6/1/13 12/2/12
f 6/1/13 31/2/19 26/1/20
f 32/2/21 26/1/20 31/2/19
f 26/1/20 32/2/21 28/1/22
f 18/3/14 33/3/14 17/3/14
f 33/3/14 18/3/14 34/3/14
f 34/3/14 35/3/14 33/3/14
f 35/3/14 34/3/14 36/3/14
f 9/2/7 37/2/19 21/2/12
f 37/2/19 9/2/7 29/2/16
f 29/2/16 38/2/21 37/2/19
f 38/2/21 29/2/16 30/2/18
f 37/2/19 18/3/13 21/2/12
f 18/3/13 37/2/19 34/3/20
f 38/2/21 34/3/20 37/2/19
f 34/3/20 38/2/21 36/3/22
f 24/2/7 31/2/19 12/2/12
f 31/2/19 24/2/7 39/2/16
f 39/2/16 32/2/21 31/2/19
f 32/2/21 39/2/16 40/2/18
f 33/3/15 24/2/7 17/3/6
f 24/2/7 33/3/15 39/2/16
f 35/3/17 39/2/16 33/3/15
f 39/2/16 35/3/17 40/2/18
f 28/1/1 41/1/1 27/1/1
f 41/1/1 28/1/1 42/1/1
f 42/1/1 43/1/1 41/1/1
f 43/1/1 42/1/1 44/1/1
f 41/1/23 30/2/18 27/1/17
f 30/2/18 41/1/23 45/2/24
f 43/1/25 45/2/24 41/1/23
f 45/2/24 43/1/25 46/2/26
f 47/2/27 28/1/22 32/2/21
f 28/1/22 47/2/27 42/1/28
f 48/2/29 42/1/28 47/2/27
f 42/1/28 48/2/29 44/1/30
f 36/3/14 49/3/14 35/3/14
f 49/3/14 36/3/14 50/3/14
f 50/3/14 51/3/14 49/3/14
f 51/3/14 50/3/14 52/3/14
f 30/2/18 53/2/27 38/2/21
f 53/2/27 30/2/18 45/2/24
f 45/2/24 54/2/29 53/2/27
f 54/2/29 45/2/24 46/2/26
f 53/2/27 36/3/22 38/2/21
f 36/3/22 53/2/27 50/3/28
f 54/2/29 50/3/28 53/2/27
f 50/3/28 54/2/29 52/3/30
f 40/2/18 47/2/27 32/2/21
f 47/2/27 40/2/18 55/2/24
f 55/2/24 48/2/29 47/2/27
f 48/2/29 55/2/24 56/2/26
f 49/3/23 40/2/18 35/3/17
f 40/2/18 49/3/23 55/2/24
f 51/3/25 55/2/24 49/3/23
f 55/2/24 51/3/25 56/2/26
f 44/1/1 57/1/1 43/1/1
f 57/1/1 44/1/1 58/1/1
f 58/1/1 59/1/1 57/1/1
f 59/1/1 58/1/1 60/1/1
f 57/1/31 46/2/26 43/1/25
f 46/2/26 57/1/31 61/2/32
f 59/1/33 61/2/32 57/1/31
f 61/2/32 59/1/33 62/2/34
f 63/2/35 44/1/30 48/2/29
f 44/1/30 63/2/35 58/1/36
f 64/2/37 58/1/36 63/2/35
f 58/1/36 64/2/37 60/1/38
f 52/3/14 65/3/14 51/3/14
f 65/3/14 52/3/14 66/3/14
f 66/3/14 67/3/14 65/3/14
f 67/3/14 66/3/14 68/3/14
f 46/2/26 69/2/35 54/2/29
f 69/2/35 46/2/26 61/2/32
f 61/2/32 70/2/37 69/2/35
f 70/2/37 61/2/32 62/2/34
f 69/2/35 52/3/30 54/2/29
f 52/3/30 69/2/35 66/3/36
f 70/2/37 66/3/36 69/2/35
f 66/3/36 70/2/37 68/3/38
f 56/2/26 63/2/35 48/2/29
f 63/2/35 56/2/26 71/2/32
f 71/2/32 64/2/37 63/2/35
f 64/2/37 71/2/32 72/2/34
f 65/3/31 56/2/26 51/3/25
f 56/2/26 65/3/31 71/2/32
f 67/3/33 71/2/32 65/3/31
f 71/2/32 67/3/33 72/2/34
f 60/1/1 73/1/1 59/1/1
f 73/1/1 60/1/1 74/1/1
f 74/1/1 75/1/1 73/1/1
f 75/1/1 74/1/1 76/1/1
f 73/1/39 62/2/34 59/1/33
f 62/2/34 73/1/39 77/2/40
f 75/1/41 77/2/40 73/1/39
f 77/2/40 75/1/41 78/2/42
f 79/2/43 60/1/38 64/2/37
f 60/1/38 79/2/43 74/1/44
f 80/2/45 74/1/44 79/2/43
f 74/1/44 80/2/45 76/1/46
f 68/3/14 81/3/14 67/3/14
f 81/3/14 68/3/14 82/3/14
f 82/3/14 83/3/14 81/3/14
f 83/3/14 82/3/14 84/3/14
f 62/2/34 85/2/43 70/2/37
f 85/2/43 62/2/34 77/2/40
f 77/2/40 86/2/45 85/2/43
f 86/2/45 77/2/40 78/2/42
f 85/2/43 68/3/38 70/2/37
f 68/3/38 85/2/43 82/3/44
f 86/2/45 82/3/44 85/2/43
f 82/3/44 86/2/45 84/3/46
f 72/2/34 79/2/43 64/2/37
f 79/2/43 72/2/34 87/2/40
f 87/2/40 80/2/45 79/2/43
f 80/2/45 87/2/40 88/2/42
f 81/3/39 72/2/34 67/3/33
f 72/2/34 81/3/39 87/2/40
f 83/3/41 87/2/40 81/3/39
f 87/2/40 83/3/41 88/2/42
f 76/1/1 89/1/1 75/1/1
f 89/1/1 76/1/1 90/1/1
f 90/1/1 91/1/1 89/1/1
f 91/1/1 90/1/1 92/1/1
f 89/1/47 78/2/42 75/1/41
f 78/2/42 89/1/47 93/2/48
f 91/1/49 93/2/48 89/1/47
f 93/2/48 91/1/49 94/2/50
f 95/2/51 76/1/46 80/2/45
f 76/1/46 95/2/51 90/1/52
f 96/2/53 90/1/52 95/2/51
f 90/1/52 96/2/53 92/1/54
f 84/3/14 97/3/14 83/3/14
f 97/3/14 84/3/14 98/3/14
f 98/3/14 99/3/14 97/3/14
f 99/3/14 98/3/14 100/3/14
f 78/2/42 101/2/51 86/2/45
f 101/2/51 78/2/42 93/2/48
f 93/2/48 102/2/53 101/2/51
f 102/2/53 93/2/48 94/2/50
f 101/2/51 84/3/46 86/2/45
f 84/3/46 101/2/51 98/3/52
f 102/2/53 98/3/52 101/2/51
f 98/3/52 102/2/53 100/3/54
f 88/2/42 95/2/51 80/2/45
f 95/2/51 88/2/42 103/2/48
f 103/2/48 96/2/53 95/2/51
f 96/2/53 103/2/48 104/2/50
f 97/3/47 88/2/42 83/3/41
f 88/2/42 97/3/47 103/2/48
f 99/3/49 103/2/48 97/3/47
f 103/2/48 99/3/49 104/2/50
f 92/1/1 105/1/1 91/1/1
f 105/1/1 92/1/1 106/1/1
f 106/1/1 107/1/1 105/1/1
f 107/1/1 106/1/1 108/1/1
f 105/1/55 94/2/50 91/1/49
f 94/2/50 105/1/55 109/2/56
f 107/1/57 109/2/56 105/1/55
f 109/2/56 107/1/57 110/2/58
f 111/2/59 92/1/54 96/2/53
f 92/1/54 111/2/59 106/1/60
f 112/2/61 106/1/60 111/2/59
f 106/1/60 112/2/61 108/1/62
f 100/3/14 113/3/14 99/3/14
f 113/3/14 100/3/14 114/3/14
f 114/3/14 115/3/14 113/3/14
f 115/3/14 114/3/14 116/3/14
f 94/2/50 117/2/59 102/2/53
f 117/2/59 94/2/50 109/2/56
f 109/2/56 118/2/61 117/2/59
f 118/2/61 109/2/56 110/2/58
f 117/2/59 100/3/54 102/2/53
f 100/3/54 117/2/59 114/3/60
f 118/2/61 114/3/60 117/2/59
f 114/3/60 118/2/61 116/3/62
f 104/2/50 111/2/59 96/2/53
f 111/2/59 104/2/50 119/2/56
f 119/2/56 112/2/61 111/2/59
f 112/2/61 119/2/56 120/2/58
f 113/3/55 104/2/50 99/3/49
f 104/2/50 113/3/55 119/2/56
f 115/3/57 119/2/56 113/3/55
f 119/2/56 115/3/57 120/2/58
f 123/3/63 122/2/63 121/2/63
f 123/3/63 124/1/63 122/2/63
f 124/1/63 123/3/63 125/1/63
f 126/3/63 125/1/63 123/3/63
f 125/1/63 126/3/63 127/2/63
f 127/2/63 126/3/63 128/2/63
f 131/4/65 130/5/64 129/4/64
f 130/5/64 131/4/65 132/5/65
f 130/5/64 133/4/66 129/4/64
f 133/4/66 130/5/64 134/5/66
f 137/4/1 136/4/1 135/4/1
f 136/4/1 137/4/1 133/4/1
f 133/4/1 137/4/1 129/4/1
f 129/4/1 137/4/1 131/4/1
f 138/4/1 136/4/1 133/4/1
f 138/4/1 139/4/1 136/4/1
f 138/4/1 140/4/1 139/4/1
f 141/4/1 140/4/1 138/4/1
f 142/4/1 140/4/1 141/4/1
f 140/4/1 142/4/1 143/4/1
f 145/5/68 141/4/67 144/5/67
f 141/4/67 145/5/68 142/4/68
f 146/5/69 141/4/67 138/4/69
f 141/4/67 146/5/69 144/5/67
f 147/5/70 142/4/68 145/5/68
f 142/4/68 147/5/70 143/4/70
f 137/4/71 132/5/65 131/4/65
f 132/5/65 137/4/71 148/5/71
f 134/5/66 138/4/69 133/4/66
f 138/4/69 134/5/66 146/5/69
f 140/4/71 149/5/71 139/4/71
f 149/5/71 140/4/71 150/5/71
f 149/5/72 136/4/72 139/4/72
f 136/4/72 149/5/72 151/5/72
f 152/5/70 136/4/70 151/5/70
f 136/4/70 152/5/70 135/4/70
f 148/5/14 130/5/14 132/5/14
f 152/5/14 130/5/14 148/5/14
f 151/5/14 130/5/14 152/5/14
f 151/5/14 134/5/14 130/5/14
f 149/5/14 134/5/14 151/5/14
f 134/5/14 149/5/14 146/5/14
f 150/5/14 146/5/14 149/5/14
f 150/5/14 144/5/14 146/5/14
f 147/5/14 144/5/14 150/5/14
f 144/5/14 147/5/14 145/5/14
f 155/3/73 154/2/73 153/2/73
f 155/3/73 156/1/73 154/2/73
f 156/1/73 155/3/73 157/1/73
f 158/3/73 157/1/73 155/3/73
f 157/1/73 158/3/73 159/2/73
f 159/2/73 158/3/73 160/2/73
f 163/4/75 162/5/74 161/4/74
f 162/5/74 163/4/75 164/5/75
f 162/5/74 165/4/76 161/4/74
f 165/4/76 162/5/74 166/5/76
f 169/4/1 168/4/1 167/4/1
f 168/4/1 169/4/1 165/4/1
f 165/4/1 169/4/1 161/4/1
f 161/4/1 169/4/1 163/4/1
f 170/4/1 168/4/1 165/4/1
f 170/4/1 171/4/1 168/4/1
f 170/4/1 172/4/1 171/4/1
f 173/4/1 172/4/1 170/4/1
f 174/4/1 172/4/1 173/4/1
f 172/4/1 174/4/1 175/4/1
f 177/5/78 173/4/77 176/5/77
f 173/4/77 177/5/78 174/4/78
f 178/5/79 173/4/77 170/4/79
f 173/4/77 178/5/79 176/5/77
f 179/5/80 174/4/78 177/5/78
f 174/4/78 179/5/80 175/4/80
f 169/4/81 164/5/75 163/4/75
f 164/5/75 169/4/81 180/5/81
f 166/5/76 170/4/79 165/4/76
f 170/4/79 166/5/76 178/5/79
f 172/4/81 181/5/81 171/4/81
f 181/5/81 172/4/81 182/5/81
f 181/5/82 168/4/82 171/4/82
f 168/4/82 181/5/82 183/5/82
f 184/5/80 168/4/80 183/5/80
f 168/4/80 184/5/80 167/4/80
f 180/5/14 162/5/14 164/5/14
f 184/5/14 162/5/14 180/5/14
f 183/5/14 162/5/14 184/5/14
f 183/5/14 166/5/14 162/5/14
f 181/5/14 166/5/14 183/5/14
f 166/5/14 181/5/14 178/5/14
f 182/5/14 178/5/14 181/5/14
f 182/5/14 176/5/14 178/5/14
f 179/5/14 176/5/14 182/5/14
f 176/5/14 179/5/14 177/5/14

g track-narrow-corner-large




usemtl colormap

f 3/1/1 2/1/1 1/1/1
f 2/1/1 3/1/1 4/1/1
f 4/1/1 5/1/1 2/1/1
f 5/1/1 4/1/1 6/1/1
f 2/1/4 7/2/3 1/1/2
f 7/2/3 2/1/4 8/2/5
f 5/1/6 8/2/5 2/1/4
f 8/2/5 5/1/6 9/2/7
f 11/2/10 3/1/9 10/2/8
f 3/1/9 11/2/10 4/1/11
f 12/2/12 4/1/11 11/2/10
f 4/1/11 12/2/12 6/1/13
f 15/3/14 14/3/14 13/3/14
f 14/3/14 15/3/14 16/3/14
f 16/3/14 17/3/14 14/3/14
f 17/3/14 16/3/14 18/3/14
f 7/2/3 20/2/10 19/2/8
f 20/2/10 7/2/3 8/2/5
f 8/2/5 21/2/12 20/2/10
f 21/2/12 8/2/5 9/2/7
f 20/2/10 15/3/9 19/2/8
f 15/3/9 20/2/10 16/3/11
f 21/2/12 16/3/11 20/2/10
f 16/3/11 21/2/12 18/3/13
f 22/2/3 11/2/10 10/2/8
f 11/2/10 22/2/3 23/2/5
f 23/2/5 12/2/12 11/2/10
f 12/2/12 23/2/5 24/2/7
f 14/3/4 22/2/3 13/3/2
f 22/2/3 14/3/4 23/2/5
f 17/3/6 23/2/5 14/3/4
f 23/2/5 17/3/6 24/2/7
f 6/1/1 25/1/1 5/1/1
f 25/1/1 6/1/1 26/1/1
f 26/1/1 27/1/1 25/1/1
f 27/1/1 26/1/1 28/1/1
f 25/1/15 9/2/7 5/1/6
f 9/2/7 25/1/15 29/2/16
f 27/1/17 29/2/16 25/1/15
f 29/2/16 27/1/17 30/2/18
f 31/2/19 6/1/13 12/2/12
f 6/1/13 31/2/19 26/1/20
f 32/2/21 26/1/20 31/2/19
f 26/1/20 32/2/21 28/1/22
f 18/3/14 33/3/14 17/3/14
f 33/3/14 18/3/14 34/3/14
f 34/3/14 35/3/14 33/3/14
f 35/3/14 34/3/14 36/3/14
f 9/2/7 37/2/19 21/2/12
f 37/2/19 9/2/7 29/2/16
f 29/2/16 38/2/21 37/2/19
f 38/2/21 29/2/16 30/2/18
f 37/2/19 18/3/13 21/2/12
f 18/3/13 37/2/19 34/3/20
f 38/2/21 34/3/20 37/2/19
f 34/3/20 38/2/21 36/3/22
f 24/2/7 31/2/19 12/2/12
f 31/2/19 24/2/7 39/2/16
f 39/2/16 32/2/21 31/2/19
f 32/2/21 39/2/16 40/2/18
f 33/3/15 24/2/7 17/3/6
f 24/2/7 33/3/15 39/2/16
f 35/3/17 39/2/16 33/3/15
f 39/2/16 35/3/17 40/2/18
f 28/1/1 41/1/1 27/1/1
f 41/1/1 28/1/1 42/1/1
f 42/1/1 43/1/1 41/1/1
f 43/1/1 42/1/1 44/1/1
f 41/1/23 30/2/18 27/1/17
f 30/2/18 41/1/23 45/2/24
f 43/1/25 45/2/24 41/1/23
f 45/2/24 43/1/25 46/2/26
f 47/2/27 28/1/22 32/2/21
f 28/1/22 47/2/27 42/1/28
f 48/2/29 42/1/28 47/2/27
f 42/1/28 48/2/29 44/1/30
f 36/3/14 49/3/14 35/3/14
f 49/3/14 36/3/14 50/3/14
f 50/3/14 51/3/14 49/3/14
f 51/3/14 50/3/14 52/3/14
f 30/2/18 53/2/27 38/2/21
f 53/2/27 30/2/18 45/2/24
f 45/2/24 54/2/29 53/2/27
f 54/2/29 45/2/24 46/2/26
f 53/2/27 36/3/22 38/2/21
f 36/3/22 53/2/27 50/3/28
f 54/2/29 50/3/28 53/2/27
f 50/3/28 54/2/29 52/3/30
f 40/2/18 47/2/27 32/2/21
f 47/2/27 40/2/18 55/2/24
f 55/2/24 48/2/29 47/2/27
f 48/2/29 55/2/24 56/2/26
f 49/3/23 40/2/18 35/3/17
f 40/2/18 49/3/23 55/2/24
f 51/3/25 55/2/24 49/3/23
f 55/2/24 51/3/25 56/2/26
f 44/1/1 57/1/1 43/1/1
f 57/1/1 44/1/1 58/1/1
f 58/1/1 59/1/1 57/1/1
f 59/1/1 58/1/1 60/1/1
f 57/1/31 46/2/26 43/1/25
f 46/2/26 57/1/31 61/2/32
f 59/1/33 61/2/32 57/1/31
f 61/2/32 59/1/33 62/2/34
f 63/2/35 44/1/30 48/2/29
f 44/1/30 63/2/35 58/1/36
f 64/2/37 58/1/36 63/2/35
f 58/1/36 64/2/37 60/1/38
f 52/3/14 65/3/14 51/3/14
f 65/3/14 52/3/14 66/3/14
f 66/3/14 67/3/14 65/3/14
f 67/3/14 66/3/14 68/3/14
f 46/2/26 69/2/35 54/2/29
f 69/2/35 46/2/26 61/2/32
f 61/2/32 70/2/37 69/2/35
f 70/2/37 61/2/32 62/2/34
f 69/2/35 52/3/30 54/2/29
f 52/3/30 69/2/35 66/3/36
f 70/2/37 66/3/36 69/2/35
f 66/3/36 70/2/37 68/3/38
f 56/2/26 63/2/35 48/2/29
f 63/2/35 56/2/26 71/2/32
f 71/2/32 64/2/37 63/2/35
f 64/2/37 71/2/32 72/2/34
f 65/3/31 56/2/26 51/3/25
f 56/2/26 65/3/31 71/2/32
f 67/3/33 71/2/32 65/3/31
f 71/2/32 67/3/33 72/2/34
f 60/1/1 73/1/1 59/1/1
f 73/1/1 60/1/1 74/1/1
f 74/1/1 75/1/1 73/1/1
f 75/1/1 74/1/1 76/1/1
f 73/1/39 62/2/34 59/1/33
f 62/2/34 73/1/39 77/2/40
f 75/1/41 77/2/40 73/1/39
f 77/2/40 75/1/41 78/2/42
f 79/2/43 60/1/38 64/2/37
f 60/1/38 79/2/43 74/1/44
f 80/2/45 74/1/44 79/2/43
f 74/1/44 80/2/45 76/1/46
f 68/3/14 81/3/14 67/3/14
f 81/3/14 68/3/14 82/3/14
f 82/3/14 83/3/14 81/3/14
f 83/3/14 82/3/14 84/3/14
f 62/2/34 85/2/43 70/2/37
f 85/2/43 62/2/34 77/2/40
f 77/2/40 86/2/45 85/2/43
f 86/2/45 77/2/40 78/2/42
f 85/2/43 68/3/38 70/2/37
f 68/3/38 85/2/43 82/3/44
f 86/2/45 82/3/44 85/2/43
f 82/3/44 86/2/45 84/3/46
f 72/2/34 79/2/43 64/2/37
f 79/2/43 72/2/34 87/2/40
f 87/2/40 80/2/45 79/2/43
f 80/2/45 87/2/40 88/2/42
f 81/3/39 72/2/34 67/3/33
f 72/2/34 81/3/39 87/2/40
f 83/3/41 87/2/40 81/3/39
f 87/2/40 83/3/41 88/2/42
f 76/1/1 89/1/1 75/1/1
f 89/1/1 76/1/1 90/1/1
f 90/1/1 91/1/1 89/1/1
f 91/1/1 90/1/1 92/1/1
f 89/1/47 78/2/42 75/1/41
f 78/2/42 89/1/47 93/2/48
f 91/1/49 93/2/48 89/1/47
f 93/2/48 91/1/49 94/2/50
f 95/2/51 76/1/46 80/2/45
f 76/1/46 95/2/51 90/1/52
f 96/2/53 90/1/52 95/2/51
f 90/1/52 96/2/53 92/1/54
f 84/3/14 97/3/14 83/3/14
f 97/3/14 84/3/14 98/3/14
f 98/3/14 99/3/14 97/3/14
f 99/3/14 98/3/14 100/3/14
f 78/2/42 101/2/51 86/2/45
f 101/2/51 78/2/42 93/2/48
f 93/2/48 102/2/53 101/2/51
f 102/2/53 93/2/48 94/2/50
f 101/2/51 84/3/46 86/2/45
f 84/3/46 101/2/51 98/3/52
f 102/2/53 98/3/52 101/2/51
f 98/3/52 102/2/53 100/3/54
f 88/2/42 95/2/51 80/2/45
f 95/2/51 88/2/42 103/2/48
f 103/2/48 96/2/53 95/2/51
f 96/2/53 103/2/48 104/2/50
f 97/3/47 88/2/42 83/3/41
f 88/2/42 97/3/47 103/2/48
f 99/3/49 103/2/48 97/3/47
f 103/2/48 99/3/49 104/2/50
f 92/1/1 105/1/1 91/1/1
f 105/1/1 92/1/1 106/1/1
f 106/1/1 107/1/1 105/1/1
f 107/1/1 106/1/1 108/1/1
f 105/1/55 94/2/50 91/1/49
f 94/2/50 105/1/55 109/2/56
f 107/1/57 109/2/56 105/1/55
f 109/2/56 107/1/57 110/2/58
f 111/2/59 92/1/54 96/2/53
f 92/1/54 111/2/59 106/1/60
f 112/2/61 106/1/60 111/2/59
f 106/1/60 112/2/61 108/1/62
f 100/3/14 113/3/14 99/3/14
f 113/3/14 100/3/14 114/3/14
f 114/3/14 115/3/14 113/3/14
f 115/3/14 114/3/14 116/3/14
f 94/2/50 117/2/59 102/2/53
f 117/2/59 94/2/50 109/2/56
f 109/2/56 118/2/61 117/2/59
f 118/2/61 109/2/56 110/2/58
f 117/2/59 100/3/54 102/2/53
f 100/3/54 117/2/59 114/3/60
f 118/2/61 114/3/60 117/2/59
f 114/3/60 118/2/61 116/3/62
f 104/2/50 111/2/59 96/2/53
f 111/2/59 104/2/50 119/2/56
f 119/2/56 112/2/61 111/2/59
f 112/2/61 119/2/56 120/2/58
f 113/3/55 104/2/50 99/3/49
f 104/2/50 113/3/55 119/2/56
f 115/3/57 119/2/56 113/3/55
f 119/2/56 115/3/57 120/2/58
f 123/3/63 122/2/63 121/2/63
f 123/3/63 124/1/63 122/2/63
f 124/1/63 123/3/63 125/1/63
f 126/3/63 125/1/63 123/3/63
f 125/1/63 126/3/63 127/2/63
f 127/2/63 126/3/63 128/2/63
f 131/4/65 130/5/64 129/4/64
f 130/5/64 131/4/65 132/5/65
f 130/5/64 133/4/66 129/4/64
f 133/4/66 130/5/64 134/5/66
f 137/4/1 136/4/1 135/4/1
f 136/4/1 137/4/1 133/4/1
f 133/4/1 137/4/1 129/4/1
f 129/4/1 137/4/1 131/4/1
f 138/4/1 136/4/1 133/4/1
f 138/4/1 139/4/1 136/4/1
f 138/4/1 140/4/1 139/4/1
f 141/4/1 140/4/1 138/4/1
f 142/4/1 140/4/1 141/4/1
f 140/4/1 142/4/1 143/4/1
f 145/5/68 141/4/67 144/5/67
f 141/4/67 145/5/68 142/4/68
f 146/5/69 141/4/67 138/4/69
f 141/4/67 146/5/69 144/5/67
f 147/5/70 142/4/68 145/5/68
f 142/4/68 147/5/70 143/4/70
f 137/4/71 132/5/65 131/4/65
f 132/5/65 137/4/71 148/5/71
f 134/5/66 138/4/69 133/4/66
f 138/4/69 134/5/66 146/5/69
f 140/4/71 149/5/71 139/4/71
f 149/5/71 140/4/71 150/5/71
f 149/5/72 136/4/72 139/4/72
f 136/4/72 149/5/72 151/5/72
f 152/5/70 136/4/70 151/5/70
f 136/4/70 152/5/70 135/4/70
f 148/5/14 130/5/14 132/5/14
f 152/5/14 130/5/14 148/5/14
f 151/5/14 130/5/14 152/5/14
f 151/5/14 134/5/14 130/5/14
f 149/5/14 134/5/14 151/5/14
f 134/5/14 149/5/14 146/5/14
f 150/5/14 146/5/14 149/5/14
f 150/5/14 144/5/14 146/5/14
f 147/5/14 144/5/14 150/5/14
f 144/5/14 147/5/14 145/5/14
f 155/3/73 154/2/73 153/2/73
f 155/3/73 156/1/73 154/2/73
f 156/1/73 155/3/73 157/1/73
f 158/3/73 157/1/73 155/3/73
f 157/1/73 158/3/73 159/2/73
f 159/2/73 158/3/73 160/2/73
f 163/4/75 162/5/74 161/4/74
f 162/5/74 163/4/75 164/5/75
f 162/5/74 165/4/76 161/4/74
f 165/4/76 162/5/74 166/5/76
f 169/4/1 168/4/1 167/4/1
f 168/4/1 169/4/1 165/4/1
f 165/4/1 169/4/1 161/4/1
f 161/4/1 169/4/1 163/4/1
f 170/4/1 168/4/1 165/4/1
f 170/4/1 171/4/1 168/4/1
f 170/4/1 172/4/1 171/4/1
f 173/4/1 172/4/1 170/4/1
f 174/4/1 172/4/1 173/4/1
f 172/4/1 174/4/1 175/4/1
f 177/5/78 173/4/77 176/5/77
f 173/4/77 177/5/78 174/4/78
f 178/5/79 173/4/77 170/4/79
f 173/4/77 178/5/79 176/5/77
f 179/5/80 174/4/78 177/5/78
f 174/4/78 179/5/80 175/4/80
f 169/4/81 164/5/75 163/4/75
f 164/5/75 169/4/81 180/5/81
f 166/5/76 170/4/79 165/4/76
f 170/4/79 166/5/76 178/5/79
f 172/4/81 181/5/81 171/4/81
f 181/5/81 172/4/81 182/5/81
f 181/5/82 168/4/82 171/4/82
f 168/4/82 181/5/82 183/5/82
f 184/5/80 168/4/80 183/5/80
f 168/4/80 184/5/80 167/4/80
f 180/5/14 162/5/14 164/5/14
f 184/5/14 162/5/14 180/5/14
f 183/5/14 162/5/14 184/5/14
f 183/5/14 166/5/14 162/5/14
f 181/5/14 166/5/14 183/5/14
f 166/5/14 181/5/14 178/5/14
f 182/5/14 178/5/14 181/5/14
f 182/5/14 176/5/14 178/5/14
f 179/5/14 176/5/14 182/5/14
f 176/5/14 179/5/14 177/5/14

