# Created by Kenney (www.kenney.nl)

mtllib track-narrow-curve.mtl

g track-narrow-curve

v -0.5 0 3.814697E-06 1 1 1
v -0.5314779 0 0.3722649 1 1 1
v 0.5 0 5.722046E-06 1 1 1
v 0.4526138 0 0.5499244 1 1 1
v -0.6304159 0 0.71136 1 1 1
v 0.2931023 0 1.094915 1 1 1
v -0.5 0.3 3.814697E-06 1 1 1
v -0.5314779 0.3 0.3722649 1 1 1
v -0.6304159 0.3 0.71136 1 1 1
v 0.5 0.3 5.722046E-06 1 1 1
v 0.4526138 0.3 0.5499244 1 1 1
v 0.2931023 0.3 1.094915 1 1 1
v 0.3999996 0.1 5.245209E-06 1 1 1
v 0.3542042 0.1 0.5321584 1 1 1
v -0.3999996 0.1 4.291534E-06 1 1 1
v -0.4330692 0.1 0.3900309 1 1 1
v 0.2007504 0.1 1.05656 1 1 1
v -0.538064 0.1 0.7497158 1 1 1
v -0.3999996 0.3 4.291534E-06 1 1 1
v -0.4330692 0.3 0.3900309 1 1 1
v -0.538064 0.3 0.7497158 1 1 1
v 0.3999996 0.3 5.245209E-06 1 1 1
v 0.3542042 0.3 0.5321584 1 1 1
v 0.2007504 0.3 1.05656 1 1 1
v -0.8026285 0 1.025933 1 1 1
v 0.02320862 0 1.589841 1 1 1
v -1.04838 0 1.331736 1 1 1
v -0.3085632 0 2.004544 1 1 1
v -0.8026285 0.3 1.025933 1 1 1
v -1.04838 0.3 1.331736 1 1 1
v 0.02320862 0.3 1.589841 1 1 1
v -0.3085632 0.3 2.004544 1 1 1
v -0.05937481 0.1 1.533451 1 1 1
v -0.7200451 0.1 1.082324 1 1 1
v -0.3825445 0.1 1.937263 1 1 1
v -0.9743977 0.1 1.399017 1 1 1
v -0.7200451 0.3 1.082324 1 1 1
v -0.9743977 0.3 1.399017 1 1 1
v -0.05937481 0.3 1.533451 1 1 1
v -0.3825445 0.3 1.937263 1 1 1
v -1.353554 0 1.646447 1 1 1
v -0.6464462 0 2.353553 1 1 1
v -1.691437 0 1.995455 1 1 1
v -0.9516201 0 2.668264 1 1 1
v -1.353554 0.3 1.646447 1 1 1
v -1.691437 0.3 1.995455 1 1 1
v -0.6464462 0.3 2.353553 1 1 1
v -0.9516201 0.3 2.668264 1 1 1
v -0.7171574 0.1 2.282843 1 1 1
v -1.282843 0.1 1.717157 1 1 1
v -1.025601 0.1 2.600983 1 1 1
v -1.617455 0.1 2.062736 1 1 1
v -1.282843 0.3 1.717157 1 1 1
v -1.617455 0.3 2.062736 1 1 1
v -0.7171574 0.3 2.282843 1 1 1
v -1.025601 0.3 2.600983 1 1 1
v -2.023209 0 2.410158 1 1 1
v -1.197371 0 2.974067 1 1 1
v -2.293102 0 2.905085 1 1 1
v -1.369584 0 3.28864 1 1 1
v -2.023209 0.3 2.410158 1 1 1
v -2.293102 0.3 2.905085 1 1 1
v -1.197371 0.3 2.974067 1 1 1
v -1.369584 0.3 3.28864 1 1 1
v -1.279955 0.1 2.917676 1 1 1
v -1.940625 0.1 2.466549 1 1 1
v -1.461936 0.1 3.250284 1 1 1
v -2.20075 0.1 2.94344 1 1 1
v -1.940625 0.3 2.466549 1 1 1
v -2.20075 0.3 2.94344 1 1 1
v -1.279955 0.3 2.917676 1 1 1
v -1.461936 0.3 3.250284 1 1 1
v -2.452614 0 3.450076 1 1 1
v -1.468521 0 3.627736 1 1 1
v -2.5 0 3.999994 1 1 1
v -1.5 0 3.999996 1 1 1
v -2.452614 0.3 3.450076 1 1 1
v -2.5 0.3 3.999994 1 1 1
v -1.468521 0.3 3.627736 1 1 1
v -1.5 0.3 3.999996 1 1 1
v -1.566931 0.1 3.60997 1 1 1
v -2.354204 0.1 3.467842 1 1 1
v -1.6 0.1 3.999996 1 1 1
v -2.4 0.1 3.999994 1 1 1
v -2.354204 0.3 3.467842 1 1 1
v -2.4 0.3 3.999994 1 1 1
v -1.566931 0.3 3.60997 1 1 1
v -1.6 0.3 3.999996 1 1 1
v -0.4 0.3 0 1 1 1
v -0.5 0.3 0 1 1 1
v -0.4 0.1 0 1 1 1
v -0.5 0 0 1 1 1
v 0.5 0 0 1 1 1
v 0.4 0.1 0 1 1 1
v 0.5 0.3 0 1 1 1
v 0.4 0.3 0 1 1 1
v -0.1207107 0 -0.1707107 1 1 1
v -0.1207107 0.05000001 -0.1707107 1 1 1
v -0.15 0 -0.1 1 1 1
v -0.15 0.05000001 -0.1 1 1 1
v -0.05 0 -0.2 1 1 1
v -0.05 0.05000001 -0.2 1 1 1
v -0.05 0 7.219114E-16 1 1 1
v -0.05 0 -0.1 1 1 1
v -0.15 0 1.082867E-15 1 1 1
v 0.05 0 -0.2 1 1 1
v 0.05 0 -0.1 1 1 1
v 0.05 0 3.609557E-16 1 1 1
v 0.1207107 0 -0.1707107 1 1 1
v 0.15 0 -0.1 1 1 1
v 0.15 0 0 1 1 1
v 0.1207107 0.05000001 -0.1707107 1 1 1
v 0.15 0.05000001 -0.1 1 1 1
v 0.05 0.05000001 -0.2 1 1 1
v 0.15 0.05000001 0 1 1 1
v -0.15 0.05000001 1.082867E-15 1 1 1
v 0.05 0.05000001 -0.1 1 1 1
v 0.05 0.05000001 3.609557E-16 1 1 1
v -0.05 0.05000001 -0.1 1 1 1
v -0.05 0.05000001 7.219114E-16 1 1 1
v -1.6 0.3 4 1 1 1
v -1.5 0.3 4 1 1 1
v -1.6 0.1 4 1 1 1
v -1.5 0 4 1 1 1
v -2.5 0 4 1 1 1
v -2.4 0.1 4 1 1 1
v -2.5 0.3 4 1 1 1
v -2.4 0.3 4 1 1 1
v -1.879289 0 4.170711 1 1 1
v -1.879289 0.05000001 4.170711 1 1 1
v -1.85 0 4.1 1 1 1
v -1.85 0.05000001 4.1 1 1 1
v -1.95 0 4.2 1 1 1
v -1.95 0.05000001 4.2 1 1 1
v -1.95 0 4 1 1 1
v -1.95 0 4.1 1 1 1
v -1.85 0 4 1 1 1
v -2.05 0 4.2 1 1 1
v -2.05 0 4.1 1 1 1
v -2.05 0 4 1 1 1
v -2.120711 0 4.170711 1 1 1
v -2.15 0 4.1 1 1 1
v -2.15 0 4 1 1 1
v -2.120711 0.05000001 4.170711 1 1 1
v -2.15 0.05000001 4.1 1 1 1
v -2.05 0.05000001 4.2 1 1 1
v -2.15 0.05000001 4 1 1 1
v -1.85 0.05000001 4 1 1 1
v -2.05 0.05000001 4.1 1 1 1
v -2.05 0.05000001 4 1 1 1
v -1.95 0.05000001 4.1 1 1 1
v -1.95 0.05000001 4 1 1 1

vn 0 -1 0
vn -1 0 -1.593189E-06
vn -0.7071068 0.7071068 -1.126555E-06
vn -0.9840919 0 -0.1776599
vn -0.6958581 0.7071068 -0.1256245
vn -0.923518 0 -0.383555
vn -0.6530259 0.7071068 -0.2712143
vn 0.7071068 0.7071068 1.126555E-06
vn 1 0 1.593189E-06
vn 0.6958581 0.7071068 0.1256245
vn 0.9840919 0 0.1776599
vn 0.6530259 0.7071068 0.2712143
vn 0.923518 0 0.383555
vn 0 1 0
vn -0.8258374 0 -0.5639083
vn -0.5839552 0.7071068 -0.3987434
vn -0.7398167 0 -0.6728086
vn -0.5231293 0.7071068 -0.4757475
vn 0.5839552 0.7071068 0.3987434
vn 0.8258374 0 0.5639083
vn 0.5231293 0.7071068 0.4757475
vn 0.7398167 0 0.6728086
vn -0.7071067 0 -0.7071068
vn -0.5 0.7071068 -0.5
vn -0.7398165 0 -0.6728087
vn -0.5231293 0.7071068 -0.4757476
vn 0.5 0.7071068 0.5
vn 0.7071067 0 0.7071068
vn 0.5231293 0.7071068 0.4757476
vn 0.7398165 0 0.6728087
vn -0.8258373 0 -0.5639084
vn -0.5839552 0.7071068 -0.3987435
vn -0.9235179 0 -0.3835551
vn -0.6530258 0.7071068 -0.2712144
vn 0.5839552 0.7071068 0.3987435
vn 0.8258373 0 0.5639084
vn 0.6530258 0.7071068 0.2712144
vn 0.9235179 0 0.3835551
vn -0.9840919 0 -0.1776599
vn -0.6958581 0.7071068 -0.1256246
vn -1 0 -1.668933E-06
vn -0.7071068 0.7071068 -1.180114E-06
vn 0.6958581 0.7071068 0.1256246
vn 0.9840919 0 0.1776599
vn 0.7071068 0.7071068 1.180114E-06
vn 1 0 1.668933E-06
vn 0 0 -1
vn -0.7071068 0 -0.7071068
vn -0.9807853 0 -0.1950903
vn -0.1950903 0 -0.9807853
vn 0.7071068 0 -0.7071068
vn 0.9807853 0 -0.1950903
vn 0.1950903 0 -0.9807853
vn 1 0 0
vn -1 0 0
vn 0 0 1
vn 0.7071068 0 0.7071068
vn 0.9807853 0 0.1950903
vn 0.1950903 0 0.9807853
vn -0.7071068 0 0.7071068
vn -0.9807853 0 0.1950903
vn -0.1950903 0 0.9807853
vn -1 0 7.21645E-16
vn 1 0 -7.21645E-16
vn -7.21645E-16 0 -1

vt 0.46875 0.275
vt 0.46875 0.475
vt 0.46875 0.3416667
vt 0.71875 0.275
vt 0.71875 0.475

usemtl colormap

f 3/1/1 2/1/1 1/1/1
f 2/1/1 3/1/1 4/1/1
f 4/1/1 5/1/1 2/1/1
f 5/1/1 4/1/1 6/1/1
f 2/1/4 7/2/3 1/1/2
f 7/2/3 2/1/4 8/2/5
f 5/1/6 8/2/5 2/1/4
f 8/2/5 5/1/6 9/2/7
f 11/2/10 3/1/9 10/2/8
f 3/1/9 11/2/10 4/1/11
f 12/2/12 4/1/11 11/2/10
f 4/1/11 12/2/12 6/1/13
f 15/3/14 14/3/14 13/3/14
f 14/3/14 15/3/14 16/3/14
f 16/3/14 17/3/14 14/3/14
f 17/3/14 16/3/14 18/3/14
f 7/2/3 20/2/10 19/2/8
f 20/2/10 7/2/3 8/2/5
f 8/2/5 21/2/12 20/2/10
f 21/2/12 8/2/5 9/2/7
f 20/2/10 15/3/9 19/2/8
f 15/3/9 20/2/10 16/3/11
f 21/2/12 16/3/11 20/2/10
f 16/3/11 21/2/12 18/3/13
f 22/2/3 11/2/10 10/2/8
f 11/2/10 22/2/3 23/2/5
f 23/2/5 12/2/12 11/2/10
f 12/2/12 23/2/5 24/2/7
f 14/3/4 22/2/3 13/3/2
f 22/2/3 14/3/4 23/2/5
f 17/3/6 23/2/5 14/3/4
f 23/2/5 17/3/6 24/2/7
f 6/1/1 25/1/1 5/1/1
f 25/1/1 6/1/1 26/1/1
f 26/1/1 27/1/1 25/1/1
f 27/1/1 26/1/1 28/1/1
f 25/1/15 9/2/7 5/1/6
f 9/2/7 25/1/15 29/2/16
f 27/1/17 29/2/16 25/1/15
f 29/2/16 27/1/17 30/2/18
f 31/2/19 6/1/13 12/2/12
f 6/1/13 31/2/19 26/1/20
f 32/2/21 26/1/20 31/2/19
f 26/1/20 32/2/21 28/1/22
f 18/3/14 33/3/14 17/3/14
f 33/3/14 18/3/14 34/3/14
f 34/3/14 35/3/14 33/3/14
f 35/3/14 34/3/14 36/3/14
f 9/2/7 37/2/19 21/2/12
f 37/2/19 9/2/7 29/2/16
f 29/2/16 38/2/21 37/2/19
f 38/2/21 29/2/16 30/2/18
f 37/2/19 18/3/13 21/2/12
f 18/3/13 37/2/19 34/3/20
f 38/2/21 34/3/20 37/2/19
f 34/3/20 38/2/21 36/3/22
f 24/2/7 31/2/19 12/2/12
f 31/2/19 24/2/7 39/2/16
f 39/2/16 32/2/21 31/2/19
f 32/2/21 39/2/16 40/2/18
f 33/3/15 24/2/7 17/3/6
f 24/2/7 33/3/15 39/2/16
f 35/3/17 39/2/16 33/3/15
f 39/2/16 35/3/17 40/2/18
f 28/1/1 41/1/1 27/1/1
f 41/1/1 28/1/1 42/1/1
f 42/1/1 43/1/1 41/1/1
f 43/1/1 42/1/1 44/1/1
f 41/1/23 30/2/18 27/1/17
f 30/2/18 41/1/23 45/2/24
f 43/1/25 45/2/24 41/1/23
f 45/2/24 43/1/25 46/2/26
f 47/2/27 28/1/22 32/2/21
f 28/1/22 47/2/27 42/1/28
f 48/2/29 42/1/28 47/2/27
f 42/1/28 48/2/29 44/1/30
f 36/3/14 49/3/14 35/3/14
f 49/3/14 36/3/14 50/3/14
f 50/3/14 51/3/14 49/3/14
f 51/3/14 50/3/14 52/3/14
f 30/2/18 53/2/27 38/2/21
f 53/2/27 30/2/18 45/2/24
f 45/2/24 54/2/29 53/2/27
f 54/2/29 45/2/24 46/2/26
f 53/2/27 36/3/22 38/2/21
f 36/3/22 53/2/27 50/3/28
f 54/2/29 50/3/28 53/2/27
f 50/3/28 54/2/29 52/3/30
f 40/2/18 47/2/27 32/2/21
f 47/2/27 40/2/18 55/2/24
f 55/2/24 48/2/29 47/2/27
f 48/2/29 55/2/24 56/2/26
f 49/3/23 40/2/18 35/3/17
f 40/2/18 49/3/23 55/2/24
f 51/3/25 55/2/24 49/3/23
f 55/2/24 51/3/25 56/2/26
f 44/1/1 57/1/1 43/1/1
f 57/1/1 44/1/1 58/1/1
f 58/1/1 59/1/1 57/1/1
f 59/1/1 58/1/1 60/1/1
f 57/1/31 46/2/26 43/1/25
f 46/2/26 57/1/31 61/2/32
f 59/1/33 61/2/32 57/1/31
f 61/2/32 59/1/33 62/2/34
f 63/2/35 44/1/30 48/2/29
f 44/1/30 63/2/35 58/1/36
f 64/2/37 58/1/36 63/2/35
f 58/1/36 64/2/37 60/1/38
f 52/3/14 65/3/14 51/3/14
f 65/3/14 52/3/14 66/3/14
f 66/3/14 67/3/14 65/3/14
f 67/3/14 66/3/14 68/3/14
f 46/2/26 69/2/35 54/2/29
f 69/2/35 46/2/26 61/2/32
f 61/2/32 70/2/37 69/2/35
f 70/2/37 61/2/32 62/2/34
f 69/2/35 52/3/30 54/2/29
f 52/3/30 69/2/35 66/3/36
f 70/2/37 66/3/36 69/2/35
f 66/3/36 70/2/37 68/3/38
f 56/2/26 63/2/35 48/2/29
f 63/2/35 56/2/26 71/2/32
f 71/2/32 64/2/37 63/2/35
f 64/2/37 71/2/32 72/2/34
f 65/3/31 56/2/26 51/3/25
f 56/2/26 65/3/31 71/2/32
f 67/3/33 71/2/32 65/3/31
f 71/2/32 67/3/33 72/2/34
f 60/1/1 73/1/1 59/1/1
f 73/1/1 60/1/1 74/1/1
f 74/1/1 75/1/1 73/1/1
f 75/1/1 74/1/1 76/1/1
f 73/1/39 62/2/34 59/1/33
f 62/2/34 73/1/39 77/2/40
f 75/1/41 77/2/40 73/1/39
f 77/2/40 75/1/41 78/2/42
f 79/2/43 60/1/38 64/2/37
f 60/1/38 79/2/43 74/1/44
f 80/2/45 74/1/44 79/2/43
f 74/1/44 80/2/45 76/1/46
f 68/3/14 81/3/14 67/3/14
f 81/3/14 68/3/14 82/3/14
f 82/3/14 83/3/14 81/3/14
f 83/3/14 82/3/14 84/3/14
f 62/2/34 85/2/43 70/2/37
f 85/2/43 62/2/34 77/2/40
f 77/2/40 86/2/45 85/2/43
f 86/2/45 77/2/40 78/2/42
f 85/2/43 68/3/38 70/2/37
f 68/3/38 85/2/43 82/3/44
f 86/2/45 82/3/44 85/2/43
f 82/3/44 86/2/45 84/3/46
f 72/2/34 79/2/43 64/2/37
f 79/2/43 72/2/34 87/2/40
f 87/2/40 80/2/45 79/2/43
f 80/2/45 87/2/40 88/2/42
f 81/3/39 72/2/34 67/3/33
f 72/2/34 81/3/39 87/2/40
f 83/3/41 87/2/40 81/3/39
f 87/2/40 83/3/41 88/2/42
f 91/3/47 90/2/47 89/2/47
f 91/3/47 92/1/47 90/2/47
f 92/1/47 91/3/47 93/1/47
f 94/3/47 93/1/47 91/3/47
f 93/1/47 94/3/47 95/2/47
f 95/2/47 94/3/47 96/2/47
f 99/4/49 98/5/48 97/4/48
f 98/5/48 99/4/49 100/5/49
f 98/5/48 101/4/50 97/4/48
f 101/4/50 98/5/48 102/5/50
f 105/4/1 104/4/1 103/4/1
f 104/4/1 105/4/1 101/4/1
f 101/4/1 105/4/1 97/4/1
f 97/4/1 105/4/1 99/4/1
f 106/4/1 104/4/1 101/4/1
f 106/4/1 107/4/1 104/4/1
f 106/4/1 108/4/1 107/4/1
f 109/4/1 108/4/1 106/4/1
f 110/4/1 108/4/1 109/4/1
f 108/4/1 110/4/1 111/4/1
f 113/5/52 109/4/51 112/5/51
f 109/4/51 113/5/52 110/4/52
f 114/5/53 109/4/51 106/4/53
f 109/4/51 114/5/53 112/5/51
f 115/5/54 110/4/52 113/5/52
f 110/4/52 115/5/54 111/4/54
f 105/4/55 100/5/49 99/4/49
f 100/5/49 105/4/55 116/5/55
f 102/5/50 106/4/53 101/4/50
f 106/4/53 102/5/50 114/5/53
f 108/4/55 117/5/55 107/4/55
f 117/5/55 108/4/55 118/5/55
f 117/5/56 104/4/56 107/4/56
f 104/4/56 117/5/56 119/5/56
f 120/5/54 104/4/54 119/5/54
f 104/4/54 120/5/54 103/4/54
f 116/5/14 98/5/14 100/5/14
f 120/5/14 98/5/14 116/5/14
f 119/5/14 98/5/14 120/5/14
f 119/5/14 102/5/14 98/5/14
f 117/5/14 102/5/14 119/5/14
f 102/5/14 117/5/14 114/5/14
f 118/5/14 114/5/14 117/5/14
f 118/5/14 112/5/14 114/5/14
f 115/5/14 112/5/14 118/5/14
f 112/5/14 115/5/14 113/5/14
f 123/3/56 122/2/56 121/2/56
f 123/3/56 124/1/56 122/2/56
f 124/1/56 123/3/56 125/1/56
f 126/3/56 125/1/56 123/3/56
f 125/1/56 126/3/56 127/2/56
f 127/2/56 126/3/56 128/2/56
f 131/4/58 130/5/57 129/4/57
f 130/5/57 131/4/58 132/5/58
f 130/5/57 133/4/59 129/4/57
f 133/4/59 130/5/57 134/5/59
f 137/4/1 136/4/1 135/4/1
f 136/4/1 137/4/1 133/4/1
f 133/4/1 137/4/1 129/4/1
f 129/4/1 137/4/1 131/4/1
f 138/4/1 136/4/1 133/4/1
f 138/4/1 139/4/1 136/4/1
f 138/4/1 140/4/1 139/4/1
f 141/4/1 140/4/1 138/4/1
f 142/4/1 140/4/1 141/4/1
f 140/4/1 142/4/1 143/4/1
f 145/5/61 141/4/60 144/5/60
f 141/4/60 145/5/61 142/4/61
f 146/5/62 141/4/60 138/4/62
f 141/4/60 146/5/62 144/5/60
f 147/5/63 142/4/61 145/5/61
f 142/4/61 147/5/63 143/4/63
f 137/4/64 132/5/58 131/4/58
f 132/5/58 137/4/64 148/5/64
f 134/5/59 138/4/62 133/4/59
f 138/4/62 134/5/59 146/5/62
f 140/4/64 149/5/64 139/4/64
f 149/5/64 140/4/64 150/5/64
f 149/5/65 136/4/65 139/4/65
f 136/4/65 149/5/65 151/5/65
f 152/5/63 136/4/63 151/5/63
f 136/4/63 152/5/63 135/4/63
f 148/5/14 130/5/14 132/5/14
f 152/5/14 130/5/14 148/5/14
f 151/5/14 130/5/14 152/5/14
f 151/5/14 134/5/14 130/5/14
f 149/5/14 134/5/14 151/5/14
f 134/5/14 149/5/14 146/5/14
f 150/5/14 146/5/14 149/5/14
f 150/5/14 144/5/14 146/5/14
f 147/5/14 144/5/14 150/5/14
f 144/5/14 147/5/14 145/5/14

g track-narrow-curve




usemtl colormap

f 3/1/1 2/1/1 1/1/1
f 2/1/1 3/1/1 4/1/1
f 4/1/1 5/1/1 2/1/1
f 5/1/1 4/1/1 6/1/1
f 2/1/4 7/2/3 1/1/2
f 7/2/3 2/1/4 8/2/5
f 5/1/6 8/2/5 2/1/4
f 8/2/5 5/1/6 9/2/7
f 11/2/10 3/1/9 10/2/8
f 3/1/9 11/2/10 4/1/11
f 12/2/12 4/1/11 11/2/10
f 4/1/11 12/2/12 6/1/13
f 15/3/14 14/3/14 13/3/14
f 14/3/14 15/3/14 16/3/14
f 16/3/14 17/3/14 14/3/14
f 17/3/14 16/3/14 18/3/14
f 7/2/3 20/2/10 19/2/8
f 20/2/10 7/2/3 8/2/5
f 8/2/5 21/2/12 20/2/10
f 21/2/12 8/2/5 9/2/7
f 20/2/10 15/3/9 19/2/8
f 15/3/9 20/2/10 16/3/11
f 21/2/12 16/3/11 20/2/10
f 16/3/11 21/2/12 18/3/13
f 22/2/3 11/2/10 10/2/8
f 11/2/10 22/2/3 23/2/5
f 23/2/5 12/2/12 11/2/10
f 12/2/12 23/2/5 24/2/7
f 14/3/4 22/2/3 13/3/2
f 22/2/3 14/3/4 23/2/5
f 17/3/6 23/2/5 14/3/4
f 23/2/5 17/3/6 24/2/7
f 6/1/1 25/1/1 5/1/1
f 25/1/1 6/1/1 26/1/1
f 26/1/1 27/1/1 25/1/1
f 27/1/1 26/1/1 28/1/1
f 25/1/15 9/2/7 5/1/6
f 9/2/7 25/1/15 29/2/16
f 27/1/17 29/2/16 25/1/15
f 29/2/16 27/1/17 30/2/18
f 31/2/19 6/1/13 12/2/12
f 6/1/13 31/2/19 26/1/20
f 32/2/21 26/1/20 31/2/19
f 26/1/20 32/2/21 28/1/22
f 18/3/14 33/3/14 17/3/14
f 33/3/14 18/3/14 34/3/14
f 34/3/14 35/3/14 33/3/14
f 35/3/14 34/3/14 36/3/14
f 9/2/7 37/2/19 21/2/12
f 37/2/19 9/2/7 29/2/16
f 29/2/16 38/2/21 37/2/19
f 38/2/21 29/2/16 30/2/18
f 37/2/19 18/3/13 21/2/12
f 18/3/13 37/2/19 34/3/20
f 38/2/21 34/3/20 37/2/19
f 34/3/20 38/2/21 36/3/22
f 24/2/7 31/2/19 12/2/12
f 31/2/19 24/2/7 39/2/16
f 39/2/16 32/2/21 31/2/19
f 32/2/21 39/2/16 40/2/18
f 33/3/15 24/2/7 17/3/6
f 24/2/7 33/3/15 39/2/16
f 35/3/17 39/2/16 33/3/15
f 39/2/16 35/3/17 40/2/18
f 28/1/1 41/1/1 27/1/1
f 41/1/1 28/1/1 42/1/1
f 42/1/1 43/1/1 41/1/1
f 43/1/1 42/1/1 44/1/1
f 41/1/23 30/2/18 27/1/17
f 30/2/18 41/1/23 45/2/24
f 43/1/25 45/2/24 41/1/23
f 45/2/24 43/1/25 46/2/26
f 47/2/27 28/1/22 32/2/21
f 28/1/22 47/2/27 42/1/28
f 48/2/29 42/1/28 47/2/27
f 42/1/28 48/2/29 44/1/30
f 36/3/14 49/3/14 35/3/14
f 49/3/14 36/3/14 50/3/14
f 50/3/14 51/3/14 49/3/14
f 51/3/14 50/3/14 52/3/14
f 30/2/18 53/2/27 38/2/21
f 53/2/27 30/2/18 45/2/24
f 45/2/24 54/2/29 53/2/27
f 54/2/29 45/2/24 46/2/26
f 53/2/27 36/3/22 38/2/21
f 36/3/22 53/2/27 50/3/28
f 54/2/29 50/3/28 53/2/27
f 50/3/28 54/2/29 52/3/30
f 40/2/18 47/2/27 32/2/21
f 47/2/27 40/2/18 55/2/24
f 55/2/24 48/2/29 47/2/27
f 48/2/29 55/2/24 56/2/26
f 49/3/23 40/2/18 35/3/17
f 40/2/18 49/3/23 55/2/24
f 51/3/25 55/2/24 49/3/23
f 55/2/24 51/3/25 56/2/26
f 44/1/1 57/1/1 43/1/1
f 57/1/1 44/1/1 58/1/1
f 58/1/1 59/1/1 57/1/1
f 59/1/1 58/1/1 60/1/1
f 57/1/31 46/2/26 43/1/25
f 46/2/26 57/1/31 61/2/32
f 59/1/33 61/2/32 57/1/31
f 61/2/32 59/1/33 62/2/34
f 63/2/35 44/1/30 48/2/29
f 44/1/30 63/2/35 58/1/36
f 64/2/37 58/1/36 63/2/35
f 58/1/36 64/2/37 60/1/38
f 52/3/14 65/3/14 51/3/14
f 65/3/14 52/3/14 66/3/14
f 66/3/14 67/3/14 65/3/14
f 67/3/14 66/3/14 68/3/14
f 46/2/26 69/2/35 54/2/29
f 69/2/35 46/2/26 61/2/32
f 61/2/32 70/2/37 69/2/35
f 70/2/37 61/2/32 62/2/34
f 69/2/35 52/3/30 54/2/29
f 52/3/30 69/2/35 66/3/36
f 70/2/37 66/3/36 69/2/35
f 66/3/36 70/2/37 68/3/38
f 56/2/26 63/2/35 48/2/29
f 63/2/35 56/2/26 71/2/32
f 71/2/32 64/2/37 63/2/35
f 64/2/37 71/2/32 72/2/34
f 65/3/31 56/2/26 51/3/25
f 56/2/26 65/3/31 71/2/32
f 67/3/33 71/2/32 65/3/31
f 71/2/32 67/3/33 72/2/34
f 60/1/1 73/1/1 59/1/1
f 73/1/1 60/1/1 74/1/1
f 74/1/1 75/1/1 73/1/1
f 75/1/1 74/1/1 76/1/1
f 73/1/39 62/2/34 59/1/33
f 62/2/34 73/1/39 77/2/40
f 75/1/41 77/2/40 73/1/39
f 77/2/40 75/1/41 78/2/42
f 79/2/43 60/1/38 64/2/37
f 60/1/38 79/2/43 74/1/44
f 80/2/45 74/1/44 79/2/43
f 74/1/44 80/2/45 76/1/46
f 68/3/14 81/3/14 67/3/14
f 81/3/14 68/3/14 82/3/14
f 82/3/14 83/3/14 81/3/14
f 83/3/14 82/3/14 84/3/14
f 62/2/34 85/2/43 70/2/37
f 85/2/43 62/2/34 77/2/40
f 77/2/40 86/2/45 85/2/43
f 86/2/45 77/2/40 78/2/42
f 85/2/43 68/3/38 70/2/37
f 68/3/38 85/2/43 82/3/44
f 86/2/45 82/3/44 85/2/43
f 82/3/44 86/2/45 84/3/46
f 72/2/34 79/2/43 64/2/37
f 79/2/43 72/2/34 87/2/40
f 87/2/40 80/2/45 79/2/43
f 80/2/45 87/2/40 88/2/42
f 81/3/39 72/2/34 67/3/33
f 72/2/34 81/3/39 87/2/40
f 83/3/41 87/2/40 81/3/39
f 87/2/40 83/3/41 88/2/42
f 91/3/47 90/2/47 89/2/47
f 91/3/47 92/1/47 90/2/47
f 92/1/47 91/3/47 93/1/47
f 94/3/47 93/1/47 91/3/47
f 93/1/47 94/3/47 95/2/47
f 95/2/47 94/3/47 96/2/47
f 99/4/49 98/5/48 97/4/48
f 98/5/48 99/4/49 100/5/49
f 98/5/48 101/4/50 97/4/48
f 101/4/50 98/5/48 102/5/50
f 105/4/1 104/4/1 103/4/1
f 104/4/1 105/4/1 101/4/1
f 101/4/1 105/4/1 97/4/1
f 97/4/1 105/4/1 99/4/1
f 106/4/1 104/4/1 101/4/1
f 106/4/1 107/4/1 104/4/1
f 106/4/1 108/4/1 107/4/1
f 109/4/1 108/4/1 106/4/1
f 110/4/1 108/4/1 109/4/1
f 108/4/1 110/4/1 111/4/1
f 113/5/52 109/4/51 112/5/51
f 109/4/51 113/5/52 110/4/52
f 114/5/53 109/4/51 106/4/53
f 109/4/51 114/5/53 112/5/51
f 115/5/54 110/4/52 113/5/52
f 110/4/52 115/5/54 111/4/54
f 105/4/55 100/5/49 99/4/49
f 100/5/49 105/4/55 116/5/55
f 102/5/50 106/4/53 101/4/50
f 106/4/53 102/5/50 114/5/53
f 108/4/55 117/5/55 107/4/55
f 117/5/55 108/4/55 118/5/55
f 117/5/56 104/4/56 107/4/56
f 104/4/56 117/5/56 119/5/56
f 120/5/54 104/4/54 119/5/54
f 104/4/54 120/5/54 103/4/54
f 116/5/14 98/5/14 100/5/14
f 120/5/14 98/5/14 116/5/14
f 119/5/14 98/5/14 120/5/14
f 119/5/14 102/5/14 98/5/14
f 117/5/14 102/5/14 119/5/14
f 102/5/14 117/5/14 114/5/14
f 118/5/14 114/5/14 117/5/14
f 118/5/14 112/5/14 114/5/14
f 115/5/14 112/5/14 118/5/14
f 112/5/14 115/5/14 113/5/14
f 123/3/56 122/2/56 121/2/56
f 123/3/56 124/1/56 122/2/56
f 124/1/56 123/3/56 125/1/56
f 126/3/56 125/1/56 123/3/56
f 125/1/56 126/3/56 127/2/56
f 127/2/56 126/3/56 128/2/56
f 131/4/58 130/5/57 129/4/57
f 130/5/57 131/4/58 132/5/58
f 130/5/57 133/4/59 129/4/57
f 133/4/59 130/5/57 134/5/59
f 137/4/1 136/4/1 135/4/1
f 136/4/1 137/4/1 133/4/1
f 133/4/1 137/4/1 129/4/1
f 129/4/1 137/4/1 131/4/1
f 138/4/1 136/4/1 133/4/1
f 138/4/1 139/4/1 136/4/1
f 138/4/1 140/4/1 139/4/1
f 141/4/1 140/4/1 138/4/1
f 142/4/1 140/4/1 141/4/1
f 140/4/1 142/4/1 143/4/1
f 145/5/61 141/4/60 144/5/60
f 141/4/60 145/5/61 142/4/61
f 146/5/62 141/4/60 138/4/62
f 141/4/60 146/5/62 144/5/60
f 147/5/63 142/4/61 145/5/61
f 142/4/61 147/5/63 143/4/63
f 137/4/64 132/5/58 131/4/58
f 132/5/58 137/4/64 148/5/64
f 134/5/59 138/4/62 133/4/59
f 138/4/62 134/5/59 146/5/62
f 140/4/64 149/5/64 139/4/64
f 149/5/64 140/4/64 150/5/64
f 149/5/65 136/4/65 139/4/65
f 136/4/65 149/5/65 151/5/65
f 152/5/63 136/4/63 151/5/63
f 136/4/63 152/5/63 135/4/63
f 148/5/14 130/5/14 132/5/14
f 152/5/14 130/5/14 148/5/14
f 151/5/14 130/5/14 152/5/14
f 151/5/14 134/5/14 130/5/14
f 149/5/14 134/5/14 151/5/14
f 134/5/14 149/5/14 146/5/14
f 150/5/14 146/5/14 149/5/14
f 150/5/14 144/5/14 146/5/14
f 147/5/14 144/5/14 150/5/14
f 144/5/14 147/5/14 145/5/14

