# Created by Kenney (www.kenney.nl)

mtllib track-wide-straight-hill-complete.mtl

g track-wide-straight-hill-complete

v -1 0 4.291534E-06 1 1 1
v -1 0.0159961 0.417501 1 1 1
v 1 0 4.291534E-06 1 1 1
v 1 0.0159961 0.417501 1 1 1
v -1 0.07013154 0.8310194 1 1 1
v 1 0.07013154 0.8310194 1 1 1
v -1 0.3 4.291534E-06 1 1 1
v -1 0.3150299 0.3934422 1 1 1
v -1 0.3650624 0.776103 1 1 1
v 1 0.3 4.291534E-06 1 1 1
v 1 0.3150299 0.3934422 1 1 1
v 1 0.3650624 0.776103 1 1 1
v 0.9000001 0.1 4.291534E-06 1 1 1
v 0.9000001 0.115674 0.409481 1 1 1
v -0.9000001 0.1 4.291534E-06 1 1 1
v -0.9000001 0.115674 0.409481 1 1 1
v 0.9000001 0.1684418 0.8127136 1 1 1
v -0.9000001 0.1684418 0.8127136 1 1 1
v -0.9000001 0.3 4.291534E-06 1 1 1
v -0.9000001 0.3150299 0.3934422 1 1 1
v -0.9000001 0.3650624 0.776103 1 1 1
v 0.9000001 0.3 4.291534E-06 1 1 1
v 0.9000001 0.3150299 0.3934422 1 1 1
v 0.9000001 0.3650624 0.776103 1 1 1
v -1 0.1709521 1.235209 1 1 1
v 1 0.1709521 1.235209 1 1 1
v -1 0.3194773 1.624133 1 1 1
v 1 0.3194773 1.624133 1 1 1
v -1 0.4569805 1.144722 1 1 1
v -1 0.5937579 1.502601 1 1 1
v 1 0.4569805 1.144722 1 1 1
v 1 0.5937579 1.502601 1 1 1
v 0.9000001 0.266295 1.205046 1 1 1
v -0.9000001 0.266295 1.205046 1 1 1
v 0.9000001 0.4109042 1.583622 1 1 1
v -0.9000001 0.4109042 1.583622 1 1 1
v -0.9000001 0.4569805 1.144722 1 1 1
v -0.9000001 0.5937579 1.502601 1 1 1
v 0.9000001 0.4569805 1.144722 1 1 1
v 0.9000001 0.5937579 1.502601 1 1 1
v -1 0.5 2 1 1 1
v 1 0.5 2 1 1 1
v -1 0.6805227 2.375867 1 1 1
v 1 0.6805227 2.375867 1 1 1
v -1 0.7683282 1.865836 1 1 1
v -1 0.9548032 2.254334 1 1 1
v 1 0.7683282 1.865836 1 1 1
v 1 0.9548032 2.254334 1 1 1
v 0.9000001 0.5894427 1.955278 1 1 1
v -0.9000001 0.5894427 1.955278 1 1 1
v 0.9000001 0.7719495 2.335356 1 1 1
v -0.9000001 0.7719495 2.335356 1 1 1
v -0.9000001 0.7683282 1.865836 1 1 1
v -0.9000001 0.9548032 2.254334 1 1 1
v 0.9000001 0.7683282 1.865836 1 1 1
v 0.9000001 0.9548032 2.254334 1 1 1
v -1 0.8290479 2.764792 1 1 1
v 1 0.8290479 2.764792 1 1 1
v -1 0.9298685 3.168981 1 1 1
v 1 0.9298685 3.168981 1 1 1
v -1 1.115076 2.674305 1 1 1
v -1 1.224799 3.114065 1 1 1
v 1 1.115076 2.674305 1 1 1
v 1 1.224799 3.114065 1 1 1
v 0.9000001 0.9243908 2.73463 1 1 1
v -0.9000001 0.9243908 2.73463 1 1 1
v 0.9000001 1.028179 3.150676 1 1 1
v -0.9000001 1.028179 3.150676 1 1 1
v -0.9000001 1.115076 2.674305 1 1 1
v -0.9000001 1.224799 3.114065 1 1 1
v 0.9000001 1.115076 2.674305 1 1 1
v 0.9000001 1.224799 3.114065 1 1 1
v -1 0.984004 3.582499 1 1 1
v 1 0.984004 3.582499 1 1 1
v -1 1 3.999996 1 1 1
v 1 1 3.999996 1 1 1
v -1 1.283038 3.558441 1 1 1
v -1 1.3 3.999995 1 1 1
v 1 1.283038 3.558441 1 1 1
v 1 1.3 3.999995 1 1 1
v 0.9000001 1.083682 3.57448 1 1 1
v -0.9000001 1.083682 3.57448 1 1 1
v 0.9000001 1.1 3.999996 1 1 1
v -0.9000001 1.1 3.999996 1 1 1
v -0.9000001 1.283038 3.558441 1 1 1
v -0.9000001 1.3 3.999995 1 1 1
v 0.9000001 1.283038 3.558441 1 1 1
v 0.9000001 1.3 3.999995 1 1 1
v -0.9 0.3 0 1 1 1
v -1 0.3 0 1 1 1
v -0.9 0.1 0 1 1 1
v -1 0 0 1 1 1
v 1 0 0 1 1 1
v 0.9 0.1 0 1 1 1
v 1 0.3 0 1 1 1
v 0.9 0.3 0 1 1 1
v -0.1207107 0 -0.1707107 1 1 1
v -0.1207107 0.05000001 -0.1707107 1 1 1
v -0.15 0 -0.1 1 1 1
v -0.15 0.05000001 -0.1 1 1 1
v -0.05 0 -0.2 1 1 1
v -0.05 0.05000001 -0.2 1 1 1
v -0.05 0 7.219114E-16 1 1 1
v -0.05 0 -0.1 1 1 1
v -0.15 0 1.082867E-15 1 1 1
v 0.05 0 -0.2 1 1 1
v 0.05 0 -0.1 1 1 1
v 0.05 0 3.609557E-16 1 1 1
v 0.1207107 0 -0.1707107 1 1 1
v 0.15 0 -0.1 1 1 1
v 0.15 0 0 1 1 1
v 0.1207107 0.05000001 -0.1707107 1 1 1
v 0.15 0.05000001 -0.1 1 1 1
v 0.05 0.05000001 -0.2 1 1 1
v 0.15 0.05000001 0 1 1 1
v -0.15 0.05000001 1.082867E-15 1 1 1
v 0.05 0.05000001 -0.1 1 1 1
v 0.05 0.05000001 3.609557E-16 1 1 1
v -0.05 0.05000001 -0.1 1 1 1
v -0.05 0.05000001 7.219114E-16 1 1 1
v 0.9 1.3 4 1 1 1
v 1 1.3 4 1 1 1
v 0.9 1.1 4 1 1 1
v 1 1 4 1 1 1
v -1 1 4 1 1 1
v -0.9 1.1 4 1 1 1
v -1 1.3 4 1 1 1
v -0.9 1.3 4 1 1 1
v 0.1207107 1 4.170711 1 1 1
v 0.1207107 1.05 4.170711 1 1 1
v 0.15 1 4.1 1 1 1
v 0.15 1.05 4.1 1 1 1
v 0.05 1 4.2 1 1 1
v 0.05 1.05 4.2 1 1 1
v 0.05 1 4 1 1 1
v 0.05 1 4.1 1 1 1
v 0.15 1 4 1 1 1
v -0.05 1 4.2 1 1 1
v -0.05 1 4.1 1 1 1
v -0.05 1 4 1 1 1
v -0.1207107 1 4.170711 1 1 1
v -0.15 1 4.1 1 1 1
v -0.15 1 4 1 1 1
v -0.1207107 1.05 4.170711 1 1 1
v -0.15 1.05 4.1 1 1 1
v -0.05 1.05 4.2 1 1 1
v -0.15 1.05 4 1 1 1
v 0.15 1.05 4 1 1 1
v -0.05 1.05 4.1 1 1 1
v -0.05 1.05 4 1 1 1
v 0.05 1.05 4.1 1 1 1
v 0.05 1.05 4 1 1 1

vn 0 -1 7.192706E-07
vn 0 -0.9967791 0.08019556
vn 0 -0.9831028 0.1830544
vn -1 0 0
vn -0.7071068 0.7071068 -5.086011E-07
vn -0.7071068 0.7048293 -0.05670682
vn -0.7071068 0.6951586 -0.129439
vn 0.7071068 0.7071068 -5.086011E-07
vn 1 0 0
vn 0.7071068 0.7048293 -0.05670682
vn 0.7071068 0.6951586 -0.129439
vn 0 1 -7.192706E-07
vn 0 0.9967791 -0.08019556
vn 0 0.9831028 -0.1830544
vn 0 -0.9534276 0.301622
vn 0 -0.9142686 0.4051086
vn -0.7071068 0.6741751 -0.213279
vn -0.7071068 0.6464855 -0.286455
vn 0.7071068 0.6741751 -0.213279
vn 0.7071068 0.6464855 -0.286455
vn 0 0.9534276 -0.301622
vn 0 0.9142686 -0.4051086
vn 0 -0.8944272 0.4472136
vn 0 -0.9142686 0.4051087
vn -0.7071068 0.6324555 -0.3162278
vn -0.7071068 0.6464855 -0.2864551
vn 0.7071068 0.6324555 -0.3162278
vn 0.7071068 0.6464855 -0.2864551
vn 0 0.8944272 -0.4472136
vn 0 0.9142686 -0.4051087
vn 0 -0.9534276 0.301622
vn -0.7071068 0.6741751 -0.2132789
vn 0.7071068 0.6741751 -0.2132789
vn 0 0.9534276 -0.301622
vn 0 -0.9967791 0.08019554
vn 0 -1 7.152568E-07
vn -0.7071068 0.7048293 -0.0567068
vn -0.7071068 0.7071068 -5.057629E-07
vn 0.7071068 0.7048293 -0.0567068
vn 0.7071068 0.7071068 -5.057629E-07
vn 0 0.9967791 -0.08019554
vn 0 1 -7.152568E-07
vn 0 0 -1
vn -0.7071068 0 -0.7071068
vn -0.9807853 0 -0.1950903
vn -0.1950903 0 -0.9807853
vn 0 -1 0
vn 0.7071068 0 -0.7071068
vn 0.9807853 0 -0.1950903
vn 0.1950903 0 -0.9807853
vn 0 0 1
vn 0 1 0
vn 0.7071068 0 0.7071068
vn 0.9807853 0 0.1950903
vn 0.1950903 0 0.9807853
vn -0.7071068 0 0.7071068
vn -0.9807853 0 0.1950903
vn -0.1950903 0 0.9807853
vn -1 0 7.21645E-16
vn 1 0 -7.21645E-16
vn -7.21645E-16 0 -1

vt 0.46875 0.275
vt 0.46875 0.475
vt 0.46875 0.3416667
vt 0.71875 0.275
vt 0.71875 0.475

usemtl colormap

f 3/1/1 2/1/2 1/1/1
f 2/1/2 3/1/1 4/1/2
f 4/1/2 5/1/3 2/1/2
f 5/1/3 4/1/2 6/1/3
f 2/1/4 7/2/5 1/1/4
f 7/2/5 2/1/4 8/2/6
f 5/1/4 8/2/6 2/1/4
f 8/2/6 5/1/4 9/2/7
f 11/2/10 3/1/9 10/2/8
f 3/1/9 11/2/10 4/1/9
f 12/2/11 4/1/9 11/2/10
f 4/1/9 12/2/11 6/1/9
f 15/3/12 14/3/13 13/3/12
f 14/3/13 15/3/12 16/3/13
f 16/3/13 17/3/14 14/3/13
f 17/3/14 16/3/13 18/3/14
f 7/2/5 20/2/10 19/2/8
f 20/2/10 7/2/5 8/2/6
f 8/2/6 21/2/11 20/2/10
f 21/2/11 8/2/6 9/2/7
f 20/2/10 15/3/9 19/2/8
f 15/3/9 20/2/10 16/3/9
f 21/2/11 16/3/9 20/2/10
f 16/3/9 21/2/11 18/3/9
f 22/2/5 11/2/10 10/2/8
f 11/2/10 22/2/5 23/2/6
f 23/2/6 12/2/11 11/2/10
f 12/2/11 23/2/6 24/2/7
f 14/3/4 22/2/5 13/3/4
f 22/2/5 14/3/4 23/2/6
f 17/3/4 23/2/6 14/3/4
f 23/2/6 17/3/4 24/2/7
f 6/1/3 25/1/15 5/1/3
f 25/1/15 6/1/3 26/1/15
f 26/1/15 27/1/16 25/1/15
f 27/1/16 26/1/15 28/1/16
f 25/1/4 9/2/7 5/1/4
f 9/2/7 25/1/4 29/2/17
f 27/1/4 29/2/17 25/1/4
f 29/2/17 27/1/4 30/2/18
f 31/2/19 6/1/9 12/2/11
f 6/1/9 31/2/19 26/1/9
f 32/2/20 26/1/9 31/2/19
f 26/1/9 32/2/20 28/1/9
f 18/3/14 33/3/21 17/3/14
f 33/3/21 18/3/14 34/3/21
f 34/3/21 35/3/22 33/3/21
f 35/3/22 34/3/21 36/3/22
f 9/2/7 37/2/19 21/2/11
f 37/2/19 9/2/7 29/2/17
f 29/2/17 38/2/20 37/2/19
f 38/2/20 29/2/17 30/2/18
f 37/2/19 18/3/9 21/2/11
f 18/3/9 37/2/19 34/3/9
f 38/2/20 34/3/9 37/2/19
f 34/3/9 38/2/20 36/3/9
f 24/2/7 31/2/19 12/2/11
f 31/2/19 24/2/7 39/2/17
f 39/2/17 32/2/20 31/2/19
f 32/2/20 39/2/17 40/2/18
f 33/3/4 24/2/7 17/3/4
f 24/2/7 33/3/4 39/2/17
f 35/3/4 39/2/17 33/3/4
f 39/2/17 35/3/4 40/2/18
f 28/1/16 41/1/23 27/1/16
f 41/1/23 28/1/16 42/1/23
f 42/1/23 43/1/24 41/1/23
f 43/1/24 42/1/23 44/1/24
f 41/1/4 30/2/18 27/1/4
f 30/2/18 41/1/4 45/2/25
f 43/1/4 45/2/25 41/1/4
f 45/2/25 43/1/4 46/2/26
f 47/2/27 28/1/9 32/2/20
f 28/1/9 47/2/27 42/1/9
f 48/2/28 42/1/9 47/2/27
f 42/1/9 48/2/28 44/1/9
f 36/3/22 49/3/29 35/3/22
f 49/3/29 36/3/22 50/3/29
f 50/3/29 51/3/30 49/3/29
f 51/3/30 50/3/29 52/3/30
f 30/2/18 53/2/27 38/2/20
f 53/2/27 30/2/18 45/2/25
f 45/2/25 54/2/28 53/2/27
f 54/2/28 45/2/25 46/2/26
f 53/2/27 36/3/9 38/2/20
f 36/3/9 53/2/27 50/3/9
f 54/2/28 50/3/9 53/2/27
f 50/3/9 54/2/28 52/3/9
f 40/2/18 47/2/27 32/2/20
f 47/2/27 40/2/18 55/2/25
f 55/2/25 48/2/28 47/2/27
f 48/2/28 55/2/25 56/2/26
f 49/3/4 40/2/18 35/3/4
f 40/2/18 49/3/4 55/2/25
f 51/3/4 55/2/25 49/3/4
f 55/2/25 51/3/4 56/2/26
f 44/1/24 57/1/31 43/1/24
f 57/1/31 44/1/24 58/1/31
f 58/1/31 59/1/3 57/1/31
f 59/1/3 58/1/31 60/1/3
f 57/1/4 46/2/26 43/1/4
f 46/2/26 57/1/4 61/2/32
f 59/1/4 61/2/32 57/1/4
f 61/2/32 59/1/4 62/2/7
f 63/2/33 44/1/9 48/2/28
f 44/1/9 63/2/33 58/1/9
f 64/2/11 58/1/9 63/2/33
f 58/1/9 64/2/11 60/1/9
f 52/3/30 65/3/34 51/3/30
f 65/3/34 52/3/30 66/3/34
f 66/3/34 67/3/14 65/3/34
f 67/3/14 66/3/34 68/3/14
f 46/2/26 69/2/33 54/2/28
f 69/2/33 46/2/26 61/2/32
f 61/2/32 70/2/11 69/2/33
f 70/2/11 61/2/32 62/2/7
f 69/2/33 52/3/9 54/2/28
f 52/3/9 69/2/33 66/3/9
f 70/2/11 66/3/9 69/2/33
f 66/3/9 70/2/11 68/3/9
f 56/2/26 63/2/33 48/2/28
f 63/2/33 56/2/26 71/2/32
f 71/2/32 64/2/11 63/2/33
f 64/2/11 71/2/32 72/2/7
f 65/3/4 56/2/26 51/3/4
f 56/2/26 65/3/4 71/2/32
f 67/3/4 71/2/32 65/3/4
f 71/2/32 67/3/4 72/2/7
f 60/1/3 73/1/35 59/1/3
f 73/1/35 60/1/3 74/1/35
f 74/1/35 75/1/36 73/1/35
f 75/1/36 74/1/35 76/1/36
f 73/1/4 62/2/7 59/1/4
f 62/2/7 73/1/4 77/2/37
f 75/1/4 77/2/37 73/1/4
f 77/2/37 75/1/4 78/2/38
f 79/2/39 60/1/9 64/2/11
f 60/1/9 79/2/39 74/1/9
f 80/2/40 74/1/9 79/2/39
f 74/1/9 80/2/40 76/1/9
f 68/3/14 81/3/41 67/3/14
f 81/3/41 68/3/14 82/3/41
f 82/3/41 83/3/42 81/3/41
f 83/3/42 82/3/41 84/3/42
f 62/2/7 85/2/39 70/2/11
f 85/2/39 62/2/7 77/2/37
f 77/2/37 86/2/40 85/2/39
f 86/2/40 77/2/37 78/2/38
f 85/2/39 68/3/9 70/2/11
f 68/3/9 85/2/39 82/3/9
f 86/2/40 82/3/9 85/2/39
f 82/3/9 86/2/40 84/3/9
f 72/2/7 79/2/39 64/2/11
f 79/2/39 72/2/7 87/2/37
f 87/2/37 80/2/40 79/2/39
f 80/2/40 87/2/37 88/2/38
f 81/3/4 72/2/7 67/3/4
f 72/2/7 81/3/4 87/2/37
f 83/3/4 87/2/37 81/3/4
f 87/2/37 83/3/4 88/2/38
f 91/3/43 90/2/43 89/2/43
f 91/3/43 92/1/43 90/2/43
f 92/1/43 91/3/43 93/1/43
f 94/3/43 93/1/43 91/3/43
f 93/1/43 94/3/43 95/2/43
f 95/2/43 94/3/43 96/2/43
f 99/4/45 98/5/44 97/4/44
f 98/5/44 99/4/45 100/5/45
f 98/5/44 101/4/46 97/4/44
f 101/4/46 98/5/44 102/5/46
f 105/4/47 104/4/47 103/4/47
f 104/4/47 105/4/47 101/4/47
f 101/4/47 105/4/47 97/4/47
f 97/4/47 105/4/47 99/4/47
f 106/4/47 104/4/47 101/4/47
f 106/4/47 107/4/47 104/4/47
f 106/4/47 108/4/47 107/4/47
f 109/4/47 108/4/47 106/4/47
f 110/4/47 108/4/47 109/4/47
f 108/4/47 110/4/47 111/4/47
f 113/5/49 109/4/48 112/5/48
f 109/4/48 113/5/49 110/4/49
f 114/5/50 109/4/48 106/4/50
f 109/4/48 114/5/50 112/5/48
f 115/5/9 110/4/49 113/5/49
f 110/4/49 115/5/9 111/4/9
f 105/4/4 100/5/45 99/4/45
f 100/5/45 105/4/4 116/5/4
f 102/5/46 106/4/50 101/4/46
f 106/4/50 102/5/46 114/5/50
f 108/4/4 117/5/4 107/4/4
f 117/5/4 108/4/4 118/5/4
f 117/5/51 104/4/51 107/4/51
f 104/4/51 117/5/51 119/5/51
f 120/5/9 104/4/9 119/5/9
f 104/4/9 120/5/9 103/4/9
f 116/5/52 98/5/52 100/5/52
f 120/5/52 98/5/52 116/5/52
f 119/5/52 98/5/52 120/5/52
f 119/5/52 102/5/52 98/5/52
f 117/5/52 102/5/52 119/5/52
f 102/5/52 117/5/52 114/5/52
f 118/5/52 114/5/52 117/5/52
f 118/5/52 112/5/52 114/5/52
f 115/5/52 112/5/52 118/5/52
f 112/5/52 115/5/52 113/5/52
f 123/3/51 122/2/51 121/2/51
f 123/3/51 124/1/51 122/2/51
f 124/1/51 123/3/51 125/1/51
f 126/3/51 125/1/51 123/3/51
f 125/1/51 126/3/51 127/2/51
f 127/2/51 126/3/51 128/2/51
f 131/4/54 130/5/53 129/4/53
f 130/5/53 131/4/54 132/5/54
f 130/5/53 133/4/55 129/4/53
f 133/4/55 130/5/53 134/5/55
f 137/4/47 136/4/47 135/4/47
f 136/4/47 137/4/47 133/4/47
f 133/4/47 137/4/47 129/4/47
f 129/4/47 137/4/47 131/4/47
f 138/4/47 136/4/47 133/4/47
f 138/4/47 139/4/47 136/4/47
f 138/4/47 140/4/47 139/4/47
f 141/4/47 140/4/47 138/4/47
f 142/4/47 140/4/47 141/4/47
f 140/4/47 142/4/47 143/4/47
f 145/5/57 141/4/56 144/5/56
f 141/4/56 145/5/57 142/4/57
f 146/5/58 141/4/56 138/4/58
f 141/4/56 146/5/58 144/5/56
f 147/5/59 142/4/57 145/5/57
f 142/4/57 147/5/59 143/4/59
f 137/4/60 132/5/54 131/4/54
f 132/5/54 137/4/60 148/5/60
f 134/5/55 138/4/58 133/4/55
f 138/4/58 134/5/55 146/5/58
f 140/4/60 149/5/60 139/4/60
f 149/5/60 140/4/60 150/5/60
f 149/5/61 136/4/61 139/4/61
f 136/4/61 149/5/61 151/5/61
f 152/5/59 136/4/59 151/5/59
f 136/4/59 152/5/59 135/4/59
f 148/5/52 130/5/52 132/5/52
f 152/5/52 130/5/52 148/5/52
f 151/5/52 130/5/52 152/5/52
f 151/5/52 134/5/52 130/5/52
f 149/5/52 134/5/52 151/5/52
f 134/5/52 149/5/52 146/5/52
f 150/5/52 146/5/52 149/5/52
f 150/5/52 144/5/52 146/5/52
f 147/5/52 144/5/52 150/5/52
f 144/5/52 147/5/52 145/5/52

g track-wide-straight-hill-complete




usemtl colormap

f 3/1/1 2/1/2 1/1/1
f 2/1/2 3/1/1 4/1/2
f 4/1/2 5/1/3 2/1/2
f 5/1/3 4/1/2 6/1/3
f 2/1/4 7/2/5 1/1/4
f 7/2/5 2/1/4 8/2/6
f 5/1/4 8/2/6 2/1/4
f 8/2/6 5/1/4 9/2/7
f 11/2/10 3/1/9 10/2/8
f 3/1/9 11/2/10 4/1/9
f 12/2/11 4/1/9 11/2/10
f 4/1/9 12/2/11 6/1/9
f 15/3/12 14/3/13 13/3/12
f 14/3/13 15/3/12 16/3/13
f 16/3/13 17/3/14 14/3/13
f 17/3/14 16/3/13 18/3/14
f 7/2/5 20/2/10 19/2/8
f 20/2/10 7/2/5 8/2/6
f 8/2/6 21/2/11 20/2/10
f 21/2/11 8/2/6 9/2/7
f 20/2/10 15/3/9 19/2/8
f 15/3/9 20/2/10 16/3/9
f 21/2/11 16/3/9 20/2/10
f 16/3/9 21/2/11 18/3/9
f 22/2/5 11/2/10 10/2/8
f 11/2/10 22/2/5 23/2/6
f 23/2/6 12/2/11 11/2/10
f 12/2/11 23/2/6 24/2/7
f 14/3/4 22/2/5 13/3/4
f 22/2/5 14/3/4 23/2/6
f 17/3/4 23/2/6 14/3/4
f 23/2/6 17/3/4 24/2/7
f 6/1/3 25/1/15 5/1/3
f 25/1/15 6/1/3 26/1/15
f 26/1/15 27/1/16 25/1/15
f 27/1/16 26/1/15 28/1/16
f 25/1/4 9/2/7 5/1/4
f 9/2/7 25/1/4 29/2/17
f 27/1/4 29/2/17 25/1/4
f 29/2/17 27/1/4 30/2/18
f 31/2/19 6/1/9 12/2/11
f 6/1/9 31/2/19 26/1/9
f 32/2/20 26/1/9 31/2/19
f 26/1/9 32/2/20 28/1/9
f 18/3/14 33/3/21 17/3/14
f 33/3/21 18/3/14 34/3/21
f 34/3/21 35/3/22 33/3/21
f 35/3/22 34/3/21 36/3/22
f 9/2/7 37/2/19 21/2/11
f 37/2/19 9/2/7 29/2/17
f 29/2/17 38/2/20 37/2/19
f 38/2/20 29/2/17 30/2/18
f 37/2/19 18/3/9 21/2/11
f 18/3/9 37/2/19 34/3/9
f 38/2/20 34/3/9 37/2/19
f 34/3/9 38/2/20 36/3/9
f 24/2/7 31/2/19 12/2/11
f 31/2/19 24/2/7 39/2/17
f 39/2/17 32/2/20 31/2/19
f 32/2/20 39/2/17 40/2/18
f 33/3/4 24/2/7 17/3/4
f 24/2/7 33/3/4 39/2/17
f 35/3/4 39/2/17 33/3/4
f 39/2/17 35/3/4 40/2/18
f 28/1/16 41/1/23 27/1/16
f 41/1/23 28/1/16 42/1/23
f 42/1/23 43/1/24 41/1/23
f 43/1/24 42/1/23 44/1/24
f 41/1/4 30/2/18 27/1/4
f 30/2/18 41/1/4 45/2/25
f 43/1/4 45/2/25 41/1/4
f 45/2/25 43/1/4 46/2/26
f 47/2/27 28/1/9 32/2/20
f 28/1/9 47/2/27 42/1/9
f 48/2/28 42/1/9 47/2/27
f 42/1/9 48/2/28 44/1/9
f 36/3/22 49/3/29 35/3/22
f 49/3/29 36/3/22 50/3/29
f 50/3/29 51/3/30 49/3/29
f 51/3/30 50/3/29 52/3/30
f 30/2/18 53/2/27 38/2/20
f 53/2/27 30/2/18 45/2/25
f 45/2/25 54/2/28 53/2/27
f 54/2/28 45/2/25 46/2/26
f 53/2/27 36/3/9 38/2/20
f 36/3/9 53/2/27 50/3/9
f 54/2/28 50/3/9 53/2/27
f 50/3/9 54/2/28 52/3/9
f 40/2/18 47/2/27 32/2/20
f 47/2/27 40/2/18 55/2/25
f 55/2/25 48/2/28 47/2/27
f 48/2/28 55/2/25 56/2/26
f 49/3/4 40/2/18 35/3/4
f 40/2/18 49/3/4 55/2/25
f 51/3/4 55/2/25 49/3/4
f 55/2/25 51/3/4 56/2/26
f 44/1/24 57/1/31 43/1/24
f 57/1/31 44/1/24 58/1/31
f 58/1/31 59/1/3 57/1/31
f 59/1/3 58/1/31 60/1/3
f 57/1/4 46/2/26 43/1/4
f 46/2/26 57/1/4 61/2/32
f 59/1/4 61/2/32 57/1/4
f 61/2/32 59/1/4 62/2/7
f 63/2/33 44/1/9 48/2/28
f 44/1/9 63/2/33 58/1/9
f 64/2/11 58/1/9 63/2/33
f 58/1/9 64/2/11 60/1/9
f 52/3/30 65/3/34 51/3/30
f 65/3/34 52/3/30 66/3/34
f 66/3/34 67/3/14 65/3/34
f 67/3/14 66/3/34 68/3/14
f 46/2/26 69/2/33 54/2/28
f 69/2/33 46/2/26 61/2/32
f 61/2/32 70/2/11 69/2/33
f 70/2/11 61/2/32 62/2/7
f 69/2/33 52/3/9 54/2/28
f 52/3/9 69/2/33 66/3/9
f 70/2/11 66/3/9 69/2/33
f 66/3/9 70/2/11 68/3/9
f 56/2/26 63/2/33 48/2/28
f 63/2/33 56/2/26 71/2/32
f 71/2/32 64/2/11 63/2/33
f 64/2/11 71/2/32 72/2/7
f 65/3/4 56/2/26 51/3/4
f 56/2/26 65/3/4 71/2/32
f 67/3/4 71/2/32 65/3/4
f 71/2/32 67/3/4 72/2/7
f 60/1/3 73/1/35 59/1/3
f 73/1/35 60/1/3 74/1/35
f 74/1/35 75/1/36 73/1/35
f 75/1/36 74/1/35 76/1/36
f 73/1/4 62/2/7 59/1/4
f 62/2/7 73/1/4 77/2/37
f 75/1/4 77/2/37 73/1/4
f 77/2/37 75/1/4 78/2/38
f 79/2/39 60/1/9 64/2/11
f 60/1/9 79/2/39 74/1/9
f 80/2/40 74/1/9 79/2/39
f 74/1/9 80/2/40 76/1/9
f 68/3/14 81/3/41 67/3/14
f 81/3/41 68/3/14 82/3/41
f 82/3/41 83/3/42 81/3/41
f 83/3/42 82/3/41 84/3/42
f 62/2/7 85/2/39 70/2/11
f 85/2/39 62/2/7 77/2/37
f 77/2/37 86/2/40 85/2/39
f 86/2/40 77/2/37 78/2/38
f 85/2/39 68/3/9 70/2/11
f 68/3/9 85/2/39 82/3/9
f 86/2/40 82/3/9 85/2/39
f 82/3/9 86/2/40 84/3/9
f 72/2/7 79/2/39 64/2/11
f 79/2/39 72/2/7 87/2/37
f 87/2/37 80/2/40 79/2/39
f 80/2/40 87/2/37 88/2/38
f 81/3/4 72/2/7 67/3/4
f 72/2/7 81/3/4 87/2/37
f 83/3/4 87/2/37 81/3/4
f 87/2/37 83/3/4 88/2/38
f 91/3/43 90/2/43 89/2/43
f 91/3/43 92/1/43 90/2/43
f 92/1/43 91/3/43 93/1/43
f 94/3/43 93/1/43 91/3/43
f 93/1/43 94/3/43 95/2/43
f 95/2/43 94/3/43 96/2/43
f 99/4/45 98/5/44 97/4/44
f 98/5/44 99/4/45 100/5/45
f 98/5/44 101/4/46 97/4/44
f 101/4/46 98/5/44 102/5/46
f 105/4/47 104/4/47 103/4/47
f 104/4/47 105/4/47 101/4/47
f 101/4/47 105/4/47 97/4/47
f 97/4/47 105/4/47 99/4/47
f 106/4/47 104/4/47 101/4/47
f 106/4/47 107/4/47 104/4/47
f 106/4/47 108/4/47 107/4/47
f 109/4/47 108/4/47 106/4/47
f 110/4/47 108/4/47 109/4/47
f 108/4/47 110/4/47 111/4/47
f 113/5/49 109/4/48 112/5/48
f 109/4/48 113/5/49 110/4/49
f 114/5/50 109/4/48 106/4/50
f 109/4/48 114/5/50 112/5/48
f 115/5/9 110/4/49 113/5/49
f 110/4/49 115/5/9 111/4/9
f 105/4/4 100/5/45 99/4/45
f 100/5/45 105/4/4 116/5/4
f 102/5/46 106/4/50 101/4/46
f 106/4/50 102/5/46 114/5/50
f 108/4/4 117/5/4 107/4/4
f 117/5/4 108/4/4 118/5/4
f 117/5/51 104/4/51 107/4/51
f 104/4/51 117/5/51 119/5/51
f 120/5/9 104/4/9 119/5/9
f 104/4/9 120/5/9 103/4/9
f 116/5/52 98/5/52 100/5/52
f 120/5/52 98/5/52 116/5/52
f 119/5/52 98/5/52 120/5/52
f 119/5/52 102/5/52 98/5/52
f 117/5/52 102/5/52 119/5/52
f 102/5/52 117/5/52 114/5/52
f 118/5/52 114/5/52 117/5/52
f 118/5/52 112/5/52 114/5/52
f 115/5/52 112/5/52 118/5/52
f 112/5/52 115/5/52 113/5/52
f 123/3/51 122/2/51 121/2/51
f 123/3/51 124/1/51 122/2/51
f 124/1/51 123/3/51 125/1/51
f 126/3/51 125/1/51 123/3/51
f 125/1/51 126/3/51 127/2/51
f 127/2/51 126/3/51 128/2/51
f 131/4/54 130/5/53 129/4/53
f 130/5/53 131/4/54 132/5/54
f 130/5/53 133/4/55 129/4/53
f 133/4/55 130/5/53 134/5/55
f 137/4/47 136/4/47 135/4/47
f 136/4/47 137/4/47 133/4/47
f 133/4/47 137/4/47 129/4/47
f 129/4/47 137/4/47 131/4/47
f 138/4/47 136/4/47 133/4/47
f 138/4/47 139/4/47 136/4/47
f 138/4/47 140/4/47 139/4/47
f 141/4/47 140/4/47 138/4/47
f 142/4/47 140/4/47 141/4/47
f 140/4/47 142/4/47 143/4/47
f 145/5/57 141/4/56 144/5/56
f 141/4/56 145/5/57 142/4/57
f 146/5/58 141/4/56 138/4/58
f 141/4/56 146/5/58 144/5/56
f 147/5/59 142/4/57 145/5/57
f 142/4/57 147/5/59 143/4/59
f 137/4/60 132/5/54 131/4/54
f 132/5/54 137/4/60 148/5/60
f 134/5/55 138/4/58 133/4/55
f 138/4/58 134/5/55 146/5/58
f 140/4/60 149/5/60 139/4/60
f 149/5/60 140/4/60 150/5/60
f 149/5/61 136/4/61 139/4/61
f 136/4/61 149/5/61 151/5/61
f 152/5/59 136/4/59 151/5/59
f 136/4/59 152/5/59 135/4/59
f 148/5/52 130/5/52 132/5/52
f 152/5/52 130/5/52 148/5/52
f 151/5/52 130/5/52 152/5/52
f 151/5/52 134/5/52 130/5/52
f 149/5/52 134/5/52 151/5/52
f 134/5/52 149/5/52 146/5/52
f 150/5/52 146/5/52 149/5/52
f 150/5/52 144/5/52 146/5/52
f 147/5/52 144/5/52 150/5/52
f 144/5/52 147/5/52 145/5/52

