# Created by Kenney (www.kenney.nl)

mtllib track-striped-narrow-straight-hill-beginning.mtl

g track-striped-narrow-straight-hill-beginning

v 0.5 0.01978076 0.8442373 1 1 1
v 0.5 0.004638791 0.4221988 1 1 1
v -0.5 0.01972961 0.8442397 1 1 1
v -0.5 0.004613876 0.4221992 1 1 1
v -0.5000076 0.3045373 0.4154177 1 1 1
v -0.5000153 0.3193555 0.8292613 1 1 1
v 0.3999977 0.1046108 0.4199386 1 1 1
v 0.3999929 0.3045597 0.4154172 1 1 1
v 0.3999949 0.119651 0.8392444 1 1 1
v 0.3999844 0.3194015 0.8292589 1 1 1
v -0.4000072 0.3045397 0.4154177 1 1 1
v -0.4000158 0.3193606 0.8292608 1 1 1
v 0.4999924 0.3045621 0.4154172 1 1 1
v 0.4999847 0.3194066 0.8292589 1 1 1
v -0.4000025 0.1045908 0.419939 1 1 1
v -0.4000053 0.11961 0.8392467 1 1 1
v 0.5 0 4.291534E-06 1 1 1
v -0.5 0 4.291534E-06 1 1 1
v 0.3999996 0.1 4.291534E-06 1 1 1
v 0.3999996 0.3 4.291534E-06 1 1 1
v 0.5 0.3 4.291534E-06 1 1 1
v -0.3999996 0.1 4.291534E-06 1 1 1
v -0.5 0.3 4.291534E-06 1 1 1
v -0.3999996 0.3 4.291534E-06 1 1 1
v 0.5 0.09122491 1.684825 1 1 1
v 0.5 0.04766989 1.265343 1 1 1
v -0.5 0.09111679 1.684839 1 1 1
v -0.5 0.04759097 1.265349 1 1 1
v -0.5000238 0.3465478 1.240353 1 1 1
v -0.5000324 0.3887765 1.647439 1 1 1
v 0.399992 0.1473143 1.257011 1 1 1
v 0.3999767 0.3466189 1.240347 1 1 1
v 0.3999891 0.190434 1.67236 1 1 1
v 0.3999672 0.3888738 1.647428 1 1 1
v -0.4000235 0.3465557 1.240353 1 1 1
v -0.400033 0.3887873 1.647438 1 1 1
v 0.4999762 0.3466268 1.240346 1 1 1
v 0.4999676 0.3888845 1.647426 1 1 1
v -0.4000082 0.1472511 1.257017 1 1 1
v -0.4000111 0.1903476 1.672371 1 1 1
v 0.5 0.2423444 2.514846 1 1 1
v 0.5 0.1543936 2.102079 1 1 1
v -0.5 0.2421744 2.514888 1 1 1
v -0.5 0.1542549 2.102104 1 1 1
v -0.500042 0.4495384 2.049116 1 1 1
v -0.5000525 0.5332042 2.442076 1 1 1
v 0.3999863 0.2528075 2.084419 1 1 1
v 0.3999577 0.449663 2.049093 1 1 1
v 0.3999825 0.3393373 2.490579 1 1 1
v 0.3999472 0.5333573 2.442038 1 1 1
v -0.4000425 0.4495522 2.049113 1 1 1
v -0.400053 0.5332212 2.442072 1 1 1
v 0.499958 0.449677 2.049091 1 1 1
v 0.4999475 0.5333743 2.442034 1 1 1
v -0.4000139 0.2526966 2.084439 1 1 1
v -0.4000177 0.3392013 2.490613 1 1 1
v 0.5 0.5217741 3.309648 1 1 1
v 0.5 0.3618405 2.919265 1 1 1
v -0.5 0.5215456 3.309758 1 1 1
v -0.5 0.3616395 2.919335 1 1 1
v -0.5000639 0.6451238 2.821168 1 1 1
v -0.5000763 0.7917479 3.17941 1 1 1
v 0.3999786 0.4563152 2.88655 1 1 1
v 0.3999357 0.6453047 2.821106 1 1 1
v 0.3999748 0.6118187 3.26621 1 1 1
v 0.3999243 0.7919534 3.179311 1 1 1
v -0.4000635 0.6451439 2.821161 1 1 1
v -0.4000759 0.7917707 3.179399 1 1 1
v 0.4999361 0.6453248 2.821099 1 1 1
v 0.4999237 0.7919763 3.1793 1 1 1
v -0.4000216 0.4561543 2.886606 1 1 1
v -0.4000254 0.6116359 3.266298 1 1 1
v 0.5 0.9999969 3.999997 1 1 1
v 0.5 0.731788 3.67494 1 1 1
v -0.5 0.9999969 3.999997 1 1 1
v -0.5 0.7315422 3.675108 1 1 1
v -0.5000896 0.9791285 3.505694 1 1 1
v -0.5 1.212129 3.787865 1 1 1
v 0.3999701 0.8142922 3.618485 1 1 1
v 0.3999109 0.9793497 3.505543 1 1 1
v 0.3999996 1.070708 3.929286 1 1 1
v 0.3999996 1.212129 3.787865 1 1 1
v -0.4000893 0.979153 3.505677 1 1 1
v -0.3999996 1.212129 3.787865 1 1 1
v 0.4999104 0.9793743 3.505526 1 1 1
v 0.5 1.212129 3.787865 1 1 1
v -0.4000301 0.8140955 3.61862 1 1 1
v -0.3999996 1.070708 3.929286 1 1 1
v -0.4 0.3 0 1 1 1
v -0.5 0.3 0 1 1 1
v -0.4 0.1 0 1 1 1
v -0.5 0 0 1 1 1
v 0.5 0 0 1 1 1
v 0.4 0.1 0 1 1 1
v 0.5 0.3 0 1 1 1
v 0.4 0.3 0 1 1 1
v -0.1207107 0 -0.1707107 1 1 1
v -0.1207107 0.05000001 -0.1707107 1 1 1
v -0.15 0 -0.1 1 1 1
v -0.15 0.05000001 -0.1 1 1 1
v -0.05 0 -0.2 1 1 1
v -0.05 0.05000001 -0.2 1 1 1
v -0.05 0 7.219114E-16 1 1 1
v -0.05 0 -0.1 1 1 1
v -0.15 0 1.082867E-15 1 1 1
v 0.05 0 -0.2 1 1 1
v 0.05 0 -0.1 1 1 1
v 0.05 0 3.609557E-16 1 1 1
v 0.1207107 0 -0.1707107 1 1 1
v 0.15 0 -0.1 1 1 1
v 0.15 0 0 1 1 1
v 0.1207107 0.05000001 -0.1707107 1 1 1
v 0.15 0.05000001 -0.1 1 1 1
v 0.05 0.05000001 -0.2 1 1 1
v 0.15 0.05000001 0 1 1 1
v -0.15 0.05000001 1.082867E-15 1 1 1
v 0.05 0.05000001 -0.1 1 1 1
v 0.05 0.05000001 3.609557E-16 1 1 1
v -0.05 0.05000001 -0.1 1 1 1
v -0.05 0.05000001 7.219114E-16 1 1 1
v 0.4 1.212132 3.787868 1 1 1
v 0.5 1.212132 3.787868 1 1 1
v 0.4 1.070711 3.929289 1 1 1
v 0.5 1 4 1 1 1
v -0.5 1 4 1 1 1
v -0.4 1.070711 3.929289 1 1 1
v -0.5 1.212132 3.787868 1 1 1
v -0.4 1.212132 3.787868 1 1 1
v 0.1207107 1.120711 4.120711 1 1 1
v 0.1207107 1.156066 4.085355 1 1 1
v 0.15 1.070711 4.070711 1 1 1
v 0.15 1.106066 4.035356 1 1 1
v 0.05 1.141421 4.141421 1 1 1
v 0.05 1.176777 4.106066 1 1 1
v 0.05 1 4 1 1 1
v 0.05 1.070711 4.070711 1 1 1
v 0.15 1 4 1 1 1
v -0.05 1.141421 4.141421 1 1 1
v -0.05 1.070711 4.070711 1 1 1
v -0.05 1 4 1 1 1
v -0.1207107 1.120711 4.120711 1 1 1
v -0.15 1.070711 4.070711 1 1 1
v -0.15 1 4 1 1 1
v -0.1207107 1.156066 4.085355 1 1 1
v -0.15 1.106066 4.035356 1 1 1
v -0.05 1.176777 4.106066 1 1 1
v -0.15 1.035355 3.964645 1 1 1
v 0.15 1.035355 3.964645 1 1 1
v -0.05 1.106066 4.035356 1 1 1
v -0.05 1.035355 3.964645 1 1 1
v 0.05 1.106066 4.035356 1 1 1
v 0.05 1.035355 3.964645 1 1 1

vn 5.125063E-05 -0.9987528 0.04992803
vn 2.492945E-05 -0.9997445 0.02260518
vn -1 -2.492308E-05 5.635346E-07
vn -0.7071244 0.7069085 -0.01598388
vn -1 -5.118671E-05 2.558842E-06
vn -0.707143 0.7061887 -0.03530264
vn 0.7070891 0.7069438 -0.01598467
vn 0.7070705 0.7062611 -0.03530626
vn 1 2.492308E-05 -5.635346E-07
vn 1 5.118671E-05 -2.558842E-06
vn -2.492945E-05 0.9997445 -0.02260518
vn -5.125063E-05 0.9987528 -0.04992803
vn 2.458389E-10 -1 2.085473E-07
vn -1 -2.458389E-10 5.126905E-17
vn -0.7071068 0.7071068 -1.474652E-07
vn 0.7071068 0.7071068 -1.474652E-07
vn 1 2.458389E-10 -5.126905E-17
vn -2.458389E-10 1 -2.085473E-07
vn 0.0001088868 -0.9921989 0.124665
vn 7.91515E-05 -0.9965228 0.08332065
vn -1 -7.887628E-05 6.594954E-06
vn -0.7071627 0.7045922 -0.05891193
vn -1 -0.0001080373 1.357437E-05
vn -0.7071838 0.7015141 -0.08814187
vn 0.7070508 0.7047037 -0.05892126
vn 0.7070298 0.701667 -0.08816105
vn 1 7.887628E-05 -6.594954E-06
vn 1 0.0001080373 -1.357437E-05
vn -7.91515E-05 0.9965228 -0.08332065
vn -0.0001088868 0.9921989 -0.124665
vn 0.0001753042 -0.9700996 0.242707
vn 0.0001408135 -0.984278 0.1766264
vn -1 -0.0001385997 2.487139E-05
vn -0.7072063 0.6958916 -0.1248762
vn -1 -0.0001700625 4.254756E-05
vn -0.7072307 0.6858438 -0.1715897
vn 0.7070072 0.6960876 -0.1249113
vn 0.7069828 0.6860843 -0.1716498
vn 1 0.0001385997 -2.487139E-05
vn 1 0.0001700625 -4.254756E-05
vn -0.0001408135 0.984278 -0.1766264
vn -0.0001753042 0.9700996 -0.242707
vn 0.0002536295 -0.9006742 0.434495
vn 0.000212767 -0.9449477 0.3272212
vn -1 -0.0002010537 6.962188E-05
vn -0.7072572 0.6680368 -0.2313311
vn -0.9999999 -0.0002284376 0.0001102008
vn -0.7072861 0.6367113 -0.3071564
vn 0.7069563 0.6683211 -0.2314296
vn 0.7069274 0.6370343 -0.3073123
vn 1 0.0002010537 -6.962188E-05
vn 0.9999999 0.0002284376 -0.0001102008
vn -0.000212767 0.9449477 -0.3272212
vn -0.0002536295 0.9006742 -0.434495
vn 1.539572E-08 -0.707108 0.7071056
vn 0.0002978957 -0.8252874 0.5647129
vn -0.9999999 -0.0002458496 0.0001682256
vn -0.7073174 0.5833925 -0.3991933
vn -1 -1.088644E-08 1.08864E-08
vn -0.7071068 0.5000009 -0.4999991
vn 0.7068961 0.5837401 -0.3994312
vn 0.7071068 0.5000009 -0.4999991
vn 0.9999999 0.0002458496 -0.0001682256
vn 1 1.088644E-08 -1.08864E-08
vn -0.0002978957 0.8252874 -0.5647129
vn -1.539572E-08 0.707108 -0.7071056
vn 0 0 -1
vn -0.7071068 0 -0.7071068
vn -0.9807853 0 -0.1950903
vn -0.1950903 0 -0.9807853
vn 0 -1 0
vn 0.7071068 0 -0.7071068
vn 0.9807853 0 -0.1950903
vn 0.1950903 0 -0.9807853
vn 1 0 0
vn -1 0 0
vn 0 0 1
vn 0 1 0
vn 0 0.7071068 0.7071067
vn 0.7071068 0.5 0.4999999
vn 0.9807853 0.1379497 0.1379497
vn 0.1950903 0.6935199 0.6935198
vn 1.551507E-09 -0.7071067 0.7071068
vn -0.7071068 0.5 0.4999999
vn -0.9807853 0.1379497 0.1379497
vn -0.1950903 0.6935199 0.6935198
vn -1 -1.09708E-09 1.097082E-09
vn 1 1.09708E-09 -1.097082E-09
vn -7.21645E-16 -0.7071068 -0.7071067
vn -1.551507E-09 0.7071067 -0.7071068

vt 0.59375 0.275
vt 0.59375 0.475
vt 0.59375 0.3416667
vt 0.59375 0.025
vt 0.59375 0.09166666
vt 0.59375 0.225
vt 0.34375 0.025
vt 0.34375 0.225

usemtl colormap

f 3/1/1 2/1/2 1/1/1
f 2/1/2 3/1/1 4/1/2
f 3/1/5 5/2/4 4/1/3
f 5/2/4 3/1/5 6/2/6
f 9/3/5 8/2/4 7/3/3
f 8/2/4 9/3/5 10/2/6
f 5/2/4 12/2/8 11/2/7
f 12/2/8 5/2/4 6/2/6
f 8/2/4 14/2/8 13/2/7
f 14/2/8 8/2/4 10/2/6
f 12/2/8 15/3/9 11/2/7
f 15/3/9 12/2/8 16/3/10
f 14/2/8 2/1/9 13/2/7
f 2/1/9 14/2/8 1/1/10
f 15/3/11 9/3/12 7/3/11
f 9/3/12 15/3/11 16/3/12
f 4/4/2 17/4/13 2/4/2
f 17/4/13 4/4/2 18/4/13
f 7/5/3 20/6/15 19/5/14
f 20/6/15 7/5/3 8/6/4
f 13/6/7 20/6/15 8/6/4
f 20/6/15 13/6/7 21/6/16
f 13/6/7 17/4/17 21/6/16
f 17/4/17 13/6/7 2/4/9
f 22/5/18 7/5/11 19/5/18
f 7/5/11 22/5/18 15/5/11
f 4/4/3 23/6/15 18/4/14
f 23/6/15 4/4/3 5/6/4
f 11/6/7 23/6/15 5/6/4
f 23/6/15 11/6/7 24/6/16
f 11/6/7 22/5/17 24/6/16
f 22/5/17 11/6/7 15/5/9
f 27/1/19 26/1/20 25/1/19
f 26/1/20 27/1/19 28/1/20
f 27/1/23 29/2/22 28/1/21
f 29/2/22 27/1/23 30/2/24
f 33/3/23 32/2/22 31/3/21
f 32/2/22 33/3/23 34/2/24
f 29/2/22 36/2/26 35/2/25
f 36/2/26 29/2/22 30/2/24
f 32/2/22 38/2/26 37/2/25
f 38/2/26 32/2/22 34/2/24
f 36/2/26 39/3/27 35/2/25
f 39/3/27 36/2/26 40/3/28
f 38/2/26 26/1/27 37/2/25
f 26/1/27 38/2/26 25/1/28
f 39/3/29 33/3/30 31/3/29
f 33/3/30 39/3/29 40/3/30
f 28/4/20 1/4/1 26/4/20
f 1/4/1 28/4/20 3/4/1
f 31/5/21 10/6/6 9/5/5
f 10/6/6 31/5/21 32/6/22
f 37/6/25 10/6/6 32/6/22
f 10/6/6 37/6/25 14/6/8
f 37/6/25 1/4/10 14/6/8
f 1/4/10 37/6/25 26/4/27
f 16/5/12 31/5/29 9/5/12
f 31/5/29 16/5/12 39/5/29
f 28/4/21 6/6/6 3/4/5
f 6/6/6 28/4/21 29/6/22
f 35/6/25 6/6/6 29/6/22
f 6/6/6 35/6/25 12/6/8
f 35/6/25 16/5/10 12/6/8
f 16/5/10 35/6/25 39/5/27
f 43/1/31 42/1/32 41/1/31
f 42/1/32 43/1/31 44/1/32
f 43/1/35 45/2/34 44/1/33
f 45/2/34 43/1/35 46/2/36
f 49/3/35 48/2/34 47/3/33
f 48/2/34 49/3/35 50/2/36
f 45/2/34 52/2/38 51/2/37
f 52/2/38 45/2/34 46/2/36
f 48/2/34 54/2/38 53/2/37
f 54/2/38 48/2/34 50/2/36
f 52/2/38 55/3/39 51/2/37
f 55/3/39 52/2/38 56/3/40
f 54/2/38 42/1/39 53/2/37
f 42/1/39 54/2/38 41/1/40
f 55/3/41 49/3/42 47/3/41
f 49/3/42 55/3/41 56/3/42
f 44/4/32 25/4/19 42/4/32
f 25/4/19 44/4/32 27/4/19
f 47/5/33 34/6/24 33/5/23
f 34/6/24 47/5/33 48/6/34
f 53/6/37 34/6/24 48/6/34
f 34/6/24 53/6/37 38/6/26
f 53/6/37 25/4/28 38/6/26
f 25/4/28 53/6/37 42/4/39
f 40/5/30 47/5/41 33/5/30
f 47/5/41 40/5/30 55/5/41
f 44/4/33 30/6/24 27/4/23
f 30/6/24 44/4/33 45/6/34
f 51/6/37 30/6/24 45/6/34
f 30/6/24 51/6/37 36/6/26
f 51/6/37 40/5/28 36/6/26
f 40/5/28 51/6/37 55/5/39
f 59/1/43 58/1/44 57/1/43
f 58/1/44 59/1/43 60/1/44
f 59/1/47 61/2/46 60/1/45
f 61/2/46 59/1/47 62/2/48
f 65/3/47 64/2/46 63/3/45
f 64/2/46 65/3/47 66/2/48
f 61/2/46 68/2/50 67/2/49
f 68/2/50 61/2/46 62/2/48
f 64/2/46 70/2/50 69/2/49
f 70/2/50 64/2/46 66/2/48
f 68/2/50 71/3/51 67/2/49
f 71/3/51 68/2/50 72/3/52
f 70/2/50 58/1/51 69/2/49
f 58/1/51 70/2/50 57/1/52
f 71/3/53 65/3/54 63/3/53
f 65/3/54 71/3/53 72/3/54
f 60/4/44 41/4/31 58/4/44
f 41/4/31 60/4/44 43/4/31
f 63/5/45 50/6/36 49/5/35
f 50/6/36 63/5/45 64/6/46
f 69/6/49 50/6/36 64/6/46
f 50/6/36 69/6/49 54/6/38
f 69/6/49 41/4/40 54/6/38
f 41/4/40 69/6/49 58/4/51
f 56/5/42 63/5/53 49/5/42
f 63/5/53 56/5/42 71/5/53
f 60/4/45 46/6/36 43/4/35
f 46/6/36 60/4/45 61/6/46
f 67/6/49 46/6/36 61/6/46
f 46/6/36 67/6/49 52/6/38
f 67/6/49 56/5/40 52/6/38
f 56/5/40 67/6/49 71/5/51
f 75/1/55 74/1/56 73/1/55
f 74/1/56 75/1/55 76/1/56
f 75/1/59 77/2/58 76/1/57
f 77/2/58 75/1/59 78/2/60
f 81/3/59 80/2/58 79/3/57
f 80/2/58 81/3/59 82/2/60
f 77/2/58 84/2/62 83/2/61
f 84/2/62 77/2/58 78/2/60
f 80/2/58 86/2/62 85/2/61
f 86/2/62 80/2/58 82/2/60
f 84/2/62 87/3/63 83/2/61
f 87/3/63 84/2/62 88/3/64
f 86/2/62 74/1/63 85/2/61
f 74/1/63 86/2/62 73/1/64
f 87/3/65 81/3/66 79/3/65
f 81/3/66 87/3/65 88/3/66
f 76/4/56 57/4/43 74/4/56
f 57/4/43 76/4/56 59/4/43
f 79/5/57 66/6/48 65/5/47
f 66/6/48 79/5/57 80/6/58
f 85/6/61 66/6/48 80/6/58
f 66/6/48 85/6/61 70/6/50
f 85/6/61 57/4/52 70/6/50
f 57/4/52 85/6/61 74/4/63
f 72/5/54 79/5/65 65/5/54
f 79/5/65 72/5/54 87/5/65
f 76/4/57 62/6/48 59/4/47
f 62/6/48 76/4/57 77/6/58
f 83/6/61 62/6/48 77/6/58
f 62/6/48 83/6/61 68/6/50
f 83/6/61 72/5/52 68/6/50
f 72/5/52 83/6/61 87/5/63
f 91/5/67 90/6/67 89/6/67
f 91/5/67 92/4/67 90/6/67
f 92/4/67 91/5/67 93/4/67
f 94/5/67 93/4/67 91/5/67
f 93/4/67 94/5/67 95/6/67
f 95/6/67 94/5/67 96/6/67
f 99/7/69 98/8/68 97/7/68
f 98/8/68 99/7/69 100/8/69
f 98/8/68 101/7/70 97/7/68
f 101/7/70 98/8/68 102/8/70
f 105/7/71 104/7/71 103/7/71
f 104/7/71 105/7/71 101/7/71
f 101/7/71 105/7/71 97/7/71
f 97/7/71 105/7/71 99/7/71
f 106/7/71 104/7/71 101/7/71
f 106/7/71 107/7/71 104/7/71
f 106/7/71 108/7/71 107/7/71
f 109/7/71 108/7/71 106/7/71
f 110/7/71 108/7/71 109/7/71
f 108/7/71 110/7/71 111/7/71
f 113/8/73 109/7/72 112/8/72
f 109/7/72 113/8/73 110/7/73
f 114/8/74 109/7/72 106/7/74
f 109/7/72 114/8/74 112/8/72
f 115/8/75 110/7/73 113/8/73
f 110/7/73 115/8/75 111/7/75
f 105/7/76 100/8/69 99/7/69
f 100/8/69 105/7/76 116/8/76
f 102/8/70 106/7/74 101/7/70
f 106/7/74 102/8/70 114/8/74
f 108/7/76 117/8/76 107/7/76
f 117/8/76 108/7/76 118/8/76
f 117/8/77 104/7/77 107/7/77
f 104/7/77 117/8/77 119/8/77
f 120/8/75 104/7/75 119/8/75
f 104/7/75 120/8/75 103/7/75
f 116/8/78 98/8/78 100/8/78
f 120/8/78 98/8/78 116/8/78
f 119/8/78 98/8/78 120/8/78
f 119/8/78 102/8/78 98/8/78
f 117/8/78 102/8/78 119/8/78
f 102/8/78 117/8/78 114/8/78
f 118/8/78 114/8/78 117/8/78
f 118/8/78 112/8/78 114/8/78
f 115/8/78 112/8/78 118/8/78
f 112/8/78 115/8/78 113/8/78
f 123/3/79 122/2/79 121/2/79
f 123/3/79 124/1/79 122/2/79
f 124/1/79 123/3/79 125/1/79
f 126/3/79 125/1/79 123/3/79
f 125/1/79 126/3/79 127/2/79
f 127/2/79 126/3/79 128/2/79
f 131/7/81 130/8/80 129/7/80
f 130/8/80 131/7/81 132/8/81
f 130/8/80 133/7/82 129/7/80
f 133/7/82 130/8/80 134/8/82
f 137/7/83 136/7/83 135/7/83
f 136/7/83 137/7/83 133/7/83
f 133/7/83 137/7/83 129/7/83
f 129/7/83 137/7/83 131/7/83
f 138/7/83 136/7/83 133/7/83
f 138/7/83 139/7/83 136/7/83
f 138/7/83 140/7/83 139/7/83
f 141/7/83 140/7/83 138/7/83
f 142/7/83 140/7/83 141/7/83
f 140/7/83 142/7/83 143/7/83
f 145/8/85 141/7/84 144/8/84
f 141/7/84 145/8/85 142/7/85
f 146/8/86 141/7/84 138/7/86
f 141/7/84 146/8/86 144/8/84
f 147/8/87 142/7/85 145/8/85
f 142/7/85 147/8/87 143/7/87
f 137/7/88 132/8/81 131/7/81
f 132/8/81 137/7/88 148/8/88
f 134/8/82 138/7/86 133/7/82
f 138/7/86 134/8/82 146/8/86
f 140/7/88 149/8/88 139/7/88
f 149/8/88 140/7/88 150/8/88
f 149/8/89 136/7/89 139/7/89
f 136/7/89 149/8/89 151/8/89
f 152/8/87 136/7/87 151/8/87
f 136/7/87 152/8/87 135/7/87
f 148/8/90 130/8/90 132/8/90
f 152/8/90 130/8/90 148/8/90
f 151/8/90 130/8/90 152/8/90
f 151/8/90 134/8/90 130/8/90
f 149/8/90 134/8/90 151/8/90
f 134/8/90 149/8/90 146/8/90
f 150/8/90 146/8/90 149/8/90
f 150/8/90 144/8/90 146/8/90
f 147/8/90 144/8/90 150/8/90
f 144/8/90 147/8/90 145/8/90

g track-striped-narrow-straight-hill-beginning




usemtl colormap

f 3/1/1 2/1/2 1/1/1
f 2/1/2 3/1/1 4/1/2
f 3/1/5 5/2/4 4/1/3
f 5/2/4 3/1/5 6/2/6
f 9/3/5 8/2/4 7/3/3
f 8/2/4 9/3/5 10/2/6
f 5/2/4 12/2/8 11/2/7
f 12/2/8 5/2/4 6/2/6
f 8/2/4 14/2/8 13/2/7
f 14/2/8 8/2/4 10/2/6
f 12/2/8 15/3/9 11/2/7
f 15/3/9 12/2/8 16/3/10
f 14/2/8 2/1/9 13/2/7
f 2/1/9 14/2/8 1/1/10
f 15/3/11 9/3/12 7/3/11
f 9/3/12 15/3/11 16/3/12
f 4/4/2 17/4/13 2/4/2
f 17/4/13 4/4/2 18/4/13
f 7/5/3 20/6/15 19/5/14
f 20/6/15 7/5/3 8/6/4
f 13/6/7 20/6/15 8/6/4
f 20/6/15 13/6/7 21/6/16
f 13/6/7 17/4/17 21/6/16
f 17/4/17 13/6/7 2/4/9
f 22/5/18 7/5/11 19/5/18
f 7/5/11 22/5/18 15/5/11
f 4/4/3 23/6/15 18/4/14
f 23/6/15 4/4/3 5/6/4
f 11/6/7 23/6/15 5/6/4
f 23/6/15 11/6/7 24/6/16
f 11/6/7 22/5/17 24/6/16
f 22/5/17 11/6/7 15/5/9
f 27/1/19 26/1/20 25/1/19
f 26/1/20 27/1/19 28/1/20
f 27/1/23 29/2/22 28/1/21
f 29/2/22 27/1/23 30/2/24
f 33/3/23 32/2/22 31/3/21
f 32/2/22 33/3/23 34/2/24
f 29/2/22 36/2/26 35/2/25
f 36/2/26 29/2/22 30/2/24
f 32/2/22 38/2/26 37/2/25
f 38/2/26 32/2/22 34/2/24
f 36/2/26 39/3/27 35/2/25
f 39/3/27 36/2/26 40/3/28
f 38/2/26 26/1/27 37/2/25
f 26/1/27 38/2/26 25/1/28
f 39/3/29 33/3/30 31/3/29
f 33/3/30 39/3/29 40/3/30
f 28/4/20 1/4/1 26/4/20
f 1/4/1 28/4/20 3/4/1
f 31/5/21 10/6/6 9/5/5
f 10/6/6 31/5/21 32/6/22
f 37/6/25 10/6/6 32/6/22
f 10/6/6 37/6/25 14/6/8
f 37/6/25 1/4/10 14/6/8
f 1/4/10 37/6/25 26/4/27
f 16/5/12 31/5/29 9/5/12
f 31/5/29 16/5/12 39/5/29
f 28/4/21 6/6/6 3/4/5
f 6/6/6 28/4/21 29/6/22
f 35/6/25 6/6/6 29/6/22
f 6/6/6 35/6/25 12/6/8
f 35/6/25 16/5/10 12/6/8
f 16/5/10 35/6/25 39/5/27
f 43/1/31 42/1/32 41/1/31
f 42/1/32 43/1/31 44/1/32
f 43/1/35 45/2/34 44/1/33
f 45/2/34 43/1/35 46/2/36
f 49/3/35 48/2/34 47/3/33
f 48/2/34 49/3/35 50/2/36
f 45/2/34 52/2/38 51/2/37
f 52/2/38 45/2/34 46/2/36
f 48/2/34 54/2/38 53/2/37
f 54/2/38 48/2/34 50/2/36
f 52/2/38 55/3/39 51/2/37
f 55/3/39 52/2/38 56/3/40
f 54/2/38 42/1/39 53/2/37
f 42/1/39 54/2/38 41/1/40
f 55/3/41 49/3/42 47/3/41
f 49/3/42 55/3/41 56/3/42
f 44/4/32 25/4/19 42/4/32
f 25/4/19 44/4/32 27/4/19
f 47/5/33 34/6/24 33/5/23
f 34/6/24 47/5/33 48/6/34
f 53/6/37 34/6/24 48/6/34
f 34/6/24 53/6/37 38/6/26
f 53/6/37 25/4/28 38/6/26
f 25/4/28 53/6/37 42/4/39
f 40/5/30 47/5/41 33/5/30
f 47/5/41 40/5/30 55/5/41
f 44/4/33 30/6/24 27/4/23
f 30/6/24 44/4/33 45/6/34
f 51/6/37 30/6/24 45/6/34
f 30/6/24 51/6/37 36/6/26
f 51/6/37 40/5/28 36/6/26
f 40/5/28 51/6/37 55/5/39
f 59/1/43 58/1/44 57/1/43
f 58/1/44 59/1/43 60/1/44
f 59/1/47 61/2/46 60/1/45
f 61/2/46 59/1/47 62/2/48
f 65/3/47 64/2/46 63/3/45
f 64/2/46 65/3/47 66/2/48
f 61/2/46 68/2/50 67/2/49
f 68/2/50 61/2/46 62/2/48
f 64/2/46 70/2/50 69/2/49
f 70/2/50 64/2/46 66/2/48
f 68/2/50 71/3/51 67/2/49
f 71/3/51 68/2/50 72/3/52
f 70/2/50 58/1/51 69/2/49
f 58/1/51 70/2/50 57/1/52
f 71/3/53 65/3/54 63/3/53
f 65/3/54 71/3/53 72/3/54
f 60/4/44 41/4/31 58/4/44
f 41/4/31 60/4/44 43/4/31
f 63/5/45 50/6/36 49/5/35
f 50/6/36 63/5/45 64/6/46
f 69/6/49 50/6/36 64/6/46
f 50/6/36 69/6/49 54/6/38
f 69/6/49 41/4/40 54/6/38
f 41/4/40 69/6/49 58/4/51
f 56/5/42 63/5/53 49/5/42
f 63/5/53 56/5/42 71/5/53
f 60/4/45 46/6/36 43/4/35
f 46/6/36 60/4/45 61/6/46
f 67/6/49 46/6/36 61/6/46
f 46/6/36 67/6/49 52/6/38
f 67/6/49 56/5/40 52/6/38
f 56/5/40 67/6/49 71/5/51
f 75/1/55 74/1/56 73/1/55
f 74/1/56 75/1/55 76/1/56
f 75/1/59 77/2/58 76/1/57
f 77/2/58 75/1/59 78/2/60
f 81/3/59 80/2/58 79/3/57
f 80/2/58 81/3/59 82/2/60
f 77/2/58 84/2/62 83/2/61
f 84/2/62 77/2/58 78/2/60
f 80/2/58 86/2/62 85/2/61
f 86/2/62 80/2/58 82/2/60
f 84/2/62 87/3/63 83/2/61
f 87/3/63 84/2/62 88/3/64
f 86/2/62 74/1/63 85/2/61
f 74/1/63 86/2/62 73/1/64
f 87/3/65 81/3/66 79/3/65
f 81/3/66 87/3/65 88/3/66
f 76/4/56 57/4/43 74/4/56
f 57/4/43 76/4/56 59/4/43
f 79/5/57 66/6/48 65/5/47
f 66/6/48 79/5/57 80/6/58
f 85/6/61 66/6/48 80/6/58
f 66/6/48 85/6/61 70/6/50
f 85/6/61 57/4/52 70/6/50
f 57/4/52 85/6/61 74/4/63
f 72/5/54 79/5/65 65/5/54
f 79/5/65 72/5/54 87/5/65
f 76/4/57 62/6/48 59/4/47
f 62/6/48 76/4/57 77/6/58
f 83/6/61 62/6/48 77/6/58
f 62/6/48 83/6/61 68/6/50
f 83/6/61 72/5/52 68/6/50
f 72/5/52 83/6/61 87/5/63
f 91/5/67 90/6/67 89/6/67
f 91/5/67 92/4/67 90/6/67
f 92/4/67 91/5/67 93/4/67
f 94/5/67 93/4/67 91/5/67
f 93/4/67 94/5/67 95/6/67
f 95/6/67 94/5/67 96/6/67
f 99/7/69 98/8/68 97/7/68
f 98/8/68 99/7/69 100/8/69
f 98/8/68 101/7/70 97/7/68
f 101/7/70 98/8/68 102/8/70
f 105/7/71 104/7/71 103/7/71
f 104/7/71 105/7/71 101/7/71
f 101/7/71 105/7/71 97/7/71
f 97/7/71 105/7/71 99/7/71
f 106/7/71 104/7/71 101/7/71
f 106/7/71 107/7/71 104/7/71
f 106/7/71 108/7/71 107/7/71
f 109/7/71 108/7/71 106/7/71
f 110/7/71 108/7/71 109/7/71
f 108/7/71 110/7/71 111/7/71
f 113/8/73 109/7/72 112/8/72
f 109/7/72 113/8/73 110/7/73
f 114/8/74 109/7/72 106/7/74
f 109/7/72 114/8/74 112/8/72
f 115/8/75 110/7/73 113/8/73
f 110/7/73 115/8/75 111/7/75
f 105/7/76 100/8/69 99/7/69
f 100/8/69 105/7/76 116/8/76
f 102/8/70 106/7/74 101/7/70
f 106/7/74 102/8/70 114/8/74
f 108/7/76 117/8/76 107/7/76
f 117/8/76 108/7/76 118/8/76
f 117/8/77 104/7/77 107/7/77
f 104/7/77 117/8/77 119/8/77
f 120/8/75 104/7/75 119/8/75
f 104/7/75 120/8/75 103/7/75
f 116/8/78 98/8/78 100/8/78
f 120/8/78 98/8/78 116/8/78
f 119/8/78 98/8/78 120/8/78
f 119/8/78 102/8/78 98/8/78
f 117/8/78 102/8/78 119/8/78
f 102/8/78 117/8/78 114/8/78
f 118/8/78 114/8/78 117/8/78
f 118/8/78 112/8/78 114/8/78
f 115/8/78 112/8/78 118/8/78
f 112/8/78 115/8/78 113/8/78
f 123/3/79 122/2/79 121/2/79
f 123/3/79 124/1/79 122/2/79
f 124/1/79 123/3/79 125/1/79
f 126/3/79 125/1/79 123/3/79
f 125/1/79 126/3/79 127/2/79
f 127/2/79 126/3/79 128/2/79
f 131/7/81 130/8/80 129/7/80
f 130/8/80 131/7/81 132/8/81
f 130/8/80 133/7/82 129/7/80
f 133/7/82 130/8/80 134/8/82
f 137/7/83 136/7/83 135/7/83
f 136/7/83 137/7/83 133/7/83
f 133/7/83 137/7/83 129/7/83
f 129/7/83 137/7/83 131/7/83
f 138/7/83 136/7/83 133/7/83
f 138/7/83 139/7/83 136/7/83
f 138/7/83 140/7/83 139/7/83
f 141/7/83 140/7/83 138/7/83
f 142/7/83 140/7/83 141/7/83
f 140/7/83 142/7/83 143/7/83
f 145/8/85 141/7/84 144/8/84
f 141/7/84 145/8/85 142/7/85
f 146/8/86 141/7/84 138/7/86
f 141/7/84 146/8/86 144/8/84
f 147/8/87 142/7/85 145/8/85
f 142/7/85 147/8/87 143/7/87
f 137/7/88 132/8/81 131/7/81
f 132/8/81 137/7/88 148/8/88
f 134/8/82 138/7/86 133/7/82
f 138/7/86 134/8/82 146/8/86
f 140/7/88 149/8/88 139/7/88
f 149/8/88 140/7/88 150/8/88
f 149/8/89 136/7/89 139/7/89
f 136/7/89 149/8/89 151/8/89
f 152/8/87 136/7/87 151/8/87
f 136/7/87 152/8/87 135/7/87
f 148/8/90 130/8/90 132/8/90
f 152/8/90 130/8/90 148/8/90
f 151/8/90 130/8/90 152/8/90
f 151/8/90 134/8/90 130/8/90
f 149/8/90 134/8/90 151/8/90
f 134/8/90 149/8/90 146/8/90
f 150/8/90 146/8/90 149/8/90
f 150/8/90 144/8/90 146/8/90
f 147/8/90 144/8/90 150/8/90
f 144/8/90 147/8/90 145/8/90

