# Created by Kenney (www.kenney.nl)

mtllib track-wide-corner-small.mtl

g track-wide-corner-small

v -1 0 1.072884E-06 1 1 1
v -1.018791 0 0.1458306 1 1 1
v 1 0 5.125999E-06 1 1 1
v 0.9239841 0 0.6208317 1 1 1
v -1.081143 0 0.3180413 1 1 1
v 0.7253439 0 1.176298 1 1 1
v -1 0.3 1.072884E-06 1 1 1
v -1.018791 0.3 0.1458306 1 1 1
v -1.081143 0.3 0.3180413 1 1 1
v 1 0.3 5.125999E-06 1 1 1
v 0.9239841 0.3 0.6208317 1 1 1
v 0.7253439 0.3 1.176298 1 1 1
v 0.9000001 0.1 5.00679E-06 1 1 1
v 0.8268452 0.1 0.5970817 1 1 1
v -0.9 0.1 1.192093E-06 1 1 1
v -0.9216521 0.1 0.1695807 1 1 1
v 0.6350195 0.1 1.133385 1 1 1
v -0.990819 0.1 0.3609542 1 1 1
v -0.9 0.3 1.192093E-06 1 1 1
v -0.9216521 0.3 0.1695807 1 1 1
v -0.990819 0.3 0.3609542 1 1 1
v 0.9000001 0.3 5.00679E-06 1 1 1
v 0.8268452 0.3 0.5970817 1 1 1
v 0.6350195 0.3 1.133385 1 1 1
v -1.188024 0 0.4982603 1 1 1
v 0.4385679 0 1.66196 1 1 1
v -1.332107 0 0.6678932 1 1 1
v 0.08210635 0 2.082107 1 1 1
v -1.188024 0.3 0.4982603 1 1 1
v -1.332107 0.3 0.6678932 1 1 1
v 0.4385679 0.3 1.66196 1 1 1
v 0.08210635 0.3 2.082107 1 1 1
v 0.3572383 0.1 1.603776 1 1 1
v -1.106695 0.1 0.5564451 1 1 1
v 0.01139569 0.1 2.011396 1 1 1
v -1.261396 0.1 0.7386039 1 1 1
v -1.106695 0.3 0.5564451 1 1 1
v -1.261396 0.3 0.7386039 1 1 1
v 0.3572383 0.3 1.603776 1 1 1
v 0.01139569 0.3 2.011396 1 1 1
v -1.50174 0 0.8119756 1 1 1
v -0.3380405 0 2.438569 1 1 1
v -1.681959 0 0.9188567 1 1 1
v -0.8237031 0 2.725344 1 1 1
v -1.50174 0.3 0.8119756 1 1 1
v -1.681959 0.3 0.9188567 1 1 1
v -0.3380405 0.3 2.438569 1 1 1
v -0.8237031 0.3 2.725344 1 1 1
v -0.3962255 0.1 2.357239 1 1 1
v -1.443555 0.1 0.8933053 1 1 1
v -0.8666158 0.1 2.63502 1 1 1
v -1.639046 0.1 1.009181 1 1 1
v -1.443555 0.3 0.8933053 1 1 1
v -1.639046 0.3 1.009181 1 1 1
v -0.3962255 0.3 2.357239 1 1 1
v -0.8666158 0.3 2.63502 1 1 1
v -1.854169 0 0.981209 1 1 1
v -1.379168 0 2.923984 1 1 1
v -1.999999 0 1 1 1 1
v -1.999995 0 3 1 1 1
v -1.854169 0.3 0.981209 1 1 1
v -1.999999 0.3 1 1 1 1
v -1.379168 0.3 2.923984 1 1 1
v -1.999995 0.3 3 1 1 1
v -1.402918 0.1 2.826845 1 1 1
v -1.830419 0.1 1.078348 1 1 1
v -1.999995 0.1 2.9 1 1 1
v -1.999999 0.1 1.1 1 1 1
v -1.830419 0.3 1.078348 1 1 1
v -1.999999 0.3 1.1 1 1 1
v -1.402918 0.3 2.826845 1 1 1
v -1.999995 0.3 2.9 1 1 1
v -0.9 0.3 0 1 1 1
v -1 0.3 0 1 1 1
v -0.9 0.1 0 1 1 1
v -1 0 0 1 1 1
v 1 0 0 1 1 1
v 0.9 0.1 0 1 1 1
v 1 0.3 0 1 1 1
v 0.9 0.3 0 1 1 1
v -0.1207107 0 -0.1707107 1 1 1
v -0.1207107 0.05000001 -0.1707107 1 1 1
v -0.15 0 -0.1 1 1 1
v -0.15 0.05000001 -0.1 1 1 1
v -0.05 0 -0.2 1 1 1
v -0.05 0.05000001 -0.2 1 1 1
v -0.05 0 7.219114E-16 1 1 1
v -0.05 0 -0.1 1 1 1
v -0.15 0 1.082867E-15 1 1 1
v 0.05 0 -0.2 1 1 1
v 0.05 0 -0.1 1 1 1
v 0.05 0 3.609557E-16 1 1 1
v 0.1207107 0 -0.1707107 1 1 1
v 0.15 0 -0.1 1 1 1
v 0.15 0 0 1 1 1
v 0.1207107 0.05000001 -0.1707107 1 1 1
v 0.15 0.05000001 -0.1 1 1 1
v 0.05 0.05000001 -0.2 1 1 1
v 0.15 0.05000001 0 1 1 1
v -0.15 0.05000001 1.082867E-15 1 1 1
v 0.05 0.05000001 -0.1 1 1 1
v 0.05 0.05000001 3.609557E-16 1 1 1
v -0.05 0.05000001 -0.1 1 1 1
v -0.05 0.05000001 7.219114E-16 1 1 1
v -2 0.3 2.9 1 1 1
v -2 0.3 3 1 1 1
v -2 0.1 2.9 1 1 1
v -2 0 3 1 1 1
v -2 0 1 1 1 1
v -2 0.1 1.1 1 1 1
v -2 0.3 1 1 1 1
v -2 0.3 1.1 1 1 1
v -2.170711 0 2.120711 1 1 1
v -2.170711 0.05000001 2.120711 1 1 1
v -2.1 0 2.15 1 1 1
v -2.1 0.05000001 2.15 1 1 1
v -2.2 0 2.05 1 1 1
v -2.2 0.05000001 2.05 1 1 1
v -2 0 2.05 1 1 1
v -2.1 0 2.05 1 1 1
v -2 0 2.15 1 1 1
v -2.2 0 1.95 1 1 1
v -2.1 0 1.95 1 1 1
v -2 0 1.95 1 1 1
v -2.170711 0 1.879289 1 1 1
v -2.1 0 1.85 1 1 1
v -2 0 1.85 1 1 1
v -2.170711 0.05000001 1.879289 1 1 1
v -2.1 0.05000001 1.85 1 1 1
v -2.2 0.05000001 1.95 1 1 1
v -2 0.05000001 1.85 1 1 1
v -2 0.05000001 2.15 1 1 1
v -2.1 0.05000001 1.95 1 1 1
v -2 0.05000001 1.95 1 1 1
v -2.1 0.05000001 2.05 1 1 1
v -2 0.05000001 2.05 1 1 1

vn 0 -1 0
vn -1 0 -2.06452E-06
vn -0.7071068 0.7071068 -1.459836E-06
vn -0.9713874 0 -0.2375005
vn -0.6868746 0.7071068 -0.1679382
vn -0.9032437 0 -0.4291281
vn -0.6386897 0.7071068 -0.3034394
vn 0.7071068 0.7071068 1.459836E-06
vn 1 0 2.06452E-06
vn 0.6868746 0.7071068 0.1679382
vn 0.9713874 0 0.2375005
vn 0.6386897 0.7071068 0.3034394
vn 0.9032437 0 0.4291281
vn 0 1 0
vn -0.8132961 0 -0.5818501
vn -0.5750871 0.7071068 -0.4114302
vn -0.7071066 0 -0.7071069
vn -0.4999999 0.7071068 -0.5000001
vn 0.5750871 0.7071068 0.4114302
vn 0.8132961 0 0.5818501
vn 0.4999999 0.7071068 0.5000001
vn 0.7071066 0 0.7071069
vn -0.5818497 0 -0.8132964
vn -0.4114299 0.7071068 -0.5750874
vn -0.429128 0 -0.9032437
vn -0.3034393 0.7071068 -0.6386897
vn 0.4114299 0.7071068 0.5750874
vn 0.5818497 0 0.8132964
vn 0.3034393 0.7071068 0.6386897
vn 0.429128 0 0.9032437
vn -0.2375005 0 -0.9713874
vn -0.1679382 0.7071068 -0.6868747
vn -2.205372E-06 0 -0.9999999
vn -1.549721E-06 0.7071068 -0.7071067
vn 0.1679382 0.7071068 0.6868747
vn 0.2375005 0 0.9713874
vn 1.549721E-06 0.7071068 0.7071067
vn 2.205372E-06 0 0.9999999
vn 0 0 -1
vn -0.7071068 0 -0.7071068
vn -0.9807853 0 -0.1950903
vn -0.1950903 0 -0.9807853
vn 0.7071068 0 -0.7071068
vn 0.9807853 0 -0.1950903
vn 0.1950903 0 -0.9807853
vn 1 0 0
vn -1 0 0
vn 0 0 1
vn -0.9999999 0 3.576279E-07
vn -0.7071065 0 0.7071069
vn -0.19509 0 0.9807853
vn -0.9807851 0 0.1950907
vn -0.7071069 0 -0.7071065
vn -0.1950907 0 -0.9807851
vn -0.9807853 0 -0.19509
vn -3.576279E-07 0 -0.9999999
vn 3.576279E-07 0 0.9999999
vn 0.9999999 0 -3.576279E-07

vt 0.46875 0.275
vt 0.46875 0.475
vt 0.46875 0.3416667
vt 0.71875 0.275
vt 0.71875 0.475

usemtl colormap

f 3/1/1 2/1/1 1/1/1
f 2/1/1 3/1/1 4/1/1
f 4/1/1 5/1/1 2/1/1
f 5/1/1 4/1/1 6/1/1
f 2/1/4 7/2/3 1/1/2
f 7/2/3 2/1/4 8/2/5
f 5/1/6 8/2/5 2/1/4
f 8/2/5 5/1/6 9/2/7
f 11/2/10 3/1/9 10/2/8
f 3/1/9 11/2/10 4/1/11
f 12/2/12 4/1/11 11/2/10
f 4/1/11 12/2/12 6/1/13
f 15/3/14 14/3/14 13/3/14
f 14/3/14 15/3/14 16/3/14
f 16/3/14 17/3/14 14/3/14
f 17/3/14 16/3/14 18/3/14
f 7/2/3 20/2/10 19/2/8
f 20/2/10 7/2/3 8/2/5
f 8/2/5 21/2/12 20/2/10
f 21/2/12 8/2/5 9/2/7
f 20/2/10 15/3/9 19/2/8
f 15/3/9 20/2/10 16/3/11
f 21/2/12 16/3/11 20/2/10
f 16/3/11 21/2/12 18/3/13
f 22/2/3 11/2/10 10/2/8
f 11/2/10 22/2/3 23/2/5
f 23/2/5 12/2/12 11/2/10
f 12/2/12 23/2/5 24/2/7
f 14/3/4 22/2/3 13/3/2
f 22/2/3 14/3/4 23/2/5
f 17/3/6 23/2/5 14/3/4
f 23/2/5 17/3/6 24/2/7
f 6/1/1 25/1/1 5/1/1
f 25/1/1 6/1/1 26/1/1
f 26/1/1 27/1/1 25/1/1
f 27/1/1 26/1/1 28/1/1
f 25/1/15 9/2/7 5/1/6
f 9/2/7 25/1/15 29/2/16
f 27/1/17 29/2/16 25/1/15
f 29/2/16 27/1/17 30/2/18
f 31/2/19 6/1/13 12/2/12
f 6/1/13 31/2/19 26/1/20
f 32/2/21 26/1/20 31/2/19
f 26/1/20 32/2/21 28/1/22
f 18/3/14 33/3/14 17/3/14
f 33/3/14 18/3/14 34/3/14
f 34/3/14 35/3/14 33/3/14
f 35/3/14 34/3/14 36/3/14
f 9/2/7 37/2/19 21/2/12
f 37/2/19 9/2/7 29/2/16
f 29/2/16 38/2/21 37/2/19
f 38/2/21 29/2/16 30/2/18
f 37/2/19 18/3/13 21/2/12
f 18/3/13 37/2/19 34/3/20
f 38/2/21 34/3/20 37/2/19
f 34/3/20 38/2/21 36/3/22
f 24/2/7 31/2/19 12/2/12
f 31/2/19 24/2/7 39/2/16
f 39/2/16 32/2/21 31/2/19
f 32/2/21 39/2/16 40/2/18
f 33/3/15 24/2/7 17/3/6
f 24/2/7 33/3/15 39/2/16
f 35/3/17 39/2/16 33/3/15
f 39/2/16 35/3/17 40/2/18
f 28/1/1 41/1/1 27/1/1
f 41/1/1 28/1/1 42/1/1
f 42/1/1 43/1/1 41/1/1
f 43/1/1 42/1/1 44/1/1
f 41/1/23 30/2/18 27/1/17
f 30/2/18 41/1/23 45/2/24
f 43/1/25 45/2/24 41/1/23
f 45/2/24 43/1/25 46/2/26
f 47/2/27 28/1/22 32/2/21
f 28/1/22 47/2/27 42/1/28
f 48/2/29 42/1/28 47/2/27
f 42/1/28 48/2/29 44/1/30
f 36/3/14 49/3/14 35/3/14
f 49/3/14 36/3/14 50/3/14
f 50/3/14 51/3/14 49/3/14
f 51/3/14 50/3/14 52/3/14
f 30/2/18 53/2/27 38/2/21
f 53/2/27 30/2/18 45/2/24
f 45/2/24 54/2/29 53/2/27
f 54/2/29 45/2/24 46/2/26
f 53/2/27 36/3/22 38/2/21
f 36/3/22 53/2/27 50/3/28
f 54/2/29 50/3/28 53/2/27
f 50/3/28 54/2/29 52/3/30
f 40/2/18 47/2/27 32/2/21
f 47/2/27 40/2/18 55/2/24
f 55/2/24 48/2/29 47/2/27
f 48/2/29 55/2/24 56/2/26
f 49/3/23 40/2/18 35/3/17
f 40/2/18 49/3/23 55/2/24
f 51/3/25 55/2/24 49/3/23
f 55/2/24 51/3/25 56/2/26
f 44/1/1 57/1/1 43/1/1
f 57/1/1 44/1/1 58/1/1
f 58/1/1 59/1/1 57/1/1
f 59/1/1 58/1/1 60/1/1
f 57/1/31 46/2/26 43/1/25
f 46/2/26 57/1/31 61/2/32
f 59/1/33 61/2/32 57/1/31
f 61/2/32 59/1/33 62/2/34
f 63/2/35 44/1/30 48/2/29
f 44/1/30 63/2/35 58/1/36
f 64/2/37 58/1/36 63/2/35
f 58/1/36 64/2/37 60/1/38
f 52/3/14 65/3/14 51/3/14
f 65/3/14 52/3/14 66/3/14
f 66/3/14 67/3/14 65/3/14
f 67/3/14 66/3/14 68/3/14
f 46/2/26 69/2/35 54/2/29
f 69/2/35 46/2/26 61/2/32
f 61/2/32 70/2/37 69/2/35
f 70/2/37 61/2/32 62/2/34
f 69/2/35 52/3/30 54/2/29
f 52/3/30 69/2/35 66/3/36
f 70/2/37 66/3/36 69/2/35
f 66/3/36 70/2/37 68/3/38
f 56/2/26 63/2/35 48/2/29
f 63/2/35 56/2/26 71/2/32
f 71/2/32 64/2/37 63/2/35
f 64/2/37 71/2/32 72/2/34
f 65/3/31 56/2/26 51/3/25
f 56/2/26 65/3/31 71/2/32
f 67/3/33 71/2/32 65/3/31
f 71/2/32 67/3/33 72/2/34
f 75/3/39 74/2/39 73/2/39
f 75/3/39 76/1/39 74/2/39
f 76/1/39 75/3/39 77/1/39
f 78/3/39 77/1/39 75/3/39
f 77/1/39 78/3/39 79/2/39
f 79/2/39 78/3/39 80/2/39
f 83/4/41 82/5/40 81/4/40
f 82/5/40 83/4/41 84/5/41
f 82/5/40 85/4/42 81/4/40
f 85/4/42 82/5/40 86/5/42
f 89/4/1 88/4/1 87/4/1
f 88/4/1 89/4/1 85/4/1
f 85/4/1 89/4/1 81/4/1
f 81/4/1 89/4/1 83/4/1
f 90/4/1 88/4/1 85/4/1
f 90/4/1 91/4/1 88/4/1
f 90/4/1 92/4/1 91/4/1
f 93/4/1 92/4/1 90/4/1
f 94/4/1 92/4/1 93/4/1
f 92/4/1 94/4/1 95/4/1
f 97/5/44 93/4/43 96/5/43
f 93/4/43 97/5/44 94/4/44
f 98/5/45 93/4/43 90/4/45
f 93/4/43 98/5/45 96/5/43
f 99/5/46 94/4/44 97/5/44
f 94/4/44 99/5/46 95/4/46
f 89/4/47 84/5/41 83/4/41
f 84/5/41 89/4/47 100/5/47
f 86/5/42 90/4/45 85/4/42
f 90/4/45 86/5/42 98/5/45
f 92/4/47 101/5/47 91/4/47
f 101/5/47 92/4/47 102/5/47
f 101/5/48 88/4/48 91/4/48
f 88/4/48 101/5/48 103/5/48
f 104/5/46 88/4/46 103/5/46
f 88/4/46 104/5/46 87/4/46
f 100/5/14 82/5/14 84/5/14
f 104/5/14 82/5/14 100/5/14
f 103/5/14 82/5/14 104/5/14
f 103/5/14 86/5/14 82/5/14
f 101/5/14 86/5/14 103/5/14
f 86/5/14 101/5/14 98/5/14
f 102/5/14 98/5/14 101/5/14
f 102/5/14 96/5/14 98/5/14
f 99/5/14 96/5/14 102/5/14
f 96/5/14 99/5/14 97/5/14
f 107/3/49 106/2/49 105/2/49
f 107/3/49 108/1/49 106/2/49
f 108/1/49 107/3/49 109/1/49
f 110/3/49 109/1/49 107/3/49
f 109/1/49 110/3/49 111/2/49
f 111/2/49 110/3/49 112/2/49
f 115/4/51 114/5/50 113/4/50
f 114/5/50 115/4/51 116/5/51
f 114/5/50 117/4/52 113/4/50
f 117/4/52 114/5/50 118/5/52
f 121/4/1 120/4/1 119/4/1
f 120/4/1 121/4/1 117/4/1
f 117/4/1 121/4/1 113/4/1
f 113/4/1 121/4/1 115/4/1
f 122/4/1 120/4/1 117/4/1
f 122/4/1 123/4/1 120/4/1
f 122/4/1 124/4/1 123/4/1
f 125/4/1 124/4/1 122/4/1
f 126/4/1 124/4/1 125/4/1
f 124/4/1 126/4/1 127/4/1
f 129/5/54 125/4/53 128/5/53
f 125/4/53 129/5/54 126/4/54
f 130/5/55 125/4/53 122/4/55
f 125/4/53 130/5/55 128/5/53
f 131/5/56 126/4/54 129/5/54
f 126/4/54 131/5/56 127/4/56
f 121/4/57 116/5/51 115/4/51
f 116/5/51 121/4/57 132/5/57
f 118/5/52 122/4/55 117/4/52
f 122/4/55 118/5/52 130/5/55
f 124/4/57 133/5/57 123/4/57
f 133/5/57 124/4/57 134/5/57
f 133/5/58 120/4/58 123/4/58
f 120/4/58 133/5/58 135/5/58
f 136/5/56 120/4/56 135/5/56
f 120/4/56 136/5/56 119/4/56
f 132/5/14 114/5/14 116/5/14
f 136/5/14 114/5/14 132/5/14
f 135/5/14 114/5/14 136/5/14
f 135/5/14 118/5/14 114/5/14
f 133/5/14 118/5/14 135/5/14
f 118/5/14 133/5/14 130/5/14
f 134/5/14 130/5/14 133/5/14
f 134/5/14 128/5/14 130/5/14
f 131/5/14 128/5/14 134/5/14
f 128/5/14 131/5/14 129/5/14

g track-wide-corner-small




usemtl colormap

f 3/1/1 2/1/1 1/1/1
f 2/1/1 3/1/1 4/1/1
f 4/1/1 5/1/1 2/1/1
f 5/1/1 4/1/1 6/1/1
f 2/1/4 7/2/3 1/1/2
f 7/2/3 2/1/4 8/2/5
f 5/1/6 8/2/5 2/1/4
f 8/2/5 5/1/6 9/2/7
f 11/2/10 3/1/9 10/2/8
f 3/1/9 11/2/10 4/1/11
f 12/2/12 4/1/11 11/2/10
f 4/1/11 12/2/12 6/1/13
f 15/3/14 14/3/14 13/3/14
f 14/3/14 15/3/14 16/3/14
f 16/3/14 17/3/14 14/3/14
f 17/3/14 16/3/14 18/3/14
f 7/2/3 20/2/10 19/2/8
f 20/2/10 7/2/3 8/2/5
f 8/2/5 21/2/12 20/2/10
f 21/2/12 8/2/5 9/2/7
f 20/2/10 15/3/9 19/2/8
f 15/3/9 20/2/10 16/3/11
f 21/2/12 16/3/11 20/2/10
f 16/3/11 21/2/12 18/3/13
f 22/2/3 11/2/10 10/2/8
f 11/2/10 22/2/3 23/2/5
f 23/2/5 12/2/12 11/2/10
f 12/2/12 23/2/5 24/2/7
f 14/3/4 22/2/3 13/3/2
f 22/2/3 14/3/4 23/2/5
f 17/3/6 23/2/5 14/3/4
f 23/2/5 17/3/6 24/2/7
f 6/1/1 25/1/1 5/1/1
f 25/1/1 6/1/1 26/1/1
f 26/1/1 27/1/1 25/1/1
f 27/1/1 26/1/1 28/1/1
f 25/1/15 9/2/7 5/1/6
f 9/2/7 25/1/15 29/2/16
f 27/1/17 29/2/16 25/1/15
f 29/2/16 27/1/17 30/2/18
f 31/2/19 6/1/13 12/2/12
f 6/1/13 31/2/19 26/1/20
f 32/2/21 26/1/20 31/2/19
f 26/1/20 32/2/21 28/1/22
f 18/3/14 33/3/14 17/3/14
f 33/3/14 18/3/14 34/3/14
f 34/3/14 35/3/14 33/3/14
f 35/3/14 34/3/14 36/3/14
f 9/2/7 37/2/19 21/2/12
f 37/2/19 9/2/7 29/2/16
f 29/2/16 38/2/21 37/2/19
f 38/2/21 29/2/16 30/2/18
f 37/2/19 18/3/13 21/2/12
f 18/3/13 37/2/19 34/3/20
f 38/2/21 34/3/20 37/2/19
f 34/3/20 38/2/21 36/3/22
f 24/2/7 31/2/19 12/2/12
f 31/2/19 24/2/7 39/2/16
f 39/2/16 32/2/21 31/2/19
f 32/2/21 39/2/16 40/2/18
f 33/3/15 24/2/7 17/3/6
f 24/2/7 33/3/15 39/2/16
f 35/3/17 39/2/16 33/3/15
f 39/2/16 35/3/17 40/2/18
f 28/1/1 41/1/1 27/1/1
f 41/1/1 28/1/1 42/1/1
f 42/1/1 43/1/1 41/1/1
f 43/1/1 42/1/1 44/1/1
f 41/1/23 30/2/18 27/1/17
f 30/2/18 41/1/23 45/2/24
f 43/1/25 45/2/24 41/1/23
f 45/2/24 43/1/25 46/2/26
f 47/2/27 28/1/22 32/2/21
f 28/1/22 47/2/27 42/1/28
f 48/2/29 42/1/28 47/2/27
f 42/1/28 48/2/29 44/1/30
f 36/3/14 49/3/14 35/3/14
f 49/3/14 36/3/14 50/3/14
f 50/3/14 51/3/14 49/3/14
f 51/3/14 50/3/14 52/3/14
f 30/2/18 53/2/27 38/2/21
f 53/2/27 30/2/18 45/2/24
f 45/2/24 54/2/29 53/2/27
f 54/2/29 45/2/24 46/2/26
f 53/2/27 36/3/22 38/2/21
f 36/3/22 53/2/27 50/3/28
f 54/2/29 50/3/28 53/2/27
f 50/3/28 54/2/29 52/3/30
f 40/2/18 47/2/27 32/2/21
f 47/2/27 40/2/18 55/2/24
f 55/2/24 48/2/29 47/2/27
f 48/2/29 55/2/24 56/2/26
f 49/3/23 40/2/18 35/3/17
f 40/2/18 49/3/23 55/2/24
f 51/3/25 55/2/24 49/3/23
f 55/2/24 51/3/25 56/2/26
f 44/1/1 57/1/1 43/1/1
f 57/1/1 44/1/1 58/1/1
f 58/1/1 59/1/1 57/1/1
f 59/1/1 58/1/1 60/1/1
f 57/1/31 46/2/26 43/1/25
f 46/2/26 57/1/31 61/2/32
f 59/1/33 61/2/32 57/1/31
f 61/2/32 59/1/33 62/2/34
f 63/2/35 44/1/30 48/2/29
f 44/1/30 63/2/35 58/1/36
f 64/2/37 58/1/36 63/2/35
f 58/1/36 64/2/37 60/1/38
f 52/3/14 65/3/14 51/3/14
f 65/3/14 52/3/14 66/3/14
f 66/3/14 67/3/14 65/3/14
f 67/3/14 66/3/14 68/3/14
f 46/2/26 69/2/35 54/2/29
f 69/2/35 46/2/26 61/2/32
f 61/2/32 70/2/37 69/2/35
f 70/2/37 61/2/32 62/2/34
f 69/2/35 52/3/30 54/2/29
f 52/3/30 69/2/35 66/3/36
f 70/2/37 66/3/36 69/2/35
f 66/3/36 70/2/37 68/3/38
f 56/2/26 63/2/35 48/2/29
f 63/2/35 56/2/26 71/2/32
f 71/2/32 64/2/37 63/2/35
f 64/2/37 71/2/32 72/2/34
f 65/3/31 56/2/26 51/3/25
f 56/2/26 65/3/31 71/2/32
f 67/3/33 71/2/32 65/3/31
f 71/2/32 67/3/33 72/2/34
f 75/3/39 74/2/39 73/2/39
f 75/3/39 76/1/39 74/2/39
f 76/1/39 75/3/39 77/1/39
f 78/3/39 77/1/39 75/3/39
f 77/1/39 78/3/39 79/2/39
f 79/2/39 78/3/39 80/2/39
f 83/4/41 82/5/40 81/4/40
f 82/5/40 83/4/41 84/5/41
f 82/5/40 85/4/42 81/4/40
f 85/4/42 82/5/40 86/5/42
f 89/4/1 88/4/1 87/4/1
f 88/4/1 89/4/1 85/4/1
f 85/4/1 89/4/1 81/4/1
f 81/4/1 89/4/1 83/4/1
f 90/4/1 88/4/1 85/4/1
f 90/4/1 91/4/1 88/4/1
f 90/4/1 92/4/1 91/4/1
f 93/4/1 92/4/1 90/4/1
f 94/4/1 92/4/1 93/4/1
f 92/4/1 94/4/1 95/4/1
f 97/5/44 93/4/43 96/5/43
f 93/4/43 97/5/44 94/4/44
f 98/5/45 93/4/43 90/4/45
f 93/4/43 98/5/45 96/5/43
f 99/5/46 94/4/44 97/5/44
f 94/4/44 99/5/46 95/4/46
f 89/4/47 84/5/41 83/4/41
f 84/5/41 89/4/47 100/5/47
f 86/5/42 90/4/45 85/4/42
f 90/4/45 86/5/42 98/5/45
f 92/4/47 101/5/47 91/4/47
f 101/5/47 92/4/47 102/5/47
f 101/5/48 88/4/48 91/4/48
f 88/4/48 101/5/48 103/5/48
f 104/5/46 88/4/46 103/5/46
f 88/4/46 104/5/46 87/4/46
f 100/5/14 82/5/14 84/5/14
f 104/5/14 82/5/14 100/5/14
f 103/5/14 82/5/14 104/5/14
f 103/5/14 86/5/14 82/5/14
f 101/5/14 86/5/14 103/5/14
f 86/5/14 101/5/14 98/5/14
f 102/5/14 98/5/14 101/5/14
f 102/5/14 96/5/14 98/5/14
f 99/5/14 96/5/14 102/5/14
f 96/5/14 99/5/14 97/5/14
f 107/3/49 106/2/49 105/2/49
f 107/3/49 108/1/49 106/2/49
f 108/1/49 107/3/49 109/1/49
f 110/3/49 109/1/49 107/3/49
f 109/1/49 110/3/49 111/2/49
f 111/2/49 110/3/49 112/2/49
f 115/4/51 114/5/50 113/4/50
f 114/5/50 115/4/51 116/5/51
f 114/5/50 117/4/52 113/4/50
f 117/4/52 114/5/50 118/5/52
f 121/4/1 120/4/1 119/4/1
f 120/4/1 121/4/1 117/4/1
f 117/4/1 121/4/1 113/4/1
f 113/4/1 121/4/1 115/4/1
f 122/4/1 120/4/1 117/4/1
f 122/4/1 123/4/1 120/4/1
f 122/4/1 124/4/1 123/4/1
f 125/4/1 124/4/1 122/4/1
f 126/4/1 124/4/1 125/4/1
f 124/4/1 126/4/1 127/4/1
f 129/5/54 125/4/53 128/5/53
f 125/4/53 129/5/54 126/4/54
f 130/5/55 125/4/53 122/4/55
f 125/4/53 130/5/55 128/5/53
f 131/5/56 126/4/54 129/5/54
f 126/4/54 131/5/56 127/4/56
f 121/4/57 116/5/51 115/4/51
f 116/5/51 121/4/57 132/5/57
f 118/5/52 122/4/55 117/4/52
f 122/4/55 118/5/52 130/5/55
f 124/4/57 133/5/57 123/4/57
f 133/5/57 124/4/57 134/5/57
f 133/5/58 120/4/58 123/4/58
f 120/4/58 133/5/58 135/5/58
f 136/5/56 120/4/56 135/5/56
f 120/4/56 136/5/56 119/4/56
f 132/5/14 114/5/14 116/5/14
f 136/5/14 114/5/14 132/5/14
f 135/5/14 114/5/14 136/5/14
f 135/5/14 118/5/14 114/5/14
f 133/5/14 118/5/14 135/5/14
f 118/5/14 133/5/14 130/5/14
f 134/5/14 130/5/14 133/5/14
f 134/5/14 128/5/14 130/5/14
f 131/5/14 128/5/14 134/5/14
f 128/5/14 131/5/14 129/5/14

