# Created by Kenney (www.kenney.nl)

mtllib track-striped-wide-straight-bump-down.mtl

g track-striped-wide-straight-bump-down

v 1 0.259865 0.4704261 1 1 1
v 1 0.1145419 0.9335995 1 1 1
v 0.9 0.259865 0.4704261 1 1 1
v 0.9 0.1145419 0.9335995 1 1 1
v -0.9000001 0.259865 0.4704261 1 1 1
v -0.9000001 0.06324458 0.433815 1 1 1
v -0.9000001 0.1145419 0.9335995 1 1 1
v -0.9000001 -0.06831181 0.8525777 1 1 1
v 1 -0.1597387 0.8120666 1 1 1
v 1 -0.03506577 0.4155097 1 1 1
v -1 -0.1597387 0.8120666 1 1 1
v -1 -0.03506577 0.4155097 1 1 1
v -1 0.259865 0.4704261 1 1 1
v -1 0.1145419 0.9335995 1 1 1
v 0.9 0.06324458 0.433815 1 1 1
v 0.9 -0.06831181 0.8525777 1 1 1
v -1 0 4.291534E-06 1 1 1
v -1 0.3 4.768372E-06 1 1 1
v -0.9000001 0.3 4.768372E-06 1 1 1
v -0.9000001 0.1 4.291534E-06 1 1 1
v 0.9 0.1 4.291534E-06 1 1 1
v 0.9 0.3 4.768372E-06 1 1 1
v 1 0.3 4.768372E-06 1 1 1
v 1 0 4.291534E-06 1 1 1
v 1 -0.06598079 1.309466 1 1 1
v 1 -0.1700034 1.639407 1 1 1
v 0.9 -0.06598079 1.309466 1 1 1
v 0.9 -0.1700034 1.639407 1 1 1
v -0.9000001 -0.06598079 1.309466 1 1 1
v -0.9000001 -0.2488345 1.228444 1 1 1
v -0.9000001 -0.1700034 1.639407 1 1 1
v -0.9000001 -0.3666239 1.602796 1 1 1
v 1 -0.4649342 1.584491 1 1 1
v 1 -0.3402613 1.187933 1 1 1
v -1 -0.4649342 1.584491 1 1 1
v -1 -0.3402613 1.187933 1 1 1
v -1 -0.06598079 1.309466 1 1 1
v -1 -0.1700034 1.639407 1 1 1
v 0.9 -0.2488345 1.228444 1 1 1
v 0.9 -0.3666239 1.602796 1 1 1
v 1 -0.2 2 1 1 1
v 1 -0.1700034 2.360593 1 1 1
v 0.9 -0.2 2 1 1 1
v 0.9 -0.1700034 2.360593 1 1 1
v -0.9000001 -0.2 2 1 1 1
v -0.9000001 -0.4 2 1 1 1
v -0.9000001 -0.1700034 2.360593 1 1 1
v -0.9000001 -0.3666239 2.397204 1 1 1
v 1 -0.4649342 2.41551 1 1 1
v 1 -0.5 2 1 1 1
v -1 -0.4649342 2.41551 1 1 1
v -1 -0.5 2 1 1 1
v -1 -0.2 2 1 1 1
v -1 -0.1700034 2.360593 1 1 1
v 0.9 -0.4 2 1 1 1
v 0.9 -0.3666239 2.397204 1 1 1
v 1 -0.06598067 2.690534 1 1 1
v 1 0.1145419 3.066401 1 1 1
v 0.9 -0.06598067 2.690534 1 1 1
v 0.9 0.1145419 3.066401 1 1 1
v -0.9000001 -0.06598067 2.690534 1 1 1
v -0.9000001 -0.2488345 2.771556 1 1 1
v -0.9000001 0.1145419 3.066401 1 1 1
v -0.9000001 -0.06831181 3.147422 1 1 1
v 1 -0.1597387 3.187933 1 1 1
v 1 -0.3402613 2.812067 1 1 1
v -1 -0.1597387 3.187933 1 1 1
v -1 -0.3402613 2.812067 1 1 1
v -1 -0.06598067 2.690534 1 1 1
v -1 0.1145419 3.066401 1 1 1
v 0.9 -0.2488345 2.771556 1 1 1
v 0.9 -0.06831181 3.147422 1 1 1
v 1 0.259865 3.529574 1 1 1
v 1 0.3 3.999995 1 1 1
v 0.9 0.259865 3.529574 1 1 1
v 0.9 0.3 3.999995 1 1 1
v -0.9000001 0.259865 3.529574 1 1 1
v -0.9000001 0.06324446 3.566185 1 1 1
v -0.9000001 0.3 3.999995 1 1 1
v -0.9000001 0.1 3.999995 1 1 1
v 1 0 3.999995 1 1 1
v 1 -0.03506577 3.584491 1 1 1
v -1 0 3.999995 1 1 1
v -1 -0.03506577 3.584491 1 1 1
v -1 0.259865 3.529574 1 1 1
v -1 0.3 3.999995 1 1 1
v 0.9 0.06324446 3.566185 1 1 1
v 0.9 0.1 3.999995 1 1 1
v -0.9 0.3 0 1 1 1
v -1 0.3 0 1 1 1
v -0.9 0.1 0 1 1 1
v -1 0 0 1 1 1
v 1 0 0 1 1 1
v 0.9 0.1 0 1 1 1
v 1 0.3 0 1 1 1
v 0.9 0.3 0 1 1 1
v -0.1207107 0 -0.1707107 1 1 1
v -0.1207107 0.05000001 -0.1707107 1 1 1
v -0.15 0 -0.1 1 1 1
v -0.15 0.05000001 -0.1 1 1 1
v -0.05 0 -0.2 1 1 1
v -0.05 0.05000001 -0.2 1 1 1
v -0.05 0 7.219114E-16 1 1 1
v -0.05 0 -0.1 1 1 1
v -0.15 0 1.082867E-15 1 1 1
v 0.05 0 -0.2 1 1 1
v 0.05 0 -0.1 1 1 1
v 0.05 0 3.609557E-16 1 1 1
v 0.1207107 0 -0.1707107 1 1 1
v 0.15 0 -0.1 1 1 1
v 0.15 0 0 1 1 1
v 0.1207107 0.05000001 -0.1707107 1 1 1
v 0.15 0.05000001 -0.1 1 1 1
v 0.05 0.05000001 -0.2 1 1 1
v 0.15 0.05000001 0 1 1 1
v -0.15 0.05000001 1.082867E-15 1 1 1
v 0.05 0.05000001 -0.1 1 1 1
v 0.05 0.05000001 3.609557E-16 1 1 1
v -0.05 0.05000001 -0.1 1 1 1
v -0.05 0.05000001 7.219114E-16 1 1 1
v 0.9 0.3 4 1 1 1
v 1 0.3 4 1 1 1
v 0.9 0.1 4 1 1 1
v 1 0 4 1 1 1
v -1 0 4 1 1 1
v -0.9 0.1 4 1 1 1
v -1 0.3 4 1 1 1
v -0.9 0.3 4 1 1 1
v 0.1207107 0 4.170711 1 1 1
v 0.1207107 0.05000001 4.170711 1 1 1
v 0.15 0 4.1 1 1 1
v 0.15 0.05000001 4.1 1 1 1
v 0.05 0 4.2 1 1 1
v 0.05 0.05000001 4.2 1 1 1
v 0.05 0 4 1 1 1
v 0.05 0 4.1 1 1 1
v 0.15 0 4 1 1 1
v -0.05 0 4.2 1 1 1
v -0.05 0 4.1 1 1 1
v -0.05 0 4 1 1 1
v -0.1207107 0 4.170711 1 1 1
v -0.15 0 4.1 1 1 1
v -0.15 0 4 1 1 1
v -0.1207107 0.05000001 4.170711 1 1 1
v -0.15 0.05000001 4.1 1 1 1
v -0.05 0.05000001 4.2 1 1 1
v -0.15 0.05000001 4 1 1 1
v 0.15 0.05000001 4 1 1 1
v -0.05 0.05000001 4.1 1 1 1
v -0.05 0.05000001 4 1 1 1
v 0.05 0.05000001 4.1 1 1 1
v 0.05 0.05000001 4 1 1 1

vn 0.7071068 0.6951586 0.129439
vn 0.7071068 0.6464855 0.286455
vn -0.7071068 0.6951586 0.129439
vn -0.7071068 0.6464855 0.286455
vn 1 0 0
vn 0 -0.9142686 -0.4051086
vn 0 -0.9831028 -0.1830544
vn -1 0 0
vn 0 0.9831028 0.1830544
vn 0 0.9142686 0.4051086
vn -0.7071068 0.7071068 1.017203E-06
vn 0.7071068 0.7071068 1.017203E-06
vn 0 1 1.438542E-06
vn 0 -1 -1.438542E-06
vn 0.7071068 0.6464855 0.2864551
vn -0.7071068 0.6464855 0.2864551
vn 0 -0.9142686 -0.4051087
vn 0 0.9142686 0.4051087
vn 0.7071068 0.7071068 0
vn 0.7071068 0.6951586 -0.1294391
vn -0.7071068 0.7071068 0
vn -0.7071068 0.6951586 -0.1294391
vn 0 -0.9831027 0.1830545
vn 0 -1 0
vn 0 1 0
vn 0 0.9831027 -0.1830545
vn 0.7071068 0.6464855 -0.286455
vn 0.7071068 0.6464855 -0.2864551
vn -0.7071068 0.6464855 -0.286455
vn -0.7071068 0.6464855 -0.2864551
vn 0 -0.9142686 0.4051086
vn 0 -0.9142686 0.4051086
vn 0 0.9142686 -0.4051086
vn 0 0.9142686 -0.4051086
vn 0.7071068 0.7071068 -1.053675E-06
vn -0.7071068 0.7071068 -1.053675E-06
vn 0 -1 1.490121E-06
vn 0 1 -1.490121E-06
vn 0 0 -1
vn -0.7071068 0 -0.7071068
vn -0.9807853 0 -0.1950903
vn -0.1950903 0 -0.9807853
vn 0.7071068 0 -0.7071068
vn 0.9807853 0 -0.1950903
vn 0.1950903 0 -0.9807853
vn 0 0 1
vn 0.7071068 0 0.7071068
vn 0.9807853 0 0.1950903
vn 0.1950903 0 0.9807853
vn -0.7071068 0 0.7071068
vn -0.9807853 0 0.1950903
vn -0.1950903 0 0.9807853
vn -1 0 7.21645E-16
vn 1 0 -7.21645E-16
vn -7.21645E-16 0 -1

vt 0.59375 0.475
vt 0.59375 0.3416667
vt 0.59375 0.275
vt 0.59375 0.025
vt 0.59375 0.225
vt 0.59375 0.09166666
vt 0.34375 0.025
vt 0.34375 0.225

usemtl colormap

f 3/1/3 2/1/2 1/1/1
f 2/1/2 3/1/3 4/1/4
f 7/1/2 6/2/5 5/1/1
f 6/2/5 7/1/2 8/2/5
f 11/3/6 10/3/7 9/3/6
f 10/3/7 11/3/6 12/3/7
f 11/3/8 13/1/3 12/3/8
f 13/1/3 11/3/8 14/1/4
f 13/1/3 7/1/2 5/1/1
f 7/1/2 13/1/3 14/1/4
f 2/1/2 10/3/5 1/1/1
f 10/3/5 2/1/2 9/3/5
f 16/2/8 3/1/3 15/2/8
f 3/1/3 16/2/8 4/1/4
f 6/2/9 16/2/10 15/2/9
f 16/2/10 6/2/9 8/2/10
f 12/4/8 18/5/11 17/4/8
f 18/5/11 12/4/8 13/5/3
f 5/5/1 18/5/11 13/5/3
f 18/5/11 5/5/1 19/5/12
f 5/5/1 20/6/5 19/5/12
f 20/6/5 5/5/1 6/6/5
f 20/6/13 15/6/9 21/6/13
f 15/6/9 20/6/13 6/6/9
f 15/6/8 22/5/11 21/6/8
f 22/5/11 15/6/8 3/5/3
f 1/5/1 22/5/11 3/5/3
f 22/5/11 1/5/1 23/5/12
f 1/5/1 24/4/5 23/5/12
f 24/4/5 1/5/1 10/4/5
f 12/4/7 24/4/14 10/4/7
f 24/4/14 12/4/7 17/4/14
f 27/1/16 26/1/1 25/1/15
f 26/1/1 27/1/16 28/1/3
f 31/1/1 30/2/5 29/1/15
f 30/2/5 31/1/1 32/2/5
f 35/3/7 34/3/17 33/3/7
f 34/3/17 35/3/7 36/3/17
f 35/3/8 37/1/16 36/3/8
f 37/1/16 35/3/8 38/1/3
f 37/1/16 31/1/1 29/1/15
f 31/1/1 37/1/16 38/1/3
f 26/1/1 34/3/5 25/1/15
f 34/3/5 26/1/1 33/3/5
f 40/2/8 27/1/16 39/2/8
f 27/1/16 40/2/8 28/1/3
f 30/2/18 40/2/9 39/2/18
f 40/2/9 30/2/18 32/2/9
f 36/4/8 14/5/4 11/4/8
f 14/5/4 36/4/8 37/5/16
f 29/5/15 14/5/4 37/5/16
f 14/5/4 29/5/15 7/5/2
f 29/5/15 8/6/5 7/5/2
f 8/6/5 29/5/15 30/6/5
f 8/6/10 39/6/18 16/6/10
f 39/6/18 8/6/10 30/6/18
f 39/6/8 4/5/4 16/6/8
f 4/5/4 39/6/8 27/5/16
f 25/5/15 4/5/4 27/5/16
f 4/5/4 25/5/15 2/5/2
f 25/5/15 9/4/5 2/5/2
f 9/4/5 25/5/15 34/4/5
f 36/4/17 9/4/6 34/4/17
f 9/4/6 36/4/17 11/4/6
f 43/1/21 42/1/20 41/1/19
f 42/1/20 43/1/21 44/1/22
f 47/1/20 46/2/5 45/1/19
f 46/2/5 47/1/20 48/2/5
f 51/3/23 50/3/24 49/3/23
f 50/3/24 51/3/23 52/3/24
f 51/3/8 53/1/21 52/3/8
f 53/1/21 51/3/8 54/1/22
f 53/1/21 47/1/20 45/1/19
f 47/1/20 53/1/21 54/1/22
f 42/1/20 50/3/5 41/1/19
f 50/3/5 42/1/20 49/3/5
f 56/2/8 43/1/21 55/2/8
f 43/1/21 56/2/8 44/1/22
f 46/2/25 56/2/26 55/2/25
f 56/2/26 46/2/25 48/2/26
f 52/4/8 38/5/3 35/4/8
f 38/5/3 52/4/8 53/5/21
f 45/5/19 38/5/3 53/5/21
f 38/5/3 45/5/19 31/5/1
f 45/5/19 32/6/5 31/5/1
f 32/6/5 45/5/19 46/6/5
f 32/6/9 55/6/25 40/6/9
f 55/6/25 32/6/9 46/6/25
f 55/6/8 28/5/3 40/6/8
f 28/5/3 55/6/8 43/5/21
f 41/5/19 28/5/3 43/5/21
f 28/5/3 41/5/19 26/5/1
f 41/5/19 33/4/5 26/5/1
f 33/4/5 41/5/19 50/4/5
f 52/4/24 33/4/7 50/4/24
f 33/4/7 52/4/24 35/4/7
f 59/1/29 58/1/28 57/1/27
f 58/1/28 59/1/29 60/1/30
f 63/1/28 62/2/5 61/1/27
f 62/2/5 63/1/28 64/2/5
f 67/3/31 66/3/32 65/3/31
f 66/3/32 67/3/31 68/3/32
f 67/3/8 69/1/29 68/3/8
f 69/1/29 67/3/8 70/1/30
f 69/1/29 63/1/28 61/1/27
f 63/1/28 69/1/29 70/1/30
f 58/1/28 66/3/5 57/1/27
f 66/3/5 58/1/28 65/3/5
f 72/2/8 59/1/29 71/2/8
f 59/1/29 72/2/8 60/1/30
f 62/2/33 72/2/34 71/2/33
f 72/2/34 62/2/33 64/2/34
f 68/4/8 54/5/22 51/4/8
f 54/5/22 68/4/8 69/5/29
f 61/5/27 54/5/22 69/5/29
f 54/5/22 61/5/27 47/5/20
f 61/5/27 48/6/5 47/5/20
f 48/6/5 61/5/27 62/6/5
f 48/6/26 71/6/33 56/6/26
f 71/6/33 48/6/26 62/6/33
f 71/6/8 44/5/22 56/6/8
f 44/5/22 71/6/8 59/5/29
f 57/5/27 44/5/22 59/5/29
f 44/5/22 57/5/27 42/5/20
f 57/5/27 49/4/5 42/5/20
f 49/4/5 57/5/27 66/4/5
f 68/4/32 49/4/23 66/4/32
f 49/4/23 68/4/32 51/4/23
f 75/1/22 74/1/35 73/1/20
f 74/1/35 75/1/22 76/1/36
f 79/1/35 78/2/5 77/1/20
f 78/2/5 79/1/35 80/2/5
f 83/3/37 82/3/23 81/3/37
f 82/3/23 83/3/37 84/3/23
f 83/3/8 85/1/22 84/3/8
f 85/1/22 83/3/8 86/1/36
f 85/1/22 79/1/35 77/1/20
f 79/1/35 85/1/22 86/1/36
f 74/1/35 82/3/5 73/1/20
f 82/3/5 74/1/35 81/3/5
f 88/2/8 75/1/22 87/2/8
f 75/1/22 88/2/8 76/1/36
f 78/2/26 88/2/38 87/2/26
f 88/2/38 78/2/26 80/2/38
f 84/4/8 70/5/30 67/4/8
f 70/5/30 84/4/8 85/5/22
f 77/5/20 70/5/30 85/5/22
f 70/5/30 77/5/20 63/5/28
f 77/5/20 64/6/5 63/5/28
f 64/6/5 77/5/20 78/6/5
f 64/6/34 87/6/26 72/6/34
f 87/6/26 64/6/34 78/6/26
f 87/6/8 60/5/30 72/6/8
f 60/5/30 87/6/8 75/5/22
f 73/5/20 60/5/30 75/5/22
f 60/5/30 73/5/20 58/5/28
f 73/5/20 65/4/5 58/5/28
f 65/4/5 73/5/20 82/4/5
f 84/4/23 65/4/31 82/4/23
f 65/4/31 84/4/23 67/4/31
f 91/6/39 90/5/39 89/5/39
f 91/6/39 92/4/39 90/5/39
f 92/4/39 91/6/39 93/4/39
f 94/6/39 93/4/39 91/6/39
f 93/4/39 94/6/39 95/5/39
f 95/5/39 94/6/39 96/5/39
f 99/7/41 98/8/40 97/7/40
f 98/8/40 99/7/41 100/8/41
f 98/8/40 101/7/42 97/7/40
f 101/7/42 98/8/40 102/8/42
f 105/7/24 104/7/24 103/7/24
f 104/7/24 105/7/24 101/7/24
f 101/7/24 105/7/24 97/7/24
f 97/7/24 105/7/24 99/7/24
f 106/7/24 104/7/24 101/7/24
f 106/7/24 107/7/24 104/7/24
f 106/7/24 108/7/24 107/7/24
f 109/7/24 108/7/24 106/7/24
f 110/7/24 108/7/24 109/7/24
f 108/7/24 110/7/24 111/7/24
f 113/8/44 109/7/43 112/8/43
f 109/7/43 113/8/44 110/7/44
f 114/8/45 109/7/43 106/7/45
f 109/7/43 114/8/45 112/8/43
f 115/8/5 110/7/44 113/8/44
f 110/7/44 115/8/5 111/7/5
f 105/7/8 100/8/41 99/7/41
f 100/8/41 105/7/8 116/8/8
f 102/8/42 106/7/45 101/7/42
f 106/7/45 102/8/42 114/8/45
f 108/7/8 117/8/8 107/7/8
f 117/8/8 108/7/8 118/8/8
f 117/8/46 104/7/46 107/7/46
f 104/7/46 117/8/46 119/8/46
f 120/8/5 104/7/5 119/8/5
f 104/7/5 120/8/5 103/7/5
f 116/8/25 98/8/25 100/8/25
f 120/8/25 98/8/25 116/8/25
f 119/8/25 98/8/25 120/8/25
f 119/8/25 102/8/25 98/8/25
f 117/8/25 102/8/25 119/8/25
f 102/8/25 117/8/25 114/8/25
f 118/8/25 114/8/25 117/8/25
f 118/8/25 112/8/25 114/8/25
f 115/8/25 112/8/25 118/8/25
f 112/8/25 115/8/25 113/8/25
f 123/2/46 122/1/46 121/1/46
f 123/2/46 124/3/46 122/1/46
f 124/3/46 123/2/46 125/3/46
f 126/2/46 125/3/46 123/2/46
f 125/3/46 126/2/46 127/1/46
f 127/1/46 126/2/46 128/1/46
f 131/7/48 130/8/47 129/7/47
f 130/8/47 131/7/48 132/8/48
f 130/8/47 133/7/49 129/7/47
f 133/7/49 130/8/47 134/8/49
f 137/7/24 136/7/24 135/7/24
f 136/7/24 137/7/24 133/7/24
f 133/7/24 137/7/24 129/7/24
f 129/7/24 137/7/24 131/7/24
f 138/7/24 136/7/24 133/7/24
f 138/7/24 139/7/24 136/7/24
f 138/7/24 140/7/24 139/7/24
f 141/7/24 140/7/24 138/7/24
f 142/7/24 140/7/24 141/7/24
f 140/7/24 142/7/24 143/7/24
f 145/8/51 141/7/50 144/8/50
f 141/7/50 145/8/51 142/7/51
f 146/8/52 141/7/50 138/7/52
f 141/7/50 146/8/52 144/8/50
f 147/8/53 142/7/51 145/8/51
f 142/7/51 147/8/53 143/7/53
f 137/7/54 132/8/48 131/7/48
f 132/8/48 137/7/54 148/8/54
f 134/8/49 138/7/52 133/7/49
f 138/7/52 134/8/49 146/8/52
f 140/7/54 149/8/54 139/7/54
f 149/8/54 140/7/54 150/8/54
f 149/8/55 136/7/55 139/7/55
f 136/7/55 149/8/55 151/8/55
f 152/8/53 136/7/53 151/8/53
f 136/7/53 152/8/53 135/7/53
f 148/8/25 130/8/25 132/8/25
f 152/8/25 130/8/25 148/8/25
f 151/8/25 130/8/25 152/8/25
f 151/8/25 134/8/25 130/8/25
f 149/8/25 134/8/25 151/8/25
f 134/8/25 149/8/25 146/8/25
f 150/8/25 146/8/25 149/8/25
f 150/8/25 144/8/25 146/8/25
f 147/8/25 144/8/25 150/8/25
f 144/8/25 147/8/25 145/8/25

g track-striped-wide-straight-bump-down




usemtl colormap

f 3/1/3 2/1/2 1/1/1
f 2/1/2 3/1/3 4/1/4
f 7/1/2 6/2/5 5/1/1
f 6/2/5 7/1/2 8/2/5
f 11/3/6 10/3/7 9/3/6
f 10/3/7 11/3/6 12/3/7
f 11/3/8 13/1/3 12/3/8
f 13/1/3 11/3/8 14/1/4
f 13/1/3 7/1/2 5/1/1
f 7/1/2 13/1/3 14/1/4
f 2/1/2 10/3/5 1/1/1
f 10/3/5 2/1/2 9/3/5
f 16/2/8 3/1/3 15/2/8
f 3/1/3 16/2/8 4/1/4
f 6/2/9 16/2/10 15/2/9
f 16/2/10 6/2/9 8/2/10
f 12/4/8 18/5/11 17/4/8
f 18/5/11 12/4/8 13/5/3
f 5/5/1 18/5/11 13/5/3
f 18/5/11 5/5/1 19/5/12
f 5/5/1 20/6/5 19/5/12
f 20/6/5 5/5/1 6/6/5
f 20/6/13 15/6/9 21/6/13
f 15/6/9 20/6/13 6/6/9
f 15/6/8 22/5/11 21/6/8
f 22/5/11 15/6/8 3/5/3
f 1/5/1 22/5/11 3/5/3
f 22/5/11 1/5/1 23/5/12
f 1/5/1 24/4/5 23/5/12
f 24/4/5 1/5/1 10/4/5
f 12/4/7 24/4/14 10/4/7
f 24/4/14 12/4/7 17/4/14
f 27/1/16 26/1/1 25/1/15
f 26/1/1 27/1/16 28/1/3
f 31/1/1 30/2/5 29/1/15
f 30/2/5 31/1/1 32/2/5
f 35/3/7 34/3/17 33/3/7
f 34/3/17 35/3/7 36/3/17
f 35/3/8 37/1/16 36/3/8
f 37/1/16 35/3/8 38/1/3
f 37/1/16 31/1/1 29/1/15
f 31/1/1 37/1/16 38/1/3
f 26/1/1 34/3/5 25/1/15
f 34/3/5 26/1/1 33/3/5
f 40/2/8 27/1/16 39/2/8
f 27/1/16 40/2/8 28/1/3
f 30/2/18 40/2/9 39/2/18
f 40/2/9 30/2/18 32/2/9
f 36/4/8 14/5/4 11/4/8
f 14/5/4 36/4/8 37/5/16
f 29/5/15 14/5/4 37/5/16
f 14/5/4 29/5/15 7/5/2
f 29/5/15 8/6/5 7/5/2
f 8/6/5 29/5/15 30/6/5
f 8/6/10 39/6/18 16/6/10
f 39/6/18 8/6/10 30/6/18
f 39/6/8 4/5/4 16/6/8
f 4/5/4 39/6/8 27/5/16
f 25/5/15 4/5/4 27/5/16
f 4/5/4 25/5/15 2/5/2
f 25/5/15 9/4/5 2/5/2
f 9/4/5 25/5/15 34/4/5
f 36/4/17 9/4/6 34/4/17
f 9/4/6 36/4/17 11/4/6
f 43/1/21 42/1/20 41/1/19
f 42/1/20 43/1/21 44/1/22
f 47/1/20 46/2/5 45/1/19
f 46/2/5 47/1/20 48/2/5
f 51/3/23 50/3/24 49/3/23
f 50/3/24 51/3/23 52/3/24
f 51/3/8 53/1/21 52/3/8
f 53/1/21 51/3/8 54/1/22
f 53/1/21 47/1/20 45/1/19
f 47/1/20 53/1/21 54/1/22
f 42/1/20 50/3/5 41/1/19
f 50/3/5 42/1/20 49/3/5
f 56/2/8 43/1/21 55/2/8
f 43/1/21 56/2/8 44/1/22
f 46/2/25 56/2/26 55/2/25
f 56/2/26 46/2/25 48/2/26
f 52/4/8 38/5/3 35/4/8
f 38/5/3 52/4/8 53/5/21
f 45/5/19 38/5/3 53/5/21
f 38/5/3 45/5/19 31/5/1
f 45/5/19 32/6/5 31/5/1
f 32/6/5 45/5/19 46/6/5
f 32/6/9 55/6/25 40/6/9
f 55/6/25 32/6/9 46/6/25
f 55/6/8 28/5/3 40/6/8
f 28/5/3 55/6/8 43/5/21
f 41/5/19 28/5/3 43/5/21
f 28/5/3 41/5/19 26/5/1
f 41/5/19 33/4/5 26/5/1
f 33/4/5 41/5/19 50/4/5
f 52/4/24 33/4/7 50/4/24
f 33/4/7 52/4/24 35/4/7
f 59/1/29 58/1/28 57/1/27
f 58/1/28 59/1/29 60/1/30
f 63/1/28 62/2/5 61/1/27
f 62/2/5 63/1/28 64/2/5
f 67/3/31 66/3/32 65/3/31
f 66/3/32 67/3/31 68/3/32
f 67/3/8 69/1/29 68/3/8
f 69/1/29 67/3/8 70/1/30
f 69/1/29 63/1/28 61/1/27
f 63/1/28 69/1/29 70/1/30
f 58/1/28 66/3/5 57/1/27
f 66/3/5 58/1/28 65/3/5
f 72/2/8 59/1/29 71/2/8
f 59/1/29 72/2/8 60/1/30
f 62/2/33 72/2/34 71/2/33
f 72/2/34 62/2/33 64/2/34
f 68/4/8 54/5/22 51/4/8
f 54/5/22 68/4/8 69/5/29
f 61/5/27 54/5/22 69/5/29
f 54/5/22 61/5/27 47/5/20
f 61/5/27 48/6/5 47/5/20
f 48/6/5 61/5/27 62/6/5
f 48/6/26 71/6/33 56/6/26
f 71/6/33 48/6/26 62/6/33
f 71/6/8 44/5/22 56/6/8
f 44/5/22 71/6/8 59/5/29
f 57/5/27 44/5/22 59/5/29
f 44/5/22 57/5/27 42/5/20
f 57/5/27 49/4/5 42/5/20
f 49/4/5 57/5/27 66/4/5
f 68/4/32 49/4/23 66/4/32
f 49/4/23 68/4/32 51/4/23
f 75/1/22 74/1/35 73/1/20
f 74/1/35 75/1/22 76/1/36
f 79/1/35 78/2/5 77/1/20
f 78/2/5 79/1/35 80/2/5
f 83/3/37 82/3/23 81/3/37
f 82/3/23 83/3/37 84/3/23
f 83/3/8 85/1/22 84/3/8
f 85/1/22 83/3/8 86/1/36
f 85/1/22 79/1/35 77/1/20
f 79/1/35 85/1/22 86/1/36
f 74/1/35 82/3/5 73/1/20
f 82/3/5 74/1/35 81/3/5
f 88/2/8 75/1/22 87/2/8
f 75/1/22 88/2/8 76/1/36
f 78/2/26 88/2/38 87/2/26
f 88/2/38 78/2/26 80/2/38
f 84/4/8 70/5/30 67/4/8
f 70/5/30 84/4/8 85/5/22
f 77/5/20 70/5/30 85/5/22
f 70/5/30 77/5/20 63/5/28
f 77/5/20 64/6/5 63/5/28
f 64/6/5 77/5/20 78/6/5
f 64/6/34 87/6/26 72/6/34
f 87/6/26 64/6/34 78/6/26
f 87/6/8 60/5/30 72/6/8
f 60/5/30 87/6/8 75/5/22
f 73/5/20 60/5/30 75/5/22
f 60/5/30 73/5/20 58/5/28
f 73/5/20 65/4/5 58/5/28
f 65/4/5 73/5/20 82/4/5
f 84/4/23 65/4/31 82/4/23
f 65/4/31 84/4/23 67/4/31
f 91/6/39 90/5/39 89/5/39
f 91/6/39 92/4/39 90/5/39
f 92/4/39 91/6/39 93/4/39
f 94/6/39 93/4/39 91/6/39
f 93/4/39 94/6/39 95/5/39
f 95/5/39 94/6/39 96/5/39
f 99/7/41 98/8/40 97/7/40
f 98/8/40 99/7/41 100/8/41
f 98/8/40 101/7/42 97/7/40
f 101/7/42 98/8/40 102/8/42
f 105/7/24 104/7/24 103/7/24
f 104/7/24 105/7/24 101/7/24
f 101/7/24 105/7/24 97/7/24
f 97/7/24 105/7/24 99/7/24
f 106/7/24 104/7/24 101/7/24
f 106/7/24 107/7/24 104/7/24
f 106/7/24 108/7/24 107/7/24
f 109/7/24 108/7/24 106/7/24
f 110/7/24 108/7/24 109/7/24
f 108/7/24 110/7/24 111/7/24
f 113/8/44 109/7/43 112/8/43
f 109/7/43 113/8/44 110/7/44
f 114/8/45 109/7/43 106/7/45
f 109/7/43 114/8/45 112/8/43
f 115/8/5 110/7/44 113/8/44
f 110/7/44 115/8/5 111/7/5
f 105/7/8 100/8/41 99/7/41
f 100/8/41 105/7/8 116/8/8
f 102/8/42 106/7/45 101/7/42
f 106/7/45 102/8/42 114/8/45
f 108/7/8 117/8/8 107/7/8
f 117/8/8 108/7/8 118/8/8
f 117/8/46 104/7/46 107/7/46
f 104/7/46 117/8/46 119/8/46
f 120/8/5 104/7/5 119/8/5
f 104/7/5 120/8/5 103/7/5
f 116/8/25 98/8/25 100/8/25
f 120/8/25 98/8/25 116/8/25
f 119/8/25 98/8/25 120/8/25
f 119/8/25 102/8/25 98/8/25
f 117/8/25 102/8/25 119/8/25
f 102/8/25 117/8/25 114/8/25
f 118/8/25 114/8/25 117/8/25
f 118/8/25 112/8/25 114/8/25
f 115/8/25 112/8/25 118/8/25
f 112/8/25 115/8/25 113/8/25
f 123/2/46 122/1/46 121/1/46
f 123/2/46 124/3/46 122/1/46
f 124/3/46 123/2/46 125/3/46
f 126/2/46 125/3/46 123/2/46
f 125/3/46 126/2/46 127/1/46
f 127/1/46 126/2/46 128/1/46
f 131/7/48 130/8/47 129/7/47
f 130/8/47 131/7/48 132/8/48
f 130/8/47 133/7/49 129/7/47
f 133/7/49 130/8/47 134/8/49
f 137/7/24 136/7/24 135/7/24
f 136/7/24 137/7/24 133/7/24
f 133/7/24 137/7/24 129/7/24
f 129/7/24 137/7/24 131/7/24
f 138/7/24 136/7/24 133/7/24
f 138/7/24 139/7/24 136/7/24
f 138/7/24 140/7/24 139/7/24
f 141/7/24 140/7/24 138/7/24
f 142/7/24 140/7/24 141/7/24
f 140/7/24 142/7/24 143/7/24
f 145/8/51 141/7/50 144/8/50
f 141/7/50 145/8/51 142/7/51
f 146/8/52 141/7/50 138/7/52
f 141/7/50 146/8/52 144/8/50
f 147/8/53 142/7/51 145/8/51
f 142/7/51 147/8/53 143/7/53
f 137/7/54 132/8/48 131/7/48
f 132/8/48 137/7/54 148/8/54
f 134/8/49 138/7/52 133/7/49
f 138/7/52 134/8/49 146/8/52
f 140/7/54 149/8/54 139/7/54
f 149/8/54 140/7/54 150/8/54
f 149/8/55 136/7/55 139/7/55
f 136/7/55 149/8/55 151/8/55
f 152/8/53 136/7/53 151/8/53
f 136/7/53 152/8/53 135/7/53
f 148/8/25 130/8/25 132/8/25
f 152/8/25 130/8/25 148/8/25
f 151/8/25 130/8/25 152/8/25
f 151/8/25 134/8/25 130/8/25
f 149/8/25 134/8/25 151/8/25
f 134/8/25 149/8/25 146/8/25
f 150/8/25 146/8/25 149/8/25
f 150/8/25 144/8/25 146/8/25
f 147/8/25 144/8/25 150/8/25
f 144/8/25 147/8/25 145/8/25

