# Created by Kenney (www.kenney.nl)

mtllib track-wide-straight-hill-end.mtl

g track-wide-straight-hill-end

v -1 2.861023E-06 2.861023E-06 1 1 1
v -1 0.24714 0.335897 1 1 1
v 1 2.861023E-06 2.861023E-06 1 1 1
v 1 0.24714 0.335897 1 1 1
v -1 0.4274385 0.7138939 1 1 1
v 1 0.4274385 0.7138939 1 1 1
v -1 0.2121357 -0.2121282 1 1 1
v -1 0.5077028 0.1872125 1 1 1
v -1 0.7055615 0.6014323 1 1 1
v 1 0.2121357 -0.2121282 1 1 1
v 1 0.5077028 0.1872125 1 1 1
v 1 0.7055615 0.6014323 1 1 1
v 0.8999996 0.07071376 -0.07070732 1 1 1
v 0.8999996 0.3339944 0.2863355 1 1 1
v -0.8999996 0.07071376 -0.07070732 1 1 1
v -0.8999996 0.3339944 0.2863355 1 1 1
v 0.8999996 0.5201461 0.6764064 1 1 1
v -0.8999996 0.5201461 0.6764064 1 1 1
v -0.8999996 0.2121357 -0.2121282 1 1 1
v -0.8999996 0.5077028 0.1872125 1 1 1
v -0.8999996 0.7055615 0.6014323 1 1 1
v 0.8999996 0.2121357 -0.2121282 1 1 1
v 0.8999996 0.5077028 0.1872125 1 1 1
v 0.8999996 0.7055615 0.6014323 1 1 1
v -1 0.5672119 1.108677 1 1 1
v 1 0.5672119 1.108677 1 1 1
v -1 0.6796386 1.512445 1 1 1
v 1 0.6796386 1.512445 1 1 1
v -1 0.8536434 1.019475 1 1 1
v -1 0.9707435 1.439934 1 1 1
v 1 0.8536434 1.019475 1 1 1
v 1 0.9707435 1.439934 1 1 1
v 0.8999996 0.662689 1.078943 1 1 1
v -0.8999996 0.662689 1.078943 1 1 1
v 0.8999996 0.7766736 1.488275 1 1 1
v -0.8999996 0.7766736 1.488275 1 1 1
v -0.8999996 0.8536434 1.019475 1 1 1
v -0.8999996 0.9707435 1.439934 1 1 1
v 0.8999996 0.8536434 1.019475 1 1 1
v 0.8999996 0.9707435 1.439934 1 1 1
v -1 0.7714809 1.921146 1 1 1
v 1 0.7714809 1.921146 1 1 1
v -1 0.8467203 2.333336 1 1 1
v 1 0.8467203 2.333336 1 1 1
v -1 1.065526 1.861668 1 1 1
v -1 1.142773 2.284831 1 1 1
v 1 1.065526 1.861668 1 1 1
v 1 1.142773 2.284831 1 1 1
v 0.8999996 0.8694959 1.90132 1 1 1
v -0.8999996 0.8694959 1.90132 1 1 1
v 0.8999996 0.9454046 2.317168 1 1 1
v -0.8999996 0.9454046 2.317168 1 1 1
v -0.8999996 1.065526 1.861668 1 1 1
v -0.8999996 1.142773 2.284831 1 1 1
v 0.8999996 1.065526 1.861668 1 1 1
v 0.8999996 1.142773 2.284831 1 1 1
v -1 0.9074409 2.747869 1 1 1
v 1 0.9074409 2.747869 1 1 1
v -1 0.9544224 3.164429 1 1 1
v 1 0.9544224 3.164429 1 1 1
v -1 1.204955 2.709327 1 1 1
v -1 1.253055 3.135818 1 1 1
v 1 1.204955 2.709327 1 1 1
v 1 1.253055 3.135818 1 1 1
v 0.8999996 1.006612 2.735022 1 1 1
v -0.8999996 1.006612 2.735022 1 1 1
v 0.8999996 1.053967 3.154892 1 1 1
v -0.8999996 1.053967 3.154892 1 1 1
v -0.8999996 1.204955 2.709327 1 1 1
v -0.8999996 1.253055 3.135818 1 1 1
v 0.8999996 1.204955 2.709327 1 1 1
v 0.8999996 1.253055 3.135818 1 1 1
v -1 0.9867454 3.582261 1 1 1
v 1 0.9867454 3.582261 1 1 1
v -1 1 3.999996 1 1 1
v 1 1 3.999996 1 1 1
v -1 1.286251 3.565041 1 1 1
v -1 1.3 3.999996 1 1 1
v 1 1.286251 3.565041 1 1 1
v 1 1.3 3.999996 1 1 1
v 0.8999996 1.086581 3.576521 1 1 1
v -0.8999996 1.086581 3.576521 1 1 1
v 0.8999996 1.1 3.999996 1 1 1
v -0.8999996 1.1 3.999996 1 1 1
v -0.8999996 1.286251 3.565041 1 1 1
v -0.8999996 1.3 3.999996 1 1 1
v 0.8999996 1.286251 3.565041 1 1 1
v 0.8999996 1.3 3.999996 1 1 1
v -0.9 0.212132 -0.2121321 1 1 1
v -1 0.212132 -0.2121321 1 1 1
v -0.9 0.07071066 -0.07071068 1 1 1
v -1 0 0 1 1 1
v 1 0 0 1 1 1
v 0.9 0.07071066 -0.07071068 1 1 1
v 1 0.212132 -0.2121321 1 1 1
v 0.9 0.212132 -0.2121321 1 1 1
v -0.1207107 -0.1207107 -0.1207107 1 1 1
v -0.1207107 -0.0853554 -0.156066 1 1 1
v -0.15 -0.07071066 -0.07071067 1 1 1
v -0.15 -0.03535533 -0.106066 1 1 1
v -0.05 -0.1414213 -0.1414213 1 1 1
v -0.05 -0.106066 -0.1767767 1 1 1
v -0.05 0 5.104684E-16 1 1 1
v -0.05 -0.07071066 -0.07071067 1 1 1
v -0.15 0 7.657026E-16 1 1 1
v 0.05 -0.1414213 -0.1414213 1 1 1
v 0.05 -0.07071066 -0.07071067 1 1 1
v 0.05 0 2.552342E-16 1 1 1
v 0.1207107 -0.1207107 -0.1207107 1 1 1
v 0.15 -0.07071066 -0.07071067 1 1 1
v 0.15 0 -1.133468E-31 1 1 1
v 0.1207107 -0.0853554 -0.156066 1 1 1
v 0.15 -0.03535533 -0.106066 1 1 1
v 0.05 -0.106066 -0.1767767 1 1 1
v 0.15 0.03535533 -0.03535534 1 1 1
v -0.15 0.03535533 -0.03535534 1 1 1
v 0.05 -0.03535533 -0.106066 1 1 1
v 0.05 0.03535533 -0.03535534 1 1 1
v -0.05 -0.03535533 -0.106066 1 1 1
v -0.05 0.03535533 -0.03535534 1 1 1
v 0.9 1.3 4 1 1 1
v 1 1.3 4 1 1 1
v 0.9 1.1 4 1 1 1
v 1 1 4 1 1 1
v -1 1 4 1 1 1
v -0.9 1.1 4 1 1 1
v -1 1.3 4 1 1 1
v -0.9 1.3 4 1 1 1
v 0.1207107 1 4.170711 1 1 1
v 0.1207107 1.05 4.170711 1 1 1
v 0.15 1 4.1 1 1 1
v 0.15 1.05 4.1 1 1 1
v 0.05 1 4.2 1 1 1
v 0.05 1.05 4.2 1 1 1
v 0.05 1 4 1 1 1
v 0.05 1 4.1 1 1 1
v 0.15 1 4 1 1 1
v -0.05 1 4.2 1 1 1
v -0.05 1 4.1 1 1 1
v -0.05 1 4 1 1 1
v -0.1207107 1 4.170711 1 1 1
v -0.15 1 4.1 1 1 1
v -0.15 1 4 1 1 1
v -0.1207107 1.05 4.170711 1 1 1
v -0.15 1.05 4.1 1 1 1
v -0.05 1.05 4.2 1 1 1
v -0.15 1.05 4 1 1 1
v 0.15 1.05 4 1 1 1
v -0.05 1.05 4.1 1 1 1
v -0.05 1.05 4 1 1 1
v 0.05 1.05 4.1 1 1 1
v 0.05 1.05 4 1 1 1

vn 0 -0.7071094 0.7071041
vn 0 -0.8685422 0.4956152
vn 0 -0.9270768 0.3748715
vn -1 0 0
vn -0.7071068 0.5000018 -0.4999981
vn -0.7071068 0.6141521 -0.3504528
vn -0.7071068 0.6555423 -0.2650741
vn 0.7071068 0.5000018 -0.4999981
vn 1 0 0
vn 0.7071068 0.6141521 -0.3504528
vn 0.7071068 0.6555423 -0.2650741
vn 0 0.7071094 -0.7071041
vn 0 0.8685422 -0.4956152
vn 0 0.9270768 -0.3748715
vn 0 -0.9547718 0.2973395
vn 0 -0.9703496 0.241706
vn -0.7071068 0.6751256 -0.2102508
vn -0.7071068 0.6861407 -0.1709119
vn 0.7071068 0.6751256 -0.2102508
vn 0.7071068 0.6861407 -0.1709119
vn 0 0.9547718 -0.2973395
vn 0 0.9703496 -0.241706
vn 0 -0.9801493 0.1982611
vn 0 -0.986843 0.1616814
vn -0.7071068 0.6930702 -0.1401917
vn -0.7071068 0.6978034 -0.114326
vn 0.7071068 0.6930702 -0.1401917
vn 0.7071068 0.6978034 -0.114326
vn 0 0.9801493 -0.1982611
vn 0 0.986843 -0.1616814
vn 0 -0.9917128 0.1284743
vn 0 -0.9954419 0.09536958
vn -0.7071068 0.7012469 -0.09084508
vn -0.7071068 0.7038837 -0.06743648
vn 0.7071068 0.7012469 -0.09084508
vn 0.7071068 0.7038837 -0.06743648
vn 0 0.9917128 -0.1284743
vn 0 0.9954419 -0.09536958
vn 0 -0.9983512 0.05740086
vn 0 -1 8.741981E-07
vn -0.7071068 0.7059409 -0.04058854
vn -0.7071068 0.7071068 -6.181514E-07
vn 0.7071068 0.7059409 -0.04058854
vn 0.7071068 0.7071068 -6.181514E-07
vn 0 0.9983512 -0.05740086
vn 0 1 -8.741981E-07
vn 0 -0.7071068 -0.7071067
vn -0.7071068 -0.5 -0.4999999
vn -0.9807853 -0.1379497 -0.1379497
vn -0.1950903 -0.6935199 -0.6935198
vn 0 -0.7071067 0.7071068
vn 0.7071068 -0.5 -0.4999999
vn 0.9807853 -0.1379497 -0.1379497
vn 0.1950903 -0.6935199 -0.6935198
vn 0 0.7071068 0.7071067
vn 0 0.7071067 -0.7071068
vn 0 0 1
vn 0.7071068 0 0.7071068
vn 0.9807853 0 0.1950903
vn 0.1950903 0 0.9807853
vn 0 -1 0
vn -0.7071068 0 0.7071068
vn -0.9807853 0 0.1950903
vn -0.1950903 0 0.9807853
vn -1 0 7.21645E-16
vn 1 0 -7.21645E-16
vn -7.21645E-16 0 -1
vn 0 1 0

vt 0.46875 0.275
vt 0.46875 0.475
vt 0.46875 0.3416667
vt 0.71875 0.275
vt 0.71875 0.475

usemtl colormap

f 3/1/1 2/1/2 1/1/1
f 2/1/2 3/1/1 4/1/2
f 4/1/2 5/1/3 2/1/2
f 5/1/3 4/1/2 6/1/3
f 2/1/4 7/2/5 1/1/4
f 7/2/5 2/1/4 8/2/6
f 5/1/4 8/2/6 2/1/4
f 8/2/6 5/1/4 9/2/7
f 11/2/10 3/1/9 10/2/8
f 3/1/9 11/2/10 4/1/9
f 12/2/11 4/1/9 11/2/10
f 4/1/9 12/2/11 6/1/9
f 15/3/12 14/3/13 13/3/12
f 14/3/13 15/3/12 16/3/13
f 16/3/13 17/3/14 14/3/13
f 17/3/14 16/3/13 18/3/14
f 7/2/5 20/2/10 19/2/8
f 20/2/10 7/2/5 8/2/6
f 8/2/6 21/2/11 20/2/10
f 21/2/11 8/2/6 9/2/7
f 20/2/10 15/3/9 19/2/8
f 15/3/9 20/2/10 16/3/9
f 21/2/11 16/3/9 20/2/10
f 16/3/9 21/2/11 18/3/9
f 22/2/5 11/2/10 10/2/8
f 11/2/10 22/2/5 23/2/6
f 23/2/6 12/2/11 11/2/10
f 12/2/11 23/2/6 24/2/7
f 14/3/4 22/2/5 13/3/4
f 22/2/5 14/3/4 23/2/6
f 17/3/4 23/2/6 14/3/4
f 23/2/6 17/3/4 24/2/7
f 6/1/3 25/1/15 5/1/3
f 25/1/15 6/1/3 26/1/15
f 26/1/15 27/1/16 25/1/15
f 27/1/16 26/1/15 28/1/16
f 25/1/4 9/2/7 5/1/4
f 9/2/7 25/1/4 29/2/17
f 27/1/4 29/2/17 25/1/4
f 29/2/17 27/1/4 30/2/18
f 31/2/19 6/1/9 12/2/11
f 6/1/9 31/2/19 26/1/9
f 32/2/20 26/1/9 31/2/19
f 26/1/9 32/2/20 28/1/9
f 18/3/14 33/3/21 17/3/14
f 33/3/21 18/3/14 34/3/21
f 34/3/21 35/3/22 33/3/21
f 35/3/22 34/3/21 36/3/22
f 9/2/7 37/2/19 21/2/11
f 37/2/19 9/2/7 29/2/17
f 29/2/17 38/2/20 37/2/19
f 38/2/20 29/2/17 30/2/18
f 37/2/19 18/3/9 21/2/11
f 18/3/9 37/2/19 34/3/9
f 38/2/20 34/3/9 37/2/19
f 34/3/9 38/2/20 36/3/9
f 24/2/7 31/2/19 12/2/11
f 31/2/19 24/2/7 39/2/17
f 39/2/17 32/2/20 31/2/19
f 32/2/20 39/2/17 40/2/18
f 33/3/4 24/2/7 17/3/4
f 24/2/7 33/3/4 39/2/17
f 35/3/4 39/2/17 33/3/4
f 39/2/17 35/3/4 40/2/18
f 28/1/16 41/1/23 27/1/16
f 41/1/23 28/1/16 42/1/23
f 42/1/23 43/1/24 41/1/23
f 43/1/24 42/1/23 44/1/24
f 41/1/4 30/2/18 27/1/4
f 30/2/18 41/1/4 45/2/25
f 43/1/4 45/2/25 41/1/4
f 45/2/25 43/1/4 46/2/26
f 47/2/27 28/1/9 32/2/20
f 28/1/9 47/2/27 42/1/9
f 48/2/28 42/1/9 47/2/27
f 42/1/9 48/2/28 44/1/9
f 36/3/22 49/3/29 35/3/22
f 49/3/29 36/3/22 50/3/29
f 50/3/29 51/3/30 49/3/29
f 51/3/30 50/3/29 52/3/30
f 30/2/18 53/2/27 38/2/20
f 53/2/27 30/2/18 45/2/25
f 45/2/25 54/2/28 53/2/27
f 54/2/28 45/2/25 46/2/26
f 53/2/27 36/3/9 38/2/20
f 36/3/9 53/2/27 50/3/9
f 54/2/28 50/3/9 53/2/27
f 50/3/9 54/2/28 52/3/9
f 40/2/18 47/2/27 32/2/20
f 47/2/27 40/2/18 55/2/25
f 55/2/25 48/2/28 47/2/27
f 48/2/28 55/2/25 56/2/26
f 49/3/4 40/2/18 35/3/4
f 40/2/18 49/3/4 55/2/25
f 51/3/4 55/2/25 49/3/4
f 55/2/25 51/3/4 56/2/26
f 44/1/24 57/1/31 43/1/24
f 57/1/31 44/1/24 58/1/31
f 58/1/31 59/1/32 57/1/31
f 59/1/32 58/1/31 60/1/32
f 57/1/4 46/2/26 43/1/4
f 46/2/26 57/1/4 61/2/33
f 59/1/4 61/2/33 57/1/4
f 61/2/33 59/1/4 62/2/34
f 63/2/35 44/1/9 48/2/28
f 44/1/9 63/2/35 58/1/9
f 64/2/36 58/1/9 63/2/35
f 58/1/9 64/2/36 60/1/9
f 52/3/30 65/3/37 51/3/30
f 65/3/37 52/3/30 66/3/37
f 66/3/37 67/3/38 65/3/37
f 67/3/38 66/3/37 68/3/38
f 46/2/26 69/2/35 54/2/28
f 69/2/35 46/2/26 61/2/33
f 61/2/33 70/2/36 69/2/35
f 70/2/36 61/2/33 62/2/34
f 69/2/35 52/3/9 54/2/28
f 52/3/9 69/2/35 66/3/9
f 70/2/36 66/3/9 69/2/35
f 66/3/9 70/2/36 68/3/9
f 56/2/26 63/2/35 48/2/28
f 63/2/35 56/2/26 71/2/33
f 71/2/33 64/2/36 63/2/35
f 64/2/36 71/2/33 72/2/34
f 65/3/4 56/2/26 51/3/4
f 56/2/26 65/3/4 71/2/33
f 67/3/4 71/2/33 65/3/4
f 71/2/33 67/3/4 72/2/34
f 60/1/32 73/1/39 59/1/32
f 73/1/39 60/1/32 74/1/39
f 74/1/39 75/1/40 73/1/39
f 75/1/40 74/1/39 76/1/40
f 73/1/4 62/2/34 59/1/4
f 62/2/34 73/1/4 77/2/41
f 75/1/4 77/2/41 73/1/4
f 77/2/41 75/1/4 78/2/42
f 79/2/43 60/1/9 64/2/36
f 60/1/9 79/2/43 74/1/9
f 80/2/44 74/1/9 79/2/43
f 74/1/9 80/2/44 76/1/9
f 68/3/38 81/3/45 67/3/38
f 81/3/45 68/3/38 82/3/45
f 82/3/45 83/3/46 81/3/45
f 83/3/46 82/3/45 84/3/46
f 62/2/34 85/2/43 70/2/36
f 85/2/43 62/2/34 77/2/41
f 77/2/41 86/2/44 85/2/43
f 86/2/44 77/2/41 78/2/42
f 85/2/43 68/3/9 70/2/36
f 68/3/9 85/2/43 82/3/9
f 86/2/44 82/3/9 85/2/43
f 82/3/9 86/2/44 84/3/9
f 72/2/34 79/2/43 64/2/36
f 79/2/43 72/2/34 87/2/41
f 87/2/41 80/2/44 79/2/43
f 80/2/44 87/2/41 88/2/42
f 81/3/4 72/2/34 67/3/4
f 72/2/34 81/3/4 87/2/41
f 83/3/4 87/2/41 81/3/4
f 87/2/41 83/3/4 88/2/42
f 91/3/47 90/2/47 89/2/47
f 91/3/47 92/1/47 90/2/47
f 92/1/47 91/3/47 93/1/47
f 94/3/47 93/1/47 91/3/47
f 93/1/47 94/3/47 95/2/47
f 95/2/47 94/3/47 96/2/47
f 99/4/49 98/5/48 97/4/48
f 98/5/48 99/4/49 100/5/49
f 98/5/48 101/4/50 97/4/48
f 101/4/50 98/5/48 102/5/50
f 105/4/51 104/4/51 103/4/51
f 104/4/51 105/4/51 101/4/51
f 101/4/51 105/4/51 97/4/51
f 97/4/51 105/4/51 99/4/51
f 106/4/51 104/4/51 101/4/51
f 106/4/51 107/4/51 104/4/51
f 106/4/51 108/4/51 107/4/51
f 109/4/51 108/4/51 106/4/51
f 110/4/51 108/4/51 109/4/51
f 108/4/51 110/4/51 111/4/51
f 113/5/53 109/4/52 112/5/52
f 109/4/52 113/5/53 110/4/53
f 114/5/54 109/4/52 106/4/54
f 109/4/52 114/5/54 112/5/52
f 115/5/9 110/4/53 113/5/53
f 110/4/53 115/5/9 111/4/9
f 105/4/4 100/5/49 99/4/49
f 100/5/49 105/4/4 116/5/4
f 102/5/50 106/4/54 101/4/50
f 106/4/54 102/5/50 114/5/54
f 108/4/4 117/5/4 107/4/4
f 117/5/4 108/4/4 118/5/4
f 117/5/55 104/4/55 107/4/55
f 104/4/55 117/5/55 119/5/55
f 120/5/9 104/4/9 119/5/9
f 104/4/9 120/5/9 103/4/9
f 116/5/56 98/5/56 100/5/56
f 120/5/56 98/5/56 116/5/56
f 119/5/56 98/5/56 120/5/56
f 119/5/56 102/5/56 98/5/56
f 117/5/56 102/5/56 119/5/56
f 102/5/56 117/5/56 114/5/56
f 118/5/56 114/5/56 117/5/56
f 118/5/56 112/5/56 114/5/56
f 115/5/56 112/5/56 118/5/56
f 112/5/56 115/5/56 113/5/56
f 123/3/57 122/2/57 121/2/57
f 123/3/57 124/1/57 122/2/57
f 124/1/57 123/3/57 125/1/57
f 126/3/57 125/1/57 123/3/57
f 125/1/57 126/3/57 127/2/57
f 127/2/57 126/3/57 128/2/57
f 131/4/59 130/5/58 129/4/58
f 130/5/58 131/4/59 132/5/59
f 130/5/58 133/4/60 129/4/58
f 133/4/60 130/5/58 134/5/60
f 137/4/61 136/4/61 135/4/61
f 136/4/61 137/4/61 133/4/61
f 133/4/61 137/4/61 129/4/61
f 129/4/61 137/4/61 131/4/61
f 138/4/61 136/4/61 133/4/61
f 138/4/61 139/4/61 136/4/61
f 138/4/61 140/4/61 139/4/61
f 141/4/61 140/4/61 138/4/61
f 142/4/61 140/4/61 141/4/61
f 140/4/61 142/4/61 143/4/61
f 145/5/63 141/4/62 144/5/62
f 141/4/62 145/5/63 142/4/63
f 146/5/64 141/4/62 138/4/64
f 141/4/62 146/5/64 144/5/62
f 147/5/65 142/4/63 145/5/63
f 142/4/63 147/5/65 143/4/65
f 137/4/66 132/5/59 131/4/59
f 132/5/59 137/4/66 148/5/66
f 134/5/60 138/4/64 133/4/60
f 138/4/64 134/5/60 146/5/64
f 140/4/66 149/5/66 139/4/66
f 149/5/66 140/4/66 150/5/66
f 149/5/67 136/4/67 139/4/67
f 136/4/67 149/5/67 151/5/67
f 152/5/65 136/4/65 151/5/65
f 136/4/65 152/5/65 135/4/65
f 148/5/68 130/5/68 132/5/68
f 152/5/68 130/5/68 148/5/68
f 151/5/68 130/5/68 152/5/68
f 151/5/68 134/5/68 130/5/68
f 149/5/68 134/5/68 151/5/68
f 134/5/68 149/5/68 146/5/68
f 150/5/68 146/5/68 149/5/68
f 150/5/68 144/5/68 146/5/68
f 147/5/68 144/5/68 150/5/68
f 144/5/68 147/5/68 145/5/68

g track-wide-straight-hill-end




usemtl colormap

f 3/1/1 2/1/2 1/1/1
f 2/1/2 3/1/1 4/1/2
f 4/1/2 5/1/3 2/1/2
f 5/1/3 4/1/2 6/1/3
f 2/1/4 7/2/5 1/1/4
f 7/2/5 2/1/4 8/2/6
f 5/1/4 8/2/6 2/1/4
f 8/2/6 5/1/4 9/2/7
f 11/2/10 3/1/9 10/2/8
f 3/1/9 11/2/10 4/1/9
f 12/2/11 4/1/9 11/2/10
f 4/1/9 12/2/11 6/1/9
f 15/3/12 14/3/13 13/3/12
f 14/3/13 15/3/12 16/3/13
f 16/3/13 17/3/14 14/3/13
f 17/3/14 16/3/13 18/3/14
f 7/2/5 20/2/10 19/2/8
f 20/2/10 7/2/5 8/2/6
f 8/2/6 21/2/11 20/2/10
f 21/2/11 8/2/6 9/2/7
f 20/2/10 15/3/9 19/2/8
f 15/3/9 20/2/10 16/3/9
f 21/2/11 16/3/9 20/2/10
f 16/3/9 21/2/11 18/3/9
f 22/2/5 11/2/10 10/2/8
f 11/2/10 22/2/5 23/2/6
f 23/2/6 12/2/11 11/2/10
f 12/2/11 23/2/6 24/2/7
f 14/3/4 22/2/5 13/3/4
f 22/2/5 14/3/4 23/2/6
f 17/3/4 23/2/6 14/3/4
f 23/2/6 17/3/4 24/2/7
f 6/1/3 25/1/15 5/1/3
f 25/1/15 6/1/3 26/1/15
f 26/1/15 27/1/16 25/1/15
f 27/1/16 26/1/15 28/1/16
f 25/1/4 9/2/7 5/1/4
f 9/2/7 25/1/4 29/2/17
f 27/1/4 29/2/17 25/1/4
f 29/2/17 27/1/4 30/2/18
f 31/2/19 6/1/9 12/2/11
f 6/1/9 31/2/19 26/1/9
f 32/2/20 26/1/9 31/2/19
f 26/1/9 32/2/20 28/1/9
f 18/3/14 33/3/21 17/3/14
f 33/3/21 18/3/14 34/3/21
f 34/3/21 35/3/22 33/3/21
f 35/3/22 34/3/21 36/3/22
f 9/2/7 37/2/19 21/2/11
f 37/2/19 9/2/7 29/2/17
f 29/2/17 38/2/20 37/2/19
f 38/2/20 29/2/17 30/2/18
f 37/2/19 18/3/9 21/2/11
f 18/3/9 37/2/19 34/3/9
f 38/2/20 34/3/9 37/2/19
f 34/3/9 38/2/20 36/3/9
f 24/2/7 31/2/19 12/2/11
f 31/2/19 24/2/7 39/2/17
f 39/2/17 32/2/20 31/2/19
f 32/2/20 39/2/17 40/2/18
f 33/3/4 24/2/7 17/3/4
f 24/2/7 33/3/4 39/2/17
f 35/3/4 39/2/17 33/3/4
f 39/2/17 35/3/4 40/2/18
f 28/1/16 41/1/23 27/1/16
f 41/1/23 28/1/16 42/1/23
f 42/1/23 43/1/24 41/1/23
f 43/1/24 42/1/23 44/1/24
f 41/1/4 30/2/18 27/1/4
f 30/2/18 41/1/4 45/2/25
f 43/1/4 45/2/25 41/1/4
f 45/2/25 43/1/4 46/2/26
f 47/2/27 28/1/9 32/2/20
f 28/1/9 47/2/27 42/1/9
f 48/2/28 42/1/9 47/2/27
f 42/1/9 48/2/28 44/1/9
f 36/3/22 49/3/29 35/3/22
f 49/3/29 36/3/22 50/3/29
f 50/3/29 51/3/30 49/3/29
f 51/3/30 50/3/29 52/3/30
f 30/2/18 53/2/27 38/2/20
f 53/2/27 30/2/18 45/2/25
f 45/2/25 54/2/28 53/2/27
f 54/2/28 45/2/25 46/2/26
f 53/2/27 36/3/9 38/2/20
f 36/3/9 53/2/27 50/3/9
f 54/2/28 50/3/9 53/2/27
f 50/3/9 54/2/28 52/3/9
f 40/2/18 47/2/27 32/2/20
f 47/2/27 40/2/18 55/2/25
f 55/2/25 48/2/28 47/2/27
f 48/2/28 55/2/25 56/2/26
f 49/3/4 40/2/18 35/3/4
f 40/2/18 49/3/4 55/2/25
f 51/3/4 55/2/25 49/3/4
f 55/2/25 51/3/4 56/2/26
f 44/1/24 57/1/31 43/1/24
f 57/1/31 44/1/24 58/1/31
f 58/1/31 59/1/32 57/1/31
f 59/1/32 58/1/31 60/1/32
f 57/1/4 46/2/26 43/1/4
f 46/2/26 57/1/4 61/2/33
f 59/1/4 61/2/33 57/1/4
f 61/2/33 59/1/4 62/2/34
f 63/2/35 44/1/9 48/2/28
f 44/1/9 63/2/35 58/1/9
f 64/2/36 58/1/9 63/2/35
f 58/1/9 64/2/36 60/1/9
f 52/3/30 65/3/37 51/3/30
f 65/3/37 52/3/30 66/3/37
f 66/3/37 67/3/38 65/3/37
f 67/3/38 66/3/37 68/3/38
f 46/2/26 69/2/35 54/2/28
f 69/2/35 46/2/26 61/2/33
f 61/2/33 70/2/36 69/2/35
f 70/2/36 61/2/33 62/2/34
f 69/2/35 52/3/9 54/2/28
f 52/3/9 69/2/35 66/3/9
f 70/2/36 66/3/9 69/2/35
f 66/3/9 70/2/36 68/3/9
f 56/2/26 63/2/35 48/2/28
f 63/2/35 56/2/26 71/2/33
f 71/2/33 64/2/36 63/2/35
f 64/2/36 71/2/33 72/2/34
f 65/3/4 56/2/26 51/3/4
f 56/2/26 65/3/4 71/2/33
f 67/3/4 71/2/33 65/3/4
f 71/2/33 67/3/4 72/2/34
f 60/1/32 73/1/39 59/1/32
f 73/1/39 60/1/32 74/1/39
f 74/1/39 75/1/40 73/1/39
f 75/1/40 74/1/39 76/1/40
f 73/1/4 62/2/34 59/1/4
f 62/2/34 73/1/4 77/2/41
f 75/1/4 77/2/41 73/1/4
f 77/2/41 75/1/4 78/2/42
f 79/2/43 60/1/9 64/2/36
f 60/1/9 79/2/43 74/1/9
f 80/2/44 74/1/9 79/2/43
f 74/1/9 80/2/44 76/1/9
f 68/3/38 81/3/45 67/3/38
f 81/3/45 68/3/38 82/3/45
f 82/3/45 83/3/46 81/3/45
f 83/3/46 82/3/45 84/3/46
f 62/2/34 85/2/43 70/2/36
f 85/2/43 62/2/34 77/2/41
f 77/2/41 86/2/44 85/2/43
f 86/2/44 77/2/41 78/2/42
f 85/2/43 68/3/9 70/2/36
f 68/3/9 85/2/43 82/3/9
f 86/2/44 82/3/9 85/2/43
f 82/3/9 86/2/44 84/3/9
f 72/2/34 79/2/43 64/2/36
f 79/2/43 72/2/34 87/2/41
f 87/2/41 80/2/44 79/2/43
f 80/2/44 87/2/41 88/2/42
f 81/3/4 72/2/34 67/3/4
f 72/2/34 81/3/4 87/2/41
f 83/3/4 87/2/41 81/3/4
f 87/2/41 83/3/4 88/2/42
f 91/3/47 90/2/47 89/2/47
f 91/3/47 92/1/47 90/2/47
f 92/1/47 91/3/47 93/1/47
f 94/3/47 93/1/47 91/3/47
f 93/1/47 94/3/47 95/2/47
f 95/2/47 94/3/47 96/2/47
f 99/4/49 98/5/48 97/4/48
f 98/5/48 99/4/49 100/5/49
f 98/5/48 101/4/50 97/4/48
f 101/4/50 98/5/48 102/5/50
f 105/4/51 104/4/51 103/4/51
f 104/4/51 105/4/51 101/4/51
f 101/4/51 105/4/51 97/4/51
f 97/4/51 105/4/51 99/4/51
f 106/4/51 104/4/51 101/4/51
f 106/4/51 107/4/51 104/4/51
f 106/4/51 108/4/51 107/4/51
f 109/4/51 108/4/51 106/4/51
f 110/4/51 108/4/51 109/4/51
f 108/4/51 110/4/51 111/4/51
f 113/5/53 109/4/52 112/5/52
f 109/4/52 113/5/53 110/4/53
f 114/5/54 109/4/52 106/4/54
f 109/4/52 114/5/54 112/5/52
f 115/5/9 110/4/53 113/5/53
f 110/4/53 115/5/9 111/4/9
f 105/4/4 100/5/49 99/4/49
f 100/5/49 105/4/4 116/5/4
f 102/5/50 106/4/54 101/4/50
f 106/4/54 102/5/50 114/5/54
f 108/4/4 117/5/4 107/4/4
f 117/5/4 108/4/4 118/5/4
f 117/5/55 104/4/55 107/4/55
f 104/4/55 117/5/55 119/5/55
f 120/5/9 104/4/9 119/5/9
f 104/4/9 120/5/9 103/4/9
f 116/5/56 98/5/56 100/5/56
f 120/5/56 98/5/56 116/5/56
f 119/5/56 98/5/56 120/5/56
f 119/5/56 102/5/56 98/5/56
f 117/5/56 102/5/56 119/5/56
f 102/5/56 117/5/56 114/5/56
f 118/5/56 114/5/56 117/5/56
f 118/5/56 112/5/56 114/5/56
f 115/5/56 112/5/56 118/5/56
f 112/5/56 115/5/56 113/5/56
f 123/3/57 122/2/57 121/2/57
f 123/3/57 124/1/57 122/2/57
f 124/1/57 123/3/57 125/1/57
f 126/3/57 125/1/57 123/3/57
f 125/1/57 126/3/57 127/2/57
f 127/2/57 126/3/57 128/2/57
f 131/4/59 130/5/58 129/4/58
f 130/5/58 131/4/59 132/5/59
f 130/5/58 133/4/60 129/4/58
f 133/4/60 130/5/58 134/5/60
f 137/4/61 136/4/61 135/4/61
f 136/4/61 137/4/61 133/4/61
f 133/4/61 137/4/61 129/4/61
f 129/4/61 137/4/61 131/4/61
f 138/4/61 136/4/61 133/4/61
f 138/4/61 139/4/61 136/4/61
f 138/4/61 140/4/61 139/4/61
f 141/4/61 140/4/61 138/4/61
f 142/4/61 140/4/61 141/4/61
f 140/4/61 142/4/61 143/4/61
f 145/5/63 141/4/62 144/5/62
f 141/4/62 145/5/63 142/4/63
f 146/5/64 141/4/62 138/4/64
f 141/4/62 146/5/64 144/5/62
f 147/5/65 142/4/63 145/5/63
f 142/4/63 147/5/65 143/4/65
f 137/4/66 132/5/59 131/4/59
f 132/5/59 137/4/66 148/5/66
f 134/5/60 138/4/64 133/4/60
f 138/4/64 134/5/60 146/5/64
f 140/4/66 149/5/66 139/4/66
f 149/5/66 140/4/66 150/5/66
f 149/5/67 136/4/67 139/4/67
f 136/4/67 149/5/67 151/5/67
f 152/5/65 136/4/65 151/5/65
f 136/4/65 152/5/65 135/4/65
f 148/5/68 130/5/68 132/5/68
f 152/5/68 130/5/68 148/5/68
f 151/5/68 130/5/68 152/5/68
f 151/5/68 134/5/68 130/5/68
f 149/5/68 134/5/68 151/5/68
f 134/5/68 149/5/68 146/5/68
f 150/5/68 146/5/68 149/5/68
f 150/5/68 144/5/68 146/5/68
f 147/5/68 144/5/68 150/5/68
f 144/5/68 147/5/68 145/5/68

