# Created by Kenney (www.kenney.nl)

mtllib track-wide-straight.mtl

g track-wide-straight

v -1 0 0 1 1 1
v -1 0 0.4981065 1 1 1
v 1 0 0 1 1 1
v 1 0 0.4981065 1 1 1
v -1 0 0.9987755 1 1 1
v 1 0 0.9987755 1 1 1
v -1 0.3 0 1 1 1
v -1 0.3 0.4981065 1 1 1
v -1 0.3 0.9987755 1 1 1
v 1 0.3 0 1 1 1
v 1 0.3 0.4981065 1 1 1
v 1 0.3 0.9987755 1 1 1
v 0.9000001 0.1 0 1 1 1
v 0.9000001 0.1 0.4981065 1 1 1
v -0.9 0.1 0 1 1 1
v -0.9 0.1 0.4981065 1 1 1
v 0.9000001 0.1 0.9987755 1 1 1
v -0.9 0.1 0.9987755 1 1 1
v -0.9 0.3 0 1 1 1
v -0.9 0.3 0.4981065 1 1 1
v -0.9 0.3 0.9987755 1 1 1
v 0.9000001 0.3 0 1 1 1
v 0.9000001 0.3 0.4981065 1 1 1
v 0.9000001 0.3 0.9987755 1 1 1
v -1 0 1.499881 1 1 1
v 1 0 1.499881 1 1 1
v -1 0 2 1 1 1
v 1 0 2 1 1 1
v -1 0.3 1.499881 1 1 1
v -1 0.3 2 1 1 1
v 1 0.3 1.499881 1 1 1
v 1 0.3 2 1 1 1
v 0.9000001 0.1 1.499881 1 1 1
v -0.9 0.1 1.499881 1 1 1
v 0.9000001 0.1 2 1 1 1
v -0.9 0.1 2 1 1 1
v -0.9 0.3 1.499881 1 1 1
v -0.9 0.3 2 1 1 1
v 0.9000001 0.3 1.499881 1 1 1
v 0.9000001 0.3 2 1 1 1
v -1 0 2.500119 1 1 1
v 1 0 2.500119 1 1 1
v -1 0 3.001224 1 1 1
v 1 0 3.001224 1 1 1
v -1 0.3 2.500119 1 1 1
v -1 0.3 3.001224 1 1 1
v 1 0.3 2.500119 1 1 1
v 1 0.3 3.001224 1 1 1
v 0.9000001 0.1 2.500119 1 1 1
v -0.9 0.1 2.500119 1 1 1
v 0.9000001 0.1 3.001224 1 1 1
v -0.9 0.1 3.001224 1 1 1
v -0.9 0.3 2.500119 1 1 1
v -0.9 0.3 3.001224 1 1 1
v 0.9000001 0.3 2.500119 1 1 1
v 0.9000001 0.3 3.001224 1 1 1
v -1 0 3.501894 1 1 1
v 1 0 3.501894 1 1 1
v -1 0 4 1 1 1
v 1 0 4 1 1 1
v -1 0.3 3.501894 1 1 1
v -1 0.3 4 1 1 1
v 1 0.3 3.501894 1 1 1
v 1 0.3 4 1 1 1
v 0.9000001 0.1 3.501894 1 1 1
v -0.9 0.1 3.501894 1 1 1
v 0.9000001 0.1 4 1 1 1
v -0.9 0.1 4 1 1 1
v -0.9 0.3 3.501894 1 1 1
v -0.9 0.3 4 1 1 1
v 0.9000001 0.3 3.501894 1 1 1
v 0.9000001 0.3 4 1 1 1
v -0.9 0.3 0 1 1 1
v -1 0.3 0 1 1 1
v 0.9 0.1 0 1 1 1
v 1 0.3 0 1 1 1
v 0.9 0.3 0 1 1 1
v -0.1207107 0 -0.1707107 1 1 1
v -0.1207107 0.05000001 -0.1707107 1 1 1
v -0.15 0 -0.1 1 1 1
v -0.15 0.05000001 -0.1 1 1 1
v -0.05 0 -0.2 1 1 1
v -0.05 0.05000001 -0.2 1 1 1
v -0.05 0 7.219114E-16 1 1 1
v -0.05 0 -0.1 1 1 1
v -0.15 0 1.082867E-15 1 1 1
v 0.05 0 -0.2 1 1 1
v 0.05 0 -0.1 1 1 1
v 0.05 0 3.609557E-16 1 1 1
v 0.1207107 0 -0.1707107 1 1 1
v 0.15 0 -0.1 1 1 1
v 0.15 0 0 1 1 1
v 0.1207107 0.05000001 -0.1707107 1 1 1
v 0.15 0.05000001 -0.1 1 1 1
v 0.05 0.05000001 -0.2 1 1 1
v 0.15 0.05000001 0 1 1 1
v -0.15 0.05000001 1.082867E-15 1 1 1
v 0.05 0.05000001 -0.1 1 1 1
v 0.05 0.05000001 3.609557E-16 1 1 1
v -0.05 0.05000001 -0.1 1 1 1
v -0.05 0.05000001 7.219114E-16 1 1 1
v 0.9 0.3 4 1 1 1
v 1 0.3 4 1 1 1
v 0.9 0.1 4 1 1 1
v -1 0.3 4 1 1 1
v -0.9 0.3 4 1 1 1
v 0.1207107 0 4.170711 1 1 1
v 0.1207107 0.05000001 4.170711 1 1 1
v 0.15 0 4.1 1 1 1
v 0.15 0.05000001 4.1 1 1 1
v 0.05 0 4.2 1 1 1
v 0.05 0.05000001 4.2 1 1 1
v 0.05 0 4 1 1 1
v 0.05 0 4.1 1 1 1
v 0.15 0 4 1 1 1
v -0.05 0 4.2 1 1 1
v -0.05 0 4.1 1 1 1
v -0.05 0 4 1 1 1
v -0.1207107 0 4.170711 1 1 1
v -0.15 0 4.1 1 1 1
v -0.15 0 4 1 1 1
v -0.1207107 0.05000001 4.170711 1 1 1
v -0.15 0.05000001 4.1 1 1 1
v -0.05 0.05000001 4.2 1 1 1
v -0.15 0.05000001 4 1 1 1
v 0.15 0.05000001 4 1 1 1
v -0.05 0.05000001 4.1 1 1 1
v -0.05 0.05000001 4 1 1 1
v 0.05 0.05000001 4.1 1 1 1
v 0.05 0.05000001 4 1 1 1

vn 0 -1 0
vn -1 0 0
vn -0.7071068 0.7071068 0
vn 0.7071068 0.7071068 0
vn 1 0 0
vn 0 1 0
vn 0 0 -1
vn -0.7071068 0 -0.7071068
vn -0.9807853 0 -0.1950903
vn -0.1950903 0 -0.9807853
vn 0.7071068 0 -0.7071068
vn 0.9807853 0 -0.1950903
vn 0.1950903 0 -0.9807853
vn 0 0 1
vn 0.7071068 0 0.7071068
vn 0.9807853 0 0.1950903
vn 0.1950903 0 0.9807853
vn -0.7071068 0 0.7071068
vn -0.9807853 0 0.1950903
vn -0.1950903 0 0.9807853
vn -1 0 7.21645E-16
vn 1 0 -7.21645E-16
vn -7.21645E-16 0 -1

vt 0.46875 0.275
vt 0.46875 0.475
vt 0.46875 0.3416667
vt 0.71875 0.275
vt 0.71875 0.475

usemtl colormap

f 3/1/1 2/1/1 1/1/1
f 2/1/1 3/1/1 4/1/1
f 4/1/1 5/1/1 2/1/1
f 5/1/1 4/1/1 6/1/1
f 2/1/2 7/2/3 1/1/2
f 7/2/3 2/1/2 8/2/3
f 5/1/2 8/2/3 2/1/2
f 8/2/3 5/1/2 9/2/3
f 11/2/4 3/1/5 10/2/4
f 3/1/5 11/2/4 4/1/5
f 12/2/4 4/1/5 11/2/4
f 4/1/5 12/2/4 6/1/5
f 15/3/6 14/3/6 13/3/6
f 14/3/6 15/3/6 16/3/6
f 16/3/6 17/3/6 14/3/6
f 17/3/6 16/3/6 18/3/6
f 7/2/3 20/2/4 19/2/4
f 20/2/4 7/2/3 8/2/3
f 8/2/3 21/2/4 20/2/4
f 21/2/4 8/2/3 9/2/3
f 20/2/4 15/3/5 19/2/4
f 15/3/5 20/2/4 16/3/5
f 21/2/4 16/3/5 20/2/4
f 16/3/5 21/2/4 18/3/5
f 22/2/3 11/2/4 10/2/4
f 11/2/4 22/2/3 23/2/3
f 23/2/3 12/2/4 11/2/4
f 12/2/4 23/2/3 24/2/3
f 14/3/2 22/2/3 13/3/2
f 22/2/3 14/3/2 23/2/3
f 17/3/2 23/2/3 14/3/2
f 23/2/3 17/3/2 24/2/3
f 6/1/1 25/1/1 5/1/1
f 25/1/1 6/1/1 26/1/1
f 26/1/1 27/1/1 25/1/1
f 27/1/1 26/1/1 28/1/1
f 25/1/2 9/2/3 5/1/2
f 9/2/3 25/1/2 29/2/3
f 27/1/2 29/2/3 25/1/2
f 29/2/3 27/1/2 30/2/3
f 31/2/4 6/1/5 12/2/4
f 6/1/5 31/2/4 26/1/5
f 32/2/4 26/1/5 31/2/4
f 26/1/5 32/2/4 28/1/5
f 18/3/6 33/3/6 17/3/6
f 33/3/6 18/3/6 34/3/6
f 34/3/6 35/3/6 33/3/6
f 35/3/6 34/3/6 36/3/6
f 9/2/3 37/2/4 21/2/4
f 37/2/4 9/2/3 29/2/3
f 29/2/3 38/2/4 37/2/4
f 38/2/4 29/2/3 30/2/3
f 37/2/4 18/3/5 21/2/4
f 18/3/5 37/2/4 34/3/5
f 38/2/4 34/3/5 37/2/4
f 34/3/5 38/2/4 36/3/5
f 24/2/3 31/2/4 12/2/4
f 31/2/4 24/2/3 39/2/3
f 39/2/3 32/2/4 31/2/4
f 32/2/4 39/2/3 40/2/3
f 33/3/2 24/2/3 17/3/2
f 24/2/3 33/3/2 39/2/3
f 35/3/2 39/2/3 33/3/2
f 39/2/3 35/3/2 40/2/3
f 28/1/1 41/1/1 27/1/1
f 41/1/1 28/1/1 42/1/1
f 42/1/1 43/1/1 41/1/1
f 43/1/1 42/1/1 44/1/1
f 41/1/2 30/2/3 27/1/2
f 30/2/3 41/1/2 45/2/3
f 43/1/2 45/2/3 41/1/2
f 45/2/3 43/1/2 46/2/3
f 47/2/4 28/1/5 32/2/4
f 28/1/5 47/2/4 42/1/5
f 48/2/4 42/1/5 47/2/4
f 42/1/5 48/2/4 44/1/5
f 36/3/6 49/3/6 35/3/6
f 49/3/6 36/3/6 50/3/6
f 50/3/6 51/3/6 49/3/6
f 51/3/6 50/3/6 52/3/6
f 30/2/3 53/2/4 38/2/4
f 53/2/4 30/2/3 45/2/3
f 45/2/3 54/2/4 53/2/4
f 54/2/4 45/2/3 46/2/3
f 53/2/4 36/3/5 38/2/4
f 36/3/5 53/2/4 50/3/5
f 54/2/4 50/3/5 53/2/4
f 50/3/5 54/2/4 52/3/5
f 40/2/3 47/2/4 32/2/4
f 47/2/4 40/2/3 55/2/3
f 55/2/3 48/2/4 47/2/4
f 48/2/4 55/2/3 56/2/3
f 49/3/2 40/2/3 35/3/2
f 40/2/3 49/3/2 55/2/3
f 51/3/2 55/2/3 49/3/2
f 55/2/3 51/3/2 56/2/3
f 44/1/1 57/1/1 43/1/1
f 57/1/1 44/1/1 58/1/1
f 58/1/1 59/1/1 57/1/1
f 59/1/1 58/1/1 60/1/1
f 57/1/2 46/2/3 43/1/2
f 46/2/3 57/1/2 61/2/3
f 59/1/2 61/2/3 57/1/2
f 61/2/3 59/1/2 62/2/3
f 63/2/4 44/1/5 48/2/4
f 44/1/5 63/2/4 58/1/5
f 64/2/4 58/1/5 63/2/4
f 58/1/5 64/2/4 60/1/5
f 52/3/6 65/3/6 51/3/6
f 65/3/6 52/3/6 66/3/6
f 66/3/6 67/3/6 65/3/6
f 67/3/6 66/3/6 68/3/6
f 46/2/3 69/2/4 54/2/4
f 69/2/4 46/2/3 61/2/3
f 61/2/3 70/2/4 69/2/4
f 70/2/4 61/2/3 62/2/3
f 69/2/4 52/3/5 54/2/4
f 52/3/5 69/2/4 66/3/5
f 70/2/4 66/3/5 69/2/4
f 66/3/5 70/2/4 68/3/5
f 56/2/3 63/2/4 48/2/4
f 63/2/4 56/2/3 71/2/3
f 71/2/3 64/2/4 63/2/4
f 64/2/4 71/2/3 72/2/3
f 65/3/2 56/2/3 51/3/2
f 56/2/3 65/3/2 71/2/3
f 67/3/2 71/2/3 65/3/2
f 71/2/3 67/3/2 72/2/3
f 15/3/7 74/2/7 73/2/7
f 15/3/7 1/1/7 74/2/7
f 1/1/7 15/3/7 3/1/7
f 75/3/7 3/1/7 15/3/7
f 3/1/7 75/3/7 76/2/7
f 76/2/7 75/3/7 77/2/7
f 80/4/9 79/5/8 78/4/8
f 79/5/8 80/4/9 81/5/9
f 79/5/8 82/4/10 78/4/8
f 82/4/10 79/5/8 83/5/10
f 86/4/1 85/4/1 84/4/1
f 85/4/1 86/4/1 82/4/1
f 82/4/1 86/4/1 78/4/1
f 78/4/1 86/4/1 80/4/1
f 87/4/1 85/4/1 82/4/1
f 87/4/1 88/4/1 85/4/1
f 87/4/1 89/4/1 88/4/1
f 90/4/1 89/4/1 87/4/1
f 91/4/1 89/4/1 90/4/1
f 89/4/1 91/4/1 92/4/1
f 94/5/12 90/4/11 93/5/11
f 90/4/11 94/5/12 91/4/12
f 95/5/13 90/4/11 87/4/13
f 90/4/11 95/5/13 93/5/11
f 96/5/5 91/4/12 94/5/12
f 91/4/12 96/5/5 92/4/5
f 86/4/2 81/5/9 80/4/9
f 81/5/9 86/4/2 97/5/2
f 83/5/10 87/4/13 82/4/10
f 87/4/13 83/5/10 95/5/13
f 89/4/2 98/5/2 88/4/2
f 98/5/2 89/4/2 99/5/2
f 98/5/14 85/4/14 88/4/14
f 85/4/14 98/5/14 100/5/14
f 101/5/5 85/4/5 100/5/5
f 85/4/5 101/5/5 84/4/5
f 97/5/6 79/5/6 81/5/6
f 101/5/6 79/5/6 97/5/6
f 100/5/6 79/5/6 101/5/6
f 100/5/6 83/5/6 79/5/6
f 98/5/6 83/5/6 100/5/6
f 83/5/6 98/5/6 95/5/6
f 99/5/6 95/5/6 98/5/6
f 99/5/6 93/5/6 95/5/6
f 96/5/6 93/5/6 99/5/6
f 93/5/6 96/5/6 94/5/6
f 104/3/14 103/2/14 102/2/14
f 104/3/14 60/1/14 103/2/14
f 60/1/14 104/3/14 59/1/14
f 68/3/14 59/1/14 104/3/14
f 59/1/14 68/3/14 105/2/14
f 105/2/14 68/3/14 106/2/14
f 109/4/16 108/5/15 107/4/15
f 108/5/15 109/4/16 110/5/16
f 108/5/15 111/4/17 107/4/15
f 111/4/17 108/5/15 112/5/17
f 115/4/1 114/4/1 113/4/1
f 114/4/1 115/4/1 111/4/1
f 111/4/1 115/4/1 107/4/1
f 107/4/1 115/4/1 109/4/1
f 116/4/1 114/4/1 111/4/1
f 116/4/1 117/4/1 114/4/1
f 116/4/1 118/4/1 117/4/1
f 119/4/1 118/4/1 116/4/1
f 120/4/1 118/4/1 119/4/1
f 118/4/1 120/4/1 121/4/1
f 123/5/19 119/4/18 122/5/18
f 119/4/18 123/5/19 120/4/19
f 124/5/20 119/4/18 116/4/20
f 119/4/18 124/5/20 122/5/18
f 125/5/21 120/4/19 123/5/19
f 120/4/19 125/5/21 121/4/21
f 115/4/22 110/5/16 109/4/16
f 110/5/16 115/4/22 126/5/22
f 112/5/17 116/4/20 111/4/17
f 116/4/20 112/5/17 124/5/20
f 118/4/22 127/5/22 117/4/22
f 127/5/22 118/4/22 128/5/22
f 127/5/23 114/4/23 117/4/23
f 114/4/23 127/5/23 129/5/23
f 130/5/21 114/4/21 129/5/21
f 114/4/21 130/5/21 113/4/21
f 126/5/6 108/5/6 110/5/6
f 130/5/6 108/5/6 126/5/6
f 129/5/6 108/5/6 130/5/6
f 129/5/6 112/5/6 108/5/6
f 127/5/6 112/5/6 129/5/6
f 112/5/6 127/5/6 124/5/6
f 128/5/6 124/5/6 127/5/6
f 128/5/6 122/5/6 124/5/6
f 125/5/6 122/5/6 128/5/6
f 122/5/6 125/5/6 123/5/6

g track-wide-straight




usemtl colormap

f 3/1/1 2/1/1 1/1/1
f 2/1/1 3/1/1 4/1/1
f 4/1/1 5/1/1 2/1/1
f 5/1/1 4/1/1 6/1/1
f 2/1/2 7/2/3 1/1/2
f 7/2/3 2/1/2 8/2/3
f 5/1/2 8/2/3 2/1/2
f 8/2/3 5/1/2 9/2/3
f 11/2/4 3/1/5 10/2/4
f 3/1/5 11/2/4 4/1/5
f 12/2/4 4/1/5 11/2/4
f 4/1/5 12/2/4 6/1/5
f 15/3/6 14/3/6 13/3/6
f 14/3/6 15/3/6 16/3/6
f 16/3/6 17/3/6 14/3/6
f 17/3/6 16/3/6 18/3/6
f 7/2/3 20/2/4 19/2/4
f 20/2/4 7/2/3 8/2/3
f 8/2/3 21/2/4 20/2/4
f 21/2/4 8/2/3 9/2/3
f 20/2/4 15/3/5 19/2/4
f 15/3/5 20/2/4 16/3/5
f 21/2/4 16/3/5 20/2/4
f 16/3/5 21/2/4 18/3/5
f 22/2/3 11/2/4 10/2/4
f 11/2/4 22/2/3 23/2/3
f 23/2/3 12/2/4 11/2/4
f 12/2/4 23/2/3 24/2/3
f 14/3/2 22/2/3 13/3/2
f 22/2/3 14/3/2 23/2/3
f 17/3/2 23/2/3 14/3/2
f 23/2/3 17/3/2 24/2/3
f 6/1/1 25/1/1 5/1/1
f 25/1/1 6/1/1 26/1/1
f 26/1/1 27/1/1 25/1/1
f 27/1/1 26/1/1 28/1/1
f 25/1/2 9/2/3 5/1/2
f 9/2/3 25/1/2 29/2/3
f 27/1/2 29/2/3 25/1/2
f 29/2/3 27/1/2 30/2/3
f 31/2/4 6/1/5 12/2/4
f 6/1/5 31/2/4 26/1/5
f 32/2/4 26/1/5 31/2/4
f 26/1/5 32/2/4 28/1/5
f 18/3/6 33/3/6 17/3/6
f 33/3/6 18/3/6 34/3/6
f 34/3/6 35/3/6 33/3/6
f 35/3/6 34/3/6 36/3/6
f 9/2/3 37/2/4 21/2/4
f 37/2/4 9/2/3 29/2/3
f 29/2/3 38/2/4 37/2/4
f 38/2/4 29/2/3 30/2/3
f 37/2/4 18/3/5 21/2/4
f 18/3/5 37/2/4 34/3/5
f 38/2/4 34/3/5 37/2/4
f 34/3/5 38/2/4 36/3/5
f 24/2/3 31/2/4 12/2/4
f 31/2/4 24/2/3 39/2/3
f 39/2/3 32/2/4 31/2/4
f 32/2/4 39/2/3 40/2/3
f 33/3/2 24/2/3 17/3/2
f 24/2/3 33/3/2 39/2/3
f 35/3/2 39/2/3 33/3/2
f 39/2/3 35/3/2 40/2/3
f 28/1/1 41/1/1 27/1/1
f 41/1/1 28/1/1 42/1/1
f 42/1/1 43/1/1 41/1/1
f 43/1/1 42/1/1 44/1/1
f 41/1/2 30/2/3 27/1/2
f 30/2/3 41/1/2 45/2/3
f 43/1/2 45/2/3 41/1/2
f 45/2/3 43/1/2 46/2/3
f 47/2/4 28/1/5 32/2/4
f 28/1/5 47/2/4 42/1/5
f 48/2/4 42/1/5 47/2/4
f 42/1/5 48/2/4 44/1/5
f 36/3/6 49/3/6 35/3/6
f 49/3/6 36/3/6 50/3/6
f 50/3/6 51/3/6 49/3/6
f 51/3/6 50/3/6 52/3/6
f 30/2/3 53/2/4 38/2/4
f 53/2/4 30/2/3 45/2/3
f 45/2/3 54/2/4 53/2/4
f 54/2/4 45/2/3 46/2/3
f 53/2/4 36/3/5 38/2/4
f 36/3/5 53/2/4 50/3/5
f 54/2/4 50/3/5 53/2/4
f 50/3/5 54/2/4 52/3/5
f 40/2/3 47/2/4 32/2/4
f 47/2/4 40/2/3 55/2/3
f 55/2/3 48/2/4 47/2/4
f 48/2/4 55/2/3 56/2/3
f 49/3/2 40/2/3 35/3/2
f 40/2/3 49/3/2 55/2/3
f 51/3/2 55/2/3 49/3/2
f 55/2/3 51/3/2 56/2/3
f 44/1/1 57/1/1 43/1/1
f 57/1/1 44/1/1 58/1/1
f 58/1/1 59/1/1 57/1/1
f 59/1/1 58/1/1 60/1/1
f 57/1/2 46/2/3 43/1/2
f 46/2/3 57/1/2 61/2/3
f 59/1/2 61/2/3 57/1/2
f 61/2/3 59/1/2 62/2/3
f 63/2/4 44/1/5 48/2/4
f 44/1/5 63/2/4 58/1/5
f 64/2/4 58/1/5 63/2/4
f 58/1/5 64/2/4 60/1/5
f 52/3/6 65/3/6 51/3/6
f 65/3/6 52/3/6 66/3/6
f 66/3/6 67/3/6 65/3/6
f 67/3/6 66/3/6 68/3/6
f 46/2/3 69/2/4 54/2/4
f 69/2/4 46/2/3 61/2/3
f 61/2/3 70/2/4 69/2/4
f 70/2/4 61/2/3 62/2/3
f 69/2/4 52/3/5 54/2/4
f 52/3/5 69/2/4 66/3/5
f 70/2/4 66/3/5 69/2/4
f 66/3/5 70/2/4 68/3/5
f 56/2/3 63/2/4 48/2/4
f 63/2/4 56/2/3 71/2/3
f 71/2/3 64/2/4 63/2/4
f 64/2/4 71/2/3 72/2/3
f 65/3/2 56/2/3 51/3/2
f 56/2/3 65/3/2 71/2/3
f 67/3/2 71/2/3 65/3/2
f 71/2/3 67/3/2 72/2/3
f 15/3/7 74/2/7 73/2/7
f 15/3/7 1/1/7 74/2/7
f 1/1/7 15/3/7 3/1/7
f 75/3/7 3/1/7 15/3/7
f 3/1/7 75/3/7 76/2/7
f 76/2/7 75/3/7 77/2/7
f 80/4/9 79/5/8 78/4/8
f 79/5/8 80/4/9 81/5/9
f 79/5/8 82/4/10 78/4/8
f 82/4/10 79/5/8 83/5/10
f 86/4/1 85/4/1 84/4/1
f 85/4/1 86/4/1 82/4/1
f 82/4/1 86/4/1 78/4/1
f 78/4/1 86/4/1 80/4/1
f 87/4/1 85/4/1 82/4/1
f 87/4/1 88/4/1 85/4/1
f 87/4/1 89/4/1 88/4/1
f 90/4/1 89/4/1 87/4/1
f 91/4/1 89/4/1 90/4/1
f 89/4/1 91/4/1 92/4/1
f 94/5/12 90/4/11 93/5/11
f 90/4/11 94/5/12 91/4/12
f 95/5/13 90/4/11 87/4/13
f 90/4/11 95/5/13 93/5/11
f 96/5/5 91/4/12 94/5/12
f 91/4/12 96/5/5 92/4/5
f 86/4/2 81/5/9 80/4/9
f 81/5/9 86/4/2 97/5/2
f 83/5/10 87/4/13 82/4/10
f 87/4/13 83/5/10 95/5/13
f 89/4/2 98/5/2 88/4/2
f 98/5/2 89/4/2 99/5/2
f 98/5/14 85/4/14 88/4/14
f 85/4/14 98/5/14 100/5/14
f 101/5/5 85/4/5 100/5/5
f 85/4/5 101/5/5 84/4/5
f 97/5/6 79/5/6 81/5/6
f 101/5/6 79/5/6 97/5/6
f 100/5/6 79/5/6 101/5/6
f 100/5/6 83/5/6 79/5/6
f 98/5/6 83/5/6 100/5/6
f 83/5/6 98/5/6 95/5/6
f 99/5/6 95/5/6 98/5/6
f 99/5/6 93/5/6 95/5/6
f 96/5/6 93/5/6 99/5/6
f 93/5/6 96/5/6 94/5/6
f 104/3/14 103/2/14 102/2/14
f 104/3/14 60/1/14 103/2/14
f 60/1/14 104/3/14 59/1/14
f 68/3/14 59/1/14 104/3/14
f 59/1/14 68/3/14 105/2/14
f 105/2/14 68/3/14 106/2/14
f 109/4/16 108/5/15 107/4/15
f 108/5/15 109/4/16 110/5/16
f 108/5/15 111/4/17 107/4/15
f 111/4/17 108/5/15 112/5/17
f 115/4/1 114/4/1 113/4/1
f 114/4/1 115/4/1 111/4/1
f 111/4/1 115/4/1 107/4/1
f 107/4/1 115/4/1 109/4/1
f 116/4/1 114/4/1 111/4/1
f 116/4/1 117/4/1 114/4/1
f 116/4/1 118/4/1 117/4/1
f 119/4/1 118/4/1 116/4/1
f 120/4/1 118/4/1 119/4/1
f 118/4/1 120/4/1 121/4/1
f 123/5/19 119/4/18 122/5/18
f 119/4/18 123/5/19 120/4/19
f 124/5/20 119/4/18 116/4/20
f 119/4/18 124/5/20 122/5/18
f 125/5/21 120/4/19 123/5/19
f 120/4/19 125/5/21 121/4/21
f 115/4/22 110/5/16 109/4/16
f 110/5/16 115/4/22 126/5/22
f 112/5/17 116/4/20 111/4/17
f 116/4/20 112/5/17 124/5/20
f 118/4/22 127/5/22 117/4/22
f 127/5/22 118/4/22 128/5/22
f 127/5/23 114/4/23 117/4/23
f 114/4/23 127/5/23 129/5/23
f 130/5/21 114/4/21 129/5/21
f 114/4/21 130/5/21 113/4/21
f 126/5/6 108/5/6 110/5/6
f 130/5/6 108/5/6 126/5/6
f 129/5/6 108/5/6 130/5/6
f 129/5/6 112/5/6 108/5/6
f 127/5/6 112/5/6 129/5/6
f 112/5/6 127/5/6 124/5/6
f 128/5/6 124/5/6 127/5/6
f 128/5/6 122/5/6 124/5/6
f 125/5/6 122/5/6 128/5/6
f 122/5/6 125/5/6 123/5/6

