# Created by Kenney (www.kenney.nl)

mtllib track-striped-narrow-straight-skew-right-side.mtl

g track-striped-narrow-straight-skew-right-side

v 0.4548855 0.2075548 0.9998519 1 1 1
v 0.4867277 0.1144382 0.499519 1 1 1
v -0.4548855 -0.2075548 0.9998519 1 1 1
v -0.4867277 -0.1144382 0.499519 1 1 1
v -0.5553908 0.1775985 0.499519 1 1 1
v -0.5794187 0.06537652 0.9998519 1 1 1
v 0.3664947 0.1888961 0.499519 1 1 1
v 0.3207192 0.3835871 0.499519 1 1 1
v 0.3223977 0.2570211 0.9998519 1 1 1
v 0.2393756 0.4389753 0.9998519 1 1 1
v -0.458045 0.2004861 0.499519 1 1 1
v -0.4884415 0.1068876 0.9998519 1 1 1
v 0.4180651 0.4064748 0.499519 1 1 1
v 0.3303528 0.4804863 0.9998519 1 1 1
v -0.4122701 0.005795002 0.499519 1 1 1
v -0.4054193 -0.0750668 0.9998519 1 1 1
v 0.5 9.536743E-07 3.814697E-06 1 1 1
v -0.5 -9.536743E-07 3.814697E-06 1 1 1
v 0.3999996 0.1000009 3.814697E-06 1 1 1
v 0.3999996 0.3000008 3.814697E-06 1 1 1
v 0.4999995 0.300001 3.814697E-06 1 1 1
v -0.4000001 0.09999919 3.814697E-06 1 1 1
v -0.5000005 0.299999 3.814697E-06 1 1 1
v -0.4000006 0.2999992 3.814697E-06 1 1 1
v 0.3535538 0.3535533 2 1 1 1
v 0.4098706 0.2863671 1.499855 1 1 1
v -0.3535538 -0.3535533 2 1 1 1
v -0.4098706 -0.2863671 1.499855 1 1 1
v -0.5816908 -0.04044461 1.499855 1 1 1
v -0.5656855 -0.1414211 2 1 1 1
v 0.2706232 0.3110678 1.499855 1 1 1
v 0.1560764 0.475016 1.499855 1 1 1
v 0.212132 0.3535533 2 1 1 1
v 0.07071114 0.4949747 2 1 1 1
v -0.4997168 0.01682878 1.499855 1 1 1
v -0.4949746 -0.07071042 2 1 1 1
v 0.2380505 0.5322895 1.499855 1 1 1
v 0.1414218 0.5656854 2 1 1 1
v -0.38517 -0.1471195 1.499855 1 1 1
v -0.3535533 -0.212132 2 1 1 1
v 0.2075553 0.4548855 3.000148 1 1 1
v 0.2863674 0.4098705 2.500146 1 1 1
v -0.2075553 -0.4548855 3.000148 1 1 1
v -0.2863674 -0.4098705 2.500146 1 1 1
v -0.5322895 -0.2380502 2.500146 1 1 1
v -0.4804864 -0.3303523 3.000148 1 1 1
v 0.1471195 0.3851699 2.500146 1 1 1
v -0.01682854 0.4997168 2.500146 1 1 1
v 0.07506704 0.4054193 3.000148 1 1 1
v -0.1068869 0.4884415 3.000148 1 1 1
v -0.4750161 -0.1560761 2.500146 1 1 1
v -0.4389753 -0.2393752 3.000148 1 1 1
v 0.04044485 0.5816908 2.500146 1 1 1
v -0.06537628 0.5794187 3.000148 1 1 1
v -0.3110681 -0.270623 2.500146 1 1 1
v -0.2570214 -0.3223974 3.000148 1 1 1
v 1.430511E-06 0.5 3.999996 1 1 1
v 0.1144385 0.4867277 3.500481 1 1 1
v -1.430511E-06 -0.5 3.999996 1 1 1
v -0.1144385 -0.4867277 3.500481 1 1 1
v -0.4064751 -0.4180646 3.500481 1 1 1
v -0.3000011 -0.4999992 3.999996 1 1 1
v -0.005795002 0.4122698 3.500481 1 1 1
v -0.2004857 0.4580451 3.500481 1 1 1
v -0.09999895 0.4000002 3.999996 1 1 1
v -0.2999988 0.4000008 3.999996 1 1 1
v -0.3835874 -0.3207191 3.500481 1 1 1
v -0.3000011 -0.3999991 3.999996 1 1 1
v -0.177598 0.5553907 3.500481 1 1 1
v -0.2999988 0.5000007 3.999996 1 1 1
v -0.1888962 -0.3664944 3.500481 1 1 1
v -0.1000009 -0.3999997 3.999996 1 1 1
v -0.4 0.3 0 1 1 1
v -0.5 0.3 0 1 1 1
v -0.4 0.1 0 1 1 1
v -0.5 0 0 1 1 1
v 0.5 0 0 1 1 1
v 0.4 0.1 0 1 1 1
v 0.5 0.3 0 1 1 1
v 0.4 0.3 0 1 1 1
v -0.1207107 0 -0.1707107 1 1 1
v -0.1207107 0.05000001 -0.1707107 1 1 1
v -0.15 0 -0.1 1 1 1
v -0.15 0.05000001 -0.1 1 1 1
v -0.05 0 -0.2 1 1 1
v -0.05 0.05000001 -0.2 1 1 1
v -0.05 0 7.219114E-16 1 1 1
v -0.05 0 -0.1 1 1 1
v -0.15 0 1.082867E-15 1 1 1
v 0.05 0 -0.2 1 1 1
v 0.05 0 -0.1 1 1 1
v 0.05 0 3.609557E-16 1 1 1
v 0.1207107 0 -0.1707107 1 1 1
v 0.15 0 -0.1 1 1 1
v 0.15 0 0 1 1 1
v 0.1207107 0.05000001 -0.1707107 1 1 1
v 0.15 0.05000001 -0.1 1 1 1
v 0.05 0.05000001 -0.2 1 1 1
v 0.15 0.05000001 0 1 1 1
v -0.15 0.05000001 1.082867E-15 1 1 1
v 0.05 0.05000001 -0.1 1 1 1
v 0.05 0.05000001 3.609557E-16 1 1 1
v -0.05 0.05000001 -0.1 1 1 1
v -0.05 0.05000001 7.219114E-16 1 1 1
v -0.2999998 0.4000002 4 1 1 1
v -0.2999998 0.5000002 4 1 1 1
v -0.0999998 0.4000001 4 1 1 1
v 2.682209E-07 0.5000001 4 1 1 1
v -2.682209E-07 -0.5 4 1 1 1
v -0.1000002 -0.4 4 1 1 1
v -0.3000003 -0.4999999 4 1 1 1
v -0.3000003 -0.3999999 4 1 1 1
v 6.475425E-08 0.1207107 4.170711 1 1 1
v -0.04999994 0.1207107 4.170711 1 1 1
v 8.046627E-08 0.15 4.1 1 1 1
v -0.04999993 0.15 4.1 1 1 1
v 2.682209E-08 0.05000001 4.2 1 1 1
v -0.04999998 0.05000001 4.2 1 1 1
v 2.682209E-08 0.05000001 4 1 1 1
v 2.682209E-08 0.05000001 4.1 1 1 1
v 8.046627E-08 0.15 4 1 1 1
v -2.682209E-08 -0.04999995 4.2 1 1 1
v -2.682209E-08 -0.04999995 4.1 1 1 1
v -2.682209E-08 -0.04999995 4 1 1 1
v -6.475425E-08 -0.1207107 4.170711 1 1 1
v -8.046627E-08 -0.15 4.1 1 1 1
v -8.046627E-08 -0.15 4 1 1 1
v -0.05000007 -0.1207106 4.170711 1 1 1
v -0.05000009 -0.15 4.1 1 1 1
v -0.05000003 -0.04999995 4.2 1 1 1
v -0.05000009 -0.15 4 1 1 1
v -0.04999993 0.15 4 1 1 1
v -0.05000003 -0.04999995 4.1 1 1 1
v -0.05000003 -0.04999995 4 1 1 1
v -0.04999998 0.05000001 4.1 1 1 1
v -0.04999998 0.05000001 4 1 1 1

vn 0.4151097 -0.9097713 0
vn 0.2288764 -0.9734555 0
vn -0.9734555 -0.2288764 0
vn -0.850177 0.5264969 0
vn -0.9097713 -0.4151097 0
vn -0.9368323 0.3497786 0
vn 0.5264969 0.850177 0
vn 0.3497786 0.9368323 0
vn 0.9734555 0.2288764 0
vn 0.9097713 0.4151097 0
vn -0.2288764 0.9734555 0
vn -0.4151097 0.9097713 0
vn 2.02514E-06 -1 0
vn -1 -2.02514E-06 0
vn -0.7071082 0.7071053 0
vn 0.7071053 0.7071082 0
vn 1 2.02514E-06 0
vn -2.02514E-06 1 0
vn 0.7071065 -0.7071071 0
vn 0.5727341 -0.8197412 0
vn -0.8197412 -0.5727341 0
vn -0.9846287 0.1746604 0
vn -0.7071071 -0.7071065 0
vn -1 4.172325E-07 0
vn 0.1746604 0.9846287 0
vn 4.172325E-07 1 0
vn 0.8197412 0.5727341 0
vn 0.7071071 0.7071065 0
vn -0.5727341 0.8197412 0
vn -0.7071065 0.7071071 0
vn 0.909771 -0.4151105 0
vn 0.819741 -0.5727344 0
vn -0.5727344 -0.819741 0
vn -0.9846289 -0.1746601 0
vn -0.4151105 -0.909771 0
vn -0.9368327 -0.3497778 0
vn -0.1746601 0.9846289 0
vn -0.3497778 0.9368327 0
vn 0.5727344 0.819741 0
vn 0.4151105 0.909771 0
vn -0.819741 0.5727344 0
vn -0.909771 0.4151105 0
vn 0.9999999 -2.741814E-06 0
vn 0.9734553 -0.2288767 0
vn -0.2288767 -0.9734553 0
vn -0.8501772 -0.5264965 0
vn -2.741814E-06 -0.9999999 0
vn -0.7071086 -0.7071048 0
vn -0.5264965 0.8501772 0
vn -0.7071048 0.7071086 0
vn 0.2288767 0.9734553 0
vn 2.741814E-06 0.9999999 0
vn -0.9734553 0.2288767 0
vn -0.9999999 2.741814E-06 0
vn 0 0 -1
vn -0.7071068 0 -0.7071068
vn -0.9807853 0 -0.1950903
vn -0.1950903 0 -0.9807853
vn 0 -1 0
vn 0.7071068 0 -0.7071068
vn 0.9807853 0 -0.1950903
vn 0.1950903 0 -0.9807853
vn 1 0 0
vn -1 0 0
vn 0 0 1
vn 0 1 0
vn 3.793216E-07 0.7071068 0.7071068
vn 5.261342E-07 0.9807854 0.1950903
vn 1.046546E-07 0.1950904 0.9807853
vn 1 -5.364418E-07 0
vn -3.793216E-07 -0.7071068 0.7071068
vn -5.261342E-07 -0.9807854 0.1950903
vn -1.046546E-07 -0.1950904 0.9807853
vn -5.364418E-07 -1 7.21645E-16
vn 5.364418E-07 1 -7.21645E-16
vn -3.871205E-22 -7.216451E-16 -1
vn -1 5.364418E-07 0

vt 0.59375 0.275
vt 0.59375 0.475
vt 0.59375 0.3416667
vt 0.59375 0.025
vt 0.59375 0.09166666
vt 0.59375 0.225
vt 0.34375 0.025
vt 0.34375 0.225

usemtl colormap

f 3/1/1 2/1/2 1/1/1
f 2/1/2 3/1/1 4/1/2
f 3/1/5 5/2/4 4/1/3
f 5/2/4 3/1/5 6/2/6
f 9/3/5 8/2/4 7/3/3
f 8/2/4 9/3/5 10/2/6
f 5/2/4 12/2/8 11/2/7
f 12/2/8 5/2/4 6/2/6
f 8/2/4 14/2/8 13/2/7
f 14/2/8 8/2/4 10/2/6
f 12/2/8 15/3/9 11/2/7
f 15/3/9 12/2/8 16/3/10
f 14/2/8 2/1/9 13/2/7
f 2/1/9 14/2/8 1/1/10
f 15/3/11 9/3/12 7/3/11
f 9/3/12 15/3/11 16/3/12
f 4/4/2 17/4/13 2/4/2
f 17/4/13 4/4/2 18/4/13
f 7/5/3 20/6/15 19/5/14
f 20/6/15 7/5/3 8/6/4
f 13/6/7 20/6/15 8/6/4
f 20/6/15 13/6/7 21/6/16
f 13/6/7 17/4/17 21/6/16
f 17/4/17 13/6/7 2/4/9
f 22/5/18 7/5/11 19/5/18
f 7/5/11 22/5/18 15/5/11
f 4/4/3 23/6/15 18/4/14
f 23/6/15 4/4/3 5/6/4
f 11/6/7 23/6/15 5/6/4
f 23/6/15 11/6/7 24/6/16
f 11/6/7 22/5/17 24/6/16
f 22/5/17 11/6/7 15/5/9
f 27/1/19 26/1/20 25/1/19
f 26/1/20 27/1/19 28/1/20
f 27/1/23 29/2/22 28/1/21
f 29/2/22 27/1/23 30/2/24
f 33/3/23 32/2/22 31/3/21
f 32/2/22 33/3/23 34/2/24
f 29/2/22 36/2/26 35/2/25
f 36/2/26 29/2/22 30/2/24
f 32/2/22 38/2/26 37/2/25
f 38/2/26 32/2/22 34/2/24
f 36/2/26 39/3/27 35/2/25
f 39/3/27 36/2/26 40/3/28
f 38/2/26 26/1/27 37/2/25
f 26/1/27 38/2/26 25/1/28
f 39/3/29 33/3/30 31/3/29
f 33/3/30 39/3/29 40/3/30
f 28/4/20 1/4/1 26/4/20
f 1/4/1 28/4/20 3/4/1
f 31/5/21 10/6/6 9/5/5
f 10/6/6 31/5/21 32/6/22
f 37/6/25 10/6/6 32/6/22
f 10/6/6 37/6/25 14/6/8
f 37/6/25 1/4/10 14/6/8
f 1/4/10 37/6/25 26/4/27
f 16/5/12 31/5/29 9/5/12
f 31/5/29 16/5/12 39/5/29
f 28/4/21 6/6/6 3/4/5
f 6/6/6 28/4/21 29/6/22
f 35/6/25 6/6/6 29/6/22
f 6/6/6 35/6/25 12/6/8
f 35/6/25 16/5/10 12/6/8
f 16/5/10 35/6/25 39/5/27
f 43/1/31 42/1/32 41/1/31
f 42/1/32 43/1/31 44/1/32
f 43/1/35 45/2/34 44/1/33
f 45/2/34 43/1/35 46/2/36
f 49/3/35 48/2/34 47/3/33
f 48/2/34 49/3/35 50/2/36
f 45/2/34 52/2/38 51/2/37
f 52/2/38 45/2/34 46/2/36
f 48/2/34 54/2/38 53/2/37
f 54/2/38 48/2/34 50/2/36
f 52/2/38 55/3/39 51/2/37
f 55/3/39 52/2/38 56/3/40
f 54/2/38 42/1/39 53/2/37
f 42/1/39 54/2/38 41/1/40
f 55/3/41 49/3/42 47/3/41
f 49/3/42 55/3/41 56/3/42
f 44/4/32 25/4/19 42/4/32
f 25/4/19 44/4/32 27/4/19
f 47/5/33 34/6/24 33/5/23
f 34/6/24 47/5/33 48/6/34
f 53/6/37 34/6/24 48/6/34
f 34/6/24 53/6/37 38/6/26
f 53/6/37 25/4/28 38/6/26
f 25/4/28 53/6/37 42/4/39
f 40/5/30 47/5/41 33/5/30
f 47/5/41 40/5/30 55/5/41
f 44/4/33 30/6/24 27/4/23
f 30/6/24 44/4/33 45/6/34
f 51/6/37 30/6/24 45/6/34
f 30/6/24 51/6/37 36/6/26
f 51/6/37 40/5/28 36/6/26
f 40/5/28 51/6/37 55/5/39
f 59/1/43 58/1/44 57/1/43
f 58/1/44 59/1/43 60/1/44
f 59/1/47 61/2/46 60/1/45
f 61/2/46 59/1/47 62/2/48
f 65/3/47 64/2/46 63/3/45
f 64/2/46 65/3/47 66/2/48
f 61/2/46 68/2/50 67/2/49
f 68/2/50 61/2/46 62/2/48
f 64/2/46 70/2/50 69/2/49
f 70/2/50 64/2/46 66/2/48
f 68/2/50 71/3/51 67/2/49
f 71/3/51 68/2/50 72/3/52
f 70/2/50 58/1/51 69/2/49
f 58/1/51 70/2/50 57/1/52
f 71/3/53 65/3/54 63/3/53
f 65/3/54 71/3/53 72/3/54
f 60/4/44 41/4/31 58/4/44
f 41/4/31 60/4/44 43/4/31
f 63/5/45 50/6/36 49/5/35
f 50/6/36 63/5/45 64/6/46
f 69/6/49 50/6/36 64/6/46
f 50/6/36 69/6/49 54/6/38
f 69/6/49 41/4/40 54/6/38
f 41/4/40 69/6/49 58/4/51
f 56/5/42 63/5/53 49/5/42
f 63/5/53 56/5/42 71/5/53
f 60/4/45 46/6/36 43/4/35
f 46/6/36 60/4/45 61/6/46
f 67/6/49 46/6/36 61/6/46
f 46/6/36 67/6/49 52/6/38
f 67/6/49 56/5/40 52/6/38
f 56/5/40 67/6/49 71/5/51
f 75/5/55 74/6/55 73/6/55
f 75/5/55 76/4/55 74/6/55
f 76/4/55 75/5/55 77/4/55
f 78/5/55 77/4/55 75/5/55
f 77/4/55 78/5/55 79/6/55
f 79/6/55 78/5/55 80/6/55
f 83/7/57 82/8/56 81/7/56
f 82/8/56 83/7/57 84/8/57
f 82/8/56 85/7/58 81/7/56
f 85/7/58 82/8/56 86/8/58
f 89/7/59 88/7/59 87/7/59
f 88/7/59 89/7/59 85/7/59
f 85/7/59 89/7/59 81/7/59
f 81/7/59 89/7/59 83/7/59
f 90/7/59 88/7/59 85/7/59
f 90/7/59 91/7/59 88/7/59
f 90/7/59 92/7/59 91/7/59
f 93/7/59 92/7/59 90/7/59
f 94/7/59 92/7/59 93/7/59
f 92/7/59 94/7/59 95/7/59
f 97/8/61 93/7/60 96/8/60
f 93/7/60 97/8/61 94/7/61
f 98/8/62 93/7/60 90/7/62
f 93/7/60 98/8/62 96/8/60
f 99/8/63 94/7/61 97/8/61
f 94/7/61 99/8/63 95/7/63
f 89/7/64 84/8/57 83/7/57
f 84/8/57 89/7/64 100/8/64
f 86/8/58 90/7/62 85/7/58
f 90/7/62 86/8/58 98/8/62
f 92/7/64 101/8/64 91/7/64
f 101/8/64 92/7/64 102/8/64
f 101/8/65 88/7/65 91/7/65
f 88/7/65 101/8/65 103/8/65
f 104/8/63 88/7/63 103/8/63
f 88/7/63 104/8/63 87/7/63
f 100/8/66 82/8/66 84/8/66
f 104/8/66 82/8/66 100/8/66
f 103/8/66 82/8/66 104/8/66
f 103/8/66 86/8/66 82/8/66
f 101/8/66 86/8/66 103/8/66
f 86/8/66 101/8/66 98/8/66
f 102/8/66 98/8/66 101/8/66
f 102/8/66 96/8/66 98/8/66
f 99/8/66 96/8/66 102/8/66
f 96/8/66 99/8/66 97/8/66
f 107/3/65 106/2/65 105/2/65
f 107/3/65 108/1/65 106/2/65
f 108/1/65 107/3/65 109/1/65
f 110/3/65 109/1/65 107/3/65
f 109/1/65 110/3/65 111/2/65
f 111/2/65 110/3/65 112/2/65
f 115/7/68 114/8/67 113/7/67
f 114/8/67 115/7/68 116/8/68
f 114/8/67 117/7/69 113/7/67
f 117/7/69 114/8/67 118/8/69
f 121/7/70 120/7/70 119/7/70
f 120/7/70 121/7/70 117/7/70
f 117/7/70 121/7/70 113/7/70
f 113/7/70 121/7/70 115/7/70
f 122/7/70 120/7/70 117/7/70
f 122/7/70 123/7/70 120/7/70
f 122/7/70 124/7/70 123/7/70
f 125/7/70 124/7/70 122/7/70
f 126/7/70 124/7/70 125/7/70
f 124/7/70 126/7/70 127/7/70
f 129/8/72 125/7/71 128/8/71
f 125/7/71 129/8/72 126/7/72
f 130/8/73 125/7/71 122/7/73
f 125/7/71 130/8/73 128/8/71
f 131/8/74 126/7/72 129/8/72
f 126/7/72 131/8/74 127/7/74
f 121/7/75 116/8/68 115/7/68
f 116/8/68 121/7/75 132/8/75
f 118/8/69 122/7/73 117/7/69
f 122/7/73 118/8/69 130/8/73
f 124/7/75 133/8/75 123/7/75
f 133/8/75 124/7/75 134/8/75
f 133/8/76 120/7/76 123/7/76
f 120/7/76 133/8/76 135/8/76
f 136/8/74 120/7/74 135/8/74
f 120/7/74 136/8/74 119/7/74
f 132/8/77 114/8/77 116/8/77
f 136/8/77 114/8/77 132/8/77
f 135/8/77 114/8/77 136/8/77
f 135/8/77 118/8/77 114/8/77
f 133/8/77 118/8/77 135/8/77
f 118/8/77 133/8/77 130/8/77
f 134/8/77 130/8/77 133/8/77
f 134/8/77 128/8/77 130/8/77
f 131/8/77 128/8/77 134/8/77
f 128/8/77 131/8/77 129/8/77

g track-striped-narrow-straight-skew-right-side




usemtl colormap

f 3/1/1 2/1/2 1/1/1
f 2/1/2 3/1/1 4/1/2
f 3/1/5 5/2/4 4/1/3
f 5/2/4 3/1/5 6/2/6
f 9/3/5 8/2/4 7/3/3
f 8/2/4 9/3/5 10/2/6
f 5/2/4 12/2/8 11/2/7
f 12/2/8 5/2/4 6/2/6
f 8/2/4 14/2/8 13/2/7
f 14/2/8 8/2/4 10/2/6
f 12/2/8 15/3/9 11/2/7
f 15/3/9 12/2/8 16/3/10
f 14/2/8 2/1/9 13/2/7
f 2/1/9 14/2/8 1/1/10
f 15/3/11 9/3/12 7/3/11
f 9/3/12 15/3/11 16/3/12
f 4/4/2 17/4/13 2/4/2
f 17/4/13 4/4/2 18/4/13
f 7/5/3 20/6/15 19/5/14
f 20/6/15 7/5/3 8/6/4
f 13/6/7 20/6/15 8/6/4
f 20/6/15 13/6/7 21/6/16
f 13/6/7 17/4/17 21/6/16
f 17/4/17 13/6/7 2/4/9
f 22/5/18 7/5/11 19/5/18
f 7/5/11 22/5/18 15/5/11
f 4/4/3 23/6/15 18/4/14
f 23/6/15 4/4/3 5/6/4
f 11/6/7 23/6/15 5/6/4
f 23/6/15 11/6/7 24/6/16
f 11/6/7 22/5/17 24/6/16
f 22/5/17 11/6/7 15/5/9
f 27/1/19 26/1/20 25/1/19
f 26/1/20 27/1/19 28/1/20
f 27/1/23 29/2/22 28/1/21
f 29/2/22 27/1/23 30/2/24
f 33/3/23 32/2/22 31/3/21
f 32/2/22 33/3/23 34/2/24
f 29/2/22 36/2/26 35/2/25
f 36/2/26 29/2/22 30/2/24
f 32/2/22 38/2/26 37/2/25
f 38/2/26 32/2/22 34/2/24
f 36/2/26 39/3/27 35/2/25
f 39/3/27 36/2/26 40/3/28
f 38/2/26 26/1/27 37/2/25
f 26/1/27 38/2/26 25/1/28
f 39/3/29 33/3/30 31/3/29
f 33/3/30 39/3/29 40/3/30
f 28/4/20 1/4/1 26/4/20
f 1/4/1 28/4/20 3/4/1
f 31/5/21 10/6/6 9/5/5
f 10/6/6 31/5/21 32/6/22
f 37/6/25 10/6/6 32/6/22
f 10/6/6 37/6/25 14/6/8
f 37/6/25 1/4/10 14/6/8
f 1/4/10 37/6/25 26/4/27
f 16/5/12 31/5/29 9/5/12
f 31/5/29 16/5/12 39/5/29
f 28/4/21 6/6/6 3/4/5
f 6/6/6 28/4/21 29/6/22
f 35/6/25 6/6/6 29/6/22
f 6/6/6 35/6/25 12/6/8
f 35/6/25 16/5/10 12/6/8
f 16/5/10 35/6/25 39/5/27
f 43/1/31 42/1/32 41/1/31
f 42/1/32 43/1/31 44/1/32
f 43/1/35 45/2/34 44/1/33
f 45/2/34 43/1/35 46/2/36
f 49/3/35 48/2/34 47/3/33
f 48/2/34 49/3/35 50/2/36
f 45/2/34 52/2/38 51/2/37
f 52/2/38 45/2/34 46/2/36
f 48/2/34 54/2/38 53/2/37
f 54/2/38 48/2/34 50/2/36
f 52/2/38 55/3/39 51/2/37
f 55/3/39 52/2/38 56/3/40
f 54/2/38 42/1/39 53/2/37
f 42/1/39 54/2/38 41/1/40
f 55/3/41 49/3/42 47/3/41
f 49/3/42 55/3/41 56/3/42
f 44/4/32 25/4/19 42/4/32
f 25/4/19 44/4/32 27/4/19
f 47/5/33 34/6/24 33/5/23
f 34/6/24 47/5/33 48/6/34
f 53/6/37 34/6/24 48/6/34
f 34/6/24 53/6/37 38/6/26
f 53/6/37 25/4/28 38/6/26
f 25/4/28 53/6/37 42/4/39
f 40/5/30 47/5/41 33/5/30
f 47/5/41 40/5/30 55/5/41
f 44/4/33 30/6/24 27/4/23
f 30/6/24 44/4/33 45/6/34
f 51/6/37 30/6/24 45/6/34
f 30/6/24 51/6/37 36/6/26
f 51/6/37 40/5/28 36/6/26
f 40/5/28 51/6/37 55/5/39
f 59/1/43 58/1/44 57/1/43
f 58/1/44 59/1/43 60/1/44
f 59/1/47 61/2/46 60/1/45
f 61/2/46 59/1/47 62/2/48
f 65/3/47 64/2/46 63/3/45
f 64/2/46 65/3/47 66/2/48
f 61/2/46 68/2/50 67/2/49
f 68/2/50 61/2/46 62/2/48
f 64/2/46 70/2/50 69/2/49
f 70/2/50 64/2/46 66/2/48
f 68/2/50 71/3/51 67/2/49
f 71/3/51 68/2/50 72/3/52
f 70/2/50 58/1/51 69/2/49
f 58/1/51 70/2/50 57/1/52
f 71/3/53 65/3/54 63/3/53
f 65/3/54 71/3/53 72/3/54
f 60/4/44 41/4/31 58/4/44
f 41/4/31 60/4/44 43/4/31
f 63/5/45 50/6/36 49/5/35
f 50/6/36 63/5/45 64/6/46
f 69/6/49 50/6/36 64/6/46
f 50/6/36 69/6/49 54/6/38
f 69/6/49 41/4/40 54/6/38
f 41/4/40 69/6/49 58/4/51
f 56/5/42 63/5/53 49/5/42
f 63/5/53 56/5/42 71/5/53
f 60/4/45 46/6/36 43/4/35
f 46/6/36 60/4/45 61/6/46
f 67/6/49 46/6/36 61/6/46
f 46/6/36 67/6/49 52/6/38
f 67/6/49 56/5/40 52/6/38
f 56/5/40 67/6/49 71/5/51
f 75/5/55 74/6/55 73/6/55
f 75/5/55 76/4/55 74/6/55
f 76/4/55 75/5/55 77/4/55
f 78/5/55 77/4/55 75/5/55
f 77/4/55 78/5/55 79/6/55
f 79/6/55 78/5/55 80/6/55
f 83/7/57 82/8/56 81/7/56
f 82/8/56 83/7/57 84/8/57
f 82/8/56 85/7/58 81/7/56
f 85/7/58 82/8/56 86/8/58
f 89/7/59 88/7/59 87/7/59
f 88/7/59 89/7/59 85/7/59
f 85/7/59 89/7/59 81/7/59
f 81/7/59 89/7/59 83/7/59
f 90/7/59 88/7/59 85/7/59
f 90/7/59 91/7/59 88/7/59
f 90/7/59 92/7/59 91/7/59
f 93/7/59 92/7/59 90/7/59
f 94/7/59 92/7/59 93/7/59
f 92/7/59 94/7/59 95/7/59
f 97/8/61 93/7/60 96/8/60
f 93/7/60 97/8/61 94/7/61
f 98/8/62 93/7/60 90/7/62
f 93/7/60 98/8/62 96/8/60
f 99/8/63 94/7/61 97/8/61
f 94/7/61 99/8/63 95/7/63
f 89/7/64 84/8/57 83/7/57
f 84/8/57 89/7/64 100/8/64
f 86/8/58 90/7/62 85/7/58
f 90/7/62 86/8/58 98/8/62
f 92/7/64 101/8/64 91/7/64
f 101/8/64 92/7/64 102/8/64
f 101/8/65 88/7/65 91/7/65
f 88/7/65 101/8/65 103/8/65
f 104/8/63 88/7/63 103/8/63
f 88/7/63 104/8/63 87/7/63
f 100/8/66 82/8/66 84/8/66
f 104/8/66 82/8/66 100/8/66
f 103/8/66 82/8/66 104/8/66
f 103/8/66 86/8/66 82/8/66
f 101/8/66 86/8/66 103/8/66
f 86/8/66 101/8/66 98/8/66
f 102/8/66 98/8/66 101/8/66
f 102/8/66 96/8/66 98/8/66
f 99/8/66 96/8/66 102/8/66
f 96/8/66 99/8/66 97/8/66
f 107/3/65 106/2/65 105/2/65
f 107/3/65 108/1/65 106/2/65
f 108/1/65 107/3/65 109/1/65
f 110/3/65 109/1/65 107/3/65
f 109/1/65 110/3/65 111/2/65
f 111/2/65 110/3/65 112/2/65
f 115/7/68 114/8/67 113/7/67
f 114/8/67 115/7/68 116/8/68
f 114/8/67 117/7/69 113/7/67
f 117/7/69 114/8/67 118/8/69
f 121/7/70 120/7/70 119/7/70
f 120/7/70 121/7/70 117/7/70
f 117/7/70 121/7/70 113/7/70
f 113/7/70 121/7/70 115/7/70
f 122/7/70 120/7/70 117/7/70
f 122/7/70 123/7/70 120/7/70
f 122/7/70 124/7/70 123/7/70
f 125/7/70 124/7/70 122/7/70
f 126/7/70 124/7/70 125/7/70
f 124/7/70 126/7/70 127/7/70
f 129/8/72 125/7/71 128/8/71
f 125/7/71 129/8/72 126/7/72
f 130/8/73 125/7/71 122/7/73
f 125/7/71 130/8/73 128/8/71
f 131/8/74 126/7/72 129/8/72
f 126/7/72 131/8/74 127/7/74
f 121/7/75 116/8/68 115/7/68
f 116/8/68 121/7/75 132/8/75
f 118/8/69 122/7/73 117/7/69
f 122/7/73 118/8/69 130/8/73
f 124/7/75 133/8/75 123/7/75
f 133/8/75 124/7/75 134/8/75
f 133/8/76 120/7/76 123/7/76
f 120/7/76 133/8/76 135/8/76
f 136/8/74 120/7/74 135/8/74
f 120/7/74 136/8/74 119/7/74
f 132/8/77 114/8/77 116/8/77
f 136/8/77 114/8/77 132/8/77
f 135/8/77 114/8/77 136/8/77
f 135/8/77 118/8/77 114/8/77
f 133/8/77 118/8/77 135/8/77
f 118/8/77 133/8/77 130/8/77
f 134/8/77 130/8/77 133/8/77
f 134/8/77 128/8/77 130/8/77
f 131/8/77 128/8/77 134/8/77
f 128/8/77 131/8/77 129/8/77

