# Created by Kenney (www.kenney.nl)

mtllib track-striped-wide-straight-hill-complete.mtl

g track-striped-wide-straight-hill-complete

v 1 0.3150299 0.3934422 1 1 1
v 1 0.3650624 0.776103 1 1 1
v 0.9000001 0.3150299 0.3934422 1 1 1
v 0.9000001 0.3650624 0.776103 1 1 1
v -0.9000001 0.3150299 0.3934422 1 1 1
v -0.9000001 0.115674 0.409481 1 1 1
v -0.9000001 0.3650624 0.776103 1 1 1
v -0.9000001 0.1684418 0.8127136 1 1 1
v 1 0.07013154 0.8310194 1 1 1
v 1 0.0159961 0.417501 1 1 1
v -1 0.07013154 0.8310194 1 1 1
v -1 0.0159961 0.417501 1 1 1
v -1 0.3150299 0.3934422 1 1 1
v -1 0.3650624 0.776103 1 1 1
v 0.9000001 0.115674 0.409481 1 1 1
v 0.9000001 0.1684418 0.8127136 1 1 1
v -1 0 4.291534E-06 1 1 1
v -1 0.3 4.291534E-06 1 1 1
v -0.9000001 0.3 4.291534E-06 1 1 1
v -0.9000001 0.1 4.291534E-06 1 1 1
v 0.9000001 0.1 4.291534E-06 1 1 1
v 0.9000001 0.3 4.291534E-06 1 1 1
v 1 0.3 4.291534E-06 1 1 1
v 1 0 4.291534E-06 1 1 1
v 1 0.4569805 1.144722 1 1 1
v 1 0.5937579 1.502601 1 1 1
v 0.9000001 0.4569805 1.144722 1 1 1
v 0.9000001 0.5937579 1.502601 1 1 1
v -0.9000001 0.4569805 1.144722 1 1 1
v -0.9000001 0.266295 1.205046 1 1 1
v -0.9000001 0.5937579 1.502601 1 1 1
v -0.9000001 0.4109042 1.583622 1 1 1
v 1 0.3194773 1.624133 1 1 1
v 1 0.1709521 1.235209 1 1 1
v -1 0.3194773 1.624133 1 1 1
v -1 0.1709521 1.235209 1 1 1
v -1 0.4569805 1.144722 1 1 1
v -1 0.5937579 1.502601 1 1 1
v 0.9000001 0.266295 1.205046 1 1 1
v 0.9000001 0.4109042 1.583622 1 1 1
v 1 0.7683282 1.865836 1 1 1
v 1 0.9548032 2.254334 1 1 1
v 0.9000001 0.7683282 1.865836 1 1 1
v 0.9000001 0.9548032 2.254334 1 1 1
v -0.9000001 0.7683282 1.865836 1 1 1
v -0.9000001 0.5894427 1.955278 1 1 1
v -0.9000001 0.9548032 2.254334 1 1 1
v -0.9000001 0.7719495 2.335356 1 1 1
v 1 0.6805227 2.375867 1 1 1
v 1 0.5 2 1 1 1
v -1 0.6805227 2.375867 1 1 1
v -1 0.5 2 1 1 1
v -1 0.7683282 1.865836 1 1 1
v -1 0.9548032 2.254334 1 1 1
v 0.9000001 0.5894427 1.955278 1 1 1
v 0.9000001 0.7719495 2.335356 1 1 1
v 1 1.115076 2.674305 1 1 1
v 1 1.224799 3.114065 1 1 1
v 0.9000001 1.115076 2.674305 1 1 1
v 0.9000001 1.224799 3.114065 1 1 1
v -0.9000001 1.115076 2.674305 1 1 1
v -0.9000001 0.9243908 2.73463 1 1 1
v -0.9000001 1.224799 3.114065 1 1 1
v -0.9000001 1.028179 3.150676 1 1 1
v 1 0.9298685 3.168981 1 1 1
v 1 0.8290479 2.764792 1 1 1
v -1 0.9298685 3.168981 1 1 1
v -1 0.8290479 2.764792 1 1 1
v -1 1.115076 2.674305 1 1 1
v -1 1.224799 3.114065 1 1 1
v 0.9000001 0.9243908 2.73463 1 1 1
v 0.9000001 1.028179 3.150676 1 1 1
v 1 1.283038 3.558441 1 1 1
v 1 1.3 3.999995 1 1 1
v 0.9000001 1.283038 3.558441 1 1 1
v 0.9000001 1.3 3.999995 1 1 1
v -0.9000001 1.283038 3.558441 1 1 1
v -0.9000001 1.083682 3.57448 1 1 1
v -0.9000001 1.3 3.999995 1 1 1
v -0.9000001 1.1 3.999996 1 1 1
v 1 1 3.999996 1 1 1
v 1 0.984004 3.582499 1 1 1
v -1 1 3.999996 1 1 1
v -1 0.984004 3.582499 1 1 1
v -1 1.283038 3.558441 1 1 1
v -1 1.3 3.999995 1 1 1
v 0.9000001 1.083682 3.57448 1 1 1
v 0.9000001 1.1 3.999996 1 1 1
v -0.9 0.3 0 1 1 1
v -1 0.3 0 1 1 1
v -0.9 0.1 0 1 1 1
v -1 0 0 1 1 1
v 1 0 0 1 1 1
v 0.9 0.1 0 1 1 1
v 1 0.3 0 1 1 1
v 0.9 0.3 0 1 1 1
v -0.1207107 0 -0.1707107 1 1 1
v -0.1207107 0.05000001 -0.1707107 1 1 1
v -0.15 0 -0.1 1 1 1
v -0.15 0.05000001 -0.1 1 1 1
v -0.05 0 -0.2 1 1 1
v -0.05 0.05000001 -0.2 1 1 1
v -0.05 0 7.219114E-16 1 1 1
v -0.05 0 -0.1 1 1 1
v -0.15 0 1.082867E-15 1 1 1
v 0.05 0 -0.2 1 1 1
v 0.05 0 -0.1 1 1 1
v 0.05 0 3.609557E-16 1 1 1
v 0.1207107 0 -0.1707107 1 1 1
v 0.15 0 -0.1 1 1 1
v 0.15 0 0 1 1 1
v 0.1207107 0.05000001 -0.1707107 1 1 1
v 0.15 0.05000001 -0.1 1 1 1
v 0.05 0.05000001 -0.2 1 1 1
v 0.15 0.05000001 0 1 1 1
v -0.15 0.05000001 1.082867E-15 1 1 1
v 0.05 0.05000001 -0.1 1 1 1
v 0.05 0.05000001 3.609557E-16 1 1 1
v -0.05 0.05000001 -0.1 1 1 1
v -0.05 0.05000001 7.219114E-16 1 1 1
v 0.9 1.3 4 1 1 1
v 1 1.3 4 1 1 1
v 0.9 1.1 4 1 1 1
v 1 1 4 1 1 1
v -1 1 4 1 1 1
v -0.9 1.1 4 1 1 1
v -1 1.3 4 1 1 1
v -0.9 1.3 4 1 1 1
v 0.1207107 1 4.170711 1 1 1
v 0.1207107 1.05 4.170711 1 1 1
v 0.15 1 4.1 1 1 1
v 0.15 1.05 4.1 1 1 1
v 0.05 1 4.2 1 1 1
v 0.05 1.05 4.2 1 1 1
v 0.05 1 4 1 1 1
v 0.05 1 4.1 1 1 1
v 0.15 1 4 1 1 1
v -0.05 1 4.2 1 1 1
v -0.05 1 4.1 1 1 1
v -0.05 1 4 1 1 1
v -0.1207107 1 4.170711 1 1 1
v -0.15 1 4.1 1 1 1
v -0.15 1 4 1 1 1
v -0.1207107 1.05 4.170711 1 1 1
v -0.15 1.05 4.1 1 1 1
v -0.05 1.05 4.2 1 1 1
v -0.15 1.05 4 1 1 1
v 0.15 1.05 4 1 1 1
v -0.05 1.05 4.1 1 1 1
v -0.05 1.05 4 1 1 1
v 0.05 1.05 4.1 1 1 1
v 0.05 1.05 4 1 1 1

vn 0.7071068 0.7048293 -0.05670682
vn 0.7071068 0.6951586 -0.129439
vn -0.7071068 0.7048293 -0.05670682
vn -0.7071068 0.6951586 -0.129439
vn 1 0 0
vn 0 -0.9831028 0.1830544
vn 0 -0.9967791 0.08019556
vn -1 0 0
vn 0 0.9967791 -0.08019556
vn 0 0.9831028 -0.1830544
vn -0.7071068 0.7071068 -5.086011E-07
vn 0.7071068 0.7071068 -5.086011E-07
vn 0 1 -7.192706E-07
vn 0 -1 7.192706E-07
vn 0.7071068 0.6741751 -0.213279
vn 0.7071068 0.6464855 -0.286455
vn -0.7071068 0.6741751 -0.213279
vn -0.7071068 0.6464855 -0.286455
vn 0 -0.9142686 0.4051086
vn 0 -0.9534276 0.301622
vn 0 0.9534276 -0.301622
vn 0 0.9142686 -0.4051086
vn 0.7071068 0.6324555 -0.3162278
vn 0.7071068 0.6464855 -0.2864551
vn -0.7071068 0.6324555 -0.3162278
vn -0.7071068 0.6464855 -0.2864551
vn 0 -0.9142686 0.4051087
vn 0 -0.8944272 0.4472136
vn 0 0.8944272 -0.4472136
vn 0 0.9142686 -0.4051087
vn 0.7071068 0.6741751 -0.2132789
vn -0.7071068 0.6741751 -0.2132789
vn 0 -0.9534276 0.301622
vn 0 0.9534276 -0.301622
vn 0.7071068 0.7048293 -0.0567068
vn 0.7071068 0.7071068 -5.057629E-07
vn -0.7071068 0.7048293 -0.0567068
vn -0.7071068 0.7071068 -5.057629E-07
vn 0 -1 7.152568E-07
vn 0 -0.9967791 0.08019554
vn 0 0.9967791 -0.08019554
vn 0 1 -7.152568E-07
vn 0 0 -1
vn -0.7071068 0 -0.7071068
vn -0.9807853 0 -0.1950903
vn -0.1950903 0 -0.9807853
vn 0 -1 0
vn 0.7071068 0 -0.7071068
vn 0.9807853 0 -0.1950903
vn 0.1950903 0 -0.9807853
vn 0 0 1
vn 0 1 0
vn 0.7071068 0 0.7071068
vn 0.9807853 0 0.1950903
vn 0.1950903 0 0.9807853
vn -0.7071068 0 0.7071068
vn -0.9807853 0 0.1950903
vn -0.1950903 0 0.9807853
vn -1 0 7.21645E-16
vn 1 0 -7.21645E-16
vn -7.21645E-16 0 -1

vt 0.59375 0.475
vt 0.59375 0.3416667
vt 0.59375 0.275
vt 0.59375 0.025
vt 0.59375 0.225
vt 0.59375 0.09166666
vt 0.34375 0.025
vt 0.34375 0.225

usemtl colormap

f 3/1/3 2/1/2 1/1/1
f 2/1/2 3/1/3 4/1/4
f 7/1/2 6/2/5 5/1/1
f 6/2/5 7/1/2 8/2/5
f 11/3/6 10/3/7 9/3/6
f 10/3/7 11/3/6 12/3/7
f 11/3/8 13/1/3 12/3/8
f 13/1/3 11/3/8 14/1/4
f 13/1/3 7/1/2 5/1/1
f 7/1/2 13/1/3 14/1/4
f 2/1/2 10/3/5 1/1/1
f 10/3/5 2/1/2 9/3/5
f 16/2/8 3/1/3 15/2/8
f 3/1/3 16/2/8 4/1/4
f 6/2/9 16/2/10 15/2/9
f 16/2/10 6/2/9 8/2/10
f 12/4/8 18/5/11 17/4/8
f 18/5/11 12/4/8 13/5/3
f 5/5/1 18/5/11 13/5/3
f 18/5/11 5/5/1 19/5/12
f 5/5/1 20/6/5 19/5/12
f 20/6/5 5/5/1 6/6/5
f 20/6/13 15/6/9 21/6/13
f 15/6/9 20/6/13 6/6/9
f 15/6/8 22/5/11 21/6/8
f 22/5/11 15/6/8 3/5/3
f 1/5/1 22/5/11 3/5/3
f 22/5/11 1/5/1 23/5/12
f 1/5/1 24/4/5 23/5/12
f 24/4/5 1/5/1 10/4/5
f 12/4/7 24/4/14 10/4/7
f 24/4/14 12/4/7 17/4/14
f 27/1/17 26/1/16 25/1/15
f 26/1/16 27/1/17 28/1/18
f 31/1/16 30/2/5 29/1/15
f 30/2/5 31/1/16 32/2/5
f 35/3/19 34/3/20 33/3/19
f 34/3/20 35/3/19 36/3/20
f 35/3/8 37/1/17 36/3/8
f 37/1/17 35/3/8 38/1/18
f 37/1/17 31/1/16 29/1/15
f 31/1/16 37/1/17 38/1/18
f 26/1/16 34/3/5 25/1/15
f 34/3/5 26/1/16 33/3/5
f 40/2/8 27/1/17 39/2/8
f 27/1/17 40/2/8 28/1/18
f 30/2/21 40/2/22 39/2/21
f 40/2/22 30/2/21 32/2/22
f 36/4/8 14/5/4 11/4/8
f 14/5/4 36/4/8 37/5/17
f 29/5/15 14/5/4 37/5/17
f 14/5/4 29/5/15 7/5/2
f 29/5/15 8/6/5 7/5/2
f 8/6/5 29/5/15 30/6/5
f 8/6/10 39/6/21 16/6/10
f 39/6/21 8/6/10 30/6/21
f 39/6/8 4/5/4 16/6/8
f 4/5/4 39/6/8 27/5/17
f 25/5/15 4/5/4 27/5/17
f 4/5/4 25/5/15 2/5/2
f 25/5/15 9/4/5 2/5/2
f 9/4/5 25/5/15 34/4/5
f 36/4/20 9/4/6 34/4/20
f 9/4/6 36/4/20 11/4/6
f 43/1/25 42/1/24 41/1/23
f 42/1/24 43/1/25 44/1/26
f 47/1/24 46/2/5 45/1/23
f 46/2/5 47/1/24 48/2/5
f 51/3/27 50/3/28 49/3/27
f 50/3/28 51/3/27 52/3/28
f 51/3/8 53/1/25 52/3/8
f 53/1/25 51/3/8 54/1/26
f 53/1/25 47/1/24 45/1/23
f 47/1/24 53/1/25 54/1/26
f 42/1/24 50/3/5 41/1/23
f 50/3/5 42/1/24 49/3/5
f 56/2/8 43/1/25 55/2/8
f 43/1/25 56/2/8 44/1/26
f 46/2/29 56/2/30 55/2/29
f 56/2/30 46/2/29 48/2/30
f 52/4/8 38/5/18 35/4/8
f 38/5/18 52/4/8 53/5/25
f 45/5/23 38/5/18 53/5/25
f 38/5/18 45/5/23 31/5/16
f 45/5/23 32/6/5 31/5/16
f 32/6/5 45/5/23 46/6/5
f 32/6/22 55/6/29 40/6/22
f 55/6/29 32/6/22 46/6/29
f 55/6/8 28/5/18 40/6/8
f 28/5/18 55/6/8 43/5/25
f 41/5/23 28/5/18 43/5/25
f 28/5/18 41/5/23 26/5/16
f 41/5/23 33/4/5 26/5/16
f 33/4/5 41/5/23 50/4/5
f 52/4/28 33/4/19 50/4/28
f 33/4/19 52/4/28 35/4/19
f 59/1/32 58/1/2 57/1/31
f 58/1/2 59/1/32 60/1/4
f 63/1/2 62/2/5 61/1/31
f 62/2/5 63/1/2 64/2/5
f 67/3/6 66/3/33 65/3/6
f 66/3/33 67/3/6 68/3/33
f 67/3/8 69/1/32 68/3/8
f 69/1/32 67/3/8 70/1/4
f 69/1/32 63/1/2 61/1/31
f 63/1/2 69/1/32 70/1/4
f 58/1/2 66/3/5 57/1/31
f 66/3/5 58/1/2 65/3/5
f 72/2/8 59/1/32 71/2/8
f 59/1/32 72/2/8 60/1/4
f 62/2/34 72/2/10 71/2/34
f 72/2/10 62/2/34 64/2/10
f 68/4/8 54/5/26 51/4/8
f 54/5/26 68/4/8 69/5/32
f 61/5/31 54/5/26 69/5/32
f 54/5/26 61/5/31 47/5/24
f 61/5/31 48/6/5 47/5/24
f 48/6/5 61/5/31 62/6/5
f 48/6/30 71/6/34 56/6/30
f 71/6/34 48/6/30 62/6/34
f 71/6/8 44/5/26 56/6/8
f 44/5/26 71/6/8 59/5/32
f 57/5/31 44/5/26 59/5/32
f 44/5/26 57/5/31 42/5/24
f 57/5/31 49/4/5 42/5/24
f 49/4/5 57/5/31 66/4/5
f 68/4/33 49/4/27 66/4/33
f 49/4/27 68/4/33 51/4/27
f 75/1/37 74/1/36 73/1/35
f 74/1/36 75/1/37 76/1/38
f 79/1/36 78/2/5 77/1/35
f 78/2/5 79/1/36 80/2/5
f 83/3/39 82/3/40 81/3/39
f 82/3/40 83/3/39 84/3/40
f 83/3/8 85/1/37 84/3/8
f 85/1/37 83/3/8 86/1/38
f 85/1/37 79/1/36 77/1/35
f 79/1/36 85/1/37 86/1/38
f 74/1/36 82/3/5 73/1/35
f 82/3/5 74/1/36 81/3/5
f 88/2/8 75/1/37 87/2/8
f 75/1/37 88/2/8 76/1/38
f 78/2/41 88/2/42 87/2/41
f 88/2/42 78/2/41 80/2/42
f 84/4/8 70/5/4 67/4/8
f 70/5/4 84/4/8 85/5/37
f 77/5/35 70/5/4 85/5/37
f 70/5/4 77/5/35 63/5/2
f 77/5/35 64/6/5 63/5/2
f 64/6/5 77/5/35 78/6/5
f 64/6/10 87/6/41 72/6/10
f 87/6/41 64/6/10 78/6/41
f 87/6/8 60/5/4 72/6/8
f 60/5/4 87/6/8 75/5/37
f 73/5/35 60/5/4 75/5/37
f 60/5/4 73/5/35 58/5/2
f 73/5/35 65/4/5 58/5/2
f 65/4/5 73/5/35 82/4/5
f 84/4/40 65/4/6 82/4/40
f 65/4/6 84/4/40 67/4/6
f 91/6/43 90/5/43 89/5/43
f 91/6/43 92/4/43 90/5/43
f 92/4/43 91/6/43 93/4/43
f 94/6/43 93/4/43 91/6/43
f 93/4/43 94/6/43 95/5/43
f 95/5/43 94/6/43 96/5/43
f 99/7/45 98/8/44 97/7/44
f 98/8/44 99/7/45 100/8/45
f 98/8/44 101/7/46 97/7/44
f 101/7/46 98/8/44 102/8/46
f 105/7/47 104/7/47 103/7/47
f 104/7/47 105/7/47 101/7/47
f 101/7/47 105/7/47 97/7/47
f 97/7/47 105/7/47 99/7/47
f 106/7/47 104/7/47 101/7/47
f 106/7/47 107/7/47 104/7/47
f 106/7/47 108/7/47 107/7/47
f 109/7/47 108/7/47 106/7/47
f 110/7/47 108/7/47 109/7/47
f 108/7/47 110/7/47 111/7/47
f 113/8/49 109/7/48 112/8/48
f 109/7/48 113/8/49 110/7/49
f 114/8/50 109/7/48 106/7/50
f 109/7/48 114/8/50 112/8/48
f 115/8/5 110/7/49 113/8/49
f 110/7/49 115/8/5 111/7/5
f 105/7/8 100/8/45 99/7/45
f 100/8/45 105/7/8 116/8/8
f 102/8/46 106/7/50 101/7/46
f 106/7/50 102/8/46 114/8/50
f 108/7/8 117/8/8 107/7/8
f 117/8/8 108/7/8 118/8/8
f 117/8/51 104/7/51 107/7/51
f 104/7/51 117/8/51 119/8/51
f 120/8/5 104/7/5 119/8/5
f 104/7/5 120/8/5 103/7/5
f 116/8/52 98/8/52 100/8/52
f 120/8/52 98/8/52 116/8/52
f 119/8/52 98/8/52 120/8/52
f 119/8/52 102/8/52 98/8/52
f 117/8/52 102/8/52 119/8/52
f 102/8/52 117/8/52 114/8/52
f 118/8/52 114/8/52 117/8/52
f 118/8/52 112/8/52 114/8/52
f 115/8/52 112/8/52 118/8/52
f 112/8/52 115/8/52 113/8/52
f 123/2/51 122/1/51 121/1/51
f 123/2/51 124/3/51 122/1/51
f 124/3/51 123/2/51 125/3/51
f 126/2/51 125/3/51 123/2/51
f 125/3/51 126/2/51 127/1/51
f 127/1/51 126/2/51 128/1/51
f 131/7/54 130/8/53 129/7/53
f 130/8/53 131/7/54 132/8/54
f 130/8/53 133/7/55 129/7/53
f 133/7/55 130/8/53 134/8/55
f 137/7/47 136/7/47 135/7/47
f 136/7/47 137/7/47 133/7/47
f 133/7/47 137/7/47 129/7/47
f 129/7/47 137/7/47 131/7/47
f 138/7/47 136/7/47 133/7/47
f 138/7/47 139/7/47 136/7/47
f 138/7/47 140/7/47 139/7/47
f 141/7/47 140/7/47 138/7/47
f 142/7/47 140/7/47 141/7/47
f 140/7/47 142/7/47 143/7/47
f 145/8/57 141/7/56 144/8/56
f 141/7/56 145/8/57 142/7/57
f 146/8/58 141/7/56 138/7/58
f 141/7/56 146/8/58 144/8/56
f 147/8/59 142/7/57 145/8/57
f 142/7/57 147/8/59 143/7/59
f 137/7/60 132/8/54 131/7/54
f 132/8/54 137/7/60 148/8/60
f 134/8/55 138/7/58 133/7/55
f 138/7/58 134/8/55 146/8/58
f 140/7/60 149/8/60 139/7/60
f 149/8/60 140/7/60 150/8/60
f 149/8/61 136/7/61 139/7/61
f 136/7/61 149/8/61 151/8/61
f 152/8/59 136/7/59 151/8/59
f 136/7/59 152/8/59 135/7/59
f 148/8/52 130/8/52 132/8/52
f 152/8/52 130/8/52 148/8/52
f 151/8/52 130/8/52 152/8/52
f 151/8/52 134/8/52 130/8/52
f 149/8/52 134/8/52 151/8/52
f 134/8/52 149/8/52 146/8/52
f 150/8/52 146/8/52 149/8/52
f 150/8/52 144/8/52 146/8/52
f 147/8/52 144/8/52 150/8/52
f 144/8/52 147/8/52 145/8/52

g track-striped-wide-straight-hill-complete




usemtl colormap

f 3/1/3 2/1/2 1/1/1
f 2/1/2 3/1/3 4/1/4
f 7/1/2 6/2/5 5/1/1
f 6/2/5 7/1/2 8/2/5
f 11/3/6 10/3/7 9/3/6
f 10/3/7 11/3/6 12/3/7
f 11/3/8 13/1/3 12/3/8
f 13/1/3 11/3/8 14/1/4
f 13/1/3 7/1/2 5/1/1
f 7/1/2 13/1/3 14/1/4
f 2/1/2 10/3/5 1/1/1
f 10/3/5 2/1/2 9/3/5
f 16/2/8 3/1/3 15/2/8
f 3/1/3 16/2/8 4/1/4
f 6/2/9 16/2/10 15/2/9
f 16/2/10 6/2/9 8/2/10
f 12/4/8 18/5/11 17/4/8
f 18/5/11 12/4/8 13/5/3
f 5/5/1 18/5/11 13/5/3
f 18/5/11 5/5/1 19/5/12
f 5/5/1 20/6/5 19/5/12
f 20/6/5 5/5/1 6/6/5
f 20/6/13 15/6/9 21/6/13
f 15/6/9 20/6/13 6/6/9
f 15/6/8 22/5/11 21/6/8
f 22/5/11 15/6/8 3/5/3
f 1/5/1 22/5/11 3/5/3
f 22/5/11 1/5/1 23/5/12
f 1/5/1 24/4/5 23/5/12
f 24/4/5 1/5/1 10/4/5
f 12/4/7 24/4/14 10/4/7
f 24/4/14 12/4/7 17/4/14
f 27/1/17 26/1/16 25/1/15
f 26/1/16 27/1/17 28/1/18
f 31/1/16 30/2/5 29/1/15
f 30/2/5 31/1/16 32/2/5
f 35/3/19 34/3/20 33/3/19
f 34/3/20 35/3/19 36/3/20
f 35/3/8 37/1/17 36/3/8
f 37/1/17 35/3/8 38/1/18
f 37/1/17 31/1/16 29/1/15
f 31/1/16 37/1/17 38/1/18
f 26/1/16 34/3/5 25/1/15
f 34/3/5 26/1/16 33/3/5
f 40/2/8 27/1/17 39/2/8
f 27/1/17 40/2/8 28/1/18
f 30/2/21 40/2/22 39/2/21
f 40/2/22 30/2/21 32/2/22
f 36/4/8 14/5/4 11/4/8
f 14/5/4 36/4/8 37/5/17
f 29/5/15 14/5/4 37/5/17
f 14/5/4 29/5/15 7/5/2
f 29/5/15 8/6/5 7/5/2
f 8/6/5 29/5/15 30/6/5
f 8/6/10 39/6/21 16/6/10
f 39/6/21 8/6/10 30/6/21
f 39/6/8 4/5/4 16/6/8
f 4/5/4 39/6/8 27/5/17
f 25/5/15 4/5/4 27/5/17
f 4/5/4 25/5/15 2/5/2
f 25/5/15 9/4/5 2/5/2
f 9/4/5 25/5/15 34/4/5
f 36/4/20 9/4/6 34/4/20
f 9/4/6 36/4/20 11/4/6
f 43/1/25 42/1/24 41/1/23
f 42/1/24 43/1/25 44/1/26
f 47/1/24 46/2/5 45/1/23
f 46/2/5 47/1/24 48/2/5
f 51/3/27 50/3/28 49/3/27
f 50/3/28 51/3/27 52/3/28
f 51/3/8 53/1/25 52/3/8
f 53/1/25 51/3/8 54/1/26
f 53/1/25 47/1/24 45/1/23
f 47/1/24 53/1/25 54/1/26
f 42/1/24 50/3/5 41/1/23
f 50/3/5 42/1/24 49/3/5
f 56/2/8 43/1/25 55/2/8
f 43/1/25 56/2/8 44/1/26
f 46/2/29 56/2/30 55/2/29
f 56/2/30 46/2/29 48/2/30
f 52/4/8 38/5/18 35/4/8
f 38/5/18 52/4/8 53/5/25
f 45/5/23 38/5/18 53/5/25
f 38/5/18 45/5/23 31/5/16
f 45/5/23 32/6/5 31/5/16
f 32/6/5 45/5/23 46/6/5
f 32/6/22 55/6/29 40/6/22
f 55/6/29 32/6/22 46/6/29
f 55/6/8 28/5/18 40/6/8
f 28/5/18 55/6/8 43/5/25
f 41/5/23 28/5/18 43/5/25
f 28/5/18 41/5/23 26/5/16
f 41/5/23 33/4/5 26/5/16
f 33/4/5 41/5/23 50/4/5
f 52/4/28 33/4/19 50/4/28
f 33/4/19 52/4/28 35/4/19
f 59/1/32 58/1/2 57/1/31
f 58/1/2 59/1/32 60/1/4
f 63/1/2 62/2/5 61/1/31
f 62/2/5 63/1/2 64/2/5
f 67/3/6 66/3/33 65/3/6
f 66/3/33 67/3/6 68/3/33
f 67/3/8 69/1/32 68/3/8
f 69/1/32 67/3/8 70/1/4
f 69/1/32 63/1/2 61/1/31
f 63/1/2 69/1/32 70/1/4
f 58/1/2 66/3/5 57/1/31
f 66/3/5 58/1/2 65/3/5
f 72/2/8 59/1/32 71/2/8
f 59/1/32 72/2/8 60/1/4
f 62/2/34 72/2/10 71/2/34
f 72/2/10 62/2/34 64/2/10
f 68/4/8 54/5/26 51/4/8
f 54/5/26 68/4/8 69/5/32
f 61/5/31 54/5/26 69/5/32
f 54/5/26 61/5/31 47/5/24
f 61/5/31 48/6/5 47/5/24
f 48/6/5 61/5/31 62/6/5
f 48/6/30 71/6/34 56/6/30
f 71/6/34 48/6/30 62/6/34
f 71/6/8 44/5/26 56/6/8
f 44/5/26 71/6/8 59/5/32
f 57/5/31 44/5/26 59/5/32
f 44/5/26 57/5/31 42/5/24
f 57/5/31 49/4/5 42/5/24
f 49/4/5 57/5/31 66/4/5
f 68/4/33 49/4/27 66/4/33
f 49/4/27 68/4/33 51/4/27
f 75/1/37 74/1/36 73/1/35
f 74/1/36 75/1/37 76/1/38
f 79/1/36 78/2/5 77/1/35
f 78/2/5 79/1/36 80/2/5
f 83/3/39 82/3/40 81/3/39
f 82/3/40 83/3/39 84/3/40
f 83/3/8 85/1/37 84/3/8
f 85/1/37 83/3/8 86/1/38
f 85/1/37 79/1/36 77/1/35
f 79/1/36 85/1/37 86/1/38
f 74/1/36 82/3/5 73/1/35
f 82/3/5 74/1/36 81/3/5
f 88/2/8 75/1/37 87/2/8
f 75/1/37 88/2/8 76/1/38
f 78/2/41 88/2/42 87/2/41
f 88/2/42 78/2/41 80/2/42
f 84/4/8 70/5/4 67/4/8
f 70/5/4 84/4/8 85/5/37
f 77/5/35 70/5/4 85/5/37
f 70/5/4 77/5/35 63/5/2
f 77/5/35 64/6/5 63/5/2
f 64/6/5 77/5/35 78/6/5
f 64/6/10 87/6/41 72/6/10
f 87/6/41 64/6/10 78/6/41
f 87/6/8 60/5/4 72/6/8
f 60/5/4 87/6/8 75/5/37
f 73/5/35 60/5/4 75/5/37
f 60/5/4 73/5/35 58/5/2
f 73/5/35 65/4/5 58/5/2
f 65/4/5 73/5/35 82/4/5
f 84/4/40 65/4/6 82/4/40
f 65/4/6 84/4/40 67/4/6
f 91/6/43 90/5/43 89/5/43
f 91/6/43 92/4/43 90/5/43
f 92/4/43 91/6/43 93/4/43
f 94/6/43 93/4/43 91/6/43
f 93/4/43 94/6/43 95/5/43
f 95/5/43 94/6/43 96/5/43
f 99/7/45 98/8/44 97/7/44
f 98/8/44 99/7/45 100/8/45
f 98/8/44 101/7/46 97/7/44
f 101/7/46 98/8/44 102/8/46
f 105/7/47 104/7/47 103/7/47
f 104/7/47 105/7/47 101/7/47
f 101/7/47 105/7/47 97/7/47
f 97/7/47 105/7/47 99/7/47
f 106/7/47 104/7/47 101/7/47
f 106/7/47 107/7/47 104/7/47
f 106/7/47 108/7/47 107/7/47
f 109/7/47 108/7/47 106/7/47
f 110/7/47 108/7/47 109/7/47
f 108/7/47 110/7/47 111/7/47
f 113/8/49 109/7/48 112/8/48
f 109/7/48 113/8/49 110/7/49
f 114/8/50 109/7/48 106/7/50
f 109/7/48 114/8/50 112/8/48
f 115/8/5 110/7/49 113/8/49
f 110/7/49 115/8/5 111/7/5
f 105/7/8 100/8/45 99/7/45
f 100/8/45 105/7/8 116/8/8
f 102/8/46 106/7/50 101/7/46
f 106/7/50 102/8/46 114/8/50
f 108/7/8 117/8/8 107/7/8
f 117/8/8 108/7/8 118/8/8
f 117/8/51 104/7/51 107/7/51
f 104/7/51 117/8/51 119/8/51
f 120/8/5 104/7/5 119/8/5
f 104/7/5 120/8/5 103/7/5
f 116/8/52 98/8/52 100/8/52
f 120/8/52 98/8/52 116/8/52
f 119/8/52 98/8/52 120/8/52
f 119/8/52 102/8/52 98/8/52
f 117/8/52 102/8/52 119/8/52
f 102/8/52 117/8/52 114/8/52
f 118/8/52 114/8/52 117/8/52
f 118/8/52 112/8/52 114/8/52
f 115/8/52 112/8/52 118/8/52
f 112/8/52 115/8/52 113/8/52
f 123/2/51 122/1/51 121/1/51
f 123/2/51 124/3/51 122/1/51
f 124/3/51 123/2/51 125/3/51
f 126/2/51 125/3/51 123/2/51
f 125/3/51 126/2/51 127/1/51
f 127/1/51 126/2/51 128/1/51
f 131/7/54 130/8/53 129/7/53
f 130/8/53 131/7/54 132/8/54
f 130/8/53 133/7/55 129/7/53
f 133/7/55 130/8/53 134/8/55
f 137/7/47 136/7/47 135/7/47
f 136/7/47 137/7/47 133/7/47
f 133/7/47 137/7/47 129/7/47
f 129/7/47 137/7/47 131/7/47
f 138/7/47 136/7/47 133/7/47
f 138/7/47 139/7/47 136/7/47
f 138/7/47 140/7/47 139/7/47
f 141/7/47 140/7/47 138/7/47
f 142/7/47 140/7/47 141/7/47
f 140/7/47 142/7/47 143/7/47
f 145/8/57 141/7/56 144/8/56
f 141/7/56 145/8/57 142/7/57
f 146/8/58 141/7/56 138/7/58
f 141/7/56 146/8/58 144/8/56
f 147/8/59 142/7/57 145/8/57
f 142/7/57 147/8/59 143/7/59
f 137/7/60 132/8/54 131/7/54
f 132/8/54 137/7/60 148/8/60
f 134/8/55 138/7/58 133/7/55
f 138/7/58 134/8/55 146/8/58
f 140/7/60 149/8/60 139/7/60
f 149/8/60 140/7/60 150/8/60
f 149/8/61 136/7/61 139/7/61
f 136/7/61 149/8/61 151/8/61
f 152/8/59 136/7/59 151/8/59
f 136/7/59 152/8/59 135/7/59
f 148/8/52 130/8/52 132/8/52
f 152/8/52 130/8/52 148/8/52
f 151/8/52 130/8/52 152/8/52
f 151/8/52 134/8/52 130/8/52
f 149/8/52 134/8/52 151/8/52
f 134/8/52 149/8/52 146/8/52
f 150/8/52 146/8/52 149/8/52
f 150/8/52 144/8/52 146/8/52
f 147/8/52 144/8/52 150/8/52
f 144/8/52 147/8/52 145/8/52

