# Created by Kenney (www.kenney.nl)

mtllib track-narrow-straight-bend.mtl

g track-narrow-straight-bend

v -0.5 0 3.099442E-06 1 1 1
v -0.5 0.04738188 0.3833364 1 1 1
v 0.5 0 3.099442E-06 1 1 1
v 0.5 0.04742503 0.3833259 1 1 1
v -0.5 0.1778598 0.747188 1 1 1
v 0.5 0.1779393 0.7471502 1 1 1
v -0.5 0.3 2.503395E-06 1 1 1
v -0.5000134 0.338798 0.3120863 1 1 1
v -0.5000267 0.4488329 0.6184496 1 1 1
v 0.5 0.3 2.503395E-06 1 1 1
v 0.4999866 0.3388412 0.3120757 1 1 1
v 0.4999733 0.4489124 0.6184118 1 1 1
v 0.3999996 0.1 2.861023E-06 1 1 1
v 0.3999958 0.1445594 0.3595769 1 1 1
v -0.3999996 0.1 2.861023E-06 1 1 1
v -0.4000044 0.1445249 0.3595853 1 1 1
v 0.399991 0.2682557 0.7042412 1 1 1
v -0.4000092 0.2681921 0.7042714 1 1 1
v -0.3999996 0.3 2.503395E-06 1 1 1
v -0.400013 0.3388023 0.3120853 1 1 1
v -0.4000263 0.4488409 0.6184458 1 1 1
v 0.3999996 0.3 2.503395E-06 1 1 1
v 0.3999863 0.3388369 0.3120768 1 1 1
v 0.3999739 0.4489045 0.6184156 1 1 1
v -0.5 0.3746747 1.080148 1 1 1
v 0.5 0.374781 1.080072 1 1 1
v -0.5 0.624939 1.375061 1 1 1
v 0.5 0.625061 1.374939 1 1 1
v -0.5000391 0.6186635 0.905593 1 1 1
v -0.5000515 0.8370709 1.162929 1 1 1
v 0.4999609 0.6187699 0.905517 1 1 1
v 0.4999485 0.8371931 1.162807 1 1 1
v 0.3999872 0.4561 1.021895 1 1 1
v -0.400013 0.456015 1.021955 1 1 1
v 0.3999825 0.6957595 1.30424 1 1 1
v -0.4000177 0.6956618 1.304338 1 1 1
v -0.4000397 0.6186743 0.9055854 1 1 1
v -0.4000521 0.8370831 1.162917 1 1 1
v 0.3999605 0.6187592 0.9055246 1 1 1
v 0.3999481 0.8371809 1.162819 1 1 1
v -0.5 0.9198272 1.625359 1 1 1
v 0.5 0.9199524 1.625185 1 1 1
v -0.5 1.252775 1.822217 1 1 1
v 0.5 1.252886 1.821984 1 1 1
v -0.5000648 1.094382 1.38137 1 1 1
v -0.5000772 1.381514 1.551244 1 1 1
v 0.4999352 1.094507 1.381196 1 1 1
v 0.4999228 1.381624 1.551011 1 1 1
v 0.3999786 0.9781249 1.543872 1 1 1
v -0.4000216 0.9780247 1.544012 1 1 1
v 0.3999739 1.295788 1.731683 1 1 1
v -0.4000254 1.295699 1.731869 1 1 1
v -0.4000645 1.094395 1.381353 1 1 1
v -0.4000769 1.381525 1.55122 1 1 1
v 0.3999357 1.094495 1.381213 1 1 1
v 0.3999224 1.381613 1.551034 1 1 1
v -0.5 1.616633 1.952743 1 1 1
v 0.5 1.616704 1.95245 1 1 1
v -0.5 1.999997 2 1 1 1
v 0.5 1.999997 2 1 1 1
v -0.5000906 1.687883 1.661327 1 1 1
v -0.5 1.999998 1.7 1 1 1
v 0.4999094 1.687955 1.661034 1 1 1
v 0.5 1.999998 1.7 1 1 1
v 0.3999701 1.640447 1.855341 1 1 1
v -0.4000301 1.64039 1.855575 1 1 1
v 0.3999996 1.999997 1.9 1 1 1
v -0.3999996 1.999997 1.9 1 1 1
v -0.4000902 1.687891 1.661297 1 1 1
v -0.3999996 1.999998 1.7 1 1 1
v 0.39991 1.687948 1.661063 1 1 1
v 0.3999996 1.999998 1.7 1 1 1
v -0.4 0.3 0 1 1 1
v -0.5 0.3 0 1 1 1
v -0.4 0.1 0 1 1 1
v -0.5 0 0 1 1 1
v 0.5 0 0 1 1 1
v 0.4 0.1 0 1 1 1
v 0.5 0.3 0 1 1 1
v 0.4 0.3 0 1 1 1
v -0.1207107 0 -0.1707107 1 1 1
v -0.1207107 0.05000001 -0.1707107 1 1 1
v -0.15 0 -0.1 1 1 1
v -0.15 0.05000001 -0.1 1 1 1
v -0.05 0 -0.2 1 1 1
v -0.05 0.05000001 -0.2 1 1 1
v -0.05 0 7.219114E-16 1 1 1
v -0.05 0 -0.1 1 1 1
v -0.15 0 1.082867E-15 1 1 1
v 0.05 0 -0.2 1 1 1
v 0.05 0 -0.1 1 1 1
v 0.05 0 3.609557E-16 1 1 1
v 0.1207107 0 -0.1707107 1 1 1
v 0.15 0 -0.1 1 1 1
v 0.15 0 0 1 1 1
v 0.1207107 0.05000001 -0.1707107 1 1 1
v 0.15 0.05000001 -0.1 1 1 1
v 0.05 0.05000001 -0.2 1 1 1
v 0.15 0.05000001 0 1 1 1
v -0.15 0.05000001 1.082867E-15 1 1 1
v 0.05 0.05000001 -0.1 1 1 1
v 0.05 0.05000001 3.609557E-16 1 1 1
v -0.05 0.05000001 -0.1 1 1 1
v -0.05 0.05000001 7.219114E-16 1 1 1
v 0.4 2 1.7 1 1 1
v 0.5 2 1.7 1 1 1
v 0.4 2 1.9 1 1 1
v 0.5 2 2 1 1 1
v -0.5 2 2 1 1 1
v -0.4 2 1.9 1 1 1
v -0.5 2 1.7 1 1 1
v -0.4 2 1.7 1 1 1
v 0.1207107 2.170711 2 1 1 1
v 0.1207107 2.170711 1.95 1 1 1
v 0.15 2.1 2 1 1 1
v 0.15 2.1 1.95 1 1 1
v 0.05 2.2 2 1 1 1
v 0.05 2.2 1.95 1 1 1
v 0.05 2 2 1 1 1
v 0.05 2.1 2 1 1 1
v 0.15 2 2 1 1 1
v -0.05 2.2 2 1 1 1
v -0.05 2.1 2 1 1 1
v -0.05 2 2 1 1 1
v -0.1207107 2.170711 2 1 1 1
v -0.15 2.1 2 1 1 1
v -0.15 2 2 1 1 1
v -0.1207107 2.170711 1.95 1 1 1
v -0.15 2.1 1.95 1 1 1
v -0.05 2.2 1.95 1 1 1
v -0.15 2 1.95 1 1 1
v 0.15 2 1.95 1 1 1
v -0.05 2.1 1.95 1 1 1
v -0.05 2 1.95 1 1 1
v 0.05 2.1 1.95 1 1 1
v 0.05 2 1.95 1 1 1

vn 3.571274E-10 -1 2.064519E-06
vn 4.441022E-05 -0.9713874 0.2375005
vn 8.800222E-05 -0.9032437 0.429128
vn -1 -3.571274E-10 7.372964E-16
vn -0.7071068 0.7071068 -1.459836E-06
vn -1 -4.313952E-05 1.054745E-05
vn -0.7071382 0.6868441 -0.1679308
vn -1 -7.948744E-05 3.776422E-05
vn -0.7071689 0.6386335 -0.3034126
vn 0.7071068 0.7071068 -1.459836E-06
vn 1 3.571274E-10 -7.372964E-16
vn 0.7070754 0.6869051 -0.1679457
vn 1 4.313952E-05 -1.054745E-05
vn 0.7070445 0.6387459 -0.3034661
vn 1 7.948744E-05 -3.776422E-05
vn -3.571274E-10 1 -2.064519E-06
vn -4.441022E-05 0.9713874 -0.2375005
vn -8.800222E-05 0.9032437 -0.429128
vn 0.000130648 -0.8132962 0.5818499
vn 0.0001728044 -0.7071067 0.7071068
vn -1 -0.0001062555 7.601754E-05
vn -0.7071992 0.5750121 -0.4113762
vn -1 -0.0001221911 0.0001221912
vn -0.707229 0.4999136 -0.4999135
vn 0.7070144 0.5751624 -0.4114838
vn 1 0.0001062555 -7.601754E-05
vn 0.7069846 0.5000864 -0.5000864
vn 1 0.0001221911 -0.0001221912
vn -0.000130648 0.8132962 -0.5818499
vn -0.0001728044 0.7071067 -0.7071068
vn 0.0002149452 -0.5818498 0.8132963
vn 0.0002577169 -0.4291282 0.9032435
vn -1 -0.0001250658 0.0001748141
vn -0.7072588 0.4113415 -0.5749637
vn -0.9999999 -0.0001105936 0.0002327812
vn -0.707289 0.3033612 -0.638525
vn 0.7069548 0.4115184 -0.5752109
vn 1 0.0001250658 -0.0001748141
vn 0.7069245 0.3035177 -0.6388542
vn 0.9999999 0.0001105936 -0.0002327812
vn -0.0002149452 0.5818498 -0.8132963
vn -0.0002577169 0.4291282 -0.9032435
vn 0.0003012509 -0.237501 0.9713871
vn 1.136924E-08 -2.384186E-06 0.9999999
vn -0.9999999 -7.154734E-05 0.0002926313
vn -0.7073197 0.167888 -0.6866675
vn -1 -2.575717E-14 1.136924E-08
vn -0.7071068 1.66893E-06 -0.7071067
vn 0.7068937 0.1679891 -0.6870814
vn 0.9999999 7.154734E-05 -0.0002926313
vn 0.7071068 1.66893E-06 -0.7071067
vn 1 2.575717E-14 -1.136924E-08
vn -0.0003012509 0.237501 -0.9713871
vn -1.136924E-08 2.384186E-06 -0.9999999
vn 0 0 -1
vn -0.7071068 0 -0.7071068
vn -0.9807853 0 -0.1950903
vn -0.1950903 0 -0.9807853
vn 0 -1 0
vn 0.7071068 0 -0.7071068
vn 0.9807853 0 -0.1950903
vn 0.1950903 0 -0.9807853
vn 1 0 0
vn -1 0 0
vn 0 0 1
vn 0 1 0
vn 1.110223E-16 0.9999999 3.576279E-07
vn 0.7071068 0.7071067 2.517829E-07
vn 0.9807853 0.1950903 6.824651E-08
vn 0.1950903 0.9807852 3.504531E-07
vn 1.553066E-09 -3.576279E-07 0.9999999
vn -0.7071068 0.7071067 2.539793E-07
vn -0.9807853 0.1950903 7.129297E-08
vn -0.1950903 0.9807852 3.510591E-07
vn -1 2.775557E-16 1.553066E-09
vn 1 -2.775557E-16 -1.553066E-09
vn -8.326673E-16 -0.9999999 -3.576279E-07
vn -1.553066E-09 3.576279E-07 -0.9999999

vt 0.46875 0.275
vt 0.46875 0.475
vt 0.46875 0.3416667
vt 0.71875 0.275
vt 0.71875 0.475

usemtl colormap

f 3/1/1 2/1/2 1/1/1
f 2/1/2 3/1/1 4/1/2
f 4/1/2 5/1/3 2/1/2
f 5/1/3 4/1/2 6/1/3
f 2/1/6 7/2/5 1/1/4
f 7/2/5 2/1/6 8/2/7
f 5/1/8 8/2/7 2/1/6
f 8/2/7 5/1/8 9/2/9
f 11/2/12 3/1/11 10/2/10
f 3/1/11 11/2/12 4/1/13
f 12/2/14 4/1/13 11/2/12
f 4/1/13 12/2/14 6/1/15
f 15/3/16 14/3/17 13/3/16
f 14/3/17 15/3/16 16/3/17
f 16/3/17 17/3/18 14/3/17
f 17/3/18 16/3/17 18/3/18
f 7/2/5 20/2/12 19/2/10
f 20/2/12 7/2/5 8/2/7
f 8/2/7 21/2/14 20/2/12
f 21/2/14 8/2/7 9/2/9
f 20/2/12 15/3/11 19/2/10
f 15/3/11 20/2/12 16/3/13
f 21/2/14 16/3/13 20/2/12
f 16/3/13 21/2/14 18/3/15
f 22/2/5 11/2/12 10/2/10
f 11/2/12 22/2/5 23/2/7
f 23/2/7 12/2/14 11/2/12
f 12/2/14 23/2/7 24/2/9
f 14/3/6 22/2/5 13/3/4
f 22/2/5 14/3/6 23/2/7
f 17/3/8 23/2/7 14/3/6
f 23/2/7 17/3/8 24/2/9
f 6/1/3 25/1/19 5/1/3
f 25/1/19 6/1/3 26/1/19
f 26/1/19 27/1/20 25/1/19
f 27/1/20 26/1/19 28/1/20
f 25/1/21 9/2/9 5/1/8
f 9/2/9 25/1/21 29/2/22
f 27/1/23 29/2/22 25/1/21
f 29/2/22 27/1/23 30/2/24
f 31/2/25 6/1/15 12/2/14
f 6/1/15 31/2/25 26/1/26
f 32/2/27 26/1/26 31/2/25
f 26/1/26 32/2/27 28/1/28
f 18/3/18 33/3/29 17/3/18
f 33/3/29 18/3/18 34/3/29
f 34/3/29 35/3/30 33/3/29
f 35/3/30 34/3/29 36/3/30
f 9/2/9 37/2/25 21/2/14
f 37/2/25 9/2/9 29/2/22
f 29/2/22 38/2/27 37/2/25
f 38/2/27 29/2/22 30/2/24
f 37/2/25 18/3/15 21/2/14
f 18/3/15 37/2/25 34/3/26
f 38/2/27 34/3/26 37/2/25
f 34/3/26 38/2/27 36/3/28
f 24/2/9 31/2/25 12/2/14
f 31/2/25 24/2/9 39/2/22
f 39/2/22 32/2/27 31/2/25
f 32/2/27 39/2/22 40/2/24
f 33/3/21 24/2/9 17/3/8
f 24/2/9 33/3/21 39/2/22
f 35/3/23 39/2/22 33/3/21
f 39/2/22 35/3/23 40/2/24
f 28/1/20 41/1/31 27/1/20
f 41/1/31 28/1/20 42/1/31
f 42/1/31 43/1/32 41/1/31
f 43/1/32 42/1/31 44/1/32
f 41/1/33 30/2/24 27/1/23
f 30/2/24 41/1/33 45/2/34
f 43/1/35 45/2/34 41/1/33
f 45/2/34 43/1/35 46/2/36
f 47/2/37 28/1/28 32/2/27
f 28/1/28 47/2/37 42/1/38
f 48/2/39 42/1/38 47/2/37
f 42/1/38 48/2/39 44/1/40
f 36/3/30 49/3/41 35/3/30
f 49/3/41 36/3/30 50/3/41
f 50/3/41 51/3/42 49/3/41
f 51/3/42 50/3/41 52/3/42
f 30/2/24 53/2/37 38/2/27
f 53/2/37 30/2/24 45/2/34
f 45/2/34 54/2/39 53/2/37
f 54/2/39 45/2/34 46/2/36
f 53/2/37 36/3/28 38/2/27
f 36/3/28 53/2/37 50/3/38
f 54/2/39 50/3/38 53/2/37
f 50/3/38 54/2/39 52/3/40
f 40/2/24 47/2/37 32/2/27
f 47/2/37 40/2/24 55/2/34
f 55/2/34 48/2/39 47/2/37
f 48/2/39 55/2/34 56/2/36
f 49/3/33 40/2/24 35/3/23
f 40/2/24 49/3/33 55/2/34
f 51/3/35 55/2/34 49/3/33
f 55/2/34 51/3/35 56/2/36
f 44/1/32 57/1/43 43/1/32
f 57/1/43 44/1/32 58/1/43
f 58/1/43 59/1/44 57/1/43
f 59/1/44 58/1/43 60/1/44
f 57/1/45 46/2/36 43/1/35
f 46/2/36 57/1/45 61/2/46
f 59/1/47 61/2/46 57/1/45
f 61/2/46 59/1/47 62/2/48
f 63/2/49 44/1/40 48/2/39
f 44/1/40 63/2/49 58/1/50
f 64/2/51 58/1/50 63/2/49
f 58/1/50 64/2/51 60/1/52
f 52/3/42 65/3/53 51/3/42
f 65/3/53 52/3/42 66/3/53
f 66/3/53 67/3/54 65/3/53
f 67/3/54 66/3/53 68/3/54
f 46/2/36 69/2/49 54/2/39
f 69/2/49 46/2/36 61/2/46
f 61/2/46 70/2/51 69/2/49
f 70/2/51 61/2/46 62/2/48
f 69/2/49 52/3/40 54/2/39
f 52/3/40 69/2/49 66/3/50
f 70/2/51 66/3/50 69/2/49
f 66/3/50 70/2/51 68/3/52
f 56/2/36 63/2/49 48/2/39
f 63/2/49 56/2/36 71/2/46
f 71/2/46 64/2/51 63/2/49
f 64/2/51 71/2/46 72/2/48
f 65/3/45 56/2/36 51/3/35
f 56/2/36 65/3/45 71/2/46
f 67/3/47 71/2/46 65/3/45
f 71/2/46 67/3/47 72/2/48
f 75/3/55 74/2/55 73/2/55
f 75/3/55 76/1/55 74/2/55
f 76/1/55 75/3/55 77/1/55
f 78/3/55 77/1/55 75/3/55
f 77/1/55 78/3/55 79/2/55
f 79/2/55 78/3/55 80/2/55
f 83/4/57 82/5/56 81/4/56
f 82/5/56 83/4/57 84/5/57
f 82/5/56 85/4/58 81/4/56
f 85/4/58 82/5/56 86/5/58
f 89/4/59 88/4/59 87/4/59
f 88/4/59 89/4/59 85/4/59
f 85/4/59 89/4/59 81/4/59
f 81/4/59 89/4/59 83/4/59
f 90/4/59 88/4/59 85/4/59
f 90/4/59 91/4/59 88/4/59
f 90/4/59 92/4/59 91/4/59
f 93/4/59 92/4/59 90/4/59
f 94/4/59 92/4/59 93/4/59
f 92/4/59 94/4/59 95/4/59
f 97/5/61 93/4/60 96/5/60
f 93/4/60 97/5/61 94/4/61
f 98/5/62 93/4/60 90/4/62
f 93/4/60 98/5/62 96/5/60
f 99/5/63 94/4/61 97/5/61
f 94/4/61 99/5/63 95/4/63
f 89/4/64 84/5/57 83/4/57
f 84/5/57 89/4/64 100/5/64
f 86/5/58 90/4/62 85/4/58
f 90/4/62 86/5/58 98/5/62
f 92/4/64 101/5/64 91/4/64
f 101/5/64 92/4/64 102/5/64
f 101/5/65 88/4/65 91/4/65
f 88/4/65 101/5/65 103/5/65
f 104/5/63 88/4/63 103/5/63
f 88/4/63 104/5/63 87/4/63
f 100/5/66 82/5/66 84/5/66
f 104/5/66 82/5/66 100/5/66
f 103/5/66 82/5/66 104/5/66
f 103/5/66 86/5/66 82/5/66
f 101/5/66 86/5/66 103/5/66
f 86/5/66 101/5/66 98/5/66
f 102/5/66 98/5/66 101/5/66
f 102/5/66 96/5/66 98/5/66
f 99/5/66 96/5/66 102/5/66
f 96/5/66 99/5/66 97/5/66
f 107/3/67 106/2/67 105/2/67
f 107/3/67 108/1/67 106/2/67
f 108/1/67 107/3/67 109/1/67
f 110/3/67 109/1/67 107/3/67
f 109/1/67 110/3/67 111/2/67
f 111/2/67 110/3/67 112/2/67
f 115/4/69 114/5/68 113/4/68
f 114/5/68 115/4/69 116/5/69
f 114/5/68 117/4/70 113/4/68
f 117/4/70 114/5/68 118/5/70
f 121/4/71 120/4/71 119/4/71
f 120/4/71 121/4/71 117/4/71
f 117/4/71 121/4/71 113/4/71
f 113/4/71 121/4/71 115/4/71
f 122/4/71 120/4/71 117/4/71
f 122/4/71 123/4/71 120/4/71
f 122/4/71 124/4/71 123/4/71
f 125/4/71 124/4/71 122/4/71
f 126/4/71 124/4/71 125/4/71
f 124/4/71 126/4/71 127/4/71
f 129/5/73 125/4/72 128/5/72
f 125/4/72 129/5/73 126/4/73
f 130/5/74 125/4/72 122/4/74
f 125/4/72 130/5/74 128/5/72
f 131/5/75 126/4/73 129/5/73
f 126/4/73 131/5/75 127/4/75
f 121/4/76 116/5/69 115/4/69
f 116/5/69 121/4/76 132/5/76
f 118/5/70 122/4/74 117/4/70
f 122/4/74 118/5/70 130/5/74
f 124/4/76 133/5/76 123/4/76
f 133/5/76 124/4/76 134/5/76
f 133/5/77 120/4/77 123/4/77
f 120/4/77 133/5/77 135/5/77
f 136/5/75 120/4/75 135/5/75
f 120/4/75 136/5/75 119/4/75
f 132/5/78 114/5/78 116/5/78
f 136/5/78 114/5/78 132/5/78
f 135/5/78 114/5/78 136/5/78
f 135/5/78 118/5/78 114/5/78
f 133/5/78 118/5/78 135/5/78
f 118/5/78 133/5/78 130/5/78
f 134/5/78 130/5/78 133/5/78
f 134/5/78 128/5/78 130/5/78
f 131/5/78 128/5/78 134/5/78
f 128/5/78 131/5/78 129/5/78

g track-narrow-straight-bend




usemtl colormap

f 3/1/1 2/1/2 1/1/1
f 2/1/2 3/1/1 4/1/2
f 4/1/2 5/1/3 2/1/2
f 5/1/3 4/1/2 6/1/3
f 2/1/6 7/2/5 1/1/4
f 7/2/5 2/1/6 8/2/7
f 5/1/8 8/2/7 2/1/6
f 8/2/7 5/1/8 9/2/9
f 11/2/12 3/1/11 10/2/10
f 3/1/11 11/2/12 4/1/13
f 12/2/14 4/1/13 11/2/12
f 4/1/13 12/2/14 6/1/15
f 15/3/16 14/3/17 13/3/16
f 14/3/17 15/3/16 16/3/17
f 16/3/17 17/3/18 14/3/17
f 17/3/18 16/3/17 18/3/18
f 7/2/5 20/2/12 19/2/10
f 20/2/12 7/2/5 8/2/7
f 8/2/7 21/2/14 20/2/12
f 21/2/14 8/2/7 9/2/9
f 20/2/12 15/3/11 19/2/10
f 15/3/11 20/2/12 16/3/13
f 21/2/14 16/3/13 20/2/12
f 16/3/13 21/2/14 18/3/15
f 22/2/5 11/2/12 10/2/10
f 11/2/12 22/2/5 23/2/7
f 23/2/7 12/2/14 11/2/12
f 12/2/14 23/2/7 24/2/9
f 14/3/6 22/2/5 13/3/4
f 22/2/5 14/3/6 23/2/7
f 17/3/8 23/2/7 14/3/6
f 23/2/7 17/3/8 24/2/9
f 6/1/3 25/1/19 5/1/3
f 25/1/19 6/1/3 26/1/19
f 26/1/19 27/1/20 25/1/19
f 27/1/20 26/1/19 28/1/20
f 25/1/21 9/2/9 5/1/8
f 9/2/9 25/1/21 29/2/22
f 27/1/23 29/2/22 25/1/21
f 29/2/22 27/1/23 30/2/24
f 31/2/25 6/1/15 12/2/14
f 6/1/15 31/2/25 26/1/26
f 32/2/27 26/1/26 31/2/25
f 26/1/26 32/2/27 28/1/28
f 18/3/18 33/3/29 17/3/18
f 33/3/29 18/3/18 34/3/29
f 34/3/29 35/3/30 33/3/29
f 35/3/30 34/3/29 36/3/30
f 9/2/9 37/2/25 21/2/14
f 37/2/25 9/2/9 29/2/22
f 29/2/22 38/2/27 37/2/25
f 38/2/27 29/2/22 30/2/24
f 37/2/25 18/3/15 21/2/14
f 18/3/15 37/2/25 34/3/26
f 38/2/27 34/3/26 37/2/25
f 34/3/26 38/2/27 36/3/28
f 24/2/9 31/2/25 12/2/14
f 31/2/25 24/2/9 39/2/22
f 39/2/22 32/2/27 31/2/25
f 32/2/27 39/2/22 40/2/24
f 33/3/21 24/2/9 17/3/8
f 24/2/9 33/3/21 39/2/22
f 35/3/23 39/2/22 33/3/21
f 39/2/22 35/3/23 40/2/24
f 28/1/20 41/1/31 27/1/20
f 41/1/31 28/1/20 42/1/31
f 42/1/31 43/1/32 41/1/31
f 43/1/32 42/1/31 44/1/32
f 41/1/33 30/2/24 27/1/23
f 30/2/24 41/1/33 45/2/34
f 43/1/35 45/2/34 41/1/33
f 45/2/34 43/1/35 46/2/36
f 47/2/37 28/1/28 32/2/27
f 28/1/28 47/2/37 42/1/38
f 48/2/39 42/1/38 47/2/37
f 42/1/38 48/2/39 44/1/40
f 36/3/30 49/3/41 35/3/30
f 49/3/41 36/3/30 50/3/41
f 50/3/41 51/3/42 49/3/41
f 51/3/42 50/3/41 52/3/42
f 30/2/24 53/2/37 38/2/27
f 53/2/37 30/2/24 45/2/34
f 45/2/34 54/2/39 53/2/37
f 54/2/39 45/2/34 46/2/36
f 53/2/37 36/3/28 38/2/27
f 36/3/28 53/2/37 50/3/38
f 54/2/39 50/3/38 53/2/37
f 50/3/38 54/2/39 52/3/40
f 40/2/24 47/2/37 32/2/27
f 47/2/37 40/2/24 55/2/34
f 55/2/34 48/2/39 47/2/37
f 48/2/39 55/2/34 56/2/36
f 49/3/33 40/2/24 35/3/23
f 40/2/24 49/3/33 55/2/34
f 51/3/35 55/2/34 49/3/33
f 55/2/34 51/3/35 56/2/36
f 44/1/32 57/1/43 43/1/32
f 57/1/43 44/1/32 58/1/43
f 58/1/43 59/1/44 57/1/43
f 59/1/44 58/1/43 60/1/44
f 57/1/45 46/2/36 43/1/35
f 46/2/36 57/1/45 61/2/46
f 59/1/47 61/2/46 57/1/45
f 61/2/46 59/1/47 62/2/48
f 63/2/49 44/1/40 48/2/39
f 44/1/40 63/2/49 58/1/50
f 64/2/51 58/1/50 63/2/49
f 58/1/50 64/2/51 60/1/52
f 52/3/42 65/3/53 51/3/42
f 65/3/53 52/3/42 66/3/53
f 66/3/53 67/3/54 65/3/53
f 67/3/54 66/3/53 68/3/54
f 46/2/36 69/2/49 54/2/39
f 69/2/49 46/2/36 61/2/46
f 61/2/46 70/2/51 69/2/49
f 70/2/51 61/2/46 62/2/48
f 69/2/49 52/3/40 54/2/39
f 52/3/40 69/2/49 66/3/50
f 70/2/51 66/3/50 69/2/49
f 66/3/50 70/2/51 68/3/52
f 56/2/36 63/2/49 48/2/39
f 63/2/49 56/2/36 71/2/46
f 71/2/46 64/2/51 63/2/49
f 64/2/51 71/2/46 72/2/48
f 65/3/45 56/2/36 51/3/35
f 56/2/36 65/3/45 71/2/46
f 67/3/47 71/2/46 65/3/45
f 71/2/46 67/3/47 72/2/48
f 75/3/55 74/2/55 73/2/55
f 75/3/55 76/1/55 74/2/55
f 76/1/55 75/3/55 77/1/55
f 78/3/55 77/1/55 75/3/55
f 77/1/55 78/3/55 79/2/55
f 79/2/55 78/3/55 80/2/55
f 83/4/57 82/5/56 81/4/56
f 82/5/56 83/4/57 84/5/57
f 82/5/56 85/4/58 81/4/56
f 85/4/58 82/5/56 86/5/58
f 89/4/59 88/4/59 87/4/59
f 88/4/59 89/4/59 85/4/59
f 85/4/59 89/4/59 81/4/59
f 81/4/59 89/4/59 83/4/59
f 90/4/59 88/4/59 85/4/59
f 90/4/59 91/4/59 88/4/59
f 90/4/59 92/4/59 91/4/59
f 93/4/59 92/4/59 90/4/59
f 94/4/59 92/4/59 93/4/59
f 92/4/59 94/4/59 95/4/59
f 97/5/61 93/4/60 96/5/60
f 93/4/60 97/5/61 94/4/61
f 98/5/62 93/4/60 90/4/62
f 93/4/60 98/5/62 96/5/60
f 99/5/63 94/4/61 97/5/61
f 94/4/61 99/5/63 95/4/63
f 89/4/64 84/5/57 83/4/57
f 84/5/57 89/4/64 100/5/64
f 86/5/58 90/4/62 85/4/58
f 90/4/62 86/5/58 98/5/62
f 92/4/64 101/5/64 91/4/64
f 101/5/64 92/4/64 102/5/64
f 101/5/65 88/4/65 91/4/65
f 88/4/65 101/5/65 103/5/65
f 104/5/63 88/4/63 103/5/63
f 88/4/63 104/5/63 87/4/63
f 100/5/66 82/5/66 84/5/66
f 104/5/66 82/5/66 100/5/66
f 103/5/66 82/5/66 104/5/66
f 103/5/66 86/5/66 82/5/66
f 101/5/66 86/5/66 103/5/66
f 86/5/66 101/5/66 98/5/66
f 102/5/66 98/5/66 101/5/66
f 102/5/66 96/5/66 98/5/66
f 99/5/66 96/5/66 102/5/66
f 96/5/66 99/5/66 97/5/66
f 107/3/67 106/2/67 105/2/67
f 107/3/67 108/1/67 106/2/67
f 108/1/67 107/3/67 109/1/67
f 110/3/67 109/1/67 107/3/67
f 109/1/67 110/3/67 111/2/67
f 111/2/67 110/3/67 112/2/67
f 115/4/69 114/5/68 113/4/68
f 114/5/68 115/4/69 116/5/69
f 114/5/68 117/4/70 113/4/68
f 117/4/70 114/5/68 118/5/70
f 121/4/71 120/4/71 119/4/71
f 120/4/71 121/4/71 117/4/71
f 117/4/71 121/4/71 113/4/71
f 113/4/71 121/4/71 115/4/71
f 122/4/71 120/4/71 117/4/71
f 122/4/71 123/4/71 120/4/71
f 122/4/71 124/4/71 123/4/71
f 125/4/71 124/4/71 122/4/71
f 126/4/71 124/4/71 125/4/71
f 124/4/71 126/4/71 127/4/71
f 129/5/73 125/4/72 128/5/72
f 125/4/72 129/5/73 126/4/73
f 130/5/74 125/4/72 122/4/74
f 125/4/72 130/5/74 128/5/72
f 131/5/75 126/4/73 129/5/73
f 126/4/73 131/5/75 127/4/75
f 121/4/76 116/5/69 115/4/69
f 116/5/69 121/4/76 132/5/76
f 118/5/70 122/4/74 117/4/70
f 122/4/74 118/5/70 130/5/74
f 124/4/76 133/5/76 123/4/76
f 133/5/76 124/4/76 134/5/76
f 133/5/77 120/4/77 123/4/77
f 120/4/77 133/5/77 135/5/77
f 136/5/75 120/4/75 135/5/75
f 120/4/75 136/5/75 119/4/75
f 132/5/78 114/5/78 116/5/78
f 136/5/78 114/5/78 132/5/78
f 135/5/78 114/5/78 136/5/78
f 135/5/78 118/5/78 114/5/78
f 133/5/78 118/5/78 135/5/78
f 118/5/78 133/5/78 130/5/78
f 134/5/78 130/5/78 133/5/78
f 134/5/78 128/5/78 130/5/78
f 131/5/78 128/5/78 134/5/78
f 128/5/78 131/5/78 129/5/78

