# Created by Kenney (www.kenney.nl)

mtllib track-road-wide-cap-back.mtl

g track-road-wide-cap-back

v 0.9 -9.275722E-20 -1.443823E-15 1 1 1
v 0.9 0.1 0 1 1 1
v 1 0 0 1 1 1
v 1 0.3 0 1 1 1
v 0.9 0.3 0 1 1 1
v -1 0 0 1 1 1
v -1 0.3 0 1 1 1
v -0.9 1.118711E-17 0 1 1 1
v -0.9 0.1 0 1 1 1
v -0.9 0.3 0 1 1 1
v -0.7 -9.275722E-20 -8.662937E-15 1 1 1
v -0.8 -9.275722E-20 -1.443823E-15 1 1 1
v -0.7 0.1 -8.662937E-15 1 1 1
v -0.8 0.1 -1.443823E-15 1 1 1
v 0.7 -9.275722E-20 -1.443823E-15 1 1 1
v 0.7 0.1 -1.443823E-15 1 1 1
v 0.8 -5.183492E-20 -5.05338E-15 1 1 1
v 0.8 0.1 -8.662937E-15 1 1 1
v 0.1207107 0 0.1707107 1 1 1
v 0.1207107 0.05 0.1707107 1 1 1
v 0.15 0 0.1 1 1 1
v 0.15 0.05 0.1 1 1 1
v 0.05 0 0.2 1 1 1
v 0.05 0.05 0.2 1 1 1
v 0.05 8.014827E-32 -7.579936E-16 1 1 1
v 0.05 0 0.1 1 1 1
v 0.15 1.602965E-31 -1.191114E-15 1 1 1
v -0.05 0 0.2 1 1 1
v -0.05 0 0.1 1 1 1
v -0.05 8.014827E-32 -3.248735E-16 1 1 1
v -0.1207107 0 0.1707107 1 1 1
v -0.15 0 0.1 1 1 1
v -0.15 1.602965E-31 1.082467E-16 1 1 1
v -0.1207107 0.05 0.1707107 1 1 1
v -0.15 0.05 0.1 1 1 1
v -0.05 0.05 0.2 1 1 1
v -0.15 0.05 1.082467E-16 1 1 1
v 0.15 0.05 -1.191114E-15 1 1 1
v -0.05 0.05 0.1 1 1 1
v -0.05 0.05 -3.248735E-16 1 1 1
v 0.05 0.05 0.1 1 1 1
v 0.05 0.05 -7.579936E-16 1 1 1
v 0.7 0 2.887646E-15 1 1 1
v -0.7 0 -4.331469E-15 1 1 1
v 0.7 0.1 2.887646E-15 1 1 1
v -0.7 0.1 -4.331469E-15 1 1 1
v -0.8 0 2.887646E-15 1 1 1
v -0.9 1.127987E-17 4.331469E-15 1 1 1
v -0.8 0.1 2.887646E-15 1 1 1
v -0.9 0.1 4.331469E-15 1 1 1
v 0.9 0 2.887646E-15 1 1 1
v 0.8 4.092231E-20 -7.219114E-16 1 1 1
v 0.9 0.1 4.331469E-15 1 1 1
v 0.8 0.1 -4.331469E-15 1 1 1

vn 0 0 1
vn 0.7071068 0 0.7071068
vn 0.9807853 0 0.1950903
vn 0.1950903 0 0.9807853
vn 0 -1 0
vn -0.7071068 0 0.7071068
vn -0.9807853 0 0.1950903
vn -0.1950903 0 0.9807853
vn -1 0 7.21645E-16
vn 1 0 -7.21645E-16
vn -7.21645E-16 0 -1
vn 0 1 0

vt 0.59375 0.275
vt 0.59375 0.3416667
vt 0.59375 0.475
vt 0.59375 0.025
vt 0.59375 0.09166666
vt 0.34375 0.025
vt 0.34375 0.225
vt 0.21875 0.075
vt 0.21875 0.175

usemtl colormap

f 3/1/1 2/2/1 1/1/1
f 2/2/1 3/1/1 4/3/1
f 2/2/1 4/3/1 5/3/1
f 8/1/1 7/3/1 6/1/1
f 7/3/1 8/1/1 9/2/1
f 7/3/1 9/2/1 10/3/1
f 13/5/1 12/4/1 11/4/1
f 12/4/1 13/5/1 14/5/1
f 17/4/1 16/5/1 15/4/1
f 16/5/1 17/4/1 18/5/1
f 21/6/3 20/7/2 19/6/2
f 20/7/2 21/6/3 22/7/3
f 20/7/2 23/6/4 19/6/2
f 23/6/4 20/7/2 24/7/4
f 27/6/5 26/6/5 25/6/5
f 26/6/5 27/6/5 23/6/5
f 23/6/5 27/6/5 19/6/5
f 19/6/5 27/6/5 21/6/5
f 28/6/5 26/6/5 23/6/5
f 28/6/5 29/6/5 26/6/5
f 28/6/5 30/6/5 29/6/5
f 31/6/5 30/6/5 28/6/5
f 32/6/5 30/6/5 31/6/5
f 30/6/5 32/6/5 33/6/5
f 35/7/7 31/6/6 34/7/6
f 31/6/6 35/7/7 32/6/7
f 36/7/8 31/6/6 28/6/8
f 31/6/6 36/7/8 34/7/6
f 37/7/9 32/6/7 35/7/7
f 32/6/7 37/7/9 33/6/9
f 27/6/10 22/7/3 21/6/3
f 22/7/3 27/6/10 38/7/10
f 24/7/4 28/6/8 23/6/4
f 28/6/8 24/7/4 36/7/8
f 30/6/10 39/7/10 29/6/10
f 39/7/10 30/6/10 40/7/10
f 39/7/11 26/6/11 29/6/11
f 26/6/11 39/7/11 41/7/11
f 42/7/9 26/6/9 41/7/9
f 26/6/9 42/7/9 25/6/9
f 38/7/12 20/7/12 22/7/12
f 42/7/12 20/7/12 38/7/12
f 41/7/12 20/7/12 42/7/12
f 41/7/12 24/7/12 20/7/12
f 39/7/12 24/7/12 41/7/12
f 24/7/12 39/7/12 36/7/12
f 40/7/12 36/7/12 39/7/12
f 40/7/12 34/7/12 36/7/12
f 37/7/12 34/7/12 40/7/12
f 34/7/12 37/7/12 35/7/12
f 45/9/1 44/8/1 43/8/1
f 44/8/1 45/9/1 46/9/1
f 49/9/1 48/8/1 47/8/1
f 48/8/1 49/9/1 50/9/1
f 53/9/1 52/8/1 51/8/1
f 52/8/1 53/9/1 54/9/1

g track-road-wide-cap-back




usemtl colormap

f 3/1/1 2/2/1 1/1/1
f 2/2/1 3/1/1 4/3/1
f 2/2/1 4/3/1 5/3/1
f 8/1/1 7/3/1 6/1/1
f 7/3/1 8/1/1 9/2/1
f 7/3/1 9/2/1 10/3/1
f 13/5/1 12/4/1 11/4/1
f 12/4/1 13/5/1 14/5/1
f 17/4/1 16/5/1 15/4/1
f 16/5/1 17/4/1 18/5/1
f 21/6/3 20/7/2 19/6/2
f 20/7/2 21/6/3 22/7/3
f 20/7/2 23/6/4 19/6/2
f 23/6/4 20/7/2 24/7/4
f 27/6/5 26/6/5 25/6/5
f 26/6/5 27/6/5 23/6/5
f 23/6/5 27/6/5 19/6/5
f 19/6/5 27/6/5 21/6/5
f 28/6/5 26/6/5 23/6/5
f 28/6/5 29/6/5 26/6/5
f 28/6/5 30/6/5 29/6/5
f 31/6/5 30/6/5 28/6/5
f 32/6/5 30/6/5 31/6/5
f 30/6/5 32/6/5 33/6/5
f 35/7/7 31/6/6 34/7/6
f 31/6/6 35/7/7 32/6/7
f 36/7/8 31/6/6 28/6/8
f 31/6/6 36/7/8 34/7/6
f 37/7/9 32/6/7 35/7/7
f 32/6/7 37/7/9 33/6/9
f 27/6/10 22/7/3 21/6/3
f 22/7/3 27/6/10 38/7/10
f 24/7/4 28/6/8 23/6/4
f 28/6/8 24/7/4 36/7/8
f 30/6/10 39/7/10 29/6/10
f 39/7/10 30/6/10 40/7/10
f 39/7/11 26/6/11 29/6/11
f 26/6/11 39/7/11 41/7/11
f 42/7/9 26/6/9 41/7/9
f 26/6/9 42/7/9 25/6/9
f 38/7/12 20/7/12 22/7/12
f 42/7/12 20/7/12 38/7/12
f 41/7/12 20/7/12 42/7/12
f 41/7/12 24/7/12 20/7/12
f 39/7/12 24/7/12 41/7/12
f 24/7/12 39/7/12 36/7/12
f 40/7/12 36/7/12 39/7/12
f 40/7/12 34/7/12 36/7/12
f 37/7/12 34/7/12 40/7/12
f 34/7/12 37/7/12 35/7/12
f 45/9/1 44/8/1 43/8/1
f 44/8/1 45/9/1 46/9/1
f 49/9/1 48/8/1 47/8/1
f 48/8/1 49/9/1 50/9/1
f 53/9/1 52/8/1 51/8/1
f 52/8/1 53/9/1 54/9/1

