# Created by Kenney (www.kenney.nl)

mtllib track-narrow-straight-hill-beginning.mtl

g track-narrow-straight-hill-beginning

v -0.5 0 4.291534E-06 1 1 1
v -0.5 0.004613876 0.4221992 1 1 1
v 0.5 0 4.291534E-06 1 1 1
v 0.5 0.004638791 0.4221988 1 1 1
v -0.5 0.01972961 0.8442397 1 1 1
v 0.5 0.01978076 0.8442373 1 1 1
v -0.5 0.3 4.291534E-06 1 1 1
v -0.5000076 0.3045373 0.4154177 1 1 1
v -0.5000153 0.3193555 0.8292613 1 1 1
v 0.5 0.3 4.291534E-06 1 1 1
v 0.4999924 0.3045621 0.4154172 1 1 1
v 0.4999847 0.3194066 0.8292589 1 1 1
v 0.3999996 0.1 4.291534E-06 1 1 1
v 0.3999977 0.1046108 0.4199386 1 1 1
v -0.3999996 0.1 4.291534E-06 1 1 1
v -0.4000025 0.1045908 0.419939 1 1 1
v 0.3999949 0.119651 0.8392444 1 1 1
v -0.4000053 0.11961 0.8392467 1 1 1
v -0.3999996 0.3 4.291534E-06 1 1 1
v -0.4000072 0.3045397 0.4154177 1 1 1
v -0.4000158 0.3193606 0.8292608 1 1 1
v 0.3999996 0.3 4.291534E-06 1 1 1
v 0.3999929 0.3045597 0.4154172 1 1 1
v 0.3999844 0.3194015 0.8292589 1 1 1
v -0.5 0.04759097 1.265349 1 1 1
v 0.5 0.04766989 1.265343 1 1 1
v -0.5 0.09111679 1.684839 1 1 1
v 0.5 0.09122491 1.684825 1 1 1
v -0.5000238 0.3465478 1.240353 1 1 1
v -0.5000324 0.3887765 1.647439 1 1 1
v 0.4999762 0.3466268 1.240346 1 1 1
v 0.4999676 0.3888845 1.647426 1 1 1
v 0.399992 0.1473143 1.257011 1 1 1
v -0.4000082 0.1472511 1.257017 1 1 1
v 0.3999891 0.190434 1.67236 1 1 1
v -0.4000111 0.1903476 1.672371 1 1 1
v -0.4000235 0.3465557 1.240353 1 1 1
v -0.400033 0.3887873 1.647438 1 1 1
v 0.3999767 0.3466189 1.240347 1 1 1
v 0.3999672 0.3888738 1.647428 1 1 1
v -0.5 0.1542549 2.102104 1 1 1
v 0.5 0.1543936 2.102079 1 1 1
v -0.5 0.2421744 2.514888 1 1 1
v 0.5 0.2423444 2.514846 1 1 1
v -0.500042 0.4495384 2.049116 1 1 1
v -0.5000525 0.5332042 2.442076 1 1 1
v 0.499958 0.449677 2.049091 1 1 1
v 0.4999475 0.5333743 2.442034 1 1 1
v 0.3999863 0.2528075 2.084419 1 1 1
v -0.4000139 0.2526966 2.084439 1 1 1
v 0.3999825 0.3393373 2.490579 1 1 1
v -0.4000177 0.3392013 2.490613 1 1 1
v -0.4000425 0.4495522 2.049113 1 1 1
v -0.400053 0.5332212 2.442072 1 1 1
v 0.3999577 0.449663 2.049093 1 1 1
v 0.3999472 0.5333573 2.442038 1 1 1
v -0.5 0.3616395 2.919335 1 1 1
v 0.5 0.3618405 2.919265 1 1 1
v -0.5 0.5215456 3.309758 1 1 1
v 0.5 0.5217741 3.309648 1 1 1
v -0.5000639 0.6451238 2.821168 1 1 1
v -0.5000763 0.7917479 3.17941 1 1 1
v 0.4999361 0.6453248 2.821099 1 1 1
v 0.4999237 0.7919763 3.1793 1 1 1
v 0.3999786 0.4563152 2.88655 1 1 1
v -0.4000216 0.4561543 2.886606 1 1 1
v 0.3999748 0.6118187 3.26621 1 1 1
v -0.4000254 0.6116359 3.266298 1 1 1
v -0.4000635 0.6451439 2.821161 1 1 1
v -0.4000759 0.7917707 3.179399 1 1 1
v 0.3999357 0.6453047 2.821106 1 1 1
v 0.3999243 0.7919534 3.179311 1 1 1
v -0.5 0.7315422 3.675108 1 1 1
v 0.5 0.731788 3.67494 1 1 1
v -0.5 0.9999969 3.999997 1 1 1
v 0.5 0.9999969 3.999997 1 1 1
v -0.5000896 0.9791285 3.505694 1 1 1
v -0.5 1.212129 3.787865 1 1 1
v 0.4999104 0.9793743 3.505526 1 1 1
v 0.5 1.212129 3.787865 1 1 1
v 0.3999701 0.8142922 3.618485 1 1 1
v -0.4000301 0.8140955 3.61862 1 1 1
v 0.3999996 1.070708 3.929286 1 1 1
v -0.3999996 1.070708 3.929286 1 1 1
v -0.4000893 0.979153 3.505677 1 1 1
v -0.3999996 1.212129 3.787865 1 1 1
v 0.3999109 0.9793497 3.505543 1 1 1
v 0.3999996 1.212129 3.787865 1 1 1
v -0.4 0.3 0 1 1 1
v -0.5 0.3 0 1 1 1
v -0.4 0.1 0 1 1 1
v -0.5 0 0 1 1 1
v 0.5 0 0 1 1 1
v 0.4 0.1 0 1 1 1
v 0.5 0.3 0 1 1 1
v 0.4 0.3 0 1 1 1
v -0.1207107 0 -0.1707107 1 1 1
v -0.1207107 0.05000001 -0.1707107 1 1 1
v -0.15 0 -0.1 1 1 1
v -0.15 0.05000001 -0.1 1 1 1
v -0.05 0 -0.2 1 1 1
v -0.05 0.05000001 -0.2 1 1 1
v -0.05 0 7.219114E-16 1 1 1
v -0.05 0 -0.1 1 1 1
v -0.15 0 1.082867E-15 1 1 1
v 0.05 0 -0.2 1 1 1
v 0.05 0 -0.1 1 1 1
v 0.05 0 3.609557E-16 1 1 1
v 0.1207107 0 -0.1707107 1 1 1
v 0.15 0 -0.1 1 1 1
v 0.15 0 0 1 1 1
v 0.1207107 0.05000001 -0.1707107 1 1 1
v 0.15 0.05000001 -0.1 1 1 1
v 0.05 0.05000001 -0.2 1 1 1
v 0.15 0.05000001 0 1 1 1
v -0.15 0.05000001 1.082867E-15 1 1 1
v 0.05 0.05000001 -0.1 1 1 1
v 0.05 0.05000001 3.609557E-16 1 1 1
v -0.05 0.05000001 -0.1 1 1 1
v -0.05 0.05000001 7.219114E-16 1 1 1
v 0.4 1.212132 3.787868 1 1 1
v 0.5 1.212132 3.787868 1 1 1
v 0.4 1.070711 3.929289 1 1 1
v 0.5 1 4 1 1 1
v -0.5 1 4 1 1 1
v -0.4 1.070711 3.929289 1 1 1
v -0.5 1.212132 3.787868 1 1 1
v -0.4 1.212132 3.787868 1 1 1
v 0.1207107 1.120711 4.120711 1 1 1
v 0.1207107 1.156066 4.085355 1 1 1
v 0.15 1.070711 4.070711 1 1 1
v 0.15 1.106066 4.035356 1 1 1
v 0.05 1.141421 4.141421 1 1 1
v 0.05 1.176777 4.106066 1 1 1
v 0.05 1 4 1 1 1
v 0.05 1.070711 4.070711 1 1 1
v 0.15 1 4 1 1 1
v -0.05 1.141421 4.141421 1 1 1
v -0.05 1.070711 4.070711 1 1 1
v -0.05 1 4 1 1 1
v -0.1207107 1.120711 4.120711 1 1 1
v -0.15 1.070711 4.070711 1 1 1
v -0.15 1 4 1 1 1
v -0.1207107 1.156066 4.085355 1 1 1
v -0.15 1.106066 4.035356 1 1 1
v -0.05 1.176777 4.106066 1 1 1
v -0.15 1.035355 3.964645 1 1 1
v 0.15 1.035355 3.964645 1 1 1
v -0.05 1.106066 4.035356 1 1 1
v -0.05 1.035355 3.964645 1 1 1
v 0.05 1.106066 4.035356 1 1 1
v 0.05 1.035355 3.964645 1 1 1

vn 2.458389E-10 -1 2.085473E-07
vn 2.492945E-05 -0.9997445 0.02260518
vn 5.125063E-05 -0.9987528 0.04992803
vn -1 -2.458389E-10 5.126905E-17
vn -0.7071068 0.7071068 -1.474652E-07
vn -1 -2.492308E-05 5.635346E-07
vn -0.7071244 0.7069085 -0.01598388
vn -1 -5.118671E-05 2.558842E-06
vn -0.707143 0.7061887 -0.03530264
vn 0.7071068 0.7071068 -1.474652E-07
vn 1 2.458389E-10 -5.126905E-17
vn 0.7070891 0.7069438 -0.01598467
vn 1 2.492308E-05 -5.635346E-07
vn 0.7070705 0.7062611 -0.03530626
vn 1 5.118671E-05 -2.558842E-06
vn -2.458389E-10 1 -2.085473E-07
vn -2.492945E-05 0.9997445 -0.02260518
vn -5.125063E-05 0.9987528 -0.04992803
vn 7.91515E-05 -0.9965228 0.08332065
vn 0.0001088868 -0.9921989 0.124665
vn -1 -7.887628E-05 6.594954E-06
vn -0.7071627 0.7045922 -0.05891193
vn -1 -0.0001080373 1.357437E-05
vn -0.7071838 0.7015141 -0.08814187
vn 0.7070508 0.7047037 -0.05892126
vn 1 7.887628E-05 -6.594954E-06
vn 0.7070298 0.701667 -0.08816105
vn 1 0.0001080373 -1.357437E-05
vn -7.91515E-05 0.9965228 -0.08332065
vn -0.0001088868 0.9921989 -0.124665
vn 0.0001408135 -0.984278 0.1766264
vn 0.0001753042 -0.9700996 0.242707
vn -1 -0.0001385997 2.487139E-05
vn -0.7072063 0.6958916 -0.1248762
vn -1 -0.0001700625 4.254756E-05
vn -0.7072307 0.6858438 -0.1715897
vn 0.7070072 0.6960876 -0.1249113
vn 1 0.0001385997 -2.487139E-05
vn 0.7069828 0.6860843 -0.1716498
vn 1 0.0001700625 -4.254756E-05
vn -0.0001408135 0.984278 -0.1766264
vn -0.0001753042 0.9700996 -0.242707
vn 0.000212767 -0.9449477 0.3272212
vn 0.0002536295 -0.9006742 0.434495
vn -1 -0.0002010537 6.962188E-05
vn -0.7072572 0.6680368 -0.2313311
vn -0.9999999 -0.0002284376 0.0001102008
vn -0.7072861 0.6367113 -0.3071564
vn 0.7069563 0.6683211 -0.2314296
vn 1 0.0002010537 -6.962188E-05
vn 0.7069274 0.6370343 -0.3073123
vn 0.9999999 0.0002284376 -0.0001102008
vn -0.000212767 0.9449477 -0.3272212
vn -0.0002536295 0.9006742 -0.434495
vn 0.0002978957 -0.8252874 0.5647129
vn 1.539572E-08 -0.707108 0.7071056
vn -0.9999999 -0.0002458496 0.0001682256
vn -0.7073174 0.5833925 -0.3991933
vn -1 -1.088644E-08 1.08864E-08
vn -0.7071068 0.5000009 -0.4999991
vn 0.7068961 0.5837401 -0.3994312
vn 0.9999999 0.0002458496 -0.0001682256
vn 0.7071068 0.5000009 -0.4999991
vn 1 1.088644E-08 -1.08864E-08
vn -0.0002978957 0.8252874 -0.5647129
vn -1.539572E-08 0.707108 -0.7071056
vn 0 0 -1
vn -0.7071068 0 -0.7071068
vn -0.9807853 0 -0.1950903
vn -0.1950903 0 -0.9807853
vn 0 -1 0
vn 0.7071068 0 -0.7071068
vn 0.9807853 0 -0.1950903
vn 0.1950903 0 -0.9807853
vn 1 0 0
vn -1 0 0
vn 0 0 1
vn 0 1 0
vn 0 0.7071068 0.7071067
vn 0.7071068 0.5 0.4999999
vn 0.9807853 0.1379497 0.1379497
vn 0.1950903 0.6935199 0.6935198
vn 1.551507E-09 -0.7071067 0.7071068
vn -0.7071068 0.5 0.4999999
vn -0.9807853 0.1379497 0.1379497
vn -0.1950903 0.6935199 0.6935198
vn -1 -1.09708E-09 1.097082E-09
vn 1 1.09708E-09 -1.097082E-09
vn -7.21645E-16 -0.7071068 -0.7071067
vn -1.551507E-09 0.7071067 -0.7071068

vt 0.46875 0.275
vt 0.46875 0.475
vt 0.46875 0.3416667
vt 0.71875 0.275
vt 0.71875 0.475

usemtl colormap

f 3/1/1 2/1/2 1/1/1
f 2/1/2 3/1/1 4/1/2
f 4/1/2 5/1/3 2/1/2
f 5/1/3 4/1/2 6/1/3
f 2/1/6 7/2/5 1/1/4
f 7/2/5 2/1/6 8/2/7
f 5/1/8 8/2/7 2/1/6
f 8/2/7 5/1/8 9/2/9
f 11/2/12 3/1/11 10/2/10
f 3/1/11 11/2/12 4/1/13
f 12/2/14 4/1/13 11/2/12
f 4/1/13 12/2/14 6/1/15
f 15/3/16 14/3/17 13/3/16
f 14/3/17 15/3/16 16/3/17
f 16/3/17 17/3/18 14/3/17
f 17/3/18 16/3/17 18/3/18
f 7/2/5 20/2/12 19/2/10
f 20/2/12 7/2/5 8/2/7
f 8/2/7 21/2/14 20/2/12
f 21/2/14 8/2/7 9/2/9
f 20/2/12 15/3/11 19/2/10
f 15/3/11 20/2/12 16/3/13
f 21/2/14 16/3/13 20/2/12
f 16/3/13 21/2/14 18/3/15
f 22/2/5 11/2/12 10/2/10
f 11/2/12 22/2/5 23/2/7
f 23/2/7 12/2/14 11/2/12
f 12/2/14 23/2/7 24/2/9
f 14/3/6 22/2/5 13/3/4
f 22/2/5 14/3/6 23/2/7
f 17/3/8 23/2/7 14/3/6
f 23/2/7 17/3/8 24/2/9
f 6/1/3 25/1/19 5/1/3
f 25/1/19 6/1/3 26/1/19
f 26/1/19 27/1/20 25/1/19
f 27/1/20 26/1/19 28/1/20
f 25/1/21 9/2/9 5/1/8
f 9/2/9 25/1/21 29/2/22
f 27/1/23 29/2/22 25/1/21
f 29/2/22 27/1/23 30/2/24
f 31/2/25 6/1/15 12/2/14
f 6/1/15 31/2/25 26/1/26
f 32/2/27 26/1/26 31/2/25
f 26/1/26 32/2/27 28/1/28
f 18/3/18 33/3/29 17/3/18
f 33/3/29 18/3/18 34/3/29
f 34/3/29 35/3/30 33/3/29
f 35/3/30 34/3/29 36/3/30
f 9/2/9 37/2/25 21/2/14
f 37/2/25 9/2/9 29/2/22
f 29/2/22 38/2/27 37/2/25
f 38/2/27 29/2/22 30/2/24
f 37/2/25 18/3/15 21/2/14
f 18/3/15 37/2/25 34/3/26
f 38/2/27 34/3/26 37/2/25
f 34/3/26 38/2/27 36/3/28
f 24/2/9 31/2/25 12/2/14
f 31/2/25 24/2/9 39/2/22
f 39/2/22 32/2/27 31/2/25
f 32/2/27 39/2/22 40/2/24
f 33/3/21 24/2/9 17/3/8
f 24/2/9 33/3/21 39/2/22
f 35/3/23 39/2/22 33/3/21
f 39/2/22 35/3/23 40/2/24
f 28/1/20 41/1/31 27/1/20
f 41/1/31 28/1/20 42/1/31
f 42/1/31 43/1/32 41/1/31
f 43/1/32 42/1/31 44/1/32
f 41/1/33 30/2/24 27/1/23
f 30/2/24 41/1/33 45/2/34
f 43/1/35 45/2/34 41/1/33
f 45/2/34 43/1/35 46/2/36
f 47/2/37 28/1/28 32/2/27
f 28/1/28 47/2/37 42/1/38
f 48/2/39 42/1/38 47/2/37
f 42/1/38 48/2/39 44/1/40
f 36/3/30 49/3/41 35/3/30
f 49/3/41 36/3/30 50/3/41
f 50/3/41 51/3/42 49/3/41
f 51/3/42 50/3/41 52/3/42
f 30/2/24 53/2/37 38/2/27
f 53/2/37 30/2/24 45/2/34
f 45/2/34 54/2/39 53/2/37
f 54/2/39 45/2/34 46/2/36
f 53/2/37 36/3/28 38/2/27
f 36/3/28 53/2/37 50/3/38
f 54/2/39 50/3/38 53/2/37
f 50/3/38 54/2/39 52/3/40
f 40/2/24 47/2/37 32/2/27
f 47/2/37 40/2/24 55/2/34
f 55/2/34 48/2/39 47/2/37
f 48/2/39 55/2/34 56/2/36
f 49/3/33 40/2/24 35/3/23
f 40/2/24 49/3/33 55/2/34
f 51/3/35 55/2/34 49/3/33
f 55/2/34 51/3/35 56/2/36
f 44/1/32 57/1/43 43/1/32
f 57/1/43 44/1/32 58/1/43
f 58/1/43 59/1/44 57/1/43
f 59/1/44 58/1/43 60/1/44
f 57/1/45 46/2/36 43/1/35
f 46/2/36 57/1/45 61/2/46
f 59/1/47 61/2/46 57/1/45
f 61/2/46 59/1/47 62/2/48
f 63/2/49 44/1/40 48/2/39
f 44/1/40 63/2/49 58/1/50
f 64/2/51 58/1/50 63/2/49
f 58/1/50 64/2/51 60/1/52
f 52/3/42 65/3/53 51/3/42
f 65/3/53 52/3/42 66/3/53
f 66/3/53 67/3/54 65/3/53
f 67/3/54 66/3/53 68/3/54
f 46/2/36 69/2/49 54/2/39
f 69/2/49 46/2/36 61/2/46
f 61/2/46 70/2/51 69/2/49
f 70/2/51 61/2/46 62/2/48
f 69/2/49 52/3/40 54/2/39
f 52/3/40 69/2/49 66/3/50
f 70/2/51 66/3/50 69/2/49
f 66/3/50 70/2/51 68/3/52
f 56/2/36 63/2/49 48/2/39
f 63/2/49 56/2/36 71/2/46
f 71/2/46 64/2/51 63/2/49
f 64/2/51 71/2/46 72/2/48
f 65/3/45 56/2/36 51/3/35
f 56/2/36 65/3/45 71/2/46
f 67/3/47 71/2/46 65/3/45
f 71/2/46 67/3/47 72/2/48
f 60/1/44 73/1/55 59/1/44
f 73/1/55 60/1/44 74/1/55
f 74/1/55 75/1/56 73/1/55
f 75/1/56 74/1/55 76/1/56
f 73/1/57 62/2/48 59/1/47
f 62/2/48 73/1/57 77/2/58
f 75/1/59 77/2/58 73/1/57
f 77/2/58 75/1/59 78/2/60
f 79/2/61 60/1/52 64/2/51
f 60/1/52 79/2/61 74/1/62
f 80/2/63 74/1/62 79/2/61
f 74/1/62 80/2/63 76/1/64
f 68/3/54 81/3/65 67/3/54
f 81/3/65 68/3/54 82/3/65
f 82/3/65 83/3/66 81/3/65
f 83/3/66 82/3/65 84/3/66
f 62/2/48 85/2/61 70/2/51
f 85/2/61 62/2/48 77/2/58
f 77/2/58 86/2/63 85/2/61
f 86/2/63 77/2/58 78/2/60
f 85/2/61 68/3/52 70/2/51
f 68/3/52 85/2/61 82/3/62
f 86/2/63 82/3/62 85/2/61
f 82/3/62 86/2/63 84/3/64
f 72/2/48 79/2/61 64/2/51
f 79/2/61 72/2/48 87/2/58
f 87/2/58 80/2/63 79/2/61
f 80/2/63 87/2/58 88/2/60
f 81/3/57 72/2/48 67/3/47
f 72/2/48 81/3/57 87/2/58
f 83/3/59 87/2/58 81/3/57
f 87/2/58 83/3/59 88/2/60
f 91/3/67 90/2/67 89/2/67
f 91/3/67 92/1/67 90/2/67
f 92/1/67 91/3/67 93/1/67
f 94/3/67 93/1/67 91/3/67
f 93/1/67 94/3/67 95/2/67
f 95/2/67 94/3/67 96/2/67
f 99/4/69 98/5/68 97/4/68
f 98/5/68 99/4/69 100/5/69
f 98/5/68 101/4/70 97/4/68
f 101/4/70 98/5/68 102/5/70
f 105/4/71 104/4/71 103/4/71
f 104/4/71 105/4/71 101/4/71
f 101/4/71 105/4/71 97/4/71
f 97/4/71 105/4/71 99/4/71
f 106/4/71 104/4/71 101/4/71
f 106/4/71 107/4/71 104/4/71
f 106/4/71 108/4/71 107/4/71
f 109/4/71 108/4/71 106/4/71
f 110/4/71 108/4/71 109/4/71
f 108/4/71 110/4/71 111/4/71
f 113/5/73 109/4/72 112/5/72
f 109/4/72 113/5/73 110/4/73
f 114/5/74 109/4/72 106/4/74
f 109/4/72 114/5/74 112/5/72
f 115/5/75 110/4/73 113/5/73
f 110/4/73 115/5/75 111/4/75
f 105/4/76 100/5/69 99/4/69
f 100/5/69 105/4/76 116/5/76
f 102/5/70 106/4/74 101/4/70
f 106/4/74 102/5/70 114/5/74
f 108/4/76 117/5/76 107/4/76
f 117/5/76 108/4/76 118/5/76
f 117/5/77 104/4/77 107/4/77
f 104/4/77 117/5/77 119/5/77
f 120/5/75 104/4/75 119/5/75
f 104/4/75 120/5/75 103/4/75
f 116/5/78 98/5/78 100/5/78
f 120/5/78 98/5/78 116/5/78
f 119/5/78 98/5/78 120/5/78
f 119/5/78 102/5/78 98/5/78
f 117/5/78 102/5/78 119/5/78
f 102/5/78 117/5/78 114/5/78
f 118/5/78 114/5/78 117/5/78
f 118/5/78 112/5/78 114/5/78
f 115/5/78 112/5/78 118/5/78
f 112/5/78 115/5/78 113/5/78
f 123/3/79 122/2/79 121/2/79
f 123/3/79 124/1/79 122/2/79
f 124/1/79 123/3/79 125/1/79
f 126/3/79 125/1/79 123/3/79
f 125/1/79 126/3/79 127/2/79
f 127/2/79 126/3/79 128/2/79
f 131/4/81 130/5/80 129/4/80
f 130/5/80 131/4/81 132/5/81
f 130/5/80 133/4/82 129/4/80
f 133/4/82 130/5/80 134/5/82
f 137/4/83 136/4/83 135/4/83
f 136/4/83 137/4/83 133/4/83
f 133/4/83 137/4/83 129/4/83
f 129/4/83 137/4/83 131/4/83
f 138/4/83 136/4/83 133/4/83
f 138/4/83 139/4/83 136/4/83
f 138/4/83 140/4/83 139/4/83
f 141/4/83 140/4/83 138/4/83
f 142/4/83 140/4/83 141/4/83
f 140/4/83 142/4/83 143/4/83
f 145/5/85 141/4/84 144/5/84
f 141/4/84 145/5/85 142/4/85
f 146/5/86 141/4/84 138/4/86
f 141/4/84 146/5/86 144/5/84
f 147/5/87 142/4/85 145/5/85
f 142/4/85 147/5/87 143/4/87
f 137/4/88 132/5/81 131/4/81
f 132/5/81 137/4/88 148/5/88
f 134/5/82 138/4/86 133/4/82
f 138/4/86 134/5/82 146/5/86
f 140/4/88 149/5/88 139/4/88
f 149/5/88 140/4/88 150/5/88
f 149/5/89 136/4/89 139/4/89
f 136/4/89 149/5/89 151/5/89
f 152/5/87 136/4/87 151/5/87
f 136/4/87 152/5/87 135/4/87
f 148/5/90 130/5/90 132/5/90
f 152/5/90 130/5/90 148/5/90
f 151/5/90 130/5/90 152/5/90
f 151/5/90 134/5/90 130/5/90
f 149/5/90 134/5/90 151/5/90
f 134/5/90 149/5/90 146/5/90
f 150/5/90 146/5/90 149/5/90
f 150/5/90 144/5/90 146/5/90
f 147/5/90 144/5/90 150/5/90
f 144/5/90 147/5/90 145/5/90

g track-narrow-straight-hill-beginning




usemtl colormap

f 3/1/1 2/1/2 1/1/1
f 2/1/2 3/1/1 4/1/2
f 4/1/2 5/1/3 2/1/2
f 5/1/3 4/1/2 6/1/3
f 2/1/6 7/2/5 1/1/4
f 7/2/5 2/1/6 8/2/7
f 5/1/8 8/2/7 2/1/6
f 8/2/7 5/1/8 9/2/9
f 11/2/12 3/1/11 10/2/10
f 3/1/11 11/2/12 4/1/13
f 12/2/14 4/1/13 11/2/12
f 4/1/13 12/2/14 6/1/15
f 15/3/16 14/3/17 13/3/16
f 14/3/17 15/3/16 16/3/17
f 16/3/17 17/3/18 14/3/17
f 17/3/18 16/3/17 18/3/18
f 7/2/5 20/2/12 19/2/10
f 20/2/12 7/2/5 8/2/7
f 8/2/7 21/2/14 20/2/12
f 21/2/14 8/2/7 9/2/9
f 20/2/12 15/3/11 19/2/10
f 15/3/11 20/2/12 16/3/13
f 21/2/14 16/3/13 20/2/12
f 16/3/13 21/2/14 18/3/15
f 22/2/5 11/2/12 10/2/10
f 11/2/12 22/2/5 23/2/7
f 23/2/7 12/2/14 11/2/12
f 12/2/14 23/2/7 24/2/9
f 14/3/6 22/2/5 13/3/4
f 22/2/5 14/3/6 23/2/7
f 17/3/8 23/2/7 14/3/6
f 23/2/7 17/3/8 24/2/9
f 6/1/3 25/1/19 5/1/3
f 25/1/19 6/1/3 26/1/19
f 26/1/19 27/1/20 25/1/19
f 27/1/20 26/1/19 28/1/20
f 25/1/21 9/2/9 5/1/8
f 9/2/9 25/1/21 29/2/22
f 27/1/23 29/2/22 25/1/21
f 29/2/22 27/1/23 30/2/24
f 31/2/25 6/1/15 12/2/14
f 6/1/15 31/2/25 26/1/26
f 32/2/27 26/1/26 31/2/25
f 26/1/26 32/2/27 28/1/28
f 18/3/18 33/3/29 17/3/18
f 33/3/29 18/3/18 34/3/29
f 34/3/29 35/3/30 33/3/29
f 35/3/30 34/3/29 36/3/30
f 9/2/9 37/2/25 21/2/14
f 37/2/25 9/2/9 29/2/22
f 29/2/22 38/2/27 37/2/25
f 38/2/27 29/2/22 30/2/24
f 37/2/25 18/3/15 21/2/14
f 18/3/15 37/2/25 34/3/26
f 38/2/27 34/3/26 37/2/25
f 34/3/26 38/2/27 36/3/28
f 24/2/9 31/2/25 12/2/14
f 31/2/25 24/2/9 39/2/22
f 39/2/22 32/2/27 31/2/25
f 32/2/27 39/2/22 40/2/24
f 33/3/21 24/2/9 17/3/8
f 24/2/9 33/3/21 39/2/22
f 35/3/23 39/2/22 33/3/21
f 39/2/22 35/3/23 40/2/24
f 28/1/20 41/1/31 27/1/20
f 41/1/31 28/1/20 42/1/31
f 42/1/31 43/1/32 41/1/31
f 43/1/32 42/1/31 44/1/32
f 41/1/33 30/2/24 27/1/23
f 30/2/24 41/1/33 45/2/34
f 43/1/35 45/2/34 41/1/33
f 45/2/34 43/1/35 46/2/36
f 47/2/37 28/1/28 32/2/27
f 28/1/28 47/2/37 42/1/38
f 48/2/39 42/1/38 47/2/37
f 42/1/38 48/2/39 44/1/40
f 36/3/30 49/3/41 35/3/30
f 49/3/41 36/3/30 50/3/41
f 50/3/41 51/3/42 49/3/41
f 51/3/42 50/3/41 52/3/42
f 30/2/24 53/2/37 38/2/27
f 53/2/37 30/2/24 45/2/34
f 45/2/34 54/2/39 53/2/37
f 54/2/39 45/2/34 46/2/36
f 53/2/37 36/3/28 38/2/27
f 36/3/28 53/2/37 50/3/38
f 54/2/39 50/3/38 53/2/37
f 50/3/38 54/2/39 52/3/40
f 40/2/24 47/2/37 32/2/27
f 47/2/37 40/2/24 55/2/34
f 55/2/34 48/2/39 47/2/37
f 48/2/39 55/2/34 56/2/36
f 49/3/33 40/2/24 35/3/23
f 40/2/24 49/3/33 55/2/34
f 51/3/35 55/2/34 49/3/33
f 55/2/34 51/3/35 56/2/36
f 44/1/32 57/1/43 43/1/32
f 57/1/43 44/1/32 58/1/43
f 58/1/43 59/1/44 57/1/43
f 59/1/44 58/1/43 60/1/44
f 57/1/45 46/2/36 43/1/35
f 46/2/36 57/1/45 61/2/46
f 59/1/47 61/2/46 57/1/45
f 61/2/46 59/1/47 62/2/48
f 63/2/49 44/1/40 48/2/39
f 44/1/40 63/2/49 58/1/50
f 64/2/51 58/1/50 63/2/49
f 58/1/50 64/2/51 60/1/52
f 52/3/42 65/3/53 51/3/42
f 65/3/53 52/3/42 66/3/53
f 66/3/53 67/3/54 65/3/53
f 67/3/54 66/3/53 68/3/54
f 46/2/36 69/2/49 54/2/39
f 69/2/49 46/2/36 61/2/46
f 61/2/46 70/2/51 69/2/49
f 70/2/51 61/2/46 62/2/48
f 69/2/49 52/3/40 54/2/39
f 52/3/40 69/2/49 66/3/50
f 70/2/51 66/3/50 69/2/49
f 66/3/50 70/2/51 68/3/52
f 56/2/36 63/2/49 48/2/39
f 63/2/49 56/2/36 71/2/46
f 71/2/46 64/2/51 63/2/49
f 64/2/51 71/2/46 72/2/48
f 65/3/45 56/2/36 51/3/35
f 56/2/36 65/3/45 71/2/46
f 67/3/47 71/2/46 65/3/45
f 71/2/46 67/3/47 72/2/48
f 60/1/44 73/1/55 59/1/44
f 73/1/55 60/1/44 74/1/55
f 74/1/55 75/1/56 73/1/55
f 75/1/56 74/1/55 76/1/56
f 73/1/57 62/2/48 59/1/47
f 62/2/48 73/1/57 77/2/58
f 75/1/59 77/2/58 73/1/57
f 77/2/58 75/1/59 78/2/60
f 79/2/61 60/1/52 64/2/51
f 60/1/52 79/2/61 74/1/62
f 80/2/63 74/1/62 79/2/61
f 74/1/62 80/2/63 76/1/64
f 68/3/54 81/3/65 67/3/54
f 81/3/65 68/3/54 82/3/65
f 82/3/65 83/3/66 81/3/65
f 83/3/66 82/3/65 84/3/66
f 62/2/48 85/2/61 70/2/51
f 85/2/61 62/2/48 77/2/58
f 77/2/58 86/2/63 85/2/61
f 86/2/63 77/2/58 78/2/60
f 85/2/61 68/3/52 70/2/51
f 68/3/52 85/2/61 82/3/62
f 86/2/63 82/3/62 85/2/61
f 82/3/62 86/2/63 84/3/64
f 72/2/48 79/2/61 64/2/51
f 79/2/61 72/2/48 87/2/58
f 87/2/58 80/2/63 79/2/61
f 80/2/63 87/2/58 88/2/60
f 81/3/57 72/2/48 67/3/47
f 72/2/48 81/3/57 87/2/58
f 83/3/59 87/2/58 81/3/57
f 87/2/58 83/3/59 88/2/60
f 91/3/67 90/2/67 89/2/67
f 91/3/67 92/1/67 90/2/67
f 92/1/67 91/3/67 93/1/67
f 94/3/67 93/1/67 91/3/67
f 93/1/67 94/3/67 95/2/67
f 95/2/67 94/3/67 96/2/67
f 99/4/69 98/5/68 97/4/68
f 98/5/68 99/4/69 100/5/69
f 98/5/68 101/4/70 97/4/68
f 101/4/70 98/5/68 102/5/70
f 105/4/71 104/4/71 103/4/71
f 104/4/71 105/4/71 101/4/71
f 101/4/71 105/4/71 97/4/71
f 97/4/71 105/4/71 99/4/71
f 106/4/71 104/4/71 101/4/71
f 106/4/71 107/4/71 104/4/71
f 106/4/71 108/4/71 107/4/71
f 109/4/71 108/4/71 106/4/71
f 110/4/71 108/4/71 109/4/71
f 108/4/71 110/4/71 111/4/71
f 113/5/73 109/4/72 112/5/72
f 109/4/72 113/5/73 110/4/73
f 114/5/74 109/4/72 106/4/74
f 109/4/72 114/5/74 112/5/72
f 115/5/75 110/4/73 113/5/73
f 110/4/73 115/5/75 111/4/75
f 105/4/76 100/5/69 99/4/69
f 100/5/69 105/4/76 116/5/76
f 102/5/70 106/4/74 101/4/70
f 106/4/74 102/5/70 114/5/74
f 108/4/76 117/5/76 107/4/76
f 117/5/76 108/4/76 118/5/76
f 117/5/77 104/4/77 107/4/77
f 104/4/77 117/5/77 119/5/77
f 120/5/75 104/4/75 119/5/75
f 104/4/75 120/5/75 103/4/75
f 116/5/78 98/5/78 100/5/78
f 120/5/78 98/5/78 116/5/78
f 119/5/78 98/5/78 120/5/78
f 119/5/78 102/5/78 98/5/78
f 117/5/78 102/5/78 119/5/78
f 102/5/78 117/5/78 114/5/78
f 118/5/78 114/5/78 117/5/78
f 118/5/78 112/5/78 114/5/78
f 115/5/78 112/5/78 118/5/78
f 112/5/78 115/5/78 113/5/78
f 123/3/79 122/2/79 121/2/79
f 123/3/79 124/1/79 122/2/79
f 124/1/79 123/3/79 125/1/79
f 126/3/79 125/1/79 123/3/79
f 125/1/79 126/3/79 127/2/79
f 127/2/79 126/3/79 128/2/79
f 131/4/81 130/5/80 129/4/80
f 130/5/80 131/4/81 132/5/81
f 130/5/80 133/4/82 129/4/80
f 133/4/82 130/5/80 134/5/82
f 137/4/83 136/4/83 135/4/83
f 136/4/83 137/4/83 133/4/83
f 133/4/83 137/4/83 129/4/83
f 129/4/83 137/4/83 131/4/83
f 138/4/83 136/4/83 133/4/83
f 138/4/83 139/4/83 136/4/83
f 138/4/83 140/4/83 139/4/83
f 141/4/83 140/4/83 138/4/83
f 142/4/83 140/4/83 141/4/83
f 140/4/83 142/4/83 143/4/83
f 145/5/85 141/4/84 144/5/84
f 141/4/84 145/5/85 142/4/85
f 146/5/86 141/4/84 138/4/86
f 141/4/84 146/5/86 144/5/84
f 147/5/87 142/4/85 145/5/85
f 142/4/85 147/5/87 143/4/87
f 137/4/88 132/5/81 131/4/81
f 132/5/81 137/4/88 148/5/88
f 134/5/82 138/4/86 133/4/82
f 138/4/86 134/5/82 146/5/86
f 140/4/88 149/5/88 139/4/88
f 149/5/88 140/4/88 150/5/88
f 149/5/89 136/4/89 139/4/89
f 136/4/89 149/5/89 151/5/89
f 152/5/87 136/4/87 151/5/87
f 136/4/87 152/5/87 135/4/87
f 148/5/90 130/5/90 132/5/90
f 152/5/90 130/5/90 148/5/90
f 151/5/90 130/5/90 152/5/90
f 151/5/90 134/5/90 130/5/90
f 149/5/90 134/5/90 151/5/90
f 134/5/90 149/5/90 146/5/90
f 150/5/90 146/5/90 149/5/90
f 150/5/90 144/5/90 146/5/90
f 147/5/90 144/5/90 150/5/90
f 144/5/90 147/5/90 145/5/90

