# Created by Kenney (www.kenney.nl)

mtllib track-striped-wide-corner-large.mtl

g track-striped-wide-corner-large

v 0.9582505 0.3 0.5821857 1 1 1
v 0.8407528 0.3 1.141364 1 1 1
v 0.8592522 0.3 0.5680671 1 1 1
v 0.7444016 0.3 1.114597 1 1 1
v -0.9227166 0.3 0.3139281 1 1 1
v -0.9227166 0.1 0.3139281 1 1 1
v -0.9899201 0.3 0.6328012 1 1 1
v -0.9899201 0.1 0.6328012 1 1 1
v 0.8407528 0 1.141364 1 1 1
v 0.9582505 0 0.5821857 1 1 1
v -1.086272 0 0.6060348 1 1 1
v -1.021715 0 0.2998095 1 1 1
v -1.021715 0.3 0.2998095 1 1 1
v -1.086272 0.3 0.6060348 1 1 1
v 0.8592522 0.1 0.5680671 1 1 1
v 0.7444016 0.1 1.114597 1 1 1
v -1 0 4.172325E-06 1 1 1
v -1 0.3 4.172325E-06 1 1 1
v -0.9000001 0.3 4.291534E-06 1 1 1
v -0.9000001 0.1 4.291534E-06 1 1 1
v 0.9 0.1 8.106232E-06 1 1 1
v 0.9 0.3 8.106232E-06 1 1 1
v 1 0.3 8.225441E-06 1 1 1
v 1 0 8.225441E-06 1 1 1
v 0.6591084 0.3 1.670843 1 1 1
v 0.4233127 0.3 2.167795 1 1 1
v 0.5665627 0.3 1.632958 1 1 1
v 0.3353796 0.3 2.120174 1 1 1
v -1.09926 0.3 0.9510244 1 1 1
v -1.09926 0.1 0.9510244 1 1 1
v -1.247417 0.3 1.262995 1 1 1
v -1.247417 0.1 1.262995 1 1 1
v 0.4233127 0 2.167795 1 1 1
v 0.6591084 0 1.670843 1 1 1
v -1.33535 0 1.215374 1 1 1
v -1.191806 0 0.9131392 1 1 1
v -1.191806 0.3 0.9131392 1 1 1
v -1.33535 0.3 1.215374 1 1 1
v 0.5665627 0.1 1.632958 1 1 1
v 0.3353796 0.1 2.120174 1 1 1
v 0.1410427 0.3 2.631349 1 1 1
v -0.1822362 0.3 3.061262 1 1 1
v 0.05832553 0.3 2.575154 1 1 1
v -0.2592158 0.3 2.997433 1 1 1
v -1.430582 0.3 1.563644 1 1 1
v -1.430582 0.1 1.563644 1 1 1
v -1.64485 0.3 1.848513 1 1 1
v -1.64485 0.1 1.848513 1 1 1
v -0.1822362 0 3.061262 1 1 1
v 0.1410427 0 2.631349 1 1 1
v -1.721829 0 1.784684 1 1 1
v -1.513299 0 1.507449 1 1 1
v -1.513299 0.3 1.507449 1 1 1
v -1.721829 0.3 1.784684 1 1 1
v 0.05832553 0.1 2.575154 1 1 1
v -0.2592158 0.1 2.997433 1 1 1
v -0.5428939 0.3 3.457107 1 1 1
v -0.9387386 0.3 3.817764 1 1 1
v -0.6136045 0.3 3.386396 1 1 1
v -1.002568 0.3 3.740784 1 1 1
v -1.886396 0.3 2.113604 1 1 1
v -1.886396 0.1 2.113604 1 1 1
v -2.151488 0.3 2.35515 1 1 1
v -2.151488 0.1 2.35515 1 1 1
v -0.9387386 0 3.817764 1 1 1
v -0.5428939 0 3.457107 1 1 1
v -2.215317 0 2.278171 1 1 1
v -1.957107 0 2.042893 1 1 1
v -1.957107 0.3 2.042893 1 1 1
v -2.215317 0.3 2.278171 1 1 1
v -0.6136045 0.1 3.386396 1 1 1
v -1.002568 0.1 3.740784 1 1 1
v -1.368652 0.3 4.141043 1 1 1
v -1.832206 0.3 4.423313 1 1 1
v -1.424847 0.3 4.058326 1 1 1
v -1.879827 0.3 4.33538 1 1 1
v -2.436357 0.3 2.569418 1 1 1
v -2.436357 0.1 2.569418 1 1 1
v -2.737005 0.3 2.752584 1 1 1
v -2.737005 0.1 2.752584 1 1 1
v -1.832206 0 4.423313 1 1 1
v -1.368652 0 4.141043 1 1 1
v -2.784626 0 2.66465 1 1 1
v -2.492552 0 2.486701 1 1 1
v -2.492552 0.3 2.486701 1 1 1
v -2.784626 0.3 2.66465 1 1 1
v -1.424847 0.1 4.058326 1 1 1
v -1.879827 0.1 4.33538 1 1 1
v -2.329157 0.3 4.659109 1 1 1
v -2.858636 0.3 4.840753 1 1 1
v -2.367043 0.3 4.566563 1 1 1
v -2.885403 0.3 4.744401 1 1 1
v -3.048976 0.3 2.90074 1 1 1
v -3.048976 0.1 2.90074 1 1 1
v -3.367199 0.3 3.01008 1 1 1
v -3.367199 0.1 3.01008 1 1 1
v -2.858636 0 4.840753 1 1 1
v -2.329157 0 4.659109 1 1 1
v -3.393965 0 2.913728 1 1 1
v -3.086861 0 2.808194 1 1 1
v -3.086861 0.3 2.808194 1 1 1
v -3.393965 0.3 2.913728 1 1 1
v -2.367043 0.1 4.566563 1 1 1
v -2.885403 0.1 4.744401 1 1 1
v -3.417815 0.3 4.958251 1 1 1
v -3.999992 0.3 5 1 1 1
v -3.431933 0.3 4.859252 1 1 1
v -3.999992 0.3 4.9 1 1 1
v -3.686072 0.3 3.077283 1 1 1
v -3.686072 0.1 3.077283 1 1 1
v -3.999996 0.3 3.1 1 1 1
v -3.999996 0.1 3.1 1 1 1
v -3.999992 0 5 1 1 1
v -3.417815 0 4.958251 1 1 1
v -3.999996 0 3 1 1 1
v -3.700191 0 2.978285 1 1 1
v -3.700191 0.3 2.978285 1 1 1
v -3.999996 0.3 3 1 1 1
v -3.431933 0.1 4.859252 1 1 1
v -3.999992 0.1 4.9 1 1 1
v -0.9 0.3 0 1 1 1
v -1 0.3 0 1 1 1
v -0.9 0.1 0 1 1 1
v -1 0 0 1 1 1
v 1 0 0 1 1 1
v 0.9 0.1 0 1 1 1
v 1 0.3 0 1 1 1
v 0.9 0.3 0 1 1 1
v -0.1207107 0 -0.1707107 1 1 1
v -0.1207107 0.05000001 -0.1707107 1 1 1
v -0.15 0 -0.1 1 1 1
v -0.15 0.05000001 -0.1 1 1 1
v -0.05 0 -0.2 1 1 1
v -0.05 0.05000001 -0.2 1 1 1
v -0.05 0 7.219114E-16 1 1 1
v -0.05 0 -0.1 1 1 1
v -0.15 0 1.082867E-15 1 1 1
v 0.05 0 -0.2 1 1 1
v 0.05 0 -0.1 1 1 1
v 0.05 0 3.609557E-16 1 1 1
v 0.1207107 0 -0.1707107 1 1 1
v 0.15 0 -0.1 1 1 1
v 0.15 0 0 1 1 1
v 0.1207107 0.05000001 -0.1707107 1 1 1
v 0.15 0.05000001 -0.1 1 1 1
v 0.05 0.05000001 -0.2 1 1 1
v 0.15 0.05000001 0 1 1 1
v -0.15 0.05000001 1.082867E-15 1 1 1
v 0.05 0.05000001 -0.1 1 1 1
v 0.05 0.05000001 3.609557E-16 1 1 1
v -0.05 0.05000001 -0.1 1 1 1
v -0.05 0.05000001 7.219114E-16 1 1 1
v -4 0.3 4.9 1 1 1
v -4 0.3 5 1 1 1
v -4 0.1 4.9 1 1 1
v -4 0 5 1 1 1
v -4 0 3 1 1 1
v -4 0.1 3.1 1 1 1
v -4 0.3 3 1 1 1
v -4 0.3 3.1 1 1 1
v -4.170711 0 4.120711 1 1 1
v -4.170711 0.05000001 4.120711 1 1 1
v -4.1 0 4.15 1 1 1
v -4.1 0.05000001 4.15 1 1 1
v -4.2 0 4.05 1 1 1
v -4.2 0.05000001 4.05 1 1 1
v -4 0 4.05 1 1 1
v -4.1 0 4.05 1 1 1
v -4 0 4.15 1 1 1
v -4.2 0 3.95 1 1 1
v -4.1 0 3.95 1 1 1
v -4 0 3.95 1 1 1
v -4.170711 0 3.879289 1 1 1
v -4.1 0 3.85 1 1 1
v -4 0 3.85 1 1 1
v -4.170711 0.05000001 3.879289 1 1 1
v -4.1 0.05000001 3.85 1 1 1
v -4.2 0.05000001 3.95 1 1 1
v -4 0.05000001 3.85 1 1 1
v -4 0.05000001 4.15 1 1 1
v -4.1 0.05000001 3.95 1 1 1
v -4 0.05000001 3.95 1 1 1
v -4.1 0.05000001 4.05 1 1 1
v -4 0.05000001 4.05 1 1 1

vn 0.7000235 0.7071068 0.09983514
vn 0.681306 0.7071068 0.1892674
vn -0.7000235 0.7071068 -0.09983514
vn -0.681306 0.7071068 -0.1892674
vn 0.9899828 0 0.1411882
vn 0.9635122 0 0.2676645
vn 0 -1 0
vn -0.9899828 0 -0.1411882
vn -0.9635122 0 -0.2676645
vn 0 1 0
vn -1 0 -2.06452E-06
vn -0.7071068 0.7071068 -1.459836E-06
vn 0.7071068 0.7071068 1.459836E-06
vn 1 0 2.06452E-06
vn 0.6543971 0.7071068 0.2678888
vn 0.6217811 0.7071068 0.3367316
vn -0.6543971 0.7071068 -0.2678888
vn -0.6217811 0.7071068 -0.3367316
vn 0.9254572 0 0.378852
vn 0.8793313 0 0.4762105
vn -0.9254572 0 -0.378852
vn -0.8793313 0 -0.4762105
vn 0.5848982 0.7071068 0.3973588
vn 0.5443284 0.7071068 0.4513386
vn -0.5848982 0.7071068 -0.3973588
vn -0.5443284 0.7071068 -0.4513386
vn 0.827171 0 0.5619503
vn 0.7697966 0 0.6382892
vn -0.827171 0 -0.5619503
vn -0.7697966 0 -0.6382892
vn 0.4999999 0.7071068 0.5000001
vn 0.4513385 0.7071068 0.5443285
vn -0.4999999 0.7071068 -0.5000001
vn -0.4513385 0.7071068 -0.5443285
vn 0.7071066 0 0.7071069
vn 0.638289 0 0.7697967
vn -0.7071066 0 -0.7071069
vn -0.638289 0 -0.7697967
vn 0.3973587 0.7071068 0.5848984
vn 0.3367316 0.7071068 0.6217812
vn -0.3973587 0.7071068 -0.5848984
vn -0.3367316 0.7071068 -0.6217812
vn 0.56195 0 0.8271713
vn 0.4762104 0 0.8793314
vn -0.56195 0 -0.8271713
vn -0.4762104 0 -0.8793314
vn 0.2678888 0.7071068 0.6543971
vn 0.1892675 0.7071068 0.6813059
vn -0.2678888 0.7071068 -0.6543971
vn -0.1892675 0.7071068 -0.6813059
vn 0.378852 0 0.9254573
vn 0.2676646 0 0.9635121
vn -0.378852 0 -0.9254573
vn -0.2676646 0 -0.9635121
vn 0.09983522 0.7071068 0.7000235
vn 1.549721E-06 0.7071068 0.7071067
vn -0.09983522 0.7071068 -0.7000235
vn -1.549721E-06 0.7071068 -0.7071067
vn 0.1411883 0 0.9899828
vn 2.205372E-06 0 0.9999999
vn -0.1411883 0 -0.9899828
vn -2.205372E-06 0 -0.9999999
vn 0 0 -1
vn -0.7071068 0 -0.7071068
vn -0.9807853 0 -0.1950903
vn -0.1950903 0 -0.9807853
vn 0.7071068 0 -0.7071068
vn 0.9807853 0 -0.1950903
vn 0.1950903 0 -0.9807853
vn 1 0 0
vn -1 0 0
vn 0 0 1
vn -0.9999999 0 3.576279E-07
vn -0.7071065 0 0.7071069
vn -0.19509 0 0.9807853
vn -0.9807851 0 0.1950907
vn -0.7071069 0 -0.7071065
vn -0.1950907 0 -0.9807851
vn -0.9807853 0 -0.19509
vn -3.576279E-07 0 -0.9999999
vn 3.576279E-07 0 0.9999999
vn 0.9999999 0 -3.576279E-07

vt 0.59375 0.475
vt 0.59375 0.3416667
vt 0.59375 0.275
vt 0.59375 0.025
vt 0.59375 0.225
vt 0.59375 0.09166666
vt 0.34375 0.025
vt 0.34375 0.225

usemtl colormap

f 3/1/3 2/1/2 1/1/1
f 2/1/2 3/1/3 4/1/4
f 7/1/2 6/2/5 5/1/1
f 6/2/5 7/1/2 8/2/6
f 11/3/7 10/3/7 9/3/7
f 10/3/7 11/3/7 12/3/7
f 11/3/9 13/1/3 12/3/8
f 13/1/3 11/3/9 14/1/4
f 13/1/3 7/1/2 5/1/1
f 7/1/2 13/1/3 14/1/4
f 2/1/2 10/3/5 1/1/1
f 10/3/5 2/1/2 9/3/6
f 16/2/9 3/1/3 15/2/8
f 3/1/3 16/2/9 4/1/4
f 6/2/10 16/2/10 15/2/10
f 16/2/10 6/2/10 8/2/10
f 12/4/8 18/5/12 17/4/11
f 18/5/12 12/4/8 13/5/3
f 5/5/1 18/5/12 13/5/3
f 18/5/12 5/5/1 19/5/13
f 5/5/1 20/6/14 19/5/13
f 20/6/14 5/5/1 6/6/5
f 20/6/10 15/6/10 21/6/10
f 15/6/10 20/6/10 6/6/10
f 15/6/8 22/5/12 21/6/11
f 22/5/12 15/6/8 3/5/3
f 1/5/1 22/5/12 3/5/3
f 22/5/12 1/5/1 23/5/13
f 1/5/1 24/4/14 23/5/13
f 24/4/14 1/5/1 10/4/5
f 12/4/7 24/4/7 10/4/7
f 24/4/7 12/4/7 17/4/7
f 27/1/17 26/1/16 25/1/15
f 26/1/16 27/1/17 28/1/18
f 31/1/16 30/2/19 29/1/15
f 30/2/19 31/1/16 32/2/20
f 35/3/7 34/3/7 33/3/7
f 34/3/7 35/3/7 36/3/7
f 35/3/22 37/1/17 36/3/21
f 37/1/17 35/3/22 38/1/18
f 37/1/17 31/1/16 29/1/15
f 31/1/16 37/1/17 38/1/18
f 26/1/16 34/3/19 25/1/15
f 34/3/19 26/1/16 33/3/20
f 40/2/22 27/1/17 39/2/21
f 27/1/17 40/2/22 28/1/18
f 30/2/10 40/2/10 39/2/10
f 40/2/10 30/2/10 32/2/10
f 36/4/21 14/5/4 11/4/9
f 14/5/4 36/4/21 37/5/17
f 29/5/15 14/5/4 37/5/17
f 14/5/4 29/5/15 7/5/2
f 29/5/15 8/6/6 7/5/2
f 8/6/6 29/5/15 30/6/19
f 8/6/10 39/6/10 16/6/10
f 39/6/10 8/6/10 30/6/10
f 39/6/21 4/5/4 16/6/9
f 4/5/4 39/6/21 27/5/17
f 25/5/15 4/5/4 27/5/17
f 4/5/4 25/5/15 2/5/2
f 25/5/15 9/4/6 2/5/2
f 9/4/6 25/5/15 34/4/19
f 36/4/7 9/4/7 34/4/7
f 9/4/7 36/4/7 11/4/7
f 43/1/25 42/1/24 41/1/23
f 42/1/24 43/1/25 44/1/26
f 47/1/24 46/2/27 45/1/23
f 46/2/27 47/1/24 48/2/28
f 51/3/7 50/3/7 49/3/7
f 50/3/7 51/3/7 52/3/7
f 51/3/30 53/1/25 52/3/29
f 53/1/25 51/3/30 54/1/26
f 53/1/25 47/1/24 45/1/23
f 47/1/24 53/1/25 54/1/26
f 42/1/24 50/3/27 41/1/23
f 50/3/27 42/1/24 49/3/28
f 56/2/30 43/1/25 55/2/29
f 43/1/25 56/2/30 44/1/26
f 46/2/10 56/2/10 55/2/10
f 56/2/10 46/2/10 48/2/10
f 52/4/29 38/5/18 35/4/22
f 38/5/18 52/4/29 53/5/25
f 45/5/23 38/5/18 53/5/25
f 38/5/18 45/5/23 31/5/16
f 45/5/23 32/6/20 31/5/16
f 32/6/20 45/5/23 46/6/27
f 32/6/10 55/6/10 40/6/10
f 55/6/10 32/6/10 46/6/10
f 55/6/29 28/5/18 40/6/22
f 28/5/18 55/6/29 43/5/25
f 41/5/23 28/5/18 43/5/25
f 28/5/18 41/5/23 26/5/16
f 41/5/23 33/4/20 26/5/16
f 33/4/20 41/5/23 50/4/27
f 52/4/7 33/4/7 50/4/7
f 33/4/7 52/4/7 35/4/7
f 59/1/33 58/1/32 57/1/31
f 58/1/32 59/1/33 60/1/34
f 63/1/32 62/2/35 61/1/31
f 62/2/35 63/1/32 64/2/36
f 67/3/7 66/3/7 65/3/7
f 66/3/7 67/3/7 68/3/7
f 67/3/38 69/1/33 68/3/37
f 69/1/33 67/3/38 70/1/34
f 69/1/33 63/1/32 61/1/31
f 63/1/32 69/1/33 70/1/34
f 58/1/32 66/3/35 57/1/31
f 66/3/35 58/1/32 65/3/36
f 72/2/38 59/1/33 71/2/37
f 59/1/33 72/2/38 60/1/34
f 62/2/10 72/2/10 71/2/10
f 72/2/10 62/2/10 64/2/10
f 68/4/37 54/5/26 51/4/30
f 54/5/26 68/4/37 69/5/33
f 61/5/31 54/5/26 69/5/33
f 54/5/26 61/5/31 47/5/24
f 61/5/31 48/6/28 47/5/24
f 48/6/28 61/5/31 62/6/35
f 48/6/10 71/6/10 56/6/10
f 71/6/10 48/6/10 62/6/10
f 71/6/37 44/5/26 56/6/30
f 44/5/26 71/6/37 59/5/33
f 57/5/31 44/5/26 59/5/33
f 44/5/26 57/5/31 42/5/24
f 57/5/31 49/4/28 42/5/24
f 49/4/28 57/5/31 66/4/35
f 68/4/7 49/4/7 66/4/7
f 49/4/7 68/4/7 51/4/7
f 75/1/41 74/1/40 73/1/39
f 74/1/40 75/1/41 76/1/42
f 79/1/40 78/2/43 77/1/39
f 78/2/43 79/1/40 80/2/44
f 83/3/7 82/3/7 81/3/7
f 82/3/7 83/3/7 84/3/7
f 83/3/46 85/1/41 84/3/45
f 85/1/41 83/3/46 86/1/42
f 85/1/41 79/1/40 77/1/39
f 79/1/40 85/1/41 86/1/42
f 74/1/40 82/3/43 73/1/39
f 82/3/43 74/1/40 81/3/44
f 88/2/46 75/1/41 87/2/45
f 75/1/41 88/2/46 76/1/42
f 78/2/10 88/2/10 87/2/10
f 88/2/10 78/2/10 80/2/10
f 84/4/45 70/5/34 67/4/38
f 70/5/34 84/4/45 85/5/41
f 77/5/39 70/5/34 85/5/41
f 70/5/34 77/5/39 63/5/32
f 77/5/39 64/6/36 63/5/32
f 64/6/36 77/5/39 78/6/43
f 64/6/10 87/6/10 72/6/10
f 87/6/10 64/6/10 78/6/10
f 87/6/45 60/5/34 72/6/38
f 60/5/34 87/6/45 75/5/41
f 73/5/39 60/5/34 75/5/41
f 60/5/34 73/5/39 58/5/32
f 73/5/39 65/4/36 58/5/32
f 65/4/36 73/5/39 82/4/43
f 84/4/7 65/4/7 82/4/7
f 65/4/7 84/4/7 67/4/7
f 91/1/49 90/1/48 89/1/47
f 90/1/48 91/1/49 92/1/50
f 95/1/48 94/2/51 93/1/47
f 94/2/51 95/1/48 96/2/52
f 99/3/7 98/3/7 97/3/7
f 98/3/7 99/3/7 100/3/7
f 99/3/54 101/1/49 100/3/53
f 101/1/49 99/3/54 102/1/50
f 101/1/49 95/1/48 93/1/47
f 95/1/48 101/1/49 102/1/50
f 90/1/48 98/3/51 89/1/47
f 98/3/51 90/1/48 97/3/52
f 104/2/54 91/1/49 103/2/53
f 91/1/49 104/2/54 92/1/50
f 94/2/10 104/2/10 103/2/10
f 104/2/10 94/2/10 96/2/10
f 100/4/53 86/5/42 83/4/46
f 86/5/42 100/4/53 101/5/49
f 93/5/47 86/5/42 101/5/49
f 86/5/42 93/5/47 79/5/40
f 93/5/47 80/6/44 79/5/40
f 80/6/44 93/5/47 94/6/51
f 80/6/10 103/6/10 88/6/10
f 103/6/10 80/6/10 94/6/10
f 103/6/53 76/5/42 88/6/46
f 76/5/42 103/6/53 91/5/49
f 89/5/47 76/5/42 91/5/49
f 76/5/42 89/5/47 74/5/40
f 89/5/47 81/4/44 74/5/40
f 81/4/44 89/5/47 98/4/51
f 100/4/7 81/4/7 98/4/7
f 81/4/7 100/4/7 83/4/7
f 107/1/57 106/1/56 105/1/55
f 106/1/56 107/1/57 108/1/58
f 111/1/56 110/2/59 109/1/55
f 110/2/59 111/1/56 112/2/60
f 115/3/7 114/3/7 113/3/7
f 114/3/7 115/3/7 116/3/7
f 115/3/62 117/1/57 116/3/61
f 117/1/57 115/3/62 118/1/58
f 117/1/57 111/1/56 109/1/55
f 111/1/56 117/1/57 118/1/58
f 106/1/56 114/3/59 105/1/55
f 114/3/59 106/1/56 113/3/60
f 120/2/62 107/1/57 119/2/61
f 107/1/57 120/2/62 108/1/58
f 110/2/10 120/2/10 119/2/10
f 120/2/10 110/2/10 112/2/10
f 116/4/61 102/5/50 99/4/54
f 102/5/50 116/4/61 117/5/57
f 109/5/55 102/5/50 117/5/57
f 102/5/50 109/5/55 95/5/48
f 109/5/55 96/6/52 95/5/48
f 96/6/52 109/5/55 110/6/59
f 96/6/10 119/6/10 104/6/10
f 119/6/10 96/6/10 110/6/10
f 119/6/61 92/5/50 104/6/54
f 92/5/50 119/6/61 107/5/57
f 105/5/55 92/5/50 107/5/57
f 92/5/50 105/5/55 90/5/48
f 105/5/55 97/4/52 90/5/48
f 97/4/52 105/5/55 114/4/59
f 116/4/7 97/4/7 114/4/7
f 97/4/7 116/4/7 99/4/7
f 123/6/63 122/5/63 121/5/63
f 123/6/63 124/4/63 122/5/63
f 124/4/63 123/6/63 125/4/63
f 126/6/63 125/4/63 123/6/63
f 125/4/63 126/6/63 127/5/63
f 127/5/63 126/6/63 128/5/63
f 131/7/65 130/8/64 129/7/64
f 130/8/64 131/7/65 132/8/65
f 130/8/64 133/7/66 129/7/64
f 133/7/66 130/8/64 134/8/66
f 137/7/7 136/7/7 135/7/7
f 136/7/7 137/7/7 133/7/7
f 133/7/7 137/7/7 129/7/7
f 129/7/7 137/7/7 131/7/7
f 138/7/7 136/7/7 133/7/7
f 138/7/7 139/7/7 136/7/7
f 138/7/7 140/7/7 139/7/7
f 141/7/7 140/7/7 138/7/7
f 142/7/7 140/7/7 141/7/7
f 140/7/7 142/7/7 143/7/7
f 145/8/68 141/7/67 144/8/67
f 141/7/67 145/8/68 142/7/68
f 146/8/69 141/7/67 138/7/69
f 141/7/67 146/8/69 144/8/67
f 147/8/70 142/7/68 145/8/68
f 142/7/68 147/8/70 143/7/70
f 137/7/71 132/8/65 131/7/65
f 132/8/65 137/7/71 148/8/71
f 134/8/66 138/7/69 133/7/66
f 138/7/69 134/8/66 146/8/69
f 140/7/71 149/8/71 139/7/71
f 149/8/71 140/7/71 150/8/71
f 149/8/72 136/7/72 139/7/72
f 136/7/72 149/8/72 151/8/72
f 152/8/70 136/7/70 151/8/70
f 136/7/70 152/8/70 135/7/70
f 148/8/10 130/8/10 132/8/10
f 152/8/10 130/8/10 148/8/10
f 151/8/10 130/8/10 152/8/10
f 151/8/10 134/8/10 130/8/10
f 149/8/10 134/8/10 151/8/10
f 134/8/10 149/8/10 146/8/10
f 150/8/10 146/8/10 149/8/10
f 150/8/10 144/8/10 146/8/10
f 147/8/10 144/8/10 150/8/10
f 144/8/10 147/8/10 145/8/10
f 155/2/73 154/1/73 153/1/73
f 155/2/73 156/3/73 154/1/73
f 156/3/73 155/2/73 157/3/73
f 158/2/73 157/3/73 155/2/73
f 157/3/73 158/2/73 159/1/73
f 159/1/73 158/2/73 160/1/73
f 163/7/75 162/8/74 161/7/74
f 162/8/74 163/7/75 164/8/75
f 162/8/74 165/7/76 161/7/74
f 165/7/76 162/8/74 166/8/76
f 169/7/7 168/7/7 167/7/7
f 168/7/7 169/7/7 165/7/7
f 165/7/7 169/7/7 161/7/7
f 161/7/7 169/7/7 163/7/7
f 170/7/7 168/7/7 165/7/7
f 170/7/7 171/7/7 168/7/7
f 170/7/7 172/7/7 171/7/7
f 173/7/7 172/7/7 170/7/7
f 174/7/7 172/7/7 173/7/7
f 172/7/7 174/7/7 175/7/7
f 177/8/78 173/7/77 176/8/77
f 173/7/77 177/8/78 174/7/78
f 178/8/79 173/7/77 170/7/79
f 173/7/77 178/8/79 176/8/77
f 179/8/80 174/7/78 177/8/78
f 174/7/78 179/8/80 175/7/80
f 169/7/81 164/8/75 163/7/75
f 164/8/75 169/7/81 180/8/81
f 166/8/76 170/7/79 165/7/76
f 170/7/79 166/8/76 178/8/79
f 172/7/81 181/8/81 171/7/81
f 181/8/81 172/7/81 182/8/81
f 181/8/82 168/7/82 171/7/82
f 168/7/82 181/8/82 183/8/82
f 184/8/80 168/7/80 183/8/80
f 168/7/80 184/8/80 167/7/80
f 180/8/10 162/8/10 164/8/10
f 184/8/10 162/8/10 180/8/10
f 183/8/10 162/8/10 184/8/10
f 183/8/10 166/8/10 162/8/10
f 181/8/10 166/8/10 183/8/10
f 166/8/10 181/8/10 178/8/10
f 182/8/10 178/8/10 181/8/10
f 182/8/10 176/8/10 178/8/10
f 179/8/10 176/8/10 182/8/10
f 176/8/10 179/8/10 177/8/10

g track-striped-wide-corner-large




usemtl colormap

f 3/1/3 2/1/2 1/1/1
f 2/1/2 3/1/3 4/1/4
f 7/1/2 6/2/5 5/1/1
f 6/2/5 7/1/2 8/2/6
f 11/3/7 10/3/7 9/3/7
f 10/3/7 11/3/7 12/3/7
f 11/3/9 13/1/3 12/3/8
f 13/1/3 11/3/9 14/1/4
f 13/1/3 7/1/2 5/1/1
f 7/1/2 13/1/3 14/1/4
f 2/1/2 10/3/5 1/1/1
f 10/3/5 2/1/2 9/3/6
f 16/2/9 3/1/3 15/2/8
f 3/1/3 16/2/9 4/1/4
f 6/2/10 16/2/10 15/2/10
f 16/2/10 6/2/10 8/2/10
f 12/4/8 18/5/12 17/4/11
f 18/5/12 12/4/8 13/5/3
f 5/5/1 18/5/12 13/5/3
f 18/5/12 5/5/1 19/5/13
f 5/5/1 20/6/14 19/5/13
f 20/6/14 5/5/1 6/6/5
f 20/6/10 15/6/10 21/6/10
f 15/6/10 20/6/10 6/6/10
f 15/6/8 22/5/12 21/6/11
f 22/5/12 15/6/8 3/5/3
f 1/5/1 22/5/12 3/5/3
f 22/5/12 1/5/1 23/5/13
f 1/5/1 24/4/14 23/5/13
f 24/4/14 1/5/1 10/4/5
f 12/4/7 24/4/7 10/4/7
f 24/4/7 12/4/7 17/4/7
f 27/1/17 26/1/16 25/1/15
f 26/1/16 27/1/17 28/1/18
f 31/1/16 30/2/19 29/1/15
f 30/2/19 31/1/16 32/2/20
f 35/3/7 34/3/7 33/3/7
f 34/3/7 35/3/7 36/3/7
f 35/3/22 37/1/17 36/3/21
f 37/1/17 35/3/22 38/1/18
f 37/1/17 31/1/16 29/1/15
f 31/1/16 37/1/17 38/1/18
f 26/1/16 34/3/19 25/1/15
f 34/3/19 26/1/16 33/3/20
f 40/2/22 27/1/17 39/2/21
f 27/1/17 40/2/22 28/1/18
f 30/2/10 40/2/10 39/2/10
f 40/2/10 30/2/10 32/2/10
f 36/4/21 14/5/4 11/4/9
f 14/5/4 36/4/21 37/5/17
f 29/5/15 14/5/4 37/5/17
f 14/5/4 29/5/15 7/5/2
f 29/5/15 8/6/6 7/5/2
f 8/6/6 29/5/15 30/6/19
f 8/6/10 39/6/10 16/6/10
f 39/6/10 8/6/10 30/6/10
f 39/6/21 4/5/4 16/6/9
f 4/5/4 39/6/21 27/5/17
f 25/5/15 4/5/4 27/5/17
f 4/5/4 25/5/15 2/5/2
f 25/5/15 9/4/6 2/5/2
f 9/4/6 25/5/15 34/4/19
f 36/4/7 9/4/7 34/4/7
f 9/4/7 36/4/7 11/4/7
f 43/1/25 42/1/24 41/1/23
f 42/1/24 43/1/25 44/1/26
f 47/1/24 46/2/27 45/1/23
f 46/2/27 47/1/24 48/2/28
f 51/3/7 50/3/7 49/3/7
f 50/3/7 51/3/7 52/3/7
f 51/3/30 53/1/25 52/3/29
f 53/1/25 51/3/30 54/1/26
f 53/1/25 47/1/24 45/1/23
f 47/1/24 53/1/25 54/1/26
f 42/1/24 50/3/27 41/1/23
f 50/3/27 42/1/24 49/3/28
f 56/2/30 43/1/25 55/2/29
f 43/1/25 56/2/30 44/1/26
f 46/2/10 56/2/10 55/2/10
f 56/2/10 46/2/10 48/2/10
f 52/4/29 38/5/18 35/4/22
f 38/5/18 52/4/29 53/5/25
f 45/5/23 38/5/18 53/5/25
f 38/5/18 45/5/23 31/5/16
f 45/5/23 32/6/20 31/5/16
f 32/6/20 45/5/23 46/6/27
f 32/6/10 55/6/10 40/6/10
f 55/6/10 32/6/10 46/6/10
f 55/6/29 28/5/18 40/6/22
f 28/5/18 55/6/29 43/5/25
f 41/5/23 28/5/18 43/5/25
f 28/5/18 41/5/23 26/5/16
f 41/5/23 33/4/20 26/5/16
f 33/4/20 41/5/23 50/4/27
f 52/4/7 33/4/7 50/4/7
f 33/4/7 52/4/7 35/4/7
f 59/1/33 58/1/32 57/1/31
f 58/1/32 59/1/33 60/1/34
f 63/1/32 62/2/35 61/1/31
f 62/2/35 63/1/32 64/2/36
f 67/3/7 66/3/7 65/3/7
f 66/3/7 67/3/7 68/3/7
f 67/3/38 69/1/33 68/3/37
f 69/1/33 67/3/38 70/1/34
f 69/1/33 63/1/32 61/1/31
f 63/1/32 69/1/33 70/1/34
f 58/1/32 66/3/35 57/1/31
f 66/3/35 58/1/32 65/3/36
f 72/2/38 59/1/33 71/2/37
f 59/1/33 72/2/38 60/1/34
f 62/2/10 72/2/10 71/2/10
f 72/2/10 62/2/10 64/2/10
f 68/4/37 54/5/26 51/4/30
f 54/5/26 68/4/37 69/5/33
f 61/5/31 54/5/26 69/5/33
f 54/5/26 61/5/31 47/5/24
f 61/5/31 48/6/28 47/5/24
f 48/6/28 61/5/31 62/6/35
f 48/6/10 71/6/10 56/6/10
f 71/6/10 48/6/10 62/6/10
f 71/6/37 44/5/26 56/6/30
f 44/5/26 71/6/37 59/5/33
f 57/5/31 44/5/26 59/5/33
f 44/5/26 57/5/31 42/5/24
f 57/5/31 49/4/28 42/5/24
f 49/4/28 57/5/31 66/4/35
f 68/4/7 49/4/7 66/4/7
f 49/4/7 68/4/7 51/4/7
f 75/1/41 74/1/40 73/1/39
f 74/1/40 75/1/41 76/1/42
f 79/1/40 78/2/43 77/1/39
f 78/2/43 79/1/40 80/2/44
f 83/3/7 82/3/7 81/3/7
f 82/3/7 83/3/7 84/3/7
f 83/3/46 85/1/41 84/3/45
f 85/1/41 83/3/46 86/1/42
f 85/1/41 79/1/40 77/1/39
f 79/1/40 85/1/41 86/1/42
f 74/1/40 82/3/43 73/1/39
f 82/3/43 74/1/40 81/3/44
f 88/2/46 75/1/41 87/2/45
f 75/1/41 88/2/46 76/1/42
f 78/2/10 88/2/10 87/2/10
f 88/2/10 78/2/10 80/2/10
f 84/4/45 70/5/34 67/4/38
f 70/5/34 84/4/45 85/5/41
f 77/5/39 70/5/34 85/5/41
f 70/5/34 77/5/39 63/5/32
f 77/5/39 64/6/36 63/5/32
f 64/6/36 77/5/39 78/6/43
f 64/6/10 87/6/10 72/6/10
f 87/6/10 64/6/10 78/6/10
f 87/6/45 60/5/34 72/6/38
f 60/5/34 87/6/45 75/5/41
f 73/5/39 60/5/34 75/5/41
f 60/5/34 73/5/39 58/5/32
f 73/5/39 65/4/36 58/5/32
f 65/4/36 73/5/39 82/4/43
f 84/4/7 65/4/7 82/4/7
f 65/4/7 84/4/7 67/4/7
f 91/1/49 90/1/48 89/1/47
f 90/1/48 91/1/49 92/1/50
f 95/1/48 94/2/51 93/1/47
f 94/2/51 95/1/48 96/2/52
f 99/3/7 98/3/7 97/3/7
f 98/3/7 99/3/7 100/3/7
f 99/3/54 101/1/49 100/3/53
f 101/1/49 99/3/54 102/1/50
f 101/1/49 95/1/48 93/1/47
f 95/1/48 101/1/49 102/1/50
f 90/1/48 98/3/51 89/1/47
f 98/3/51 90/1/48 97/3/52
f 104/2/54 91/1/49 103/2/53
f 91/1/49 104/2/54 92/1/50
f 94/2/10 104/2/10 103/2/10
f 104/2/10 94/2/10 96/2/10
f 100/4/53 86/5/42 83/4/46
f 86/5/42 100/4/53 101/5/49
f 93/5/47 86/5/42 101/5/49
f 86/5/42 93/5/47 79/5/40
f 93/5/47 80/6/44 79/5/40
f 80/6/44 93/5/47 94/6/51
f 80/6/10 103/6/10 88/6/10
f 103/6/10 80/6/10 94/6/10
f 103/6/53 76/5/42 88/6/46
f 76/5/42 103/6/53 91/5/49
f 89/5/47 76/5/42 91/5/49
f 76/5/42 89/5/47 74/5/40
f 89/5/47 81/4/44 74/5/40
f 81/4/44 89/5/47 98/4/51
f 100/4/7 81/4/7 98/4/7
f 81/4/7 100/4/7 83/4/7
f 107/1/57 106/1/56 105/1/55
f 106/1/56 107/1/57 108/1/58
f 111/1/56 110/2/59 109/1/55
f 110/2/59 111/1/56 112/2/60
f 115/3/7 114/3/7 113/3/7
f 114/3/7 115/3/7 116/3/7
f 115/3/62 117/1/57 116/3/61
f 117/1/57 115/3/62 118/1/58
f 117/1/57 111/1/56 109/1/55
f 111/1/56 117/1/57 118/1/58
f 106/1/56 114/3/59 105/1/55
f 114/3/59 106/1/56 113/3/60
f 120/2/62 107/1/57 119/2/61
f 107/1/57 120/2/62 108/1/58
f 110/2/10 120/2/10 119/2/10
f 120/2/10 110/2/10 112/2/10
f 116/4/61 102/5/50 99/4/54
f 102/5/50 116/4/61 117/5/57
f 109/5/55 102/5/50 117/5/57
f 102/5/50 109/5/55 95/5/48
f 109/5/55 96/6/52 95/5/48
f 96/6/52 109/5/55 110/6/59
f 96/6/10 119/6/10 104/6/10
f 119/6/10 96/6/10 110/6/10
f 119/6/61 92/5/50 104/6/54
f 92/5/50 119/6/61 107/5/57
f 105/5/55 92/5/50 107/5/57
f 92/5/50 105/5/55 90/5/48
f 105/5/55 97/4/52 90/5/48
f 97/4/52 105/5/55 114/4/59
f 116/4/7 97/4/7 114/4/7
f 97/4/7 116/4/7 99/4/7
f 123/6/63 122/5/63 121/5/63
f 123/6/63 124/4/63 122/5/63
f 124/4/63 123/6/63 125/4/63
f 126/6/63 125/4/63 123/6/63
f 125/4/63 126/6/63 127/5/63
f 127/5/63 126/6/63 128/5/63
f 131/7/65 130/8/64 129/7/64
f 130/8/64 131/7/65 132/8/65
f 130/8/64 133/7/66 129/7/64
f 133/7/66 130/8/64 134/8/66
f 137/7/7 136/7/7 135/7/7
f 136/7/7 137/7/7 133/7/7
f 133/7/7 137/7/7 129/7/7
f 129/7/7 137/7/7 131/7/7
f 138/7/7 136/7/7 133/7/7
f 138/7/7 139/7/7 136/7/7
f 138/7/7 140/7/7 139/7/7
f 141/7/7 140/7/7 138/7/7
f 142/7/7 140/7/7 141/7/7
f 140/7/7 142/7/7 143/7/7
f 145/8/68 141/7/67 144/8/67
f 141/7/67 145/8/68 142/7/68
f 146/8/69 141/7/67 138/7/69
f 141/7/67 146/8/69 144/8/67
f 147/8/70 142/7/68 145/8/68
f 142/7/68 147/8/70 143/7/70
f 137/7/71 132/8/65 131/7/65
f 132/8/65 137/7/71 148/8/71
f 134/8/66 138/7/69 133/7/66
f 138/7/69 134/8/66 146/8/69
f 140/7/71 149/8/71 139/7/71
f 149/8/71 140/7/71 150/8/71
f 149/8/72 136/7/72 139/7/72
f 136/7/72 149/8/72 151/8/72
f 152/8/70 136/7/70 151/8/70
f 136/7/70 152/8/70 135/7/70
f 148/8/10 130/8/10 132/8/10
f 152/8/10 130/8/10 148/8/10
f 151/8/10 130/8/10 152/8/10
f 151/8/10 134/8/10 130/8/10
f 149/8/10 134/8/10 151/8/10
f 134/8/10 149/8/10 146/8/10
f 150/8/10 146/8/10 149/8/10
f 150/8/10 144/8/10 146/8/10
f 147/8/10 144/8/10 150/8/10
f 144/8/10 147/8/10 145/8/10
f 155/2/73 154/1/73 153/1/73
f 155/2/73 156/3/73 154/1/73
f 156/3/73 155/2/73 157/3/73
f 158/2/73 157/3/73 155/2/73
f 157/3/73 158/2/73 159/1/73
f 159/1/73 158/2/73 160/1/73
f 163/7/75 162/8/74 161/7/74
f 162/8/74 163/7/75 164/8/75
f 162/8/74 165/7/76 161/7/74
f 165/7/76 162/8/74 166/8/76
f 169/7/7 168/7/7 167/7/7
f 168/7/7 169/7/7 165/7/7
f 165/7/7 169/7/7 161/7/7
f 161/7/7 169/7/7 163/7/7
f 170/7/7 168/7/7 165/7/7
f 170/7/7 171/7/7 168/7/7
f 170/7/7 172/7/7 171/7/7
f 173/7/7 172/7/7 170/7/7
f 174/7/7 172/7/7 173/7/7
f 172/7/7 174/7/7 175/7/7
f 177/8/78 173/7/77 176/8/77
f 173/7/77 177/8/78 174/7/78
f 178/8/79 173/7/77 170/7/79
f 173/7/77 178/8/79 176/8/77
f 179/8/80 174/7/78 177/8/78
f 174/7/78 179/8/80 175/7/80
f 169/7/81 164/8/75 163/7/75
f 164/8/75 169/7/81 180/8/81
f 166/8/76 170/7/79 165/7/76
f 170/7/79 166/8/76 178/8/79
f 172/7/81 181/8/81 171/7/81
f 181/8/81 172/7/81 182/8/81
f 181/8/82 168/7/82 171/7/82
f 168/7/82 181/8/82 183/8/82
f 184/8/80 168/7/80 183/8/80
f 168/7/80 184/8/80 167/7/80
f 180/8/10 162/8/10 164/8/10
f 184/8/10 162/8/10 180/8/10
f 183/8/10 162/8/10 184/8/10
f 183/8/10 166/8/10 162/8/10
f 181/8/10 166/8/10 183/8/10
f 166/8/10 181/8/10 178/8/10
f 182/8/10 178/8/10 181/8/10
f 182/8/10 176/8/10 178/8/10
f 179/8/10 176/8/10 182/8/10
f 176/8/10 179/8/10 177/8/10

