# Created by Kenney (www.kenney.nl)

mtllib track-striped-wide-straight-bend.mtl

g track-striped-wide-straight-bend

v 0.9999866 0.3388628 0.3120705 1 1 1
v 0.9999733 0.4489522 0.6183929 1 1 1
v 0.8999863 0.3388585 0.3120716 1 1 1
v 0.8999739 0.4489441 0.6183968 1 1 1
v -0.900013 0.3387809 0.3120905 1 1 1
v -0.9000044 0.1445034 0.3595906 1 1 1
v -0.9000263 0.448801 0.6184647 1 1 1
v -0.9000092 0.2681524 0.7042903 1 1 1
v 1 0.177979 0.7471313 1 1 1
v 1 0.04744661 0.3833206 1 1 1
v -1 0.1778201 0.7472069 1 1 1
v -1 0.0473603 0.3833417 1 1 1
v -1.000013 0.3387765 0.3120916 1 1 1
v -1.000027 0.4487932 0.6184685 1 1 1
v 0.8999958 0.144581 0.3595716 1 1 1
v 0.899991 0.2682954 0.7042223 1 1 1
v -1 0 3.099442E-06 1 1 1
v -1 0.3 2.503395E-06 1 1 1
v -0.8999996 0.3 2.503395E-06 1 1 1
v -0.8999996 0.1 2.861023E-06 1 1 1
v 0.8999996 0.1 2.861023E-06 1 1 1
v 0.8999996 0.3 2.503395E-06 1 1 1
v 1 0.3 2.503395E-06 1 1 1
v 1 0 3.099442E-06 1 1 1
v 0.9999609 0.6188231 0.905479 1 1 1
v 0.9999485 0.8372543 1.162746 1 1 1
v 0.8999605 0.6188123 0.9054866 1 1 1
v 0.8999481 0.837242 1.162758 1 1 1
v -0.9000387 0.6186211 0.9056234 1 1 1
v -0.900013 0.4559618 1.021993 1 1 1
v -0.9000521 0.8370221 1.162978 1 1 1
v -0.9000168 0.6956007 1.304399 1 1 1
v 1 0.6251222 1.374878 1 1 1
v 1 0.3748341 1.080034 1 1 1
v -1 0.6248778 1.375122 1 1 1
v -1 0.3746216 1.080186 1 1 1
v -1.000039 0.6186104 0.905631 1 1 1
v -1.000051 0.8370099 1.16299 1 1 1
v 0.8999872 0.4561532 1.021857 1 1 1
v 0.8999825 0.6958206 1.304179 1 1 1
v 0.9999352 1.09457 1.381108 1 1 1
v 0.9999228 1.38168 1.550894 1 1 1
v 0.8999357 1.094557 1.381126 1 1 1
v 0.8999224 1.381669 1.550918 1 1 1
v -0.9000645 1.094332 1.38144 1 1 1
v -0.9000216 0.9779623 1.5441 1 1 1
v -0.9000769 1.38147 1.551337 1 1 1
v -0.9000254 1.295644 1.731985 1 1 1
v 1 1.252941 1.821867 1 1 1
v 1 0.9200149 1.625097 1 1 1
v -1 1.25272 1.822333 1 1 1
v -1 0.9197648 1.625447 1 1 1
v -1.000065 1.09432 1.381458 1 1 1
v -1.000077 1.381459 1.55136 1 1 1
v 0.8999786 0.9781873 1.543785 1 1 1
v 0.8999739 1.295843 1.731566 1 1 1
v 0.9999094 1.687991 1.660888 1 1 1
v 1 1.999998 1.7 1 1 1
v 0.89991 1.687984 1.660917 1 1 1
v 0.8999996 1.999998 1.7 1 1 1
v -0.9000902 1.687855 1.661444 1 1 1
v -0.9000301 1.640354 1.855721 1 1 1
v -0.8999996 1.999998 1.7 1 1 1
v -0.8999996 1.999997 1.9 1 1 1
v 1 1.999997 2 1 1 1
v 1 1.61674 1.952304 1 1 1
v -1 1.999997 2 1 1 1
v -1 1.616597 1.952889 1 1 1
v -1.000091 1.687847 1.661473 1 1 1
v -1 1.999998 1.7 1 1 1
v 0.8999701 1.640483 1.855194 1 1 1
v 0.8999996 1.999997 1.9 1 1 1
v -0.9 0.3 0 1 1 1
v -1 0.3 0 1 1 1
v -0.9 0.1 0 1 1 1
v -1 0 0 1 1 1
v 1 0 0 1 1 1
v 0.9 0.1 0 1 1 1
v 1 0.3 0 1 1 1
v 0.9 0.3 0 1 1 1
v -0.1207107 0 -0.1707107 1 1 1
v -0.1207107 0.05000001 -0.1707107 1 1 1
v -0.15 0 -0.1 1 1 1
v -0.15 0.05000001 -0.1 1 1 1
v -0.05 0 -0.2 1 1 1
v -0.05 0.05000001 -0.2 1 1 1
v -0.05 0 7.219114E-16 1 1 1
v -0.05 0 -0.1 1 1 1
v -0.15 0 1.082867E-15 1 1 1
v 0.05 0 -0.2 1 1 1
v 0.05 0 -0.1 1 1 1
v 0.05 0 3.609557E-16 1 1 1
v 0.1207107 0 -0.1707107 1 1 1
v 0.15 0 -0.1 1 1 1
v 0.15 0 0 1 1 1
v 0.1207107 0.05000001 -0.1707107 1 1 1
v 0.15 0.05000001 -0.1 1 1 1
v 0.05 0.05000001 -0.2 1 1 1
v 0.15 0.05000001 0 1 1 1
v -0.15 0.05000001 1.082867E-15 1 1 1
v 0.05 0.05000001 -0.1 1 1 1
v 0.05 0.05000001 3.609557E-16 1 1 1
v -0.05 0.05000001 -0.1 1 1 1
v -0.05 0.05000001 7.219114E-16 1 1 1
v 0.9 2 1.7 1 1 1
v 1 2 1.7 1 1 1
v 0.9 2 1.9 1 1 1
v 1 2 2 1 1 1
v -1 2 2 1 1 1
v -0.9 2 1.9 1 1 1
v -1 2 1.7 1 1 1
v -0.9 2 1.7 1 1 1
v 0.1207107 2.170711 2 1 1 1
v 0.1207107 2.170711 1.95 1 1 1
v 0.15 2.1 2 1 1 1
v 0.15 2.1 1.95 1 1 1
v 0.05 2.2 2 1 1 1
v 0.05 2.2 1.95 1 1 1
v 0.05 2 2 1 1 1
v 0.05 2.1 2 1 1 1
v 0.15 2 2 1 1 1
v -0.05 2.2 2 1 1 1
v -0.05 2.1 2 1 1 1
v -0.05 2 2 1 1 1
v -0.1207107 2.170711 2 1 1 1
v -0.15 2.1 2 1 1 1
v -0.15 2 2 1 1 1
v -0.1207107 2.170711 1.95 1 1 1
v -0.15 2.1 1.95 1 1 1
v -0.05 2.2 1.95 1 1 1
v -0.15 2 1.95 1 1 1
v 0.15 2 1.95 1 1 1
v -0.05 2.1 1.95 1 1 1
v -0.05 2 1.95 1 1 1
v 0.05 2.1 1.95 1 1 1
v 0.05 2 1.95 1 1 1

vn 0.7070754 0.6869051 -0.1679457
vn 0.7070445 0.6387459 -0.3034661
vn -0.7071382 0.6868441 -0.1679308
vn -0.7071689 0.6386335 -0.3034126
vn 1 4.313952E-05 -1.054745E-05
vn 1 7.948744E-05 -3.776422E-05
vn 8.800222E-05 -0.9032437 0.429128
vn 4.441022E-05 -0.9713874 0.2375005
vn -1 -4.313952E-05 1.054745E-05
vn -1 -7.948744E-05 3.776422E-05
vn -4.441022E-05 0.9713874 -0.2375005
vn -8.800222E-05 0.9032437 -0.429128
vn -1 -3.571274E-10 7.372964E-16
vn -0.7071068 0.7071068 -1.459836E-06
vn 0.7071068 0.7071068 -1.459836E-06
vn 1 3.571274E-10 -7.372964E-16
vn -3.571274E-10 1 -2.064519E-06
vn 3.571274E-10 -1 2.064519E-06
vn 0.7070144 0.5751624 -0.4114838
vn 0.7069846 0.5000864 -0.5000864
vn -0.7071992 0.5750121 -0.4113762
vn -0.707229 0.4999136 -0.4999135
vn 1 0.0001062555 -7.601754E-05
vn 1 0.0001221911 -0.0001221912
vn 0.0001728044 -0.7071067 0.7071068
vn 0.000130648 -0.8132962 0.5818499
vn -1 -0.0001062555 7.601754E-05
vn -1 -0.0001221911 0.0001221912
vn -0.000130648 0.8132962 -0.5818499
vn -0.0001728044 0.7071067 -0.7071068
vn 0.7069548 0.4115184 -0.5752109
vn 0.7069245 0.3035177 -0.6388542
vn -0.7072588 0.4113415 -0.5749637
vn -0.707289 0.3033612 -0.638525
vn 1 0.0001250658 -0.0001748141
vn 0.9999999 0.0001105936 -0.0002327812
vn 0.0002577169 -0.4291282 0.9032435
vn 0.0002149452 -0.5818498 0.8132963
vn -1 -0.0001250658 0.0001748141
vn -0.9999999 -0.0001105936 0.0002327812
vn -0.0002149452 0.5818498 -0.8132963
vn -0.0002577169 0.4291282 -0.9032435
vn 0.7068937 0.1679891 -0.6870814
vn 0.7071068 1.66893E-06 -0.7071067
vn -0.7073197 0.167888 -0.6866675
vn -0.7071068 1.66893E-06 -0.7071067
vn 0.9999999 7.154734E-05 -0.0002926313
vn 1 2.575717E-14 -1.136924E-08
vn 1.136924E-08 -2.384186E-06 0.9999999
vn 0.0003012509 -0.237501 0.9713871
vn -0.9999999 -7.154734E-05 0.0002926313
vn -1 -2.575717E-14 1.136924E-08
vn -0.0003012509 0.237501 -0.9713871
vn -1.136924E-08 2.384186E-06 -0.9999999
vn 0 0 -1
vn -0.7071068 0 -0.7071068
vn -0.9807853 0 -0.1950903
vn -0.1950903 0 -0.9807853
vn 0 -1 0
vn 0.7071068 0 -0.7071068
vn 0.9807853 0 -0.1950903
vn 0.1950903 0 -0.9807853
vn 1 0 0
vn -1 0 0
vn 0 0 1
vn 0 1 0
vn 1.110223E-16 0.9999999 3.576279E-07
vn 0.7071068 0.7071067 2.517829E-07
vn 0.9807853 0.1950903 6.824651E-08
vn 0.1950903 0.9807852 3.504531E-07
vn 1.553066E-09 -3.576279E-07 0.9999999
vn -0.7071068 0.7071067 2.539793E-07
vn -0.9807853 0.1950903 7.129297E-08
vn -0.1950903 0.9807852 3.510591E-07
vn -1 2.775557E-16 1.553066E-09
vn 1 -2.775557E-16 -1.553066E-09
vn -8.326673E-16 -0.9999999 -3.576279E-07
vn -1.553066E-09 3.576279E-07 -0.9999999

vt 0.59375 0.475
vt 0.59375 0.3416667
vt 0.59375 0.275
vt 0.59375 0.025
vt 0.59375 0.225
vt 0.59375 0.09166666
vt 0.34375 0.025
vt 0.34375 0.225

usemtl colormap

f 3/1/3 2/1/2 1/1/1
f 2/1/2 3/1/3 4/1/4
f 7/1/2 6/2/5 5/1/1
f 6/2/5 7/1/2 8/2/6
f 11/3/7 10/3/8 9/3/7
f 10/3/8 11/3/7 12/3/8
f 11/3/10 13/1/3 12/3/9
f 13/1/3 11/3/10 14/1/4
f 13/1/3 7/1/2 5/1/1
f 7/1/2 13/1/3 14/1/4
f 2/1/2 10/3/5 1/1/1
f 10/3/5 2/1/2 9/3/6
f 16/2/10 3/1/3 15/2/9
f 3/1/3 16/2/10 4/1/4
f 6/2/11 16/2/12 15/2/11
f 16/2/12 6/2/11 8/2/12
f 12/4/9 18/5/14 17/4/13
f 18/5/14 12/4/9 13/5/3
f 5/5/1 18/5/14 13/5/3
f 18/5/14 5/5/1 19/5/15
f 5/5/1 20/6/16 19/5/15
f 20/6/16 5/5/1 6/6/5
f 20/6/17 15/6/11 21/6/17
f 15/6/11 20/6/17 6/6/11
f 15/6/9 22/5/14 21/6/13
f 22/5/14 15/6/9 3/5/3
f 1/5/1 22/5/14 3/5/3
f 22/5/14 1/5/1 23/5/15
f 1/5/1 24/4/16 23/5/15
f 24/4/16 1/5/1 10/4/5
f 12/4/8 24/4/18 10/4/8
f 24/4/18 12/4/8 17/4/18
f 27/1/21 26/1/20 25/1/19
f 26/1/20 27/1/21 28/1/22
f 31/1/20 30/2/23 29/1/19
f 30/2/23 31/1/20 32/2/24
f 35/3/25 34/3/26 33/3/25
f 34/3/26 35/3/25 36/3/26
f 35/3/28 37/1/21 36/3/27
f 37/1/21 35/3/28 38/1/22
f 37/1/21 31/1/20 29/1/19
f 31/1/20 37/1/21 38/1/22
f 26/1/20 34/3/23 25/1/19
f 34/3/23 26/1/20 33/3/24
f 40/2/28 27/1/21 39/2/27
f 27/1/21 40/2/28 28/1/22
f 30/2/29 40/2/30 39/2/29
f 40/2/30 30/2/29 32/2/30
f 36/4/27 14/5/4 11/4/10
f 14/5/4 36/4/27 37/5/21
f 29/5/19 14/5/4 37/5/21
f 14/5/4 29/5/19 7/5/2
f 29/5/19 8/6/6 7/5/2
f 8/6/6 29/5/19 30/6/23
f 8/6/12 39/6/29 16/6/12
f 39/6/29 8/6/12 30/6/29
f 39/6/27 4/5/4 16/6/10
f 4/5/4 39/6/27 27/5/21
f 25/5/19 4/5/4 27/5/21
f 4/5/4 25/5/19 2/5/2
f 25/5/19 9/4/6 2/5/2
f 9/4/6 25/5/19 34/4/23
f 36/4/26 9/4/7 34/4/26
f 9/4/7 36/4/26 11/4/7
f 43/1/33 42/1/32 41/1/31
f 42/1/32 43/1/33 44/1/34
f 47/1/32 46/2/35 45/1/31
f 46/2/35 47/1/32 48/2/36
f 51/3/37 50/3/38 49/3/37
f 50/3/38 51/3/37 52/3/38
f 51/3/40 53/1/33 52/3/39
f 53/1/33 51/3/40 54/1/34
f 53/1/33 47/1/32 45/1/31
f 47/1/32 53/1/33 54/1/34
f 42/1/32 50/3/35 41/1/31
f 50/3/35 42/1/32 49/3/36
f 56/2/40 43/1/33 55/2/39
f 43/1/33 56/2/40 44/1/34
f 46/2/41 56/2/42 55/2/41
f 56/2/42 46/2/41 48/2/42
f 52/4/39 38/5/22 35/4/28
f 38/5/22 52/4/39 53/5/33
f 45/5/31 38/5/22 53/5/33
f 38/5/22 45/5/31 31/5/20
f 45/5/31 32/6/24 31/5/20
f 32/6/24 45/5/31 46/6/35
f 32/6/30 55/6/41 40/6/30
f 55/6/41 32/6/30 46/6/41
f 55/6/39 28/5/22 40/6/28
f 28/5/22 55/6/39 43/5/33
f 41/5/31 28/5/22 43/5/33
f 28/5/22 41/5/31 26/5/20
f 41/5/31 33/4/24 26/5/20
f 33/4/24 41/5/31 50/4/35
f 52/4/38 33/4/25 50/4/38
f 33/4/25 52/4/38 35/4/25
f 59/1/45 58/1/44 57/1/43
f 58/1/44 59/1/45 60/1/46
f 63/1/44 62/2/47 61/1/43
f 62/2/47 63/1/44 64/2/48
f 67/3/49 66/3/50 65/3/49
f 66/3/50 67/3/49 68/3/50
f 67/3/52 69/1/45 68/3/51
f 69/1/45 67/3/52 70/1/46
f 69/1/45 63/1/44 61/1/43
f 63/1/44 69/1/45 70/1/46
f 58/1/44 66/3/47 57/1/43
f 66/3/47 58/1/44 65/3/48
f 72/2/52 59/1/45 71/2/51
f 59/1/45 72/2/52 60/1/46
f 62/2/53 72/2/54 71/2/53
f 72/2/54 62/2/53 64/2/54
f 68/4/51 54/5/34 51/4/40
f 54/5/34 68/4/51 69/5/45
f 61/5/43 54/5/34 69/5/45
f 54/5/34 61/5/43 47/5/32
f 61/5/43 48/6/36 47/5/32
f 48/6/36 61/5/43 62/6/47
f 48/6/42 71/6/53 56/6/42
f 71/6/53 48/6/42 62/6/53
f 71/6/51 44/5/34 56/6/40
f 44/5/34 71/6/51 59/5/45
f 57/5/43 44/5/34 59/5/45
f 44/5/34 57/5/43 42/5/32
f 57/5/43 49/4/36 42/5/32
f 49/4/36 57/5/43 66/4/47
f 68/4/50 49/4/37 66/4/50
f 49/4/37 68/4/50 51/4/37
f 75/6/55 74/5/55 73/5/55
f 75/6/55 76/4/55 74/5/55
f 76/4/55 75/6/55 77/4/55
f 78/6/55 77/4/55 75/6/55
f 77/4/55 78/6/55 79/5/55
f 79/5/55 78/6/55 80/5/55
f 83/7/57 82/8/56 81/7/56
f 82/8/56 83/7/57 84/8/57
f 82/8/56 85/7/58 81/7/56
f 85/7/58 82/8/56 86/8/58
f 89/7/59 88/7/59 87/7/59
f 88/7/59 89/7/59 85/7/59
f 85/7/59 89/7/59 81/7/59
f 81/7/59 89/7/59 83/7/59
f 90/7/59 88/7/59 85/7/59
f 90/7/59 91/7/59 88/7/59
f 90/7/59 92/7/59 91/7/59
f 93/7/59 92/7/59 90/7/59
f 94/7/59 92/7/59 93/7/59
f 92/7/59 94/7/59 95/7/59
f 97/8/61 93/7/60 96/8/60
f 93/7/60 97/8/61 94/7/61
f 98/8/62 93/7/60 90/7/62
f 93/7/60 98/8/62 96/8/60
f 99/8/63 94/7/61 97/8/61
f 94/7/61 99/8/63 95/7/63
f 89/7/64 84/8/57 83/7/57
f 84/8/57 89/7/64 100/8/64
f 86/8/58 90/7/62 85/7/58
f 90/7/62 86/8/58 98/8/62
f 92/7/64 101/8/64 91/7/64
f 101/8/64 92/7/64 102/8/64
f 101/8/65 88/7/65 91/7/65
f 88/7/65 101/8/65 103/8/65
f 104/8/63 88/7/63 103/8/63
f 88/7/63 104/8/63 87/7/63
f 100/8/66 82/8/66 84/8/66
f 104/8/66 82/8/66 100/8/66
f 103/8/66 82/8/66 104/8/66
f 103/8/66 86/8/66 82/8/66
f 101/8/66 86/8/66 103/8/66
f 86/8/66 101/8/66 98/8/66
f 102/8/66 98/8/66 101/8/66
f 102/8/66 96/8/66 98/8/66
f 99/8/66 96/8/66 102/8/66
f 96/8/66 99/8/66 97/8/66
f 107/2/67 106/1/67 105/1/67
f 107/2/67 108/3/67 106/1/67
f 108/3/67 107/2/67 109/3/67
f 110/2/67 109/3/67 107/2/67
f 109/3/67 110/2/67 111/1/67
f 111/1/67 110/2/67 112/1/67
f 115/7/69 114/8/68 113/7/68
f 114/8/68 115/7/69 116/8/69
f 114/8/68 117/7/70 113/7/68
f 117/7/70 114/8/68 118/8/70
f 121/7/71 120/7/71 119/7/71
f 120/7/71 121/7/71 117/7/71
f 117/7/71 121/7/71 113/7/71
f 113/7/71 121/7/71 115/7/71
f 122/7/71 120/7/71 117/7/71
f 122/7/71 123/7/71 120/7/71
f 122/7/71 124/7/71 123/7/71
f 125/7/71 124/7/71 122/7/71
f 126/7/71 124/7/71 125/7/71
f 124/7/71 126/7/71 127/7/71
f 129/8/73 125/7/72 128/8/72
f 125/7/72 129/8/73 126/7/73
f 130/8/74 125/7/72 122/7/74
f 125/7/72 130/8/74 128/8/72
f 131/8/75 126/7/73 129/8/73
f 126/7/73 131/8/75 127/7/75
f 121/7/76 116/8/69 115/7/69
f 116/8/69 121/7/76 132/8/76
f 118/8/70 122/7/74 117/7/70
f 122/7/74 118/8/70 130/8/74
f 124/7/76 133/8/76 123/7/76
f 133/8/76 124/7/76 134/8/76
f 133/8/77 120/7/77 123/7/77
f 120/7/77 133/8/77 135/8/77
f 136/8/75 120/7/75 135/8/75
f 120/7/75 136/8/75 119/7/75
f 132/8/78 114/8/78 116/8/78
f 136/8/78 114/8/78 132/8/78
f 135/8/78 114/8/78 136/8/78
f 135/8/78 118/8/78 114/8/78
f 133/8/78 118/8/78 135/8/78
f 118/8/78 133/8/78 130/8/78
f 134/8/78 130/8/78 133/8/78
f 134/8/78 128/8/78 130/8/78
f 131/8/78 128/8/78 134/8/78
f 128/8/78 131/8/78 129/8/78

g track-striped-wide-straight-bend




usemtl colormap

f 3/1/3 2/1/2 1/1/1
f 2/1/2 3/1/3 4/1/4
f 7/1/2 6/2/5 5/1/1
f 6/2/5 7/1/2 8/2/6
f 11/3/7 10/3/8 9/3/7
f 10/3/8 11/3/7 12/3/8
f 11/3/10 13/1/3 12/3/9
f 13/1/3 11/3/10 14/1/4
f 13/1/3 7/1/2 5/1/1
f 7/1/2 13/1/3 14/1/4
f 2/1/2 10/3/5 1/1/1
f 10/3/5 2/1/2 9/3/6
f 16/2/10 3/1/3 15/2/9
f 3/1/3 16/2/10 4/1/4
f 6/2/11 16/2/12 15/2/11
f 16/2/12 6/2/11 8/2/12
f 12/4/9 18/5/14 17/4/13
f 18/5/14 12/4/9 13/5/3
f 5/5/1 18/5/14 13/5/3
f 18/5/14 5/5/1 19/5/15
f 5/5/1 20/6/16 19/5/15
f 20/6/16 5/5/1 6/6/5
f 20/6/17 15/6/11 21/6/17
f 15/6/11 20/6/17 6/6/11
f 15/6/9 22/5/14 21/6/13
f 22/5/14 15/6/9 3/5/3
f 1/5/1 22/5/14 3/5/3
f 22/5/14 1/5/1 23/5/15
f 1/5/1 24/4/16 23/5/15
f 24/4/16 1/5/1 10/4/5
f 12/4/8 24/4/18 10/4/8
f 24/4/18 12/4/8 17/4/18
f 27/1/21 26/1/20 25/1/19
f 26/1/20 27/1/21 28/1/22
f 31/1/20 30/2/23 29/1/19
f 30/2/23 31/1/20 32/2/24
f 35/3/25 34/3/26 33/3/25
f 34/3/26 35/3/25 36/3/26
f 35/3/28 37/1/21 36/3/27
f 37/1/21 35/3/28 38/1/22
f 37/1/21 31/1/20 29/1/19
f 31/1/20 37/1/21 38/1/22
f 26/1/20 34/3/23 25/1/19
f 34/3/23 26/1/20 33/3/24
f 40/2/28 27/1/21 39/2/27
f 27/1/21 40/2/28 28/1/22
f 30/2/29 40/2/30 39/2/29
f 40/2/30 30/2/29 32/2/30
f 36/4/27 14/5/4 11/4/10
f 14/5/4 36/4/27 37/5/21
f 29/5/19 14/5/4 37/5/21
f 14/5/4 29/5/19 7/5/2
f 29/5/19 8/6/6 7/5/2
f 8/6/6 29/5/19 30/6/23
f 8/6/12 39/6/29 16/6/12
f 39/6/29 8/6/12 30/6/29
f 39/6/27 4/5/4 16/6/10
f 4/5/4 39/6/27 27/5/21
f 25/5/19 4/5/4 27/5/21
f 4/5/4 25/5/19 2/5/2
f 25/5/19 9/4/6 2/5/2
f 9/4/6 25/5/19 34/4/23
f 36/4/26 9/4/7 34/4/26
f 9/4/7 36/4/26 11/4/7
f 43/1/33 42/1/32 41/1/31
f 42/1/32 43/1/33 44/1/34
f 47/1/32 46/2/35 45/1/31
f 46/2/35 47/1/32 48/2/36
f 51/3/37 50/3/38 49/3/37
f 50/3/38 51/3/37 52/3/38
f 51/3/40 53/1/33 52/3/39
f 53/1/33 51/3/40 54/1/34
f 53/1/33 47/1/32 45/1/31
f 47/1/32 53/1/33 54/1/34
f 42/1/32 50/3/35 41/1/31
f 50/3/35 42/1/32 49/3/36
f 56/2/40 43/1/33 55/2/39
f 43/1/33 56/2/40 44/1/34
f 46/2/41 56/2/42 55/2/41
f 56/2/42 46/2/41 48/2/42
f 52/4/39 38/5/22 35/4/28
f 38/5/22 52/4/39 53/5/33
f 45/5/31 38/5/22 53/5/33
f 38/5/22 45/5/31 31/5/20
f 45/5/31 32/6/24 31/5/20
f 32/6/24 45/5/31 46/6/35
f 32/6/30 55/6/41 40/6/30
f 55/6/41 32/6/30 46/6/41
f 55/6/39 28/5/22 40/6/28
f 28/5/22 55/6/39 43/5/33
f 41/5/31 28/5/22 43/5/33
f 28/5/22 41/5/31 26/5/20
f 41/5/31 33/4/24 26/5/20
f 33/4/24 41/5/31 50/4/35
f 52/4/38 33/4/25 50/4/38
f 33/4/25 52/4/38 35/4/25
f 59/1/45 58/1/44 57/1/43
f 58/1/44 59/1/45 60/1/46
f 63/1/44 62/2/47 61/1/43
f 62/2/47 63/1/44 64/2/48
f 67/3/49 66/3/50 65/3/49
f 66/3/50 67/3/49 68/3/50
f 67/3/52 69/1/45 68/3/51
f 69/1/45 67/3/52 70/1/46
f 69/1/45 63/1/44 61/1/43
f 63/1/44 69/1/45 70/1/46
f 58/1/44 66/3/47 57/1/43
f 66/3/47 58/1/44 65/3/48
f 72/2/52 59/1/45 71/2/51
f 59/1/45 72/2/52 60/1/46
f 62/2/53 72/2/54 71/2/53
f 72/2/54 62/2/53 64/2/54
f 68/4/51 54/5/34 51/4/40
f 54/5/34 68/4/51 69/5/45
f 61/5/43 54/5/34 69/5/45
f 54/5/34 61/5/43 47/5/32
f 61/5/43 48/6/36 47/5/32
f 48/6/36 61/5/43 62/6/47
f 48/6/42 71/6/53 56/6/42
f 71/6/53 48/6/42 62/6/53
f 71/6/51 44/5/34 56/6/40
f 44/5/34 71/6/51 59/5/45
f 57/5/43 44/5/34 59/5/45
f 44/5/34 57/5/43 42/5/32
f 57/5/43 49/4/36 42/5/32
f 49/4/36 57/5/43 66/4/47
f 68/4/50 49/4/37 66/4/50
f 49/4/37 68/4/50 51/4/37
f 75/6/55 74/5/55 73/5/55
f 75/6/55 76/4/55 74/5/55
f 76/4/55 75/6/55 77/4/55
f 78/6/55 77/4/55 75/6/55
f 77/4/55 78/6/55 79/5/55
f 79/5/55 78/6/55 80/5/55
f 83/7/57 82/8/56 81/7/56
f 82/8/56 83/7/57 84/8/57
f 82/8/56 85/7/58 81/7/56
f 85/7/58 82/8/56 86/8/58
f 89/7/59 88/7/59 87/7/59
f 88/7/59 89/7/59 85/7/59
f 85/7/59 89/7/59 81/7/59
f 81/7/59 89/7/59 83/7/59
f 90/7/59 88/7/59 85/7/59
f 90/7/59 91/7/59 88/7/59
f 90/7/59 92/7/59 91/7/59
f 93/7/59 92/7/59 90/7/59
f 94/7/59 92/7/59 93/7/59
f 92/7/59 94/7/59 95/7/59
f 97/8/61 93/7/60 96/8/60
f 93/7/60 97/8/61 94/7/61
f 98/8/62 93/7/60 90/7/62
f 93/7/60 98/8/62 96/8/60
f 99/8/63 94/7/61 97/8/61
f 94/7/61 99/8/63 95/7/63
f 89/7/64 84/8/57 83/7/57
f 84/8/57 89/7/64 100/8/64
f 86/8/58 90/7/62 85/7/58
f 90/7/62 86/8/58 98/8/62
f 92/7/64 101/8/64 91/7/64
f 101/8/64 92/7/64 102/8/64
f 101/8/65 88/7/65 91/7/65
f 88/7/65 101/8/65 103/8/65
f 104/8/63 88/7/63 103/8/63
f 88/7/63 104/8/63 87/7/63
f 100/8/66 82/8/66 84/8/66
f 104/8/66 82/8/66 100/8/66
f 103/8/66 82/8/66 104/8/66
f 103/8/66 86/8/66 82/8/66
f 101/8/66 86/8/66 103/8/66
f 86/8/66 101/8/66 98/8/66
f 102/8/66 98/8/66 101/8/66
f 102/8/66 96/8/66 98/8/66
f 99/8/66 96/8/66 102/8/66
f 96/8/66 99/8/66 97/8/66
f 107/2/67 106/1/67 105/1/67
f 107/2/67 108/3/67 106/1/67
f 108/3/67 107/2/67 109/3/67
f 110/2/67 109/3/67 107/2/67
f 109/3/67 110/2/67 111/1/67
f 111/1/67 110/2/67 112/1/67
f 115/7/69 114/8/68 113/7/68
f 114/8/68 115/7/69 116/8/69
f 114/8/68 117/7/70 113/7/68
f 117/7/70 114/8/68 118/8/70
f 121/7/71 120/7/71 119/7/71
f 120/7/71 121/7/71 117/7/71
f 117/7/71 121/7/71 113/7/71
f 113/7/71 121/7/71 115/7/71
f 122/7/71 120/7/71 117/7/71
f 122/7/71 123/7/71 120/7/71
f 122/7/71 124/7/71 123/7/71
f 125/7/71 124/7/71 122/7/71
f 126/7/71 124/7/71 125/7/71
f 124/7/71 126/7/71 127/7/71
f 129/8/73 125/7/72 128/8/72
f 125/7/72 129/8/73 126/7/73
f 130/8/74 125/7/72 122/7/74
f 125/7/72 130/8/74 128/8/72
f 131/8/75 126/7/73 129/8/73
f 126/7/73 131/8/75 127/7/75
f 121/7/76 116/8/69 115/7/69
f 116/8/69 121/7/76 132/8/76
f 118/8/70 122/7/74 117/7/70
f 122/7/74 118/8/70 130/8/74
f 124/7/76 133/8/76 123/7/76
f 133/8/76 124/7/76 134/8/76
f 133/8/77 120/7/77 123/7/77
f 120/7/77 133/8/77 135/8/77
f 136/8/75 120/7/75 135/8/75
f 120/7/75 136/8/75 119/7/75
f 132/8/78 114/8/78 116/8/78
f 136/8/78 114/8/78 132/8/78
f 135/8/78 114/8/78 136/8/78
f 135/8/78 118/8/78 114/8/78
f 133/8/78 118/8/78 135/8/78
f 118/8/78 133/8/78 130/8/78
f 134/8/78 130/8/78 133/8/78
f 134/8/78 128/8/78 130/8/78
f 131/8/78 128/8/78 134/8/78
f 128/8/78 131/8/78 129/8/78

