# Created by Kenney (www.kenney.nl)

mtllib track-road-wide-straight.mtl

g track-road-wide-straight

v 1 0.3 0.4981065 1 1 1
v 1 0.3 0.9987755 1 1 1
v 0.9000001 0.3 0.4981065 1 1 1
v 0.9000001 0.3 0.9987755 1 1 1
v -0.9 0.3 0.4981065 1 1 1
v -0.9 0.1 0.4981065 1 1 1
v -0.9 0.3 0.9987755 1 1 1
v -0.9 0.1 0.9987755 1 1 1
v 1 0 0.9987755 1 1 1
v 1 0 0.4981065 1 1 1
v -1 0 0.9987755 1 1 1
v -1 0 0.4981065 1 1 1
v -1 0.3 0.4981065 1 1 1
v -1 0.3 0.9987755 1 1 1
v 0.9000001 0.1 0.4981065 1 1 1
v 0.9000001 0.1 0.9987755 1 1 1
v -1 0 0 1 1 1
v -1 0.3 0 1 1 1
v -0.9 0.3 0 1 1 1
v -0.9 0.1 0 1 1 1
v 0.9000001 0.1 0 1 1 1
v 0.9000001 0.3 0 1 1 1
v 1 0.3 0 1 1 1
v 1 0 0 1 1 1
v -0.7 0.1 0 1 1 1
v -0.7 0.1 0.4981065 1 1 1
v -0.8 0.1 0 1 1 1
v -0.8 0.1 0.4981065 1 1 1
v -0.7 0.1 0.9987755 1 1 1
v -0.8 0.1 0.9987755 1 1 1
v 0.8 0.1 0 1 1 1
v 0.8 0.1 0.4981065 1 1 1
v 0.7 0.1 0 1 1 1
v 0.7 0.1 0.4981065 1 1 1
v 0.8 0.1 0.9987755 1 1 1
v 0.7 0.1 0.9987755 1 1 1
v 1 0.3 1.499881 1 1 1
v 1 0.3 2 1 1 1
v 0.9000001 0.3 1.499881 1 1 1
v 0.9000001 0.3 2 1 1 1
v -0.9 0.3 1.499881 1 1 1
v -0.9 0.1 1.499881 1 1 1
v -0.9 0.3 2 1 1 1
v -0.9 0.1 2 1 1 1
v 1 0 2 1 1 1
v 1 0 1.499881 1 1 1
v -1 0 2 1 1 1
v -1 0 1.499881 1 1 1
v -1 0.3 1.499881 1 1 1
v -1 0.3 2 1 1 1
v 0.9000001 0.1 1.499881 1 1 1
v 0.9000001 0.1 2 1 1 1
v -0.7 0.1 1.499881 1 1 1
v -0.8 0.1 1.499881 1 1 1
v -0.7 0.1 2 1 1 1
v -0.8 0.1 2 1 1 1
v 0.8 0.1 1.499881 1 1 1
v 0.7 0.1 1.499881 1 1 1
v 0.8 0.1 2 1 1 1
v 0.7 0.1 2 1 1 1
v 1 0.3 2.500119 1 1 1
v 1 0.3 3.001224 1 1 1
v 0.9000001 0.3 2.500119 1 1 1
v 0.9000001 0.3 3.001224 1 1 1
v -0.9 0.3 2.500119 1 1 1
v -0.9 0.1 2.500119 1 1 1
v -0.9 0.3 3.001224 1 1 1
v -0.9 0.1 3.001224 1 1 1
v 1 0 3.001224 1 1 1
v 1 0 2.500119 1 1 1
v -1 0 3.001224 1 1 1
v -1 0 2.500119 1 1 1
v -1 0.3 2.500119 1 1 1
v -1 0.3 3.001224 1 1 1
v 0.9000001 0.1 2.500119 1 1 1
v 0.9000001 0.1 3.001224 1 1 1
v -0.7 0.1 2.500119 1 1 1
v -0.8 0.1 2.500119 1 1 1
v -0.7 0.1 3.001224 1 1 1
v -0.8 0.1 3.001224 1 1 1
v 0.8 0.1 2.500119 1 1 1
v 0.7 0.1 2.500119 1 1 1
v 0.8 0.1 3.001224 1 1 1
v 0.7 0.1 3.001224 1 1 1
v 1 0.3 3.501894 1 1 1
v 1 0.3 4 1 1 1
v 0.9000001 0.3 3.501894 1 1 1
v 0.9000001 0.3 4 1 1 1
v -0.9 0.3 3.501894 1 1 1
v -0.9 0.1 3.501894 1 1 1
v -0.9 0.3 4 1 1 1
v -0.9 0.1 4 1 1 1
v 1 0 4 1 1 1
v 1 0 3.501894 1 1 1
v -1 0 4 1 1 1
v -1 0 3.501894 1 1 1
v -1 0.3 3.501894 1 1 1
v -1 0.3 4 1 1 1
v 0.9000001 0.1 3.501894 1 1 1
v 0.9000001 0.1 4 1 1 1
v -0.7 0.1 3.501894 1 1 1
v -0.8 0.1 3.501894 1 1 1
v -0.7 0.1 4 1 1 1
v -0.8 0.1 4 1 1 1
v 0.8 0.1 3.501894 1 1 1
v 0.7 0.1 3.501894 1 1 1
v 0.8 0.1 4 1 1 1
v 0.7 0.1 4 1 1 1
v -0.9 0 -7.219114E-16 1 1 1
v -1 0.3 0 1 1 1
v -0.9 0.3 0 1 1 1
v 0.9 0 -7.219114E-16 1 1 1
v 0.9 0.1 0 1 1 1
v 1 0.3 0 1 1 1
v 0.9 0.3 0 1 1 1
v -0.7 0 -7.219114E-16 1 1 1
v -0.7 0.1 -1.443823E-15 1 1 1
v -0.8 0 -7.219114E-16 1 1 1
v -0.8 0.1 -1.443823E-15 1 1 1
v 0.8 0 -7.219114E-16 1 1 1
v 0.8 0.1 -1.443823E-15 1 1 1
v 0.7 0 -7.219114E-16 1 1 1
v 0.7 0.1 -1.443823E-15 1 1 1
v -0.1207107 0 -0.1707107 1 1 1
v -0.1207107 0.05000001 -0.1707107 1 1 1
v -0.15 0 -0.1 1 1 1
v -0.15 0.05000001 -0.1 1 1 1
v -0.05 0 -0.2 1 1 1
v -0.05 0.05000001 -0.2 1 1 1
v -0.05 0 7.219114E-16 1 1 1
v -0.05 0 -0.1 1 1 1
v -0.15 0 1.082867E-15 1 1 1
v 0.05 0 -0.2 1 1 1
v 0.05 0 -0.1 1 1 1
v 0.05 0 3.609557E-16 1 1 1
v 0.1207107 0 -0.1707107 1 1 1
v 0.15 0 -0.1 1 1 1
v 0.15 0 0 1 1 1
v 0.1207107 0.05000001 -0.1707107 1 1 1
v 0.15 0.05000001 -0.1 1 1 1
v 0.05 0.05000001 -0.2 1 1 1
v 0.15 0.05000001 0 1 1 1
v -0.15 0.05000001 1.082867E-15 1 1 1
v 0.05 0.05000001 -0.1 1 1 1
v 0.05 0.05000001 3.609557E-16 1 1 1
v -0.05 0.05000001 -0.1 1 1 1
v -0.05 0.05000001 7.219114E-16 1 1 1
v 0.9 0 0 1 1 1
v 0.9 0.1 7.219114E-16 1 1 1
v 0.8 0 0 1 1 1
v 0.8 0.1 -7.219114E-16 1 1 1
v 0.7 0 0 1 1 1
v 0.7 0.1 -7.219114E-16 1 1 1
v -0.7 0 0 1 1 1
v -0.7 0.1 -7.219114E-16 1 1 1
v -0.8 0 0 1 1 1
v -0.8 0.1 -7.219114E-16 1 1 1
v -0.9 0 0 1 1 1
v -0.9 0.1 7.219114E-16 1 1 1
v 0.9 0 4 1 1 1
v 0.9 0.1 4 1 1 1
v 1 0.3 4 1 1 1
v 0.9 0.3 4 1 1 1
v -1 0.3 4 1 1 1
v -0.9 0 4 1 1 1
v -0.9 0.3 4 1 1 1
v -0.7 0 4 1 1 1
v -0.8 0 4 1 1 1
v -0.7 0.1 4 1 1 1
v -0.8 0.1 4 1 1 1
v 0.7 0 4 1 1 1
v 0.7 0.1 4 1 1 1
v 0.8 0 4 1 1 1
v 0.8 0.1 4 1 1 1
v 0.1207107 0 4.170711 1 1 1
v 0.1207107 0.05000001 4.170711 1 1 1
v 0.15 0 4.1 1 1 1
v 0.15 0.05000001 4.1 1 1 1
v 0.05 0 4.2 1 1 1
v 0.05 0.05000001 4.2 1 1 1
v 0.05 0 4 1 1 1
v 0.05 0 4.1 1 1 1
v 0.15 0 4 1 1 1
v -0.05 0 4.2 1 1 1
v -0.05 0 4.1 1 1 1
v -0.05 0 4 1 1 1
v -0.1207107 0 4.170711 1 1 1
v -0.15 0 4.1 1 1 1
v -0.15 0 4 1 1 1
v -0.1207107 0.05000001 4.170711 1 1 1
v -0.15 0.05000001 4.1 1 1 1
v -0.05 0.05000001 4.2 1 1 1
v -0.15 0.05000001 4 1 1 1
v 0.15 0.05000001 4 1 1 1
v -0.05 0.05000001 4.1 1 1 1
v -0.05 0.05000001 4 1 1 1
v 0.05 0.05000001 4.1 1 1 1
v 0.05 0.05000001 4 1 1 1

vn 0.7071068 0.7071068 0
vn -0.7071068 0.7071068 0
vn 1 0 0
vn 0 -1 0
vn -1 0 0
vn 0 1 0
vn 0 0 -1
vn -0.7071068 0 -0.7071068
vn -0.9807853 0 -0.1950903
vn -0.1950903 0 -0.9807853
vn 0.7071068 0 -0.7071068
vn 0.9807853 0 -0.1950903
vn 0.1950903 0 -0.9807853
vn 0 0 1
vn 0.7071068 0 0.7071068
vn 0.9807853 0 0.1950903
vn 0.1950903 0 0.9807853
vn -0.7071068 0 0.7071068
vn -0.9807853 0 0.1950903
vn -0.1950903 0 0.9807853
vn -1 0 7.21645E-16
vn 1 0 -7.21645E-16
vn -7.21645E-16 0 -1

vt 0.59375 0.475
vt 0.59375 0.3416667
vt 0.59375 0.275
vt 0.59375 0.025
vt 0.59375 0.225
vt 0.59375 0.09166666
vt 0.21875 0.025
vt 0.34375 0.025
vt 0.34375 0.225
vt 0.21875 0.075
vt 0.21875 0.175

usemtl colormap

f 3/1/2 2/1/1 1/1/1
f 2/1/1 3/1/2 4/1/2
f 7/1/1 6/2/3 5/1/1
f 6/2/3 7/1/1 8/2/3
f 11/3/4 10/3/4 9/3/4
f 10/3/4 11/3/4 12/3/4
f 11/3/5 13/1/2 12/3/5
f 13/1/2 11/3/5 14/1/2
f 13/1/2 7/1/1 5/1/1
f 7/1/1 13/1/2 14/1/2
f 2/1/1 10/3/3 1/1/1
f 10/3/3 2/1/1 9/3/3
f 16/2/5 3/1/2 15/2/5
f 3/1/2 16/2/5 4/1/2
f 12/4/5 18/5/2 17/4/5
f 18/5/2 12/4/5 13/5/2
f 5/5/1 18/5/2 13/5/2
f 18/5/2 5/5/1 19/5/1
f 5/5/1 20/6/3 19/5/1
f 20/6/3 5/5/1 6/6/3
f 15/6/5 22/5/2 21/6/5
f 22/5/2 15/6/5 3/5/2
f 1/5/1 22/5/2 3/5/2
f 22/5/2 1/5/1 23/5/1
f 1/5/1 24/4/3 23/5/1
f 24/4/3 1/5/1 10/4/3
f 12/4/4 24/4/4 10/4/4
f 24/4/4 12/4/4 17/4/4
f 27/4/6 26/4/6 25/4/6
f 26/4/6 27/4/6 28/4/6
f 28/4/6 29/4/6 26/4/6
f 29/4/6 28/4/6 30/4/6
f 33/4/6 32/4/6 31/4/6
f 32/4/6 33/4/6 34/4/6
f 34/4/6 35/4/6 32/4/6
f 35/4/6 34/4/6 36/4/6
f 30/7/6 6/7/6 8/7/6
f 6/7/6 30/7/6 28/7/6
f 28/7/6 20/7/6 6/7/6
f 20/7/6 28/7/6 27/7/6
f 31/7/6 15/7/6 21/7/6
f 15/7/6 31/7/6 32/7/6
f 32/7/6 16/7/6 15/7/6
f 16/7/6 32/7/6 35/7/6
f 36/7/6 26/7/6 29/7/6
f 26/7/6 36/7/6 34/7/6
f 34/7/6 25/7/6 26/7/6
f 25/7/6 34/7/6 33/7/6
f 39/1/2 38/1/1 37/1/1
f 38/1/1 39/1/2 40/1/2
f 43/1/1 42/2/3 41/1/1
f 42/2/3 43/1/1 44/2/3
f 47/3/4 46/3/4 45/3/4
f 46/3/4 47/3/4 48/3/4
f 47/3/5 49/1/2 48/3/5
f 49/1/2 47/3/5 50/1/2
f 49/1/2 43/1/1 41/1/1
f 43/1/1 49/1/2 50/1/2
f 38/1/1 46/3/3 37/1/1
f 46/3/3 38/1/1 45/3/3
f 52/2/5 39/1/2 51/2/5
f 39/1/2 52/2/5 40/1/2
f 48/4/5 14/5/2 11/4/5
f 14/5/2 48/4/5 49/5/2
f 41/5/1 14/5/2 49/5/2
f 14/5/2 41/5/1 7/5/1
f 41/5/1 8/6/3 7/5/1
f 8/6/3 41/5/1 42/6/3
f 51/6/5 4/5/2 16/6/5
f 4/5/2 51/6/5 39/5/2
f 37/5/1 4/5/2 39/5/2
f 4/5/2 37/5/1 2/5/1
f 37/5/1 9/4/3 2/5/1
f 9/4/3 37/5/1 46/4/3
f 48/4/4 9/4/4 46/4/4
f 9/4/4 48/4/4 11/4/4
f 30/4/6 53/4/6 29/4/6
f 53/4/6 30/4/6 54/4/6
f 54/4/6 55/4/6 53/4/6
f 55/4/6 54/4/6 56/4/6
f 36/4/6 57/4/6 35/4/6
f 57/4/6 36/4/6 58/4/6
f 58/4/6 59/4/6 57/4/6
f 59/4/6 58/4/6 60/4/6
f 56/7/6 42/7/6 44/7/6
f 42/7/6 56/7/6 54/7/6
f 54/7/6 8/7/6 42/7/6
f 8/7/6 54/7/6 30/7/6
f 35/7/6 51/7/6 16/7/6
f 51/7/6 35/7/6 57/7/6
f 57/7/6 52/7/6 51/7/6
f 52/7/6 57/7/6 59/7/6
f 60/7/6 53/7/6 55/7/6
f 53/7/6 60/7/6 58/7/6
f 58/7/6 29/7/6 53/7/6
f 29/7/6 58/7/6 36/7/6
f 63/1/2 62/1/1 61/1/1
f 62/1/1 63/1/2 64/1/2
f 67/1/1 66/2/3 65/1/1
f 66/2/3 67/1/1 68/2/3
f 71/3/4 70/3/4 69/3/4
f 70/3/4 71/3/4 72/3/4
f 71/3/5 73/1/2 72/3/5
f 73/1/2 71/3/5 74/1/2
f 73/1/2 67/1/1 65/1/1
f 67/1/1 73/1/2 74/1/2
f 62/1/1 70/3/3 61/1/1
f 70/3/3 62/1/1 69/3/3
f 76/2/5 63/1/2 75/2/5
f 63/1/2 76/2/5 64/1/2
f 72/4/5 50/5/2 47/4/5
f 50/5/2 72/4/5 73/5/2
f 65/5/1 50/5/2 73/5/2
f 50/5/2 65/5/1 43/5/1
f 65/5/1 44/6/3 43/5/1
f 44/6/3 65/5/1 66/6/3
f 75/6/5 40/5/2 52/6/5
f 40/5/2 75/6/5 63/5/2
f 61/5/1 40/5/2 63/5/2
f 40/5/2 61/5/1 38/5/1
f 61/5/1 45/4/3 38/5/1
f 45/4/3 61/5/1 70/4/3
f 72/4/4 45/4/4 70/4/4
f 45/4/4 72/4/4 47/4/4
f 56/4/6 77/4/6 55/4/6
f 77/4/6 56/4/6 78/4/6
f 78/4/6 79/4/6 77/4/6
f 79/4/6 78/4/6 80/4/6
f 60/4/6 81/4/6 59/4/6
f 81/4/6 60/4/6 82/4/6
f 82/4/6 83/4/6 81/4/6
f 83/4/6 82/4/6 84/4/6
f 80/7/6 66/7/6 68/7/6
f 66/7/6 80/7/6 78/7/6
f 78/7/6 44/7/6 66/7/6
f 44/7/6 78/7/6 56/7/6
f 59/7/6 75/7/6 52/7/6
f 75/7/6 59/7/6 81/7/6
f 81/7/6 76/7/6 75/7/6
f 76/7/6 81/7/6 83/7/6
f 84/7/6 77/7/6 79/7/6
f 77/7/6 84/7/6 82/7/6
f 82/7/6 55/7/6 77/7/6
f 55/7/6 82/7/6 60/7/6
f 87/1/2 86/1/1 85/1/1
f 86/1/1 87/1/2 88/1/2
f 91/1/1 90/2/3 89/1/1
f 90/2/3 91/1/1 92/2/3
f 95/3/4 94/3/4 93/3/4
f 94/3/4 95/3/4 96/3/4
f 95/3/5 97/1/2 96/3/5
f 97/1/2 95/3/5 98/1/2
f 97/1/2 91/1/1 89/1/1
f 91/1/1 97/1/2 98/1/2
f 86/1/1 94/3/3 85/1/1
f 94/3/3 86/1/1 93/3/3
f 100/2/5 87/1/2 99/2/5
f 87/1/2 100/2/5 88/1/2
f 96/4/5 74/5/2 71/4/5
f 74/5/2 96/4/5 97/5/2
f 89/5/1 74/5/2 97/5/2
f 74/5/2 89/5/1 67/5/1
f 89/5/1 68/6/3 67/5/1
f 68/6/3 89/5/1 90/6/3
f 99/6/5 64/5/2 76/6/5
f 64/5/2 99/6/5 87/5/2
f 85/5/1 64/5/2 87/5/2
f 64/5/2 85/5/1 62/5/1
f 85/5/1 69/4/3 62/5/1
f 69/4/3 85/5/1 94/4/3
f 96/4/4 69/4/4 94/4/4
f 69/4/4 96/4/4 71/4/4
f 80/4/6 101/4/6 79/4/6
f 101/4/6 80/4/6 102/4/6
f 102/4/6 103/4/6 101/4/6
f 103/4/6 102/4/6 104/4/6
f 84/4/6 105/4/6 83/4/6
f 105/4/6 84/4/6 106/4/6
f 106/4/6 107/4/6 105/4/6
f 107/4/6 106/4/6 108/4/6
f 104/7/6 90/7/6 92/7/6
f 90/7/6 104/7/6 102/7/6
f 102/7/6 68/7/6 90/7/6
f 68/7/6 102/7/6 80/7/6
f 83/7/6 99/7/6 76/7/6
f 99/7/6 83/7/6 105/7/6
f 105/7/6 100/7/6 99/7/6
f 100/7/6 105/7/6 107/7/6
f 108/7/6 101/7/6 103/7/6
f 101/7/6 108/7/6 106/7/6
f 106/7/6 79/7/6 101/7/6
f 79/7/6 106/7/6 84/7/6
f 17/4/7 20/6/7 109/4/7
f 20/6/7 17/4/7 110/5/7
f 20/6/7 110/5/7 111/5/7
f 113/6/7 24/4/7 112/4/7
f 24/4/7 113/6/7 114/5/7
f 114/5/7 113/6/7 115/5/7
f 118/4/7 117/6/7 116/4/7
f 117/6/7 118/4/7 119/6/7
f 122/4/7 121/6/7 120/4/7
f 121/6/7 122/4/7 123/6/7
f 126/8/9 125/9/8 124/8/8
f 125/9/8 126/8/9 127/9/9
f 125/9/8 128/8/10 124/8/8
f 128/8/10 125/9/8 129/9/10
f 132/8/4 131/8/4 130/8/4
f 131/8/4 132/8/4 128/8/4
f 128/8/4 132/8/4 124/8/4
f 124/8/4 132/8/4 126/8/4
f 133/8/4 131/8/4 128/8/4
f 133/8/4 134/8/4 131/8/4
f 133/8/4 135/8/4 134/8/4
f 136/8/4 135/8/4 133/8/4
f 137/8/4 135/8/4 136/8/4
f 135/8/4 137/8/4 138/8/4
f 140/9/12 136/8/11 139/9/11
f 136/8/11 140/9/12 137/8/12
f 141/9/13 136/8/11 133/8/13
f 136/8/11 141/9/13 139/9/11
f 142/9/3 137/8/12 140/9/12
f 137/8/12 142/9/3 138/8/3
f 132/8/5 127/9/9 126/8/9
f 127/9/9 132/8/5 143/9/5
f 129/9/10 133/8/13 128/8/10
f 133/8/13 129/9/10 141/9/13
f 135/8/5 144/9/5 134/8/5
f 144/9/5 135/8/5 145/9/5
f 144/9/14 131/8/14 134/8/14
f 131/8/14 144/9/14 146/9/14
f 147/9/3 131/8/3 146/9/3
f 131/8/3 147/9/3 130/8/3
f 143/9/6 125/9/6 127/9/6
f 147/9/6 125/9/6 143/9/6
f 146/9/6 125/9/6 147/9/6
f 146/9/6 129/9/6 125/9/6
f 144/9/6 129/9/6 146/9/6
f 129/9/6 144/9/6 141/9/6
f 145/9/6 141/9/6 144/9/6
f 145/9/6 139/9/6 141/9/6
f 142/9/6 139/9/6 145/9/6
f 139/9/6 142/9/6 140/9/6
f 150/10/7 149/11/7 148/10/7
f 149/11/7 150/10/7 151/11/7
f 154/10/7 153/11/7 152/10/7
f 153/11/7 154/10/7 155/11/7
f 158/10/7 157/11/7 156/10/7
f 157/11/7 158/10/7 159/11/7
f 93/3/14 161/2/14 160/3/14
f 161/2/14 93/3/14 162/1/14
f 161/2/14 162/1/14 163/1/14
f 165/3/14 164/1/14 95/3/14
f 164/1/14 165/3/14 92/2/14
f 164/1/14 92/2/14 166/1/14
f 169/6/14 168/4/14 167/4/14
f 168/4/14 169/6/14 170/6/14
f 173/4/14 172/6/14 171/4/14
f 172/6/14 173/4/14 174/6/14
f 177/8/16 176/9/15 175/8/15
f 176/9/15 177/8/16 178/9/16
f 176/9/15 179/8/17 175/8/15
f 179/8/17 176/9/15 180/9/17
f 183/8/4 182/8/4 181/8/4
f 182/8/4 183/8/4 179/8/4
f 179/8/4 183/8/4 175/8/4
f 175/8/4 183/8/4 177/8/4
f 184/8/4 182/8/4 179/8/4
f 184/8/4 185/8/4 182/8/4
f 184/8/4 186/8/4 185/8/4
f 187/8/4 186/8/4 184/8/4
f 188/8/4 186/8/4 187/8/4
f 186/8/4 188/8/4 189/8/4
f 191/9/19 187/8/18 190/9/18
f 187/8/18 191/9/19 188/8/19
f 192/9/20 187/8/18 184/8/20
f 187/8/18 192/9/20 190/9/18
f 193/9/21 188/8/19 191/9/19
f 188/8/19 193/9/21 189/8/21
f 183/8/22 178/9/16 177/8/16
f 178/9/16 183/8/22 194/9/22
f 180/9/17 184/8/20 179/8/17
f 184/8/20 180/9/17 192/9/20
f 186/8/22 195/9/22 185/8/22
f 195/9/22 186/8/22 196/9/22
f 195/9/23 182/8/23 185/8/23
f 182/8/23 195/9/23 197/9/23
f 198/9/21 182/8/21 197/9/21
f 182/8/21 198/9/21 181/8/21
f 194/9/6 176/9/6 178/9/6
f 198/9/6 176/9/6 194/9/6
f 197/9/6 176/9/6 198/9/6
f 197/9/6 180/9/6 176/9/6
f 195/9/6 180/9/6 197/9/6
f 180/9/6 195/9/6 192/9/6
f 196/9/6 192/9/6 195/9/6
f 196/9/6 190/9/6 192/9/6
f 193/9/6 190/9/6 196/9/6
f 190/9/6 193/9/6 191/9/6
f 172/11/14 167/10/14 171/10/14
f 167/10/14 172/11/14 169/11/14
f 170/11/14 165/10/14 168/10/14
f 165/10/14 170/11/14 92/11/14
f 161/11/14 173/10/14 160/10/14
f 173/10/14 161/11/14 174/11/14

g track-road-wide-straight




usemtl colormap

f 3/1/2 2/1/1 1/1/1
f 2/1/1 3/1/2 4/1/2
f 7/1/1 6/2/3 5/1/1
f 6/2/3 7/1/1 8/2/3
f 11/3/4 10/3/4 9/3/4
f 10/3/4 11/3/4 12/3/4
f 11/3/5 13/1/2 12/3/5
f 13/1/2 11/3/5 14/1/2
f 13/1/2 7/1/1 5/1/1
f 7/1/1 13/1/2 14/1/2
f 2/1/1 10/3/3 1/1/1
f 10/3/3 2/1/1 9/3/3
f 16/2/5 3/1/2 15/2/5
f 3/1/2 16/2/5 4/1/2
f 12/4/5 18/5/2 17/4/5
f 18/5/2 12/4/5 13/5/2
f 5/5/1 18/5/2 13/5/2
f 18/5/2 5/5/1 19/5/1
f 5/5/1 20/6/3 19/5/1
f 20/6/3 5/5/1 6/6/3
f 15/6/5 22/5/2 21/6/5
f 22/5/2 15/6/5 3/5/2
f 1/5/1 22/5/2 3/5/2
f 22/5/2 1/5/1 23/5/1
f 1/5/1 24/4/3 23/5/1
f 24/4/3 1/5/1 10/4/3
f 12/4/4 24/4/4 10/4/4
f 24/4/4 12/4/4 17/4/4
f 27/4/6 26/4/6 25/4/6
f 26/4/6 27/4/6 28/4/6
f 28/4/6 29/4/6 26/4/6
f 29/4/6 28/4/6 30/4/6
f 33/4/6 32/4/6 31/4/6
f 32/4/6 33/4/6 34/4/6
f 34/4/6 35/4/6 32/4/6
f 35/4/6 34/4/6 36/4/6
f 30/7/6 6/7/6 8/7/6
f 6/7/6 30/7/6 28/7/6
f 28/7/6 20/7/6 6/7/6
f 20/7/6 28/7/6 27/7/6
f 31/7/6 15/7/6 21/7/6
f 15/7/6 31/7/6 32/7/6
f 32/7/6 16/7/6 15/7/6
f 16/7/6 32/7/6 35/7/6
f 36/7/6 26/7/6 29/7/6
f 26/7/6 36/7/6 34/7/6
f 34/7/6 25/7/6 26/7/6
f 25/7/6 34/7/6 33/7/6
f 39/1/2 38/1/1 37/1/1
f 38/1/1 39/1/2 40/1/2
f 43/1/1 42/2/3 41/1/1
f 42/2/3 43/1/1 44/2/3
f 47/3/4 46/3/4 45/3/4
f 46/3/4 47/3/4 48/3/4
f 47/3/5 49/1/2 48/3/5
f 49/1/2 47/3/5 50/1/2
f 49/1/2 43/1/1 41/1/1
f 43/1/1 49/1/2 50/1/2
f 38/1/1 46/3/3 37/1/1
f 46/3/3 38/1/1 45/3/3
f 52/2/5 39/1/2 51/2/5
f 39/1/2 52/2/5 40/1/2
f 48/4/5 14/5/2 11/4/5
f 14/5/2 48/4/5 49/5/2
f 41/5/1 14/5/2 49/5/2
f 14/5/2 41/5/1 7/5/1
f 41/5/1 8/6/3 7/5/1
f 8/6/3 41/5/1 42/6/3
f 51/6/5 4/5/2 16/6/5
f 4/5/2 51/6/5 39/5/2
f 37/5/1 4/5/2 39/5/2
f 4/5/2 37/5/1 2/5/1
f 37/5/1 9/4/3 2/5/1
f 9/4/3 37/5/1 46/4/3
f 48/4/4 9/4/4 46/4/4
f 9/4/4 48/4/4 11/4/4
f 30/4/6 53/4/6 29/4/6
f 53/4/6 30/4/6 54/4/6
f 54/4/6 55/4/6 53/4/6
f 55/4/6 54/4/6 56/4/6
f 36/4/6 57/4/6 35/4/6
f 57/4/6 36/4/6 58/4/6
f 58/4/6 59/4/6 57/4/6
f 59/4/6 58/4/6 60/4/6
f 56/7/6 42/7/6 44/7/6
f 42/7/6 56/7/6 54/7/6
f 54/7/6 8/7/6 42/7/6
f 8/7/6 54/7/6 30/7/6
f 35/7/6 51/7/6 16/7/6
f 51/7/6 35/7/6 57/7/6
f 57/7/6 52/7/6 51/7/6
f 52/7/6 57/7/6 59/7/6
f 60/7/6 53/7/6 55/7/6
f 53/7/6 60/7/6 58/7/6
f 58/7/6 29/7/6 53/7/6
f 29/7/6 58/7/6 36/7/6
f 63/1/2 62/1/1 61/1/1
f 62/1/1 63/1/2 64/1/2
f 67/1/1 66/2/3 65/1/1
f 66/2/3 67/1/1 68/2/3
f 71/3/4 70/3/4 69/3/4
f 70/3/4 71/3/4 72/3/4
f 71/3/5 73/1/2 72/3/5
f 73/1/2 71/3/5 74/1/2
f 73/1/2 67/1/1 65/1/1
f 67/1/1 73/1/2 74/1/2
f 62/1/1 70/3/3 61/1/1
f 70/3/3 62/1/1 69/3/3
f 76/2/5 63/1/2 75/2/5
f 63/1/2 76/2/5 64/1/2
f 72/4/5 50/5/2 47/4/5
f 50/5/2 72/4/5 73/5/2
f 65/5/1 50/5/2 73/5/2
f 50/5/2 65/5/1 43/5/1
f 65/5/1 44/6/3 43/5/1
f 44/6/3 65/5/1 66/6/3
f 75/6/5 40/5/2 52/6/5
f 40/5/2 75/6/5 63/5/2
f 61/5/1 40/5/2 63/5/2
f 40/5/2 61/5/1 38/5/1
f 61/5/1 45/4/3 38/5/1
f 45/4/3 61/5/1 70/4/3
f 72/4/4 45/4/4 70/4/4
f 45/4/4 72/4/4 47/4/4
f 56/4/6 77/4/6 55/4/6
f 77/4/6 56/4/6 78/4/6
f 78/4/6 79/4/6 77/4/6
f 79/4/6 78/4/6 80/4/6
f 60/4/6 81/4/6 59/4/6
f 81/4/6 60/4/6 82/4/6
f 82/4/6 83/4/6 81/4/6
f 83/4/6 82/4/6 84/4/6
f 80/7/6 66/7/6 68/7/6
f 66/7/6 80/7/6 78/7/6
f 78/7/6 44/7/6 66/7/6
f 44/7/6 78/7/6 56/7/6
f 59/7/6 75/7/6 52/7/6
f 75/7/6 59/7/6 81/7/6
f 81/7/6 76/7/6 75/7/6
f 76/7/6 81/7/6 83/7/6
f 84/7/6 77/7/6 79/7/6
f 77/7/6 84/7/6 82/7/6
f 82/7/6 55/7/6 77/7/6
f 55/7/6 82/7/6 60/7/6
f 87/1/2 86/1/1 85/1/1
f 86/1/1 87/1/2 88/1/2
f 91/1/1 90/2/3 89/1/1
f 90/2/3 91/1/1 92/2/3
f 95/3/4 94/3/4 93/3/4
f 94/3/4 95/3/4 96/3/4
f 95/3/5 97/1/2 96/3/5
f 97/1/2 95/3/5 98/1/2
f 97/1/2 91/1/1 89/1/1
f 91/1/1 97/1/2 98/1/2
f 86/1/1 94/3/3 85/1/1
f 94/3/3 86/1/1 93/3/3
f 100/2/5 87/1/2 99/2/5
f 87/1/2 100/2/5 88/1/2
f 96/4/5 74/5/2 71/4/5
f 74/5/2 96/4/5 97/5/2
f 89/5/1 74/5/2 97/5/2
f 74/5/2 89/5/1 67/5/1
f 89/5/1 68/6/3 67/5/1
f 68/6/3 89/5/1 90/6/3
f 99/6/5 64/5/2 76/6/5
f 64/5/2 99/6/5 87/5/2
f 85/5/1 64/5/2 87/5/2
f 64/5/2 85/5/1 62/5/1
f 85/5/1 69/4/3 62/5/1
f 69/4/3 85/5/1 94/4/3
f 96/4/4 69/4/4 94/4/4
f 69/4/4 96/4/4 71/4/4
f 80/4/6 101/4/6 79/4/6
f 101/4/6 80/4/6 102/4/6
f 102/4/6 103/4/6 101/4/6
f 103/4/6 102/4/6 104/4/6
f 84/4/6 105/4/6 83/4/6
f 105/4/6 84/4/6 106/4/6
f 106/4/6 107/4/6 105/4/6
f 107/4/6 106/4/6 108/4/6
f 104/7/6 90/7/6 92/7/6
f 90/7/6 104/7/6 102/7/6
f 102/7/6 68/7/6 90/7/6
f 68/7/6 102/7/6 80/7/6
f 83/7/6 99/7/6 76/7/6
f 99/7/6 83/7/6 105/7/6
f 105/7/6 100/7/6 99/7/6
f 100/7/6 105/7/6 107/7/6
f 108/7/6 101/7/6 103/7/6
f 101/7/6 108/7/6 106/7/6
f 106/7/6 79/7/6 101/7/6
f 79/7/6 106/7/6 84/7/6
f 17/4/7 20/6/7 109/4/7
f 20/6/7 17/4/7 110/5/7
f 20/6/7 110/5/7 111/5/7
f 113/6/7 24/4/7 112/4/7
f 24/4/7 113/6/7 114/5/7
f 114/5/7 113/6/7 115/5/7
f 118/4/7 117/6/7 116/4/7
f 117/6/7 118/4/7 119/6/7
f 122/4/7 121/6/7 120/4/7
f 121/6/7 122/4/7 123/6/7
f 126/8/9 125/9/8 124/8/8
f 125/9/8 126/8/9 127/9/9
f 125/9/8 128/8/10 124/8/8
f 128/8/10 125/9/8 129/9/10
f 132/8/4 131/8/4 130/8/4
f 131/8/4 132/8/4 128/8/4
f 128/8/4 132/8/4 124/8/4
f 124/8/4 132/8/4 126/8/4
f 133/8/4 131/8/4 128/8/4
f 133/8/4 134/8/4 131/8/4
f 133/8/4 135/8/4 134/8/4
f 136/8/4 135/8/4 133/8/4
f 137/8/4 135/8/4 136/8/4
f 135/8/4 137/8/4 138/8/4
f 140/9/12 136/8/11 139/9/11
f 136/8/11 140/9/12 137/8/12
f 141/9/13 136/8/11 133/8/13
f 136/8/11 141/9/13 139/9/11
f 142/9/3 137/8/12 140/9/12
f 137/8/12 142/9/3 138/8/3
f 132/8/5 127/9/9 126/8/9
f 127/9/9 132/8/5 143/9/5
f 129/9/10 133/8/13 128/8/10
f 133/8/13 129/9/10 141/9/13
f 135/8/5 144/9/5 134/8/5
f 144/9/5 135/8/5 145/9/5
f 144/9/14 131/8/14 134/8/14
f 131/8/14 144/9/14 146/9/14
f 147/9/3 131/8/3 146/9/3
f 131/8/3 147/9/3 130/8/3
f 143/9/6 125/9/6 127/9/6
f 147/9/6 125/9/6 143/9/6
f 146/9/6 125/9/6 147/9/6
f 146/9/6 129/9/6 125/9/6
f 144/9/6 129/9/6 146/9/6
f 129/9/6 144/9/6 141/9/6
f 145/9/6 141/9/6 144/9/6
f 145/9/6 139/9/6 141/9/6
f 142/9/6 139/9/6 145/9/6
f 139/9/6 142/9/6 140/9/6
f 150/10/7 149/11/7 148/10/7
f 149/11/7 150/10/7 151/11/7
f 154/10/7 153/11/7 152/10/7
f 153/11/7 154/10/7 155/11/7
f 158/10/7 157/11/7 156/10/7
f 157/11/7 158/10/7 159/11/7
f 93/3/14 161/2/14 160/3/14
f 161/2/14 93/3/14 162/1/14
f 161/2/14 162/1/14 163/1/14
f 165/3/14 164/1/14 95/3/14
f 164/1/14 165/3/14 92/2/14
f 164/1/14 92/2/14 166/1/14
f 169/6/14 168/4/14 167/4/14
f 168/4/14 169/6/14 170/6/14
f 173/4/14 172/6/14 171/4/14
f 172/6/14 173/4/14 174/6/14
f 177/8/16 176/9/15 175/8/15
f 176/9/15 177/8/16 178/9/16
f 176/9/15 179/8/17 175/8/15
f 179/8/17 176/9/15 180/9/17
f 183/8/4 182/8/4 181/8/4
f 182/8/4 183/8/4 179/8/4
f 179/8/4 183/8/4 175/8/4
f 175/8/4 183/8/4 177/8/4
f 184/8/4 182/8/4 179/8/4
f 184/8/4 185/8/4 182/8/4
f 184/8/4 186/8/4 185/8/4
f 187/8/4 186/8/4 184/8/4
f 188/8/4 186/8/4 187/8/4
f 186/8/4 188/8/4 189/8/4
f 191/9/19 187/8/18 190/9/18
f 187/8/18 191/9/19 188/8/19
f 192/9/20 187/8/18 184/8/20
f 187/8/18 192/9/20 190/9/18
f 193/9/21 188/8/19 191/9/19
f 188/8/19 193/9/21 189/8/21
f 183/8/22 178/9/16 177/8/16
f 178/9/16 183/8/22 194/9/22
f 180/9/17 184/8/20 179/8/17
f 184/8/20 180/9/17 192/9/20
f 186/8/22 195/9/22 185/8/22
f 195/9/22 186/8/22 196/9/22
f 195/9/23 182/8/23 185/8/23
f 182/8/23 195/9/23 197/9/23
f 198/9/21 182/8/21 197/9/21
f 182/8/21 198/9/21 181/8/21
f 194/9/6 176/9/6 178/9/6
f 198/9/6 176/9/6 194/9/6
f 197/9/6 176/9/6 198/9/6
f 197/9/6 180/9/6 176/9/6
f 195/9/6 180/9/6 197/9/6
f 180/9/6 195/9/6 192/9/6
f 196/9/6 192/9/6 195/9/6
f 196/9/6 190/9/6 192/9/6
f 193/9/6 190/9/6 196/9/6
f 190/9/6 193/9/6 191/9/6
f 172/11/14 167/10/14 171/10/14
f 167/10/14 172/11/14 169/11/14
f 170/11/14 165/10/14 168/10/14
f 165/10/14 170/11/14 92/11/14
f 161/11/14 173/10/14 160/10/14
f 173/10/14 161/11/14 174/11/14

