# Created by Kenney (www.kenney.nl)

mtllib track-striped-wide-cap-back.mtl

g track-striped-wide-cap-back

v 0.9 0.3 0 1 1 1
v 1 0.3 0 1 1 1
v 0.9 0.1 0 1 1 1
v 1 0 0 1 1 1
v -1 0 0 1 1 1
v -0.9 0.1 0 1 1 1
v -1 0.3 0 1 1 1
v -0.9 0.3 0 1 1 1
v 0.1207107 0 0.1707107 1 1 1
v 0.1207107 0.05 0.1707107 1 1 1
v 0.15 0 0.1 1 1 1
v 0.15 0.05 0.1 1 1 1
v 0.05 0 0.2 1 1 1
v 0.05 0.05 0.2 1 1 1
v 0.05 8.014827E-32 -7.579936E-16 1 1 1
v 0.05 0 0.1 1 1 1
v 0.15 1.602965E-31 -1.191114E-15 1 1 1
v -0.05 0 0.2 1 1 1
v -0.05 0 0.1 1 1 1
v -0.05 8.014827E-32 -3.248735E-16 1 1 1
v -0.1207107 0 0.1707107 1 1 1
v -0.15 0 0.1 1 1 1
v -0.15 1.602965E-31 1.082467E-16 1 1 1
v -0.1207107 0.05 0.1707107 1 1 1
v -0.15 0.05 0.1 1 1 1
v -0.05 0.05 0.2 1 1 1
v -0.15 0.05 1.082467E-16 1 1 1
v 0.15 0.05 -1.191114E-15 1 1 1
v -0.05 0.05 0.1 1 1 1
v -0.05 0.05 -3.248735E-16 1 1 1
v 0.05 0.05 0.1 1 1 1
v 0.05 0.05 -7.579936E-16 1 1 1

vn 0 0 1
vn 0.7071068 0 0.7071068
vn 0.9807853 0 0.1950903
vn 0.1950903 0 0.9807853
vn 0 -1 0
vn -0.7071068 0 0.7071068
vn -0.9807853 0 0.1950903
vn -0.1950903 0 0.9807853
vn -1 0 7.21645E-16
vn 1 0 -7.21645E-16
vn -7.21645E-16 0 -1
vn 0 1 0

vt 0.59375 0.475
vt 0.59375 0.3416667
vt 0.59375 0.275
vt 0.34375 0.025
vt 0.34375 0.225

usemtl colormap

f 3/2/1 2/1/1 1/1/1
f 3/2/1 4/3/1 2/1/1
f 4/3/1 3/2/1 5/3/1
f 6/2/1 5/3/1 3/2/1
f 5/3/1 6/2/1 7/1/1
f 7/1/1 6/2/1 8/1/1
f 11/4/3 10/5/2 9/4/2
f 10/5/2 11/4/3 12/5/3
f 10/5/2 13/4/4 9/4/2
f 13/4/4 10/5/2 14/5/4
f 17/4/5 16/4/5 15/4/5
f 16/4/5 17/4/5 13/4/5
f 13/4/5 17/4/5 9/4/5
f 9/4/5 17/4/5 11/4/5
f 18/4/5 16/4/5 13/4/5
f 18/4/5 19/4/5 16/4/5
f 18/4/5 20/4/5 19/4/5
f 21/4/5 20/4/5 18/4/5
f 22/4/5 20/4/5 21/4/5
f 20/4/5 22/4/5 23/4/5
f 25/5/7 21/4/6 24/5/6
f 21/4/6 25/5/7 22/4/7
f 26/5/8 21/4/6 18/4/8
f 21/4/6 26/5/8 24/5/6
f 27/5/9 22/4/7 25/5/7
f 22/4/7 27/5/9 23/4/9
f 17/4/10 12/5/3 11/4/3
f 12/5/3 17/4/10 28/5/10
f 14/5/4 18/4/8 13/4/4
f 18/4/8 14/5/4 26/5/8
f 20/4/10 29/5/10 19/4/10
f 29/5/10 20/4/10 30/5/10
f 29/5/11 16/4/11 19/4/11
f 16/4/11 29/5/11 31/5/11
f 32/5/9 16/4/9 31/5/9
f 16/4/9 32/5/9 15/4/9
f 28/5/12 10/5/12 12/5/12
f 32/5/12 10/5/12 28/5/12
f 31/5/12 10/5/12 32/5/12
f 31/5/12 14/5/12 10/5/12
f 29/5/12 14/5/12 31/5/12
f 14/5/12 29/5/12 26/5/12
f 30/5/12 26/5/12 29/5/12
f 30/5/12 24/5/12 26/5/12
f 27/5/12 24/5/12 30/5/12
f 24/5/12 27/5/12 25/5/12

g track-striped-wide-cap-back




usemtl colormap

f 3/2/1 2/1/1 1/1/1
f 3/2/1 4/3/1 2/1/1
f 4/3/1 3/2/1 5/3/1
f 6/2/1 5/3/1 3/2/1
f 5/3/1 6/2/1 7/1/1
f 7/1/1 6/2/1 8/1/1
f 11/4/3 10/5/2 9/4/2
f 10/5/2 11/4/3 12/5/3
f 10/5/2 13/4/4 9/4/2
f 13/4/4 10/5/2 14/5/4
f 17/4/5 16/4/5 15/4/5
f 16/4/5 17/4/5 13/4/5
f 13/4/5 17/4/5 9/4/5
f 9/4/5 17/4/5 11/4/5
f 18/4/5 16/4/5 13/4/5
f 18/4/5 19/4/5 16/4/5
f 18/4/5 20/4/5 19/4/5
f 21/4/5 20/4/5 18/4/5
f 22/4/5 20/4/5 21/4/5
f 20/4/5 22/4/5 23/4/5
f 25/5/7 21/4/6 24/5/6
f 21/4/6 25/5/7 22/4/7
f 26/5/8 21/4/6 18/4/8
f 21/4/6 26/5/8 24/5/6
f 27/5/9 22/4/7 25/5/7
f 22/4/7 27/5/9 23/4/9
f 17/4/10 12/5/3 11/4/3
f 12/5/3 17/4/10 28/5/10
f 14/5/4 18/4/8 13/4/4
f 18/4/8 14/5/4 26/5/8
f 20/4/10 29/5/10 19/4/10
f 29/5/10 20/4/10 30/5/10
f 29/5/11 16/4/11 19/4/11
f 16/4/11 29/5/11 31/5/11
f 32/5/9 16/4/9 31/5/9
f 16/4/9 32/5/9 15/4/9
f 28/5/12 10/5/12 12/5/12
f 32/5/12 10/5/12 28/5/12
f 31/5/12 10/5/12 32/5/12
f 31/5/12 14/5/12 10/5/12
f 29/5/12 14/5/12 31/5/12
f 14/5/12 29/5/12 26/5/12
f 30/5/12 26/5/12 29/5/12
f 30/5/12 24/5/12 26/5/12
f 27/5/12 24/5/12 30/5/12
f 24/5/12 27/5/12 25/5/12

