# Created by Kenney (www.kenney.nl)

mtllib track-striped-wide-curve.mtl

g track-striped-wide-curve

v 0.9446592 0.3 0.6387544 1 1 1
v 0.7548609 0.3 1.286693 1 1 1
v 0.8462505 0.3 0.6209884 1 1 1
v 0.662509 0.3 1.248337 1 1 1
v -0.9251156 0.3 0.3012009 1 1 1
v -0.9251156 0.1 0.3012009 1 1 1
v -0.9998236 0.3 0.5579381 1 1 1
v -0.9998236 0.1 0.5579381 1 1 1
v 0.7548609 0 1.286693 1 1 1
v 0.9446592 0 0.6387544 1 1 1
v -1.092175 0 0.5195827 1 1 1
v -1.023524 0 0.2834349 1 1 1
v -1.023524 0.3 0.2834349 1 1 1
v -1.092175 0.3 0.5195827 1 1 1
v 0.8462505 0.1 0.6209884 1 1 1
v 0.662509 0.1 1.248337 1 1 1
v -1 0 3.33786E-06 1 1 1
v -1 0.3 3.33786E-06 1 1 1
v -0.8999996 0.3 3.33786E-06 1 1 1
v -0.8999996 0.1 3.33786E-06 1 1 1
v 0.8999996 0.1 6.198883E-06 1 1 1
v 0.8999996 0.3 6.198883E-06 1 1 1
v 1 0.3 6.198883E-06 1 1 1
v 1 0 6.198883E-06 1 1 1
v 0.4361277 0.3 1.871796 1 1 1
v 0.0613451 0.3 2.340949 1 1 1
v 0.3535442 0.3 1.815405 1 1 1
v -0.01263618 0.3 2.273668 1 1 1
v -1.132963 0.3 0.8003697 1 1 1
v -1.132963 0.1 0.8003697 1 1 1
v -1.344307 0.3 1.062613 1 1 1
v -1.344307 0.1 1.062613 1 1 1
v 0.0613451 0 2.340949 1 1 1
v 0.4361277 0 1.871796 1 1 1
v -1.418288 0 0.9953318 1 1 1
v -1.215548 0 0.743979 1 1 1
v -1.215548 0.3 0.743979 1 1 1
v -1.418288 0.3 0.9953318 1 1 1
v 0.3535442 0.1 1.815405 1 1 1
v -0.01263618 0.1 2.273668 1 1 1
v -0.2928934 0.3 2.707107 1 1 1
v -0.5817118 0.3 3.004668 1 1 1
v -0.3636036 0.3 2.636396 1 1 1
v -0.6556931 0.3 2.937387 1 1 1
v -1.636396 0.3 1.363604 1 1 1
v -1.636396 0.1 1.363604 1 1 1
v -1.987363 0.3 1.726332 1 1 1
v -1.987363 0.1 1.726332 1 1 1
v -0.5817118 0 3.004668 1 1 1
v -0.2928934 0 2.707107 1 1 1
v -2.061345 0 1.659051 1 1 1
v -1.707107 0 1.292893 1 1 1
v -1.707107 0.3 1.292893 1 1 1
v -2.061345 0.3 1.659051 1 1 1
v -0.3636036 0.1 2.636396 1 1 1
v -0.6556931 0.1 2.937387 1 1 1
v -0.7844524 0.3 3.256021 1 1 1
v -0.9078255 0.3 3.480417 1 1 1
v -0.8670368 0.3 3.19963 1 1 1
v -1.000176 0.3 3.442062 1 1 1
v -2.353544 0.3 2.184595 1 1 1
v -2.353544 0.1 2.184595 1 1 1
v -2.662509 0.3 2.751662 1 1 1
v -2.662509 0.1 2.751662 1 1 1
v -0.9078255 0 3.480417 1 1 1
v -0.7844524 0 3.256021 1 1 1
v -2.754861 0 2.713307 1 1 1
v -2.436128 0 2.128204 1 1 1
v -2.436128 0.3 2.128204 1 1 1
v -2.754861 0.3 2.713307 1 1 1
v -0.8670368 0.1 3.19963 1 1 1
v -1.000176 0.1 3.442062 1 1 1
v -0.9764757 0.3 3.716566 1 1 1
v -1 0.3 3.999997 1 1 1
v -1.074884 0.3 3.6988 1 1 1
v -1.1 0.3 3.999996 1 1 1
v -2.84625 0.3 3.379012 1 1 1
v -2.84625 0.1 3.379012 1 1 1
v -2.9 0.3 3.999994 1 1 1
v -2.9 0.1 3.999994 1 1 1
v -1 0 3.999997 1 1 1
v -0.9764757 0 3.716566 1 1 1
v -3 0 3.999993 1 1 1
v -2.944659 0 3.361246 1 1 1
v -2.944659 0.3 3.361246 1 1 1
v -3 0.3 3.999993 1 1 1
v -1.074884 0.1 3.6988 1 1 1
v -1.1 0.1 3.999996 1 1 1
v -0.9 0.3 0 1 1 1
v -1 0.3 0 1 1 1
v -0.9 0.1 0 1 1 1
v -1 0 0 1 1 1
v 1 0 0 1 1 1
v 0.9 0.1 0 1 1 1
v 1 0.3 0 1 1 1
v 0.9 0.3 0 1 1 1
v -0.1207107 0 -0.1707107 1 1 1
v -0.1207107 0.05000001 -0.1707107 1 1 1
v -0.15 0 -0.1 1 1 1
v -0.15 0.05000001 -0.1 1 1 1
v -0.05 0 -0.2 1 1 1
v -0.05 0.05000001 -0.2 1 1 1
v -0.05 0 7.219114E-16 1 1 1
v -0.05 0 -0.1 1 1 1
v -0.15 0 1.082867E-15 1 1 1
v 0.05 0 -0.2 1 1 1
v 0.05 0 -0.1 1 1 1
v 0.05 0 3.609557E-16 1 1 1
v 0.1207107 0 -0.1707107 1 1 1
v 0.15 0 -0.1 1 1 1
v 0.15 0 0 1 1 1
v 0.1207107 0.05000001 -0.1707107 1 1 1
v 0.15 0.05000001 -0.1 1 1 1
v 0.05 0.05000001 -0.2 1 1 1
v 0.15 0.05000001 0 1 1 1
v -0.15 0.05000001 1.082867E-15 1 1 1
v 0.05 0.05000001 -0.1 1 1 1
v 0.05 0.05000001 3.609557E-16 1 1 1
v -0.05 0.05000001 -0.1 1 1 1
v -0.05 0.05000001 7.219114E-16 1 1 1
v -1.1 0.3 4 1 1 1
v -1 0.3 4 1 1 1
v -1.1 0.1 4 1 1 1
v -1 0 4 1 1 1
v -3 0 4 1 1 1
v -2.9 0.1 4 1 1 1
v -3 0.3 4 1 1 1
v -2.9 0.3 4 1 1 1
v -1.879289 0 4.170711 1 1 1
v -1.879289 0.05000001 4.170711 1 1 1
v -1.85 0 4.1 1 1 1
v -1.85 0.05000001 4.1 1 1 1
v -1.95 0 4.2 1 1 1
v -1.95 0.05000001 4.2 1 1 1
v -1.95 0 4 1 1 1
v -1.95 0 4.1 1 1 1
v -1.85 0 4 1 1 1
v -2.05 0 4.2 1 1 1
v -2.05 0 4.1 1 1 1
v -2.05 0 4 1 1 1
v -2.120711 0 4.170711 1 1 1
v -2.15 0 4.1 1 1 1
v -2.15 0 4 1 1 1
v -2.120711 0.05000001 4.170711 1 1 1
v -2.15 0.05000001 4.1 1 1 1
v -2.05 0.05000001 4.2 1 1 1
v -2.15 0.05000001 4 1 1 1
v -1.85 0.05000001 4 1 1 1
v -2.05 0.05000001 4.1 1 1 1
v -2.05 0.05000001 4 1 1 1
v -1.95 0.05000001 4.1 1 1 1
v -1.95 0.05000001 4 1 1 1

vn 0.6958581 0.7071068 0.1256245
vn 0.6530259 0.7071068 0.2712143
vn -0.6958581 0.7071068 -0.1256245
vn -0.6530259 0.7071068 -0.2712143
vn 0.9840919 0 0.1776599
vn 0.923518 0 0.383555
vn 0 -1 0
vn -0.9840919 0 -0.1776599
vn -0.923518 0 -0.383555
vn 0 1 0
vn -1 0 -1.593189E-06
vn -0.7071068 0.7071068 -1.126555E-06
vn 0.7071068 0.7071068 1.126555E-06
vn 1 0 1.593189E-06
vn 0.5839552 0.7071068 0.3987434
vn 0.5231293 0.7071068 0.4757475
vn -0.5839552 0.7071068 -0.3987434
vn -0.5231293 0.7071068 -0.4757475
vn 0.8258374 0 0.5639083
vn 0.7398167 0 0.6728086
vn -0.8258374 0 -0.5639083
vn -0.7398167 0 -0.6728086
vn 0.5 0.7071068 0.5
vn 0.5231293 0.7071068 0.4757476
vn -0.5 0.7071068 -0.5
vn -0.5231293 0.7071068 -0.4757476
vn 0.7071067 0 0.7071068
vn 0.7398165 0 0.6728087
vn -0.7071067 0 -0.7071068
vn -0.7398165 0 -0.6728087
vn 0.5839552 0.7071068 0.3987435
vn 0.6530258 0.7071068 0.2712144
vn -0.5839552 0.7071068 -0.3987435
vn -0.6530258 0.7071068 -0.2712144
vn 0.8258373 0 0.5639084
vn 0.9235179 0 0.3835551
vn -0.8258373 0 -0.5639084
vn -0.9235179 0 -0.3835551
vn 0.6958581 0.7071068 0.1256246
vn 0.7071068 0.7071068 1.180114E-06
vn -0.6958581 0.7071068 -0.1256246
vn -0.7071068 0.7071068 -1.180114E-06
vn 0.9840919 0 0.1776599
vn 1 0 1.668933E-06
vn -0.9840919 0 -0.1776599
vn -1 0 -1.668933E-06
vn 0 0 -1
vn -0.7071068 0 -0.7071068
vn -0.9807853 0 -0.1950903
vn -0.1950903 0 -0.9807853
vn 0.7071068 0 -0.7071068
vn 0.9807853 0 -0.1950903
vn 0.1950903 0 -0.9807853
vn 1 0 0
vn -1 0 0
vn 0 0 1
vn 0.7071068 0 0.7071068
vn 0.9807853 0 0.1950903
vn 0.1950903 0 0.9807853
vn -0.7071068 0 0.7071068
vn -0.9807853 0 0.1950903
vn -0.1950903 0 0.9807853
vn -1 0 7.21645E-16
vn 1 0 -7.21645E-16
vn -7.21645E-16 0 -1

vt 0.59375 0.475
vt 0.59375 0.3416667
vt 0.59375 0.275
vt 0.59375 0.025
vt 0.59375 0.225
vt 0.59375 0.09166666
vt 0.34375 0.025
vt 0.34375 0.225

usemtl colormap

f 3/1/3 2/1/2 1/1/1
f 2/1/2 3/1/3 4/1/4
f 7/1/2 6/2/5 5/1/1
f 6/2/5 7/1/2 8/2/6
f 11/3/7 10/3/7 9/3/7
f 10/3/7 11/3/7 12/3/7
f 11/3/9 13/1/3 12/3/8
f 13/1/3 11/3/9 14/1/4
f 13/1/3 7/1/2 5/1/1
f 7/1/2 13/1/3 14/1/4
f 2/1/2 10/3/5 1/1/1
f 10/3/5 2/1/2 9/3/6
f 16/2/9 3/1/3 15/2/8
f 3/1/3 16/2/9 4/1/4
f 6/2/10 16/2/10 15/2/10
f 16/2/10 6/2/10 8/2/10
f 12/4/8 18/5/12 17/4/11
f 18/5/12 12/4/8 13/5/3
f 5/5/1 18/5/12 13/5/3
f 18/5/12 5/5/1 19/5/13
f 5/5/1 20/6/14 19/5/13
f 20/6/14 5/5/1 6/6/5
f 20/6/10 15/6/10 21/6/10
f 15/6/10 20/6/10 6/6/10
f 15/6/8 22/5/12 21/6/11
f 22/5/12 15/6/8 3/5/3
f 1/5/1 22/5/12 3/5/3
f 22/5/12 1/5/1 23/5/13
f 1/5/1 24/4/14 23/5/13
f 24/4/14 1/5/1 10/4/5
f 12/4/7 24/4/7 10/4/7
f 24/4/7 12/4/7 17/4/7
f 27/1/17 26/1/16 25/1/15
f 26/1/16 27/1/17 28/1/18
f 31/1/16 30/2/19 29/1/15
f 30/2/19 31/1/16 32/2/20
f 35/3/7 34/3/7 33/3/7
f 34/3/7 35/3/7 36/3/7
f 35/3/22 37/1/17 36/3/21
f 37/1/17 35/3/22 38/1/18
f 37/1/17 31/1/16 29/1/15
f 31/1/16 37/1/17 38/1/18
f 26/1/16 34/3/19 25/1/15
f 34/3/19 26/1/16 33/3/20
f 40/2/22 27/1/17 39/2/21
f 27/1/17 40/2/22 28/1/18
f 30/2/10 40/2/10 39/2/10
f 40/2/10 30/2/10 32/2/10
f 36/4/21 14/5/4 11/4/9
f 14/5/4 36/4/21 37/5/17
f 29/5/15 14/5/4 37/5/17
f 14/5/4 29/5/15 7/5/2
f 29/5/15 8/6/6 7/5/2
f 8/6/6 29/5/15 30/6/19
f 8/6/10 39/6/10 16/6/10
f 39/6/10 8/6/10 30/6/10
f 39/6/21 4/5/4 16/6/9
f 4/5/4 39/6/21 27/5/17
f 25/5/15 4/5/4 27/5/17
f 4/5/4 25/5/15 2/5/2
f 25/5/15 9/4/6 2/5/2
f 9/4/6 25/5/15 34/4/19
f 36/4/7 9/4/7 34/4/7
f 9/4/7 36/4/7 11/4/7
f 43/1/25 42/1/24 41/1/23
f 42/1/24 43/1/25 44/1/26
f 47/1/24 46/2/27 45/1/23
f 46/2/27 47/1/24 48/2/28
f 51/3/7 50/3/7 49/3/7
f 50/3/7 51/3/7 52/3/7
f 51/3/30 53/1/25 52/3/29
f 53/1/25 51/3/30 54/1/26
f 53/1/25 47/1/24 45/1/23
f 47/1/24 53/1/25 54/1/26
f 42/1/24 50/3/27 41/1/23
f 50/3/27 42/1/24 49/3/28
f 56/2/30 43/1/25 55/2/29
f 43/1/25 56/2/30 44/1/26
f 46/2/10 56/2/10 55/2/10
f 56/2/10 46/2/10 48/2/10
f 52/4/29 38/5/18 35/4/22
f 38/5/18 52/4/29 53/5/25
f 45/5/23 38/5/18 53/5/25
f 38/5/18 45/5/23 31/5/16
f 45/5/23 32/6/20 31/5/16
f 32/6/20 45/5/23 46/6/27
f 32/6/10 55/6/10 40/6/10
f 55/6/10 32/6/10 46/6/10
f 55/6/29 28/5/18 40/6/22
f 28/5/18 55/6/29 43/5/25
f 41/5/23 28/5/18 43/5/25
f 28/5/18 41/5/23 26/5/16
f 41/5/23 33/4/20 26/5/16
f 33/4/20 41/5/23 50/4/27
f 52/4/7 33/4/7 50/4/7
f 33/4/7 52/4/7 35/4/7
f 59/1/33 58/1/32 57/1/31
f 58/1/32 59/1/33 60/1/34
f 63/1/32 62/2/35 61/1/31
f 62/2/35 63/1/32 64/2/36
f 67/3/7 66/3/7 65/3/7
f 66/3/7 67/3/7 68/3/7
f 67/3/38 69/1/33 68/3/37
f 69/1/33 67/3/38 70/1/34
f 69/1/33 63/1/32 61/1/31
f 63/1/32 69/1/33 70/1/34
f 58/1/32 66/3/35 57/1/31
f 66/3/35 58/1/32 65/3/36
f 72/2/38 59/1/33 71/2/37
f 59/1/33 72/2/38 60/1/34
f 62/2/10 72/2/10 71/2/10
f 72/2/10 62/2/10 64/2/10
f 68/4/37 54/5/26 51/4/30
f 54/5/26 68/4/37 69/5/33
f 61/5/31 54/5/26 69/5/33
f 54/5/26 61/5/31 47/5/24
f 61/5/31 48/6/28 47/5/24
f 48/6/28 61/5/31 62/6/35
f 48/6/10 71/6/10 56/6/10
f 71/6/10 48/6/10 62/6/10
f 71/6/37 44/5/26 56/6/30
f 44/5/26 71/6/37 59/5/33
f 57/5/31 44/5/26 59/5/33
f 44/5/26 57/5/31 42/5/24
f 57/5/31 49/4/28 42/5/24
f 49/4/28 57/5/31 66/4/35
f 68/4/7 49/4/7 66/4/7
f 49/4/7 68/4/7 51/4/7
f 75/1/41 74/1/40 73/1/39
f 74/1/40 75/1/41 76/1/42
f 79/1/40 78/2/43 77/1/39
f 78/2/43 79/1/40 80/2/44
f 83/3/7 82/3/7 81/3/7
f 82/3/7 83/3/7 84/3/7
f 83/3/46 85/1/41 84/3/45
f 85/1/41 83/3/46 86/1/42
f 85/1/41 79/1/40 77/1/39
f 79/1/40 85/1/41 86/1/42
f 74/1/40 82/3/43 73/1/39
f 82/3/43 74/1/40 81/3/44
f 88/2/46 75/1/41 87/2/45
f 75/1/41 88/2/46 76/1/42
f 78/2/10 88/2/10 87/2/10
f 88/2/10 78/2/10 80/2/10
f 84/4/45 70/5/34 67/4/38
f 70/5/34 84/4/45 85/5/41
f 77/5/39 70/5/34 85/5/41
f 70/5/34 77/5/39 63/5/32
f 77/5/39 64/6/36 63/5/32
f 64/6/36 77/5/39 78/6/43
f 64/6/10 87/6/10 72/6/10
f 87/6/10 64/6/10 78/6/10
f 87/6/45 60/5/34 72/6/38
f 60/5/34 87/6/45 75/5/41
f 73/5/39 60/5/34 75/5/41
f 60/5/34 73/5/39 58/5/32
f 73/5/39 65/4/36 58/5/32
f 65/4/36 73/5/39 82/4/43
f 84/4/7 65/4/7 82/4/7
f 65/4/7 84/4/7 67/4/7
f 91/6/47 90/5/47 89/5/47
f 91/6/47 92/4/47 90/5/47
f 92/4/47 91/6/47 93/4/47
f 94/6/47 93/4/47 91/6/47
f 93/4/47 94/6/47 95/5/47
f 95/5/47 94/6/47 96/5/47
f 99/7/49 98/8/48 97/7/48
f 98/8/48 99/7/49 100/8/49
f 98/8/48 101/7/50 97/7/48
f 101/7/50 98/8/48 102/8/50
f 105/7/7 104/7/7 103/7/7
f 104/7/7 105/7/7 101/7/7
f 101/7/7 105/7/7 97/7/7
f 97/7/7 105/7/7 99/7/7
f 106/7/7 104/7/7 101/7/7
f 106/7/7 107/7/7 104/7/7
f 106/7/7 108/7/7 107/7/7
f 109/7/7 108/7/7 106/7/7
f 110/7/7 108/7/7 109/7/7
f 108/7/7 110/7/7 111/7/7
f 113/8/52 109/7/51 112/8/51
f 109/7/51 113/8/52 110/7/52
f 114/8/53 109/7/51 106/7/53
f 109/7/51 114/8/53 112/8/51
f 115/8/54 110/7/52 113/8/52
f 110/7/52 115/8/54 111/7/54
f 105/7/55 100/8/49 99/7/49
f 100/8/49 105/7/55 116/8/55
f 102/8/50 106/7/53 101/7/50
f 106/7/53 102/8/50 114/8/53
f 108/7/55 117/8/55 107/7/55
f 117/8/55 108/7/55 118/8/55
f 117/8/56 104/7/56 107/7/56
f 104/7/56 117/8/56 119/8/56
f 120/8/54 104/7/54 119/8/54
f 104/7/54 120/8/54 103/7/54
f 116/8/10 98/8/10 100/8/10
f 120/8/10 98/8/10 116/8/10
f 119/8/10 98/8/10 120/8/10
f 119/8/10 102/8/10 98/8/10
f 117/8/10 102/8/10 119/8/10
f 102/8/10 117/8/10 114/8/10
f 118/8/10 114/8/10 117/8/10
f 118/8/10 112/8/10 114/8/10
f 115/8/10 112/8/10 118/8/10
f 112/8/10 115/8/10 113/8/10
f 123/2/56 122/1/56 121/1/56
f 123/2/56 124/3/56 122/1/56
f 124/3/56 123/2/56 125/3/56
f 126/2/56 125/3/56 123/2/56
f 125/3/56 126/2/56 127/1/56
f 127/1/56 126/2/56 128/1/56
f 131/7/58 130/8/57 129/7/57
f 130/8/57 131/7/58 132/8/58
f 130/8/57 133/7/59 129/7/57
f 133/7/59 130/8/57 134/8/59
f 137/7/7 136/7/7 135/7/7
f 136/7/7 137/7/7 133/7/7
f 133/7/7 137/7/7 129/7/7
f 129/7/7 137/7/7 131/7/7
f 138/7/7 136/7/7 133/7/7
f 138/7/7 139/7/7 136/7/7
f 138/7/7 140/7/7 139/7/7
f 141/7/7 140/7/7 138/7/7
f 142/7/7 140/7/7 141/7/7
f 140/7/7 142/7/7 143/7/7
f 145/8/61 141/7/60 144/8/60
f 141/7/60 145/8/61 142/7/61
f 146/8/62 141/7/60 138/7/62
f 141/7/60 146/8/62 144/8/60
f 147/8/63 142/7/61 145/8/61
f 142/7/61 147/8/63 143/7/63
f 137/7/64 132/8/58 131/7/58
f 132/8/58 137/7/64 148/8/64
f 134/8/59 138/7/62 133/7/59
f 138/7/62 134/8/59 146/8/62
f 140/7/64 149/8/64 139/7/64
f 149/8/64 140/7/64 150/8/64
f 149/8/65 136/7/65 139/7/65
f 136/7/65 149/8/65 151/8/65
f 152/8/63 136/7/63 151/8/63
f 136/7/63 152/8/63 135/7/63
f 148/8/10 130/8/10 132/8/10
f 152/8/10 130/8/10 148/8/10
f 151/8/10 130/8/10 152/8/10
f 151/8/10 134/8/10 130/8/10
f 149/8/10 134/8/10 151/8/10
f 134/8/10 149/8/10 146/8/10
f 150/8/10 146/8/10 149/8/10
f 150/8/10 144/8/10 146/8/10
f 147/8/10 144/8/10 150/8/10
f 144/8/10 147/8/10 145/8/10

g track-striped-wide-curve




usemtl colormap

f 3/1/3 2/1/2 1/1/1
f 2/1/2 3/1/3 4/1/4
f 7/1/2 6/2/5 5/1/1
f 6/2/5 7/1/2 8/2/6
f 11/3/7 10/3/7 9/3/7
f 10/3/7 11/3/7 12/3/7
f 11/3/9 13/1/3 12/3/8
f 13/1/3 11/3/9 14/1/4
f 13/1/3 7/1/2 5/1/1
f 7/1/2 13/1/3 14/1/4
f 2/1/2 10/3/5 1/1/1
f 10/3/5 2/1/2 9/3/6
f 16/2/9 3/1/3 15/2/8
f 3/1/3 16/2/9 4/1/4
f 6/2/10 16/2/10 15/2/10
f 16/2/10 6/2/10 8/2/10
f 12/4/8 18/5/12 17/4/11
f 18/5/12 12/4/8 13/5/3
f 5/5/1 18/5/12 13/5/3
f 18/5/12 5/5/1 19/5/13
f 5/5/1 20/6/14 19/5/13
f 20/6/14 5/5/1 6/6/5
f 20/6/10 15/6/10 21/6/10
f 15/6/10 20/6/10 6/6/10
f 15/6/8 22/5/12 21/6/11
f 22/5/12 15/6/8 3/5/3
f 1/5/1 22/5/12 3/5/3
f 22/5/12 1/5/1 23/5/13
f 1/5/1 24/4/14 23/5/13
f 24/4/14 1/5/1 10/4/5
f 12/4/7 24/4/7 10/4/7
f 24/4/7 12/4/7 17/4/7
f 27/1/17 26/1/16 25/1/15
f 26/1/16 27/1/17 28/1/18
f 31/1/16 30/2/19 29/1/15
f 30/2/19 31/1/16 32/2/20
f 35/3/7 34/3/7 33/3/7
f 34/3/7 35/3/7 36/3/7
f 35/3/22 37/1/17 36/3/21
f 37/1/17 35/3/22 38/1/18
f 37/1/17 31/1/16 29/1/15
f 31/1/16 37/1/17 38/1/18
f 26/1/16 34/3/19 25/1/15
f 34/3/19 26/1/16 33/3/20
f 40/2/22 27/1/17 39/2/21
f 27/1/17 40/2/22 28/1/18
f 30/2/10 40/2/10 39/2/10
f 40/2/10 30/2/10 32/2/10
f 36/4/21 14/5/4 11/4/9
f 14/5/4 36/4/21 37/5/17
f 29/5/15 14/5/4 37/5/17
f 14/5/4 29/5/15 7/5/2
f 29/5/15 8/6/6 7/5/2
f 8/6/6 29/5/15 30/6/19
f 8/6/10 39/6/10 16/6/10
f 39/6/10 8/6/10 30/6/10
f 39/6/21 4/5/4 16/6/9
f 4/5/4 39/6/21 27/5/17
f 25/5/15 4/5/4 27/5/17
f 4/5/4 25/5/15 2/5/2
f 25/5/15 9/4/6 2/5/2
f 9/4/6 25/5/15 34/4/19
f 36/4/7 9/4/7 34/4/7
f 9/4/7 36/4/7 11/4/7
f 43/1/25 42/1/24 41/1/23
f 42/1/24 43/1/25 44/1/26
f 47/1/24 46/2/27 45/1/23
f 46/2/27 47/1/24 48/2/28
f 51/3/7 50/3/7 49/3/7
f 50/3/7 51/3/7 52/3/7
f 51/3/30 53/1/25 52/3/29
f 53/1/25 51/3/30 54/1/26
f 53/1/25 47/1/24 45/1/23
f 47/1/24 53/1/25 54/1/26
f 42/1/24 50/3/27 41/1/23
f 50/3/27 42/1/24 49/3/28
f 56/2/30 43/1/25 55/2/29
f 43/1/25 56/2/30 44/1/26
f 46/2/10 56/2/10 55/2/10
f 56/2/10 46/2/10 48/2/10
f 52/4/29 38/5/18 35/4/22
f 38/5/18 52/4/29 53/5/25
f 45/5/23 38/5/18 53/5/25
f 38/5/18 45/5/23 31/5/16
f 45/5/23 32/6/20 31/5/16
f 32/6/20 45/5/23 46/6/27
f 32/6/10 55/6/10 40/6/10
f 55/6/10 32/6/10 46/6/10
f 55/6/29 28/5/18 40/6/22
f 28/5/18 55/6/29 43/5/25
f 41/5/23 28/5/18 43/5/25
f 28/5/18 41/5/23 26/5/16
f 41/5/23 33/4/20 26/5/16
f 33/4/20 41/5/23 50/4/27
f 52/4/7 33/4/7 50/4/7
f 33/4/7 52/4/7 35/4/7
f 59/1/33 58/1/32 57/1/31
f 58/1/32 59/1/33 60/1/34
f 63/1/32 62/2/35 61/1/31
f 62/2/35 63/1/32 64/2/36
f 67/3/7 66/3/7 65/3/7
f 66/3/7 67/3/7 68/3/7
f 67/3/38 69/1/33 68/3/37
f 69/1/33 67/3/38 70/1/34
f 69/1/33 63/1/32 61/1/31
f 63/1/32 69/1/33 70/1/34
f 58/1/32 66/3/35 57/1/31
f 66/3/35 58/1/32 65/3/36
f 72/2/38 59/1/33 71/2/37
f 59/1/33 72/2/38 60/1/34
f 62/2/10 72/2/10 71/2/10
f 72/2/10 62/2/10 64/2/10
f 68/4/37 54/5/26 51/4/30
f 54/5/26 68/4/37 69/5/33
f 61/5/31 54/5/26 69/5/33
f 54/5/26 61/5/31 47/5/24
f 61/5/31 48/6/28 47/5/24
f 48/6/28 61/5/31 62/6/35
f 48/6/10 71/6/10 56/6/10
f 71/6/10 48/6/10 62/6/10
f 71/6/37 44/5/26 56/6/30
f 44/5/26 71/6/37 59/5/33
f 57/5/31 44/5/26 59/5/33
f 44/5/26 57/5/31 42/5/24
f 57/5/31 49/4/28 42/5/24
f 49/4/28 57/5/31 66/4/35
f 68/4/7 49/4/7 66/4/7
f 49/4/7 68/4/7 51/4/7
f 75/1/41 74/1/40 73/1/39
f 74/1/40 75/1/41 76/1/42
f 79/1/40 78/2/43 77/1/39
f 78/2/43 79/1/40 80/2/44
f 83/3/7 82/3/7 81/3/7
f 82/3/7 83/3/7 84/3/7
f 83/3/46 85/1/41 84/3/45
f 85/1/41 83/3/46 86/1/42
f 85/1/41 79/1/40 77/1/39
f 79/1/40 85/1/41 86/1/42
f 74/1/40 82/3/43 73/1/39
f 82/3/43 74/1/40 81/3/44
f 88/2/46 75/1/41 87/2/45
f 75/1/41 88/2/46 76/1/42
f 78/2/10 88/2/10 87/2/10
f 88/2/10 78/2/10 80/2/10
f 84/4/45 70/5/34 67/4/38
f 70/5/34 84/4/45 85/5/41
f 77/5/39 70/5/34 85/5/41
f 70/5/34 77/5/39 63/5/32
f 77/5/39 64/6/36 63/5/32
f 64/6/36 77/5/39 78/6/43
f 64/6/10 87/6/10 72/6/10
f 87/6/10 64/6/10 78/6/10
f 87/6/45 60/5/34 72/6/38
f 60/5/34 87/6/45 75/5/41
f 73/5/39 60/5/34 75/5/41
f 60/5/34 73/5/39 58/5/32
f 73/5/39 65/4/36 58/5/32
f 65/4/36 73/5/39 82/4/43
f 84/4/7 65/4/7 82/4/7
f 65/4/7 84/4/7 67/4/7
f 91/6/47 90/5/47 89/5/47
f 91/6/47 92/4/47 90/5/47
f 92/4/47 91/6/47 93/4/47
f 94/6/47 93/4/47 91/6/47
f 93/4/47 94/6/47 95/5/47
f 95/5/47 94/6/47 96/5/47
f 99/7/49 98/8/48 97/7/48
f 98/8/48 99/7/49 100/8/49
f 98/8/48 101/7/50 97/7/48
f 101/7/50 98/8/48 102/8/50
f 105/7/7 104/7/7 103/7/7
f 104/7/7 105/7/7 101/7/7
f 101/7/7 105/7/7 97/7/7
f 97/7/7 105/7/7 99/7/7
f 106/7/7 104/7/7 101/7/7
f 106/7/7 107/7/7 104/7/7
f 106/7/7 108/7/7 107/7/7
f 109/7/7 108/7/7 106/7/7
f 110/7/7 108/7/7 109/7/7
f 108/7/7 110/7/7 111/7/7
f 113/8/52 109/7/51 112/8/51
f 109/7/51 113/8/52 110/7/52
f 114/8/53 109/7/51 106/7/53
f 109/7/51 114/8/53 112/8/51
f 115/8/54 110/7/52 113/8/52
f 110/7/52 115/8/54 111/7/54
f 105/7/55 100/8/49 99/7/49
f 100/8/49 105/7/55 116/8/55
f 102/8/50 106/7/53 101/7/50
f 106/7/53 102/8/50 114/8/53
f 108/7/55 117/8/55 107/7/55
f 117/8/55 108/7/55 118/8/55
f 117/8/56 104/7/56 107/7/56
f 104/7/56 117/8/56 119/8/56
f 120/8/54 104/7/54 119/8/54
f 104/7/54 120/8/54 103/7/54
f 116/8/10 98/8/10 100/8/10
f 120/8/10 98/8/10 116/8/10
f 119/8/10 98/8/10 120/8/10
f 119/8/10 102/8/10 98/8/10
f 117/8/10 102/8/10 119/8/10
f 102/8/10 117/8/10 114/8/10
f 118/8/10 114/8/10 117/8/10
f 118/8/10 112/8/10 114/8/10
f 115/8/10 112/8/10 118/8/10
f 112/8/10 115/8/10 113/8/10
f 123/2/56 122/1/56 121/1/56
f 123/2/56 124/3/56 122/1/56
f 124/3/56 123/2/56 125/3/56
f 126/2/56 125/3/56 123/2/56
f 125/3/56 126/2/56 127/1/56
f 127/1/56 126/2/56 128/1/56
f 131/7/58 130/8/57 129/7/57
f 130/8/57 131/7/58 132/8/58
f 130/8/57 133/7/59 129/7/57
f 133/7/59 130/8/57 134/8/59
f 137/7/7 136/7/7 135/7/7
f 136/7/7 137/7/7 133/7/7
f 133/7/7 137/7/7 129/7/7
f 129/7/7 137/7/7 131/7/7
f 138/7/7 136/7/7 133/7/7
f 138/7/7 139/7/7 136/7/7
f 138/7/7 140/7/7 139/7/7
f 141/7/7 140/7/7 138/7/7
f 142/7/7 140/7/7 141/7/7
f 140/7/7 142/7/7 143/7/7
f 145/8/61 141/7/60 144/8/60
f 141/7/60 145/8/61 142/7/61
f 146/8/62 141/7/60 138/7/62
f 141/7/60 146/8/62 144/8/60
f 147/8/63 142/7/61 145/8/61
f 142/7/61 147/8/63 143/7/63
f 137/7/64 132/8/58 131/7/58
f 132/8/58 137/7/64 148/8/64
f 134/8/59 138/7/62 133/7/59
f 138/7/62 134/8/59 146/8/62
f 140/7/64 149/8/64 139/7/64
f 149/8/64 140/7/64 150/8/64
f 149/8/65 136/7/65 139/7/65
f 136/7/65 149/8/65 151/8/65
f 152/8/63 136/7/63 151/8/63
f 136/7/63 152/8/63 135/7/63
f 148/8/10 130/8/10 132/8/10
f 152/8/10 130/8/10 148/8/10
f 151/8/10 130/8/10 152/8/10
f 151/8/10 134/8/10 130/8/10
f 149/8/10 134/8/10 151/8/10
f 134/8/10 149/8/10 146/8/10
f 150/8/10 146/8/10 149/8/10
f 150/8/10 144/8/10 146/8/10
f 147/8/10 144/8/10 150/8/10
f 144/8/10 147/8/10 145/8/10

