# Created by Kenney (www.kenney.nl)

mtllib track-road-narrow-straight.mtl

g track-road-narrow-straight

v 0.5 0 0.9987755 1 1 1
v 0.5 0 0.4981065 1 1 1
v -0.5 0 0.9987755 1 1 1
v -0.5 0 0.4981065 1 1 1
v -0.5 0.3 0.4981065 1 1 1
v -0.5 0.3 0.9987755 1 1 1
v 0.4000001 0.1 0.4981065 1 1 1
v 0.4000001 0.3 0.4981065 1 1 1
v 0.4000001 0.1 0.9987755 1 1 1
v 0.4000001 0.3 0.9987755 1 1 1
v -0.4 0.3 0.4981065 1 1 1
v -0.4 0.3 0.9987755 1 1 1
v 0.5 0.3 0.4981065 1 1 1
v 0.5 0.3 0.9987755 1 1 1
v -0.4 0.1 0.4981065 1 1 1
v -0.4 0.1 0.9987755 1 1 1
v 0.5 0 0 1 1 1
v -0.5 0 0 1 1 1
v 0.4000001 0.1 0 1 1 1
v 0.4000001 0.3 0 1 1 1
v 0.5 0.3 0 1 1 1
v -0.5 0.3 0 1 1 1
v -0.4 0.3 0 1 1 1
v -0.4 0.1 0 1 1 1
v 0.2 0.1 0.9987755 1 1 1
v 0.2 0.1 0.4981065 1 1 1
v 0.3 0.1 0.9987755 1 1 1
v 0.3 0.1 0.4981065 1 1 1
v 0.2 0.1 0 1 1 1
v 0.3 0.1 0 1 1 1
v -0.2 0.1 0 1 1 1
v -0.2 0.1 0.4981065 1 1 1
v -0.3 0.1 0 1 1 1
v -0.3 0.1 0.4981065 1 1 1
v -0.2 0.1 0.9987755 1 1 1
v -0.3 0.1 0.9987755 1 1 1
v 0.5 0 2 1 1 1
v 0.5 0 1.499881 1 1 1
v -0.5 0 2 1 1 1
v -0.5 0 1.499881 1 1 1
v -0.5 0.3 1.499881 1 1 1
v -0.5 0.3 2 1 1 1
v 0.4000001 0.1 1.499881 1 1 1
v 0.4000001 0.3 1.499881 1 1 1
v 0.4000001 0.1 2 1 1 1
v 0.4000001 0.3 2 1 1 1
v -0.4 0.3 1.499881 1 1 1
v -0.4 0.3 2 1 1 1
v 0.5 0.3 1.499881 1 1 1
v 0.5 0.3 2 1 1 1
v -0.4 0.1 1.499881 1 1 1
v -0.4 0.1 2 1 1 1
v 0.2 0.1 2 1 1 1
v 0.2 0.1 1.499881 1 1 1
v 0.3 0.1 2 1 1 1
v 0.3 0.1 1.499881 1 1 1
v -0.2 0.1 1.499881 1 1 1
v -0.3 0.1 1.499881 1 1 1
v -0.2 0.1 2 1 1 1
v -0.3 0.1 2 1 1 1
v 0.5 0 3.001224 1 1 1
v 0.5 0 2.500119 1 1 1
v -0.5 0 3.001224 1 1 1
v -0.5 0 2.500119 1 1 1
v -0.5 0.3 2.500119 1 1 1
v -0.5 0.3 3.001224 1 1 1
v 0.4000001 0.1 2.500119 1 1 1
v 0.4000001 0.3 2.500119 1 1 1
v 0.4000001 0.1 3.001224 1 1 1
v 0.4000001 0.3 3.001224 1 1 1
v -0.4 0.3 2.500119 1 1 1
v -0.4 0.3 3.001224 1 1 1
v 0.5 0.3 2.500119 1 1 1
v 0.5 0.3 3.001224 1 1 1
v -0.4 0.1 2.500119 1 1 1
v -0.4 0.1 3.001224 1 1 1
v 0.2 0.1 3.001224 1 1 1
v 0.2 0.1 2.500119 1 1 1
v 0.3 0.1 3.001224 1 1 1
v 0.3 0.1 2.500119 1 1 1
v -0.2 0.1 2.500119 1 1 1
v -0.3 0.1 2.500119 1 1 1
v -0.2 0.1 3.001224 1 1 1
v -0.3 0.1 3.001224 1 1 1
v 0.5 0 4 1 1 1
v 0.5 0 3.501894 1 1 1
v -0.5 0 4 1 1 1
v -0.5 0 3.501894 1 1 1
v -0.5 0.3 3.501894 1 1 1
v -0.5 0.3 4 1 1 1
v 0.4000001 0.1 3.501894 1 1 1
v 0.4000001 0.3 3.501894 1 1 1
v 0.4000001 0.1 4 1 1 1
v 0.4000001 0.3 4 1 1 1
v -0.4 0.3 3.501894 1 1 1
v -0.4 0.3 4 1 1 1
v 0.5 0.3 3.501894 1 1 1
v 0.5 0.3 4 1 1 1
v -0.4 0.1 3.501894 1 1 1
v -0.4 0.1 4 1 1 1
v 0.2 0.1 4 1 1 1
v 0.2 0.1 3.501894 1 1 1
v 0.3 0.1 4 1 1 1
v 0.3 0.1 3.501894 1 1 1
v -0.2 0.1 3.501894 1 1 1
v -0.3 0.1 3.501894 1 1 1
v -0.2 0.1 4 1 1 1
v -0.3 0.1 4 1 1 1
v -0.4 0 7.219114E-16 1 1 1
v -0.5 0.3 0 1 1 1
v -0.4 0.1 0 1 1 1
v -0.4 0.3 0 1 1 1
v 0.2 0 7.219114E-16 1 1 1
v 0.3 0 7.219114E-16 1 1 1
v 0.2 0.1 7.219114E-16 1 1 1
v 0.3 0.1 7.219114E-16 1 1 1
v -0.3 0 7.219114E-16 1 1 1
v -0.2 0 7.219114E-16 1 1 1
v -0.3 0.1 7.219114E-16 1 1 1
v -0.2 0.1 7.219114E-16 1 1 1
v 0.4 0 7.219114E-16 1 1 1
v 0.4 0.1 0 1 1 1
v 0.5 0.3 0 1 1 1
v 0.4 0.3 0 1 1 1
v -0.1207107 0 -0.1707107 1 1 1
v -0.1207107 0.05000001 -0.1707107 1 1 1
v -0.15 0 -0.1 1 1 1
v -0.15 0.05000001 -0.1 1 1 1
v -0.05 0 -0.2 1 1 1
v -0.05 0.05000001 -0.2 1 1 1
v -0.05 0 7.219114E-16 1 1 1
v -0.05 0 -0.1 1 1 1
v -0.15 0 1.082867E-15 1 1 1
v 0.05 0 -0.2 1 1 1
v 0.05 0 -0.1 1 1 1
v 0.05 0 3.609557E-16 1 1 1
v 0.1207107 0 -0.1707107 1 1 1
v 0.15 0 -0.1 1 1 1
v 0.15 0 0 1 1 1
v 0.1207107 0.05000001 -0.1707107 1 1 1
v 0.15 0.05000001 -0.1 1 1 1
v 0.05 0.05000001 -0.2 1 1 1
v 0.15 0.05000001 0 1 1 1
v -0.15 0.05000001 1.082867E-15 1 1 1
v 0.05 0.05000001 -0.1 1 1 1
v 0.05 0.05000001 3.609557E-16 1 1 1
v -0.05 0.05000001 -0.1 1 1 1
v -0.05 0.05000001 7.219114E-16 1 1 1
v 0.3 0 3.609557E-16 1 1 1
v 0.4 0 3.609557E-16 1 1 1
v 0.3 0.1 3.609557E-16 1 1 1
v 0.4 0.1 -3.609557E-16 1 1 1
v -0.4 0 3.609557E-16 1 1 1
v -0.3 0 3.609557E-16 1 1 1
v -0.4 0.1 -3.609557E-16 1 1 1
v -0.3 0.1 3.609557E-16 1 1 1
v -0.2 0 3.609557E-16 1 1 1
v 0.2 0 3.609557E-16 1 1 1
v -0.2 0.1 3.609557E-16 1 1 1
v 0.2 0.1 3.609557E-16 1 1 1
v 0.4 0 4 1 1 1
v 0.5 0.3 4 1 1 1
v 0.4 0.1 4 1 1 1
v 0.4 0.3 4 1 1 1
v -0.4 0 4 1 1 1
v -0.4 0.1 4 1 1 1
v -0.5 0.3 4 1 1 1
v -0.4 0.3 4 1 1 1
v -0.2 0 4 1 1 1
v -0.3 0 4 1 1 1
v -0.2 0.1 4 1 1 1
v -0.3 0.1 4 1 1 1
v 0.3 0 4 1 1 1
v 0.2 0 4 1 1 1
v 0.3 0.1 4 1 1 1
v 0.2 0.1 4 1 1 1
v 0.1207107 0 4.170711 1 1 1
v 0.1207107 0.05000001 4.170711 1 1 1
v 0.15 0 4.1 1 1 1
v 0.15 0.05000001 4.1 1 1 1
v 0.05 0 4.2 1 1 1
v 0.05 0.05000001 4.2 1 1 1
v 0.05 0 4 1 1 1
v 0.05 0 4.1 1 1 1
v 0.15 0 4 1 1 1
v -0.05 0 4.2 1 1 1
v -0.05 0 4.1 1 1 1
v -0.05 0 4 1 1 1
v -0.1207107 0 4.170711 1 1 1
v -0.15 0 4.1 1 1 1
v -0.15 0 4 1 1 1
v -0.1207107 0.05000001 4.170711 1 1 1
v -0.15 0.05000001 4.1 1 1 1
v -0.05 0.05000001 4.2 1 1 1
v -0.15 0.05000001 4 1 1 1
v 0.15 0.05000001 4 1 1 1
v -0.05 0.05000001 4.1 1 1 1
v -0.05 0.05000001 4 1 1 1
v 0.05 0.05000001 4.1 1 1 1
v 0.05 0.05000001 4 1 1 1

vn 0 -1 0
vn -1 0 0
vn -0.7071068 0.7071068 0
vn 0.7071068 0.7071068 0
vn 1 0 0
vn 0 1 0
vn 0 0 -1
vn -0.7071068 0 -0.7071068
vn -0.9807853 0 -0.1950903
vn -0.1950903 0 -0.9807853
vn 0.7071068 0 -0.7071068
vn 0.9807853 0 -0.1950903
vn 0.1950903 0 -0.9807853
vn 0 0 1
vn 0.7071068 0 0.7071068
vn 0.9807853 0 0.1950903
vn 0.1950903 0 0.9807853
vn -0.7071068 0 0.7071068
vn -0.9807853 0 0.1950903
vn -0.1950903 0 0.9807853
vn -1 0 7.21645E-16
vn 1 0 -7.21645E-16
vn -7.21645E-16 0 -1

vt 0.59375 0.275
vt 0.59375 0.475
vt 0.59375 0.3416667
vt 0.59375 0.025
vt 0.59375 0.09166666
vt 0.59375 0.225
vt 0.21875 0.025
vt 0.34375 0.025
vt 0.34375 0.225
vt 0.21875 0.075
vt 0.21875 0.175

usemtl colormap

f 3/1/1 2/1/1 1/1/1
f 2/1/1 3/1/1 4/1/1
f 3/1/2 5/2/3 4/1/2
f 5/2/3 3/1/2 6/2/3
f 9/3/2 8/2/3 7/3/2
f 8/2/3 9/3/2 10/2/3
f 5/2/3 12/2/4 11/2/4
f 12/2/4 5/2/3 6/2/3
f 8/2/3 14/2/4 13/2/4
f 14/2/4 8/2/3 10/2/3
f 12/2/4 15/3/5 11/2/4
f 15/3/5 12/2/4 16/3/5
f 14/2/4 2/1/5 13/2/4
f 2/1/5 14/2/4 1/1/5
f 4/4/1 17/4/1 2/4/1
f 17/4/1 4/4/1 18/4/1
f 7/5/2 20/6/3 19/5/2
f 20/6/3 7/5/2 8/6/3
f 13/6/4 20/6/3 8/6/3
f 20/6/3 13/6/4 21/6/4
f 13/6/4 17/4/5 21/6/4
f 17/4/5 13/6/4 2/4/5
f 4/4/2 22/6/3 18/4/2
f 22/6/3 4/4/2 5/6/3
f 11/6/4 22/6/3 5/6/3
f 22/6/3 11/6/4 23/6/4
f 11/6/4 24/5/5 23/6/4
f 24/5/5 11/6/4 15/5/5
f 27/4/6 26/4/6 25/4/6
f 26/4/6 27/4/6 28/4/6
f 28/4/6 29/4/6 26/4/6
f 29/4/6 28/4/6 30/4/6
f 33/4/6 32/4/6 31/4/6
f 32/4/6 33/4/6 34/4/6
f 34/4/6 35/4/6 32/4/6
f 35/4/6 34/4/6 36/4/6
f 25/7/6 32/7/6 35/7/6
f 32/7/6 25/7/6 26/7/6
f 26/7/6 31/7/6 32/7/6
f 31/7/6 26/7/6 29/7/6
f 30/7/6 7/7/6 19/7/6
f 7/7/6 30/7/6 28/7/6
f 28/7/6 9/7/6 7/7/6
f 9/7/6 28/7/6 27/7/6
f 36/7/6 15/7/6 16/7/6
f 15/7/6 36/7/6 34/7/6
f 34/7/6 24/7/6 15/7/6
f 24/7/6 34/7/6 33/7/6
f 39/1/1 38/1/1 37/1/1
f 38/1/1 39/1/1 40/1/1
f 39/1/2 41/2/3 40/1/2
f 41/2/3 39/1/2 42/2/3
f 45/3/2 44/2/3 43/3/2
f 44/2/3 45/3/2 46/2/3
f 41/2/3 48/2/4 47/2/4
f 48/2/4 41/2/3 42/2/3
f 44/2/3 50/2/4 49/2/4
f 50/2/4 44/2/3 46/2/3
f 48/2/4 51/3/5 47/2/4
f 51/3/5 48/2/4 52/3/5
f 50/2/4 38/1/5 49/2/4
f 38/1/5 50/2/4 37/1/5
f 40/4/1 1/4/1 38/4/1
f 1/4/1 40/4/1 3/4/1
f 43/5/2 10/6/3 9/5/2
f 10/6/3 43/5/2 44/6/3
f 49/6/4 10/6/3 44/6/3
f 10/6/3 49/6/4 14/6/4
f 49/6/4 1/4/5 14/6/4
f 1/4/5 49/6/4 38/4/5
f 40/4/2 6/6/3 3/4/2
f 6/6/3 40/4/2 41/6/3
f 47/6/4 6/6/3 41/6/3
f 6/6/3 47/6/4 12/6/4
f 47/6/4 16/5/5 12/6/4
f 16/5/5 47/6/4 51/5/5
f 55/4/6 54/4/6 53/4/6
f 54/4/6 55/4/6 56/4/6
f 56/4/6 25/4/6 54/4/6
f 25/4/6 56/4/6 27/4/6
f 36/4/6 57/4/6 35/4/6
f 57/4/6 36/4/6 58/4/6
f 58/4/6 59/4/6 57/4/6
f 59/4/6 58/4/6 60/4/6
f 53/7/6 57/7/6 59/7/6
f 57/7/6 53/7/6 54/7/6
f 54/7/6 35/7/6 57/7/6
f 35/7/6 54/7/6 25/7/6
f 27/7/6 43/7/6 9/7/6
f 43/7/6 27/7/6 56/7/6
f 56/7/6 45/7/6 43/7/6
f 45/7/6 56/7/6 55/7/6
f 60/7/6 51/7/6 52/7/6
f 51/7/6 60/7/6 58/7/6
f 58/7/6 16/7/6 51/7/6
f 16/7/6 58/7/6 36/7/6
f 63/1/1 62/1/1 61/1/1
f 62/1/1 63/1/1 64/1/1
f 63/1/2 65/2/3 64/1/2
f 65/2/3 63/1/2 66/2/3
f 69/3/2 68/2/3 67/3/2
f 68/2/3 69/3/2 70/2/3
f 65/2/3 72/2/4 71/2/4
f 72/2/4 65/2/3 66/2/3
f 68/2/3 74/2/4 73/2/4
f 74/2/4 68/2/3 70/2/3
f 72/2/4 75/3/5 71/2/4
f 75/3/5 72/2/4 76/3/5
f 74/2/4 62/1/5 73/2/4
f 62/1/5 74/2/4 61/1/5
f 64/4/1 37/4/1 62/4/1
f 37/4/1 64/4/1 39/4/1
f 67/5/2 46/6/3 45/5/2
f 46/6/3 67/5/2 68/6/3
f 73/6/4 46/6/3 68/6/3
f 46/6/3 73/6/4 50/6/4
f 73/6/4 37/4/5 50/6/4
f 37/4/5 73/6/4 62/4/5
f 64/4/2 42/6/3 39/4/2
f 42/6/3 64/4/2 65/6/3
f 71/6/4 42/6/3 65/6/3
f 42/6/3 71/6/4 48/6/4
f 71/6/4 52/5/5 48/6/4
f 52/5/5 71/6/4 75/5/5
f 79/4/6 78/4/6 77/4/6
f 78/4/6 79/4/6 80/4/6
f 80/4/6 53/4/6 78/4/6
f 53/4/6 80/4/6 55/4/6
f 60/4/6 81/4/6 59/4/6
f 81/4/6 60/4/6 82/4/6
f 82/4/6 83/4/6 81/4/6
f 83/4/6 82/4/6 84/4/6
f 77/7/6 81/7/6 83/7/6
f 81/7/6 77/7/6 78/7/6
f 78/7/6 59/7/6 81/7/6
f 59/7/6 78/7/6 53/7/6
f 55/7/6 67/7/6 45/7/6
f 67/7/6 55/7/6 80/7/6
f 80/7/6 69/7/6 67/7/6
f 69/7/6 80/7/6 79/7/6
f 84/7/6 75/7/6 76/7/6
f 75/7/6 84/7/6 82/7/6
f 82/7/6 52/7/6 75/7/6
f 52/7/6 82/7/6 60/7/6
f 87/1/1 86/1/1 85/1/1
f 86/1/1 87/1/1 88/1/1
f 87/1/2 89/2/3 88/1/2
f 89/2/3 87/1/2 90/2/3
f 93/3/2 92/2/3 91/3/2
f 92/2/3 93/3/2 94/2/3
f 89/2/3 96/2/4 95/2/4
f 96/2/4 89/2/3 90/2/3
f 92/2/3 98/2/4 97/2/4
f 98/2/4 92/2/3 94/2/3
f 96/2/4 99/3/5 95/2/4
f 99/3/5 96/2/4 100/3/5
f 98/2/4 86/1/5 97/2/4
f 86/1/5 98/2/4 85/1/5
f 88/4/1 61/4/1 86/4/1
f 61/4/1 88/4/1 63/4/1
f 91/5/2 70/6/3 69/5/2
f 70/6/3 91/5/2 92/6/3
f 97/6/4 70/6/3 92/6/3
f 70/6/3 97/6/4 74/6/4
f 97/6/4 61/4/5 74/6/4
f 61/4/5 97/6/4 86/4/5
f 88/4/2 66/6/3 63/4/2
f 66/6/3 88/4/2 89/6/3
f 95/6/4 66/6/3 89/6/3
f 66/6/3 95/6/4 72/6/4
f 95/6/4 76/5/5 72/6/4
f 76/5/5 95/6/4 99/5/5
f 103/4/6 102/4/6 101/4/6
f 102/4/6 103/4/6 104/4/6
f 104/4/6 77/4/6 102/4/6
f 77/4/6 104/4/6 79/4/6
f 84/4/6 105/4/6 83/4/6
f 105/4/6 84/4/6 106/4/6
f 106/4/6 107/4/6 105/4/6
f 107/4/6 106/4/6 108/4/6
f 101/7/6 105/7/6 107/7/6
f 105/7/6 101/7/6 102/7/6
f 102/7/6 83/7/6 105/7/6
f 83/7/6 102/7/6 77/7/6
f 79/7/6 91/7/6 69/7/6
f 91/7/6 79/7/6 104/7/6
f 104/7/6 93/7/6 91/7/6
f 93/7/6 104/7/6 103/7/6
f 108/7/6 99/7/6 100/7/6
f 99/7/6 108/7/6 106/7/6
f 106/7/6 76/7/6 99/7/6
f 76/7/6 106/7/6 84/7/6
f 110/6/7 109/4/7 18/4/7
f 109/4/7 110/6/7 111/5/7
f 111/5/7 110/6/7 112/6/7
f 115/5/7 114/4/7 113/4/7
f 114/4/7 115/5/7 116/5/7
f 119/5/7 118/4/7 117/4/7
f 118/4/7 119/5/7 120/5/7
f 122/5/7 17/4/7 121/4/7
f 17/4/7 122/5/7 123/6/7
f 123/6/7 122/5/7 124/6/7
f 127/8/9 126/9/8 125/8/8
f 126/9/8 127/8/9 128/9/9
f 126/9/8 129/8/10 125/8/8
f 129/8/10 126/9/8 130/9/10
f 133/8/1 132/8/1 131/8/1
f 132/8/1 133/8/1 129/8/1
f 129/8/1 133/8/1 125/8/1
f 125/8/1 133/8/1 127/8/1
f 134/8/1 132/8/1 129/8/1
f 134/8/1 135/8/1 132/8/1
f 134/8/1 136/8/1 135/8/1
f 137/8/1 136/8/1 134/8/1
f 138/8/1 136/8/1 137/8/1
f 136/8/1 138/8/1 139/8/1
f 141/9/12 137/8/11 140/9/11
f 137/8/11 141/9/12 138/8/12
f 142/9/13 137/8/11 134/8/13
f 137/8/11 142/9/13 140/9/11
f 143/9/5 138/8/12 141/9/12
f 138/8/12 143/9/5 139/8/5
f 133/8/2 128/9/9 127/8/9
f 128/9/9 133/8/2 144/9/2
f 130/9/10 134/8/13 129/8/10
f 134/8/13 130/9/10 142/9/13
f 136/8/2 145/9/2 135/8/2
f 145/9/2 136/8/2 146/9/2
f 145/9/14 132/8/14 135/8/14
f 132/8/14 145/9/14 147/9/14
f 148/9/5 132/8/5 147/9/5
f 132/8/5 148/9/5 131/8/5
f 144/9/6 126/9/6 128/9/6
f 148/9/6 126/9/6 144/9/6
f 147/9/6 126/9/6 148/9/6
f 147/9/6 130/9/6 126/9/6
f 145/9/6 130/9/6 147/9/6
f 130/9/6 145/9/6 142/9/6
f 146/9/6 142/9/6 145/9/6
f 146/9/6 140/9/6 142/9/6
f 143/9/6 140/9/6 146/9/6
f 140/9/6 143/9/6 141/9/6
f 151/11/7 150/10/7 149/10/7
f 150/10/7 151/11/7 152/11/7
f 155/11/7 154/10/7 153/10/7
f 154/10/7 155/11/7 156/11/7
f 159/11/7 158/10/7 157/10/7
f 158/10/7 159/11/7 160/11/7
f 162/2/14 161/1/14 85/1/14
f 161/1/14 162/2/14 163/3/14
f 163/3/14 162/2/14 164/2/14
f 166/3/14 87/1/14 165/1/14
f 87/1/14 166/3/14 167/2/14
f 167/2/14 166/3/14 168/2/14
f 171/5/14 170/4/14 169/4/14
f 170/4/14 171/5/14 172/5/14
f 175/5/14 174/4/14 173/4/14
f 174/4/14 175/5/14 176/5/14
f 179/8/16 178/9/15 177/8/15
f 178/9/15 179/8/16 180/9/16
f 178/9/15 181/8/17 177/8/15
f 181/8/17 178/9/15 182/9/17
f 185/8/1 184/8/1 183/8/1
f 184/8/1 185/8/1 181/8/1
f 181/8/1 185/8/1 177/8/1
f 177/8/1 185/8/1 179/8/1
f 186/8/1 184/8/1 181/8/1
f 186/8/1 187/8/1 184/8/1
f 186/8/1 188/8/1 187/8/1
f 189/8/1 188/8/1 186/8/1
f 190/8/1 188/8/1 189/8/1
f 188/8/1 190/8/1 191/8/1
f 193/9/19 189/8/18 192/9/18
f 189/8/18 193/9/19 190/8/19
f 194/9/20 189/8/18 186/8/20
f 189/8/18 194/9/20 192/9/18
f 195/9/21 190/8/19 193/9/19
f 190/8/19 195/9/21 191/8/21
f 185/8/22 180/9/16 179/8/16
f 180/9/16 185/8/22 196/9/22
f 182/9/17 186/8/20 181/8/17
f 186/8/20 182/9/17 194/9/20
f 188/8/22 197/9/22 187/8/22
f 197/9/22 188/8/22 198/9/22
f 197/9/23 184/8/23 187/8/23
f 184/8/23 197/9/23 199/9/23
f 200/9/21 184/8/21 199/9/21
f 184/8/21 200/9/21 183/8/21
f 196/9/6 178/9/6 180/9/6
f 200/9/6 178/9/6 196/9/6
f 199/9/6 178/9/6 200/9/6
f 199/9/6 182/9/6 178/9/6
f 197/9/6 182/9/6 199/9/6
f 182/9/6 197/9/6 194/9/6
f 198/9/6 194/9/6 197/9/6
f 198/9/6 192/9/6 194/9/6
f 195/9/6 192/9/6 198/9/6
f 192/9/6 195/9/6 193/9/6
f 163/11/14 173/10/14 161/10/14
f 173/10/14 163/11/14 175/11/14
f 172/11/14 165/10/14 170/10/14
f 165/10/14 172/11/14 166/11/14
f 176/11/14 169/10/14 174/10/14
f 169/10/14 176/11/14 171/11/14

g track-road-narrow-straight




usemtl colormap

f 3/1/1 2/1/1 1/1/1
f 2/1/1 3/1/1 4/1/1
f 3/1/2 5/2/3 4/1/2
f 5/2/3 3/1/2 6/2/3
f 9/3/2 8/2/3 7/3/2
f 8/2/3 9/3/2 10/2/3
f 5/2/3 12/2/4 11/2/4
f 12/2/4 5/2/3 6/2/3
f 8/2/3 14/2/4 13/2/4
f 14/2/4 8/2/3 10/2/3
f 12/2/4 15/3/5 11/2/4
f 15/3/5 12/2/4 16/3/5
f 14/2/4 2/1/5 13/2/4
f 2/1/5 14/2/4 1/1/5
f 4/4/1 17/4/1 2/4/1
f 17/4/1 4/4/1 18/4/1
f 7/5/2 20/6/3 19/5/2
f 20/6/3 7/5/2 8/6/3
f 13/6/4 20/6/3 8/6/3
f 20/6/3 13/6/4 21/6/4
f 13/6/4 17/4/5 21/6/4
f 17/4/5 13/6/4 2/4/5
f 4/4/2 22/6/3 18/4/2
f 22/6/3 4/4/2 5/6/3
f 11/6/4 22/6/3 5/6/3
f 22/6/3 11/6/4 23/6/4
f 11/6/4 24/5/5 23/6/4
f 24/5/5 11/6/4 15/5/5
f 27/4/6 26/4/6 25/4/6
f 26/4/6 27/4/6 28/4/6
f 28/4/6 29/4/6 26/4/6
f 29/4/6 28/4/6 30/4/6
f 33/4/6 32/4/6 31/4/6
f 32/4/6 33/4/6 34/4/6
f 34/4/6 35/4/6 32/4/6
f 35/4/6 34/4/6 36/4/6
f 25/7/6 32/7/6 35/7/6
f 32/7/6 25/7/6 26/7/6
f 26/7/6 31/7/6 32/7/6
f 31/7/6 26/7/6 29/7/6
f 30/7/6 7/7/6 19/7/6
f 7/7/6 30/7/6 28/7/6
f 28/7/6 9/7/6 7/7/6
f 9/7/6 28/7/6 27/7/6
f 36/7/6 15/7/6 16/7/6
f 15/7/6 36/7/6 34/7/6
f 34/7/6 24/7/6 15/7/6
f 24/7/6 34/7/6 33/7/6
f 39/1/1 38/1/1 37/1/1
f 38/1/1 39/1/1 40/1/1
f 39/1/2 41/2/3 40/1/2
f 41/2/3 39/1/2 42/2/3
f 45/3/2 44/2/3 43/3/2
f 44/2/3 45/3/2 46/2/3
f 41/2/3 48/2/4 47/2/4
f 48/2/4 41/2/3 42/2/3
f 44/2/3 50/2/4 49/2/4
f 50/2/4 44/2/3 46/2/3
f 48/2/4 51/3/5 47/2/4
f 51/3/5 48/2/4 52/3/5
f 50/2/4 38/1/5 49/2/4
f 38/1/5 50/2/4 37/1/5
f 40/4/1 1/4/1 38/4/1
f 1/4/1 40/4/1 3/4/1
f 43/5/2 10/6/3 9/5/2
f 10/6/3 43/5/2 44/6/3
f 49/6/4 10/6/3 44/6/3
f 10/6/3 49/6/4 14/6/4
f 49/6/4 1/4/5 14/6/4
f 1/4/5 49/6/4 38/4/5
f 40/4/2 6/6/3 3/4/2
f 6/6/3 40/4/2 41/6/3
f 47/6/4 6/6/3 41/6/3
f 6/6/3 47/6/4 12/6/4
f 47/6/4 16/5/5 12/6/4
f 16/5/5 47/6/4 51/5/5
f 55/4/6 54/4/6 53/4/6
f 54/4/6 55/4/6 56/4/6
f 56/4/6 25/4/6 54/4/6
f 25/4/6 56/4/6 27/4/6
f 36/4/6 57/4/6 35/4/6
f 57/4/6 36/4/6 58/4/6
f 58/4/6 59/4/6 57/4/6
f 59/4/6 58/4/6 60/4/6
f 53/7/6 57/7/6 59/7/6
f 57/7/6 53/7/6 54/7/6
f 54/7/6 35/7/6 57/7/6
f 35/7/6 54/7/6 25/7/6
f 27/7/6 43/7/6 9/7/6
f 43/7/6 27/7/6 56/7/6
f 56/7/6 45/7/6 43/7/6
f 45/7/6 56/7/6 55/7/6
f 60/7/6 51/7/6 52/7/6
f 51/7/6 60/7/6 58/7/6
f 58/7/6 16/7/6 51/7/6
f 16/7/6 58/7/6 36/7/6
f 63/1/1 62/1/1 61/1/1
f 62/1/1 63/1/1 64/1/1
f 63/1/2 65/2/3 64/1/2
f 65/2/3 63/1/2 66/2/3
f 69/3/2 68/2/3 67/3/2
f 68/2/3 69/3/2 70/2/3
f 65/2/3 72/2/4 71/2/4
f 72/2/4 65/2/3 66/2/3
f 68/2/3 74/2/4 73/2/4
f 74/2/4 68/2/3 70/2/3
f 72/2/4 75/3/5 71/2/4
f 75/3/5 72/2/4 76/3/5
f 74/2/4 62/1/5 73/2/4
f 62/1/5 74/2/4 61/1/5
f 64/4/1 37/4/1 62/4/1
f 37/4/1 64/4/1 39/4/1
f 67/5/2 46/6/3 45/5/2
f 46/6/3 67/5/2 68/6/3
f 73/6/4 46/6/3 68/6/3
f 46/6/3 73/6/4 50/6/4
f 73/6/4 37/4/5 50/6/4
f 37/4/5 73/6/4 62/4/5
f 64/4/2 42/6/3 39/4/2
f 42/6/3 64/4/2 65/6/3
f 71/6/4 42/6/3 65/6/3
f 42/6/3 71/6/4 48/6/4
f 71/6/4 52/5/5 48/6/4
f 52/5/5 71/6/4 75/5/5
f 79/4/6 78/4/6 77/4/6
f 78/4/6 79/4/6 80/4/6
f 80/4/6 53/4/6 78/4/6
f 53/4/6 80/4/6 55/4/6
f 60/4/6 81/4/6 59/4/6
f 81/4/6 60/4/6 82/4/6
f 82/4/6 83/4/6 81/4/6
f 83/4/6 82/4/6 84/4/6
f 77/7/6 81/7/6 83/7/6
f 81/7/6 77/7/6 78/7/6
f 78/7/6 59/7/6 81/7/6
f 59/7/6 78/7/6 53/7/6
f 55/7/6 67/7/6 45/7/6
f 67/7/6 55/7/6 80/7/6
f 80/7/6 69/7/6 67/7/6
f 69/7/6 80/7/6 79/7/6
f 84/7/6 75/7/6 76/7/6
f 75/7/6 84/7/6 82/7/6
f 82/7/6 52/7/6 75/7/6
f 52/7/6 82/7/6 60/7/6
f 87/1/1 86/1/1 85/1/1
f 86/1/1 87/1/1 88/1/1
f 87/1/2 89/2/3 88/1/2
f 89/2/3 87/1/2 90/2/3
f 93/3/2 92/2/3 91/3/2
f 92/2/3 93/3/2 94/2/3
f 89/2/3 96/2/4 95/2/4
f 96/2/4 89/2/3 90/2/3
f 92/2/3 98/2/4 97/2/4
f 98/2/4 92/2/3 94/2/3
f 96/2/4 99/3/5 95/2/4
f 99/3/5 96/2/4 100/3/5
f 98/2/4 86/1/5 97/2/4
f 86/1/5 98/2/4 85/1/5
f 88/4/1 61/4/1 86/4/1
f 61/4/1 88/4/1 63/4/1
f 91/5/2 70/6/3 69/5/2
f 70/6/3 91/5/2 92/6/3
f 97/6/4 70/6/3 92/6/3
f 70/6/3 97/6/4 74/6/4
f 97/6/4 61/4/5 74/6/4
f 61/4/5 97/6/4 86/4/5
f 88/4/2 66/6/3 63/4/2
f 66/6/3 88/4/2 89/6/3
f 95/6/4 66/6/3 89/6/3
f 66/6/3 95/6/4 72/6/4
f 95/6/4 76/5/5 72/6/4
f 76/5/5 95/6/4 99/5/5
f 103/4/6 102/4/6 101/4/6
f 102/4/6 103/4/6 104/4/6
f 104/4/6 77/4/6 102/4/6
f 77/4/6 104/4/6 79/4/6
f 84/4/6 105/4/6 83/4/6
f 105/4/6 84/4/6 106/4/6
f 106/4/6 107/4/6 105/4/6
f 107/4/6 106/4/6 108/4/6
f 101/7/6 105/7/6 107/7/6
f 105/7/6 101/7/6 102/7/6
f 102/7/6 83/7/6 105/7/6
f 83/7/6 102/7/6 77/7/6
f 79/7/6 91/7/6 69/7/6
f 91/7/6 79/7/6 104/7/6
f 104/7/6 93/7/6 91/7/6
f 93/7/6 104/7/6 103/7/6
f 108/7/6 99/7/6 100/7/6
f 99/7/6 108/7/6 106/7/6
f 106/7/6 76/7/6 99/7/6
f 76/7/6 106/7/6 84/7/6
f 110/6/7 109/4/7 18/4/7
f 109/4/7 110/6/7 111/5/7
f 111/5/7 110/6/7 112/6/7
f 115/5/7 114/4/7 113/4/7
f 114/4/7 115/5/7 116/5/7
f 119/5/7 118/4/7 117/4/7
f 118/4/7 119/5/7 120/5/7
f 122/5/7 17/4/7 121/4/7
f 17/4/7 122/5/7 123/6/7
f 123/6/7 122/5/7 124/6/7
f 127/8/9 126/9/8 125/8/8
f 126/9/8 127/8/9 128/9/9
f 126/9/8 129/8/10 125/8/8
f 129/8/10 126/9/8 130/9/10
f 133/8/1 132/8/1 131/8/1
f 132/8/1 133/8/1 129/8/1
f 129/8/1 133/8/1 125/8/1
f 125/8/1 133/8/1 127/8/1
f 134/8/1 132/8/1 129/8/1
f 134/8/1 135/8/1 132/8/1
f 134/8/1 136/8/1 135/8/1
f 137/8/1 136/8/1 134/8/1
f 138/8/1 136/8/1 137/8/1
f 136/8/1 138/8/1 139/8/1
f 141/9/12 137/8/11 140/9/11
f 137/8/11 141/9/12 138/8/12
f 142/9/13 137/8/11 134/8/13
f 137/8/11 142/9/13 140/9/11
f 143/9/5 138/8/12 141/9/12
f 138/8/12 143/9/5 139/8/5
f 133/8/2 128/9/9 127/8/9
f 128/9/9 133/8/2 144/9/2
f 130/9/10 134/8/13 129/8/10
f 134/8/13 130/9/10 142/9/13
f 136/8/2 145/9/2 135/8/2
f 145/9/2 136/8/2 146/9/2
f 145/9/14 132/8/14 135/8/14
f 132/8/14 145/9/14 147/9/14
f 148/9/5 132/8/5 147/9/5
f 132/8/5 148/9/5 131/8/5
f 144/9/6 126/9/6 128/9/6
f 148/9/6 126/9/6 144/9/6
f 147/9/6 126/9/6 148/9/6
f 147/9/6 130/9/6 126/9/6
f 145/9/6 130/9/6 147/9/6
f 130/9/6 145/9/6 142/9/6
f 146/9/6 142/9/6 145/9/6
f 146/9/6 140/9/6 142/9/6
f 143/9/6 140/9/6 146/9/6
f 140/9/6 143/9/6 141/9/6
f 151/11/7 150/10/7 149/10/7
f 150/10/7 151/11/7 152/11/7
f 155/11/7 154/10/7 153/10/7
f 154/10/7 155/11/7 156/11/7
f 159/11/7 158/10/7 157/10/7
f 158/10/7 159/11/7 160/11/7
f 162/2/14 161/1/14 85/1/14
f 161/1/14 162/2/14 163/3/14
f 163/3/14 162/2/14 164/2/14
f 166/3/14 87/1/14 165/1/14
f 87/1/14 166/3/14 167/2/14
f 167/2/14 166/3/14 168/2/14
f 171/5/14 170/4/14 169/4/14
f 170/4/14 171/5/14 172/5/14
f 175/5/14 174/4/14 173/4/14
f 174/4/14 175/5/14 176/5/14
f 179/8/16 178/9/15 177/8/15
f 178/9/15 179/8/16 180/9/16
f 178/9/15 181/8/17 177/8/15
f 181/8/17 178/9/15 182/9/17
f 185/8/1 184/8/1 183/8/1
f 184/8/1 185/8/1 181/8/1
f 181/8/1 185/8/1 177/8/1
f 177/8/1 185/8/1 179/8/1
f 186/8/1 184/8/1 181/8/1
f 186/8/1 187/8/1 184/8/1
f 186/8/1 188/8/1 187/8/1
f 189/8/1 188/8/1 186/8/1
f 190/8/1 188/8/1 189/8/1
f 188/8/1 190/8/1 191/8/1
f 193/9/19 189/8/18 192/9/18
f 189/8/18 193/9/19 190/8/19
f 194/9/20 189/8/18 186/8/20
f 189/8/18 194/9/20 192/9/18
f 195/9/21 190/8/19 193/9/19
f 190/8/19 195/9/21 191/8/21
f 185/8/22 180/9/16 179/8/16
f 180/9/16 185/8/22 196/9/22
f 182/9/17 186/8/20 181/8/17
f 186/8/20 182/9/17 194/9/20
f 188/8/22 197/9/22 187/8/22
f 197/9/22 188/8/22 198/9/22
f 197/9/23 184/8/23 187/8/23
f 184/8/23 197/9/23 199/9/23
f 200/9/21 184/8/21 199/9/21
f 184/8/21 200/9/21 183/8/21
f 196/9/6 178/9/6 180/9/6
f 200/9/6 178/9/6 196/9/6
f 199/9/6 178/9/6 200/9/6
f 199/9/6 182/9/6 178/9/6
f 197/9/6 182/9/6 199/9/6
f 182/9/6 197/9/6 194/9/6
f 198/9/6 194/9/6 197/9/6
f 198/9/6 192/9/6 194/9/6
f 195/9/6 192/9/6 198/9/6
f 192/9/6 195/9/6 193/9/6
f 163/11/14 173/10/14 161/10/14
f 173/10/14 163/11/14 175/11/14
f 172/11/14 165/10/14 170/10/14
f 165/10/14 172/11/14 166/11/14
f 176/11/14 169/10/14 174/10/14
f 169/10/14 176/11/14 171/11/14

