# Created by Kenney (www.kenney.nl)

mtllib track-striped-wide-corner-small.mtl

g track-striped-wide-corner-small

v 0.9239841 0.3 0.6208317 1 1 1
v 0.7253439 0.3 1.176298 1 1 1
v 0.8268452 0.3 0.5970817 1 1 1
v 0.6350195 0.3 1.133385 1 1 1
v -0.9216521 0.3 0.1695807 1 1 1
v -0.9216521 0.1 0.1695807 1 1 1
v -0.990819 0.3 0.3609542 1 1 1
v -0.990819 0.1 0.3609542 1 1 1
v 0.7253439 0 1.176298 1 1 1
v 0.9239841 0 0.6208317 1 1 1
v -1.081143 0 0.3180413 1 1 1
v -1.018791 0 0.1458306 1 1 1
v -1.018791 0.3 0.1458306 1 1 1
v -1.081143 0.3 0.3180413 1 1 1
v 0.8268452 0.1 0.5970817 1 1 1
v 0.6350195 0.1 1.133385 1 1 1
v -1 0 1.072884E-06 1 1 1
v -1 0.3 1.072884E-06 1 1 1
v -0.9 0.3 1.192093E-06 1 1 1
v -0.9 0.1 1.192093E-06 1 1 1
v 0.9000001 0.1 5.00679E-06 1 1 1
v 0.9000001 0.3 5.00679E-06 1 1 1
v 1 0.3 5.125999E-06 1 1 1
v 1 0 5.125999E-06 1 1 1
v 0.4385679 0.3 1.66196 1 1 1
v 0.08210635 0.3 2.082107 1 1 1
v 0.3572383 0.3 1.603776 1 1 1
v 0.01139569 0.3 2.011396 1 1 1
v -1.106695 0.3 0.5564451 1 1 1
v -1.106695 0.1 0.5564451 1 1 1
v -1.261396 0.3 0.7386039 1 1 1
v -1.261396 0.1 0.7386039 1 1 1
v 0.08210635 0 2.082107 1 1 1
v 0.4385679 0 1.66196 1 1 1
v -1.332107 0 0.6678932 1 1 1
v -1.188024 0 0.4982603 1 1 1
v -1.188024 0.3 0.4982603 1 1 1
v -1.332107 0.3 0.6678932 1 1 1
v 0.3572383 0.1 1.603776 1 1 1
v 0.01139569 0.1 2.011396 1 1 1
v -0.3380405 0.3 2.438569 1 1 1
v -0.8237031 0.3 2.725344 1 1 1
v -0.3962255 0.3 2.357239 1 1 1
v -0.8666158 0.3 2.63502 1 1 1
v -1.443555 0.3 0.8933053 1 1 1
v -1.443555 0.1 0.8933053 1 1 1
v -1.639046 0.3 1.009181 1 1 1
v -1.639046 0.1 1.009181 1 1 1
v -0.8237031 0 2.725344 1 1 1
v -0.3380405 0 2.438569 1 1 1
v -1.681959 0 0.9188567 1 1 1
v -1.50174 0 0.8119756 1 1 1
v -1.50174 0.3 0.8119756 1 1 1
v -1.681959 0.3 0.9188567 1 1 1
v -0.3962255 0.1 2.357239 1 1 1
v -0.8666158 0.1 2.63502 1 1 1
v -1.379168 0.3 2.923984 1 1 1
v -1.999995 0.3 3 1 1 1
v -1.402918 0.3 2.826845 1 1 1
v -1.999995 0.3 2.9 1 1 1
v -1.830419 0.3 1.078348 1 1 1
v -1.830419 0.1 1.078348 1 1 1
v -1.999999 0.3 1.1 1 1 1
v -1.999999 0.1 1.1 1 1 1
v -1.999995 0 3 1 1 1
v -1.379168 0 2.923984 1 1 1
v -1.999999 0 1 1 1 1
v -1.854169 0 0.981209 1 1 1
v -1.854169 0.3 0.981209 1 1 1
v -1.999999 0.3 1 1 1 1
v -1.402918 0.1 2.826845 1 1 1
v -1.999995 0.1 2.9 1 1 1
v -0.9 0.3 0 1 1 1
v -1 0.3 0 1 1 1
v -0.9 0.1 0 1 1 1
v -1 0 0 1 1 1
v 1 0 0 1 1 1
v 0.9 0.1 0 1 1 1
v 1 0.3 0 1 1 1
v 0.9 0.3 0 1 1 1
v -0.1207107 0 -0.1707107 1 1 1
v -0.1207107 0.05000001 -0.1707107 1 1 1
v -0.15 0 -0.1 1 1 1
v -0.15 0.05000001 -0.1 1 1 1
v -0.05 0 -0.2 1 1 1
v -0.05 0.05000001 -0.2 1 1 1
v -0.05 0 7.219114E-16 1 1 1
v -0.05 0 -0.1 1 1 1
v -0.15 0 1.082867E-15 1 1 1
v 0.05 0 -0.2 1 1 1
v 0.05 0 -0.1 1 1 1
v 0.05 0 3.609557E-16 1 1 1
v 0.1207107 0 -0.1707107 1 1 1
v 0.15 0 -0.1 1 1 1
v 0.15 0 0 1 1 1
v 0.1207107 0.05000001 -0.1707107 1 1 1
v 0.15 0.05000001 -0.1 1 1 1
v 0.05 0.05000001 -0.2 1 1 1
v 0.15 0.05000001 0 1 1 1
v -0.15 0.05000001 1.082867E-15 1 1 1
v 0.05 0.05000001 -0.1 1 1 1
v 0.05 0.05000001 3.609557E-16 1 1 1
v -0.05 0.05000001 -0.1 1 1 1
v -0.05 0.05000001 7.219114E-16 1 1 1
v -2 0.3 2.9 1 1 1
v -2 0.3 3 1 1 1
v -2 0.1 2.9 1 1 1
v -2 0 3 1 1 1
v -2 0 1 1 1 1
v -2 0.1 1.1 1 1 1
v -2 0.3 1 1 1 1
v -2 0.3 1.1 1 1 1
v -2.170711 0 2.120711 1 1 1
v -2.170711 0.05000001 2.120711 1 1 1
v -2.1 0 2.15 1 1 1
v -2.1 0.05000001 2.15 1 1 1
v -2.2 0 2.05 1 1 1
v -2.2 0.05000001 2.05 1 1 1
v -2 0 2.05 1 1 1
v -2.1 0 2.05 1 1 1
v -2 0 2.15 1 1 1
v -2.2 0 1.95 1 1 1
v -2.1 0 1.95 1 1 1
v -2 0 1.95 1 1 1
v -2.170711 0 1.879289 1 1 1
v -2.1 0 1.85 1 1 1
v -2 0 1.85 1 1 1
v -2.170711 0.05000001 1.879289 1 1 1
v -2.1 0.05000001 1.85 1 1 1
v -2.2 0.05000001 1.95 1 1 1
v -2 0.05000001 1.85 1 1 1
v -2 0.05000001 2.15 1 1 1
v -2.1 0.05000001 1.95 1 1 1
v -2 0.05000001 1.95 1 1 1
v -2.1 0.05000001 2.05 1 1 1
v -2 0.05000001 2.05 1 1 1

vn 0.6868746 0.7071068 0.1679382
vn 0.6386897 0.7071068 0.3034394
vn -0.6868746 0.7071068 -0.1679382
vn -0.6386897 0.7071068 -0.3034394
vn 0.9713874 0 0.2375005
vn 0.9032437 0 0.4291281
vn 0 -1 0
vn -0.9713874 0 -0.2375005
vn -0.9032437 0 -0.4291281
vn 0 1 0
vn -1 0 -2.06452E-06
vn -0.7071068 0.7071068 -1.459836E-06
vn 0.7071068 0.7071068 1.459836E-06
vn 1 0 2.06452E-06
vn 0.5750871 0.7071068 0.4114302
vn 0.4999999 0.7071068 0.5000001
vn -0.5750871 0.7071068 -0.4114302
vn -0.4999999 0.7071068 -0.5000001
vn 0.8132961 0 0.5818501
vn 0.7071066 0 0.7071069
vn -0.8132961 0 -0.5818501
vn -0.7071066 0 -0.7071069
vn 0.4114299 0.7071068 0.5750874
vn 0.3034393 0.7071068 0.6386897
vn -0.4114299 0.7071068 -0.5750874
vn -0.3034393 0.7071068 -0.6386897
vn 0.5818497 0 0.8132964
vn 0.429128 0 0.9032437
vn -0.5818497 0 -0.8132964
vn -0.429128 0 -0.9032437
vn 0.1679382 0.7071068 0.6868747
vn 1.549721E-06 0.7071068 0.7071067
vn -0.1679382 0.7071068 -0.6868747
vn -1.549721E-06 0.7071068 -0.7071067
vn 0.2375005 0 0.9713874
vn 2.205372E-06 0 0.9999999
vn -0.2375005 0 -0.9713874
vn -2.205372E-06 0 -0.9999999
vn 0 0 -1
vn -0.7071068 0 -0.7071068
vn -0.9807853 0 -0.1950903
vn -0.1950903 0 -0.9807853
vn 0.7071068 0 -0.7071068
vn 0.9807853 0 -0.1950903
vn 0.1950903 0 -0.9807853
vn 1 0 0
vn -1 0 0
vn 0 0 1
vn -0.9999999 0 3.576279E-07
vn -0.7071065 0 0.7071069
vn -0.19509 0 0.9807853
vn -0.9807851 0 0.1950907
vn -0.7071069 0 -0.7071065
vn -0.1950907 0 -0.9807851
vn -0.9807853 0 -0.19509
vn -3.576279E-07 0 -0.9999999
vn 3.576279E-07 0 0.9999999
vn 0.9999999 0 -3.576279E-07

vt 0.59375 0.475
vt 0.59375 0.3416667
vt 0.59375 0.275
vt 0.59375 0.025
vt 0.59375 0.225
vt 0.59375 0.09166666
vt 0.34375 0.025
vt 0.34375 0.225

usemtl colormap

f 3/1/3 2/1/2 1/1/1
f 2/1/2 3/1/3 4/1/4
f 7/1/2 6/2/5 5/1/1
f 6/2/5 7/1/2 8/2/6
f 11/3/7 10/3/7 9/3/7
f 10/3/7 11/3/7 12/3/7
f 11/3/9 13/1/3 12/3/8
f 13/1/3 11/3/9 14/1/4
f 13/1/3 7/1/2 5/1/1
f 7/1/2 13/1/3 14/1/4
f 2/1/2 10/3/5 1/1/1
f 10/3/5 2/1/2 9/3/6
f 16/2/9 3/1/3 15/2/8
f 3/1/3 16/2/9 4/1/4
f 6/2/10 16/2/10 15/2/10
f 16/2/10 6/2/10 8/2/10
f 12/4/8 18/5/12 17/4/11
f 18/5/12 12/4/8 13/5/3
f 5/5/1 18/5/12 13/5/3
f 18/5/12 5/5/1 19/5/13
f 5/5/1 20/6/14 19/5/13
f 20/6/14 5/5/1 6/6/5
f 20/6/10 15/6/10 21/6/10
f 15/6/10 20/6/10 6/6/10
f 15/6/8 22/5/12 21/6/11
f 22/5/12 15/6/8 3/5/3
f 1/5/1 22/5/12 3/5/3
f 22/5/12 1/5/1 23/5/13
f 1/5/1 24/4/14 23/5/13
f 24/4/14 1/5/1 10/4/5
f 12/4/7 24/4/7 10/4/7
f 24/4/7 12/4/7 17/4/7
f 27/1/17 26/1/16 25/1/15
f 26/1/16 27/1/17 28/1/18
f 31/1/16 30/2/19 29/1/15
f 30/2/19 31/1/16 32/2/20
f 35/3/7 34/3/7 33/3/7
f 34/3/7 35/3/7 36/3/7
f 35/3/22 37/1/17 36/3/21
f 37/1/17 35/3/22 38/1/18
f 37/1/17 31/1/16 29/1/15
f 31/1/16 37/1/17 38/1/18
f 26/1/16 34/3/19 25/1/15
f 34/3/19 26/1/16 33/3/20
f 40/2/22 27/1/17 39/2/21
f 27/1/17 40/2/22 28/1/18
f 30/2/10 40/2/10 39/2/10
f 40/2/10 30/2/10 32/2/10
f 36/4/21 14/5/4 11/4/9
f 14/5/4 36/4/21 37/5/17
f 29/5/15 14/5/4 37/5/17
f 14/5/4 29/5/15 7/5/2
f 29/5/15 8/6/6 7/5/2
f 8/6/6 29/5/15 30/6/19
f 8/6/10 39/6/10 16/6/10
f 39/6/10 8/6/10 30/6/10
f 39/6/21 4/5/4 16/6/9
f 4/5/4 39/6/21 27/5/17
f 25/5/15 4/5/4 27/5/17
f 4/5/4 25/5/15 2/5/2
f 25/5/15 9/4/6 2/5/2
f 9/4/6 25/5/15 34/4/19
f 36/4/7 9/4/7 34/4/7
f 9/4/7 36/4/7 11/4/7
f 43/1/25 42/1/24 41/1/23
f 42/1/24 43/1/25 44/1/26
f 47/1/24 46/2/27 45/1/23
f 46/2/27 47/1/24 48/2/28
f 51/3/7 50/3/7 49/3/7
f 50/3/7 51/3/7 52/3/7
f 51/3/30 53/1/25 52/3/29
f 53/1/25 51/3/30 54/1/26
f 53/1/25 47/1/24 45/1/23
f 47/1/24 53/1/25 54/1/26
f 42/1/24 50/3/27 41/1/23
f 50/3/27 42/1/24 49/3/28
f 56/2/30 43/1/25 55/2/29
f 43/1/25 56/2/30 44/1/26
f 46/2/10 56/2/10 55/2/10
f 56/2/10 46/2/10 48/2/10
f 52/4/29 38/5/18 35/4/22
f 38/5/18 52/4/29 53/5/25
f 45/5/23 38/5/18 53/5/25
f 38/5/18 45/5/23 31/5/16
f 45/5/23 32/6/20 31/5/16
f 32/6/20 45/5/23 46/6/27
f 32/6/10 55/6/10 40/6/10
f 55/6/10 32/6/10 46/6/10
f 55/6/29 28/5/18 40/6/22
f 28/5/18 55/6/29 43/5/25
f 41/5/23 28/5/18 43/5/25
f 28/5/18 41/5/23 26/5/16
f 41/5/23 33/4/20 26/5/16
f 33/4/20 41/5/23 50/4/27
f 52/4/7 33/4/7 50/4/7
f 33/4/7 52/4/7 35/4/7
f 59/1/33 58/1/32 57/1/31
f 58/1/32 59/1/33 60/1/34
f 63/1/32 62/2/35 61/1/31
f 62/2/35 63/1/32 64/2/36
f 67/3/7 66/3/7 65/3/7
f 66/3/7 67/3/7 68/3/7
f 67/3/38 69/1/33 68/3/37
f 69/1/33 67/3/38 70/1/34
f 69/1/33 63/1/32 61/1/31
f 63/1/32 69/1/33 70/1/34
f 58/1/32 66/3/35 57/1/31
f 66/3/35 58/1/32 65/3/36
f 72/2/38 59/1/33 71/2/37
f 59/1/33 72/2/38 60/1/34
f 62/2/10 72/2/10 71/2/10
f 72/2/10 62/2/10 64/2/10
f 68/4/37 54/5/26 51/4/30
f 54/5/26 68/4/37 69/5/33
f 61/5/31 54/5/26 69/5/33
f 54/5/26 61/5/31 47/5/24
f 61/5/31 48/6/28 47/5/24
f 48/6/28 61/5/31 62/6/35
f 48/6/10 71/6/10 56/6/10
f 71/6/10 48/6/10 62/6/10
f 71/6/37 44/5/26 56/6/30
f 44/5/26 71/6/37 59/5/33
f 57/5/31 44/5/26 59/5/33
f 44/5/26 57/5/31 42/5/24
f 57/5/31 49/4/28 42/5/24
f 49/4/28 57/5/31 66/4/35
f 68/4/7 49/4/7 66/4/7
f 49/4/7 68/4/7 51/4/7
f 75/6/39 74/5/39 73/5/39
f 75/6/39 76/4/39 74/5/39
f 76/4/39 75/6/39 77/4/39
f 78/6/39 77/4/39 75/6/39
f 77/4/39 78/6/39 79/5/39
f 79/5/39 78/6/39 80/5/39
f 83/7/41 82/8/40 81/7/40
f 82/8/40 83/7/41 84/8/41
f 82/8/40 85/7/42 81/7/40
f 85/7/42 82/8/40 86/8/42
f 89/7/7 88/7/7 87/7/7
f 88/7/7 89/7/7 85/7/7
f 85/7/7 89/7/7 81/7/7
f 81/7/7 89/7/7 83/7/7
f 90/7/7 88/7/7 85/7/7
f 90/7/7 91/7/7 88/7/7
f 90/7/7 92/7/7 91/7/7
f 93/7/7 92/7/7 90/7/7
f 94/7/7 92/7/7 93/7/7
f 92/7/7 94/7/7 95/7/7
f 97/8/44 93/7/43 96/8/43
f 93/7/43 97/8/44 94/7/44
f 98/8/45 93/7/43 90/7/45
f 93/7/43 98/8/45 96/8/43
f 99/8/46 94/7/44 97/8/44
f 94/7/44 99/8/46 95/7/46
f 89/7/47 84/8/41 83/7/41
f 84/8/41 89/7/47 100/8/47
f 86/8/42 90/7/45 85/7/42
f 90/7/45 86/8/42 98/8/45
f 92/7/47 101/8/47 91/7/47
f 101/8/47 92/7/47 102/8/47
f 101/8/48 88/7/48 91/7/48
f 88/7/48 101/8/48 103/8/48
f 104/8/46 88/7/46 103/8/46
f 88/7/46 104/8/46 87/7/46
f 100/8/10 82/8/10 84/8/10
f 104/8/10 82/8/10 100/8/10
f 103/8/10 82/8/10 104/8/10
f 103/8/10 86/8/10 82/8/10
f 101/8/10 86/8/10 103/8/10
f 86/8/10 101/8/10 98/8/10
f 102/8/10 98/8/10 101/8/10
f 102/8/10 96/8/10 98/8/10
f 99/8/10 96/8/10 102/8/10
f 96/8/10 99/8/10 97/8/10
f 107/2/49 106/1/49 105/1/49
f 107/2/49 108/3/49 106/1/49
f 108/3/49 107/2/49 109/3/49
f 110/2/49 109/3/49 107/2/49
f 109/3/49 110/2/49 111/1/49
f 111/1/49 110/2/49 112/1/49
f 115/7/51 114/8/50 113/7/50
f 114/8/50 115/7/51 116/8/51
f 114/8/50 117/7/52 113/7/50
f 117/7/52 114/8/50 118/8/52
f 121/7/7 120/7/7 119/7/7
f 120/7/7 121/7/7 117/7/7
f 117/7/7 121/7/7 113/7/7
f 113/7/7 121/7/7 115/7/7
f 122/7/7 120/7/7 117/7/7
f 122/7/7 123/7/7 120/7/7
f 122/7/7 124/7/7 123/7/7
f 125/7/7 124/7/7 122/7/7
f 126/7/7 124/7/7 125/7/7
f 124/7/7 126/7/7 127/7/7
f 129/8/54 125/7/53 128/8/53
f 125/7/53 129/8/54 126/7/54
f 130/8/55 125/7/53 122/7/55
f 125/7/53 130/8/55 128/8/53
f 131/8/56 126/7/54 129/8/54
f 126/7/54 131/8/56 127/7/56
f 121/7/57 116/8/51 115/7/51
f 116/8/51 121/7/57 132/8/57
f 118/8/52 122/7/55 117/7/52
f 122/7/55 118/8/52 130/8/55
f 124/7/57 133/8/57 123/7/57
f 133/8/57 124/7/57 134/8/57
f 133/8/58 120/7/58 123/7/58
f 120/7/58 133/8/58 135/8/58
f 136/8/56 120/7/56 135/8/56
f 120/7/56 136/8/56 119/7/56
f 132/8/10 114/8/10 116/8/10
f 136/8/10 114/8/10 132/8/10
f 135/8/10 114/8/10 136/8/10
f 135/8/10 118/8/10 114/8/10
f 133/8/10 118/8/10 135/8/10
f 118/8/10 133/8/10 130/8/10
f 134/8/10 130/8/10 133/8/10
f 134/8/10 128/8/10 130/8/10
f 131/8/10 128/8/10 134/8/10
f 128/8/10 131/8/10 129/8/10

g track-striped-wide-corner-small




usemtl colormap

f 3/1/3 2/1/2 1/1/1
f 2/1/2 3/1/3 4/1/4
f 7/1/2 6/2/5 5/1/1
f 6/2/5 7/1/2 8/2/6
f 11/3/7 10/3/7 9/3/7
f 10/3/7 11/3/7 12/3/7
f 11/3/9 13/1/3 12/3/8
f 13/1/3 11/3/9 14/1/4
f 13/1/3 7/1/2 5/1/1
f 7/1/2 13/1/3 14/1/4
f 2/1/2 10/3/5 1/1/1
f 10/3/5 2/1/2 9/3/6
f 16/2/9 3/1/3 15/2/8
f 3/1/3 16/2/9 4/1/4
f 6/2/10 16/2/10 15/2/10
f 16/2/10 6/2/10 8/2/10
f 12/4/8 18/5/12 17/4/11
f 18/5/12 12/4/8 13/5/3
f 5/5/1 18/5/12 13/5/3
f 18/5/12 5/5/1 19/5/13
f 5/5/1 20/6/14 19/5/13
f 20/6/14 5/5/1 6/6/5
f 20/6/10 15/6/10 21/6/10
f 15/6/10 20/6/10 6/6/10
f 15/6/8 22/5/12 21/6/11
f 22/5/12 15/6/8 3/5/3
f 1/5/1 22/5/12 3/5/3
f 22/5/12 1/5/1 23/5/13
f 1/5/1 24/4/14 23/5/13
f 24/4/14 1/5/1 10/4/5
f 12/4/7 24/4/7 10/4/7
f 24/4/7 12/4/7 17/4/7
f 27/1/17 26/1/16 25/1/15
f 26/1/16 27/1/17 28/1/18
f 31/1/16 30/2/19 29/1/15
f 30/2/19 31/1/16 32/2/20
f 35/3/7 34/3/7 33/3/7
f 34/3/7 35/3/7 36/3/7
f 35/3/22 37/1/17 36/3/21
f 37/1/17 35/3/22 38/1/18
f 37/1/17 31/1/16 29/1/15
f 31/1/16 37/1/17 38/1/18
f 26/1/16 34/3/19 25/1/15
f 34/3/19 26/1/16 33/3/20
f 40/2/22 27/1/17 39/2/21
f 27/1/17 40/2/22 28/1/18
f 30/2/10 40/2/10 39/2/10
f 40/2/10 30/2/10 32/2/10
f 36/4/21 14/5/4 11/4/9
f 14/5/4 36/4/21 37/5/17
f 29/5/15 14/5/4 37/5/17
f 14/5/4 29/5/15 7/5/2
f 29/5/15 8/6/6 7/5/2
f 8/6/6 29/5/15 30/6/19
f 8/6/10 39/6/10 16/6/10
f 39/6/10 8/6/10 30/6/10
f 39/6/21 4/5/4 16/6/9
f 4/5/4 39/6/21 27/5/17
f 25/5/15 4/5/4 27/5/17
f 4/5/4 25/5/15 2/5/2
f 25/5/15 9/4/6 2/5/2
f 9/4/6 25/5/15 34/4/19
f 36/4/7 9/4/7 34/4/7
f 9/4/7 36/4/7 11/4/7
f 43/1/25 42/1/24 41/1/23
f 42/1/24 43/1/25 44/1/26
f 47/1/24 46/2/27 45/1/23
f 46/2/27 47/1/24 48/2/28
f 51/3/7 50/3/7 49/3/7
f 50/3/7 51/3/7 52/3/7
f 51/3/30 53/1/25 52/3/29
f 53/1/25 51/3/30 54/1/26
f 53/1/25 47/1/24 45/1/23
f 47/1/24 53/1/25 54/1/26
f 42/1/24 50/3/27 41/1/23
f 50/3/27 42/1/24 49/3/28
f 56/2/30 43/1/25 55/2/29
f 43/1/25 56/2/30 44/1/26
f 46/2/10 56/2/10 55/2/10
f 56/2/10 46/2/10 48/2/10
f 52/4/29 38/5/18 35/4/22
f 38/5/18 52/4/29 53/5/25
f 45/5/23 38/5/18 53/5/25
f 38/5/18 45/5/23 31/5/16
f 45/5/23 32/6/20 31/5/16
f 32/6/20 45/5/23 46/6/27
f 32/6/10 55/6/10 40/6/10
f 55/6/10 32/6/10 46/6/10
f 55/6/29 28/5/18 40/6/22
f 28/5/18 55/6/29 43/5/25
f 41/5/23 28/5/18 43/5/25
f 28/5/18 41/5/23 26/5/16
f 41/5/23 33/4/20 26/5/16
f 33/4/20 41/5/23 50/4/27
f 52/4/7 33/4/7 50/4/7
f 33/4/7 52/4/7 35/4/7
f 59/1/33 58/1/32 57/1/31
f 58/1/32 59/1/33 60/1/34
f 63/1/32 62/2/35 61/1/31
f 62/2/35 63/1/32 64/2/36
f 67/3/7 66/3/7 65/3/7
f 66/3/7 67/3/7 68/3/7
f 67/3/38 69/1/33 68/3/37
f 69/1/33 67/3/38 70/1/34
f 69/1/33 63/1/32 61/1/31
f 63/1/32 69/1/33 70/1/34
f 58/1/32 66/3/35 57/1/31
f 66/3/35 58/1/32 65/3/36
f 72/2/38 59/1/33 71/2/37
f 59/1/33 72/2/38 60/1/34
f 62/2/10 72/2/10 71/2/10
f 72/2/10 62/2/10 64/2/10
f 68/4/37 54/5/26 51/4/30
f 54/5/26 68/4/37 69/5/33
f 61/5/31 54/5/26 69/5/33
f 54/5/26 61/5/31 47/5/24
f 61/5/31 48/6/28 47/5/24
f 48/6/28 61/5/31 62/6/35
f 48/6/10 71/6/10 56/6/10
f 71/6/10 48/6/10 62/6/10
f 71/6/37 44/5/26 56/6/30
f 44/5/26 71/6/37 59/5/33
f 57/5/31 44/5/26 59/5/33
f 44/5/26 57/5/31 42/5/24
f 57/5/31 49/4/28 42/5/24
f 49/4/28 57/5/31 66/4/35
f 68/4/7 49/4/7 66/4/7
f 49/4/7 68/4/7 51/4/7
f 75/6/39 74/5/39 73/5/39
f 75/6/39 76/4/39 74/5/39
f 76/4/39 75/6/39 77/4/39
f 78/6/39 77/4/39 75/6/39
f 77/4/39 78/6/39 79/5/39
f 79/5/39 78/6/39 80/5/39
f 83/7/41 82/8/40 81/7/40
f 82/8/40 83/7/41 84/8/41
f 82/8/40 85/7/42 81/7/40
f 85/7/42 82/8/40 86/8/42
f 89/7/7 88/7/7 87/7/7
f 88/7/7 89/7/7 85/7/7
f 85/7/7 89/7/7 81/7/7
f 81/7/7 89/7/7 83/7/7
f 90/7/7 88/7/7 85/7/7
f 90/7/7 91/7/7 88/7/7
f 90/7/7 92/7/7 91/7/7
f 93/7/7 92/7/7 90/7/7
f 94/7/7 92/7/7 93/7/7
f 92/7/7 94/7/7 95/7/7
f 97/8/44 93/7/43 96/8/43
f 93/7/43 97/8/44 94/7/44
f 98/8/45 93/7/43 90/7/45
f 93/7/43 98/8/45 96/8/43
f 99/8/46 94/7/44 97/8/44
f 94/7/44 99/8/46 95/7/46
f 89/7/47 84/8/41 83/7/41
f 84/8/41 89/7/47 100/8/47
f 86/8/42 90/7/45 85/7/42
f 90/7/45 86/8/42 98/8/45
f 92/7/47 101/8/47 91/7/47
f 101/8/47 92/7/47 102/8/47
f 101/8/48 88/7/48 91/7/48
f 88/7/48 101/8/48 103/8/48
f 104/8/46 88/7/46 103/8/46
f 88/7/46 104/8/46 87/7/46
f 100/8/10 82/8/10 84/8/10
f 104/8/10 82/8/10 100/8/10
f 103/8/10 82/8/10 104/8/10
f 103/8/10 86/8/10 82/8/10
f 101/8/10 86/8/10 103/8/10
f 86/8/10 101/8/10 98/8/10
f 102/8/10 98/8/10 101/8/10
f 102/8/10 96/8/10 98/8/10
f 99/8/10 96/8/10 102/8/10
f 96/8/10 99/8/10 97/8/10
f 107/2/49 106/1/49 105/1/49
f 107/2/49 108/3/49 106/1/49
f 108/3/49 107/2/49 109/3/49
f 110/2/49 109/3/49 107/2/49
f 109/3/49 110/2/49 111/1/49
f 111/1/49 110/2/49 112/1/49
f 115/7/51 114/8/50 113/7/50
f 114/8/50 115/7/51 116/8/51
f 114/8/50 117/7/52 113/7/50
f 117/7/52 114/8/50 118/8/52
f 121/7/7 120/7/7 119/7/7
f 120/7/7 121/7/7 117/7/7
f 117/7/7 121/7/7 113/7/7
f 113/7/7 121/7/7 115/7/7
f 122/7/7 120/7/7 117/7/7
f 122/7/7 123/7/7 120/7/7
f 122/7/7 124/7/7 123/7/7
f 125/7/7 124/7/7 122/7/7
f 126/7/7 124/7/7 125/7/7
f 124/7/7 126/7/7 127/7/7
f 129/8/54 125/7/53 128/8/53
f 125/7/53 129/8/54 126/7/54
f 130/8/55 125/7/53 122/7/55
f 125/7/53 130/8/55 128/8/53
f 131/8/56 126/7/54 129/8/54
f 126/7/54 131/8/56 127/7/56
f 121/7/57 116/8/51 115/7/51
f 116/8/51 121/7/57 132/8/57
f 118/8/52 122/7/55 117/7/52
f 122/7/55 118/8/52 130/8/55
f 124/7/57 133/8/57 123/7/57
f 133/8/57 124/7/57 134/8/57
f 133/8/58 120/7/58 123/7/58
f 120/7/58 133/8/58 135/8/58
f 136/8/56 120/7/56 135/8/56
f 120/7/56 136/8/56 119/7/56
f 132/8/10 114/8/10 116/8/10
f 136/8/10 114/8/10 132/8/10
f 135/8/10 114/8/10 136/8/10
f 135/8/10 118/8/10 114/8/10
f 133/8/10 118/8/10 135/8/10
f 118/8/10 133/8/10 130/8/10
f 134/8/10 130/8/10 133/8/10
f 134/8/10 128/8/10 130/8/10
f 131/8/10 128/8/10 134/8/10
f 128/8/10 131/8/10 129/8/10

