# Created by Kenney (www.kenney.nl)

mtllib track-wide-straight-skew-right.mtl

g track-wide-straight-skew-right

v -1 -4.768372E-07 4.291534E-06 1 1 1
v -0.9974244 -0.07172513 0.5013366 1 1 1
v 1 5.960464E-07 4.291534E-06 1 1 1
v 0.9974246 0.07172513 0.5013366 1 1 1
v -0.9874299 -0.1580579 1.000524 1 1 1
v 0.9874296 0.1580579 1.000524 1 1 1
v -1 0.2999995 4.291534E-06 1 1 1
v -1.018942 0.2275022 0.5013366 1 1 1
v -1.034847 0.138171 1.000524 1 1 1
v 1 0.3000005 4.291534E-06 1 1 1
v 0.9759068 0.3709525 0.5013366 1 1 1
v 0.9400125 0.4542869 1.000524 1 1 1
v 0.9000001 0.1000005 4.291534E-06 1 1 1
v 0.8905096 0.1642951 0.5013366 1 1 1
v -0.9000001 0.09999955 4.291534E-06 1 1 1
v -0.9048545 0.03518987 0.5013366 1 1 1
v 0.8728809 0.2409952 1.000524 1 1 1
v -0.9044926 -0.04350924 1.000524 1 1 1
v -0.9000001 0.2999995 4.291534E-06 1 1 1
v -0.9191995 0.2346747 0.5013366 1 1 1
v -0.9361043 0.1539768 1.000524 1 1 1
v 0.8999996 0.3000004 4.291534E-06 1 1 1
v 0.8761644 0.36378 0.5013366 1 1 1
v 0.8412695 0.4384811 1.000524 1 1 1
v -0.9647624 -0.2631226 1.500338 1 1 1
v 0.9647622 0.2631226 1.500338 1 1 1
v -0.9238794 -0.3826838 2 1 1 1
v 0.9238796 0.3826838 2 1 1 1
v -1.043699 0.02630615 1.500338 1 1 1
v -1.038684 -0.1055198 2 1 1 1
v 0.8858256 0.5525513 1.500338 1 1 1
v 0.8090744 0.6598475 2 1 1 1
v 0.8419738 0.3332865 1.500338 1 1 1
v -0.8945985 -0.1403341 1.500338 1 1 1
v 0.7932229 0.4368032 2 1 1 1
v -0.8697598 -0.2520274 2 1 1 1
v -0.9472229 0.05261838 1.500338 1 1 1
v -0.9462967 -0.06725144 2 1 1 1
v 0.7893496 0.5262392 1.500338 1 1 1
v 0.7166862 0.6215792 2 1 1 1
v -0.8682466 -0.4961331 2.499662 1 1 1
v 0.8682466 0.4961331 2.499662 1 1 1
v -0.8099821 -0.5864546 2.999476 1 1 1
v 0.8099823 0.5864546 2.999476 1 1 1
v -1.017087 -0.2356591 2.499662 1 1 1
v -0.9859185 -0.34346 2.999476 1 1 1
v 0.7194066 0.7566071 2.499662 1 1 1
v 0.6340456 0.8294493 2.999476 1 1 1
v 0.7318087 0.5333444 2.499662 1 1 1
v -0.8310351 -0.3596951 2.499662 1 1 1
v 0.6703386 0.6088073 2.999476 1 1 1
v -0.7876294 -0.446811 2.999476 1 1 1
v -0.9302619 -0.1860458 2.499662 1 1 1
v -0.9049201 -0.2848145 2.999476 1 1 1
v 0.6325817 0.7069937 2.499662 1 1 1
v 0.5530477 0.7708038 2.999476 1 1 1
v -0.7560036 -0.6545674 3.498663 1 1 1
v 0.7560034 0.6545674 3.498663 1 1 1
v -0.7071071 -0.7071064 3.999996 1 1 1
v 0.7071071 0.7071064 3.999996 1 1 1
v -0.952374 -0.4277663 3.498663 1 1 1
v -0.919239 -0.4949741 3.999996 1 1 1
v 0.5596333 0.8813684 3.498663 1 1 1
v 0.4949751 0.9192384 3.999996 1 1 1
v 0.6149464 0.664711 3.498663 1 1 1
v -0.7458601 -0.5135102 3.498663 1 1 1
v 0.5656857 0.7071064 3.999996 1 1 1
v -0.7071071 -0.565685 3.999996 1 1 1
v -0.8767734 -0.3623095 3.498663 1 1 1
v -0.8485284 -0.4242635 3.999996 1 1 1
v 0.4840331 0.8159118 3.498663 1 1 1
v 0.4242644 0.8485279 3.999996 1 1 1
v -0.9 0.3 0 1 1 1
v -1 0.3 0 1 1 1
v -0.9 0.1 0 1 1 1
v -1 0 0 1 1 1
v 1 0 0 1 1 1
v 0.9 0.1 0 1 1 1
v 1 0.3 0 1 1 1
v 0.9 0.3 0 1 1 1
v -0.1207107 0 -0.1707107 1 1 1
v -0.1207107 0.05000001 -0.1707107 1 1 1
v -0.15 0 -0.1 1 1 1
v -0.15 0.05000001 -0.1 1 1 1
v -0.05 0 -0.2 1 1 1
v -0.05 0.05000001 -0.2 1 1 1
v -0.05 0 7.219114E-16 1 1 1
v -0.05 0 -0.1 1 1 1
v -0.15 0 1.082867E-15 1 1 1
v 0.05 0 -0.2 1 1 1
v 0.05 0 -0.1 1 1 1
v 0.05 0 3.609557E-16 1 1 1
v 0.1207107 0 -0.1707107 1 1 1
v 0.15 0 -0.1 1 1 1
v 0.15 0 0 1 1 1
v 0.1207107 0.05000001 -0.1707107 1 1 1
v 0.15 0.05000001 -0.1 1 1 1
v 0.05 0.05000001 -0.2 1 1 1
v 0.15 0.05000001 0 1 1 1
v -0.15 0.05000001 1.082867E-15 1 1 1
v 0.05 0.05000001 -0.1 1 1 1
v 0.05 0.05000001 3.609557E-16 1 1 1
v -0.05 0.05000001 -0.1 1 1 1
v -0.05 0.05000001 7.219114E-16 1 1 1
v 0.4242641 0.8485281 4 1 1 1
v 0.4949748 0.9192388 4 1 1 1
v 0.5656855 0.7071067 4 1 1 1
v 0.7071068 0.7071068 4 1 1 1
v -0.7071068 -0.7071068 4 1 1 1
v -0.7071068 -0.5656854 4 1 1 1
v -0.9192389 -0.4949747 4 1 1 1
v -0.8485281 -0.424264 4 1 1 1
v 0.08535534 0.08535534 4.170711 1 1 1
v 0.05 0.1207107 4.170711 1 1 1
v 0.106066 0.106066 4.1 1 1 1
v 0.07071069 0.1414214 4.1 1 1 1
v 0.03535534 0.03535533 4.2 1 1 1
v 0 0.07071066 4.2 1 1 1
v 0.03535534 0.03535533 4 1 1 1
v 0.03535534 0.03535533 4.1 1 1 1
v 0.106066 0.106066 4 1 1 1
v -0.03535534 -0.03535533 4.2 1 1 1
v -0.03535534 -0.03535533 4.1 1 1 1
v -0.03535534 -0.03535533 4 1 1 1
v -0.08535534 -0.08535528 4.170711 1 1 1
v -0.106066 -0.106066 4.1 1 1 1
v -0.106066 -0.106066 4 1 1 1
v -0.1207107 -0.04999995 4.170711 1 1 1
v -0.1414214 -0.07071066 4.1 1 1 1
v -0.07071068 0 4.2 1 1 1
v -0.1414214 -0.07071066 4 1 1 1
v 0.07071069 0.1414214 4 1 1 1
v -0.07071068 0 4.1 1 1 1
v -0.07071068 0 4 1 1 1
v 0 0.07071066 4.1 1 1 1
v 0 0.07071066 4 1 1 1

vn 5.417925E-07 -1 0
vn 0.07172511 -0.9974244 0
vn 0.158058 -0.9874299 0
vn -1 -5.417925E-07 0
vn -0.7071071 0.7071064 0
vn -0.9974244 -0.07172511 0
vn -0.7560028 0.6545683 0
vn -0.9874299 -0.158058 0
vn -0.8099822 0.5864545 0
vn 0.7071064 0.7071071 0
vn 1 5.417925E-07 0
vn 0.6545683 0.7560028 0
vn 0.9974244 0.07172511 0
vn 0.5864545 0.8099822 0
vn 0.9874299 0.158058 0
vn -5.417925E-07 1 0
vn -0.07172511 0.9974244 0
vn -0.158058 0.9874299 0
vn 0.2631226 -0.9647624 0
vn 0.3826837 -0.9238794 0
vn -0.9647624 -0.2631226 0
vn -0.8682458 0.4961343 0
vn -0.9238794 -0.3826837 0
vn -0.9238796 0.3826832 0
vn 0.4961343 0.8682458 0
vn 0.9647624 0.2631226 0
vn 0.3826832 0.9238796 0
vn 0.9238794 0.3826837 0
vn -0.2631226 0.9647624 0
vn -0.3826837 0.9238794 0
vn 0.4961331 -0.8682465 0
vn 0.5864546 -0.8099821 0
vn -0.8682465 -0.4961331 0
vn -0.964762 0.2631239 0
vn -0.8099821 -0.5864546 0
vn -0.9874299 0.1580578 0
vn 0.2631239 0.964762 0
vn 0.8682465 0.4961331 0
vn 0.1580578 0.9874299 0
vn 0.8099821 0.5864546 0
vn -0.4961331 0.8682465 0
vn -0.5864546 0.8099821 0
vn 0.6545674 -0.7560036 0
vn 0.7071064 -0.7071072 0
vn -0.7560036 -0.6545674 0
vn -0.9974242 0.07172625 0
vn -0.7071072 -0.7071064 0
vn -1 6.258488E-07 0
vn 0.07172625 0.9974242 0
vn 0.7560036 0.6545674 0
vn 6.258488E-07 1 0
vn 0.7071072 0.7071064 0
vn -0.6545674 0.7560036 0
vn -0.7071064 0.7071072 0
vn 0 0 -1
vn -0.7071068 0 -0.7071068
vn -0.9807853 0 -0.1950903
vn -0.1950903 0 -0.9807853
vn 0 -1 0
vn 0.7071068 0 -0.7071068
vn 0.9807853 0 -0.1950903
vn 0.1950903 0 -0.9807853
vn 1 0 0
vn -1 0 0
vn 0 0 1
vn 0 1 0
vn 0.5 0.5 0.7071068
vn 0.6935199 0.6935199 0.1950903
vn 0.1379497 0.1379497 0.9807853
vn 0.7071068 -0.7071068 0
vn -0.5 -0.5 0.7071068
vn -0.6935199 -0.6935199 0.1950903
vn -0.1379497 -0.1379497 0.9807853
vn -0.7071068 -0.7071068 7.21645E-16
vn 0.7071068 0.7071068 -7.21645E-16
vn -5.102801E-16 -5.1028E-16 -1
vn -0.7071068 0.7071068 0

vt 0.46875 0.275
vt 0.46875 0.475
vt 0.46875 0.3416667
vt 0.71875 0.275
vt 0.71875 0.475

usemtl colormap

f 3/1/1 2/1/2 1/1/1
f 2/1/2 3/1/1 4/1/2
f 4/1/2 5/1/3 2/1/2
f 5/1/3 4/1/2 6/1/3
f 2/1/6 7/2/5 1/1/4
f 7/2/5 2/1/6 8/2/7
f 5/1/8 8/2/7 2/1/6
f 8/2/7 5/1/8 9/2/9
f 11/2/12 3/1/11 10/2/10
f 3/1/11 11/2/12 4/1/13
f 12/2/14 4/1/13 11/2/12
f 4/1/13 12/2/14 6/1/15
f 15/3/16 14/3/17 13/3/16
f 14/3/17 15/3/16 16/3/17
f 16/3/17 17/3/18 14/3/17
f 17/3/18 16/3/17 18/3/18
f 7/2/5 20/2/12 19/2/10
f 20/2/12 7/2/5 8/2/7
f 8/2/7 21/2/14 20/2/12
f 21/2/14 8/2/7 9/2/9
f 20/2/12 15/3/11 19/2/10
f 15/3/11 20/2/12 16/3/13
f 21/2/14 16/3/13 20/2/12
f 16/3/13 21/2/14 18/3/15
f 22/2/5 11/2/12 10/2/10
f 11/2/12 22/2/5 23/2/7
f 23/2/7 12/2/14 11/2/12
f 12/2/14 23/2/7 24/2/9
f 14/3/6 22/2/5 13/3/4
f 22/2/5 14/3/6 23/2/7
f 17/3/8 23/2/7 14/3/6
f 23/2/7 17/3/8 24/2/9
f 6/1/3 25/1/19 5/1/3
f 25/1/19 6/1/3 26/1/19
f 26/1/19 27/1/20 25/1/19
f 27/1/20 26/1/19 28/1/20
f 25/1/21 9/2/9 5/1/8
f 9/2/9 25/1/21 29/2/22
f 27/1/23 29/2/22 25/1/21
f 29/2/22 27/1/23 30/2/24
f 31/2/25 6/1/15 12/2/14
f 6/1/15 31/2/25 26/1/26
f 32/2/27 26/1/26 31/2/25
f 26/1/26 32/2/27 28/1/28
f 18/3/18 33/3/29 17/3/18
f 33/3/29 18/3/18 34/3/29
f 34/3/29 35/3/30 33/3/29
f 35/3/30 34/3/29 36/3/30
f 9/2/9 37/2/25 21/2/14
f 37/2/25 9/2/9 29/2/22
f 29/2/22 38/2/27 37/2/25
f 38/2/27 29/2/22 30/2/24
f 37/2/25 18/3/15 21/2/14
f 18/3/15 37/2/25 34/3/26
f 38/2/27 34/3/26 37/2/25
f 34/3/26 38/2/27 36/3/28
f 24/2/9 31/2/25 12/2/14
f 31/2/25 24/2/9 39/2/22
f 39/2/22 32/2/27 31/2/25
f 32/2/27 39/2/22 40/2/24
f 33/3/21 24/2/9 17/3/8
f 24/2/9 33/3/21 39/2/22
f 35/3/23 39/2/22 33/3/21
f 39/2/22 35/3/23 40/2/24
f 28/1/20 41/1/31 27/1/20
f 41/1/31 28/1/20 42/1/31
f 42/1/31 43/1/32 41/1/31
f 43/1/32 42/1/31 44/1/32
f 41/1/33 30/2/24 27/1/23
f 30/2/24 41/1/33 45/2/34
f 43/1/35 45/2/34 41/1/33
f 45/2/34 43/1/35 46/2/36
f 47/2/37 28/1/28 32/2/27
f 28/1/28 47/2/37 42/1/38
f 48/2/39 42/1/38 47/2/37
f 42/1/38 48/2/39 44/1/40
f 36/3/30 49/3/41 35/3/30
f 49/3/41 36/3/30 50/3/41
f 50/3/41 51/3/42 49/3/41
f 51/3/42 50/3/41 52/3/42
f 30/2/24 53/2/37 38/2/27
f 53/2/37 30/2/24 45/2/34
f 45/2/34 54/2/39 53/2/37
f 54/2/39 45/2/34 46/2/36
f 53/2/37 36/3/28 38/2/27
f 36/3/28 53/2/37 50/3/38
f 54/2/39 50/3/38 53/2/37
f 50/3/38 54/2/39 52/3/40
f 40/2/24 47/2/37 32/2/27
f 47/2/37 40/2/24 55/2/34
f 55/2/34 48/2/39 47/2/37
f 48/2/39 55/2/34 56/2/36
f 49/3/33 40/2/24 35/3/23
f 40/2/24 49/3/33 55/2/34
f 51/3/35 55/2/34 49/3/33
f 55/2/34 51/3/35 56/2/36
f 44/1/32 57/1/43 43/1/32
f 57/1/43 44/1/32 58/1/43
f 58/1/43 59/1/44 57/1/43
f 59/1/44 58/1/43 60/1/44
f 57/1/45 46/2/36 43/1/35
f 46/2/36 57/1/45 61/2/46
f 59/1/47 61/2/46 57/1/45
f 61/2/46 59/1/47 62/2/48
f 63/2/49 44/1/40 48/2/39
f 44/1/40 63/2/49 58/1/50
f 64/2/51 58/1/50 63/2/49
f 58/1/50 64/2/51 60/1/52
f 52/3/42 65/3/53 51/3/42
f 65/3/53 52/3/42 66/3/53
f 66/3/53 67/3/54 65/3/53
f 67/3/54 66/3/53 68/3/54
f 46/2/36 69/2/49 54/2/39
f 69/2/49 46/2/36 61/2/46
f 61/2/46 70/2/51 69/2/49
f 70/2/51 61/2/46 62/2/48
f 69/2/49 52/3/40 54/2/39
f 52/3/40 69/2/49 66/3/50
f 70/2/51 66/3/50 69/2/49
f 66/3/50 70/2/51 68/3/52
f 56/2/36 63/2/49 48/2/39
f 63/2/49 56/2/36 71/2/46
f 71/2/46 64/2/51 63/2/49
f 64/2/51 71/2/46 72/2/48
f 65/3/45 56/2/36 51/3/35
f 56/2/36 65/3/45 71/2/46
f 67/3/47 71/2/46 65/3/45
f 71/2/46 67/3/47 72/2/48
f 75/3/55 74/2/55 73/2/55
f 75/3/55 76/1/55 74/2/55
f 76/1/55 75/3/55 77/1/55
f 78/3/55 77/1/55 75/3/55
f 77/1/55 78/3/55 79/2/55
f 79/2/55 78/3/55 80/2/55
f 83/4/57 82/5/56 81/4/56
f 82/5/56 83/4/57 84/5/57
f 82/5/56 85/4/58 81/4/56
f 85/4/58 82/5/56 86/5/58
f 89/4/59 88/4/59 87/4/59
f 88/4/59 89/4/59 85/4/59
f 85/4/59 89/4/59 81/4/59
f 81/4/59 89/4/59 83/4/59
f 90/4/59 88/4/59 85/4/59
f 90/4/59 91/4/59 88/4/59
f 90/4/59 92/4/59 91/4/59
f 93/4/59 92/4/59 90/4/59
f 94/4/59 92/4/59 93/4/59
f 92/4/59 94/4/59 95/4/59
f 97/5/61 93/4/60 96/5/60
f 93/4/60 97/5/61 94/4/61
f 98/5/62 93/4/60 90/4/62
f 93/4/60 98/5/62 96/5/60
f 99/5/63 94/4/61 97/5/61
f 94/4/61 99/5/63 95/4/63
f 89/4/64 84/5/57 83/4/57
f 84/5/57 89/4/64 100/5/64
f 86/5/58 90/4/62 85/4/58
f 90/4/62 86/5/58 98/5/62
f 92/4/64 101/5/64 91/4/64
f 101/5/64 92/4/64 102/5/64
f 101/5/65 88/4/65 91/4/65
f 88/4/65 101/5/65 103/5/65
f 104/5/63 88/4/63 103/5/63
f 88/4/63 104/5/63 87/4/63
f 100/5/66 82/5/66 84/5/66
f 104/5/66 82/5/66 100/5/66
f 103/5/66 82/5/66 104/5/66
f 103/5/66 86/5/66 82/5/66
f 101/5/66 86/5/66 103/5/66
f 86/5/66 101/5/66 98/5/66
f 102/5/66 98/5/66 101/5/66
f 102/5/66 96/5/66 98/5/66
f 99/5/66 96/5/66 102/5/66
f 96/5/66 99/5/66 97/5/66
f 107/3/65 106/2/65 105/2/65
f 107/3/65 108/1/65 106/2/65
f 108/1/65 107/3/65 109/1/65
f 110/3/65 109/1/65 107/3/65
f 109/1/65 110/3/65 111/2/65
f 111/2/65 110/3/65 112/2/65
f 115/4/68 114/5/67 113/4/67
f 114/5/67 115/4/68 116/5/68
f 114/5/67 117/4/69 113/4/67
f 117/4/69 114/5/67 118/5/69
f 121/4/70 120/4/70 119/4/70
f 120/4/70 121/4/70 117/4/70
f 117/4/70 121/4/70 113/4/70
f 113/4/70 121/4/70 115/4/70
f 122/4/70 120/4/70 117/4/70
f 122/4/70 123/4/70 120/4/70
f 122/4/70 124/4/70 123/4/70
f 125/4/70 124/4/70 122/4/70
f 126/4/70 124/4/70 125/4/70
f 124/4/70 126/4/70 127/4/70
f 129/5/72 125/4/71 128/5/71
f 125/4/71 129/5/72 126/4/72
f 130/5/73 125/4/71 122/4/73
f 125/4/71 130/5/73 128/5/71
f 131/5/74 126/4/72 129/5/72
f 126/4/72 131/5/74 127/4/74
f 121/4/75 116/5/68 115/4/68
f 116/5/68 121/4/75 132/5/75
f 118/5/69 122/4/73 117/4/69
f 122/4/73 118/5/69 130/5/73
f 124/4/75 133/5/75 123/4/75
f 133/5/75 124/4/75 134/5/75
f 133/5/76 120/4/76 123/4/76
f 120/4/76 133/5/76 135/5/76
f 136/5/74 120/4/74 135/5/74
f 120/4/74 136/5/74 119/4/74
f 132/5/77 114/5/77 116/5/77
f 136/5/77 114/5/77 132/5/77
f 135/5/77 114/5/77 136/5/77
f 135/5/77 118/5/77 114/5/77
f 133/5/77 118/5/77 135/5/77
f 118/5/77 133/5/77 130/5/77
f 134/5/77 130/5/77 133/5/77
f 134/5/77 128/5/77 130/5/77
f 131/5/77 128/5/77 134/5/77
f 128/5/77 131/5/77 129/5/77

g track-wide-straight-skew-right




usemtl colormap

f 3/1/1 2/1/2 1/1/1
f 2/1/2 3/1/1 4/1/2
f 4/1/2 5/1/3 2/1/2
f 5/1/3 4/1/2 6/1/3
f 2/1/6 7/2/5 1/1/4
f 7/2/5 2/1/6 8/2/7
f 5/1/8 8/2/7 2/1/6
f 8/2/7 5/1/8 9/2/9
f 11/2/12 3/1/11 10/2/10
f 3/1/11 11/2/12 4/1/13
f 12/2/14 4/1/13 11/2/12
f 4/1/13 12/2/14 6/1/15
f 15/3/16 14/3/17 13/3/16
f 14/3/17 15/3/16 16/3/17
f 16/3/17 17/3/18 14/3/17
f 17/3/18 16/3/17 18/3/18
f 7/2/5 20/2/12 19/2/10
f 20/2/12 7/2/5 8/2/7
f 8/2/7 21/2/14 20/2/12
f 21/2/14 8/2/7 9/2/9
f 20/2/12 15/3/11 19/2/10
f 15/3/11 20/2/12 16/3/13
f 21/2/14 16/3/13 20/2/12
f 16/3/13 21/2/14 18/3/15
f 22/2/5 11/2/12 10/2/10
f 11/2/12 22/2/5 23/2/7
f 23/2/7 12/2/14 11/2/12
f 12/2/14 23/2/7 24/2/9
f 14/3/6 22/2/5 13/3/4
f 22/2/5 14/3/6 23/2/7
f 17/3/8 23/2/7 14/3/6
f 23/2/7 17/3/8 24/2/9
f 6/1/3 25/1/19 5/1/3
f 25/1/19 6/1/3 26/1/19
f 26/1/19 27/1/20 25/1/19
f 27/1/20 26/1/19 28/1/20
f 25/1/21 9/2/9 5/1/8
f 9/2/9 25/1/21 29/2/22
f 27/1/23 29/2/22 25/1/21
f 29/2/22 27/1/23 30/2/24
f 31/2/25 6/1/15 12/2/14
f 6/1/15 31/2/25 26/1/26
f 32/2/27 26/1/26 31/2/25
f 26/1/26 32/2/27 28/1/28
f 18/3/18 33/3/29 17/3/18
f 33/3/29 18/3/18 34/3/29
f 34/3/29 35/3/30 33/3/29
f 35/3/30 34/3/29 36/3/30
f 9/2/9 37/2/25 21/2/14
f 37/2/25 9/2/9 29/2/22
f 29/2/22 38/2/27 37/2/25
f 38/2/27 29/2/22 30/2/24
f 37/2/25 18/3/15 21/2/14
f 18/3/15 37/2/25 34/3/26
f 38/2/27 34/3/26 37/2/25
f 34/3/26 38/2/27 36/3/28
f 24/2/9 31/2/25 12/2/14
f 31/2/25 24/2/9 39/2/22
f 39/2/22 32/2/27 31/2/25
f 32/2/27 39/2/22 40/2/24
f 33/3/21 24/2/9 17/3/8
f 24/2/9 33/3/21 39/2/22
f 35/3/23 39/2/22 33/3/21
f 39/2/22 35/3/23 40/2/24
f 28/1/20 41/1/31 27/1/20
f 41/1/31 28/1/20 42/1/31
f 42/1/31 43/1/32 41/1/31
f 43/1/32 42/1/31 44/1/32
f 41/1/33 30/2/24 27/1/23
f 30/2/24 41/1/33 45/2/34
f 43/1/35 45/2/34 41/1/33
f 45/2/34 43/1/35 46/2/36
f 47/2/37 28/1/28 32/2/27
f 28/1/28 47/2/37 42/1/38
f 48/2/39 42/1/38 47/2/37
f 42/1/38 48/2/39 44/1/40
f 36/3/30 49/3/41 35/3/30
f 49/3/41 36/3/30 50/3/41
f 50/3/41 51/3/42 49/3/41
f 51/3/42 50/3/41 52/3/42
f 30/2/24 53/2/37 38/2/27
f 53/2/37 30/2/24 45/2/34
f 45/2/34 54/2/39 53/2/37
f 54/2/39 45/2/34 46/2/36
f 53/2/37 36/3/28 38/2/27
f 36/3/28 53/2/37 50/3/38
f 54/2/39 50/3/38 53/2/37
f 50/3/38 54/2/39 52/3/40
f 40/2/24 47/2/37 32/2/27
f 47/2/37 40/2/24 55/2/34
f 55/2/34 48/2/39 47/2/37
f 48/2/39 55/2/34 56/2/36
f 49/3/33 40/2/24 35/3/23
f 40/2/24 49/3/33 55/2/34
f 51/3/35 55/2/34 49/3/33
f 55/2/34 51/3/35 56/2/36
f 44/1/32 57/1/43 43/1/32
f 57/1/43 44/1/32 58/1/43
f 58/1/43 59/1/44 57/1/43
f 59/1/44 58/1/43 60/1/44
f 57/1/45 46/2/36 43/1/35
f 46/2/36 57/1/45 61/2/46
f 59/1/47 61/2/46 57/1/45
f 61/2/46 59/1/47 62/2/48
f 63/2/49 44/1/40 48/2/39
f 44/1/40 63/2/49 58/1/50
f 64/2/51 58/1/50 63/2/49
f 58/1/50 64/2/51 60/1/52
f 52/3/42 65/3/53 51/3/42
f 65/3/53 52/3/42 66/3/53
f 66/3/53 67/3/54 65/3/53
f 67/3/54 66/3/53 68/3/54
f 46/2/36 69/2/49 54/2/39
f 69/2/49 46/2/36 61/2/46
f 61/2/46 70/2/51 69/2/49
f 70/2/51 61/2/46 62/2/48
f 69/2/49 52/3/40 54/2/39
f 52/3/40 69/2/49 66/3/50
f 70/2/51 66/3/50 69/2/49
f 66/3/50 70/2/51 68/3/52
f 56/2/36 63/2/49 48/2/39
f 63/2/49 56/2/36 71/2/46
f 71/2/46 64/2/51 63/2/49
f 64/2/51 71/2/46 72/2/48
f 65/3/45 56/2/36 51/3/35
f 56/2/36 65/3/45 71/2/46
f 67/3/47 71/2/46 65/3/45
f 71/2/46 67/3/47 72/2/48
f 75/3/55 74/2/55 73/2/55
f 75/3/55 76/1/55 74/2/55
f 76/1/55 75/3/55 77/1/55
f 78/3/55 77/1/55 75/3/55
f 77/1/55 78/3/55 79/2/55
f 79/2/55 78/3/55 80/2/55
f 83/4/57 82/5/56 81/4/56
f 82/5/56 83/4/57 84/5/57
f 82/5/56 85/4/58 81/4/56
f 85/4/58 82/5/56 86/5/58
f 89/4/59 88/4/59 87/4/59
f 88/4/59 89/4/59 85/4/59
f 85/4/59 89/4/59 81/4/59
f 81/4/59 89/4/59 83/4/59
f 90/4/59 88/4/59 85/4/59
f 90/4/59 91/4/59 88/4/59
f 90/4/59 92/4/59 91/4/59
f 93/4/59 92/4/59 90/4/59
f 94/4/59 92/4/59 93/4/59
f 92/4/59 94/4/59 95/4/59
f 97/5/61 93/4/60 96/5/60
f 93/4/60 97/5/61 94/4/61
f 98/5/62 93/4/60 90/4/62
f 93/4/60 98/5/62 96/5/60
f 99/5/63 94/4/61 97/5/61
f 94/4/61 99/5/63 95/4/63
f 89/4/64 84/5/57 83/4/57
f 84/5/57 89/4/64 100/5/64
f 86/5/58 90/4/62 85/4/58
f 90/4/62 86/5/58 98/5/62
f 92/4/64 101/5/64 91/4/64
f 101/5/64 92/4/64 102/5/64
f 101/5/65 88/4/65 91/4/65
f 88/4/65 101/5/65 103/5/65
f 104/5/63 88/4/63 103/5/63
f 88/4/63 104/5/63 87/4/63
f 100/5/66 82/5/66 84/5/66
f 104/5/66 82/5/66 100/5/66
f 103/5/66 82/5/66 104/5/66
f 103/5/66 86/5/66 82/5/66
f 101/5/66 86/5/66 103/5/66
f 86/5/66 101/5/66 98/5/66
f 102/5/66 98/5/66 101/5/66
f 102/5/66 96/5/66 98/5/66
f 99/5/66 96/5/66 102/5/66
f 96/5/66 99/5/66 97/5/66
f 107/3/65 106/2/65 105/2/65
f 107/3/65 108/1/65 106/2/65
f 108/1/65 107/3/65 109/1/65
f 110/3/65 109/1/65 107/3/65
f 109/1/65 110/3/65 111/2/65
f 111/2/65 110/3/65 112/2/65
f 115/4/68 114/5/67 113/4/67
f 114/5/67 115/4/68 116/5/68
f 114/5/67 117/4/69 113/4/67
f 117/4/69 114/5/67 118/5/69
f 121/4/70 120/4/70 119/4/70
f 120/4/70 121/4/70 117/4/70
f 117/4/70 121/4/70 113/4/70
f 113/4/70 121/4/70 115/4/70
f 122/4/70 120/4/70 117/4/70
f 122/4/70 123/4/70 120/4/70
f 122/4/70 124/4/70 123/4/70
f 125/4/70 124/4/70 122/4/70
f 126/4/70 124/4/70 125/4/70
f 124/4/70 126/4/70 127/4/70
f 129/5/72 125/4/71 128/5/71
f 125/4/71 129/5/72 126/4/72
f 130/5/73 125/4/71 122/4/73
f 125/4/71 130/5/73 128/5/71
f 131/5/74 126/4/72 129/5/72
f 126/4/72 131/5/74 127/4/74
f 121/4/75 116/5/68 115/4/68
f 116/5/68 121/4/75 132/5/75
f 118/5/69 122/4/73 117/4/69
f 122/4/73 118/5/69 130/5/73
f 124/4/75 133/5/75 123/4/75
f 133/5/75 124/4/75 134/5/75
f 133/5/76 120/4/76 123/4/76
f 120/4/76 133/5/76 135/5/76
f 136/5/74 120/4/74 135/5/74
f 120/4/74 136/5/74 119/4/74
f 132/5/77 114/5/77 116/5/77
f 136/5/77 114/5/77 132/5/77
f 135/5/77 114/5/77 136/5/77
f 135/5/77 118/5/77 114/5/77
f 133/5/77 118/5/77 135/5/77
f 118/5/77 133/5/77 130/5/77
f 134/5/77 130/5/77 133/5/77
f 134/5/77 128/5/77 130/5/77
f 131/5/77 128/5/77 134/5/77
f 128/5/77 131/5/77 129/5/77

