# Created by Kenney (www.kenney.nl)

mtllib track-striped-wide.mtl

g track-striped-wide

v 1 0.3 0 1 1 1
v 1 0.3 0.5 1 1 1
v 0.9 0.3 0 1 1 1
v 0.9 0.3 0.5 1 1 1
v -0.9 0.3 0 1 1 1
v -0.9 0.1 0 1 1 1
v -0.9 0.3 0.5 1 1 1
v -0.9 0.1 0.5 1 1 1
v 1 0 0.5 1 1 1
v 1 0 0 1 1 1
v -1 0 0.5 1 1 1
v -1 0 0 1 1 1
v -1 0.3 0 1 1 1
v -1 0.3 0.5 1 1 1
v 0.9 0.1 0 1 1 1
v 0.9 0.1 0.5 1 1 1
v -1 0 -0.5 1 1 1
v -1 0.3 -0.5 1 1 1
v -0.9 0.3 -0.5 1 1 1
v -0.9 0.1 -0.5 1 1 1
v 0.9 0.1 -0.5 1 1 1
v 0.9 0.3 -0.5 1 1 1
v 1 0.3 -0.5 1 1 1
v 1 0 -0.5 1 1 1

vn 0.7071068 0.7071068 0
vn -0.7071068 0.7071068 0
vn 1 0 0
vn 0 -1 0
vn -1 0 0
vn 0 1 0

vt 0.59375 0.475
vt 0.59375 0.3416667
vt 0.59375 0.275
vt 0.59375 0.025
vt 0.59375 0.225
vt 0.59375 0.09166666

usemtl colormap

f 3/1/2 2/1/1 1/1/1
f 2/1/1 3/1/2 4/1/2
f 7/1/1 6/2/3 5/1/1
f 6/2/3 7/1/1 8/2/3
f 11/3/4 10/3/4 9/3/4
f 10/3/4 11/3/4 12/3/4
f 11/3/5 13/1/2 12/3/5
f 13/1/2 11/3/5 14/1/2
f 13/1/2 7/1/1 5/1/1
f 7/1/1 13/1/2 14/1/2
f 2/1/1 10/3/3 1/1/1
f 10/3/3 2/1/1 9/3/3
f 16/2/5 3/1/2 15/2/5
f 3/1/2 16/2/5 4/1/2
f 6/2/6 16/2/6 15/2/6
f 16/2/6 6/2/6 8/2/6
f 12/4/5 18/5/2 17/4/5
f 18/5/2 12/4/5 13/5/2
f 5/5/1 18/5/2 13/5/2
f 18/5/2 5/5/1 19/5/1
f 5/5/1 20/6/3 19/5/1
f 20/6/3 5/5/1 6/6/3
f 20/6/6 15/6/6 21/6/6
f 15/6/6 20/6/6 6/6/6
f 15/6/5 22/5/2 21/6/5
f 22/5/2 15/6/5 3/5/2
f 1/5/1 22/5/2 3/5/2
f 22/5/2 1/5/1 23/5/1
f 1/5/1 24/4/3 23/5/1
f 24/4/3 1/5/1 10/4/3
f 12/4/4 24/4/4 10/4/4
f 24/4/4 12/4/4 17/4/4

g track-striped-wide




usemtl colormap

f 3/1/2 2/1/1 1/1/1
f 2/1/1 3/1/2 4/1/2
f 7/1/1 6/2/3 5/1/1
f 6/2/3 7/1/1 8/2/3
f 11/3/4 10/3/4 9/3/4
f 10/3/4 11/3/4 12/3/4
f 11/3/5 13/1/2 12/3/5
f 13/1/2 11/3/5 14/1/2
f 13/1/2 7/1/1 5/1/1
f 7/1/1 13/1/2 14/1/2
f 2/1/1 10/3/3 1/1/1
f 10/3/3 2/1/1 9/3/3
f 16/2/5 3/1/2 15/2/5
f 3/1/2 16/2/5 4/1/2
f 6/2/6 16/2/6 15/2/6
f 16/2/6 6/2/6 8/2/6
f 12/4/5 18/5/2 17/4/5
f 18/5/2 12/4/5 13/5/2
f 5/5/1 18/5/2 13/5/2
f 18/5/2 5/5/1 19/5/1
f 5/5/1 20/6/3 19/5/1
f 20/6/3 5/5/1 6/6/3
f 20/6/6 15/6/6 21/6/6
f 15/6/6 20/6/6 6/6/6
f 15/6/5 22/5/2 21/6/5
f 22/5/2 15/6/5 3/5/2
f 1/5/1 22/5/2 3/5/2
f 22/5/2 1/5/1 23/5/1
f 1/5/1 24/4/3 23/5/1
f 24/4/3 1/5/1 10/4/3
f 12/4/4 24/4/4 10/4/4
f 24/4/4 12/4/4 17/4/4

