# Created by Kenney (www.kenney.nl)

mtllib track-striped-wide-straight-bump-up.mtl

g track-striped-wide-straight-bump-up

v 1 0.3299966 0.3605933 1 1 1
v 1 0.4340192 0.6905341 1 1 1
v 0.9 0.3299966 0.3605933 1 1 1
v 0.9 0.4340192 0.6905341 1 1 1
v -0.9 0.3299966 0.3605933 1 1 1
v -0.9 0.133376 0.3972039 1 1 1
v -0.9 0.4340192 0.6905341 1 1 1
v -0.9 0.2511655 0.7715559 1 1 1
v 1 0.1597387 0.8120666 1 1 1
v 1 0.03506577 0.4155097 1 1 1
v -1 0.1597387 0.8120666 1 1 1
v -1 0.03506577 0.4155097 1 1 1
v -1 0.3299966 0.3605933 1 1 1
v -1 0.4340192 0.6905341 1 1 1
v 0.9 0.133376 0.3972039 1 1 1
v 0.9 0.2511655 0.7715559 1 1 1
v -1 0 4.291534E-06 1 1 1
v -1 0.3 3.814697E-06 1 1 1
v -0.9 0.3 3.814697E-06 1 1 1
v -0.9 0.1 4.291534E-06 1 1 1
v 0.9 0.1 4.291534E-06 1 1 1
v 0.9 0.3 3.814697E-06 1 1 1
v 1 0.3 3.814697E-06 1 1 1
v 1 0 4.291534E-06 1 1 1
v 1 0.6145419 1.066401 1 1 1
v 1 0.759865 1.529574 1 1 1
v 0.9 0.6145419 1.066401 1 1 1
v 0.9 0.759865 1.529574 1 1 1
v -0.9 0.6145419 1.066401 1 1 1
v -0.9 0.4316882 1.147422 1 1 1
v -0.9 0.759865 1.529574 1 1 1
v -0.9 0.5632445 1.566185 1 1 1
v 1 0.4649342 1.584491 1 1 1
v 1 0.3402613 1.187933 1 1 1
v -1 0.4649342 1.584491 1 1 1
v -1 0.3402613 1.187933 1 1 1
v -1 0.6145419 1.066401 1 1 1
v -1 0.759865 1.529574 1 1 1
v 0.9 0.4316882 1.147422 1 1 1
v 0.9 0.5632445 1.566185 1 1 1
v 1 0.8 2 1 1 1
v 1 0.759865 2.470426 1 1 1
v 0.9 0.8 2 1 1 1
v 0.9 0.759865 2.470426 1 1 1
v -0.9 0.8 2 1 1 1
v -0.9 0.6 2 1 1 1
v -0.9 0.759865 2.470426 1 1 1
v -0.9 0.5632446 2.433815 1 1 1
v 1 0.4649342 2.415509 1 1 1
v 1 0.5 2 1 1 1
v -1 0.4649342 2.415509 1 1 1
v -1 0.5 2 1 1 1
v -1 0.8 2 1 1 1
v -1 0.759865 2.470426 1 1 1
v 0.9 0.6 2 1 1 1
v 0.9 0.5632446 2.433815 1 1 1
v 1 0.614542 2.933599 1 1 1
v 1 0.4340193 3.309466 1 1 1
v 0.9 0.614542 2.933599 1 1 1
v 0.9 0.4340193 3.309466 1 1 1
v -0.9 0.614542 2.933599 1 1 1
v -0.9 0.4316883 2.852577 1 1 1
v -0.9 0.4340193 3.309466 1 1 1
v -0.9 0.2511655 3.228444 1 1 1
v 1 0.1597387 3.187933 1 1 1
v 1 0.3402615 2.812067 1 1 1
v -1 0.1597387 3.187933 1 1 1
v -1 0.3402615 2.812067 1 1 1
v -1 0.614542 2.933599 1 1 1
v -1 0.4340193 3.309466 1 1 1
v 0.9 0.4316883 2.852577 1 1 1
v 0.9 0.2511655 3.228444 1 1 1
v 1 0.3299967 3.639407 1 1 1
v 1 0.3 3.999996 1 1 1
v 0.9 0.3299967 3.639407 1 1 1
v 0.9 0.3 3.999996 1 1 1
v -0.9 0.3299967 3.639407 1 1 1
v -0.9 0.1333761 3.602796 1 1 1
v -0.9 0.3 3.999996 1 1 1
v -0.9 0.1 3.999996 1 1 1
v 1 0 3.999995 1 1 1
v 1 0.03506589 3.58449 1 1 1
v -1 0 3.999995 1 1 1
v -1 0.03506589 3.58449 1 1 1
v -1 0.3299967 3.639407 1 1 1
v -1 0.3 3.999996 1 1 1
v 0.9 0.1333761 3.602796 1 1 1
v 0.9 0.1 3.999996 1 1 1
v -0.9 0.3 0 1 1 1
v -1 0.3 0 1 1 1
v -0.9 0.1 0 1 1 1
v -1 0 0 1 1 1
v 1 0 0 1 1 1
v 0.9 0.1 0 1 1 1
v 1 0.3 0 1 1 1
v 0.9 0.3 0 1 1 1
v -0.1207107 0 -0.1707107 1 1 1
v -0.1207107 0.05000001 -0.1707107 1 1 1
v -0.15 0 -0.1 1 1 1
v -0.15 0.05000001 -0.1 1 1 1
v -0.05 0 -0.2 1 1 1
v -0.05 0.05000001 -0.2 1 1 1
v -0.05 0 7.219114E-16 1 1 1
v -0.05 0 -0.1 1 1 1
v -0.15 0 1.082867E-15 1 1 1
v 0.05 0 -0.2 1 1 1
v 0.05 0 -0.1 1 1 1
v 0.05 0 3.609557E-16 1 1 1
v 0.1207107 0 -0.1707107 1 1 1
v 0.15 0 -0.1 1 1 1
v 0.15 0 0 1 1 1
v 0.1207107 0.05000001 -0.1707107 1 1 1
v 0.15 0.05000001 -0.1 1 1 1
v 0.05 0.05000001 -0.2 1 1 1
v 0.15 0.05000001 0 1 1 1
v -0.15 0.05000001 1.082867E-15 1 1 1
v 0.05 0.05000001 -0.1 1 1 1
v 0.05 0.05000001 3.609557E-16 1 1 1
v -0.05 0.05000001 -0.1 1 1 1
v -0.05 0.05000001 7.219114E-16 1 1 1
v 0.9 0.3 4 1 1 1
v 1 0.3 4 1 1 1
v 0.9 0.1 4 1 1 1
v 1 0 4 1 1 1
v -1 0 4 1 1 1
v -0.9 0.1 4 1 1 1
v -1 0.3 4 1 1 1
v -0.9 0.3 4 1 1 1
v 0.1207107 0 4.170711 1 1 1
v 0.1207107 0.05000001 4.170711 1 1 1
v 0.15 0 4.1 1 1 1
v 0.15 0.05000001 4.1 1 1 1
v 0.05 0 4.2 1 1 1
v 0.05 0.05000001 4.2 1 1 1
v 0.05 0 4 1 1 1
v 0.05 0 4.1 1 1 1
v 0.15 0 4 1 1 1
v -0.05 0 4.2 1 1 1
v -0.05 0 4.1 1 1 1
v -0.05 0 4 1 1 1
v -0.1207107 0 4.170711 1 1 1
v -0.15 0 4.1 1 1 1
v -0.15 0 4 1 1 1
v -0.1207107 0.05000001 4.170711 1 1 1
v -0.15 0.05000001 4.1 1 1 1
v -0.05 0.05000001 4.2 1 1 1
v -0.15 0.05000001 4 1 1 1
v 0.15 0.05000001 4 1 1 1
v -0.05 0.05000001 4.1 1 1 1
v -0.05 0.05000001 4 1 1 1
v 0.05 0.05000001 4.1 1 1 1
v 0.05 0.05000001 4 1 1 1

vn 0.7071068 0.6951586 -0.129439
vn 0.7071068 0.6464855 -0.286455
vn -0.7071068 0.6951586 -0.129439
vn -0.7071068 0.6464855 -0.286455
vn 1 0 0
vn 0 -0.9142686 0.4051086
vn 0 -0.9831028 0.1830544
vn -1 0 0
vn 0 0.9831028 -0.1830544
vn 0 0.9142686 -0.4051086
vn -0.7071068 0.7071068 -1.017203E-06
vn 0.7071068 0.7071068 -1.017203E-06
vn 0 1 -1.438542E-06
vn 0 -1 1.438542E-06
vn 0.7071068 0.6464855 -0.2864551
vn -0.7071068 0.6464855 -0.2864551
vn 0 -0.9142686 0.4051086
vn 0 0.9142686 -0.4051086
vn 0.7071068 0.7071068 0
vn 0.7071068 0.6951587 0.129439
vn -0.7071068 0.7071068 0
vn -0.7071068 0.6951587 0.129439
vn 0 -0.9831028 -0.1830543
vn 0 -1 0
vn 0 1 0
vn 0 0.9831028 0.1830543
vn 0.7071068 0.6464855 0.286455
vn 0.7071068 0.6464855 0.2864551
vn -0.7071068 0.6464855 0.286455
vn -0.7071068 0.6464855 0.2864551
vn 0 -0.9142686 -0.4051086
vn 0 -0.9142686 -0.4051085
vn 0 0.9142686 0.4051085
vn 0 0.9142686 0.4051086
vn 0.7071068 0.6951586 0.1294391
vn 0.7071068 0.7071068 1.053675E-06
vn -0.7071068 0.6951586 0.1294391
vn -0.7071068 0.7071068 1.053675E-06
vn 0 -1 -1.490121E-06
vn 0 -0.9831027 -0.1830546
vn 0 0.9831027 0.1830546
vn 0 1 1.490121E-06
vn 0 0 -1
vn -0.7071068 0 -0.7071068
vn -0.9807853 0 -0.1950903
vn -0.1950903 0 -0.9807853
vn 0.7071068 0 -0.7071068
vn 0.9807853 0 -0.1950903
vn 0.1950903 0 -0.9807853
vn 0 0 1
vn 0.7071068 0 0.7071068
vn 0.9807853 0 0.1950903
vn 0.1950903 0 0.9807853
vn -0.7071068 0 0.7071068
vn -0.9807853 0 0.1950903
vn -0.1950903 0 0.9807853
vn -1 0 7.21645E-16
vn 1 0 -7.21645E-16
vn -7.21645E-16 0 -1

vt 0.59375 0.475
vt 0.59375 0.3416667
vt 0.59375 0.275
vt 0.59375 0.025
vt 0.59375 0.225
vt 0.59375 0.09166666
vt 0.34375 0.025
vt 0.34375 0.225

usemtl colormap

f 3/1/3 2/1/2 1/1/1
f 2/1/2 3/1/3 4/1/4
f 7/1/2 6/2/5 5/1/1
f 6/2/5 7/1/2 8/2/5
f 11/3/6 10/3/7 9/3/6
f 10/3/7 11/3/6 12/3/7
f 11/3/8 13/1/3 12/3/8
f 13/1/3 11/3/8 14/1/4
f 13/1/3 7/1/2 5/1/1
f 7/1/2 13/1/3 14/1/4
f 2/1/2 10/3/5 1/1/1
f 10/3/5 2/1/2 9/3/5
f 16/2/8 3/1/3 15/2/8
f 3/1/3 16/2/8 4/1/4
f 6/2/9 16/2/10 15/2/9
f 16/2/10 6/2/9 8/2/10
f 12/4/8 18/5/11 17/4/8
f 18/5/11 12/4/8 13/5/3
f 5/5/1 18/5/11 13/5/3
f 18/5/11 5/5/1 19/5/12
f 5/5/1 20/6/5 19/5/12
f 20/6/5 5/5/1 6/6/5
f 20/6/13 15/6/9 21/6/13
f 15/6/9 20/6/13 6/6/9
f 15/6/8 22/5/11 21/6/8
f 22/5/11 15/6/8 3/5/3
f 1/5/1 22/5/11 3/5/3
f 22/5/11 1/5/1 23/5/12
f 1/5/1 24/4/5 23/5/12
f 24/4/5 1/5/1 10/4/5
f 12/4/7 24/4/14 10/4/7
f 24/4/14 12/4/7 17/4/14
f 27/1/16 26/1/1 25/1/15
f 26/1/1 27/1/16 28/1/3
f 31/1/1 30/2/5 29/1/15
f 30/2/5 31/1/1 32/2/5
f 35/3/7 34/3/17 33/3/7
f 34/3/17 35/3/7 36/3/17
f 35/3/8 37/1/16 36/3/8
f 37/1/16 35/3/8 38/1/3
f 37/1/16 31/1/1 29/1/15
f 31/1/1 37/1/16 38/1/3
f 26/1/1 34/3/5 25/1/15
f 34/3/5 26/1/1 33/3/5
f 40/2/8 27/1/16 39/2/8
f 27/1/16 40/2/8 28/1/3
f 30/2/18 40/2/9 39/2/18
f 40/2/9 30/2/18 32/2/9
f 36/4/8 14/5/4 11/4/8
f 14/5/4 36/4/8 37/5/16
f 29/5/15 14/5/4 37/5/16
f 14/5/4 29/5/15 7/5/2
f 29/5/15 8/6/5 7/5/2
f 8/6/5 29/5/15 30/6/5
f 8/6/10 39/6/18 16/6/10
f 39/6/18 8/6/10 30/6/18
f 39/6/8 4/5/4 16/6/8
f 4/5/4 39/6/8 27/5/16
f 25/5/15 4/5/4 27/5/16
f 4/5/4 25/5/15 2/5/2
f 25/5/15 9/4/5 2/5/2
f 9/4/5 25/5/15 34/4/5
f 36/4/17 9/4/6 34/4/17
f 9/4/6 36/4/17 11/4/6
f 43/1/21 42/1/20 41/1/19
f 42/1/20 43/1/21 44/1/22
f 47/1/20 46/2/5 45/1/19
f 46/2/5 47/1/20 48/2/5
f 51/3/23 50/3/24 49/3/23
f 50/3/24 51/3/23 52/3/24
f 51/3/8 53/1/21 52/3/8
f 53/1/21 51/3/8 54/1/22
f 53/1/21 47/1/20 45/1/19
f 47/1/20 53/1/21 54/1/22
f 42/1/20 50/3/5 41/1/19
f 50/3/5 42/1/20 49/3/5
f 56/2/8 43/1/21 55/2/8
f 43/1/21 56/2/8 44/1/22
f 46/2/25 56/2/26 55/2/25
f 56/2/26 46/2/25 48/2/26
f 52/4/8 38/5/3 35/4/8
f 38/5/3 52/4/8 53/5/21
f 45/5/19 38/5/3 53/5/21
f 38/5/3 45/5/19 31/5/1
f 45/5/19 32/6/5 31/5/1
f 32/6/5 45/5/19 46/6/5
f 32/6/9 55/6/25 40/6/9
f 55/6/25 32/6/9 46/6/25
f 55/6/8 28/5/3 40/6/8
f 28/5/3 55/6/8 43/5/21
f 41/5/19 28/5/3 43/5/21
f 28/5/3 41/5/19 26/5/1
f 41/5/19 33/4/5 26/5/1
f 33/4/5 41/5/19 50/4/5
f 52/4/24 33/4/7 50/4/24
f 33/4/7 52/4/24 35/4/7
f 59/1/29 58/1/28 57/1/27
f 58/1/28 59/1/29 60/1/30
f 63/1/28 62/2/5 61/1/27
f 62/2/5 63/1/28 64/2/5
f 67/3/31 66/3/32 65/3/31
f 66/3/32 67/3/31 68/3/32
f 67/3/8 69/1/29 68/3/8
f 69/1/29 67/3/8 70/1/30
f 69/1/29 63/1/28 61/1/27
f 63/1/28 69/1/29 70/1/30
f 58/1/28 66/3/5 57/1/27
f 66/3/5 58/1/28 65/3/5
f 72/2/8 59/1/29 71/2/8
f 59/1/29 72/2/8 60/1/30
f 62/2/33 72/2/34 71/2/33
f 72/2/34 62/2/33 64/2/34
f 68/4/8 54/5/22 51/4/8
f 54/5/22 68/4/8 69/5/29
f 61/5/27 54/5/22 69/5/29
f 54/5/22 61/5/27 47/5/20
f 61/5/27 48/6/5 47/5/20
f 48/6/5 61/5/27 62/6/5
f 48/6/26 71/6/33 56/6/26
f 71/6/33 48/6/26 62/6/33
f 71/6/8 44/5/22 56/6/8
f 44/5/22 71/6/8 59/5/29
f 57/5/27 44/5/22 59/5/29
f 44/5/22 57/5/27 42/5/20
f 57/5/27 49/4/5 42/5/20
f 49/4/5 57/5/27 66/4/5
f 68/4/32 49/4/23 66/4/32
f 49/4/23 68/4/32 51/4/23
f 75/1/37 74/1/36 73/1/35
f 74/1/36 75/1/37 76/1/38
f 79/1/36 78/2/5 77/1/35
f 78/2/5 79/1/36 80/2/5
f 83/3/39 82/3/40 81/3/39
f 82/3/40 83/3/39 84/3/40
f 83/3/8 85/1/37 84/3/8
f 85/1/37 83/3/8 86/1/38
f 85/1/37 79/1/36 77/1/35
f 79/1/36 85/1/37 86/1/38
f 74/1/36 82/3/5 73/1/35
f 82/3/5 74/1/36 81/3/5
f 88/2/8 75/1/37 87/2/8
f 75/1/37 88/2/8 76/1/38
f 78/2/41 88/2/42 87/2/41
f 88/2/42 78/2/41 80/2/42
f 84/4/8 70/5/30 67/4/8
f 70/5/30 84/4/8 85/5/37
f 77/5/35 70/5/30 85/5/37
f 70/5/30 77/5/35 63/5/28
f 77/5/35 64/6/5 63/5/28
f 64/6/5 77/5/35 78/6/5
f 64/6/34 87/6/41 72/6/34
f 87/6/41 64/6/34 78/6/41
f 87/6/8 60/5/30 72/6/8
f 60/5/30 87/6/8 75/5/37
f 73/5/35 60/5/30 75/5/37
f 60/5/30 73/5/35 58/5/28
f 73/5/35 65/4/5 58/5/28
f 65/4/5 73/5/35 82/4/5
f 84/4/40 65/4/31 82/4/40
f 65/4/31 84/4/40 67/4/31
f 91/6/43 90/5/43 89/5/43
f 91/6/43 92/4/43 90/5/43
f 92/4/43 91/6/43 93/4/43
f 94/6/43 93/4/43 91/6/43
f 93/4/43 94/6/43 95/5/43
f 95/5/43 94/6/43 96/5/43
f 99/7/45 98/8/44 97/7/44
f 98/8/44 99/7/45 100/8/45
f 98/8/44 101/7/46 97/7/44
f 101/7/46 98/8/44 102/8/46
f 105/7/24 104/7/24 103/7/24
f 104/7/24 105/7/24 101/7/24
f 101/7/24 105/7/24 97/7/24
f 97/7/24 105/7/24 99/7/24
f 106/7/24 104/7/24 101/7/24
f 106/7/24 107/7/24 104/7/24
f 106/7/24 108/7/24 107/7/24
f 109/7/24 108/7/24 106/7/24
f 110/7/24 108/7/24 109/7/24
f 108/7/24 110/7/24 111/7/24
f 113/8/48 109/7/47 112/8/47
f 109/7/47 113/8/48 110/7/48
f 114/8/49 109/7/47 106/7/49
f 109/7/47 114/8/49 112/8/47
f 115/8/5 110/7/48 113/8/48
f 110/7/48 115/8/5 111/7/5
f 105/7/8 100/8/45 99/7/45
f 100/8/45 105/7/8 116/8/8
f 102/8/46 106/7/49 101/7/46
f 106/7/49 102/8/46 114/8/49
f 108/7/8 117/8/8 107/7/8
f 117/8/8 108/7/8 118/8/8
f 117/8/50 104/7/50 107/7/50
f 104/7/50 117/8/50 119/8/50
f 120/8/5 104/7/5 119/8/5
f 104/7/5 120/8/5 103/7/5
f 116/8/25 98/8/25 100/8/25
f 120/8/25 98/8/25 116/8/25
f 119/8/25 98/8/25 120/8/25
f 119/8/25 102/8/25 98/8/25
f 117/8/25 102/8/25 119/8/25
f 102/8/25 117/8/25 114/8/25
f 118/8/25 114/8/25 117/8/25
f 118/8/25 112/8/25 114/8/25
f 115/8/25 112/8/25 118/8/25
f 112/8/25 115/8/25 113/8/25
f 123/2/50 122/1/50 121/1/50
f 123/2/50 124/3/50 122/1/50
f 124/3/50 123/2/50 125/3/50
f 126/2/50 125/3/50 123/2/50
f 125/3/50 126/2/50 127/1/50
f 127/1/50 126/2/50 128/1/50
f 131/7/52 130/8/51 129/7/51
f 130/8/51 131/7/52 132/8/52
f 130/8/51 133/7/53 129/7/51
f 133/7/53 130/8/51 134/8/53
f 137/7/24 136/7/24 135/7/24
f 136/7/24 137/7/24 133/7/24
f 133/7/24 137/7/24 129/7/24
f 129/7/24 137/7/24 131/7/24
f 138/7/24 136/7/24 133/7/24
f 138/7/24 139/7/24 136/7/24
f 138/7/24 140/7/24 139/7/24
f 141/7/24 140/7/24 138/7/24
f 142/7/24 140/7/24 141/7/24
f 140/7/24 142/7/24 143/7/24
f 145/8/55 141/7/54 144/8/54
f 141/7/54 145/8/55 142/7/55
f 146/8/56 141/7/54 138/7/56
f 141/7/54 146/8/56 144/8/54
f 147/8/57 142/7/55 145/8/55
f 142/7/55 147/8/57 143/7/57
f 137/7/58 132/8/52 131/7/52
f 132/8/52 137/7/58 148/8/58
f 134/8/53 138/7/56 133/7/53
f 138/7/56 134/8/53 146/8/56
f 140/7/58 149/8/58 139/7/58
f 149/8/58 140/7/58 150/8/58
f 149/8/59 136/7/59 139/7/59
f 136/7/59 149/8/59 151/8/59
f 152/8/57 136/7/57 151/8/57
f 136/7/57 152/8/57 135/7/57
f 148/8/25 130/8/25 132/8/25
f 152/8/25 130/8/25 148/8/25
f 151/8/25 130/8/25 152/8/25
f 151/8/25 134/8/25 130/8/25
f 149/8/25 134/8/25 151/8/25
f 134/8/25 149/8/25 146/8/25
f 150/8/25 146/8/25 149/8/25
f 150/8/25 144/8/25 146/8/25
f 147/8/25 144/8/25 150/8/25
f 144/8/25 147/8/25 145/8/25

g track-striped-wide-straight-bump-up




usemtl colormap

f 3/1/3 2/1/2 1/1/1
f 2/1/2 3/1/3 4/1/4
f 7/1/2 6/2/5 5/1/1
f 6/2/5 7/1/2 8/2/5
f 11/3/6 10/3/7 9/3/6
f 10/3/7 11/3/6 12/3/7
f 11/3/8 13/1/3 12/3/8
f 13/1/3 11/3/8 14/1/4
f 13/1/3 7/1/2 5/1/1
f 7/1/2 13/1/3 14/1/4
f 2/1/2 10/3/5 1/1/1
f 10/3/5 2/1/2 9/3/5
f 16/2/8 3/1/3 15/2/8
f 3/1/3 16/2/8 4/1/4
f 6/2/9 16/2/10 15/2/9
f 16/2/10 6/2/9 8/2/10
f 12/4/8 18/5/11 17/4/8
f 18/5/11 12/4/8 13/5/3
f 5/5/1 18/5/11 13/5/3
f 18/5/11 5/5/1 19/5/12
f 5/5/1 20/6/5 19/5/12
f 20/6/5 5/5/1 6/6/5
f 20/6/13 15/6/9 21/6/13
f 15/6/9 20/6/13 6/6/9
f 15/6/8 22/5/11 21/6/8
f 22/5/11 15/6/8 3/5/3
f 1/5/1 22/5/11 3/5/3
f 22/5/11 1/5/1 23/5/12
f 1/5/1 24/4/5 23/5/12
f 24/4/5 1/5/1 10/4/5
f 12/4/7 24/4/14 10/4/7
f 24/4/14 12/4/7 17/4/14
f 27/1/16 26/1/1 25/1/15
f 26/1/1 27/1/16 28/1/3
f 31/1/1 30/2/5 29/1/15
f 30/2/5 31/1/1 32/2/5
f 35/3/7 34/3/17 33/3/7
f 34/3/17 35/3/7 36/3/17
f 35/3/8 37/1/16 36/3/8
f 37/1/16 35/3/8 38/1/3
f 37/1/16 31/1/1 29/1/15
f 31/1/1 37/1/16 38/1/3
f 26/1/1 34/3/5 25/1/15
f 34/3/5 26/1/1 33/3/5
f 40/2/8 27/1/16 39/2/8
f 27/1/16 40/2/8 28/1/3
f 30/2/18 40/2/9 39/2/18
f 40/2/9 30/2/18 32/2/9
f 36/4/8 14/5/4 11/4/8
f 14/5/4 36/4/8 37/5/16
f 29/5/15 14/5/4 37/5/16
f 14/5/4 29/5/15 7/5/2
f 29/5/15 8/6/5 7/5/2
f 8/6/5 29/5/15 30/6/5
f 8/6/10 39/6/18 16/6/10
f 39/6/18 8/6/10 30/6/18
f 39/6/8 4/5/4 16/6/8
f 4/5/4 39/6/8 27/5/16
f 25/5/15 4/5/4 27/5/16
f 4/5/4 25/5/15 2/5/2
f 25/5/15 9/4/5 2/5/2
f 9/4/5 25/5/15 34/4/5
f 36/4/17 9/4/6 34/4/17
f 9/4/6 36/4/17 11/4/6
f 43/1/21 42/1/20 41/1/19
f 42/1/20 43/1/21 44/1/22
f 47/1/20 46/2/5 45/1/19
f 46/2/5 47/1/20 48/2/5
f 51/3/23 50/3/24 49/3/23
f 50/3/24 51/3/23 52/3/24
f 51/3/8 53/1/21 52/3/8
f 53/1/21 51/3/8 54/1/22
f 53/1/21 47/1/20 45/1/19
f 47/1/20 53/1/21 54/1/22
f 42/1/20 50/3/5 41/1/19
f 50/3/5 42/1/20 49/3/5
f 56/2/8 43/1/21 55/2/8
f 43/1/21 56/2/8 44/1/22
f 46/2/25 56/2/26 55/2/25
f 56/2/26 46/2/25 48/2/26
f 52/4/8 38/5/3 35/4/8
f 38/5/3 52/4/8 53/5/21
f 45/5/19 38/5/3 53/5/21
f 38/5/3 45/5/19 31/5/1
f 45/5/19 32/6/5 31/5/1
f 32/6/5 45/5/19 46/6/5
f 32/6/9 55/6/25 40/6/9
f 55/6/25 32/6/9 46/6/25
f 55/6/8 28/5/3 40/6/8
f 28/5/3 55/6/8 43/5/21
f 41/5/19 28/5/3 43/5/21
f 28/5/3 41/5/19 26/5/1
f 41/5/19 33/4/5 26/5/1
f 33/4/5 41/5/19 50/4/5
f 52/4/24 33/4/7 50/4/24
f 33/4/7 52/4/24 35/4/7
f 59/1/29 58/1/28 57/1/27
f 58/1/28 59/1/29 60/1/30
f 63/1/28 62/2/5 61/1/27
f 62/2/5 63/1/28 64/2/5
f 67/3/31 66/3/32 65/3/31
f 66/3/32 67/3/31 68/3/32
f 67/3/8 69/1/29 68/3/8
f 69/1/29 67/3/8 70/1/30
f 69/1/29 63/1/28 61/1/27
f 63/1/28 69/1/29 70/1/30
f 58/1/28 66/3/5 57/1/27
f 66/3/5 58/1/28 65/3/5
f 72/2/8 59/1/29 71/2/8
f 59/1/29 72/2/8 60/1/30
f 62/2/33 72/2/34 71/2/33
f 72/2/34 62/2/33 64/2/34
f 68/4/8 54/5/22 51/4/8
f 54/5/22 68/4/8 69/5/29
f 61/5/27 54/5/22 69/5/29
f 54/5/22 61/5/27 47/5/20
f 61/5/27 48/6/5 47/5/20
f 48/6/5 61/5/27 62/6/5
f 48/6/26 71/6/33 56/6/26
f 71/6/33 48/6/26 62/6/33
f 71/6/8 44/5/22 56/6/8
f 44/5/22 71/6/8 59/5/29
f 57/5/27 44/5/22 59/5/29
f 44/5/22 57/5/27 42/5/20
f 57/5/27 49/4/5 42/5/20
f 49/4/5 57/5/27 66/4/5
f 68/4/32 49/4/23 66/4/32
f 49/4/23 68/4/32 51/4/23
f 75/1/37 74/1/36 73/1/35
f 74/1/36 75/1/37 76/1/38
f 79/1/36 78/2/5 77/1/35
f 78/2/5 79/1/36 80/2/5
f 83/3/39 82/3/40 81/3/39
f 82/3/40 83/3/39 84/3/40
f 83/3/8 85/1/37 84/3/8
f 85/1/37 83/3/8 86/1/38
f 85/1/37 79/1/36 77/1/35
f 79/1/36 85/1/37 86/1/38
f 74/1/36 82/3/5 73/1/35
f 82/3/5 74/1/36 81/3/5
f 88/2/8 75/1/37 87/2/8
f 75/1/37 88/2/8 76/1/38
f 78/2/41 88/2/42 87/2/41
f 88/2/42 78/2/41 80/2/42
f 84/4/8 70/5/30 67/4/8
f 70/5/30 84/4/8 85/5/37
f 77/5/35 70/5/30 85/5/37
f 70/5/30 77/5/35 63/5/28
f 77/5/35 64/6/5 63/5/28
f 64/6/5 77/5/35 78/6/5
f 64/6/34 87/6/41 72/6/34
f 87/6/41 64/6/34 78/6/41
f 87/6/8 60/5/30 72/6/8
f 60/5/30 87/6/8 75/5/37
f 73/5/35 60/5/30 75/5/37
f 60/5/30 73/5/35 58/5/28
f 73/5/35 65/4/5 58/5/28
f 65/4/5 73/5/35 82/4/5
f 84/4/40 65/4/31 82/4/40
f 65/4/31 84/4/40 67/4/31
f 91/6/43 90/5/43 89/5/43
f 91/6/43 92/4/43 90/5/43
f 92/4/43 91/6/43 93/4/43
f 94/6/43 93/4/43 91/6/43
f 93/4/43 94/6/43 95/5/43
f 95/5/43 94/6/43 96/5/43
f 99/7/45 98/8/44 97/7/44
f 98/8/44 99/7/45 100/8/45
f 98/8/44 101/7/46 97/7/44
f 101/7/46 98/8/44 102/8/46
f 105/7/24 104/7/24 103/7/24
f 104/7/24 105/7/24 101/7/24
f 101/7/24 105/7/24 97/7/24
f 97/7/24 105/7/24 99/7/24
f 106/7/24 104/7/24 101/7/24
f 106/7/24 107/7/24 104/7/24
f 106/7/24 108/7/24 107/7/24
f 109/7/24 108/7/24 106/7/24
f 110/7/24 108/7/24 109/7/24
f 108/7/24 110/7/24 111/7/24
f 113/8/48 109/7/47 112/8/47
f 109/7/47 113/8/48 110/7/48
f 114/8/49 109/7/47 106/7/49
f 109/7/47 114/8/49 112/8/47
f 115/8/5 110/7/48 113/8/48
f 110/7/48 115/8/5 111/7/5
f 105/7/8 100/8/45 99/7/45
f 100/8/45 105/7/8 116/8/8
f 102/8/46 106/7/49 101/7/46
f 106/7/49 102/8/46 114/8/49
f 108/7/8 117/8/8 107/7/8
f 117/8/8 108/7/8 118/8/8
f 117/8/50 104/7/50 107/7/50
f 104/7/50 117/8/50 119/8/50
f 120/8/5 104/7/5 119/8/5
f 104/7/5 120/8/5 103/7/5
f 116/8/25 98/8/25 100/8/25
f 120/8/25 98/8/25 116/8/25
f 119/8/25 98/8/25 120/8/25
f 119/8/25 102/8/25 98/8/25
f 117/8/25 102/8/25 119/8/25
f 102/8/25 117/8/25 114/8/25
f 118/8/25 114/8/25 117/8/25
f 118/8/25 112/8/25 114/8/25
f 115/8/25 112/8/25 118/8/25
f 112/8/25 115/8/25 113/8/25
f 123/2/50 122/1/50 121/1/50
f 123/2/50 124/3/50 122/1/50
f 124/3/50 123/2/50 125/3/50
f 126/2/50 125/3/50 123/2/50
f 125/3/50 126/2/50 127/1/50
f 127/1/50 126/2/50 128/1/50
f 131/7/52 130/8/51 129/7/51
f 130/8/51 131/7/52 132/8/52
f 130/8/51 133/7/53 129/7/51
f 133/7/53 130/8/51 134/8/53
f 137/7/24 136/7/24 135/7/24
f 136/7/24 137/7/24 133/7/24
f 133/7/24 137/7/24 129/7/24
f 129/7/24 137/7/24 131/7/24
f 138/7/24 136/7/24 133/7/24
f 138/7/24 139/7/24 136/7/24
f 138/7/24 140/7/24 139/7/24
f 141/7/24 140/7/24 138/7/24
f 142/7/24 140/7/24 141/7/24
f 140/7/24 142/7/24 143/7/24
f 145/8/55 141/7/54 144/8/54
f 141/7/54 145/8/55 142/7/55
f 146/8/56 141/7/54 138/7/56
f 141/7/54 146/8/56 144/8/54
f 147/8/57 142/7/55 145/8/55
f 142/7/55 147/8/57 143/7/57
f 137/7/58 132/8/52 131/7/52
f 132/8/52 137/7/58 148/8/58
f 134/8/53 138/7/56 133/7/53
f 138/7/56 134/8/53 146/8/56
f 140/7/58 149/8/58 139/7/58
f 149/8/58 140/7/58 150/8/58
f 149/8/59 136/7/59 139/7/59
f 136/7/59 149/8/59 151/8/59
f 152/8/57 136/7/57 151/8/57
f 136/7/57 152/8/57 135/7/57
f 148/8/25 130/8/25 132/8/25
f 152/8/25 130/8/25 148/8/25
f 151/8/25 130/8/25 152/8/25
f 151/8/25 134/8/25 130/8/25
f 149/8/25 134/8/25 151/8/25
f 134/8/25 149/8/25 146/8/25
f 150/8/25 146/8/25 149/8/25
f 150/8/25 144/8/25 146/8/25
f 147/8/25 144/8/25 150/8/25
f 144/8/25 147/8/25 145/8/25

