# Created by Kenney (www.kenney.nl)

mtllib track-striped-narrow-straight-bend.mtl

g track-striped-narrow-straight-bend

v 0.5 0.1779393 0.7471502 1 1 1
v 0.5 0.04742503 0.3833259 1 1 1
v -0.5 0.1778598 0.747188 1 1 1
v -0.5 0.04738188 0.3833364 1 1 1
v -0.5000134 0.338798 0.3120863 1 1 1
v -0.5000267 0.4488329 0.6184496 1 1 1
v 0.3999958 0.1445594 0.3595769 1 1 1
v 0.3999863 0.3388369 0.3120768 1 1 1
v 0.399991 0.2682557 0.7042412 1 1 1
v 0.3999739 0.4489045 0.6184156 1 1 1
v -0.400013 0.3388023 0.3120853 1 1 1
v -0.4000263 0.4488409 0.6184458 1 1 1
v 0.4999866 0.3388412 0.3120757 1 1 1
v 0.4999733 0.4489124 0.6184118 1 1 1
v -0.4000044 0.1445249 0.3595853 1 1 1
v -0.4000092 0.2681921 0.7042714 1 1 1
v 0.5 0 3.099442E-06 1 1 1
v -0.5 0 3.099442E-06 1 1 1
v 0.3999996 0.1 2.861023E-06 1 1 1
v 0.3999996 0.3 2.503395E-06 1 1 1
v 0.5 0.3 2.503395E-06 1 1 1
v -0.3999996 0.1 2.861023E-06 1 1 1
v -0.5 0.3 2.503395E-06 1 1 1
v -0.3999996 0.3 2.503395E-06 1 1 1
v 0.5 0.625061 1.374939 1 1 1
v 0.5 0.374781 1.080072 1 1 1
v -0.5 0.624939 1.375061 1 1 1
v -0.5 0.3746747 1.080148 1 1 1
v -0.5000391 0.6186635 0.905593 1 1 1
v -0.5000515 0.8370709 1.162929 1 1 1
v 0.3999872 0.4561 1.021895 1 1 1
v 0.3999605 0.6187592 0.9055246 1 1 1
v 0.3999825 0.6957595 1.30424 1 1 1
v 0.3999481 0.8371809 1.162819 1 1 1
v -0.4000397 0.6186743 0.9055854 1 1 1
v -0.4000521 0.8370831 1.162917 1 1 1
v 0.4999609 0.6187699 0.905517 1 1 1
v 0.4999485 0.8371931 1.162807 1 1 1
v -0.400013 0.456015 1.021955 1 1 1
v -0.4000177 0.6956618 1.304338 1 1 1
v 0.5 1.252886 1.821984 1 1 1
v 0.5 0.9199524 1.625185 1 1 1
v -0.5 1.252775 1.822217 1 1 1
v -0.5 0.9198272 1.625359 1 1 1
v -0.5000648 1.094382 1.38137 1 1 1
v -0.5000772 1.381514 1.551244 1 1 1
v 0.3999786 0.9781249 1.543872 1 1 1
v 0.3999357 1.094495 1.381213 1 1 1
v 0.3999739 1.295788 1.731683 1 1 1
v 0.3999224 1.381613 1.551034 1 1 1
v -0.4000645 1.094395 1.381353 1 1 1
v -0.4000769 1.381525 1.55122 1 1 1
v 0.4999352 1.094507 1.381196 1 1 1
v 0.4999228 1.381624 1.551011 1 1 1
v -0.4000216 0.9780247 1.544012 1 1 1
v -0.4000254 1.295699 1.731869 1 1 1
v 0.5 1.999997 2 1 1 1
v 0.5 1.616704 1.95245 1 1 1
v -0.5 1.999997 2 1 1 1
v -0.5 1.616633 1.952743 1 1 1
v -0.5000906 1.687883 1.661327 1 1 1
v -0.5 1.999998 1.7 1 1 1
v 0.3999701 1.640447 1.855341 1 1 1
v 0.39991 1.687948 1.661063 1 1 1
v 0.3999996 1.999997 1.9 1 1 1
v 0.3999996 1.999998 1.7 1 1 1
v -0.4000902 1.687891 1.661297 1 1 1
v -0.3999996 1.999998 1.7 1 1 1
v 0.4999094 1.687955 1.661034 1 1 1
v 0.5 1.999998 1.7 1 1 1
v -0.4000301 1.64039 1.855575 1 1 1
v -0.3999996 1.999997 1.9 1 1 1
v -0.4 0.3 0 1 1 1
v -0.5 0.3 0 1 1 1
v -0.4 0.1 0 1 1 1
v -0.5 0 0 1 1 1
v 0.5 0 0 1 1 1
v 0.4 0.1 0 1 1 1
v 0.5 0.3 0 1 1 1
v 0.4 0.3 0 1 1 1
v -0.1207107 0 -0.1707107 1 1 1
v -0.1207107 0.05000001 -0.1707107 1 1 1
v -0.15 0 -0.1 1 1 1
v -0.15 0.05000001 -0.1 1 1 1
v -0.05 0 -0.2 1 1 1
v -0.05 0.05000001 -0.2 1 1 1
v -0.05 0 7.219114E-16 1 1 1
v -0.05 0 -0.1 1 1 1
v -0.15 0 1.082867E-15 1 1 1
v 0.05 0 -0.2 1 1 1
v 0.05 0 -0.1 1 1 1
v 0.05 0 3.609557E-16 1 1 1
v 0.1207107 0 -0.1707107 1 1 1
v 0.15 0 -0.1 1 1 1
v 0.15 0 0 1 1 1
v 0.1207107 0.05000001 -0.1707107 1 1 1
v 0.15 0.05000001 -0.1 1 1 1
v 0.05 0.05000001 -0.2 1 1 1
v 0.15 0.05000001 0 1 1 1
v -0.15 0.05000001 1.082867E-15 1 1 1
v 0.05 0.05000001 -0.1 1 1 1
v 0.05 0.05000001 3.609557E-16 1 1 1
v -0.05 0.05000001 -0.1 1 1 1
v -0.05 0.05000001 7.219114E-16 1 1 1
v 0.4 2 1.7 1 1 1
v 0.5 2 1.7 1 1 1
v 0.4 2 1.9 1 1 1
v 0.5 2 2 1 1 1
v -0.5 2 2 1 1 1
v -0.4 2 1.9 1 1 1
v -0.5 2 1.7 1 1 1
v -0.4 2 1.7 1 1 1
v 0.1207107 2.170711 2 1 1 1
v 0.1207107 2.170711 1.95 1 1 1
v 0.15 2.1 2 1 1 1
v 0.15 2.1 1.95 1 1 1
v 0.05 2.2 2 1 1 1
v 0.05 2.2 1.95 1 1 1
v 0.05 2 2 1 1 1
v 0.05 2.1 2 1 1 1
v 0.15 2 2 1 1 1
v -0.05 2.2 2 1 1 1
v -0.05 2.1 2 1 1 1
v -0.05 2 2 1 1 1
v -0.1207107 2.170711 2 1 1 1
v -0.15 2.1 2 1 1 1
v -0.15 2 2 1 1 1
v -0.1207107 2.170711 1.95 1 1 1
v -0.15 2.1 1.95 1 1 1
v -0.05 2.2 1.95 1 1 1
v -0.15 2 1.95 1 1 1
v 0.15 2 1.95 1 1 1
v -0.05 2.1 1.95 1 1 1
v -0.05 2 1.95 1 1 1
v 0.05 2.1 1.95 1 1 1
v 0.05 2 1.95 1 1 1

vn 8.800222E-05 -0.9032437 0.429128
vn 4.441022E-05 -0.9713874 0.2375005
vn -1 -4.313952E-05 1.054745E-05
vn -0.7071382 0.6868441 -0.1679308
vn -1 -7.948744E-05 3.776422E-05
vn -0.7071689 0.6386335 -0.3034126
vn 0.7070754 0.6869051 -0.1679457
vn 0.7070445 0.6387459 -0.3034661
vn 1 4.313952E-05 -1.054745E-05
vn 1 7.948744E-05 -3.776422E-05
vn -4.441022E-05 0.9713874 -0.2375005
vn -8.800222E-05 0.9032437 -0.429128
vn 3.571274E-10 -1 2.064519E-06
vn -1 -3.571274E-10 7.372964E-16
vn -0.7071068 0.7071068 -1.459836E-06
vn 0.7071068 0.7071068 -1.459836E-06
vn 1 3.571274E-10 -7.372964E-16
vn -3.571274E-10 1 -2.064519E-06
vn 0.0001728044 -0.7071067 0.7071068
vn 0.000130648 -0.8132962 0.5818499
vn -1 -0.0001062555 7.601754E-05
vn -0.7071992 0.5750121 -0.4113762
vn -1 -0.0001221911 0.0001221912
vn -0.707229 0.4999136 -0.4999135
vn 0.7070144 0.5751624 -0.4114838
vn 0.7069846 0.5000864 -0.5000864
vn 1 0.0001062555 -7.601754E-05
vn 1 0.0001221911 -0.0001221912
vn -0.000130648 0.8132962 -0.5818499
vn -0.0001728044 0.7071067 -0.7071068
vn 0.0002577169 -0.4291282 0.9032435
vn 0.0002149452 -0.5818498 0.8132963
vn -1 -0.0001250658 0.0001748141
vn -0.7072588 0.4113415 -0.5749637
vn -0.9999999 -0.0001105936 0.0002327812
vn -0.707289 0.3033612 -0.638525
vn 0.7069548 0.4115184 -0.5752109
vn 0.7069245 0.3035177 -0.6388542
vn 1 0.0001250658 -0.0001748141
vn 0.9999999 0.0001105936 -0.0002327812
vn -0.0002149452 0.5818498 -0.8132963
vn -0.0002577169 0.4291282 -0.9032435
vn 1.136924E-08 -2.384186E-06 0.9999999
vn 0.0003012509 -0.237501 0.9713871
vn -0.9999999 -7.154734E-05 0.0002926313
vn -0.7073197 0.167888 -0.6866675
vn -1 -2.575717E-14 1.136924E-08
vn -0.7071068 1.66893E-06 -0.7071067
vn 0.7068937 0.1679891 -0.6870814
vn 0.7071068 1.66893E-06 -0.7071067
vn 0.9999999 7.154734E-05 -0.0002926313
vn 1 2.575717E-14 -1.136924E-08
vn -0.0003012509 0.237501 -0.9713871
vn -1.136924E-08 2.384186E-06 -0.9999999
vn 0 0 -1
vn -0.7071068 0 -0.7071068
vn -0.9807853 0 -0.1950903
vn -0.1950903 0 -0.9807853
vn 0 -1 0
vn 0.7071068 0 -0.7071068
vn 0.9807853 0 -0.1950903
vn 0.1950903 0 -0.9807853
vn 1 0 0
vn -1 0 0
vn 0 0 1
vn 0 1 0
vn 1.110223E-16 0.9999999 3.576279E-07
vn 0.7071068 0.7071067 2.517829E-07
vn 0.9807853 0.1950903 6.824651E-08
vn 0.1950903 0.9807852 3.504531E-07
vn 1.553066E-09 -3.576279E-07 0.9999999
vn -0.7071068 0.7071067 2.539793E-07
vn -0.9807853 0.1950903 7.129297E-08
vn -0.1950903 0.9807852 3.510591E-07
vn -1 2.775557E-16 1.553066E-09
vn 1 -2.775557E-16 -1.553066E-09
vn -8.326673E-16 -0.9999999 -3.576279E-07
vn -1.553066E-09 3.576279E-07 -0.9999999

vt 0.59375 0.275
vt 0.59375 0.475
vt 0.59375 0.3416667
vt 0.59375 0.025
vt 0.59375 0.09166666
vt 0.59375 0.225
vt 0.34375 0.025
vt 0.34375 0.225

usemtl colormap

f 3/1/1 2/1/2 1/1/1
f 2/1/2 3/1/1 4/1/2
f 3/1/5 5/2/4 4/1/3
f 5/2/4 3/1/5 6/2/6
f 9/3/5 8/2/4 7/3/3
f 8/2/4 9/3/5 10/2/6
f 5/2/4 12/2/8 11/2/7
f 12/2/8 5/2/4 6/2/6
f 8/2/4 14/2/8 13/2/7
f 14/2/8 8/2/4 10/2/6
f 12/2/8 15/3/9 11/2/7
f 15/3/9 12/2/8 16/3/10
f 14/2/8 2/1/9 13/2/7
f 2/1/9 14/2/8 1/1/10
f 15/3/11 9/3/12 7/3/11
f 9/3/12 15/3/11 16/3/12
f 4/4/2 17/4/13 2/4/2
f 17/4/13 4/4/2 18/4/13
f 7/5/3 20/6/15 19/5/14
f 20/6/15 7/5/3 8/6/4
f 13/6/7 20/6/15 8/6/4
f 20/6/15 13/6/7 21/6/16
f 13/6/7 17/4/17 21/6/16
f 17/4/17 13/6/7 2/4/9
f 22/5/18 7/5/11 19/5/18
f 7/5/11 22/5/18 15/5/11
f 4/4/3 23/6/15 18/4/14
f 23/6/15 4/4/3 5/6/4
f 11/6/7 23/6/15 5/6/4
f 23/6/15 11/6/7 24/6/16
f 11/6/7 22/5/17 24/6/16
f 22/5/17 11/6/7 15/5/9
f 27/1/19 26/1/20 25/1/19
f 26/1/20 27/1/19 28/1/20
f 27/1/23 29/2/22 28/1/21
f 29/2/22 27/1/23 30/2/24
f 33/3/23 32/2/22 31/3/21
f 32/2/22 33/3/23 34/2/24
f 29/2/22 36/2/26 35/2/25
f 36/2/26 29/2/22 30/2/24
f 32/2/22 38/2/26 37/2/25
f 38/2/26 32/2/22 34/2/24
f 36/2/26 39/3/27 35/2/25
f 39/3/27 36/2/26 40/3/28
f 38/2/26 26/1/27 37/2/25
f 26/1/27 38/2/26 25/1/28
f 39/3/29 33/3/30 31/3/29
f 33/3/30 39/3/29 40/3/30
f 28/4/20 1/4/1 26/4/20
f 1/4/1 28/4/20 3/4/1
f 31/5/21 10/6/6 9/5/5
f 10/6/6 31/5/21 32/6/22
f 37/6/25 10/6/6 32/6/22
f 10/6/6 37/6/25 14/6/8
f 37/6/25 1/4/10 14/6/8
f 1/4/10 37/6/25 26/4/27
f 16/5/12 31/5/29 9/5/12
f 31/5/29 16/5/12 39/5/29
f 28/4/21 6/6/6 3/4/5
f 6/6/6 28/4/21 29/6/22
f 35/6/25 6/6/6 29/6/22
f 6/6/6 35/6/25 12/6/8
f 35/6/25 16/5/10 12/6/8
f 16/5/10 35/6/25 39/5/27
f 43/1/31 42/1/32 41/1/31
f 42/1/32 43/1/31 44/1/32
f 43/1/35 45/2/34 44/1/33
f 45/2/34 43/1/35 46/2/36
f 49/3/35 48/2/34 47/3/33
f 48/2/34 49/3/35 50/2/36
f 45/2/34 52/2/38 51/2/37
f 52/2/38 45/2/34 46/2/36
f 48/2/34 54/2/38 53/2/37
f 54/2/38 48/2/34 50/2/36
f 52/2/38 55/3/39 51/2/37
f 55/3/39 52/2/38 56/3/40
f 54/2/38 42/1/39 53/2/37
f 42/1/39 54/2/38 41/1/40
f 55/3/41 49/3/42 47/3/41
f 49/3/42 55/3/41 56/3/42
f 44/4/32 25/4/19 42/4/32
f 25/4/19 44/4/32 27/4/19
f 47/5/33 34/6/24 33/5/23
f 34/6/24 47/5/33 48/6/34
f 53/6/37 34/6/24 48/6/34
f 34/6/24 53/6/37 38/6/26
f 53/6/37 25/4/28 38/6/26
f 25/4/28 53/6/37 42/4/39
f 40/5/30 47/5/41 33/5/30
f 47/5/41 40/5/30 55/5/41
f 44/4/33 30/6/24 27/4/23
f 30/6/24 44/4/33 45/6/34
f 51/6/37 30/6/24 45/6/34
f 30/6/24 51/6/37 36/6/26
f 51/6/37 40/5/28 36/6/26
f 40/5/28 51/6/37 55/5/39
f 59/1/43 58/1/44 57/1/43
f 58/1/44 59/1/43 60/1/44
f 59/1/47 61/2/46 60/1/45
f 61/2/46 59/1/47 62/2/48
f 65/3/47 64/2/46 63/3/45
f 64/2/46 65/3/47 66/2/48
f 61/2/46 68/2/50 67/2/49
f 68/2/50 61/2/46 62/2/48
f 64/2/46 70/2/50 69/2/49
f 70/2/50 64/2/46 66/2/48
f 68/2/50 71/3/51 67/2/49
f 71/3/51 68/2/50 72/3/52
f 70/2/50 58/1/51 69/2/49
f 58/1/51 70/2/50 57/1/52
f 71/3/53 65/3/54 63/3/53
f 65/3/54 71/3/53 72/3/54
f 60/4/44 41/4/31 58/4/44
f 41/4/31 60/4/44 43/4/31
f 63/5/45 50/6/36 49/5/35
f 50/6/36 63/5/45 64/6/46
f 69/6/49 50/6/36 64/6/46
f 50/6/36 69/6/49 54/6/38
f 69/6/49 41/4/40 54/6/38
f 41/4/40 69/6/49 58/4/51
f 56/5/42 63/5/53 49/5/42
f 63/5/53 56/5/42 71/5/53
f 60/4/45 46/6/36 43/4/35
f 46/6/36 60/4/45 61/6/46
f 67/6/49 46/6/36 61/6/46
f 46/6/36 67/6/49 52/6/38
f 67/6/49 56/5/40 52/6/38
f 56/5/40 67/6/49 71/5/51
f 75/5/55 74/6/55 73/6/55
f 75/5/55 76/4/55 74/6/55
f 76/4/55 75/5/55 77/4/55
f 78/5/55 77/4/55 75/5/55
f 77/4/55 78/5/55 79/6/55
f 79/6/55 78/5/55 80/6/55
f 83/7/57 82/8/56 81/7/56
f 82/8/56 83/7/57 84/8/57
f 82/8/56 85/7/58 81/7/56
f 85/7/58 82/8/56 86/8/58
f 89/7/59 88/7/59 87/7/59
f 88/7/59 89/7/59 85/7/59
f 85/7/59 89/7/59 81/7/59
f 81/7/59 89/7/59 83/7/59
f 90/7/59 88/7/59 85/7/59
f 90/7/59 91/7/59 88/7/59
f 90/7/59 92/7/59 91/7/59
f 93/7/59 92/7/59 90/7/59
f 94/7/59 92/7/59 93/7/59
f 92/7/59 94/7/59 95/7/59
f 97/8/61 93/7/60 96/8/60
f 93/7/60 97/8/61 94/7/61
f 98/8/62 93/7/60 90/7/62
f 93/7/60 98/8/62 96/8/60
f 99/8/63 94/7/61 97/8/61
f 94/7/61 99/8/63 95/7/63
f 89/7/64 84/8/57 83/7/57
f 84/8/57 89/7/64 100/8/64
f 86/8/58 90/7/62 85/7/58
f 90/7/62 86/8/58 98/8/62
f 92/7/64 101/8/64 91/7/64
f 101/8/64 92/7/64 102/8/64
f 101/8/65 88/7/65 91/7/65
f 88/7/65 101/8/65 103/8/65
f 104/8/63 88/7/63 103/8/63
f 88/7/63 104/8/63 87/7/63
f 100/8/66 82/8/66 84/8/66
f 104/8/66 82/8/66 100/8/66
f 103/8/66 82/8/66 104/8/66
f 103/8/66 86/8/66 82/8/66
f 101/8/66 86/8/66 103/8/66
f 86/8/66 101/8/66 98/8/66
f 102/8/66 98/8/66 101/8/66
f 102/8/66 96/8/66 98/8/66
f 99/8/66 96/8/66 102/8/66
f 96/8/66 99/8/66 97/8/66
f 107/3/67 106/2/67 105/2/67
f 107/3/67 108/1/67 106/2/67
f 108/1/67 107/3/67 109/1/67
f 110/3/67 109/1/67 107/3/67
f 109/1/67 110/3/67 111/2/67
f 111/2/67 110/3/67 112/2/67
f 115/7/69 114/8/68 113/7/68
f 114/8/68 115/7/69 116/8/69
f 114/8/68 117/7/70 113/7/68
f 117/7/70 114/8/68 118/8/70
f 121/7/71 120/7/71 119/7/71
f 120/7/71 121/7/71 117/7/71
f 117/7/71 121/7/71 113/7/71
f 113/7/71 121/7/71 115/7/71
f 122/7/71 120/7/71 117/7/71
f 122/7/71 123/7/71 120/7/71
f 122/7/71 124/7/71 123/7/71
f 125/7/71 124/7/71 122/7/71
f 126/7/71 124/7/71 125/7/71
f 124/7/71 126/7/71 127/7/71
f 129/8/73 125/7/72 128/8/72
f 125/7/72 129/8/73 126/7/73
f 130/8/74 125/7/72 122/7/74
f 125/7/72 130/8/74 128/8/72
f 131/8/75 126/7/73 129/8/73
f 126/7/73 131/8/75 127/7/75
f 121/7/76 116/8/69 115/7/69
f 116/8/69 121/7/76 132/8/76
f 118/8/70 122/7/74 117/7/70
f 122/7/74 118/8/70 130/8/74
f 124/7/76 133/8/76 123/7/76
f 133/8/76 124/7/76 134/8/76
f 133/8/77 120/7/77 123/7/77
f 120/7/77 133/8/77 135/8/77
f 136/8/75 120/7/75 135/8/75
f 120/7/75 136/8/75 119/7/75
f 132/8/78 114/8/78 116/8/78
f 136/8/78 114/8/78 132/8/78
f 135/8/78 114/8/78 136/8/78
f 135/8/78 118/8/78 114/8/78
f 133/8/78 118/8/78 135/8/78
f 118/8/78 133/8/78 130/8/78
f 134/8/78 130/8/78 133/8/78
f 134/8/78 128/8/78 130/8/78
f 131/8/78 128/8/78 134/8/78
f 128/8/78 131/8/78 129/8/78

g track-striped-narrow-straight-bend




usemtl colormap

f 3/1/1 2/1/2 1/1/1
f 2/1/2 3/1/1 4/1/2
f 3/1/5 5/2/4 4/1/3
f 5/2/4 3/1/5 6/2/6
f 9/3/5 8/2/4 7/3/3
f 8/2/4 9/3/5 10/2/6
f 5/2/4 12/2/8 11/2/7
f 12/2/8 5/2/4 6/2/6
f 8/2/4 14/2/8 13/2/7
f 14/2/8 8/2/4 10/2/6
f 12/2/8 15/3/9 11/2/7
f 15/3/9 12/2/8 16/3/10
f 14/2/8 2/1/9 13/2/7
f 2/1/9 14/2/8 1/1/10
f 15/3/11 9/3/12 7/3/11
f 9/3/12 15/3/11 16/3/12
f 4/4/2 17/4/13 2/4/2
f 17/4/13 4/4/2 18/4/13
f 7/5/3 20/6/15 19/5/14
f 20/6/15 7/5/3 8/6/4
f 13/6/7 20/6/15 8/6/4
f 20/6/15 13/6/7 21/6/16
f 13/6/7 17/4/17 21/6/16
f 17/4/17 13/6/7 2/4/9
f 22/5/18 7/5/11 19/5/18
f 7/5/11 22/5/18 15/5/11
f 4/4/3 23/6/15 18/4/14
f 23/6/15 4/4/3 5/6/4
f 11/6/7 23/6/15 5/6/4
f 23/6/15 11/6/7 24/6/16
f 11/6/7 22/5/17 24/6/16
f 22/5/17 11/6/7 15/5/9
f 27/1/19 26/1/20 25/1/19
f 26/1/20 27/1/19 28/1/20
f 27/1/23 29/2/22 28/1/21
f 29/2/22 27/1/23 30/2/24
f 33/3/23 32/2/22 31/3/21
f 32/2/22 33/3/23 34/2/24
f 29/2/22 36/2/26 35/2/25
f 36/2/26 29/2/22 30/2/24
f 32/2/22 38/2/26 37/2/25
f 38/2/26 32/2/22 34/2/24
f 36/2/26 39/3/27 35/2/25
f 39/3/27 36/2/26 40/3/28
f 38/2/26 26/1/27 37/2/25
f 26/1/27 38/2/26 25/1/28
f 39/3/29 33/3/30 31/3/29
f 33/3/30 39/3/29 40/3/30
f 28/4/20 1/4/1 26/4/20
f 1/4/1 28/4/20 3/4/1
f 31/5/21 10/6/6 9/5/5
f 10/6/6 31/5/21 32/6/22
f 37/6/25 10/6/6 32/6/22
f 10/6/6 37/6/25 14/6/8
f 37/6/25 1/4/10 14/6/8
f 1/4/10 37/6/25 26/4/27
f 16/5/12 31/5/29 9/5/12
f 31/5/29 16/5/12 39/5/29
f 28/4/21 6/6/6 3/4/5
f 6/6/6 28/4/21 29/6/22
f 35/6/25 6/6/6 29/6/22
f 6/6/6 35/6/25 12/6/8
f 35/6/25 16/5/10 12/6/8
f 16/5/10 35/6/25 39/5/27
f 43/1/31 42/1/32 41/1/31
f 42/1/32 43/1/31 44/1/32
f 43/1/35 45/2/34 44/1/33
f 45/2/34 43/1/35 46/2/36
f 49/3/35 48/2/34 47/3/33
f 48/2/34 49/3/35 50/2/36
f 45/2/34 52/2/38 51/2/37
f 52/2/38 45/2/34 46/2/36
f 48/2/34 54/2/38 53/2/37
f 54/2/38 48/2/34 50/2/36
f 52/2/38 55/3/39 51/2/37
f 55/3/39 52/2/38 56/3/40
f 54/2/38 42/1/39 53/2/37
f 42/1/39 54/2/38 41/1/40
f 55/3/41 49/3/42 47/3/41
f 49/3/42 55/3/41 56/3/42
f 44/4/32 25/4/19 42/4/32
f 25/4/19 44/4/32 27/4/19
f 47/5/33 34/6/24 33/5/23
f 34/6/24 47/5/33 48/6/34
f 53/6/37 34/6/24 48/6/34
f 34/6/24 53/6/37 38/6/26
f 53/6/37 25/4/28 38/6/26
f 25/4/28 53/6/37 42/4/39
f 40/5/30 47/5/41 33/5/30
f 47/5/41 40/5/30 55/5/41
f 44/4/33 30/6/24 27/4/23
f 30/6/24 44/4/33 45/6/34
f 51/6/37 30/6/24 45/6/34
f 30/6/24 51/6/37 36/6/26
f 51/6/37 40/5/28 36/6/26
f 40/5/28 51/6/37 55/5/39
f 59/1/43 58/1/44 57/1/43
f 58/1/44 59/1/43 60/1/44
f 59/1/47 61/2/46 60/1/45
f 61/2/46 59/1/47 62/2/48
f 65/3/47 64/2/46 63/3/45
f 64/2/46 65/3/47 66/2/48
f 61/2/46 68/2/50 67/2/49
f 68/2/50 61/2/46 62/2/48
f 64/2/46 70/2/50 69/2/49
f 70/2/50 64/2/46 66/2/48
f 68/2/50 71/3/51 67/2/49
f 71/3/51 68/2/50 72/3/52
f 70/2/50 58/1/51 69/2/49
f 58/1/51 70/2/50 57/1/52
f 71/3/53 65/3/54 63/3/53
f 65/3/54 71/3/53 72/3/54
f 60/4/44 41/4/31 58/4/44
f 41/4/31 60/4/44 43/4/31
f 63/5/45 50/6/36 49/5/35
f 50/6/36 63/5/45 64/6/46
f 69/6/49 50/6/36 64/6/46
f 50/6/36 69/6/49 54/6/38
f 69/6/49 41/4/40 54/6/38
f 41/4/40 69/6/49 58/4/51
f 56/5/42 63/5/53 49/5/42
f 63/5/53 56/5/42 71/5/53
f 60/4/45 46/6/36 43/4/35
f 46/6/36 60/4/45 61/6/46
f 67/6/49 46/6/36 61/6/46
f 46/6/36 67/6/49 52/6/38
f 67/6/49 56/5/40 52/6/38
f 56/5/40 67/6/49 71/5/51
f 75/5/55 74/6/55 73/6/55
f 75/5/55 76/4/55 74/6/55
f 76/4/55 75/5/55 77/4/55
f 78/5/55 77/4/55 75/5/55
f 77/4/55 78/5/55 79/6/55
f 79/6/55 78/5/55 80/6/55
f 83/7/57 82/8/56 81/7/56
f 82/8/56 83/7/57 84/8/57
f 82/8/56 85/7/58 81/7/56
f 85/7/58 82/8/56 86/8/58
f 89/7/59 88/7/59 87/7/59
f 88/7/59 89/7/59 85/7/59
f 85/7/59 89/7/59 81/7/59
f 81/7/59 89/7/59 83/7/59
f 90/7/59 88/7/59 85/7/59
f 90/7/59 91/7/59 88/7/59
f 90/7/59 92/7/59 91/7/59
f 93/7/59 92/7/59 90/7/59
f 94/7/59 92/7/59 93/7/59
f 92/7/59 94/7/59 95/7/59
f 97/8/61 93/7/60 96/8/60
f 93/7/60 97/8/61 94/7/61
f 98/8/62 93/7/60 90/7/62
f 93/7/60 98/8/62 96/8/60
f 99/8/63 94/7/61 97/8/61
f 94/7/61 99/8/63 95/7/63
f 89/7/64 84/8/57 83/7/57
f 84/8/57 89/7/64 100/8/64
f 86/8/58 90/7/62 85/7/58
f 90/7/62 86/8/58 98/8/62
f 92/7/64 101/8/64 91/7/64
f 101/8/64 92/7/64 102/8/64
f 101/8/65 88/7/65 91/7/65
f 88/7/65 101/8/65 103/8/65
f 104/8/63 88/7/63 103/8/63
f 88/7/63 104/8/63 87/7/63
f 100/8/66 82/8/66 84/8/66
f 104/8/66 82/8/66 100/8/66
f 103/8/66 82/8/66 104/8/66
f 103/8/66 86/8/66 82/8/66
f 101/8/66 86/8/66 103/8/66
f 86/8/66 101/8/66 98/8/66
f 102/8/66 98/8/66 101/8/66
f 102/8/66 96/8/66 98/8/66
f 99/8/66 96/8/66 102/8/66
f 96/8/66 99/8/66 97/8/66
f 107/3/67 106/2/67 105/2/67
f 107/3/67 108/1/67 106/2/67
f 108/1/67 107/3/67 109/1/67
f 110/3/67 109/1/67 107/3/67
f 109/1/67 110/3/67 111/2/67
f 111/2/67 110/3/67 112/2/67
f 115/7/69 114/8/68 113/7/68
f 114/8/68 115/7/69 116/8/69
f 114/8/68 117/7/70 113/7/68
f 117/7/70 114/8/68 118/8/70
f 121/7/71 120/7/71 119/7/71
f 120/7/71 121/7/71 117/7/71
f 117/7/71 121/7/71 113/7/71
f 113/7/71 121/7/71 115/7/71
f 122/7/71 120/7/71 117/7/71
f 122/7/71 123/7/71 120/7/71
f 122/7/71 124/7/71 123/7/71
f 125/7/71 124/7/71 122/7/71
f 126/7/71 124/7/71 125/7/71
f 124/7/71 126/7/71 127/7/71
f 129/8/73 125/7/72 128/8/72
f 125/7/72 129/8/73 126/7/73
f 130/8/74 125/7/72 122/7/74
f 125/7/72 130/8/74 128/8/72
f 131/8/75 126/7/73 129/8/73
f 126/7/73 131/8/75 127/7/75
f 121/7/76 116/8/69 115/7/69
f 116/8/69 121/7/76 132/8/76
f 118/8/70 122/7/74 117/7/70
f 122/7/74 118/8/70 130/8/74
f 124/7/76 133/8/76 123/7/76
f 133/8/76 124/7/76 134/8/76
f 133/8/77 120/7/77 123/7/77
f 120/7/77 133/8/77 135/8/77
f 136/8/75 120/7/75 135/8/75
f 120/7/75 136/8/75 119/7/75
f 132/8/78 114/8/78 116/8/78
f 136/8/78 114/8/78 132/8/78
f 135/8/78 114/8/78 136/8/78
f 135/8/78 118/8/78 114/8/78
f 133/8/78 118/8/78 135/8/78
f 118/8/78 133/8/78 130/8/78
f 134/8/78 130/8/78 133/8/78
f 134/8/78 128/8/78 130/8/78
f 131/8/78 128/8/78 134/8/78
f 128/8/78 131/8/78 129/8/78

