# Created by Kenney (www.kenney.nl)

mtllib track-striped-narrow-corner-small-ramp.mtl

g track-striped-narrow-corner-small-ramp

v 0.2587478 0.1571499 0.992291 1 1 1
v 0.4312544 0.0345875 0.529143 1 1 1
v -0.6349609 0.1830459 0.5443913 1 1 1
v -0.5353291 0.06459212 0.2745531 1 1 1
v -0.5097044 0.3568138 0.2117047 1 1 1
v -0.58145 0.4640108 0.4538636 1 1 1
v 0.3431377 0.1349952 0.4827346 1 1 1
v 0.3602209 0.3298095 0.4408357 1 1 1
v 0.1872139 0.2533945 0.917325 1 1 1
v 0.2228878 0.4407045 0.8569732 1 1 1
v -0.4130459 0.3538133 0.2371637 1 1 1
v -0.4920791 0.4614213 0.4986535 1 1 1
v 0.4568791 0.3268092 0.4662946 1 1 1
v 0.3122587 0.4381149 0.9017632 1 1 1
v -0.4301292 0.158999 0.2790625 1 1 1
v -0.5277531 0.2741113 0.5590053 1 1 1
v 0.5 -2.384186E-07 4.410744E-06 1 1 1
v -0.5 3.576279E-07 2.145767E-06 1 1 1
v 0.4000001 0.09999979 3.933907E-06 1 1 1
v 0.4000001 0.2999997 3.457069E-06 1 1 1
v 0.5000002 0.2999997 3.695488E-06 1 1 1
v -0.4 0.1000003 2.145767E-06 1 1 1
v -0.4999998 0.3000003 1.549721E-06 1 1 1
v -0.3999999 0.3000002 1.788139E-06 1 1 1
v -0.2714465 0.5000006 1.728553 1 1 1
v 0.01936603 0.32074 1.388352 1 1 1
v -0.9785535 0.4999994 1.021447 1 1 1
v -0.7864718 0.3341594 0.7963681 1 1 1
v -0.7108645 0.6078923 0.6996528 1 1 1
v -0.8881004 0.7713597 0.9309931 1 1 1
v -0.03601527 0.4133263 1.296916 1 1 1
v 0.01438951 0.5958148 1.232439 1 1 1
v -0.3120061 0.5904539 1.627691 1 1 1
v -0.251704 0.7713606 1.567389 1 1 1
v -0.6302807 0.6065503 0.7588511 1 1 1
v -0.8173897 0.7713597 1.001704 1 1 1
v 0.09497333 0.5944729 1.291637 1 1 1
v -0.1809933 0.7713609 1.638099 1 1 1
v -0.6806856 0.4240618 0.823328 1 1 1
v -0.8776917 0.5904529 1.062006 1 1 1
v -1.007709 0.8428509 2.258747 1 1 1
v -0.6116471 0.679261 2.019366 1 1 1
v -1.455609 0.8169532 1.365039 1 1 1
v -1.203632 0.6658396 1.213528 1 1 1
v -1.106917 0.9395723 1.13792 1 1 1
v -1.365081 1.097918 1.311528 1 1 1
v -0.6386074 0.7691631 1.913579 1 1 1
v -0.5741308 0.9516517 1.863174 1 1 1
v -1.022323 0.9339161 2.151539 1 1 1
v -0.961971 1.121226 2.115865 1 1 1
v -1.047719 0.9409145 1.218504 1 1 1
v -1.320291 1.100508 1.400898 1 1 1
v -0.5149323 0.9529939 1.943758 1 1 1
v -0.917181 1.123816 2.205236 1 1 1
v -1.112195 0.758426 1.268909 1 1 1
v -1.380643 0.913198 1.436573 1 1 1
v -1.999995 1 2.5 1 1 1
v -1.470857 0.9654132 2.431254 1 1 1
v -1.999998 0.9999996 1.5 1 1 1
v -1.725447 0.935407 1.464671 1 1 1
v -1.662599 1.227629 1.439045 1 1 1
v -1.999997 1.3 1.5 1 1 1
v -1.475366 1.05982 2.326054 1 1 1
v -1.433468 1.254634 2.308971 1 1 1
v -1.999995 1.1 2.4 1 1 1
v -1.999995 1.3 2.4 1 1 1
v -1.63714 1.230629 1.535704 1 1 1
v -1.999997 1.3 1.6 1 1 1
v -1.408009 1.257635 2.405629 1 1 1
v -1.999995 1.3 2.5 1 1 1
v -1.679039 1.035815 1.552787 1 1 1
v -1.999997 1.1 1.6 1 1 1
v -0.4 0.3 0 1 1 1
v -0.5 0.3 0 1 1 1
v -0.4 0.1 0 1 1 1
v -0.5 0 0 1 1 1
v 0.5 0 0 1 1 1
v 0.4 0.1 0 1 1 1
v 0.5 0.3 0 1 1 1
v 0.4 0.3 0 1 1 1
v -0.1207107 0 -0.1707107 1 1 1
v -0.1207107 0.05000001 -0.1707107 1 1 1
v -0.15 0 -0.1 1 1 1
v -0.15 0.05000001 -0.1 1 1 1
v -0.05 0 -0.2 1 1 1
v -0.05 0.05000001 -0.2 1 1 1
v -0.05 0 7.219114E-16 1 1 1
v -0.05 0 -0.1 1 1 1
v -0.15 0 1.082867E-15 1 1 1
v 0.05 0 -0.2 1 1 1
v 0.05 0 -0.1 1 1 1
v 0.05 0 3.609557E-16 1 1 1
v 0.1207107 0 -0.1707107 1 1 1
v 0.15 0 -0.1 1 1 1
v 0.15 0 0 1 1 1
v 0.1207107 0.05000001 -0.1707107 1 1 1
v 0.15 0.05000001 -0.1 1 1 1
v 0.05 0.05000001 -0.2 1 1 1
v 0.15 0.05000001 0 1 1 1
v -0.15 0.05000001 1.082867E-15 1 1 1
v 0.05 0.05000001 -0.1 1 1 1
v 0.05 0.05000001 3.609557E-16 1 1 1
v -0.05 0.05000001 -0.1 1 1 1
v -0.05 0.05000001 7.219114E-16 1 1 1
v -2 1.3 2.4 1 1 1
v -2 1.3 2.5 1 1 1
v -2 1.1 2.4 1 1 1
v -2 1 2.5 1 1 1
v -2 0.9999999 1.5 1 1 1
v -2 1.1 1.6 1 1 1
v -2 1.3 1.5 1 1 1
v -2 1.3 1.6 1 1 1
v -2.170711 1 2.120711 1 1 1
v -2.170711 1.05 2.120711 1 1 1
v -2.1 1 2.15 1 1 1
v -2.1 1.05 2.15 1 1 1
v -2.2 1 2.05 1 1 1
v -2.2 1.05 2.05 1 1 1
v -2 1 2.05 1 1 1
v -2.1 1 2.05 1 1 1
v -2 1 2.15 1 1 1
v -2.2 1 1.95 1 1 1
v -2.1 1 1.95 1 1 1
v -2 1 1.95 1 1 1
v -2.170711 1 1.879289 1 1 1
v -2.1 1 1.85 1 1 1
v -2 1 1.85 1 1 1
v -2.170711 1.05 1.879289 1 1 1
v -2.1 1.05 1.85 1 1 1
v -2.2 1.05 1.95 1 1 1
v -2 1.05 1.85 1 1 1
v -2 1.05 2.15 1 1 1
v -2.1 1.05 1.95 1 1 1
v -2 1.05 1.95 1 1 1
v -2.1 1.05 2.05 1 1 1
v -2 1.05 2.05 1 1 1

vn -0.1783697 -0.9365499 0.301759
vn -0.08541615 -0.974072 0.2094943
vn -0.9665835 0.03000467 -0.2545899
vn -0.6230794 0.7099894 -0.3281571
vn -0.8937087 0.02589595 -0.4478996
vn -0.505821 0.680552 -0.5300887
vn 0.7438761 0.6675564 0.03188743
vn 0.7580739 0.6439296 0.103337
vn 0.9665835 -0.03000467 0.2545899
vn 0.8937087 -0.02589595 0.4478996
vn 0.08541615 0.974072 -0.2094943
vn 0.1783697 0.9365499 -0.301759
vn -6.090656E-07 -1 2.185581E-06
vn -1 6.090609E-07 -2.185584E-06
vn -0.7071064 0.7071072 -3.09088E-06
vn 0.7071072 0.7071064 2.646573E-12
vn 1 -6.090609E-07 2.185584E-06
vn 6.090656E-07 1 -2.185581E-06
vn -0.3015105 -0.904534 0.3015123
vn -0.2520245 -0.9124429 0.3223843
vn -0.8058379 0.01341945 -0.5919842
vn -0.3916052 0.6546835 -0.6465561
vn -0.7071071 -1.177192E-06 -0.7071065
vn -0.2868001 0.6396013 -0.7132012
vn 0.7480216 0.6357056 0.1906359
vn 0.7132003 0.639603 0.2867984
vn 0.8058379 -0.01341945 0.5919842
vn 0.7071071 1.177192E-06 0.7071065
vn 0.2520245 0.9124429 -0.3223843
vn 0.3015105 0.904534 -0.3015123
vn -0.3017582 -0.9365498 0.1783715
vn -0.322383 -0.9124429 0.2520263
vn -0.5919849 -0.01342146 -0.8058373
vn -0.1906373 0.6357041 -0.7480226
vn -0.4479004 -0.02589774 -0.8937083
vn -0.1033382 0.6439283 -0.7580749
vn 0.6465557 0.654685 0.3916035
vn 0.5300887 0.6805532 0.5058194
vn 0.5919849 0.01342146 0.8058373
vn 0.4479004 0.02589774 0.8937083
vn 0.322383 0.9124429 -0.2520263
vn 0.3017582 0.9365498 -0.1783715
vn -2.304711E-06 -1 7.20561E-07
vn -0.2094939 -0.9740719 0.0854177
vn -0.2545903 -0.03000618 -0.9665835
vn -0.03188795 0.6675553 -0.7438771
vn -2.741814E-06 -7.205546E-07 -1
vn -3.576279E-07 0.7071062 -0.7071073
vn 0.3281571 0.7099904 0.6230783
vn 3.516674E-06 0.7071073 0.7071063
vn 0.2545903 0.03000618 0.9665835
vn 2.741814E-06 7.205546E-07 1
vn 0.2094939 0.9740719 -0.0854177
vn 2.304711E-06 1 -7.20561E-07
vn 0 0 -1
vn -0.7071068 0 -0.7071068
vn -0.9807853 0 -0.1950903
vn -0.1950903 0 -0.9807853
vn 0 -1 0
vn 0.7071068 0 -0.7071068
vn 0.9807853 0 -0.1950903
vn 0.1950903 0 -0.9807853
vn 1 0 0
vn -1 0 0
vn 0 0 1
vn 0 1 0
vn -0.9999999 0 3.576279E-07
vn -0.7071065 6.318283E-08 0.7071069
vn -0.19509 8.76371E-08 0.9807853
vn -0.9807851 1.74321E-08 0.1950907
vn 3.197442E-14 -1 8.935402E-08
vn -0.7071069 -6.318283E-08 -0.7071065
vn -0.1950907 -8.76371E-08 -0.9807851
vn -0.9807853 -1.74321E-08 -0.19509
vn -3.576279E-07 -8.935402E-08 -0.9999999
vn 3.576279E-07 8.935402E-08 0.9999999
vn 0.9999999 -6.448188E-23 -3.576279E-07
vn -3.197442E-14 1 -8.935402E-08

vt 0.59375 0.275
vt 0.59375 0.475
vt 0.59375 0.3416667
vt 0.59375 0.025
vt 0.59375 0.09166666
vt 0.59375 0.225
vt 0.34375 0.025
vt 0.34375 0.225

usemtl colormap

f 3/1/1 2/1/2 1/1/1
f 2/1/2 3/1/1 4/1/2
f 3/1/5 5/2/4 4/1/3
f 5/2/4 3/1/5 6/2/6
f 9/3/5 8/2/4 7/3/3
f 8/2/4 9/3/5 10/2/6
f 5/2/4 12/2/8 11/2/7
f 12/2/8 5/2/4 6/2/6
f 8/2/4 14/2/8 13/2/7
f 14/2/8 8/2/4 10/2/6
f 12/2/8 15/3/9 11/2/7
f 15/3/9 12/2/8 16/3/10
f 14/2/8 2/1/9 13/2/7
f 2/1/9 14/2/8 1/1/10
f 15/3/11 9/3/12 7/3/11
f 9/3/12 15/3/11 16/3/12
f 4/4/2 17/4/13 2/4/2
f 17/4/13 4/4/2 18/4/13
f 7/5/3 20/6/15 19/5/14
f 20/6/15 7/5/3 8/6/4
f 13/6/7 20/6/15 8/6/4
f 20/6/15 13/6/7 21/6/16
f 13/6/7 17/4/17 21/6/16
f 17/4/17 13/6/7 2/4/9
f 22/5/18 7/5/11 19/5/18
f 7/5/11 22/5/18 15/5/11
f 4/4/3 23/6/15 18/4/14
f 23/6/15 4/4/3 5/6/4
f 11/6/7 23/6/15 5/6/4
f 23/6/15 11/6/7 24/6/16
f 11/6/7 22/5/17 24/6/16
f 22/5/17 11/6/7 15/5/9
f 27/1/19 26/1/20 25/1/19
f 26/1/20 27/1/19 28/1/20
f 27/1/23 29/2/22 28/1/21
f 29/2/22 27/1/23 30/2/24
f 33/3/23 32/2/22 31/3/21
f 32/2/22 33/3/23 34/2/24
f 29/2/22 36/2/26 35/2/25
f 36/2/26 29/2/22 30/2/24
f 32/2/22 38/2/26 37/2/25
f 38/2/26 32/2/22 34/2/24
f 36/2/26 39/3/27 35/2/25
f 39/3/27 36/2/26 40/3/28
f 38/2/26 26/1/27 37/2/25
f 26/1/27 38/2/26 25/1/28
f 39/3/29 33/3/30 31/3/29
f 33/3/30 39/3/29 40/3/30
f 28/4/20 1/4/1 26/4/20
f 1/4/1 28/4/20 3/4/1
f 31/5/21 10/6/6 9/5/5
f 10/6/6 31/5/21 32/6/22
f 37/6/25 10/6/6 32/6/22
f 10/6/6 37/6/25 14/6/8
f 37/6/25 1/4/10 14/6/8
f 1/4/10 37/6/25 26/4/27
f 16/5/12 31/5/29 9/5/12
f 31/5/29 16/5/12 39/5/29
f 28/4/21 6/6/6 3/4/5
f 6/6/6 28/4/21 29/6/22
f 35/6/25 6/6/6 29/6/22
f 6/6/6 35/6/25 12/6/8
f 35/6/25 16/5/10 12/6/8
f 16/5/10 35/6/25 39/5/27
f 43/1/31 42/1/32 41/1/31
f 42/1/32 43/1/31 44/1/32
f 43/1/35 45/2/34 44/1/33
f 45/2/34 43/1/35 46/2/36
f 49/3/35 48/2/34 47/3/33
f 48/2/34 49/3/35 50/2/36
f 45/2/34 52/2/38 51/2/37
f 52/2/38 45/2/34 46/2/36
f 48/2/34 54/2/38 53/2/37
f 54/2/38 48/2/34 50/2/36
f 52/2/38 55/3/39 51/2/37
f 55/3/39 52/2/38 56/3/40
f 54/2/38 42/1/39 53/2/37
f 42/1/39 54/2/38 41/1/40
f 55/3/41 49/3/42 47/3/41
f 49/3/42 55/3/41 56/3/42
f 44/4/32 25/4/19 42/4/32
f 25/4/19 44/4/32 27/4/19
f 47/5/33 34/6/24 33/5/23
f 34/6/24 47/5/33 48/6/34
f 53/6/37 34/6/24 48/6/34
f 34/6/24 53/6/37 38/6/26
f 53/6/37 25/4/28 38/6/26
f 25/4/28 53/6/37 42/4/39
f 40/5/30 47/5/41 33/5/30
f 47/5/41 40/5/30 55/5/41
f 44/4/33 30/6/24 27/4/23
f 30/6/24 44/4/33 45/6/34
f 51/6/37 30/6/24 45/6/34
f 30/6/24 51/6/37 36/6/26
f 51/6/37 40/5/28 36/6/26
f 40/5/28 51/6/37 55/5/39
f 59/1/43 58/1/44 57/1/43
f 58/1/44 59/1/43 60/1/44
f 59/1/47 61/2/46 60/1/45
f 61/2/46 59/1/47 62/2/48
f 65/3/47 64/2/46 63/3/45
f 64/2/46 65/3/47 66/2/48
f 61/2/46 68/2/50 67/2/49
f 68/2/50 61/2/46 62/2/48
f 64/2/46 70/2/50 69/2/49
f 70/2/50 64/2/46 66/2/48
f 68/2/50 71/3/51 67/2/49
f 71/3/51 68/2/50 72/3/52
f 70/2/50 58/1/51 69/2/49
f 58/1/51 70/2/50 57/1/52
f 71/3/53 65/3/54 63/3/53
f 65/3/54 71/3/53 72/3/54
f 60/4/44 41/4/31 58/4/44
f 41/4/31 60/4/44 43/4/31
f 63/5/45 50/6/36 49/5/35
f 50/6/36 63/5/45 64/6/46
f 69/6/49 50/6/36 64/6/46
f 50/6/36 69/6/49 54/6/38
f 69/6/49 41/4/40 54/6/38
f 41/4/40 69/6/49 58/4/51
f 56/5/42 63/5/53 49/5/42
f 63/5/53 56/5/42 71/5/53
f 60/4/45 46/6/36 43/4/35
f 46/6/36 60/4/45 61/6/46
f 67/6/49 46/6/36 61/6/46
f 46/6/36 67/6/49 52/6/38
f 67/6/49 56/5/40 52/6/38
f 56/5/40 67/6/49 71/5/51
f 75/5/55 74/6/55 73/6/55
f 75/5/55 76/4/55 74/6/55
f 76/4/55 75/5/55 77/4/55
f 78/5/55 77/4/55 75/5/55
f 77/4/55 78/5/55 79/6/55
f 79/6/55 78/5/55 80/6/55
f 83/7/57 82/8/56 81/7/56
f 82/8/56 83/7/57 84/8/57
f 82/8/56 85/7/58 81/7/56
f 85/7/58 82/8/56 86/8/58
f 89/7/59 88/7/59 87/7/59
f 88/7/59 89/7/59 85/7/59
f 85/7/59 89/7/59 81/7/59
f 81/7/59 89/7/59 83/7/59
f 90/7/59 88/7/59 85/7/59
f 90/7/59 91/7/59 88/7/59
f 90/7/59 92/7/59 91/7/59
f 93/7/59 92/7/59 90/7/59
f 94/7/59 92/7/59 93/7/59
f 92/7/59 94/7/59 95/7/59
f 97/8/61 93/7/60 96/8/60
f 93/7/60 97/8/61 94/7/61
f 98/8/62 93/7/60 90/7/62
f 93/7/60 98/8/62 96/8/60
f 99/8/63 94/7/61 97/8/61
f 94/7/61 99/8/63 95/7/63
f 89/7/64 84/8/57 83/7/57
f 84/8/57 89/7/64 100/8/64
f 86/8/58 90/7/62 85/7/58
f 90/7/62 86/8/58 98/8/62
f 92/7/64 101/8/64 91/7/64
f 101/8/64 92/7/64 102/8/64
f 101/8/65 88/7/65 91/7/65
f 88/7/65 101/8/65 103/8/65
f 104/8/63 88/7/63 103/8/63
f 88/7/63 104/8/63 87/7/63
f 100/8/66 82/8/66 84/8/66
f 104/8/66 82/8/66 100/8/66
f 103/8/66 82/8/66 104/8/66
f 103/8/66 86/8/66 82/8/66
f 101/8/66 86/8/66 103/8/66
f 86/8/66 101/8/66 98/8/66
f 102/8/66 98/8/66 101/8/66
f 102/8/66 96/8/66 98/8/66
f 99/8/66 96/8/66 102/8/66
f 96/8/66 99/8/66 97/8/66
f 107/3/67 106/2/67 105/2/67
f 107/3/67 108/1/67 106/2/67
f 108/1/67 107/3/67 109/1/67
f 110/3/67 109/1/67 107/3/67
f 109/1/67 110/3/67 111/2/67
f 111/2/67 110/3/67 112/2/67
f 115/7/69 114/8/68 113/7/68
f 114/8/68 115/7/69 116/8/69
f 114/8/68 117/7/70 113/7/68
f 117/7/70 114/8/68 118/8/70
f 121/7/71 120/7/71 119/7/71
f 120/7/71 121/7/71 117/7/71
f 117/7/71 121/7/71 113/7/71
f 113/7/71 121/7/71 115/7/71
f 122/7/71 120/7/71 117/7/71
f 122/7/71 123/7/71 120/7/71
f 122/7/71 124/7/71 123/7/71
f 125/7/71 124/7/71 122/7/71
f 126/7/71 124/7/71 125/7/71
f 124/7/71 126/7/71 127/7/71
f 129/8/73 125/7/72 128/8/72
f 125/7/72 129/8/73 126/7/73
f 130/8/74 125/7/72 122/7/74
f 125/7/72 130/8/74 128/8/72
f 131/8/75 126/7/73 129/8/73
f 126/7/73 131/8/75 127/7/75
f 121/7/76 116/8/69 115/7/69
f 116/8/69 121/7/76 132/8/76
f 118/8/70 122/7/74 117/7/70
f 122/7/74 118/8/70 130/8/74
f 124/7/76 133/8/76 123/7/76
f 133/8/76 124/7/76 134/8/76
f 133/8/77 120/7/77 123/7/77
f 120/7/77 133/8/77 135/8/77
f 136/8/75 120/7/75 135/8/75
f 120/7/75 136/8/75 119/7/75
f 132/8/78 114/8/78 116/8/78
f 136/8/78 114/8/78 132/8/78
f 135/8/78 114/8/78 136/8/78
f 135/8/78 118/8/78 114/8/78
f 133/8/78 118/8/78 135/8/78
f 118/8/78 133/8/78 130/8/78
f 134/8/78 130/8/78 133/8/78
f 134/8/78 128/8/78 130/8/78
f 131/8/78 128/8/78 134/8/78
f 128/8/78 131/8/78 129/8/78

g track-striped-narrow-corner-small-ramp




usemtl colormap

f 3/1/1 2/1/2 1/1/1
f 2/1/2 3/1/1 4/1/2
f 3/1/5 5/2/4 4/1/3
f 5/2/4 3/1/5 6/2/6
f 9/3/5 8/2/4 7/3/3
f 8/2/4 9/3/5 10/2/6
f 5/2/4 12/2/8 11/2/7
f 12/2/8 5/2/4 6/2/6
f 8/2/4 14/2/8 13/2/7
f 14/2/8 8/2/4 10/2/6
f 12/2/8 15/3/9 11/2/7
f 15/3/9 12/2/8 16/3/10
f 14/2/8 2/1/9 13/2/7
f 2/1/9 14/2/8 1/1/10
f 15/3/11 9/3/12 7/3/11
f 9/3/12 15/3/11 16/3/12
f 4/4/2 17/4/13 2/4/2
f 17/4/13 4/4/2 18/4/13
f 7/5/3 20/6/15 19/5/14
f 20/6/15 7/5/3 8/6/4
f 13/6/7 20/6/15 8/6/4
f 20/6/15 13/6/7 21/6/16
f 13/6/7 17/4/17 21/6/16
f 17/4/17 13/6/7 2/4/9
f 22/5/18 7/5/11 19/5/18
f 7/5/11 22/5/18 15/5/11
f 4/4/3 23/6/15 18/4/14
f 23/6/15 4/4/3 5/6/4
f 11/6/7 23/6/15 5/6/4
f 23/6/15 11/6/7 24/6/16
f 11/6/7 22/5/17 24/6/16
f 22/5/17 11/6/7 15/5/9
f 27/1/19 26/1/20 25/1/19
f 26/1/20 27/1/19 28/1/20
f 27/1/23 29/2/22 28/1/21
f 29/2/22 27/1/23 30/2/24
f 33/3/23 32/2/22 31/3/21
f 32/2/22 33/3/23 34/2/24
f 29/2/22 36/2/26 35/2/25
f 36/2/26 29/2/22 30/2/24
f 32/2/22 38/2/26 37/2/25
f 38/2/26 32/2/22 34/2/24
f 36/2/26 39/3/27 35/2/25
f 39/3/27 36/2/26 40/3/28
f 38/2/26 26/1/27 37/2/25
f 26/1/27 38/2/26 25/1/28
f 39/3/29 33/3/30 31/3/29
f 33/3/30 39/3/29 40/3/30
f 28/4/20 1/4/1 26/4/20
f 1/4/1 28/4/20 3/4/1
f 31/5/21 10/6/6 9/5/5
f 10/6/6 31/5/21 32/6/22
f 37/6/25 10/6/6 32/6/22
f 10/6/6 37/6/25 14/6/8
f 37/6/25 1/4/10 14/6/8
f 1/4/10 37/6/25 26/4/27
f 16/5/12 31/5/29 9/5/12
f 31/5/29 16/5/12 39/5/29
f 28/4/21 6/6/6 3/4/5
f 6/6/6 28/4/21 29/6/22
f 35/6/25 6/6/6 29/6/22
f 6/6/6 35/6/25 12/6/8
f 35/6/25 16/5/10 12/6/8
f 16/5/10 35/6/25 39/5/27
f 43/1/31 42/1/32 41/1/31
f 42/1/32 43/1/31 44/1/32
f 43/1/35 45/2/34 44/1/33
f 45/2/34 43/1/35 46/2/36
f 49/3/35 48/2/34 47/3/33
f 48/2/34 49/3/35 50/2/36
f 45/2/34 52/2/38 51/2/37
f 52/2/38 45/2/34 46/2/36
f 48/2/34 54/2/38 53/2/37
f 54/2/38 48/2/34 50/2/36
f 52/2/38 55/3/39 51/2/37
f 55/3/39 52/2/38 56/3/40
f 54/2/38 42/1/39 53/2/37
f 42/1/39 54/2/38 41/1/40
f 55/3/41 49/3/42 47/3/41
f 49/3/42 55/3/41 56/3/42
f 44/4/32 25/4/19 42/4/32
f 25/4/19 44/4/32 27/4/19
f 47/5/33 34/6/24 33/5/23
f 34/6/24 47/5/33 48/6/34
f 53/6/37 34/6/24 48/6/34
f 34/6/24 53/6/37 38/6/26
f 53/6/37 25/4/28 38/6/26
f 25/4/28 53/6/37 42/4/39
f 40/5/30 47/5/41 33/5/30
f 47/5/41 40/5/30 55/5/41
f 44/4/33 30/6/24 27/4/23
f 30/6/24 44/4/33 45/6/34
f 51/6/37 30/6/24 45/6/34
f 30/6/24 51/6/37 36/6/26
f 51/6/37 40/5/28 36/6/26
f 40/5/28 51/6/37 55/5/39
f 59/1/43 58/1/44 57/1/43
f 58/1/44 59/1/43 60/1/44
f 59/1/47 61/2/46 60/1/45
f 61/2/46 59/1/47 62/2/48
f 65/3/47 64/2/46 63/3/45
f 64/2/46 65/3/47 66/2/48
f 61/2/46 68/2/50 67/2/49
f 68/2/50 61/2/46 62/2/48
f 64/2/46 70/2/50 69/2/49
f 70/2/50 64/2/46 66/2/48
f 68/2/50 71/3/51 67/2/49
f 71/3/51 68/2/50 72/3/52
f 70/2/50 58/1/51 69/2/49
f 58/1/51 70/2/50 57/1/52
f 71/3/53 65/3/54 63/3/53
f 65/3/54 71/3/53 72/3/54
f 60/4/44 41/4/31 58/4/44
f 41/4/31 60/4/44 43/4/31
f 63/5/45 50/6/36 49/5/35
f 50/6/36 63/5/45 64/6/46
f 69/6/49 50/6/36 64/6/46
f 50/6/36 69/6/49 54/6/38
f 69/6/49 41/4/40 54/6/38
f 41/4/40 69/6/49 58/4/51
f 56/5/42 63/5/53 49/5/42
f 63/5/53 56/5/42 71/5/53
f 60/4/45 46/6/36 43/4/35
f 46/6/36 60/4/45 61/6/46
f 67/6/49 46/6/36 61/6/46
f 46/6/36 67/6/49 52/6/38
f 67/6/49 56/5/40 52/6/38
f 56/5/40 67/6/49 71/5/51
f 75/5/55 74/6/55 73/6/55
f 75/5/55 76/4/55 74/6/55
f 76/4/55 75/5/55 77/4/55
f 78/5/55 77/4/55 75/5/55
f 77/4/55 78/5/55 79/6/55
f 79/6/55 78/5/55 80/6/55
f 83/7/57 82/8/56 81/7/56
f 82/8/56 83/7/57 84/8/57
f 82/8/56 85/7/58 81/7/56
f 85/7/58 82/8/56 86/8/58
f 89/7/59 88/7/59 87/7/59
f 88/7/59 89/7/59 85/7/59
f 85/7/59 89/7/59 81/7/59
f 81/7/59 89/7/59 83/7/59
f 90/7/59 88/7/59 85/7/59
f 90/7/59 91/7/59 88/7/59
f 90/7/59 92/7/59 91/7/59
f 93/7/59 92/7/59 90/7/59
f 94/7/59 92/7/59 93/7/59
f 92/7/59 94/7/59 95/7/59
f 97/8/61 93/7/60 96/8/60
f 93/7/60 97/8/61 94/7/61
f 98/8/62 93/7/60 90/7/62
f 93/7/60 98/8/62 96/8/60
f 99/8/63 94/7/61 97/8/61
f 94/7/61 99/8/63 95/7/63
f 89/7/64 84/8/57 83/7/57
f 84/8/57 89/7/64 100/8/64
f 86/8/58 90/7/62 85/7/58
f 90/7/62 86/8/58 98/8/62
f 92/7/64 101/8/64 91/7/64
f 101/8/64 92/7/64 102/8/64
f 101/8/65 88/7/65 91/7/65
f 88/7/65 101/8/65 103/8/65
f 104/8/63 88/7/63 103/8/63
f 88/7/63 104/8/63 87/7/63
f 100/8/66 82/8/66 84/8/66
f 104/8/66 82/8/66 100/8/66
f 103/8/66 82/8/66 104/8/66
f 103/8/66 86/8/66 82/8/66
f 101/8/66 86/8/66 103/8/66
f 86/8/66 101/8/66 98/8/66
f 102/8/66 98/8/66 101/8/66
f 102/8/66 96/8/66 98/8/66
f 99/8/66 96/8/66 102/8/66
f 96/8/66 99/8/66 97/8/66
f 107/3/67 106/2/67 105/2/67
f 107/3/67 108/1/67 106/2/67
f 108/1/67 107/3/67 109/1/67
f 110/3/67 109/1/67 107/3/67
f 109/1/67 110/3/67 111/2/67
f 111/2/67 110/3/67 112/2/67
f 115/7/69 114/8/68 113/7/68
f 114/8/68 115/7/69 116/8/69
f 114/8/68 117/7/70 113/7/68
f 117/7/70 114/8/68 118/8/70
f 121/7/71 120/7/71 119/7/71
f 120/7/71 121/7/71 117/7/71
f 117/7/71 121/7/71 113/7/71
f 113/7/71 121/7/71 115/7/71
f 122/7/71 120/7/71 117/7/71
f 122/7/71 123/7/71 120/7/71
f 122/7/71 124/7/71 123/7/71
f 125/7/71 124/7/71 122/7/71
f 126/7/71 124/7/71 125/7/71
f 124/7/71 126/7/71 127/7/71
f 129/8/73 125/7/72 128/8/72
f 125/7/72 129/8/73 126/7/73
f 130/8/74 125/7/72 122/7/74
f 125/7/72 130/8/74 128/8/72
f 131/8/75 126/7/73 129/8/73
f 126/7/73 131/8/75 127/7/75
f 121/7/76 116/8/69 115/7/69
f 116/8/69 121/7/76 132/8/76
f 118/8/70 122/7/74 117/7/70
f 122/7/74 118/8/70 130/8/74
f 124/7/76 133/8/76 123/7/76
f 133/8/76 124/7/76 134/8/76
f 133/8/77 120/7/77 123/7/77
f 120/7/77 133/8/77 135/8/77
f 136/8/75 120/7/75 135/8/75
f 120/7/75 136/8/75 119/7/75
f 132/8/78 114/8/78 116/8/78
f 136/8/78 114/8/78 132/8/78
f 135/8/78 114/8/78 136/8/78
f 135/8/78 118/8/78 114/8/78
f 133/8/78 118/8/78 135/8/78
f 118/8/78 133/8/78 130/8/78
f 134/8/78 130/8/78 133/8/78
f 134/8/78 128/8/78 130/8/78
f 131/8/78 128/8/78 134/8/78
f 128/8/78 131/8/78 129/8/78

