# Created by Kenney (www.kenney.nl)

mtllib track-narrow-straight-bump-down.mtl

g track-narrow-straight-bump-down

v -0.5 0 4.291534E-06 1 1 1
v -0.5 -0.03506577 0.4155097 1 1 1
v 0.5 0 4.291534E-06 1 1 1
v 0.5 -0.03506577 0.4155097 1 1 1
v -0.5 -0.1597387 0.8120666 1 1 1
v 0.5 -0.1597387 0.8120666 1 1 1
v -0.5 0.3 4.768372E-06 1 1 1
v -0.5 0.259865 0.4704261 1 1 1
v -0.5 0.1145419 0.9335995 1 1 1
v 0.5 0.3 4.768372E-06 1 1 1
v 0.5 0.259865 0.4704261 1 1 1
v 0.5 0.1145419 0.9335995 1 1 1
v 0.4 0.1 4.291534E-06 1 1 1
v 0.4 0.06324458 0.433815 1 1 1
v -0.4000001 0.1 4.291534E-06 1 1 1
v -0.4000001 0.06324458 0.433815 1 1 1
v 0.4 -0.06831181 0.8525777 1 1 1
v -0.4000001 -0.06831181 0.8525777 1 1 1
v -0.4000001 0.3 4.768372E-06 1 1 1
v -0.4000001 0.259865 0.4704261 1 1 1
v -0.4000001 0.1145419 0.9335995 1 1 1
v 0.4 0.3 4.768372E-06 1 1 1
v 0.4 0.259865 0.4704261 1 1 1
v 0.4 0.1145419 0.9335995 1 1 1
v -0.5 -0.3402613 1.187933 1 1 1
v 0.5 -0.3402613 1.187933 1 1 1
v -0.5 -0.4649342 1.584491 1 1 1
v 0.5 -0.4649342 1.584491 1 1 1
v -0.5 -0.06598079 1.309466 1 1 1
v -0.5 -0.1700034 1.639407 1 1 1
v 0.5 -0.06598079 1.309466 1 1 1
v 0.5 -0.1700034 1.639407 1 1 1
v 0.4 -0.2488345 1.228444 1 1 1
v -0.4000001 -0.2488345 1.228444 1 1 1
v 0.4 -0.3666239 1.602796 1 1 1
v -0.4000001 -0.3666239 1.602796 1 1 1
v -0.4000001 -0.06598079 1.309466 1 1 1
v -0.4000001 -0.1700034 1.639407 1 1 1
v 0.4 -0.06598079 1.309466 1 1 1
v 0.4 -0.1700034 1.639407 1 1 1
v -0.5 -0.5 2 1 1 1
v 0.5 -0.5 2 1 1 1
v -0.5 -0.4649342 2.41551 1 1 1
v 0.5 -0.4649342 2.41551 1 1 1
v -0.5 -0.2 2 1 1 1
v -0.5 -0.1700034 2.360593 1 1 1
v 0.5 -0.2 2 1 1 1
v 0.5 -0.1700034 2.360593 1 1 1
v 0.4 -0.4 2 1 1 1
v -0.4000001 -0.4 2 1 1 1
v 0.4 -0.3666239 2.397204 1 1 1
v -0.4000001 -0.3666239 2.397204 1 1 1
v -0.4000001 -0.2 2 1 1 1
v -0.4000001 -0.1700034 2.360593 1 1 1
v 0.4 -0.2 2 1 1 1
v 0.4 -0.1700034 2.360593 1 1 1
v -0.5 -0.3402613 2.812067 1 1 1
v 0.5 -0.3402613 2.812067 1 1 1
v -0.5 -0.1597387 3.187933 1 1 1
v 0.5 -0.1597387 3.187933 1 1 1
v -0.5 -0.06598067 2.690534 1 1 1
v -0.5 0.1145419 3.066401 1 1 1
v 0.5 -0.06598067 2.690534 1 1 1
v 0.5 0.1145419 3.066401 1 1 1
v 0.4 -0.2488345 2.771556 1 1 1
v -0.4000001 -0.2488345 2.771556 1 1 1
v 0.4 -0.06831181 3.147422 1 1 1
v -0.4000001 -0.06831181 3.147422 1 1 1
v -0.4000001 -0.06598067 2.690534 1 1 1
v -0.4000001 0.1145419 3.066401 1 1 1
v 0.4 -0.06598067 2.690534 1 1 1
v 0.4 0.1145419 3.066401 1 1 1
v -0.5 -0.03506577 3.584491 1 1 1
v 0.5 -0.03506577 3.584491 1 1 1
v -0.5 0 3.999995 1 1 1
v 0.5 0 3.999995 1 1 1
v -0.5 0.259865 3.529574 1 1 1
v -0.5 0.3 3.999995 1 1 1
v 0.5 0.259865 3.529574 1 1 1
v 0.5 0.3 3.999995 1 1 1
v 0.4 0.06324446 3.566185 1 1 1
v -0.4000001 0.06324446 3.566185 1 1 1
v 0.4 0.1 3.999995 1 1 1
v -0.4000001 0.1 3.999995 1 1 1
v -0.4000001 0.259865 3.529574 1 1 1
v -0.4000001 0.3 3.999995 1 1 1
v 0.4 0.259865 3.529574 1 1 1
v 0.4 0.3 3.999995 1 1 1
v -0.4 0.3 0 1 1 1
v -0.5 0.3 0 1 1 1
v -0.4 0.1 0 1 1 1
v -0.5 0 0 1 1 1
v 0.5 0 0 1 1 1
v 0.4 0.1 0 1 1 1
v 0.5 0.3 0 1 1 1
v 0.4 0.3 0 1 1 1
v -0.1207107 0 -0.1707107 1 1 1
v -0.1207107 0.05000001 -0.1707107 1 1 1
v -0.15 0 -0.1 1 1 1
v -0.15 0.05000001 -0.1 1 1 1
v -0.05 0 -0.2 1 1 1
v -0.05 0.05000001 -0.2 1 1 1
v -0.05 0 7.219114E-16 1 1 1
v -0.05 0 -0.1 1 1 1
v -0.15 0 1.082867E-15 1 1 1
v 0.05 0 -0.2 1 1 1
v 0.05 0 -0.1 1 1 1
v 0.05 0 3.609557E-16 1 1 1
v 0.1207107 0 -0.1707107 1 1 1
v 0.15 0 -0.1 1 1 1
v 0.15 0 0 1 1 1
v 0.1207107 0.05000001 -0.1707107 1 1 1
v 0.15 0.05000001 -0.1 1 1 1
v 0.05 0.05000001 -0.2 1 1 1
v 0.15 0.05000001 0 1 1 1
v -0.15 0.05000001 1.082867E-15 1 1 1
v 0.05 0.05000001 -0.1 1 1 1
v 0.05 0.05000001 3.609557E-16 1 1 1
v -0.05 0.05000001 -0.1 1 1 1
v -0.05 0.05000001 7.219114E-16 1 1 1
v 0.4 0.3 4 1 1 1
v 0.5 0.3 4 1 1 1
v 0.4 0.1 4 1 1 1
v 0.5 0 4 1 1 1
v -0.5 0 4 1 1 1
v -0.4 0.1 4 1 1 1
v -0.5 0.3 4 1 1 1
v -0.4 0.3 4 1 1 1
v 0.1207107 0 4.170711 1 1 1
v 0.1207107 0.05000001 4.170711 1 1 1
v 0.15 0 4.1 1 1 1
v 0.15 0.05000001 4.1 1 1 1
v 0.05 0 4.2 1 1 1
v 0.05 0.05000001 4.2 1 1 1
v 0.05 0 4 1 1 1
v 0.05 0 4.1 1 1 1
v 0.15 0 4 1 1 1
v -0.05 0 4.2 1 1 1
v -0.05 0 4.1 1 1 1
v -0.05 0 4 1 1 1
v -0.1207107 0 4.170711 1 1 1
v -0.15 0 4.1 1 1 1
v -0.15 0 4 1 1 1
v -0.1207107 0.05000001 4.170711 1 1 1
v -0.15 0.05000001 4.1 1 1 1
v -0.05 0.05000001 4.2 1 1 1
v -0.15 0.05000001 4 1 1 1
v 0.15 0.05000001 4 1 1 1
v -0.05 0.05000001 4.1 1 1 1
v -0.05 0.05000001 4 1 1 1
v 0.05 0.05000001 4.1 1 1 1
v 0.05 0.05000001 4 1 1 1

vn 0 -1 -1.438542E-06
vn 0 -0.9831028 -0.1830544
vn 0 -0.9142686 -0.4051086
vn -1 0 0
vn -0.7071068 0.7071068 1.017203E-06
vn -0.7071068 0.6951586 0.129439
vn -0.7071068 0.6464855 0.286455
vn 0.7071068 0.7071068 1.017203E-06
vn 1 0 0
vn 0.7071068 0.6951586 0.129439
vn 0.7071068 0.6464855 0.286455
vn 0 1 1.438542E-06
vn 0 0.9831028 0.1830544
vn 0 0.9142686 0.4051086
vn 0 -0.9142686 -0.4051087
vn -0.7071068 0.6464855 0.2864551
vn 0.7071068 0.6464855 0.2864551
vn 0 0.9142686 0.4051087
vn 0 -1 0
vn 0 -0.9831027 0.1830545
vn -0.7071068 0.7071068 0
vn -0.7071068 0.6951586 -0.1294391
vn 0.7071068 0.7071068 0
vn 0.7071068 0.6951586 -0.1294391
vn 0 1 0
vn 0 0.9831027 -0.1830545
vn 0 -0.9142686 0.4051086
vn 0 -0.9142686 0.4051086
vn -0.7071068 0.6464855 -0.286455
vn -0.7071068 0.6464855 -0.2864551
vn 0.7071068 0.6464855 -0.286455
vn 0.7071068 0.6464855 -0.2864551
vn 0 0.9142686 -0.4051086
vn 0 0.9142686 -0.4051086
vn 0 -1 1.490121E-06
vn -0.7071068 0.7071068 -1.053675E-06
vn 0.7071068 0.7071068 -1.053675E-06
vn 0 1 -1.490121E-06
vn 0 0 -1
vn -0.7071068 0 -0.7071068
vn -0.9807853 0 -0.1950903
vn -0.1950903 0 -0.9807853
vn 0.7071068 0 -0.7071068
vn 0.9807853 0 -0.1950903
vn 0.1950903 0 -0.9807853
vn 0 0 1
vn 0.7071068 0 0.7071068
vn 0.9807853 0 0.1950903
vn 0.1950903 0 0.9807853
vn -0.7071068 0 0.7071068
vn -0.9807853 0 0.1950903
vn -0.1950903 0 0.9807853
vn -1 0 7.21645E-16
vn 1 0 -7.21645E-16
vn -7.21645E-16 0 -1

vt 0.46875 0.275
vt 0.46875 0.475
vt 0.46875 0.3416667
vt 0.71875 0.275
vt 0.71875 0.475

usemtl colormap

f 3/1/1 2/1/2 1/1/1
f 2/1/2 3/1/1 4/1/2
f 4/1/2 5/1/3 2/1/2
f 5/1/3 4/1/2 6/1/3
f 2/1/4 7/2/5 1/1/4
f 7/2/5 2/1/4 8/2/6
f 5/1/4 8/2/6 2/1/4
f 8/2/6 5/1/4 9/2/7
f 11/2/10 3/1/9 10/2/8
f 3/1/9 11/2/10 4/1/9
f 12/2/11 4/1/9 11/2/10
f 4/1/9 12/2/11 6/1/9
f 15/3/12 14/3/13 13/3/12
f 14/3/13 15/3/12 16/3/13
f 16/3/13 17/3/14 14/3/13
f 17/3/14 16/3/13 18/3/14
f 7/2/5 20/2/10 19/2/8
f 20/2/10 7/2/5 8/2/6
f 8/2/6 21/2/11 20/2/10
f 21/2/11 8/2/6 9/2/7
f 20/2/10 15/3/9 19/2/8
f 15/3/9 20/2/10 16/3/9
f 21/2/11 16/3/9 20/2/10
f 16/3/9 21/2/11 18/3/9
f 22/2/5 11/2/10 10/2/8
f 11/2/10 22/2/5 23/2/6
f 23/2/6 12/2/11 11/2/10
f 12/2/11 23/2/6 24/2/7
f 14/3/4 22/2/5 13/3/4
f 22/2/5 14/3/4 23/2/6
f 17/3/4 23/2/6 14/3/4
f 23/2/6 17/3/4 24/2/7
f 6/1/3 25/1/15 5/1/3
f 25/1/15 6/1/3 26/1/15
f 26/1/15 27/1/2 25/1/15
f 27/1/2 26/1/15 28/1/2
f 25/1/4 9/2/7 5/1/4
f 9/2/7 25/1/4 29/2/16
f 27/1/4 29/2/16 25/1/4
f 29/2/16 27/1/4 30/2/6
f 31/2/17 6/1/9 12/2/11
f 6/1/9 31/2/17 26/1/9
f 32/2/10 26/1/9 31/2/17
f 26/1/9 32/2/10 28/1/9
f 18/3/14 33/3/18 17/3/14
f 33/3/18 18/3/14 34/3/18
f 34/3/18 35/3/13 33/3/18
f 35/3/13 34/3/18 36/3/13
f 9/2/7 37/2/17 21/2/11
f 37/2/17 9/2/7 29/2/16
f 29/2/16 38/2/10 37/2/17
f 38/2/10 29/2/16 30/2/6
f 37/2/17 18/3/9 21/2/11
f 18/3/9 37/2/17 34/3/9
f 38/2/10 34/3/9 37/2/17
f 34/3/9 38/2/10 36/3/9
f 24/2/7 31/2/17 12/2/11
f 31/2/17 24/2/7 39/2/16
f 39/2/16 32/2/10 31/2/17
f 32/2/10 39/2/16 40/2/6
f 33/3/4 24/2/7 17/3/4
f 24/2/7 33/3/4 39/2/16
f 35/3/4 39/2/16 33/3/4
f 39/2/16 35/3/4 40/2/6
f 28/1/2 41/1/19 27/1/2
f 41/1/19 28/1/2 42/1/19
f 42/1/19 43/1/20 41/1/19
f 43/1/20 42/1/19 44/1/20
f 41/1/4 30/2/6 27/1/4
f 30/2/6 41/1/4 45/2/21
f 43/1/4 45/2/21 41/1/4
f 45/2/21 43/1/4 46/2/22
f 47/2/23 28/1/9 32/2/10
f 28/1/9 47/2/23 42/1/9
f 48/2/24 42/1/9 47/2/23
f 42/1/9 48/2/24 44/1/9
f 36/3/13 49/3/25 35/3/13
f 49/3/25 36/3/13 50/3/25
f 50/3/25 51/3/26 49/3/25
f 51/3/26 50/3/25 52/3/26
f 30/2/6 53/2/23 38/2/10
f 53/2/23 30/2/6 45/2/21
f 45/2/21 54/2/24 53/2/23
f 54/2/24 45/2/21 46/2/22
f 53/2/23 36/3/9 38/2/10
f 36/3/9 53/2/23 50/3/9
f 54/2/24 50/3/9 53/2/23
f 50/3/9 54/2/24 52/3/9
f 40/2/6 47/2/23 32/2/10
f 47/2/23 40/2/6 55/2/21
f 55/2/21 48/2/24 47/2/23
f 48/2/24 55/2/21 56/2/22
f 49/3/4 40/2/6 35/3/4
f 40/2/6 49/3/4 55/2/21
f 51/3/4 55/2/21 49/3/4
f 55/2/21 51/3/4 56/2/22
f 44/1/20 57/1/27 43/1/20
f 57/1/27 44/1/20 58/1/27
f 58/1/27 59/1/28 57/1/27
f 59/1/28 58/1/27 60/1/28
f 57/1/4 46/2/22 43/1/4
f 46/2/22 57/1/4 61/2/29
f 59/1/4 61/2/29 57/1/4
f 61/2/29 59/1/4 62/2/30
f 63/2/31 44/1/9 48/2/24
f 44/1/9 63/2/31 58/1/9
f 64/2/32 58/1/9 63/2/31
f 58/1/9 64/2/32 60/1/9
f 52/3/26 65/3/33 51/3/26
f 65/3/33 52/3/26 66/3/33
f 66/3/33 67/3/34 65/3/33
f 67/3/34 66/3/33 68/3/34
f 46/2/22 69/2/31 54/2/24
f 69/2/31 46/2/22 61/2/29
f 61/2/29 70/2/32 69/2/31
f 70/2/32 61/2/29 62/2/30
f 69/2/31 52/3/9 54/2/24
f 52/3/9 69/2/31 66/3/9
f 70/2/32 66/3/9 69/2/31
f 66/3/9 70/2/32 68/3/9
f 56/2/22 63/2/31 48/2/24
f 63/2/31 56/2/22 71/2/29
f 71/2/29 64/2/32 63/2/31
f 64/2/32 71/2/29 72/2/30
f 65/3/4 56/2/22 51/3/4
f 56/2/22 65/3/4 71/2/29
f 67/3/4 71/2/29 65/3/4
f 71/2/29 67/3/4 72/2/30
f 60/1/28 73/1/20 59/1/28
f 73/1/20 60/1/28 74/1/20
f 74/1/20 75/1/35 73/1/20
f 75/1/35 74/1/20 76/1/35
f 73/1/4 62/2/30 59/1/4
f 62/2/30 73/1/4 77/2/22
f 75/1/4 77/2/22 73/1/4
f 77/2/22 75/1/4 78/2/36
f 79/2/24 60/1/9 64/2/32
f 60/1/9 79/2/24 74/1/9
f 80/2/37 74/1/9 79/2/24
f 74/1/9 80/2/37 76/1/9
f 68/3/34 81/3/26 67/3/34
f 81/3/26 68/3/34 82/3/26
f 82/3/26 83/3/38 81/3/26
f 83/3/38 82/3/26 84/3/38
f 62/2/30 85/2/24 70/2/32
f 85/2/24 62/2/30 77/2/22
f 77/2/22 86/2/37 85/2/24
f 86/2/37 77/2/22 78/2/36
f 85/2/24 68/3/9 70/2/32
f 68/3/9 85/2/24 82/3/9
f 86/2/37 82/3/9 85/2/24
f 82/3/9 86/2/37 84/3/9
f 72/2/30 79/2/24 64/2/32
f 79/2/24 72/2/30 87/2/22
f 87/2/22 80/2/37 79/2/24
f 80/2/37 87/2/22 88/2/36
f 81/3/4 72/2/30 67/3/4
f 72/2/30 81/3/4 87/2/22
f 83/3/4 87/2/22 81/3/4
f 87/2/22 83/3/4 88/2/36
f 91/3/39 90/2/39 89/2/39
f 91/3/39 92/1/39 90/2/39
f 92/1/39 91/3/39 93/1/39
f 94/3/39 93/1/39 91/3/39
f 93/1/39 94/3/39 95/2/39
f 95/2/39 94/3/39 96/2/39
f 99/4/41 98/5/40 97/4/40
f 98/5/40 99/4/41 100/5/41
f 98/5/40 101/4/42 97/4/40
f 101/4/42 98/5/40 102/5/42
f 105/4/19 104/4/19 103/4/19
f 104/4/19 105/4/19 101/4/19
f 101/4/19 105/4/19 97/4/19
f 97/4/19 105/4/19 99/4/19
f 106/4/19 104/4/19 101/4/19
f 106/4/19 107/4/19 104/4/19
f 106/4/19 108/4/19 107/4/19
f 109/4/19 108/4/19 106/4/19
f 110/4/19 108/4/19 109/4/19
f 108/4/19 110/4/19 111/4/19
f 113/5/44 109/4/43 112/5/43
f 109/4/43 113/5/44 110/4/44
f 114/5/45 109/4/43 106/4/45
f 109/4/43 114/5/45 112/5/43
f 115/5/9 110/4/44 113/5/44
f 110/4/44 115/5/9 111/4/9
f 105/4/4 100/5/41 99/4/41
f 100/5/41 105/4/4 116/5/4
f 102/5/42 106/4/45 101/4/42
f 106/4/45 102/5/42 114/5/45
f 108/4/4 117/5/4 107/4/4
f 117/5/4 108/4/4 118/5/4
f 117/5/46 104/4/46 107/4/46
f 104/4/46 117/5/46 119/5/46
f 120/5/9 104/4/9 119/5/9
f 104/4/9 120/5/9 103/4/9
f 116/5/25 98/5/25 100/5/25
f 120/5/25 98/5/25 116/5/25
f 119/5/25 98/5/25 120/5/25
f 119/5/25 102/5/25 98/5/25
f 117/5/25 102/5/25 119/5/25
f 102/5/25 117/5/25 114/5/25
f 118/5/25 114/5/25 117/5/25
f 118/5/25 112/5/25 114/5/25
f 115/5/25 112/5/25 118/5/25
f 112/5/25 115/5/25 113/5/25
f 123/3/46 122/2/46 121/2/46
f 123/3/46 124/1/46 122/2/46
f 124/1/46 123/3/46 125/1/46
f 126/3/46 125/1/46 123/3/46
f 125/1/46 126/3/46 127/2/46
f 127/2/46 126/3/46 128/2/46
f 131/4/48 130/5/47 129/4/47
f 130/5/47 131/4/48 132/5/48
f 130/5/47 133/4/49 129/4/47
f 133/4/49 130/5/47 134/5/49
f 137/4/19 136/4/19 135/4/19
f 136/4/19 137/4/19 133/4/19
f 133/4/19 137/4/19 129/4/19
f 129/4/19 137/4/19 131/4/19
f 138/4/19 136/4/19 133/4/19
f 138/4/19 139/4/19 136/4/19
f 138/4/19 140/4/19 139/4/19
f 141/4/19 140/4/19 138/4/19
f 142/4/19 140/4/19 141/4/19
f 140/4/19 142/4/19 143/4/19
f 145/5/51 141/4/50 144/5/50
f 141/4/50 145/5/51 142/4/51
f 146/5/52 141/4/50 138/4/52
f 141/4/50 146/5/52 144/5/50
f 147/5/53 142/4/51 145/5/51
f 142/4/51 147/5/53 143/4/53
f 137/4/54 132/5/48 131/4/48
f 132/5/48 137/4/54 148/5/54
f 134/5/49 138/4/52 133/4/49
f 138/4/52 134/5/49 146/5/52
f 140/4/54 149/5/54 139/4/54
f 149/5/54 140/4/54 150/5/54
f 149/5/55 136/4/55 139/4/55
f 136/4/55 149/5/55 151/5/55
f 152/5/53 136/4/53 151/5/53
f 136/4/53 152/5/53 135/4/53
f 148/5/25 130/5/25 132/5/25
f 152/5/25 130/5/25 148/5/25
f 151/5/25 130/5/25 152/5/25
f 151/5/25 134/5/25 130/5/25
f 149/5/25 134/5/25 151/5/25
f 134/5/25 149/5/25 146/5/25
f 150/5/25 146/5/25 149/5/25
f 150/5/25 144/5/25 146/5/25
f 147/5/25 144/5/25 150/5/25
f 144/5/25 147/5/25 145/5/25

g track-narrow-straight-bump-down




usemtl colormap

f 3/1/1 2/1/2 1/1/1
f 2/1/2 3/1/1 4/1/2
f 4/1/2 5/1/3 2/1/2
f 5/1/3 4/1/2 6/1/3
f 2/1/4 7/2/5 1/1/4
f 7/2/5 2/1/4 8/2/6
f 5/1/4 8/2/6 2/1/4
f 8/2/6 5/1/4 9/2/7
f 11/2/10 3/1/9 10/2/8
f 3/1/9 11/2/10 4/1/9
f 12/2/11 4/1/9 11/2/10
f 4/1/9 12/2/11 6/1/9
f 15/3/12 14/3/13 13/3/12
f 14/3/13 15/3/12 16/3/13
f 16/3/13 17/3/14 14/3/13
f 17/3/14 16/3/13 18/3/14
f 7/2/5 20/2/10 19/2/8
f 20/2/10 7/2/5 8/2/6
f 8/2/6 21/2/11 20/2/10
f 21/2/11 8/2/6 9/2/7
f 20/2/10 15/3/9 19/2/8
f 15/3/9 20/2/10 16/3/9
f 21/2/11 16/3/9 20/2/10
f 16/3/9 21/2/11 18/3/9
f 22/2/5 11/2/10 10/2/8
f 11/2/10 22/2/5 23/2/6
f 23/2/6 12/2/11 11/2/10
f 12/2/11 23/2/6 24/2/7
f 14/3/4 22/2/5 13/3/4
f 22/2/5 14/3/4 23/2/6
f 17/3/4 23/2/6 14/3/4
f 23/2/6 17/3/4 24/2/7
f 6/1/3 25/1/15 5/1/3
f 25/1/15 6/1/3 26/1/15
f 26/1/15 27/1/2 25/1/15
f 27/1/2 26/1/15 28/1/2
f 25/1/4 9/2/7 5/1/4
f 9/2/7 25/1/4 29/2/16
f 27/1/4 29/2/16 25/1/4
f 29/2/16 27/1/4 30/2/6
f 31/2/17 6/1/9 12/2/11
f 6/1/9 31/2/17 26/1/9
f 32/2/10 26/1/9 31/2/17
f 26/1/9 32/2/10 28/1/9
f 18/3/14 33/3/18 17/3/14
f 33/3/18 18/3/14 34/3/18
f 34/3/18 35/3/13 33/3/18
f 35/3/13 34/3/18 36/3/13
f 9/2/7 37/2/17 21/2/11
f 37/2/17 9/2/7 29/2/16
f 29/2/16 38/2/10 37/2/17
f 38/2/10 29/2/16 30/2/6
f 37/2/17 18/3/9 21/2/11
f 18/3/9 37/2/17 34/3/9
f 38/2/10 34/3/9 37/2/17
f 34/3/9 38/2/10 36/3/9
f 24/2/7 31/2/17 12/2/11
f 31/2/17 24/2/7 39/2/16
f 39/2/16 32/2/10 31/2/17
f 32/2/10 39/2/16 40/2/6
f 33/3/4 24/2/7 17/3/4
f 24/2/7 33/3/4 39/2/16
f 35/3/4 39/2/16 33/3/4
f 39/2/16 35/3/4 40/2/6
f 28/1/2 41/1/19 27/1/2
f 41/1/19 28/1/2 42/1/19
f 42/1/19 43/1/20 41/1/19
f 43/1/20 42/1/19 44/1/20
f 41/1/4 30/2/6 27/1/4
f 30/2/6 41/1/4 45/2/21
f 43/1/4 45/2/21 41/1/4
f 45/2/21 43/1/4 46/2/22
f 47/2/23 28/1/9 32/2/10
f 28/1/9 47/2/23 42/1/9
f 48/2/24 42/1/9 47/2/23
f 42/1/9 48/2/24 44/1/9
f 36/3/13 49/3/25 35/3/13
f 49/3/25 36/3/13 50/3/25
f 50/3/25 51/3/26 49/3/25
f 51/3/26 50/3/25 52/3/26
f 30/2/6 53/2/23 38/2/10
f 53/2/23 30/2/6 45/2/21
f 45/2/21 54/2/24 53/2/23
f 54/2/24 45/2/21 46/2/22
f 53/2/23 36/3/9 38/2/10
f 36/3/9 53/2/23 50/3/9
f 54/2/24 50/3/9 53/2/23
f 50/3/9 54/2/24 52/3/9
f 40/2/6 47/2/23 32/2/10
f 47/2/23 40/2/6 55/2/21
f 55/2/21 48/2/24 47/2/23
f 48/2/24 55/2/21 56/2/22
f 49/3/4 40/2/6 35/3/4
f 40/2/6 49/3/4 55/2/21
f 51/3/4 55/2/21 49/3/4
f 55/2/21 51/3/4 56/2/22
f 44/1/20 57/1/27 43/1/20
f 57/1/27 44/1/20 58/1/27
f 58/1/27 59/1/28 57/1/27
f 59/1/28 58/1/27 60/1/28
f 57/1/4 46/2/22 43/1/4
f 46/2/22 57/1/4 61/2/29
f 59/1/4 61/2/29 57/1/4
f 61/2/29 59/1/4 62/2/30
f 63/2/31 44/1/9 48/2/24
f 44/1/9 63/2/31 58/1/9
f 64/2/32 58/1/9 63/2/31
f 58/1/9 64/2/32 60/1/9
f 52/3/26 65/3/33 51/3/26
f 65/3/33 52/3/26 66/3/33
f 66/3/33 67/3/34 65/3/33
f 67/3/34 66/3/33 68/3/34
f 46/2/22 69/2/31 54/2/24
f 69/2/31 46/2/22 61/2/29
f 61/2/29 70/2/32 69/2/31
f 70/2/32 61/2/29 62/2/30
f 69/2/31 52/3/9 54/2/24
f 52/3/9 69/2/31 66/3/9
f 70/2/32 66/3/9 69/2/31
f 66/3/9 70/2/32 68/3/9
f 56/2/22 63/2/31 48/2/24
f 63/2/31 56/2/22 71/2/29
f 71/2/29 64/2/32 63/2/31
f 64/2/32 71/2/29 72/2/30
f 65/3/4 56/2/22 51/3/4
f 56/2/22 65/3/4 71/2/29
f 67/3/4 71/2/29 65/3/4
f 71/2/29 67/3/4 72/2/30
f 60/1/28 73/1/20 59/1/28
f 73/1/20 60/1/28 74/1/20
f 74/1/20 75/1/35 73/1/20
f 75/1/35 74/1/20 76/1/35
f 73/1/4 62/2/30 59/1/4
f 62/2/30 73/1/4 77/2/22
f 75/1/4 77/2/22 73/1/4
f 77/2/22 75/1/4 78/2/36
f 79/2/24 60/1/9 64/2/32
f 60/1/9 79/2/24 74/1/9
f 80/2/37 74/1/9 79/2/24
f 74/1/9 80/2/37 76/1/9
f 68/3/34 81/3/26 67/3/34
f 81/3/26 68/3/34 82/3/26
f 82/3/26 83/3/38 81/3/26
f 83/3/38 82/3/26 84/3/38
f 62/2/30 85/2/24 70/2/32
f 85/2/24 62/2/30 77/2/22
f 77/2/22 86/2/37 85/2/24
f 86/2/37 77/2/22 78/2/36
f 85/2/24 68/3/9 70/2/32
f 68/3/9 85/2/24 82/3/9
f 86/2/37 82/3/9 85/2/24
f 82/3/9 86/2/37 84/3/9
f 72/2/30 79/2/24 64/2/32
f 79/2/24 72/2/30 87/2/22
f 87/2/22 80/2/37 79/2/24
f 80/2/37 87/2/22 88/2/36
f 81/3/4 72/2/30 67/3/4
f 72/2/30 81/3/4 87/2/22
f 83/3/4 87/2/22 81/3/4
f 87/2/22 83/3/4 88/2/36
f 91/3/39 90/2/39 89/2/39
f 91/3/39 92/1/39 90/2/39
f 92/1/39 91/3/39 93/1/39
f 94/3/39 93/1/39 91/3/39
f 93/1/39 94/3/39 95/2/39
f 95/2/39 94/3/39 96/2/39
f 99/4/41 98/5/40 97/4/40
f 98/5/40 99/4/41 100/5/41
f 98/5/40 101/4/42 97/4/40
f 101/4/42 98/5/40 102/5/42
f 105/4/19 104/4/19 103/4/19
f 104/4/19 105/4/19 101/4/19
f 101/4/19 105/4/19 97/4/19
f 97/4/19 105/4/19 99/4/19
f 106/4/19 104/4/19 101/4/19
f 106/4/19 107/4/19 104/4/19
f 106/4/19 108/4/19 107/4/19
f 109/4/19 108/4/19 106/4/19
f 110/4/19 108/4/19 109/4/19
f 108/4/19 110/4/19 111/4/19
f 113/5/44 109/4/43 112/5/43
f 109/4/43 113/5/44 110/4/44
f 114/5/45 109/4/43 106/4/45
f 109/4/43 114/5/45 112/5/43
f 115/5/9 110/4/44 113/5/44
f 110/4/44 115/5/9 111/4/9
f 105/4/4 100/5/41 99/4/41
f 100/5/41 105/4/4 116/5/4
f 102/5/42 106/4/45 101/4/42
f 106/4/45 102/5/42 114/5/45
f 108/4/4 117/5/4 107/4/4
f 117/5/4 108/4/4 118/5/4
f 117/5/46 104/4/46 107/4/46
f 104/4/46 117/5/46 119/5/46
f 120/5/9 104/4/9 119/5/9
f 104/4/9 120/5/9 103/4/9
f 116/5/25 98/5/25 100/5/25
f 120/5/25 98/5/25 116/5/25
f 119/5/25 98/5/25 120/5/25
f 119/5/25 102/5/25 98/5/25
f 117/5/25 102/5/25 119/5/25
f 102/5/25 117/5/25 114/5/25
f 118/5/25 114/5/25 117/5/25
f 118/5/25 112/5/25 114/5/25
f 115/5/25 112/5/25 118/5/25
f 112/5/25 115/5/25 113/5/25
f 123/3/46 122/2/46 121/2/46
f 123/3/46 124/1/46 122/2/46
f 124/1/46 123/3/46 125/1/46
f 126/3/46 125/1/46 123/3/46
f 125/1/46 126/3/46 127/2/46
f 127/2/46 126/3/46 128/2/46
f 131/4/48 130/5/47 129/4/47
f 130/5/47 131/4/48 132/5/48
f 130/5/47 133/4/49 129/4/47
f 133/4/49 130/5/47 134/5/49
f 137/4/19 136/4/19 135/4/19
f 136/4/19 137/4/19 133/4/19
f 133/4/19 137/4/19 129/4/19
f 129/4/19 137/4/19 131/4/19
f 138/4/19 136/4/19 133/4/19
f 138/4/19 139/4/19 136/4/19
f 138/4/19 140/4/19 139/4/19
f 141/4/19 140/4/19 138/4/19
f 142/4/19 140/4/19 141/4/19
f 140/4/19 142/4/19 143/4/19
f 145/5/51 141/4/50 144/5/50
f 141/4/50 145/5/51 142/4/51
f 146/5/52 141/4/50 138/4/52
f 141/4/50 146/5/52 144/5/50
f 147/5/53 142/4/51 145/5/51
f 142/4/51 147/5/53 143/4/53
f 137/4/54 132/5/48 131/4/48
f 132/5/48 137/4/54 148/5/54
f 134/5/49 138/4/52 133/4/49
f 138/4/52 134/5/49 146/5/52
f 140/4/54 149/5/54 139/4/54
f 149/5/54 140/4/54 150/5/54
f 149/5/55 136/4/55 139/4/55
f 136/4/55 149/5/55 151/5/55
f 152/5/53 136/4/53 151/5/53
f 136/4/53 152/5/53 135/4/53
f 148/5/25 130/5/25 132/5/25
f 152/5/25 130/5/25 148/5/25
f 151/5/25 130/5/25 152/5/25
f 151/5/25 134/5/25 130/5/25
f 149/5/25 134/5/25 151/5/25
f 134/5/25 149/5/25 146/5/25
f 150/5/25 146/5/25 149/5/25
f 150/5/25 144/5/25 146/5/25
f 147/5/25 144/5/25 150/5/25
f 144/5/25 147/5/25 145/5/25

