# Created by Kenney (www.kenney.nl)

mtllib track-narrow.mtl

g track-narrow

v -0.5 0 -0.5 1 1 1
v -0.5 0 0 1 1 1
v 0.5 0 -0.5 1 1 1
v 0.5 0 0 1 1 1
v -0.5 0 0.5 1 1 1
v 0.5 0 0.5 1 1 1
v -0.5 0.3 -0.5 1 1 1
v -0.5 0.3 0 1 1 1
v -0.5 0.3 0.5 1 1 1
v 0.5 0.3 -0.5 1 1 1
v 0.5 0.3 0 1 1 1
v 0.5 0.3 0.5 1 1 1
v 0.4 0.1 -0.5 1 1 1
v 0.4 0.1 0 1 1 1
v -0.4 0.1 -0.5 1 1 1
v -0.4 0.1 0 1 1 1
v 0.4 0.1 0.5 1 1 1
v -0.4 0.1 0.5 1 1 1
v -0.4 0.3 -0.5 1 1 1
v -0.4 0.3 0 1 1 1
v -0.4 0.3 0.5 1 1 1
v 0.4 0.3 -0.5 1 1 1
v 0.4 0.3 0 1 1 1
v 0.4 0.3 0.5 1 1 1

vn 0 -1 0
vn -1 0 0
vn -0.7071068 0.7071068 0
vn 0.7071068 0.7071068 0
vn 1 0 0
vn 0 1 0

vt 0.46875 0.275
vt 0.46875 0.475
vt 0.46875 0.3416667

usemtl colormap

f 3/1/1 2/1/1 1/1/1
f 2/1/1 3/1/1 4/1/1
f 4/1/1 5/1/1 2/1/1
f 5/1/1 4/1/1 6/1/1
f 2/1/2 7/2/3 1/1/2
f 7/2/3 2/1/2 8/2/3
f 5/1/2 8/2/3 2/1/2
f 8/2/3 5/1/2 9/2/3
f 11/2/4 3/1/5 10/2/4
f 3/1/5 11/2/4 4/1/5
f 12/2/4 4/1/5 11/2/4
f 4/1/5 12/2/4 6/1/5
f 15/3/6 14/3/6 13/3/6
f 14/3/6 15/3/6 16/3/6
f 16/3/6 17/3/6 14/3/6
f 17/3/6 16/3/6 18/3/6
f 7/2/3 20/2/4 19/2/4
f 20/2/4 7/2/3 8/2/3
f 8/2/3 21/2/4 20/2/4
f 21/2/4 8/2/3 9/2/3
f 20/2/4 15/3/5 19/2/4
f 15/3/5 20/2/4 16/3/5
f 21/2/4 16/3/5 20/2/4
f 16/3/5 21/2/4 18/3/5
f 22/2/3 11/2/4 10/2/4
f 11/2/4 22/2/3 23/2/3
f 23/2/3 12/2/4 11/2/4
f 12/2/4 23/2/3 24/2/3
f 14/3/2 22/2/3 13/3/2
f 22/2/3 14/3/2 23/2/3
f 17/3/2 23/2/3 14/3/2
f 23/2/3 17/3/2 24/2/3

g track-narrow




usemtl colormap

f 3/1/1 2/1/1 1/1/1
f 2/1/1 3/1/1 4/1/1
f 4/1/1 5/1/1 2/1/1
f 5/1/1 4/1/1 6/1/1
f 2/1/2 7/2/3 1/1/2
f 7/2/3 2/1/2 8/2/3
f 5/1/2 8/2/3 2/1/2
f 8/2/3 5/1/2 9/2/3
f 11/2/4 3/1/5 10/2/4
f 3/1/5 11/2/4 4/1/5
f 12/2/4 4/1/5 11/2/4
f 4/1/5 12/2/4 6/1/5
f 15/3/6 14/3/6 13/3/6
f 14/3/6 15/3/6 16/3/6
f 16/3/6 17/3/6 14/3/6
f 17/3/6 16/3/6 18/3/6
f 7/2/3 20/2/4 19/2/4
f 20/2/4 7/2/3 8/2/3
f 8/2/3 21/2/4 20/2/4
f 21/2/4 8/2/3 9/2/3
f 20/2/4 15/3/5 19/2/4
f 15/3/5 20/2/4 16/3/5
f 21/2/4 16/3/5 20/2/4
f 16/3/5 21/2/4 18/3/5
f 22/2/3 11/2/4 10/2/4
f 11/2/4 22/2/3 23/2/3
f 23/2/3 12/2/4 11/2/4
f 12/2/4 23/2/3 24/2/3
f 14/3/2 22/2/3 13/3/2
f 22/2/3 14/3/2 23/2/3
f 17/3/2 23/2/3 14/3/2
f 23/2/3 17/3/2 24/2/3

