# Created by Kenney (www.kenney.nl)

mtllib track-striped-narrow-corner-large.mtl

g track-striped-narrow-corner-large

v 0.3589967 0 1.007532 1 1 1
v 0.4632592 0 0.5115917 1 1 1
v -0.6045156 0 0.739867 1 1 1
v -0.5267236 0 0.3704035 1 1 1
v -0.5267236 0.3 0.3704035 1 1 1
v -0.6045156 0.3 0.739867 1 1 1
v 0.3642609 0.1 0.4974729 1 1 1
v 0.3642609 0.3 0.4974729 1 1 1
v 0.2626456 0.1 0.980765 1 1 1
v 0.2626456 0.3 0.980765 1 1 1
v -0.4277253 0.3 0.3845223 1 1 1
v -0.5081642 0.3 0.7666335 1 1 1
v 0.4632592 0.3 0.5115917 1 1 1
v 0.3589967 0.3 1.007532 1 1 1
v -0.4277253 0.1 0.3845223 1 1 1
v -0.5081642 0.1 0.7666335 1 1 1
v 0.5 0 7.271767E-06 1 1 1
v -0.5 0 5.125999E-06 1 1 1
v 0.4 0.1 7.033348E-06 1 1 1
v 0.4 0.3 7.033348E-06 1 1 1
v 0.5 0.3 7.271767E-06 1 1 1
v -0.4000001 0.1 5.364418E-06 1 1 1
v -0.5 0.3 5.125999E-06 1 1 1
v -0.4000001 0.3 5.364418E-06 1 1 1
v -0.01635289 0 1.92969 1 1 1
v 0.1963797 0 1.481417 1 1 1
v -0.8956842 0 1.45348 1 1 1
v -0.7290773 0 1.102565 1 1 1
v -0.7290773 0.3 1.102565 1 1 1
v -0.8956842 0.3 1.45348 1 1 1
v 0.1038342 0.1 1.443532 1 1 1
v 0.1038342 0.3 1.443532 1 1 1
v -0.1042862 0.1 1.882069 1 1 1
v -0.1042862 0.3 1.882069 1 1 1
v -0.6365318 0.3 1.14045 1 1 1
v -0.8077512 0.3 1.501101 1 1 1
v 0.1963797 0.3 1.481417 1 1 1
v -0.01635289 0.3 1.92969 1 1 1
v -0.6365318 0.1 1.14045 1 1 1
v -0.8077512 0.1 1.501101 1 1 1
v -0.5671346 0 2.742117 1 1 1
v -0.272543 0 2.350374 1 1 1
v -1.336931 0 2.103828 1 1 1
v -1.099714 0 1.788424 1 1 1
v -1.099714 0.3 1.788424 1 1 1
v -1.336931 0.3 2.103828 1 1 1
v -0.3552599 0.1 2.294179 1 1 1
v -0.3552599 0.3 2.294179 1 1 1
v -0.6441143 0.1 2.678289 1 1 1
v -0.6441143 0.3 2.678289 1 1 1
v -1.016997 0.3 1.844619 1 1 1
v -1.259952 0.3 2.167657 1 1 1
v -0.272543 0.3 2.350374 1 1 1
v -0.5671346 0.3 2.742117 1 1 1
v -1.016997 0.1 1.844619 1 1 1
v -1.259952 0.1 2.167657 1 1 1
v -1.257883 0 3.432866 1 1 1
v -0.8964472 0 3.103554 1 1 1
v -1.896172 0 2.663069 1 1 1
v -1.603554 0 2.396447 1 1 1
v -1.603554 0.3 2.396447 1 1 1
v -1.896172 0.3 2.663069 1 1 1
v -0.9671578 0.1 3.032843 1 1 1
v -0.9671578 0.3 3.032843 1 1 1
v -1.321712 0.1 3.355886 1 1 1
v -1.321712 0.3 3.355886 1 1 1
v -1.532843 0.3 2.467157 1 1 1
v -1.832343 0.3 2.740049 1 1 1
v -0.8964472 0.3 3.103554 1 1 1
v -1.257883 0.3 3.432866 1 1 1
v -1.532843 0.1 2.467157 1 1 1
v -1.832343 0.1 2.740049 1 1 1
v -2.070311 0 3.983647 1 1 1
v -1.649627 0 3.727458 1 1 1
v -2.546521 0 3.104316 1 1 1
v -2.211576 0 2.900286 1 1 1
v -2.211576 0.3 2.900286 1 1 1
v -2.546521 0.3 3.104316 1 1 1
v -1.705822 0.1 3.64474 1 1 1
v -1.705822 0.3 3.64474 1 1 1
v -2.117932 0.1 3.895714 1 1 1
v -2.117932 0.3 3.895714 1 1 1
v -2.155382 0.3 2.983003 1 1 1
v -2.4989 0.3 3.192249 1 1 1
v -1.649627 0.3 3.727458 1 1 1
v -2.070311 0.3 3.983647 1 1 1
v -2.155382 0.1 2.983003 1 1 1
v -2.4989 0.1 3.192249 1 1 1
v -2.992468 0 4.358996 1 1 1
v -2.518583 0 4.19638 1 1 1
v -3.260133 0 3.395484 1 1 1
v -2.897435 0 3.270922 1 1 1
v -2.897435 0.3 3.270922 1 1 1
v -3.260133 0.3 3.395484 1 1 1
v -2.556468 0.1 4.103834 1 1 1
v -2.556468 0.3 4.103834 1 1 1
v -3.019235 0.1 4.262645 1 1 1
v -3.019235 0.3 4.262645 1 1 1
v -2.85955 0.3 3.363468 1 1 1
v -3.233366 0.3 3.491836 1 1 1
v -2.518583 0.3 4.19638 1 1 1
v -2.992468 0.3 4.358996 1 1 1
v -2.85955 0.1 3.363468 1 1 1
v -3.233366 0.1 3.491836 1 1 1
v -3.999993 0 4.5 1 1 1
v -3.488409 0 4.463259 1 1 1
v -3.999995 0 3.5 1 1 1
v -3.629597 0 3.473277 1 1 1
v -3.629597 0.3 3.473277 1 1 1
v -3.999995 0.3 3.5 1 1 1
v -3.502527 0.1 4.364261 1 1 1
v -3.502527 0.3 4.364261 1 1 1
v -3.999993 0.1 4.4 1 1 1
v -3.999993 0.3 4.4 1 1 1
v -3.615479 0.3 3.572275 1 1 1
v -3.999995 0.3 3.6 1 1 1
v -3.488409 0.3 4.463259 1 1 1
v -3.999993 0.3 4.5 1 1 1
v -3.615479 0.1 3.572275 1 1 1
v -3.999995 0.1 3.6 1 1 1
v -0.4 0.3 0 1 1 1
v -0.5 0.3 0 1 1 1
v -0.4 0.1 0 1 1 1
v -0.5 0 0 1 1 1
v 0.5 0 0 1 1 1
v 0.4 0.1 0 1 1 1
v 0.5 0.3 0 1 1 1
v 0.4 0.3 0 1 1 1
v -0.1207107 0 -0.1707107 1 1 1
v -0.1207107 0.05000001 -0.1707107 1 1 1
v -0.15 0 -0.1 1 1 1
v -0.15 0.05000001 -0.1 1 1 1
v -0.05 0 -0.2 1 1 1
v -0.05 0.05000001 -0.2 1 1 1
v -0.05 0 7.219114E-16 1 1 1
v -0.05 0 -0.1 1 1 1
v -0.15 0 1.082867E-15 1 1 1
v 0.05 0 -0.2 1 1 1
v 0.05 0 -0.1 1 1 1
v 0.05 0 3.609557E-16 1 1 1
v 0.1207107 0 -0.1707107 1 1 1
v 0.15 0 -0.1 1 1 1
v 0.15 0 0 1 1 1
v 0.1207107 0.05000001 -0.1707107 1 1 1
v 0.15 0.05000001 -0.1 1 1 1
v 0.05 0.05000001 -0.2 1 1 1
v 0.15 0.05000001 0 1 1 1
v -0.15 0.05000001 1.082867E-15 1 1 1
v 0.05 0.05000001 -0.1 1 1 1
v 0.05 0.05000001 3.609557E-16 1 1 1
v -0.05 0.05000001 -0.1 1 1 1
v -0.05 0.05000001 7.219114E-16 1 1 1
v -4 0.3 4.4 1 1 1
v -4 0.3 4.5 1 1 1
v -4 0.1 4.4 1 1 1
v -4 0 4.5 1 1 1
v -4 0 3.5 1 1 1
v -4 0.1 3.6 1 1 1
v -4 0.3 3.5 1 1 1
v -4 0.3 3.6 1 1 1
v -4.170711 0 4.120711 1 1 1
v -4.170711 0.05000001 4.120711 1 1 1
v -4.1 0 4.15 1 1 1
v -4.1 0.05000001 4.15 1 1 1
v -4.2 0 4.05 1 1 1
v -4.2 0.05000001 4.05 1 1 1
v -4 0 4.05 1 1 1
v -4.1 0 4.05 1 1 1
v -4 0 4.15 1 1 1
v -4.2 0 3.95 1 1 1
v -4.1 0 3.95 1 1 1
v -4 0 3.95 1 1 1
v -4.170711 0 3.879289 1 1 1
v -4.1 0 3.85 1 1 1
v -4 0 3.85 1 1 1
v -4.170711 0.05000001 3.879289 1 1 1
v -4.1 0.05000001 3.85 1 1 1
v -4.2 0.05000001 3.95 1 1 1
v -4 0.05000001 3.85 1 1 1
v -4 0.05000001 4.15 1 1 1
v -4.1 0.05000001 3.95 1 1 1
v -4 0.05000001 3.95 1 1 1
v -4.1 0.05000001 4.05 1 1 1
v -4 0.05000001 4.05 1 1 1

vn 0 -1 0
vn -0.9899828 0 -0.1411882
vn -0.7000235 0.7071068 -0.09983514
vn -0.9635122 0 -0.2676645
vn -0.681306 0.7071068 -0.1892674
vn 0.7000235 0.7071068 0.09983514
vn 0.681306 0.7071068 0.1892674
vn 0.9899828 0 0.1411882
vn 0.9635122 0 0.2676645
vn 0 1 0
vn -1 0 -2.06452E-06
vn -0.7071068 0.7071068 -1.459836E-06
vn 0.7071068 0.7071068 1.459836E-06
vn 1 0 2.06452E-06
vn -0.9254572 0 -0.378852
vn -0.6543971 0.7071068 -0.2678888
vn -0.8793313 0 -0.4762105
vn -0.6217811 0.7071068 -0.3367316
vn 0.6543971 0.7071068 0.2678888
vn 0.6217811 0.7071068 0.3367316
vn 0.9254572 0 0.378852
vn 0.8793313 0 0.4762105
vn -0.827171 0 -0.5619503
vn -0.5848982 0.7071068 -0.3973588
vn -0.7697966 0 -0.6382892
vn -0.5443284 0.7071068 -0.4513386
vn 0.5848982 0.7071068 0.3973588
vn 0.5443284 0.7071068 0.4513386
vn 0.827171 0 0.5619503
vn 0.7697966 0 0.6382892
vn -0.7071066 0 -0.7071069
vn -0.4999999 0.7071068 -0.5000001
vn -0.638289 0 -0.7697967
vn -0.4513385 0.7071068 -0.5443285
vn 0.4999999 0.7071068 0.5000001
vn 0.4513385 0.7071068 0.5443285
vn 0.7071066 0 0.7071069
vn 0.638289 0 0.7697967
vn -0.56195 0 -0.8271713
vn -0.3973587 0.7071068 -0.5848984
vn -0.4762104 0 -0.8793314
vn -0.3367316 0.7071068 -0.6217812
vn 0.3973587 0.7071068 0.5848984
vn 0.3367316 0.7071068 0.6217812
vn 0.56195 0 0.8271713
vn 0.4762104 0 0.8793314
vn -0.378852 0 -0.9254573
vn -0.2678888 0.7071068 -0.6543971
vn -0.2676646 0 -0.9635121
vn -0.1892675 0.7071068 -0.6813059
vn 0.2678888 0.7071068 0.6543971
vn 0.1892675 0.7071068 0.6813059
vn 0.378852 0 0.9254573
vn 0.2676646 0 0.9635121
vn -0.1411883 0 -0.9899828
vn -0.09983522 0.7071068 -0.7000235
vn -2.205372E-06 0 -0.9999999
vn -1.549721E-06 0.7071068 -0.7071067
vn 0.09983522 0.7071068 0.7000235
vn 1.549721E-06 0.7071068 0.7071067
vn 0.1411883 0 0.9899828
vn 2.205372E-06 0 0.9999999
vn 0 0 -1
vn -0.7071068 0 -0.7071068
vn -0.9807853 0 -0.1950903
vn -0.1950903 0 -0.9807853
vn 0.7071068 0 -0.7071068
vn 0.9807853 0 -0.1950903
vn 0.1950903 0 -0.9807853
vn 1 0 0
vn -1 0 0
vn 0 0 1
vn -0.9999999 0 3.576279E-07
vn -0.7071065 0 0.7071069
vn -0.19509 0 0.9807853
vn -0.9807851 0 0.1950907
vn -0.7071069 0 -0.7071065
vn -0.1950907 0 -0.9807851
vn -0.9807853 0 -0.19509
vn -3.576279E-07 0 -0.9999999
vn 3.576279E-07 0 0.9999999
vn 0.9999999 0 -3.576279E-07

vt 0.59375 0.275
vt 0.59375 0.475
vt 0.59375 0.3416667
vt 0.59375 0.025
vt 0.59375 0.09166666
vt 0.59375 0.225
vt 0.34375 0.025
vt 0.34375 0.225

usemtl colormap

f 3/1/1 2/1/1 1/1/1
f 2/1/1 3/1/1 4/1/1
f 3/1/4 5/2/3 4/1/2
f 5/2/3 3/1/4 6/2/5
f 9/3/4 8/2/3 7/3/2
f 8/2/3 9/3/4 10/2/5
f 5/2/3 12/2/7 11/2/6
f 12/2/7 5/2/3 6/2/5
f 8/2/3 14/2/7 13/2/6
f 14/2/7 8/2/3 10/2/5
f 12/2/7 15/3/8 11/2/6
f 15/3/8 12/2/7 16/3/9
f 14/2/7 2/1/8 13/2/6
f 2/1/8 14/2/7 1/1/9
f 15/3/10 9/3/10 7/3/10
f 9/3/10 15/3/10 16/3/10
f 4/4/1 17/4/1 2/4/1
f 17/4/1 4/4/1 18/4/1
f 7/5/2 20/6/12 19/5/11
f 20/6/12 7/5/2 8/6/3
f 13/6/6 20/6/12 8/6/3
f 20/6/12 13/6/6 21/6/13
f 13/6/6 17/4/14 21/6/13
f 17/4/14 13/6/6 2/4/8
f 22/5/10 7/5/10 19/5/10
f 7/5/10 22/5/10 15/5/10
f 4/4/2 23/6/12 18/4/11
f 23/6/12 4/4/2 5/6/3
f 11/6/6 23/6/12 5/6/3
f 23/6/12 11/6/6 24/6/13
f 11/6/6 22/5/14 24/6/13
f 22/5/14 11/6/6 15/5/8
f 27/1/1 26/1/1 25/1/1
f 26/1/1 27/1/1 28/1/1
f 27/1/17 29/2/16 28/1/15
f 29/2/16 27/1/17 30/2/18
f 33/3/17 32/2/16 31/3/15
f 32/2/16 33/3/17 34/2/18
f 29/2/16 36/2/20 35/2/19
f 36/2/20 29/2/16 30/2/18
f 32/2/16 38/2/20 37/2/19
f 38/2/20 32/2/16 34/2/18
f 36/2/20 39/3/21 35/2/19
f 39/3/21 36/2/20 40/3/22
f 38/2/20 26/1/21 37/2/19
f 26/1/21 38/2/20 25/1/22
f 39/3/10 33/3/10 31/3/10
f 33/3/10 39/3/10 40/3/10
f 28/4/1 1/4/1 26/4/1
f 1/4/1 28/4/1 3/4/1
f 31/5/15 10/6/5 9/5/4
f 10/6/5 31/5/15 32/6/16
f 37/6/19 10/6/5 32/6/16
f 10/6/5 37/6/19 14/6/7
f 37/6/19 1/4/9 14/6/7
f 1/4/9 37/6/19 26/4/21
f 16/5/10 31/5/10 9/5/10
f 31/5/10 16/5/10 39/5/10
f 28/4/15 6/6/5 3/4/4
f 6/6/5 28/4/15 29/6/16
f 35/6/19 6/6/5 29/6/16
f 6/6/5 35/6/19 12/6/7
f 35/6/19 16/5/9 12/6/7
f 16/5/9 35/6/19 39/5/21
f 43/1/1 42/1/1 41/1/1
f 42/1/1 43/1/1 44/1/1
f 43/1/25 45/2/24 44/1/23
f 45/2/24 43/1/25 46/2/26
f 49/3/25 48/2/24 47/3/23
f 48/2/24 49/3/25 50/2/26
f 45/2/24 52/2/28 51/2/27
f 52/2/28 45/2/24 46/2/26
f 48/2/24 54/2/28 53/2/27
f 54/2/28 48/2/24 50/2/26
f 52/2/28 55/3/29 51/2/27
f 55/3/29 52/2/28 56/3/30
f 54/2/28 42/1/29 53/2/27
f 42/1/29 54/2/28 41/1/30
f 55/3/10 49/3/10 47/3/10
f 49/3/10 55/3/10 56/3/10
f 44/4/1 25/4/1 42/4/1
f 25/4/1 44/4/1 27/4/1
f 47/5/23 34/6/18 33/5/17
f 34/6/18 47/5/23 48/6/24
f 53/6/27 34/6/18 48/6/24
f 34/6/18 53/6/27 38/6/20
f 53/6/27 25/4/22 38/6/20
f 25/4/22 53/6/27 42/4/29
f 40/5/10 47/5/10 33/5/10
f 47/5/10 40/5/10 55/5/10
f 44/4/23 30/6/18 27/4/17
f 30/6/18 44/4/23 45/6/24
f 51/6/27 30/6/18 45/6/24
f 30/6/18 51/6/27 36/6/20
f 51/6/27 40/5/22 36/6/20
f 40/5/22 51/6/27 55/5/29
f 59/1/1 58/1/1 57/1/1
f 58/1/1 59/1/1 60/1/1
f 59/1/33 61/2/32 60/1/31
f 61/2/32 59/1/33 62/2/34
f 65/3/33 64/2/32 63/3/31
f 64/2/32 65/3/33 66/2/34
f 61/2/32 68/2/36 67/2/35
f 68/2/36 61/2/32 62/2/34
f 64/2/32 70/2/36 69/2/35
f 70/2/36 64/2/32 66/2/34
f 68/2/36 71/3/37 67/2/35
f 71/3/37 68/2/36 72/3/38
f 70/2/36 58/1/37 69/2/35
f 58/1/37 70/2/36 57/1/38
f 71/3/10 65/3/10 63/3/10
f 65/3/10 71/3/10 72/3/10
f 60/4/1 41/4/1 58/4/1
f 41/4/1 60/4/1 43/4/1
f 63/5/31 50/6/26 49/5/25
f 50/6/26 63/5/31 64/6/32
f 69/6/35 50/6/26 64/6/32
f 50/6/26 69/6/35 54/6/28
f 69/6/35 41/4/30 54/6/28
f 41/4/30 69/6/35 58/4/37
f 56/5/10 63/5/10 49/5/10
f 63/5/10 56/5/10 71/5/10
f 60/4/31 46/6/26 43/4/25
f 46/6/26 60/4/31 61/6/32
f 67/6/35 46/6/26 61/6/32
f 46/6/26 67/6/35 52/6/28
f 67/6/35 56/5/30 52/6/28
f 56/5/30 67/6/35 71/5/37
f 75/1/1 74/1/1 73/1/1
f 74/1/1 75/1/1 76/1/1
f 75/1/41 77/2/40 76/1/39
f 77/2/40 75/1/41 78/2/42
f 81/3/41 80/2/40 79/3/39
f 80/2/40 81/3/41 82/2/42
f 77/2/40 84/2/44 83/2/43
f 84/2/44 77/2/40 78/2/42
f 80/2/40 86/2/44 85/2/43
f 86/2/44 80/2/40 82/2/42
f 84/2/44 87/3/45 83/2/43
f 87/3/45 84/2/44 88/3/46
f 86/2/44 74/1/45 85/2/43
f 74/1/45 86/2/44 73/1/46
f 87/3/10 81/3/10 79/3/10
f 81/3/10 87/3/10 88/3/10
f 76/4/1 57/4/1 74/4/1
f 57/4/1 76/4/1 59/4/1
f 79/5/39 66/6/34 65/5/33
f 66/6/34 79/5/39 80/6/40
f 85/6/43 66/6/34 80/6/40
f 66/6/34 85/6/43 70/6/36
f 85/6/43 57/4/38 70/6/36
f 57/4/38 85/6/43 74/4/45
f 72/5/10 79/5/10 65/5/10
f 79/5/10 72/5/10 87/5/10
f 76/4/39 62/6/34 59/4/33
f 62/6/34 76/4/39 77/6/40
f 83/6/43 62/6/34 77/6/40
f 62/6/34 83/6/43 68/6/36
f 83/6/43 72/5/38 68/6/36
f 72/5/38 83/6/43 87/5/45
f 91/1/1 90/1/1 89/1/1
f 90/1/1 91/1/1 92/1/1
f 91/1/49 93/2/48 92/1/47
f 93/2/48 91/1/49 94/2/50
f 97/3/49 96/2/48 95/3/47
f 96/2/48 97/3/49 98/2/50
f 93/2/48 100/2/52 99/2/51
f 100/2/52 93/2/48 94/2/50
f 96/2/48 102/2/52 101/2/51
f 102/2/52 96/2/48 98/2/50
f 100/2/52 103/3/53 99/2/51
f 103/3/53 100/2/52 104/3/54
f 102/2/52 90/1/53 101/2/51
f 90/1/53 102/2/52 89/1/54
f 103/3/10 97/3/10 95/3/10
f 97/3/10 103/3/10 104/3/10
f 92/4/1 73/4/1 90/4/1
f 73/4/1 92/4/1 75/4/1
f 95/5/47 82/6/42 81/5/41
f 82/6/42 95/5/47 96/6/48
f 101/6/51 82/6/42 96/6/48
f 82/6/42 101/6/51 86/6/44
f 101/6/51 73/4/46 86/6/44
f 73/4/46 101/6/51 90/4/53
f 88/5/10 95/5/10 81/5/10
f 95/5/10 88/5/10 103/5/10
f 92/4/47 78/6/42 75/4/41
f 78/6/42 92/4/47 93/6/48
f 99/6/51 78/6/42 93/6/48
f 78/6/42 99/6/51 84/6/44
f 99/6/51 88/5/46 84/6/44
f 88/5/46 99/6/51 103/5/53
f 107/1/1 106/1/1 105/1/1
f 106/1/1 107/1/1 108/1/1
f 107/1/57 109/2/56 108/1/55
f 109/2/56 107/1/57 110/2/58
f 113/3/57 112/2/56 111/3/55
f 112/2/56 113/3/57 114/2/58
f 109/2/56 116/2/60 115/2/59
f 116/2/60 109/2/56 110/2/58
f 112/2/56 118/2/60 117/2/59
f 118/2/60 112/2/56 114/2/58
f 116/2/60 119/3/61 115/2/59
f 119/3/61 116/2/60 120/3/62
f 118/2/60 106/1/61 117/2/59
f 106/1/61 118/2/60 105/1/62
f 119/3/10 113/3/10 111/3/10
f 113/3/10 119/3/10 120/3/10
f 108/4/1 89/4/1 106/4/1
f 89/4/1 108/4/1 91/4/1
f 111/5/55 98/6/50 97/5/49
f 98/6/50 111/5/55 112/6/56
f 117/6/59 98/6/50 112/6/56
f 98/6/50 117/6/59 102/6/52
f 117/6/59 89/4/54 102/6/52
f 89/4/54 117/6/59 106/4/61
f 104/5/10 111/5/10 97/5/10
f 111/5/10 104/5/10 119/5/10
f 108/4/55 94/6/50 91/4/49
f 94/6/50 108/4/55 109/6/56
f 115/6/59 94/6/50 109/6/56
f 94/6/50 115/6/59 100/6/52
f 115/6/59 104/5/54 100/6/52
f 104/5/54 115/6/59 119/5/61
f 123/5/63 122/6/63 121/6/63
f 123/5/63 124/4/63 122/6/63
f 124/4/63 123/5/63 125/4/63
f 126/5/63 125/4/63 123/5/63
f 125/4/63 126/5/63 127/6/63
f 127/6/63 126/5/63 128/6/63
f 131/7/65 130/8/64 129/7/64
f 130/8/64 131/7/65 132/8/65
f 130/8/64 133/7/66 129/7/64
f 133/7/66 130/8/64 134/8/66
f 137/7/1 136/7/1 135/7/1
f 136/7/1 137/7/1 133/7/1
f 133/7/1 137/7/1 129/7/1
f 129/7/1 137/7/1 131/7/1
f 138/7/1 136/7/1 133/7/1
f 138/7/1 139/7/1 136/7/1
f 138/7/1 140/7/1 139/7/1
f 141/7/1 140/7/1 138/7/1
f 142/7/1 140/7/1 141/7/1
f 140/7/1 142/7/1 143/7/1
f 145/8/68 141/7/67 144/8/67
f 141/7/67 145/8/68 142/7/68
f 146/8/69 141/7/67 138/7/69
f 141/7/67 146/8/69 144/8/67
f 147/8/70 142/7/68 145/8/68
f 142/7/68 147/8/70 143/7/70
f 137/7/71 132/8/65 131/7/65
f 132/8/65 137/7/71 148/8/71
f 134/8/66 138/7/69 133/7/66
f 138/7/69 134/8/66 146/8/69
f 140/7/71 149/8/71 139/7/71
f 149/8/71 140/7/71 150/8/71
f 149/8/72 136/7/72 139/7/72
f 136/7/72 149/8/72 151/8/72
f 152/8/70 136/7/70 151/8/70
f 136/7/70 152/8/70 135/7/70
f 148/8/10 130/8/10 132/8/10
f 152/8/10 130/8/10 148/8/10
f 151/8/10 130/8/10 152/8/10
f 151/8/10 134/8/10 130/8/10
f 149/8/10 134/8/10 151/8/10
f 134/8/10 149/8/10 146/8/10
f 150/8/10 146/8/10 149/8/10
f 150/8/10 144/8/10 146/8/10
f 147/8/10 144/8/10 150/8/10
f 144/8/10 147/8/10 145/8/10
f 155/3/73 154/2/73 153/2/73
f 155/3/73 156/1/73 154/2/73
f 156/1/73 155/3/73 157/1/73
f 158/3/73 157/1/73 155/3/73
f 157/1/73 158/3/73 159/2/73
f 159/2/73 158/3/73 160/2/73
f 163/7/75 162/8/74 161/7/74
f 162/8/74 163/7/75 164/8/75
f 162/8/74 165/7/76 161/7/74
f 165/7/76 162/8/74 166/8/76
f 169/7/1 168/7/1 167/7/1
f 168/7/1 169/7/1 165/7/1
f 165/7/1 169/7/1 161/7/1
f 161/7/1 169/7/1 163/7/1
f 170/7/1 168/7/1 165/7/1
f 170/7/1 171/7/1 168/7/1
f 170/7/1 172/7/1 171/7/1
f 173/7/1 172/7/1 170/7/1
f 174/7/1 172/7/1 173/7/1
f 172/7/1 174/7/1 175/7/1
f 177/8/78 173/7/77 176/8/77
f 173/7/77 177/8/78 174/7/78
f 178/8/79 173/7/77 170/7/79
f 173/7/77 178/8/79 176/8/77
f 179/8/80 174/7/78 177/8/78
f 174/7/78 179/8/80 175/7/80
f 169/7/81 164/8/75 163/7/75
f 164/8/75 169/7/81 180/8/81
f 166/8/76 170/7/79 165/7/76
f 170/7/79 166/8/76 178/8/79
f 172/7/81 181/8/81 171/7/81
f 181/8/81 172/7/81 182/8/81
f 181/8/82 168/7/82 171/7/82
f 168/7/82 181/8/82 183/8/82
f 184/8/80 168/7/80 183/8/80
f 168/7/80 184/8/80 167/7/80
f 180/8/10 162/8/10 164/8/10
f 184/8/10 162/8/10 180/8/10
f 183/8/10 162/8/10 184/8/10
f 183/8/10 166/8/10 162/8/10
f 181/8/10 166/8/10 183/8/10
f 166/8/10 181/8/10 178/8/10
f 182/8/10 178/8/10 181/8/10
f 182/8/10 176/8/10 178/8/10
f 179/8/10 176/8/10 182/8/10
f 176/8/10 179/8/10 177/8/10

g track-striped-narrow-corner-large




usemtl colormap

f 3/1/1 2/1/1 1/1/1
f 2/1/1 3/1/1 4/1/1
f 3/1/4 5/2/3 4/1/2
f 5/2/3 3/1/4 6/2/5
f 9/3/4 8/2/3 7/3/2
f 8/2/3 9/3/4 10/2/5
f 5/2/3 12/2/7 11/2/6
f 12/2/7 5/2/3 6/2/5
f 8/2/3 14/2/7 13/2/6
f 14/2/7 8/2/3 10/2/5
f 12/2/7 15/3/8 11/2/6
f 15/3/8 12/2/7 16/3/9
f 14/2/7 2/1/8 13/2/6
f 2/1/8 14/2/7 1/1/9
f 15/3/10 9/3/10 7/3/10
f 9/3/10 15/3/10 16/3/10
f 4/4/1 17/4/1 2/4/1
f 17/4/1 4/4/1 18/4/1
f 7/5/2 20/6/12 19/5/11
f 20/6/12 7/5/2 8/6/3
f 13/6/6 20/6/12 8/6/3
f 20/6/12 13/6/6 21/6/13
f 13/6/6 17/4/14 21/6/13
f 17/4/14 13/6/6 2/4/8
f 22/5/10 7/5/10 19/5/10
f 7/5/10 22/5/10 15/5/10
f 4/4/2 23/6/12 18/4/11
f 23/6/12 4/4/2 5/6/3
f 11/6/6 23/6/12 5/6/3
f 23/6/12 11/6/6 24/6/13
f 11/6/6 22/5/14 24/6/13
f 22/5/14 11/6/6 15/5/8
f 27/1/1 26/1/1 25/1/1
f 26/1/1 27/1/1 28/1/1
f 27/1/17 29/2/16 28/1/15
f 29/2/16 27/1/17 30/2/18
f 33/3/17 32/2/16 31/3/15
f 32/2/16 33/3/17 34/2/18
f 29/2/16 36/2/20 35/2/19
f 36/2/20 29/2/16 30/2/18
f 32/2/16 38/2/20 37/2/19
f 38/2/20 32/2/16 34/2/18
f 36/2/20 39/3/21 35/2/19
f 39/3/21 36/2/20 40/3/22
f 38/2/20 26/1/21 37/2/19
f 26/1/21 38/2/20 25/1/22
f 39/3/10 33/3/10 31/3/10
f 33/3/10 39/3/10 40/3/10
f 28/4/1 1/4/1 26/4/1
f 1/4/1 28/4/1 3/4/1
f 31/5/15 10/6/5 9/5/4
f 10/6/5 31/5/15 32/6/16
f 37/6/19 10/6/5 32/6/16
f 10/6/5 37/6/19 14/6/7
f 37/6/19 1/4/9 14/6/7
f 1/4/9 37/6/19 26/4/21
f 16/5/10 31/5/10 9/5/10
f 31/5/10 16/5/10 39/5/10
f 28/4/15 6/6/5 3/4/4
f 6/6/5 28/4/15 29/6/16
f 35/6/19 6/6/5 29/6/16
f 6/6/5 35/6/19 12/6/7
f 35/6/19 16/5/9 12/6/7
f 16/5/9 35/6/19 39/5/21
f 43/1/1 42/1/1 41/1/1
f 42/1/1 43/1/1 44/1/1
f 43/1/25 45/2/24 44/1/23
f 45/2/24 43/1/25 46/2/26
f 49/3/25 48/2/24 47/3/23
f 48/2/24 49/3/25 50/2/26
f 45/2/24 52/2/28 51/2/27
f 52/2/28 45/2/24 46/2/26
f 48/2/24 54/2/28 53/2/27
f 54/2/28 48/2/24 50/2/26
f 52/2/28 55/3/29 51/2/27
f 55/3/29 52/2/28 56/3/30
f 54/2/28 42/1/29 53/2/27
f 42/1/29 54/2/28 41/1/30
f 55/3/10 49/3/10 47/3/10
f 49/3/10 55/3/10 56/3/10
f 44/4/1 25/4/1 42/4/1
f 25/4/1 44/4/1 27/4/1
f 47/5/23 34/6/18 33/5/17
f 34/6/18 47/5/23 48/6/24
f 53/6/27 34/6/18 48/6/24
f 34/6/18 53/6/27 38/6/20
f 53/6/27 25/4/22 38/6/20
f 25/4/22 53/6/27 42/4/29
f 40/5/10 47/5/10 33/5/10
f 47/5/10 40/5/10 55/5/10
f 44/4/23 30/6/18 27/4/17
f 30/6/18 44/4/23 45/6/24
f 51/6/27 30/6/18 45/6/24
f 30/6/18 51/6/27 36/6/20
f 51/6/27 40/5/22 36/6/20
f 40/5/22 51/6/27 55/5/29
f 59/1/1 58/1/1 57/1/1
f 58/1/1 59/1/1 60/1/1
f 59/1/33 61/2/32 60/1/31
f 61/2/32 59/1/33 62/2/34
f 65/3/33 64/2/32 63/3/31
f 64/2/32 65/3/33 66/2/34
f 61/2/32 68/2/36 67/2/35
f 68/2/36 61/2/32 62/2/34
f 64/2/32 70/2/36 69/2/35
f 70/2/36 64/2/32 66/2/34
f 68/2/36 71/3/37 67/2/35
f 71/3/37 68/2/36 72/3/38
f 70/2/36 58/1/37 69/2/35
f 58/1/37 70/2/36 57/1/38
f 71/3/10 65/3/10 63/3/10
f 65/3/10 71/3/10 72/3/10
f 60/4/1 41/4/1 58/4/1
f 41/4/1 60/4/1 43/4/1
f 63/5/31 50/6/26 49/5/25
f 50/6/26 63/5/31 64/6/32
f 69/6/35 50/6/26 64/6/32
f 50/6/26 69/6/35 54/6/28
f 69/6/35 41/4/30 54/6/28
f 41/4/30 69/6/35 58/4/37
f 56/5/10 63/5/10 49/5/10
f 63/5/10 56/5/10 71/5/10
f 60/4/31 46/6/26 43/4/25
f 46/6/26 60/4/31 61/6/32
f 67/6/35 46/6/26 61/6/32
f 46/6/26 67/6/35 52/6/28
f 67/6/35 56/5/30 52/6/28
f 56/5/30 67/6/35 71/5/37
f 75/1/1 74/1/1 73/1/1
f 74/1/1 75/1/1 76/1/1
f 75/1/41 77/2/40 76/1/39
f 77/2/40 75/1/41 78/2/42
f 81/3/41 80/2/40 79/3/39
f 80/2/40 81/3/41 82/2/42
f 77/2/40 84/2/44 83/2/43
f 84/2/44 77/2/40 78/2/42
f 80/2/40 86/2/44 85/2/43
f 86/2/44 80/2/40 82/2/42
f 84/2/44 87/3/45 83/2/43
f 87/3/45 84/2/44 88/3/46
f 86/2/44 74/1/45 85/2/43
f 74/1/45 86/2/44 73/1/46
f 87/3/10 81/3/10 79/3/10
f 81/3/10 87/3/10 88/3/10
f 76/4/1 57/4/1 74/4/1
f 57/4/1 76/4/1 59/4/1
f 79/5/39 66/6/34 65/5/33
f 66/6/34 79/5/39 80/6/40
f 85/6/43 66/6/34 80/6/40
f 66/6/34 85/6/43 70/6/36
f 85/6/43 57/4/38 70/6/36
f 57/4/38 85/6/43 74/4/45
f 72/5/10 79/5/10 65/5/10
f 79/5/10 72/5/10 87/5/10
f 76/4/39 62/6/34 59/4/33
f 62/6/34 76/4/39 77/6/40
f 83/6/43 62/6/34 77/6/40
f 62/6/34 83/6/43 68/6/36
f 83/6/43 72/5/38 68/6/36
f 72/5/38 83/6/43 87/5/45
f 91/1/1 90/1/1 89/1/1
f 90/1/1 91/1/1 92/1/1
f 91/1/49 93/2/48 92/1/47
f 93/2/48 91/1/49 94/2/50
f 97/3/49 96/2/48 95/3/47
f 96/2/48 97/3/49 98/2/50
f 93/2/48 100/2/52 99/2/51
f 100/2/52 93/2/48 94/2/50
f 96/2/48 102/2/52 101/2/51
f 102/2/52 96/2/48 98/2/50
f 100/2/52 103/3/53 99/2/51
f 103/3/53 100/2/52 104/3/54
f 102/2/52 90/1/53 101/2/51
f 90/1/53 102/2/52 89/1/54
f 103/3/10 97/3/10 95/3/10
f 97/3/10 103/3/10 104/3/10
f 92/4/1 73/4/1 90/4/1
f 73/4/1 92/4/1 75/4/1
f 95/5/47 82/6/42 81/5/41
f 82/6/42 95/5/47 96/6/48
f 101/6/51 82/6/42 96/6/48
f 82/6/42 101/6/51 86/6/44
f 101/6/51 73/4/46 86/6/44
f 73/4/46 101/6/51 90/4/53
f 88/5/10 95/5/10 81/5/10
f 95/5/10 88/5/10 103/5/10
f 92/4/47 78/6/42 75/4/41
f 78/6/42 92/4/47 93/6/48
f 99/6/51 78/6/42 93/6/48
f 78/6/42 99/6/51 84/6/44
f 99/6/51 88/5/46 84/6/44
f 88/5/46 99/6/51 103/5/53
f 107/1/1 106/1/1 105/1/1
f 106/1/1 107/1/1 108/1/1
f 107/1/57 109/2/56 108/1/55
f 109/2/56 107/1/57 110/2/58
f 113/3/57 112/2/56 111/3/55
f 112/2/56 113/3/57 114/2/58
f 109/2/56 116/2/60 115/2/59
f 116/2/60 109/2/56 110/2/58
f 112/2/56 118/2/60 117/2/59
f 118/2/60 112/2/56 114/2/58
f 116/2/60 119/3/61 115/2/59
f 119/3/61 116/2/60 120/3/62
f 118/2/60 106/1/61 117/2/59
f 106/1/61 118/2/60 105/1/62
f 119/3/10 113/3/10 111/3/10
f 113/3/10 119/3/10 120/3/10
f 108/4/1 89/4/1 106/4/1
f 89/4/1 108/4/1 91/4/1
f 111/5/55 98/6/50 97/5/49
f 98/6/50 111/5/55 112/6/56
f 117/6/59 98/6/50 112/6/56
f 98/6/50 117/6/59 102/6/52
f 117/6/59 89/4/54 102/6/52
f 89/4/54 117/6/59 106/4/61
f 104/5/10 111/5/10 97/5/10
f 111/5/10 104/5/10 119/5/10
f 108/4/55 94/6/50 91/4/49
f 94/6/50 108/4/55 109/6/56
f 115/6/59 94/6/50 109/6/56
f 94/6/50 115/6/59 100/6/52
f 115/6/59 104/5/54 100/6/52
f 104/5/54 115/6/59 119/5/61
f 123/5/63 122/6/63 121/6/63
f 123/5/63 124/4/63 122/6/63
f 124/4/63 123/5/63 125/4/63
f 126/5/63 125/4/63 123/5/63
f 125/4/63 126/5/63 127/6/63
f 127/6/63 126/5/63 128/6/63
f 131/7/65 130/8/64 129/7/64
f 130/8/64 131/7/65 132/8/65
f 130/8/64 133/7/66 129/7/64
f 133/7/66 130/8/64 134/8/66
f 137/7/1 136/7/1 135/7/1
f 136/7/1 137/7/1 133/7/1
f 133/7/1 137/7/1 129/7/1
f 129/7/1 137/7/1 131/7/1
f 138/7/1 136/7/1 133/7/1
f 138/7/1 139/7/1 136/7/1
f 138/7/1 140/7/1 139/7/1
f 141/7/1 140/7/1 138/7/1
f 142/7/1 140/7/1 141/7/1
f 140/7/1 142/7/1 143/7/1
f 145/8/68 141/7/67 144/8/67
f 141/7/67 145/8/68 142/7/68
f 146/8/69 141/7/67 138/7/69
f 141/7/67 146/8/69 144/8/67
f 147/8/70 142/7/68 145/8/68
f 142/7/68 147/8/70 143/7/70
f 137/7/71 132/8/65 131/7/65
f 132/8/65 137/7/71 148/8/71
f 134/8/66 138/7/69 133/7/66
f 138/7/69 134/8/66 146/8/69
f 140/7/71 149/8/71 139/7/71
f 149/8/71 140/7/71 150/8/71
f 149/8/72 136/7/72 139/7/72
f 136/7/72 149/8/72 151/8/72
f 152/8/70 136/7/70 151/8/70
f 136/7/70 152/8/70 135/7/70
f 148/8/10 130/8/10 132/8/10
f 152/8/10 130/8/10 148/8/10
f 151/8/10 130/8/10 152/8/10
f 151/8/10 134/8/10 130/8/10
f 149/8/10 134/8/10 151/8/10
f 134/8/10 149/8/10 146/8/10
f 150/8/10 146/8/10 149/8/10
f 150/8/10 144/8/10 146/8/10
f 147/8/10 144/8/10 150/8/10
f 144/8/10 147/8/10 145/8/10
f 155/3/73 154/2/73 153/2/73
f 155/3/73 156/1/73 154/2/73
f 156/1/73 155/3/73 157/1/73
f 158/3/73 157/1/73 155/3/73
f 157/1/73 158/3/73 159/2/73
f 159/2/73 158/3/73 160/2/73
f 163/7/75 162/8/74 161/7/74
f 162/8/74 163/7/75 164/8/75
f 162/8/74 165/7/76 161/7/74
f 165/7/76 162/8/74 166/8/76
f 169/7/1 168/7/1 167/7/1
f 168/7/1 169/7/1 165/7/1
f 165/7/1 169/7/1 161/7/1
f 161/7/1 169/7/1 163/7/1
f 170/7/1 168/7/1 165/7/1
f 170/7/1 171/7/1 168/7/1
f 170/7/1 172/7/1 171/7/1
f 173/7/1 172/7/1 170/7/1
f 174/7/1 172/7/1 173/7/1
f 172/7/1 174/7/1 175/7/1
f 177/8/78 173/7/77 176/8/77
f 173/7/77 177/8/78 174/7/78
f 178/8/79 173/7/77 170/7/79
f 173/7/77 178/8/79 176/8/77
f 179/8/80 174/7/78 177/8/78
f 174/7/78 179/8/80 175/7/80
f 169/7/81 164/8/75 163/7/75
f 164/8/75 169/7/81 180/8/81
f 166/8/76 170/7/79 165/7/76
f 170/7/79 166/8/76 178/8/79
f 172/7/81 181/8/81 171/7/81
f 181/8/81 172/7/81 182/8/81
f 181/8/82 168/7/82 171/7/82
f 168/7/82 181/8/82 183/8/82
f 184/8/80 168/7/80 183/8/80
f 168/7/80 184/8/80 167/7/80
f 180/8/10 162/8/10 164/8/10
f 184/8/10 162/8/10 180/8/10
f 183/8/10 162/8/10 184/8/10
f 183/8/10 166/8/10 162/8/10
f 181/8/10 166/8/10 183/8/10
f 166/8/10 181/8/10 178/8/10
f 182/8/10 178/8/10 181/8/10
f 182/8/10 176/8/10 178/8/10
f 179/8/10 176/8/10 182/8/10
f 176/8/10 179/8/10 177/8/10

