# Created by Kenney (www.kenney.nl)

mtllib tree.mtl

g tree

v 0.09999999 0 0 1 1 1
v 0.07071067 0 -0.07071067 1 1 1
v 0.07071067 0 0.07071067 1 1 1
v 0 0 0.09999999 1 1 1
v 0 0 -0.09999999 1 1 1
v -0.07071067 0 0.07071067 1 1 1
v -0.07071067 0 -0.07071067 1 1 1
v -0.09999999 0 0 1 1 1
v -0.06699999 0.25728 1.443823E-15 1 1 1
v -0.04737615 0.25728 0.04737615 1 1 1
v 0.04737615 0.25728 0.04737615 1 1 1
v -2.887645E-15 0.25728 0.06699999 1 1 1
v 0.06699999 0.25728 1.443823E-15 1 1 1
v -0.04737615 0.25728 -0.04737615 1 1 1
v -2.887645E-15 0.25728 -0.06699999 1 1 1
v 0.04737615 0.25728 -0.04737615 1 1 1
v -0.1698048 0.5139579 -1.490116E-08 1 1 1
v -0.1200701 0.5139579 0.1200701 1 1 1
v -0.245294 0.28228 -1.490116E-08 1 1 1
v -0.1734491 0.28228 0.1734491 1 1 1
v 1.490116E-08 0.28228 -0.2452941 1 1 1
v 0.1734491 0.28228 -0.1734491 1 1 1
v 1.490116E-08 0.5139579 -0.1698048 1 1 1
v 0.1200701 0.5139579 -0.1200701 1 1 1
v 0.1734491 0.28228 0.1734491 1 1 1
v 1.490116E-08 0.28228 0.245294 1 1 1
v 0.1200701 0.5139579 0.1200701 1 1 1
v 1.490116E-08 0.5139579 0.1698048 1 1 1
v 0.1698048 0.5139579 -1.490116E-08 1 1 1
v 0.2452941 0.28228 -1.490116E-08 1 1 1
v -0.1734491 0.28228 -0.1734491 1 1 1
v -0.1200701 0.5139579 -0.1200701 1 1 1
v 0.2251807 0.25728 -1.490116E-08 1 1 1
v 0.1592268 0.25728 -0.1592268 1 1 1
v 0.1592268 0.25728 0.1592267 1 1 1
v 1.490116E-08 0.25728 0.2251807 1 1 1
v 1.490116E-08 0.25728 -0.2251807 1 1 1
v -0.1592267 0.25728 0.1592267 1 1 1
v -0.1592267 0.25728 -0.1592268 1 1 1
v -0.2251807 0.25728 -1.490116E-08 1 1 1
v 0.1375327 0.5389578 0.1375326 1 1 1
v 1.490116E-08 0.5389578 0.1945005 1 1 1
v 0.03495243 0.8306564 0.03495239 1 1 1
v 1.490116E-08 0.8306564 0.04943016 1 1 1
v 0.1375327 0.5389578 -0.1375327 1 1 1
v 0.1945005 0.5389578 -1.490116E-08 1 1 1
v 0.03495243 0.8306564 -0.03495243 1 1 1
v 0.04943019 0.8306564 -1.490116E-08 1 1 1
v -0.1375326 0.5389578 0.1375326 1 1 1
v -0.03495239 0.8306564 0.03495239 1 1 1
v -0.1375326 0.5389578 -0.1375327 1 1 1
v 1.490116E-08 0.5389578 -0.1945005 1 1 1
v -0.03495239 0.8306564 -0.03495243 1 1 1
v 1.490116E-08 0.8306564 -0.04943019 1 1 1
v -0.1945005 0.5389578 -1.490116E-08 1 1 1
v -0.04943016 0.8306564 -1.490116E-08 1 1 1
v 0.1698048 0.5139579 -1.490116E-08 1 1 1
v 0.1200701 0.5139579 0.1200701 1 1 1
v 0.1200701 0.5139579 -0.1200701 1 1 1
v 1.490116E-08 0.5139579 -0.1698048 1 1 1
v -0.1698048 0.5139579 -1.490116E-08 1 1 1
v -0.1200701 0.5139579 0.1200701 1 1 1
v -0.1200701 0.5139579 -0.1200701 1 1 1
v 1.490116E-08 0.5139579 0.1698048 1 1 1

vn 0 -0.9999999 0
vn -0.9918741 0.1272227 0
vn -0.7013609 0.1272227 0.7013609
vn 0.7013609 0.1272227 0.7013609
vn 0 0.1272227 0.9918741
vn 0.9918741 0.1272227 0
vn -0.7013609 0.1272227 -0.7013609
vn 0 0.1272227 -0.9918741
vn 0.7013609 0.1272227 -0.7013609
vn -0.9507997 0.3098059 0
vn -0.6723169 0.3098059 0.6723169
vn -0.9866922 -0.1625985 0
vn -0.6976968 -0.1625985 0.6976968
vn 0 -0.1625985 -0.9866922
vn 0.6976968 -0.1625985 -0.6976968
vn 0 0.3098059 -0.9507997
vn 0.6723169 0.3098059 -0.6723169
vn 0.6976968 -0.1625985 0.6976968
vn 0 -0.1625985 0.9866922
vn 0.6723169 0.3098059 0.6723169
vn 0 0.3098059 0.9507997
vn 0.9507997 0.3098059 0
vn 0.9866922 -0.1625985 0
vn -0.6976968 -0.1625985 -0.6976968
vn -0.6723169 0.3098059 -0.6723169
vn 0.5112875 -0.8594096 0
vn 0.3615349 -0.8594096 -0.3615349
vn 0.3615349 -0.8594096 0.3615349
vn 0 -0.8594096 0.5112875
vn 0 -0.8594096 -0.5112875
vn -0.3615349 -0.8594096 0.3615349
vn -0.3615349 -0.8594096 -0.3615349
vn -0.5112875 -0.8594096 0
vn 0.7001622 -0.1398056 0.7001622
vn 0 -0.1398056 0.9901789
vn 0.4305283 0.7932785 0.4305283
vn 0 0.7932784 0.6088589
vn 0.7001622 -0.1398056 -0.7001622
vn 0.9901789 -0.1398056 0
vn 0.4305283 0.7932785 -0.4305283
vn 0.6088589 0.7932784 0
vn -0.7001622 -0.1398056 0.7001622
vn -0.4305283 0.7932785 0.4305283
vn -0.7001622 -0.1398056 -0.7001622
vn 0 -0.1398056 -0.9901789
vn -0.4305283 0.7932785 -0.4305283
vn 0 0.7932784 -0.6088589
vn -0.9901789 -0.1398056 0
vn -0.6088589 0.7932784 0
vn 0.7114229 -0.7027641 0
vn 0.5030519 -0.702764 0.5030519
vn 0.5030519 -0.702764 -0.5030519
vn 0 -0.7027641 -0.7114229
vn -0.7114229 -0.7027641 0
vn -0.5030519 -0.702764 0.5030519
vn -0.5030519 -0.702764 -0.5030519
vn 0 -0.7027641 0.7114229

vt 0.71875 0.225
vt 0.71875 0.025
vt 0.21875 0.425
vt 0.21875 0.3347398
vt 0.21875 0.325
vt 0.21875 0.3328939

usemtl colormap

f 3/1/1 2/1/1 1/1/1
f 2/1/1 3/1/1 4/1/1
f 2/1/1 4/1/1 5/1/1
f 5/1/1 4/1/1 6/1/1
f 5/1/1 6/1/1 7/1/1
f 7/1/1 6/1/1 8/1/1
f 6/1/3 9/2/2 8/1/2
f 9/2/2 6/1/3 10/2/3
f 11/2/4 4/1/5 3/1/4
f 4/1/5 11/2/4 12/2/5
f 13/2/6 3/1/4 1/1/6
f 3/1/4 13/2/6 11/2/4
f 8/1/2 14/2/7 7/1/7
f 14/2/7 8/1/2 9/2/2
f 15/2/8 2/1/9 5/1/8
f 2/1/9 15/2/8 16/2/9
f 16/2/9 1/1/6 2/1/9
f 1/1/6 16/2/9 13/2/6
f 12/2/5 6/1/3 4/1/5
f 6/1/3 12/2/5 10/2/3
f 14/2/7 5/1/8 7/1/7
f 5/1/8 14/2/7 15/2/8
f 19/4/12 18/3/11 17/3/10
f 18/3/11 19/4/12 20/4/13
f 23/3/16 22/4/15 21/4/14
f 22/4/15 23/3/16 24/3/17
f 27/3/20 26/4/19 25/4/18
f 26/4/19 27/3/20 28/3/21
f 27/3/20 30/4/23 29/3/22
f 30/4/23 27/3/20 25/4/18
f 24/3/17 30/4/23 22/4/15
f 30/4/23 24/3/17 29/3/22
f 28/3/21 20/4/13 26/4/19
f 20/4/13 28/3/21 18/3/11
f 19/4/12 32/3/25 31/4/24
f 32/3/25 19/4/12 17/3/10
f 32/3/25 21/4/14 31/4/24
f 21/4/14 32/3/25 23/3/16
f 35/5/28 34/5/27 33/5/26
f 34/5/27 35/5/28 36/5/29
f 34/5/27 36/5/29 37/5/30
f 37/5/30 36/5/29 38/5/31
f 37/5/30 38/5/31 39/5/32
f 39/5/32 38/5/31 40/5/33
f 26/4/19 38/5/31 36/5/29
f 38/5/31 26/4/19 20/4/13
f 25/4/18 33/5/26 30/4/23
f 33/5/26 25/4/18 35/5/28
f 25/4/18 36/5/29 35/5/28
f 36/5/29 25/4/18 26/4/19
f 21/4/14 34/5/27 37/5/30
f 34/5/27 21/4/14 22/4/15
f 31/4/24 37/5/30 39/5/32
f 37/5/30 31/4/24 21/4/14
f 30/4/23 34/5/27 22/4/15
f 34/5/27 30/4/23 33/5/26
f 39/5/32 19/4/12 31/4/24
f 19/4/12 39/5/32 40/5/33
f 38/5/31 19/4/12 40/5/33
f 19/4/12 38/5/31 20/4/13
f 43/3/36 42/6/35 41/6/34
f 42/6/35 43/3/36 44/3/37
f 47/3/40 46/6/39 45/6/38
f 46/6/39 47/3/40 48/3/41
f 44/3/37 49/6/42 42/6/35
f 49/6/42 44/3/37 50/3/43
f 53/3/46 52/6/45 51/6/44
f 52/6/45 53/3/46 54/3/47
f 54/3/47 45/6/38 52/6/45
f 45/6/38 54/3/47 47/3/40
f 49/6/42 56/3/49 55/6/48
f 56/3/49 49/6/42 50/3/43
f 55/6/48 53/3/46 51/6/44
f 53/3/46 55/6/48 56/3/49
f 48/3/41 41/6/34 46/6/39
f 41/6/34 48/3/41 43/3/36
f 41/6/34 57/5/50 46/6/39
f 57/5/50 41/6/34 58/5/51
f 46/6/39 59/5/52 45/6/38
f 59/5/52 46/6/39 57/5/50
f 52/6/45 59/5/52 60/5/53
f 59/5/52 52/6/45 45/6/38
f 62/5/55 55/6/48 61/5/54
f 55/6/48 62/5/55 49/6/42
f 63/5/56 55/6/48 51/6/44
f 55/6/48 63/5/56 61/5/54
f 42/6/35 62/5/55 64/5/57
f 62/5/55 42/6/35 49/6/42
f 41/6/34 64/5/57 58/5/51
f 64/5/57 41/6/34 42/6/35
f 51/6/44 60/5/53 63/5/56
f 60/5/53 51/6/44 52/6/45
f 47/3/40 43/3/36 48/3/41
f 43/3/36 47/3/40 54/3/47
f 43/3/36 54/3/47 44/3/37
f 44/3/37 54/3/47 53/3/46
f 44/3/37 53/3/46 50/3/43
f 50/3/43 53/3/46 56/3/49

g tree




usemtl colormap

f 3/1/1 2/1/1 1/1/1
f 2/1/1 3/1/1 4/1/1
f 2/1/1 4/1/1 5/1/1
f 5/1/1 4/1/1 6/1/1
f 5/1/1 6/1/1 7/1/1
f 7/1/1 6/1/1 8/1/1
f 6/1/3 9/2/2 8/1/2
f 9/2/2 6/1/3 10/2/3
f 11/2/4 4/1/5 3/1/4
f 4/1/5 11/2/4 12/2/5
f 13/2/6 3/1/4 1/1/6
f 3/1/4 13/2/6 11/2/4
f 8/1/2 14/2/7 7/1/7
f 14/2/7 8/1/2 9/2/2
f 15/2/8 2/1/9 5/1/8
f 2/1/9 15/2/8 16/2/9
f 16/2/9 1/1/6 2/1/9
f 1/1/6 16/2/9 13/2/6
f 12/2/5 6/1/3 4/1/5
f 6/1/3 12/2/5 10/2/3
f 14/2/7 5/1/8 7/1/7
f 5/1/8 14/2/7 15/2/8
f 19/4/12 18/3/11 17/3/10
f 18/3/11 19/4/12 20/4/13
f 23/3/16 22/4/15 21/4/14
f 22/4/15 23/3/16 24/3/17
f 27/3/20 26/4/19 25/4/18
f 26/4/19 27/3/20 28/3/21
f 27/3/20 30/4/23 29/3/22
f 30/4/23 27/3/20 25/4/18
f 24/3/17 30/4/23 22/4/15
f 30/4/23 24/3/17 29/3/22
f 28/3/21 20/4/13 26/4/19
f 20/4/13 28/3/21 18/3/11
f 19/4/12 32/3/25 31/4/24
f 32/3/25 19/4/12 17/3/10
f 32/3/25 21/4/14 31/4/24
f 21/4/14 32/3/25 23/3/16
f 35/5/28 34/5/27 33/5/26
f 34/5/27 35/5/28 36/5/29
f 34/5/27 36/5/29 37/5/30
f 37/5/30 36/5/29 38/5/31
f 37/5/30 38/5/31 39/5/32
f 39/5/32 38/5/31 40/5/33
f 26/4/19 38/5/31 36/5/29
f 38/5/31 26/4/19 20/4/13
f 25/4/18 33/5/26 30/4/23
f 33/5/26 25/4/18 35/5/28
f 25/4/18 36/5/29 35/5/28
f 36/5/29 25/4/18 26/4/19
f 21/4/14 34/5/27 37/5/30
f 34/5/27 21/4/14 22/4/15
f 31/4/24 37/5/30 39/5/32
f 37/5/30 31/4/24 21/4/14
f 30/4/23 34/5/27 22/4/15
f 34/5/27 30/4/23 33/5/26
f 39/5/32 19/4/12 31/4/24
f 19/4/12 39/5/32 40/5/33
f 38/5/31 19/4/12 40/5/33
f 19/4/12 38/5/31 20/4/13
f 43/3/36 42/6/35 41/6/34
f 42/6/35 43/3/36 44/3/37
f 47/3/40 46/6/39 45/6/38
f 46/6/39 47/3/40 48/3/41
f 44/3/37 49/6/42 42/6/35
f 49/6/42 44/3/37 50/3/43
f 53/3/46 52/6/45 51/6/44
f 52/6/45 53/3/46 54/3/47
f 54/3/47 45/6/38 52/6/45
f 45/6/38 54/3/47 47/3/40
f 49/6/42 56/3/49 55/6/48
f 56/3/49 49/6/42 50/3/43
f 55/6/48 53/3/46 51/6/44
f 53/3/46 55/6/48 56/3/49
f 48/3/41 41/6/34 46/6/39
f 41/6/34 48/3/41 43/3/36
f 41/6/34 57/5/50 46/6/39
f 57/5/50 41/6/34 58/5/51
f 46/6/39 59/5/52 45/6/38
f 59/5/52 46/6/39 57/5/50
f 52/6/45 59/5/52 60/5/53
f 59/5/52 52/6/45 45/6/38
f 62/5/55 55/6/48 61/5/54
f 55/6/48 62/5/55 49/6/42
f 63/5/56 55/6/48 51/6/44
f 55/6/48 63/5/56 61/5/54
f 42/6/35 62/5/55 64/5/57
f 62/5/55 42/6/35 49/6/42
f 41/6/34 64/5/57 58/5/51
f 64/5/57 41/6/34 42/6/35
f 51/6/44 60/5/53 63/5/56
f 60/5/53 51/6/44 52/6/45
f 47/3/40 43/3/36 48/3/41
f 43/3/36 47/3/40 54/3/47
f 43/3/36 54/3/47 44/3/37
f 44/3/37 54/3/47 53/3/46
f 44/3/37 53/3/46 50/3/43
f 50/3/43 53/3/46 56/3/49

