<svg width="128" height="64" xmlns="http://www.w3.org/2000/svg" xmlns:xlink="http://www.w3.org/1999/xlink">
  <defs>
    <linearGradient gradientUnits="userSpaceOnUse" x1="-819.2" x2="819.2" spreadMethod="pad" gradientTransform="matrix(0 0.0390625 -0.0390625 0 64 32)" id="gradient0">
      <stop offset="0" stop-color="#A27FF7"/>
      <stop offset="1" stop-color="#6238C6"/>
    </linearGradient>
  </defs>
  <g>
    <path stroke="none" fill="url(#gradient0)" d="M128 19.15 L128 44.95 Q128 46.6 127.15 48 126.35 49.4 124.9 50.3 L102.15 63.2 Q100.8 63.95 99.25 64 L29 64 Q27.4 64 26 63.2 L3.15 50.3 Q1.65 49.4 0.85 48 0 46.6 0 44.95 L0 19.15 Q0 17.45 0.85 16.05 1.65 14.65 3.15 13.8 L26 0.85 Q27.4 0 29 0 L99.25 0 Q100.8 0.05 102.15 0.85 L124.9 13.8 Q126.35 14.65 127.15 16.05 128 17.45 128 19.15 M121.95 19.05 L99.2 6.1 99.15 6.05 99.05 6 29.1 6 28.95 6.1 6.1 19.05 6.05 19.05 6 19.15 6 44.95 6.05 45.05 6.1 45.1 6.2 45.15 28.95 58 99.05 58 99.2 58 99.25 57.95 121.75 45.2 121.8 45.2 121.95 45.05 122 44.95 122 19.15 122.05 19.2 121.95 19.05"/>
    <path fill="none" stroke="#CFBFF7" stroke-width="2" stroke-linecap="round" stroke-linejoin="round" d="M121.95 19.05 L122.05 19.2 122 19.15 122 44.95 121.95 45.05 121.8 45.2 121.75 45.2 99.25 57.95 99.2 58 99.05 58 28.95 58 6.2 45.15 6.1 45.1 6.05 45.05 6 44.95 6 19.15 6.05 19.05 6.1 19.05 28.95 6.1 29.1 6 99.05 6 99.15 6.05 99.2 6.1 121.95 19.05"/>
  </g>
</svg>