<svg width="64" height="64" xmlns="http://www.w3.org/2000/svg" xmlns:xlink="http://www.w3.org/1999/xlink">
  <defs>
    <linearGradient gradientUnits="userSpaceOnUse" x1="-819.2" x2="819.2" spreadMethod="pad" gradientTransform="matrix(0 0.08544921875 -0.08544921875 0 70 32)" id="gradient0">
      <stop offset="0" stop-color="#A27FF7"/>
      <stop offset="1" stop-color="#6238C6"/>
    </linearGradient>
  </defs>
  <g>
    <path stroke="none" fill="url(#gradient0)" d="M36.25 1.75 L62.25 27.75 Q64 29.5 64 32 64 34.5 62.25 36.25 L36.25 62.25 Q34.5 64 32 64 L6 64 Q3.5 64 1.75 62.25 0 60.5 0 58 L0 6 Q0 3.5 1.75 1.75 3.5 0 6 0 L32 0 Q34.5 0 36.25 1.75 M6 6 L6 58 32 58 58 32 32 6 6 6"/>
    <path fill="none" stroke="#CFBFF7" stroke-width="2" stroke-linecap="round" stroke-linejoin="round" d="M6 6 L32 6 58 32 32 58 6 58 6 6"/>
  </g>
</svg>