<svg width="96" height="96" xmlns="http://www.w3.org/2000/svg" xmlns:xlink="http://www.w3.org/1999/xlink">
  <defs>
    <linearGradient gradientUnits="userSpaceOnUse" x1="-819.2" x2="819.2" spreadMethod="pad" gradientTransform="matrix(0 0.05859375 -0.05859375 0 48 48)" id="gradient0">
      <stop offset="0" stop-color="#A27FF7"/>
      <stop offset="1" stop-color="#6238C6"/>
    </linearGradient>
  </defs>
  <g>
    <path stroke="none" fill="url(#gradient0)" d="M36 0 L60 0 Q62.5 0 64.25 1.75 66 3.5 66 6 L66 30 90 30 Q92.5 30 94.25 31.75 96 33.5 96 36 L96 60 Q96 62.5 94.25 64.25 92.5 66 90 66 L66 66 66 90 Q66 92.5 64.25 94.25 62.5 96 60 96 L36 96 Q33.5 96 31.75 94.25 30 92.5 30 90 L30 66 6 66 Q3.5 66 1.75 64.25 0 62.5 0 60 L0 36 Q0 33.5 1.75 31.75 3.5 30 6 30 L30 30 30 6 Q30 3.5 31.75 1.75 33.5 0 36 0 M60 6 L36 6 36 36 6 36 6 60 36 60 36 90 60 90 60 60 90 60 90 36 60 36 60 6"/>
    <path fill="none" stroke="#CFBFF7" stroke-width="2" stroke-linecap="round" stroke-linejoin="round" d="M60 6 L60 36 90 36 90 60 60 60 60 90 36 90 36 60 6 60 6 36 36 36 36 6 60 6"/>
  </g>
</svg>