<svg width="64" height="64" xmlns="http://www.w3.org/2000/svg" xmlns:xlink="http://www.w3.org/1999/xlink">
  <defs>
    <linearGradient gradientUnits="userSpaceOnUse" x1="-819.2" x2="819.2" spreadMethod="pad" gradientTransform="matrix(0 0.08544921875 -0.08544921875 0 32 -6)" id="gradient0">
      <stop offset="0" stop-color="#A27FF7"/>
      <stop offset="1" stop-color="#6238C6"/>
    </linearGradient>
  </defs>
  <g>
    <path stroke="none" fill="url(#gradient0)" d="M1.75 27.75 L27.75 1.75 Q29.5 0 32 0 34.5 0 36.25 1.75 L62.25 27.75 Q64 29.5 64 32 L64 58 Q64 60.5 62.25 62.25 60.5 64 58 64 L6 64 Q3.5 64 1.75 62.25 0 60.5 0 58 L0 32 Q0 29.5 1.75 27.75 M6 58 L58 58 58 32 32 6 6 32 6 58"/>
    <path fill="none" stroke="#CFBFF7" stroke-width="2" stroke-linecap="round" stroke-linejoin="round" d="M6 58 L6 32 32 6 58 32 58 58 6 58"/>
  </g>
</svg>